%TF.GenerationSoftware,KiCad,Pcbnew,7.0.10-7.0.10~ubuntu22.04.1*%
%TF.CreationDate,2024-02-20T15:26:33+02:00*%
%TF.ProjectId,karabas-mini,6b617261-6261-4732-9d6d-696e692e6b69,rev?*%
%TF.SameCoordinates,Original*%
%TF.FileFunction,Drillmap*%
%TF.FilePolarity,Positive*%
%FSLAX45Y45*%
G04 Gerber Fmt 4.5, Leading zero omitted, Abs format (unit mm)*
G04 Created by KiCad (PCBNEW 7.0.10-7.0.10~ubuntu22.04.1) date 2024-02-20 15:26:33*
%MOMM*%
%LPD*%
G01*
G04 APERTURE LIST*
%ADD10C,0.050000*%
%ADD11C,0.200000*%
%ADD12C,0.100000*%
%ADD13C,0.105000*%
%ADD14C,0.119888*%
%ADD15C,0.130000*%
G04 APERTURE END LIST*
D10*
X12288734Y-4541868D02*
X12288732Y-10710832D01*
X11882332Y-11117232D02*
G75*
G03*
X12288732Y-10710832I-2J406402D01*
G01*
X5697432Y-4135468D02*
X11882334Y-4135468D01*
X11882332Y-11117232D02*
X5697432Y-11117232D01*
X12288732Y-4541868D02*
G75*
G03*
X11882334Y-4135468I-406402J-2D01*
G01*
X5291032Y-10710832D02*
X5291032Y-4541868D01*
X5291038Y-10710832D02*
G75*
G03*
X5697432Y-11117232I406392J-8D01*
G01*
X5697432Y-4135468D02*
G75*
G03*
X5291032Y-4541868I0J-406400D01*
G01*
D11*
D12*
X6158600Y-4624300D02*
X6223600Y-4689300D01*
X6223600Y-4624300D02*
X6158600Y-4689300D01*
X6736600Y-4624300D02*
X6801600Y-4689300D01*
X6801600Y-4624300D02*
X6736600Y-4689300D01*
X6430600Y-10718800D02*
G75*
G03*
X6330600Y-10718800I-50000J0D01*
G01*
X6330600Y-10718800D02*
G75*
G03*
X6430600Y-10718800I50000J0D01*
G01*
X7228600Y-10718800D02*
G75*
G03*
X7128600Y-10718800I-50000J0D01*
G01*
X7128600Y-10718800D02*
G75*
G03*
X7228600Y-10718800I50000J0D01*
G01*
X8193800Y-10718800D02*
G75*
G03*
X8093800Y-10718800I-50000J0D01*
G01*
X8093800Y-10718800D02*
G75*
G03*
X8193800Y-10718800I50000J0D01*
G01*
X8991800Y-10718800D02*
G75*
G03*
X8891800Y-10718800I-50000J0D01*
G01*
X8891800Y-10718800D02*
G75*
G03*
X8991800Y-10718800I50000J0D01*
G01*
D13*
X11496600Y-8172800D02*
X11496600Y-8277800D01*
X11444100Y-8225300D02*
X11549100Y-8225300D01*
D14*
X11461263Y-9846787D02*
X11461263Y-9762013D01*
X11376489Y-9762013D01*
X11376489Y-9846787D01*
X11461263Y-9846787D01*
X11474344Y-5922487D02*
X11474344Y-5837713D01*
X11389570Y-5837713D01*
X11389570Y-5922487D01*
X11474344Y-5922487D01*
X12161287Y-9846787D02*
X12161287Y-9762013D01*
X12076513Y-9762013D01*
X12076513Y-9846787D01*
X12161287Y-9846787D01*
X12174368Y-5922487D02*
X12174368Y-5837713D01*
X12089594Y-5837713D01*
X12089594Y-5922487D01*
X12174368Y-5922487D01*
D15*
X11496600Y-7545300D02*
X11561600Y-7480300D01*
X11496600Y-7415300D01*
X11431600Y-7480300D01*
X11496600Y-7545300D01*
D11*
X5549309Y-11431216D02*
X5549309Y-11231216D01*
X5549309Y-11231216D02*
X5596928Y-11231216D01*
X5596928Y-11231216D02*
X5625499Y-11240739D01*
X5625499Y-11240739D02*
X5644547Y-11259787D01*
X5644547Y-11259787D02*
X5654070Y-11278835D01*
X5654070Y-11278835D02*
X5663594Y-11316930D01*
X5663594Y-11316930D02*
X5663594Y-11345501D01*
X5663594Y-11345501D02*
X5654070Y-11383596D01*
X5654070Y-11383596D02*
X5644547Y-11402644D01*
X5644547Y-11402644D02*
X5625499Y-11421692D01*
X5625499Y-11421692D02*
X5596928Y-11431216D01*
X5596928Y-11431216D02*
X5549309Y-11431216D01*
X5749309Y-11431216D02*
X5749309Y-11297882D01*
X5749309Y-11335977D02*
X5758832Y-11316930D01*
X5758832Y-11316930D02*
X5768356Y-11307406D01*
X5768356Y-11307406D02*
X5787404Y-11297882D01*
X5787404Y-11297882D02*
X5806451Y-11297882D01*
X5873118Y-11431216D02*
X5873118Y-11297882D01*
X5873118Y-11231216D02*
X5863594Y-11240739D01*
X5863594Y-11240739D02*
X5873118Y-11250263D01*
X5873118Y-11250263D02*
X5882642Y-11240739D01*
X5882642Y-11240739D02*
X5873118Y-11231216D01*
X5873118Y-11231216D02*
X5873118Y-11250263D01*
X5996928Y-11431216D02*
X5977880Y-11421692D01*
X5977880Y-11421692D02*
X5968356Y-11402644D01*
X5968356Y-11402644D02*
X5968356Y-11231216D01*
X6101689Y-11431216D02*
X6082642Y-11421692D01*
X6082642Y-11421692D02*
X6073118Y-11402644D01*
X6073118Y-11402644D02*
X6073118Y-11231216D01*
X6330261Y-11431216D02*
X6330261Y-11231216D01*
X6330261Y-11231216D02*
X6396928Y-11374073D01*
X6396928Y-11374073D02*
X6463594Y-11231216D01*
X6463594Y-11231216D02*
X6463594Y-11431216D01*
X6644547Y-11431216D02*
X6644547Y-11326454D01*
X6644547Y-11326454D02*
X6635023Y-11307406D01*
X6635023Y-11307406D02*
X6615975Y-11297882D01*
X6615975Y-11297882D02*
X6577880Y-11297882D01*
X6577880Y-11297882D02*
X6558832Y-11307406D01*
X6644547Y-11421692D02*
X6625499Y-11431216D01*
X6625499Y-11431216D02*
X6577880Y-11431216D01*
X6577880Y-11431216D02*
X6558832Y-11421692D01*
X6558832Y-11421692D02*
X6549309Y-11402644D01*
X6549309Y-11402644D02*
X6549309Y-11383596D01*
X6549309Y-11383596D02*
X6558832Y-11364549D01*
X6558832Y-11364549D02*
X6577880Y-11355025D01*
X6577880Y-11355025D02*
X6625499Y-11355025D01*
X6625499Y-11355025D02*
X6644547Y-11345501D01*
X6739785Y-11297882D02*
X6739785Y-11497882D01*
X6739785Y-11307406D02*
X6758832Y-11297882D01*
X6758832Y-11297882D02*
X6796928Y-11297882D01*
X6796928Y-11297882D02*
X6815975Y-11307406D01*
X6815975Y-11307406D02*
X6825499Y-11316930D01*
X6825499Y-11316930D02*
X6835023Y-11335977D01*
X6835023Y-11335977D02*
X6835023Y-11393120D01*
X6835023Y-11393120D02*
X6825499Y-11412168D01*
X6825499Y-11412168D02*
X6815975Y-11421692D01*
X6815975Y-11421692D02*
X6796928Y-11431216D01*
X6796928Y-11431216D02*
X6758832Y-11431216D01*
X6758832Y-11431216D02*
X6739785Y-11421692D01*
X6920737Y-11412168D02*
X6930261Y-11421692D01*
X6930261Y-11421692D02*
X6920737Y-11431216D01*
X6920737Y-11431216D02*
X6911213Y-11421692D01*
X6911213Y-11421692D02*
X6920737Y-11412168D01*
X6920737Y-11412168D02*
X6920737Y-11431216D01*
X6920737Y-11307406D02*
X6930261Y-11316930D01*
X6930261Y-11316930D02*
X6920737Y-11326454D01*
X6920737Y-11326454D02*
X6911213Y-11316930D01*
X6911213Y-11316930D02*
X6920737Y-11307406D01*
X6920737Y-11307406D02*
X6920737Y-11326454D01*
D12*
X5223532Y-11727232D02*
X5288532Y-11792232D01*
X5288532Y-11727232D02*
X5223532Y-11792232D01*
D11*
X5587404Y-11651216D02*
X5606451Y-11651216D01*
X5606451Y-11651216D02*
X5625499Y-11660739D01*
X5625499Y-11660739D02*
X5635023Y-11670263D01*
X5635023Y-11670263D02*
X5644547Y-11689311D01*
X5644547Y-11689311D02*
X5654070Y-11727406D01*
X5654070Y-11727406D02*
X5654070Y-11775025D01*
X5654070Y-11775025D02*
X5644547Y-11813120D01*
X5644547Y-11813120D02*
X5635023Y-11832168D01*
X5635023Y-11832168D02*
X5625499Y-11841692D01*
X5625499Y-11841692D02*
X5606451Y-11851216D01*
X5606451Y-11851216D02*
X5587404Y-11851216D01*
X5587404Y-11851216D02*
X5568356Y-11841692D01*
X5568356Y-11841692D02*
X5558832Y-11832168D01*
X5558832Y-11832168D02*
X5549309Y-11813120D01*
X5549309Y-11813120D02*
X5539785Y-11775025D01*
X5539785Y-11775025D02*
X5539785Y-11727406D01*
X5539785Y-11727406D02*
X5549309Y-11689311D01*
X5549309Y-11689311D02*
X5558832Y-11670263D01*
X5558832Y-11670263D02*
X5568356Y-11660739D01*
X5568356Y-11660739D02*
X5587404Y-11651216D01*
X5739785Y-11832168D02*
X5749309Y-11841692D01*
X5749309Y-11841692D02*
X5739785Y-11851216D01*
X5739785Y-11851216D02*
X5730261Y-11841692D01*
X5730261Y-11841692D02*
X5739785Y-11832168D01*
X5739785Y-11832168D02*
X5739785Y-11851216D01*
X5920737Y-11651216D02*
X5882642Y-11651216D01*
X5882642Y-11651216D02*
X5863594Y-11660739D01*
X5863594Y-11660739D02*
X5854070Y-11670263D01*
X5854070Y-11670263D02*
X5835023Y-11698835D01*
X5835023Y-11698835D02*
X5825499Y-11736930D01*
X5825499Y-11736930D02*
X5825499Y-11813120D01*
X5825499Y-11813120D02*
X5835023Y-11832168D01*
X5835023Y-11832168D02*
X5844547Y-11841692D01*
X5844547Y-11841692D02*
X5863594Y-11851216D01*
X5863594Y-11851216D02*
X5901690Y-11851216D01*
X5901690Y-11851216D02*
X5920737Y-11841692D01*
X5920737Y-11841692D02*
X5930261Y-11832168D01*
X5930261Y-11832168D02*
X5939785Y-11813120D01*
X5939785Y-11813120D02*
X5939785Y-11765501D01*
X5939785Y-11765501D02*
X5930261Y-11746454D01*
X5930261Y-11746454D02*
X5920737Y-11736930D01*
X5920737Y-11736930D02*
X5901690Y-11727406D01*
X5901690Y-11727406D02*
X5863594Y-11727406D01*
X5863594Y-11727406D02*
X5844547Y-11736930D01*
X5844547Y-11736930D02*
X5835023Y-11746454D01*
X5835023Y-11746454D02*
X5825499Y-11765501D01*
X6120737Y-11651216D02*
X6025499Y-11651216D01*
X6025499Y-11651216D02*
X6015975Y-11746454D01*
X6015975Y-11746454D02*
X6025499Y-11736930D01*
X6025499Y-11736930D02*
X6044547Y-11727406D01*
X6044547Y-11727406D02*
X6092166Y-11727406D01*
X6092166Y-11727406D02*
X6111213Y-11736930D01*
X6111213Y-11736930D02*
X6120737Y-11746454D01*
X6120737Y-11746454D02*
X6130261Y-11765501D01*
X6130261Y-11765501D02*
X6130261Y-11813120D01*
X6130261Y-11813120D02*
X6120737Y-11832168D01*
X6120737Y-11832168D02*
X6111213Y-11841692D01*
X6111213Y-11841692D02*
X6092166Y-11851216D01*
X6092166Y-11851216D02*
X6044547Y-11851216D01*
X6044547Y-11851216D02*
X6025499Y-11841692D01*
X6025499Y-11841692D02*
X6015975Y-11832168D01*
X6254070Y-11651216D02*
X6273118Y-11651216D01*
X6273118Y-11651216D02*
X6292166Y-11660739D01*
X6292166Y-11660739D02*
X6301690Y-11670263D01*
X6301690Y-11670263D02*
X6311213Y-11689311D01*
X6311213Y-11689311D02*
X6320737Y-11727406D01*
X6320737Y-11727406D02*
X6320737Y-11775025D01*
X6320737Y-11775025D02*
X6311213Y-11813120D01*
X6311213Y-11813120D02*
X6301690Y-11832168D01*
X6301690Y-11832168D02*
X6292166Y-11841692D01*
X6292166Y-11841692D02*
X6273118Y-11851216D01*
X6273118Y-11851216D02*
X6254070Y-11851216D01*
X6254070Y-11851216D02*
X6235023Y-11841692D01*
X6235023Y-11841692D02*
X6225499Y-11832168D01*
X6225499Y-11832168D02*
X6215975Y-11813120D01*
X6215975Y-11813120D02*
X6206451Y-11775025D01*
X6206451Y-11775025D02*
X6206451Y-11727406D01*
X6206451Y-11727406D02*
X6215975Y-11689311D01*
X6215975Y-11689311D02*
X6225499Y-11670263D01*
X6225499Y-11670263D02*
X6235023Y-11660739D01*
X6235023Y-11660739D02*
X6254070Y-11651216D01*
X6406451Y-11851216D02*
X6406451Y-11717882D01*
X6406451Y-11736930D02*
X6415975Y-11727406D01*
X6415975Y-11727406D02*
X6435023Y-11717882D01*
X6435023Y-11717882D02*
X6463594Y-11717882D01*
X6463594Y-11717882D02*
X6482642Y-11727406D01*
X6482642Y-11727406D02*
X6492166Y-11746454D01*
X6492166Y-11746454D02*
X6492166Y-11851216D01*
X6492166Y-11746454D02*
X6501690Y-11727406D01*
X6501690Y-11727406D02*
X6520737Y-11717882D01*
X6520737Y-11717882D02*
X6549309Y-11717882D01*
X6549309Y-11717882D02*
X6568356Y-11727406D01*
X6568356Y-11727406D02*
X6577880Y-11746454D01*
X6577880Y-11746454D02*
X6577880Y-11851216D01*
X6673118Y-11851216D02*
X6673118Y-11717882D01*
X6673118Y-11736930D02*
X6682642Y-11727406D01*
X6682642Y-11727406D02*
X6701690Y-11717882D01*
X6701690Y-11717882D02*
X6730261Y-11717882D01*
X6730261Y-11717882D02*
X6749309Y-11727406D01*
X6749309Y-11727406D02*
X6758832Y-11746454D01*
X6758832Y-11746454D02*
X6758832Y-11851216D01*
X6758832Y-11746454D02*
X6768356Y-11727406D01*
X6768356Y-11727406D02*
X6787404Y-11717882D01*
X6787404Y-11717882D02*
X6815975Y-11717882D01*
X6815975Y-11717882D02*
X6835023Y-11727406D01*
X6835023Y-11727406D02*
X6844547Y-11746454D01*
X6844547Y-11746454D02*
X6844547Y-11851216D01*
X7235023Y-11641692D02*
X7063594Y-11898835D01*
X7492166Y-11651216D02*
X7511214Y-11651216D01*
X7511214Y-11651216D02*
X7530261Y-11660739D01*
X7530261Y-11660739D02*
X7539785Y-11670263D01*
X7539785Y-11670263D02*
X7549309Y-11689311D01*
X7549309Y-11689311D02*
X7558833Y-11727406D01*
X7558833Y-11727406D02*
X7558833Y-11775025D01*
X7558833Y-11775025D02*
X7549309Y-11813120D01*
X7549309Y-11813120D02*
X7539785Y-11832168D01*
X7539785Y-11832168D02*
X7530261Y-11841692D01*
X7530261Y-11841692D02*
X7511214Y-11851216D01*
X7511214Y-11851216D02*
X7492166Y-11851216D01*
X7492166Y-11851216D02*
X7473118Y-11841692D01*
X7473118Y-11841692D02*
X7463594Y-11832168D01*
X7463594Y-11832168D02*
X7454071Y-11813120D01*
X7454071Y-11813120D02*
X7444547Y-11775025D01*
X7444547Y-11775025D02*
X7444547Y-11727406D01*
X7444547Y-11727406D02*
X7454071Y-11689311D01*
X7454071Y-11689311D02*
X7463594Y-11670263D01*
X7463594Y-11670263D02*
X7473118Y-11660739D01*
X7473118Y-11660739D02*
X7492166Y-11651216D01*
X7644547Y-11832168D02*
X7654071Y-11841692D01*
X7654071Y-11841692D02*
X7644547Y-11851216D01*
X7644547Y-11851216D02*
X7635023Y-11841692D01*
X7635023Y-11841692D02*
X7644547Y-11832168D01*
X7644547Y-11832168D02*
X7644547Y-11851216D01*
X7777880Y-11651216D02*
X7796928Y-11651216D01*
X7796928Y-11651216D02*
X7815975Y-11660739D01*
X7815975Y-11660739D02*
X7825499Y-11670263D01*
X7825499Y-11670263D02*
X7835023Y-11689311D01*
X7835023Y-11689311D02*
X7844547Y-11727406D01*
X7844547Y-11727406D02*
X7844547Y-11775025D01*
X7844547Y-11775025D02*
X7835023Y-11813120D01*
X7835023Y-11813120D02*
X7825499Y-11832168D01*
X7825499Y-11832168D02*
X7815975Y-11841692D01*
X7815975Y-11841692D02*
X7796928Y-11851216D01*
X7796928Y-11851216D02*
X7777880Y-11851216D01*
X7777880Y-11851216D02*
X7758833Y-11841692D01*
X7758833Y-11841692D02*
X7749309Y-11832168D01*
X7749309Y-11832168D02*
X7739785Y-11813120D01*
X7739785Y-11813120D02*
X7730261Y-11775025D01*
X7730261Y-11775025D02*
X7730261Y-11727406D01*
X7730261Y-11727406D02*
X7739785Y-11689311D01*
X7739785Y-11689311D02*
X7749309Y-11670263D01*
X7749309Y-11670263D02*
X7758833Y-11660739D01*
X7758833Y-11660739D02*
X7777880Y-11651216D01*
X7920737Y-11670263D02*
X7930261Y-11660739D01*
X7930261Y-11660739D02*
X7949309Y-11651216D01*
X7949309Y-11651216D02*
X7996928Y-11651216D01*
X7996928Y-11651216D02*
X8015975Y-11660739D01*
X8015975Y-11660739D02*
X8025499Y-11670263D01*
X8025499Y-11670263D02*
X8035023Y-11689311D01*
X8035023Y-11689311D02*
X8035023Y-11708358D01*
X8035023Y-11708358D02*
X8025499Y-11736930D01*
X8025499Y-11736930D02*
X7911214Y-11851216D01*
X7911214Y-11851216D02*
X8035023Y-11851216D01*
X8215975Y-11651216D02*
X8120737Y-11651216D01*
X8120737Y-11651216D02*
X8111214Y-11746454D01*
X8111214Y-11746454D02*
X8120737Y-11736930D01*
X8120737Y-11736930D02*
X8139785Y-11727406D01*
X8139785Y-11727406D02*
X8187404Y-11727406D01*
X8187404Y-11727406D02*
X8206452Y-11736930D01*
X8206452Y-11736930D02*
X8215975Y-11746454D01*
X8215975Y-11746454D02*
X8225499Y-11765501D01*
X8225499Y-11765501D02*
X8225499Y-11813120D01*
X8225499Y-11813120D02*
X8215975Y-11832168D01*
X8215975Y-11832168D02*
X8206452Y-11841692D01*
X8206452Y-11841692D02*
X8187404Y-11851216D01*
X8187404Y-11851216D02*
X8139785Y-11851216D01*
X8139785Y-11851216D02*
X8120737Y-11841692D01*
X8120737Y-11841692D02*
X8111214Y-11832168D01*
X8396928Y-11651216D02*
X8358833Y-11651216D01*
X8358833Y-11651216D02*
X8339785Y-11660739D01*
X8339785Y-11660739D02*
X8330261Y-11670263D01*
X8330261Y-11670263D02*
X8311214Y-11698835D01*
X8311214Y-11698835D02*
X8301690Y-11736930D01*
X8301690Y-11736930D02*
X8301690Y-11813120D01*
X8301690Y-11813120D02*
X8311214Y-11832168D01*
X8311214Y-11832168D02*
X8320737Y-11841692D01*
X8320737Y-11841692D02*
X8339785Y-11851216D01*
X8339785Y-11851216D02*
X8377880Y-11851216D01*
X8377880Y-11851216D02*
X8396928Y-11841692D01*
X8396928Y-11841692D02*
X8406452Y-11832168D01*
X8406452Y-11832168D02*
X8415976Y-11813120D01*
X8415976Y-11813120D02*
X8415976Y-11765501D01*
X8415976Y-11765501D02*
X8406452Y-11746454D01*
X8406452Y-11746454D02*
X8396928Y-11736930D01*
X8396928Y-11736930D02*
X8377880Y-11727406D01*
X8377880Y-11727406D02*
X8339785Y-11727406D01*
X8339785Y-11727406D02*
X8320737Y-11736930D01*
X8320737Y-11736930D02*
X8311214Y-11746454D01*
X8311214Y-11746454D02*
X8301690Y-11765501D01*
X8492166Y-11651216D02*
X8492166Y-11689311D01*
X8568357Y-11651216D02*
X8568357Y-11689311D01*
X8863595Y-11927406D02*
X8854071Y-11917882D01*
X8854071Y-11917882D02*
X8835023Y-11889311D01*
X8835023Y-11889311D02*
X8825499Y-11870263D01*
X8825499Y-11870263D02*
X8815976Y-11841692D01*
X8815976Y-11841692D02*
X8806452Y-11794073D01*
X8806452Y-11794073D02*
X8806452Y-11755977D01*
X8806452Y-11755977D02*
X8815976Y-11708358D01*
X8815976Y-11708358D02*
X8825499Y-11679787D01*
X8825499Y-11679787D02*
X8835023Y-11660739D01*
X8835023Y-11660739D02*
X8854071Y-11632168D01*
X8854071Y-11632168D02*
X8863595Y-11622644D01*
X8930261Y-11670263D02*
X8939785Y-11660739D01*
X8939785Y-11660739D02*
X8958833Y-11651216D01*
X8958833Y-11651216D02*
X9006452Y-11651216D01*
X9006452Y-11651216D02*
X9025499Y-11660739D01*
X9025499Y-11660739D02*
X9035023Y-11670263D01*
X9035023Y-11670263D02*
X9044547Y-11689311D01*
X9044547Y-11689311D02*
X9044547Y-11708358D01*
X9044547Y-11708358D02*
X9035023Y-11736930D01*
X9035023Y-11736930D02*
X8920738Y-11851216D01*
X8920738Y-11851216D02*
X9044547Y-11851216D01*
X9282642Y-11851216D02*
X9282642Y-11651216D01*
X9368357Y-11851216D02*
X9368357Y-11746454D01*
X9368357Y-11746454D02*
X9358833Y-11727406D01*
X9358833Y-11727406D02*
X9339785Y-11717882D01*
X9339785Y-11717882D02*
X9311214Y-11717882D01*
X9311214Y-11717882D02*
X9292166Y-11727406D01*
X9292166Y-11727406D02*
X9282642Y-11736930D01*
X9492166Y-11851216D02*
X9473119Y-11841692D01*
X9473119Y-11841692D02*
X9463595Y-11832168D01*
X9463595Y-11832168D02*
X9454071Y-11813120D01*
X9454071Y-11813120D02*
X9454071Y-11755977D01*
X9454071Y-11755977D02*
X9463595Y-11736930D01*
X9463595Y-11736930D02*
X9473119Y-11727406D01*
X9473119Y-11727406D02*
X9492166Y-11717882D01*
X9492166Y-11717882D02*
X9520738Y-11717882D01*
X9520738Y-11717882D02*
X9539785Y-11727406D01*
X9539785Y-11727406D02*
X9549309Y-11736930D01*
X9549309Y-11736930D02*
X9558833Y-11755977D01*
X9558833Y-11755977D02*
X9558833Y-11813120D01*
X9558833Y-11813120D02*
X9549309Y-11832168D01*
X9549309Y-11832168D02*
X9539785Y-11841692D01*
X9539785Y-11841692D02*
X9520738Y-11851216D01*
X9520738Y-11851216D02*
X9492166Y-11851216D01*
X9673119Y-11851216D02*
X9654071Y-11841692D01*
X9654071Y-11841692D02*
X9644547Y-11822644D01*
X9644547Y-11822644D02*
X9644547Y-11651216D01*
X9825500Y-11841692D02*
X9806452Y-11851216D01*
X9806452Y-11851216D02*
X9768357Y-11851216D01*
X9768357Y-11851216D02*
X9749309Y-11841692D01*
X9749309Y-11841692D02*
X9739785Y-11822644D01*
X9739785Y-11822644D02*
X9739785Y-11746454D01*
X9739785Y-11746454D02*
X9749309Y-11727406D01*
X9749309Y-11727406D02*
X9768357Y-11717882D01*
X9768357Y-11717882D02*
X9806452Y-11717882D01*
X9806452Y-11717882D02*
X9825500Y-11727406D01*
X9825500Y-11727406D02*
X9835023Y-11746454D01*
X9835023Y-11746454D02*
X9835023Y-11765501D01*
X9835023Y-11765501D02*
X9739785Y-11784549D01*
X9911214Y-11841692D02*
X9930261Y-11851216D01*
X9930261Y-11851216D02*
X9968357Y-11851216D01*
X9968357Y-11851216D02*
X9987404Y-11841692D01*
X9987404Y-11841692D02*
X9996928Y-11822644D01*
X9996928Y-11822644D02*
X9996928Y-11813120D01*
X9996928Y-11813120D02*
X9987404Y-11794073D01*
X9987404Y-11794073D02*
X9968357Y-11784549D01*
X9968357Y-11784549D02*
X9939785Y-11784549D01*
X9939785Y-11784549D02*
X9920738Y-11775025D01*
X9920738Y-11775025D02*
X9911214Y-11755977D01*
X9911214Y-11755977D02*
X9911214Y-11746454D01*
X9911214Y-11746454D02*
X9920738Y-11727406D01*
X9920738Y-11727406D02*
X9939785Y-11717882D01*
X9939785Y-11717882D02*
X9968357Y-11717882D01*
X9968357Y-11717882D02*
X9987404Y-11727406D01*
X10063595Y-11927406D02*
X10073119Y-11917882D01*
X10073119Y-11917882D02*
X10092166Y-11889311D01*
X10092166Y-11889311D02*
X10101690Y-11870263D01*
X10101690Y-11870263D02*
X10111214Y-11841692D01*
X10111214Y-11841692D02*
X10120738Y-11794073D01*
X10120738Y-11794073D02*
X10120738Y-11755977D01*
X10120738Y-11755977D02*
X10111214Y-11708358D01*
X10111214Y-11708358D02*
X10101690Y-11679787D01*
X10101690Y-11679787D02*
X10092166Y-11660739D01*
X10092166Y-11660739D02*
X10073119Y-11632168D01*
X10073119Y-11632168D02*
X10063595Y-11622644D01*
X10425500Y-11927406D02*
X10415976Y-11917882D01*
X10415976Y-11917882D02*
X10396928Y-11889311D01*
X10396928Y-11889311D02*
X10387404Y-11870263D01*
X10387404Y-11870263D02*
X10377881Y-11841692D01*
X10377881Y-11841692D02*
X10368357Y-11794073D01*
X10368357Y-11794073D02*
X10368357Y-11755977D01*
X10368357Y-11755977D02*
X10377881Y-11708358D01*
X10377881Y-11708358D02*
X10387404Y-11679787D01*
X10387404Y-11679787D02*
X10396928Y-11660739D01*
X10396928Y-11660739D02*
X10415976Y-11632168D01*
X10415976Y-11632168D02*
X10425500Y-11622644D01*
X10501690Y-11717882D02*
X10501690Y-11851216D01*
X10501690Y-11736930D02*
X10511214Y-11727406D01*
X10511214Y-11727406D02*
X10530261Y-11717882D01*
X10530261Y-11717882D02*
X10558833Y-11717882D01*
X10558833Y-11717882D02*
X10577881Y-11727406D01*
X10577881Y-11727406D02*
X10587404Y-11746454D01*
X10587404Y-11746454D02*
X10587404Y-11851216D01*
X10711214Y-11851216D02*
X10692166Y-11841692D01*
X10692166Y-11841692D02*
X10682642Y-11832168D01*
X10682642Y-11832168D02*
X10673119Y-11813120D01*
X10673119Y-11813120D02*
X10673119Y-11755977D01*
X10673119Y-11755977D02*
X10682642Y-11736930D01*
X10682642Y-11736930D02*
X10692166Y-11727406D01*
X10692166Y-11727406D02*
X10711214Y-11717882D01*
X10711214Y-11717882D02*
X10739785Y-11717882D01*
X10739785Y-11717882D02*
X10758833Y-11727406D01*
X10758833Y-11727406D02*
X10768357Y-11736930D01*
X10768357Y-11736930D02*
X10777881Y-11755977D01*
X10777881Y-11755977D02*
X10777881Y-11813120D01*
X10777881Y-11813120D02*
X10768357Y-11832168D01*
X10768357Y-11832168D02*
X10758833Y-11841692D01*
X10758833Y-11841692D02*
X10739785Y-11851216D01*
X10739785Y-11851216D02*
X10711214Y-11851216D01*
X10835023Y-11717882D02*
X10911214Y-11717882D01*
X10863595Y-11651216D02*
X10863595Y-11822644D01*
X10863595Y-11822644D02*
X10873119Y-11841692D01*
X10873119Y-11841692D02*
X10892166Y-11851216D01*
X10892166Y-11851216D02*
X10911214Y-11851216D01*
X11130262Y-11717882D02*
X11130262Y-11917882D01*
X11130262Y-11727406D02*
X11149309Y-11717882D01*
X11149309Y-11717882D02*
X11187404Y-11717882D01*
X11187404Y-11717882D02*
X11206452Y-11727406D01*
X11206452Y-11727406D02*
X11215976Y-11736930D01*
X11215976Y-11736930D02*
X11225500Y-11755977D01*
X11225500Y-11755977D02*
X11225500Y-11813120D01*
X11225500Y-11813120D02*
X11215976Y-11832168D01*
X11215976Y-11832168D02*
X11206452Y-11841692D01*
X11206452Y-11841692D02*
X11187404Y-11851216D01*
X11187404Y-11851216D02*
X11149309Y-11851216D01*
X11149309Y-11851216D02*
X11130262Y-11841692D01*
X11339785Y-11851216D02*
X11320738Y-11841692D01*
X11320738Y-11841692D02*
X11311214Y-11822644D01*
X11311214Y-11822644D02*
X11311214Y-11651216D01*
X11501690Y-11851216D02*
X11501690Y-11746454D01*
X11501690Y-11746454D02*
X11492166Y-11727406D01*
X11492166Y-11727406D02*
X11473119Y-11717882D01*
X11473119Y-11717882D02*
X11435023Y-11717882D01*
X11435023Y-11717882D02*
X11415976Y-11727406D01*
X11501690Y-11841692D02*
X11482642Y-11851216D01*
X11482642Y-11851216D02*
X11435023Y-11851216D01*
X11435023Y-11851216D02*
X11415976Y-11841692D01*
X11415976Y-11841692D02*
X11406452Y-11822644D01*
X11406452Y-11822644D02*
X11406452Y-11803596D01*
X11406452Y-11803596D02*
X11415976Y-11784549D01*
X11415976Y-11784549D02*
X11435023Y-11775025D01*
X11435023Y-11775025D02*
X11482642Y-11775025D01*
X11482642Y-11775025D02*
X11501690Y-11765501D01*
X11568357Y-11717882D02*
X11644547Y-11717882D01*
X11596928Y-11651216D02*
X11596928Y-11822644D01*
X11596928Y-11822644D02*
X11606452Y-11841692D01*
X11606452Y-11841692D02*
X11625500Y-11851216D01*
X11625500Y-11851216D02*
X11644547Y-11851216D01*
X11787404Y-11841692D02*
X11768357Y-11851216D01*
X11768357Y-11851216D02*
X11730261Y-11851216D01*
X11730261Y-11851216D02*
X11711214Y-11841692D01*
X11711214Y-11841692D02*
X11701690Y-11822644D01*
X11701690Y-11822644D02*
X11701690Y-11746454D01*
X11701690Y-11746454D02*
X11711214Y-11727406D01*
X11711214Y-11727406D02*
X11730261Y-11717882D01*
X11730261Y-11717882D02*
X11768357Y-11717882D01*
X11768357Y-11717882D02*
X11787404Y-11727406D01*
X11787404Y-11727406D02*
X11796928Y-11746454D01*
X11796928Y-11746454D02*
X11796928Y-11765501D01*
X11796928Y-11765501D02*
X11701690Y-11784549D01*
X11968357Y-11851216D02*
X11968357Y-11651216D01*
X11968357Y-11841692D02*
X11949309Y-11851216D01*
X11949309Y-11851216D02*
X11911214Y-11851216D01*
X11911214Y-11851216D02*
X11892166Y-11841692D01*
X11892166Y-11841692D02*
X11882642Y-11832168D01*
X11882642Y-11832168D02*
X11873119Y-11813120D01*
X11873119Y-11813120D02*
X11873119Y-11755977D01*
X11873119Y-11755977D02*
X11882642Y-11736930D01*
X11882642Y-11736930D02*
X11892166Y-11727406D01*
X11892166Y-11727406D02*
X11911214Y-11717882D01*
X11911214Y-11717882D02*
X11949309Y-11717882D01*
X11949309Y-11717882D02*
X11968357Y-11727406D01*
X12044547Y-11927406D02*
X12054071Y-11917882D01*
X12054071Y-11917882D02*
X12073119Y-11889311D01*
X12073119Y-11889311D02*
X12082642Y-11870263D01*
X12082642Y-11870263D02*
X12092166Y-11841692D01*
X12092166Y-11841692D02*
X12101690Y-11794073D01*
X12101690Y-11794073D02*
X12101690Y-11755977D01*
X12101690Y-11755977D02*
X12092166Y-11708358D01*
X12092166Y-11708358D02*
X12082642Y-11679787D01*
X12082642Y-11679787D02*
X12073119Y-11660739D01*
X12073119Y-11660739D02*
X12054071Y-11632168D01*
X12054071Y-11632168D02*
X12044547Y-11622644D01*
D12*
X5288532Y-12023732D02*
G75*
G03*
X5188532Y-12023732I-50000J0D01*
G01*
X5188532Y-12023732D02*
G75*
G03*
X5288532Y-12023732I50000J0D01*
G01*
D11*
X5654070Y-12115216D02*
X5539785Y-12115216D01*
X5596928Y-12115216D02*
X5596928Y-11915216D01*
X5596928Y-11915216D02*
X5577880Y-11943787D01*
X5577880Y-11943787D02*
X5558832Y-11962835D01*
X5558832Y-11962835D02*
X5539785Y-11972358D01*
X5739785Y-12096168D02*
X5749309Y-12105692D01*
X5749309Y-12105692D02*
X5739785Y-12115216D01*
X5739785Y-12115216D02*
X5730261Y-12105692D01*
X5730261Y-12105692D02*
X5739785Y-12096168D01*
X5739785Y-12096168D02*
X5739785Y-12115216D01*
X5873118Y-11915216D02*
X5892166Y-11915216D01*
X5892166Y-11915216D02*
X5911213Y-11924739D01*
X5911213Y-11924739D02*
X5920737Y-11934263D01*
X5920737Y-11934263D02*
X5930261Y-11953311D01*
X5930261Y-11953311D02*
X5939785Y-11991406D01*
X5939785Y-11991406D02*
X5939785Y-12039025D01*
X5939785Y-12039025D02*
X5930261Y-12077120D01*
X5930261Y-12077120D02*
X5920737Y-12096168D01*
X5920737Y-12096168D02*
X5911213Y-12105692D01*
X5911213Y-12105692D02*
X5892166Y-12115216D01*
X5892166Y-12115216D02*
X5873118Y-12115216D01*
X5873118Y-12115216D02*
X5854070Y-12105692D01*
X5854070Y-12105692D02*
X5844547Y-12096168D01*
X5844547Y-12096168D02*
X5835023Y-12077120D01*
X5835023Y-12077120D02*
X5825499Y-12039025D01*
X5825499Y-12039025D02*
X5825499Y-11991406D01*
X5825499Y-11991406D02*
X5835023Y-11953311D01*
X5835023Y-11953311D02*
X5844547Y-11934263D01*
X5844547Y-11934263D02*
X5854070Y-11924739D01*
X5854070Y-11924739D02*
X5873118Y-11915216D01*
X6063594Y-11915216D02*
X6082642Y-11915216D01*
X6082642Y-11915216D02*
X6101690Y-11924739D01*
X6101690Y-11924739D02*
X6111213Y-11934263D01*
X6111213Y-11934263D02*
X6120737Y-11953311D01*
X6120737Y-11953311D02*
X6130261Y-11991406D01*
X6130261Y-11991406D02*
X6130261Y-12039025D01*
X6130261Y-12039025D02*
X6120737Y-12077120D01*
X6120737Y-12077120D02*
X6111213Y-12096168D01*
X6111213Y-12096168D02*
X6101690Y-12105692D01*
X6101690Y-12105692D02*
X6082642Y-12115216D01*
X6082642Y-12115216D02*
X6063594Y-12115216D01*
X6063594Y-12115216D02*
X6044547Y-12105692D01*
X6044547Y-12105692D02*
X6035023Y-12096168D01*
X6035023Y-12096168D02*
X6025499Y-12077120D01*
X6025499Y-12077120D02*
X6015975Y-12039025D01*
X6015975Y-12039025D02*
X6015975Y-11991406D01*
X6015975Y-11991406D02*
X6025499Y-11953311D01*
X6025499Y-11953311D02*
X6035023Y-11934263D01*
X6035023Y-11934263D02*
X6044547Y-11924739D01*
X6044547Y-11924739D02*
X6063594Y-11915216D01*
X6254070Y-11915216D02*
X6273118Y-11915216D01*
X6273118Y-11915216D02*
X6292166Y-11924739D01*
X6292166Y-11924739D02*
X6301690Y-11934263D01*
X6301690Y-11934263D02*
X6311213Y-11953311D01*
X6311213Y-11953311D02*
X6320737Y-11991406D01*
X6320737Y-11991406D02*
X6320737Y-12039025D01*
X6320737Y-12039025D02*
X6311213Y-12077120D01*
X6311213Y-12077120D02*
X6301690Y-12096168D01*
X6301690Y-12096168D02*
X6292166Y-12105692D01*
X6292166Y-12105692D02*
X6273118Y-12115216D01*
X6273118Y-12115216D02*
X6254070Y-12115216D01*
X6254070Y-12115216D02*
X6235023Y-12105692D01*
X6235023Y-12105692D02*
X6225499Y-12096168D01*
X6225499Y-12096168D02*
X6215975Y-12077120D01*
X6215975Y-12077120D02*
X6206451Y-12039025D01*
X6206451Y-12039025D02*
X6206451Y-11991406D01*
X6206451Y-11991406D02*
X6215975Y-11953311D01*
X6215975Y-11953311D02*
X6225499Y-11934263D01*
X6225499Y-11934263D02*
X6235023Y-11924739D01*
X6235023Y-11924739D02*
X6254070Y-11915216D01*
X6406451Y-12115216D02*
X6406451Y-11981882D01*
X6406451Y-12000930D02*
X6415975Y-11991406D01*
X6415975Y-11991406D02*
X6435023Y-11981882D01*
X6435023Y-11981882D02*
X6463594Y-11981882D01*
X6463594Y-11981882D02*
X6482642Y-11991406D01*
X6482642Y-11991406D02*
X6492166Y-12010454D01*
X6492166Y-12010454D02*
X6492166Y-12115216D01*
X6492166Y-12010454D02*
X6501690Y-11991406D01*
X6501690Y-11991406D02*
X6520737Y-11981882D01*
X6520737Y-11981882D02*
X6549309Y-11981882D01*
X6549309Y-11981882D02*
X6568356Y-11991406D01*
X6568356Y-11991406D02*
X6577880Y-12010454D01*
X6577880Y-12010454D02*
X6577880Y-12115216D01*
X6673118Y-12115216D02*
X6673118Y-11981882D01*
X6673118Y-12000930D02*
X6682642Y-11991406D01*
X6682642Y-11991406D02*
X6701690Y-11981882D01*
X6701690Y-11981882D02*
X6730261Y-11981882D01*
X6730261Y-11981882D02*
X6749309Y-11991406D01*
X6749309Y-11991406D02*
X6758832Y-12010454D01*
X6758832Y-12010454D02*
X6758832Y-12115216D01*
X6758832Y-12010454D02*
X6768356Y-11991406D01*
X6768356Y-11991406D02*
X6787404Y-11981882D01*
X6787404Y-11981882D02*
X6815975Y-11981882D01*
X6815975Y-11981882D02*
X6835023Y-11991406D01*
X6835023Y-11991406D02*
X6844547Y-12010454D01*
X6844547Y-12010454D02*
X6844547Y-12115216D01*
X7235023Y-11905692D02*
X7063594Y-12162835D01*
X7492166Y-11915216D02*
X7511214Y-11915216D01*
X7511214Y-11915216D02*
X7530261Y-11924739D01*
X7530261Y-11924739D02*
X7539785Y-11934263D01*
X7539785Y-11934263D02*
X7549309Y-11953311D01*
X7549309Y-11953311D02*
X7558833Y-11991406D01*
X7558833Y-11991406D02*
X7558833Y-12039025D01*
X7558833Y-12039025D02*
X7549309Y-12077120D01*
X7549309Y-12077120D02*
X7539785Y-12096168D01*
X7539785Y-12096168D02*
X7530261Y-12105692D01*
X7530261Y-12105692D02*
X7511214Y-12115216D01*
X7511214Y-12115216D02*
X7492166Y-12115216D01*
X7492166Y-12115216D02*
X7473118Y-12105692D01*
X7473118Y-12105692D02*
X7463594Y-12096168D01*
X7463594Y-12096168D02*
X7454071Y-12077120D01*
X7454071Y-12077120D02*
X7444547Y-12039025D01*
X7444547Y-12039025D02*
X7444547Y-11991406D01*
X7444547Y-11991406D02*
X7454071Y-11953311D01*
X7454071Y-11953311D02*
X7463594Y-11934263D01*
X7463594Y-11934263D02*
X7473118Y-11924739D01*
X7473118Y-11924739D02*
X7492166Y-11915216D01*
X7644547Y-12096168D02*
X7654071Y-12105692D01*
X7654071Y-12105692D02*
X7644547Y-12115216D01*
X7644547Y-12115216D02*
X7635023Y-12105692D01*
X7635023Y-12105692D02*
X7644547Y-12096168D01*
X7644547Y-12096168D02*
X7644547Y-12115216D01*
X7777880Y-11915216D02*
X7796928Y-11915216D01*
X7796928Y-11915216D02*
X7815975Y-11924739D01*
X7815975Y-11924739D02*
X7825499Y-11934263D01*
X7825499Y-11934263D02*
X7835023Y-11953311D01*
X7835023Y-11953311D02*
X7844547Y-11991406D01*
X7844547Y-11991406D02*
X7844547Y-12039025D01*
X7844547Y-12039025D02*
X7835023Y-12077120D01*
X7835023Y-12077120D02*
X7825499Y-12096168D01*
X7825499Y-12096168D02*
X7815975Y-12105692D01*
X7815975Y-12105692D02*
X7796928Y-12115216D01*
X7796928Y-12115216D02*
X7777880Y-12115216D01*
X7777880Y-12115216D02*
X7758833Y-12105692D01*
X7758833Y-12105692D02*
X7749309Y-12096168D01*
X7749309Y-12096168D02*
X7739785Y-12077120D01*
X7739785Y-12077120D02*
X7730261Y-12039025D01*
X7730261Y-12039025D02*
X7730261Y-11991406D01*
X7730261Y-11991406D02*
X7739785Y-11953311D01*
X7739785Y-11953311D02*
X7749309Y-11934263D01*
X7749309Y-11934263D02*
X7758833Y-11924739D01*
X7758833Y-11924739D02*
X7777880Y-11915216D01*
X7911214Y-11915216D02*
X8035023Y-11915216D01*
X8035023Y-11915216D02*
X7968356Y-11991406D01*
X7968356Y-11991406D02*
X7996928Y-11991406D01*
X7996928Y-11991406D02*
X8015975Y-12000930D01*
X8015975Y-12000930D02*
X8025499Y-12010454D01*
X8025499Y-12010454D02*
X8035023Y-12029501D01*
X8035023Y-12029501D02*
X8035023Y-12077120D01*
X8035023Y-12077120D02*
X8025499Y-12096168D01*
X8025499Y-12096168D02*
X8015975Y-12105692D01*
X8015975Y-12105692D02*
X7996928Y-12115216D01*
X7996928Y-12115216D02*
X7939785Y-12115216D01*
X7939785Y-12115216D02*
X7920737Y-12105692D01*
X7920737Y-12105692D02*
X7911214Y-12096168D01*
X8130261Y-12115216D02*
X8168356Y-12115216D01*
X8168356Y-12115216D02*
X8187404Y-12105692D01*
X8187404Y-12105692D02*
X8196928Y-12096168D01*
X8196928Y-12096168D02*
X8215975Y-12067596D01*
X8215975Y-12067596D02*
X8225499Y-12029501D01*
X8225499Y-12029501D02*
X8225499Y-11953311D01*
X8225499Y-11953311D02*
X8215975Y-11934263D01*
X8215975Y-11934263D02*
X8206452Y-11924739D01*
X8206452Y-11924739D02*
X8187404Y-11915216D01*
X8187404Y-11915216D02*
X8149309Y-11915216D01*
X8149309Y-11915216D02*
X8130261Y-11924739D01*
X8130261Y-11924739D02*
X8120737Y-11934263D01*
X8120737Y-11934263D02*
X8111214Y-11953311D01*
X8111214Y-11953311D02*
X8111214Y-12000930D01*
X8111214Y-12000930D02*
X8120737Y-12019977D01*
X8120737Y-12019977D02*
X8130261Y-12029501D01*
X8130261Y-12029501D02*
X8149309Y-12039025D01*
X8149309Y-12039025D02*
X8187404Y-12039025D01*
X8187404Y-12039025D02*
X8206452Y-12029501D01*
X8206452Y-12029501D02*
X8215975Y-12019977D01*
X8215975Y-12019977D02*
X8225499Y-12000930D01*
X8396928Y-11981882D02*
X8396928Y-12115216D01*
X8349309Y-11905692D02*
X8301690Y-12048549D01*
X8301690Y-12048549D02*
X8425499Y-12048549D01*
X8492166Y-11915216D02*
X8492166Y-11953311D01*
X8568357Y-11915216D02*
X8568357Y-11953311D01*
X8863595Y-12191406D02*
X8854071Y-12181882D01*
X8854071Y-12181882D02*
X8835023Y-12153311D01*
X8835023Y-12153311D02*
X8825499Y-12134263D01*
X8825499Y-12134263D02*
X8815976Y-12105692D01*
X8815976Y-12105692D02*
X8806452Y-12058073D01*
X8806452Y-12058073D02*
X8806452Y-12019977D01*
X8806452Y-12019977D02*
X8815976Y-11972358D01*
X8815976Y-11972358D02*
X8825499Y-11943787D01*
X8825499Y-11943787D02*
X8835023Y-11924739D01*
X8835023Y-11924739D02*
X8854071Y-11896168D01*
X8854071Y-11896168D02*
X8863595Y-11886644D01*
X9025499Y-11981882D02*
X9025499Y-12115216D01*
X8977880Y-11905692D02*
X8930261Y-12048549D01*
X8930261Y-12048549D02*
X9054071Y-12048549D01*
X9282642Y-12115216D02*
X9282642Y-11915216D01*
X9368357Y-12115216D02*
X9368357Y-12010454D01*
X9368357Y-12010454D02*
X9358833Y-11991406D01*
X9358833Y-11991406D02*
X9339785Y-11981882D01*
X9339785Y-11981882D02*
X9311214Y-11981882D01*
X9311214Y-11981882D02*
X9292166Y-11991406D01*
X9292166Y-11991406D02*
X9282642Y-12000930D01*
X9492166Y-12115216D02*
X9473119Y-12105692D01*
X9473119Y-12105692D02*
X9463595Y-12096168D01*
X9463595Y-12096168D02*
X9454071Y-12077120D01*
X9454071Y-12077120D02*
X9454071Y-12019977D01*
X9454071Y-12019977D02*
X9463595Y-12000930D01*
X9463595Y-12000930D02*
X9473119Y-11991406D01*
X9473119Y-11991406D02*
X9492166Y-11981882D01*
X9492166Y-11981882D02*
X9520738Y-11981882D01*
X9520738Y-11981882D02*
X9539785Y-11991406D01*
X9539785Y-11991406D02*
X9549309Y-12000930D01*
X9549309Y-12000930D02*
X9558833Y-12019977D01*
X9558833Y-12019977D02*
X9558833Y-12077120D01*
X9558833Y-12077120D02*
X9549309Y-12096168D01*
X9549309Y-12096168D02*
X9539785Y-12105692D01*
X9539785Y-12105692D02*
X9520738Y-12115216D01*
X9520738Y-12115216D02*
X9492166Y-12115216D01*
X9673119Y-12115216D02*
X9654071Y-12105692D01*
X9654071Y-12105692D02*
X9644547Y-12086644D01*
X9644547Y-12086644D02*
X9644547Y-11915216D01*
X9825500Y-12105692D02*
X9806452Y-12115216D01*
X9806452Y-12115216D02*
X9768357Y-12115216D01*
X9768357Y-12115216D02*
X9749309Y-12105692D01*
X9749309Y-12105692D02*
X9739785Y-12086644D01*
X9739785Y-12086644D02*
X9739785Y-12010454D01*
X9739785Y-12010454D02*
X9749309Y-11991406D01*
X9749309Y-11991406D02*
X9768357Y-11981882D01*
X9768357Y-11981882D02*
X9806452Y-11981882D01*
X9806452Y-11981882D02*
X9825500Y-11991406D01*
X9825500Y-11991406D02*
X9835023Y-12010454D01*
X9835023Y-12010454D02*
X9835023Y-12029501D01*
X9835023Y-12029501D02*
X9739785Y-12048549D01*
X9911214Y-12105692D02*
X9930261Y-12115216D01*
X9930261Y-12115216D02*
X9968357Y-12115216D01*
X9968357Y-12115216D02*
X9987404Y-12105692D01*
X9987404Y-12105692D02*
X9996928Y-12086644D01*
X9996928Y-12086644D02*
X9996928Y-12077120D01*
X9996928Y-12077120D02*
X9987404Y-12058073D01*
X9987404Y-12058073D02*
X9968357Y-12048549D01*
X9968357Y-12048549D02*
X9939785Y-12048549D01*
X9939785Y-12048549D02*
X9920738Y-12039025D01*
X9920738Y-12039025D02*
X9911214Y-12019977D01*
X9911214Y-12019977D02*
X9911214Y-12010454D01*
X9911214Y-12010454D02*
X9920738Y-11991406D01*
X9920738Y-11991406D02*
X9939785Y-11981882D01*
X9939785Y-11981882D02*
X9968357Y-11981882D01*
X9968357Y-11981882D02*
X9987404Y-11991406D01*
X10063595Y-12191406D02*
X10073119Y-12181882D01*
X10073119Y-12181882D02*
X10092166Y-12153311D01*
X10092166Y-12153311D02*
X10101690Y-12134263D01*
X10101690Y-12134263D02*
X10111214Y-12105692D01*
X10111214Y-12105692D02*
X10120738Y-12058073D01*
X10120738Y-12058073D02*
X10120738Y-12019977D01*
X10120738Y-12019977D02*
X10111214Y-11972358D01*
X10111214Y-11972358D02*
X10101690Y-11943787D01*
X10101690Y-11943787D02*
X10092166Y-11924739D01*
X10092166Y-11924739D02*
X10073119Y-11896168D01*
X10073119Y-11896168D02*
X10063595Y-11886644D01*
X10425500Y-12191406D02*
X10415976Y-12181882D01*
X10415976Y-12181882D02*
X10396928Y-12153311D01*
X10396928Y-12153311D02*
X10387404Y-12134263D01*
X10387404Y-12134263D02*
X10377881Y-12105692D01*
X10377881Y-12105692D02*
X10368357Y-12058073D01*
X10368357Y-12058073D02*
X10368357Y-12019977D01*
X10368357Y-12019977D02*
X10377881Y-11972358D01*
X10377881Y-11972358D02*
X10387404Y-11943787D01*
X10387404Y-11943787D02*
X10396928Y-11924739D01*
X10396928Y-11924739D02*
X10415976Y-11896168D01*
X10415976Y-11896168D02*
X10425500Y-11886644D01*
X10501690Y-11981882D02*
X10501690Y-12115216D01*
X10501690Y-12000930D02*
X10511214Y-11991406D01*
X10511214Y-11991406D02*
X10530261Y-11981882D01*
X10530261Y-11981882D02*
X10558833Y-11981882D01*
X10558833Y-11981882D02*
X10577881Y-11991406D01*
X10577881Y-11991406D02*
X10587404Y-12010454D01*
X10587404Y-12010454D02*
X10587404Y-12115216D01*
X10711214Y-12115216D02*
X10692166Y-12105692D01*
X10692166Y-12105692D02*
X10682642Y-12096168D01*
X10682642Y-12096168D02*
X10673119Y-12077120D01*
X10673119Y-12077120D02*
X10673119Y-12019977D01*
X10673119Y-12019977D02*
X10682642Y-12000930D01*
X10682642Y-12000930D02*
X10692166Y-11991406D01*
X10692166Y-11991406D02*
X10711214Y-11981882D01*
X10711214Y-11981882D02*
X10739785Y-11981882D01*
X10739785Y-11981882D02*
X10758833Y-11991406D01*
X10758833Y-11991406D02*
X10768357Y-12000930D01*
X10768357Y-12000930D02*
X10777881Y-12019977D01*
X10777881Y-12019977D02*
X10777881Y-12077120D01*
X10777881Y-12077120D02*
X10768357Y-12096168D01*
X10768357Y-12096168D02*
X10758833Y-12105692D01*
X10758833Y-12105692D02*
X10739785Y-12115216D01*
X10739785Y-12115216D02*
X10711214Y-12115216D01*
X10835023Y-11981882D02*
X10911214Y-11981882D01*
X10863595Y-11915216D02*
X10863595Y-12086644D01*
X10863595Y-12086644D02*
X10873119Y-12105692D01*
X10873119Y-12105692D02*
X10892166Y-12115216D01*
X10892166Y-12115216D02*
X10911214Y-12115216D01*
X11130262Y-11981882D02*
X11130262Y-12181882D01*
X11130262Y-11991406D02*
X11149309Y-11981882D01*
X11149309Y-11981882D02*
X11187404Y-11981882D01*
X11187404Y-11981882D02*
X11206452Y-11991406D01*
X11206452Y-11991406D02*
X11215976Y-12000930D01*
X11215976Y-12000930D02*
X11225500Y-12019977D01*
X11225500Y-12019977D02*
X11225500Y-12077120D01*
X11225500Y-12077120D02*
X11215976Y-12096168D01*
X11215976Y-12096168D02*
X11206452Y-12105692D01*
X11206452Y-12105692D02*
X11187404Y-12115216D01*
X11187404Y-12115216D02*
X11149309Y-12115216D01*
X11149309Y-12115216D02*
X11130262Y-12105692D01*
X11339785Y-12115216D02*
X11320738Y-12105692D01*
X11320738Y-12105692D02*
X11311214Y-12086644D01*
X11311214Y-12086644D02*
X11311214Y-11915216D01*
X11501690Y-12115216D02*
X11501690Y-12010454D01*
X11501690Y-12010454D02*
X11492166Y-11991406D01*
X11492166Y-11991406D02*
X11473119Y-11981882D01*
X11473119Y-11981882D02*
X11435023Y-11981882D01*
X11435023Y-11981882D02*
X11415976Y-11991406D01*
X11501690Y-12105692D02*
X11482642Y-12115216D01*
X11482642Y-12115216D02*
X11435023Y-12115216D01*
X11435023Y-12115216D02*
X11415976Y-12105692D01*
X11415976Y-12105692D02*
X11406452Y-12086644D01*
X11406452Y-12086644D02*
X11406452Y-12067596D01*
X11406452Y-12067596D02*
X11415976Y-12048549D01*
X11415976Y-12048549D02*
X11435023Y-12039025D01*
X11435023Y-12039025D02*
X11482642Y-12039025D01*
X11482642Y-12039025D02*
X11501690Y-12029501D01*
X11568357Y-11981882D02*
X11644547Y-11981882D01*
X11596928Y-11915216D02*
X11596928Y-12086644D01*
X11596928Y-12086644D02*
X11606452Y-12105692D01*
X11606452Y-12105692D02*
X11625500Y-12115216D01*
X11625500Y-12115216D02*
X11644547Y-12115216D01*
X11787404Y-12105692D02*
X11768357Y-12115216D01*
X11768357Y-12115216D02*
X11730261Y-12115216D01*
X11730261Y-12115216D02*
X11711214Y-12105692D01*
X11711214Y-12105692D02*
X11701690Y-12086644D01*
X11701690Y-12086644D02*
X11701690Y-12010454D01*
X11701690Y-12010454D02*
X11711214Y-11991406D01*
X11711214Y-11991406D02*
X11730261Y-11981882D01*
X11730261Y-11981882D02*
X11768357Y-11981882D01*
X11768357Y-11981882D02*
X11787404Y-11991406D01*
X11787404Y-11991406D02*
X11796928Y-12010454D01*
X11796928Y-12010454D02*
X11796928Y-12029501D01*
X11796928Y-12029501D02*
X11701690Y-12048549D01*
X11968357Y-12115216D02*
X11968357Y-11915216D01*
X11968357Y-12105692D02*
X11949309Y-12115216D01*
X11949309Y-12115216D02*
X11911214Y-12115216D01*
X11911214Y-12115216D02*
X11892166Y-12105692D01*
X11892166Y-12105692D02*
X11882642Y-12096168D01*
X11882642Y-12096168D02*
X11873119Y-12077120D01*
X11873119Y-12077120D02*
X11873119Y-12019977D01*
X11873119Y-12019977D02*
X11882642Y-12000930D01*
X11882642Y-12000930D02*
X11892166Y-11991406D01*
X11892166Y-11991406D02*
X11911214Y-11981882D01*
X11911214Y-11981882D02*
X11949309Y-11981882D01*
X11949309Y-11981882D02*
X11968357Y-11991406D01*
X12044547Y-12191406D02*
X12054071Y-12181882D01*
X12054071Y-12181882D02*
X12073119Y-12153311D01*
X12073119Y-12153311D02*
X12082642Y-12134263D01*
X12082642Y-12134263D02*
X12092166Y-12105692D01*
X12092166Y-12105692D02*
X12101690Y-12058073D01*
X12101690Y-12058073D02*
X12101690Y-12019977D01*
X12101690Y-12019977D02*
X12092166Y-11972358D01*
X12092166Y-11972358D02*
X12082642Y-11943787D01*
X12082642Y-11943787D02*
X12073119Y-11924739D01*
X12073119Y-11924739D02*
X12054071Y-11896168D01*
X12054071Y-11896168D02*
X12044547Y-11886644D01*
D13*
X5236032Y-12235232D02*
X5236032Y-12340232D01*
X5183532Y-12287732D02*
X5288532Y-12287732D01*
D11*
X5654070Y-12379216D02*
X5539785Y-12379216D01*
X5596928Y-12379216D02*
X5596928Y-12179216D01*
X5596928Y-12179216D02*
X5577880Y-12207787D01*
X5577880Y-12207787D02*
X5558832Y-12226835D01*
X5558832Y-12226835D02*
X5539785Y-12236358D01*
X5739785Y-12360168D02*
X5749309Y-12369692D01*
X5749309Y-12369692D02*
X5739785Y-12379216D01*
X5739785Y-12379216D02*
X5730261Y-12369692D01*
X5730261Y-12369692D02*
X5739785Y-12360168D01*
X5739785Y-12360168D02*
X5739785Y-12379216D01*
X5873118Y-12179216D02*
X5892166Y-12179216D01*
X5892166Y-12179216D02*
X5911213Y-12188739D01*
X5911213Y-12188739D02*
X5920737Y-12198263D01*
X5920737Y-12198263D02*
X5930261Y-12217311D01*
X5930261Y-12217311D02*
X5939785Y-12255406D01*
X5939785Y-12255406D02*
X5939785Y-12303025D01*
X5939785Y-12303025D02*
X5930261Y-12341120D01*
X5930261Y-12341120D02*
X5920737Y-12360168D01*
X5920737Y-12360168D02*
X5911213Y-12369692D01*
X5911213Y-12369692D02*
X5892166Y-12379216D01*
X5892166Y-12379216D02*
X5873118Y-12379216D01*
X5873118Y-12379216D02*
X5854070Y-12369692D01*
X5854070Y-12369692D02*
X5844547Y-12360168D01*
X5844547Y-12360168D02*
X5835023Y-12341120D01*
X5835023Y-12341120D02*
X5825499Y-12303025D01*
X5825499Y-12303025D02*
X5825499Y-12255406D01*
X5825499Y-12255406D02*
X5835023Y-12217311D01*
X5835023Y-12217311D02*
X5844547Y-12198263D01*
X5844547Y-12198263D02*
X5854070Y-12188739D01*
X5854070Y-12188739D02*
X5873118Y-12179216D01*
X6120737Y-12179216D02*
X6025499Y-12179216D01*
X6025499Y-12179216D02*
X6015975Y-12274454D01*
X6015975Y-12274454D02*
X6025499Y-12264930D01*
X6025499Y-12264930D02*
X6044547Y-12255406D01*
X6044547Y-12255406D02*
X6092166Y-12255406D01*
X6092166Y-12255406D02*
X6111213Y-12264930D01*
X6111213Y-12264930D02*
X6120737Y-12274454D01*
X6120737Y-12274454D02*
X6130261Y-12293501D01*
X6130261Y-12293501D02*
X6130261Y-12341120D01*
X6130261Y-12341120D02*
X6120737Y-12360168D01*
X6120737Y-12360168D02*
X6111213Y-12369692D01*
X6111213Y-12369692D02*
X6092166Y-12379216D01*
X6092166Y-12379216D02*
X6044547Y-12379216D01*
X6044547Y-12379216D02*
X6025499Y-12369692D01*
X6025499Y-12369692D02*
X6015975Y-12360168D01*
X6254070Y-12179216D02*
X6273118Y-12179216D01*
X6273118Y-12179216D02*
X6292166Y-12188739D01*
X6292166Y-12188739D02*
X6301690Y-12198263D01*
X6301690Y-12198263D02*
X6311213Y-12217311D01*
X6311213Y-12217311D02*
X6320737Y-12255406D01*
X6320737Y-12255406D02*
X6320737Y-12303025D01*
X6320737Y-12303025D02*
X6311213Y-12341120D01*
X6311213Y-12341120D02*
X6301690Y-12360168D01*
X6301690Y-12360168D02*
X6292166Y-12369692D01*
X6292166Y-12369692D02*
X6273118Y-12379216D01*
X6273118Y-12379216D02*
X6254070Y-12379216D01*
X6254070Y-12379216D02*
X6235023Y-12369692D01*
X6235023Y-12369692D02*
X6225499Y-12360168D01*
X6225499Y-12360168D02*
X6215975Y-12341120D01*
X6215975Y-12341120D02*
X6206451Y-12303025D01*
X6206451Y-12303025D02*
X6206451Y-12255406D01*
X6206451Y-12255406D02*
X6215975Y-12217311D01*
X6215975Y-12217311D02*
X6225499Y-12198263D01*
X6225499Y-12198263D02*
X6235023Y-12188739D01*
X6235023Y-12188739D02*
X6254070Y-12179216D01*
X6406451Y-12379216D02*
X6406451Y-12245882D01*
X6406451Y-12264930D02*
X6415975Y-12255406D01*
X6415975Y-12255406D02*
X6435023Y-12245882D01*
X6435023Y-12245882D02*
X6463594Y-12245882D01*
X6463594Y-12245882D02*
X6482642Y-12255406D01*
X6482642Y-12255406D02*
X6492166Y-12274454D01*
X6492166Y-12274454D02*
X6492166Y-12379216D01*
X6492166Y-12274454D02*
X6501690Y-12255406D01*
X6501690Y-12255406D02*
X6520737Y-12245882D01*
X6520737Y-12245882D02*
X6549309Y-12245882D01*
X6549309Y-12245882D02*
X6568356Y-12255406D01*
X6568356Y-12255406D02*
X6577880Y-12274454D01*
X6577880Y-12274454D02*
X6577880Y-12379216D01*
X6673118Y-12379216D02*
X6673118Y-12245882D01*
X6673118Y-12264930D02*
X6682642Y-12255406D01*
X6682642Y-12255406D02*
X6701690Y-12245882D01*
X6701690Y-12245882D02*
X6730261Y-12245882D01*
X6730261Y-12245882D02*
X6749309Y-12255406D01*
X6749309Y-12255406D02*
X6758832Y-12274454D01*
X6758832Y-12274454D02*
X6758832Y-12379216D01*
X6758832Y-12274454D02*
X6768356Y-12255406D01*
X6768356Y-12255406D02*
X6787404Y-12245882D01*
X6787404Y-12245882D02*
X6815975Y-12245882D01*
X6815975Y-12245882D02*
X6835023Y-12255406D01*
X6835023Y-12255406D02*
X6844547Y-12274454D01*
X6844547Y-12274454D02*
X6844547Y-12379216D01*
X7235023Y-12169692D02*
X7063594Y-12426835D01*
X7492166Y-12179216D02*
X7511214Y-12179216D01*
X7511214Y-12179216D02*
X7530261Y-12188739D01*
X7530261Y-12188739D02*
X7539785Y-12198263D01*
X7539785Y-12198263D02*
X7549309Y-12217311D01*
X7549309Y-12217311D02*
X7558833Y-12255406D01*
X7558833Y-12255406D02*
X7558833Y-12303025D01*
X7558833Y-12303025D02*
X7549309Y-12341120D01*
X7549309Y-12341120D02*
X7539785Y-12360168D01*
X7539785Y-12360168D02*
X7530261Y-12369692D01*
X7530261Y-12369692D02*
X7511214Y-12379216D01*
X7511214Y-12379216D02*
X7492166Y-12379216D01*
X7492166Y-12379216D02*
X7473118Y-12369692D01*
X7473118Y-12369692D02*
X7463594Y-12360168D01*
X7463594Y-12360168D02*
X7454071Y-12341120D01*
X7454071Y-12341120D02*
X7444547Y-12303025D01*
X7444547Y-12303025D02*
X7444547Y-12255406D01*
X7444547Y-12255406D02*
X7454071Y-12217311D01*
X7454071Y-12217311D02*
X7463594Y-12198263D01*
X7463594Y-12198263D02*
X7473118Y-12188739D01*
X7473118Y-12188739D02*
X7492166Y-12179216D01*
X7644547Y-12360168D02*
X7654071Y-12369692D01*
X7654071Y-12369692D02*
X7644547Y-12379216D01*
X7644547Y-12379216D02*
X7635023Y-12369692D01*
X7635023Y-12369692D02*
X7644547Y-12360168D01*
X7644547Y-12360168D02*
X7644547Y-12379216D01*
X7777880Y-12179216D02*
X7796928Y-12179216D01*
X7796928Y-12179216D02*
X7815975Y-12188739D01*
X7815975Y-12188739D02*
X7825499Y-12198263D01*
X7825499Y-12198263D02*
X7835023Y-12217311D01*
X7835023Y-12217311D02*
X7844547Y-12255406D01*
X7844547Y-12255406D02*
X7844547Y-12303025D01*
X7844547Y-12303025D02*
X7835023Y-12341120D01*
X7835023Y-12341120D02*
X7825499Y-12360168D01*
X7825499Y-12360168D02*
X7815975Y-12369692D01*
X7815975Y-12369692D02*
X7796928Y-12379216D01*
X7796928Y-12379216D02*
X7777880Y-12379216D01*
X7777880Y-12379216D02*
X7758833Y-12369692D01*
X7758833Y-12369692D02*
X7749309Y-12360168D01*
X7749309Y-12360168D02*
X7739785Y-12341120D01*
X7739785Y-12341120D02*
X7730261Y-12303025D01*
X7730261Y-12303025D02*
X7730261Y-12255406D01*
X7730261Y-12255406D02*
X7739785Y-12217311D01*
X7739785Y-12217311D02*
X7749309Y-12198263D01*
X7749309Y-12198263D02*
X7758833Y-12188739D01*
X7758833Y-12188739D02*
X7777880Y-12179216D01*
X8015975Y-12245882D02*
X8015975Y-12379216D01*
X7968356Y-12169692D02*
X7920737Y-12312549D01*
X7920737Y-12312549D02*
X8044547Y-12312549D01*
X8225499Y-12379216D02*
X8111214Y-12379216D01*
X8168356Y-12379216D02*
X8168356Y-12179216D01*
X8168356Y-12179216D02*
X8149309Y-12207787D01*
X8149309Y-12207787D02*
X8130261Y-12226835D01*
X8130261Y-12226835D02*
X8111214Y-12236358D01*
X8292166Y-12179216D02*
X8415976Y-12179216D01*
X8415976Y-12179216D02*
X8349309Y-12255406D01*
X8349309Y-12255406D02*
X8377880Y-12255406D01*
X8377880Y-12255406D02*
X8396928Y-12264930D01*
X8396928Y-12264930D02*
X8406452Y-12274454D01*
X8406452Y-12274454D02*
X8415976Y-12293501D01*
X8415976Y-12293501D02*
X8415976Y-12341120D01*
X8415976Y-12341120D02*
X8406452Y-12360168D01*
X8406452Y-12360168D02*
X8396928Y-12369692D01*
X8396928Y-12369692D02*
X8377880Y-12379216D01*
X8377880Y-12379216D02*
X8320737Y-12379216D01*
X8320737Y-12379216D02*
X8301690Y-12369692D01*
X8301690Y-12369692D02*
X8292166Y-12360168D01*
X8492166Y-12179216D02*
X8492166Y-12217311D01*
X8568357Y-12179216D02*
X8568357Y-12217311D01*
X8863595Y-12455406D02*
X8854071Y-12445882D01*
X8854071Y-12445882D02*
X8835023Y-12417311D01*
X8835023Y-12417311D02*
X8825499Y-12398263D01*
X8825499Y-12398263D02*
X8815976Y-12369692D01*
X8815976Y-12369692D02*
X8806452Y-12322073D01*
X8806452Y-12322073D02*
X8806452Y-12283977D01*
X8806452Y-12283977D02*
X8815976Y-12236358D01*
X8815976Y-12236358D02*
X8825499Y-12207787D01*
X8825499Y-12207787D02*
X8835023Y-12188739D01*
X8835023Y-12188739D02*
X8854071Y-12160168D01*
X8854071Y-12160168D02*
X8863595Y-12150644D01*
X9044547Y-12379216D02*
X8930261Y-12379216D01*
X8987404Y-12379216D02*
X8987404Y-12179216D01*
X8987404Y-12179216D02*
X8968357Y-12207787D01*
X8968357Y-12207787D02*
X8949309Y-12226835D01*
X8949309Y-12226835D02*
X8930261Y-12236358D01*
X9282642Y-12379216D02*
X9282642Y-12179216D01*
X9368357Y-12379216D02*
X9368357Y-12274454D01*
X9368357Y-12274454D02*
X9358833Y-12255406D01*
X9358833Y-12255406D02*
X9339785Y-12245882D01*
X9339785Y-12245882D02*
X9311214Y-12245882D01*
X9311214Y-12245882D02*
X9292166Y-12255406D01*
X9292166Y-12255406D02*
X9282642Y-12264930D01*
X9492166Y-12379216D02*
X9473119Y-12369692D01*
X9473119Y-12369692D02*
X9463595Y-12360168D01*
X9463595Y-12360168D02*
X9454071Y-12341120D01*
X9454071Y-12341120D02*
X9454071Y-12283977D01*
X9454071Y-12283977D02*
X9463595Y-12264930D01*
X9463595Y-12264930D02*
X9473119Y-12255406D01*
X9473119Y-12255406D02*
X9492166Y-12245882D01*
X9492166Y-12245882D02*
X9520738Y-12245882D01*
X9520738Y-12245882D02*
X9539785Y-12255406D01*
X9539785Y-12255406D02*
X9549309Y-12264930D01*
X9549309Y-12264930D02*
X9558833Y-12283977D01*
X9558833Y-12283977D02*
X9558833Y-12341120D01*
X9558833Y-12341120D02*
X9549309Y-12360168D01*
X9549309Y-12360168D02*
X9539785Y-12369692D01*
X9539785Y-12369692D02*
X9520738Y-12379216D01*
X9520738Y-12379216D02*
X9492166Y-12379216D01*
X9673119Y-12379216D02*
X9654071Y-12369692D01*
X9654071Y-12369692D02*
X9644547Y-12350644D01*
X9644547Y-12350644D02*
X9644547Y-12179216D01*
X9825500Y-12369692D02*
X9806452Y-12379216D01*
X9806452Y-12379216D02*
X9768357Y-12379216D01*
X9768357Y-12379216D02*
X9749309Y-12369692D01*
X9749309Y-12369692D02*
X9739785Y-12350644D01*
X9739785Y-12350644D02*
X9739785Y-12274454D01*
X9739785Y-12274454D02*
X9749309Y-12255406D01*
X9749309Y-12255406D02*
X9768357Y-12245882D01*
X9768357Y-12245882D02*
X9806452Y-12245882D01*
X9806452Y-12245882D02*
X9825500Y-12255406D01*
X9825500Y-12255406D02*
X9835023Y-12274454D01*
X9835023Y-12274454D02*
X9835023Y-12293501D01*
X9835023Y-12293501D02*
X9739785Y-12312549D01*
X9901690Y-12455406D02*
X9911214Y-12445882D01*
X9911214Y-12445882D02*
X9930261Y-12417311D01*
X9930261Y-12417311D02*
X9939785Y-12398263D01*
X9939785Y-12398263D02*
X9949309Y-12369692D01*
X9949309Y-12369692D02*
X9958833Y-12322073D01*
X9958833Y-12322073D02*
X9958833Y-12283977D01*
X9958833Y-12283977D02*
X9949309Y-12236358D01*
X9949309Y-12236358D02*
X9939785Y-12207787D01*
X9939785Y-12207787D02*
X9930261Y-12188739D01*
X9930261Y-12188739D02*
X9911214Y-12160168D01*
X9911214Y-12160168D02*
X9901690Y-12150644D01*
X10263595Y-12455406D02*
X10254071Y-12445882D01*
X10254071Y-12445882D02*
X10235023Y-12417311D01*
X10235023Y-12417311D02*
X10225500Y-12398263D01*
X10225500Y-12398263D02*
X10215976Y-12369692D01*
X10215976Y-12369692D02*
X10206452Y-12322073D01*
X10206452Y-12322073D02*
X10206452Y-12283977D01*
X10206452Y-12283977D02*
X10215976Y-12236358D01*
X10215976Y-12236358D02*
X10225500Y-12207787D01*
X10225500Y-12207787D02*
X10235023Y-12188739D01*
X10235023Y-12188739D02*
X10254071Y-12160168D01*
X10254071Y-12160168D02*
X10263595Y-12150644D01*
X10339785Y-12245882D02*
X10339785Y-12379216D01*
X10339785Y-12264930D02*
X10349309Y-12255406D01*
X10349309Y-12255406D02*
X10368357Y-12245882D01*
X10368357Y-12245882D02*
X10396928Y-12245882D01*
X10396928Y-12245882D02*
X10415976Y-12255406D01*
X10415976Y-12255406D02*
X10425500Y-12274454D01*
X10425500Y-12274454D02*
X10425500Y-12379216D01*
X10549309Y-12379216D02*
X10530261Y-12369692D01*
X10530261Y-12369692D02*
X10520738Y-12360168D01*
X10520738Y-12360168D02*
X10511214Y-12341120D01*
X10511214Y-12341120D02*
X10511214Y-12283977D01*
X10511214Y-12283977D02*
X10520738Y-12264930D01*
X10520738Y-12264930D02*
X10530261Y-12255406D01*
X10530261Y-12255406D02*
X10549309Y-12245882D01*
X10549309Y-12245882D02*
X10577881Y-12245882D01*
X10577881Y-12245882D02*
X10596928Y-12255406D01*
X10596928Y-12255406D02*
X10606452Y-12264930D01*
X10606452Y-12264930D02*
X10615976Y-12283977D01*
X10615976Y-12283977D02*
X10615976Y-12341120D01*
X10615976Y-12341120D02*
X10606452Y-12360168D01*
X10606452Y-12360168D02*
X10596928Y-12369692D01*
X10596928Y-12369692D02*
X10577881Y-12379216D01*
X10577881Y-12379216D02*
X10549309Y-12379216D01*
X10673119Y-12245882D02*
X10749309Y-12245882D01*
X10701690Y-12179216D02*
X10701690Y-12350644D01*
X10701690Y-12350644D02*
X10711214Y-12369692D01*
X10711214Y-12369692D02*
X10730261Y-12379216D01*
X10730261Y-12379216D02*
X10749309Y-12379216D01*
X10968357Y-12245882D02*
X10968357Y-12445882D01*
X10968357Y-12255406D02*
X10987404Y-12245882D01*
X10987404Y-12245882D02*
X11025500Y-12245882D01*
X11025500Y-12245882D02*
X11044547Y-12255406D01*
X11044547Y-12255406D02*
X11054071Y-12264930D01*
X11054071Y-12264930D02*
X11063595Y-12283977D01*
X11063595Y-12283977D02*
X11063595Y-12341120D01*
X11063595Y-12341120D02*
X11054071Y-12360168D01*
X11054071Y-12360168D02*
X11044547Y-12369692D01*
X11044547Y-12369692D02*
X11025500Y-12379216D01*
X11025500Y-12379216D02*
X10987404Y-12379216D01*
X10987404Y-12379216D02*
X10968357Y-12369692D01*
X11177881Y-12379216D02*
X11158833Y-12369692D01*
X11158833Y-12369692D02*
X11149309Y-12350644D01*
X11149309Y-12350644D02*
X11149309Y-12179216D01*
X11339785Y-12379216D02*
X11339785Y-12274454D01*
X11339785Y-12274454D02*
X11330261Y-12255406D01*
X11330261Y-12255406D02*
X11311214Y-12245882D01*
X11311214Y-12245882D02*
X11273119Y-12245882D01*
X11273119Y-12245882D02*
X11254071Y-12255406D01*
X11339785Y-12369692D02*
X11320738Y-12379216D01*
X11320738Y-12379216D02*
X11273119Y-12379216D01*
X11273119Y-12379216D02*
X11254071Y-12369692D01*
X11254071Y-12369692D02*
X11244547Y-12350644D01*
X11244547Y-12350644D02*
X11244547Y-12331596D01*
X11244547Y-12331596D02*
X11254071Y-12312549D01*
X11254071Y-12312549D02*
X11273119Y-12303025D01*
X11273119Y-12303025D02*
X11320738Y-12303025D01*
X11320738Y-12303025D02*
X11339785Y-12293501D01*
X11406452Y-12245882D02*
X11482642Y-12245882D01*
X11435023Y-12179216D02*
X11435023Y-12350644D01*
X11435023Y-12350644D02*
X11444547Y-12369692D01*
X11444547Y-12369692D02*
X11463595Y-12379216D01*
X11463595Y-12379216D02*
X11482642Y-12379216D01*
X11625500Y-12369692D02*
X11606452Y-12379216D01*
X11606452Y-12379216D02*
X11568357Y-12379216D01*
X11568357Y-12379216D02*
X11549309Y-12369692D01*
X11549309Y-12369692D02*
X11539785Y-12350644D01*
X11539785Y-12350644D02*
X11539785Y-12274454D01*
X11539785Y-12274454D02*
X11549309Y-12255406D01*
X11549309Y-12255406D02*
X11568357Y-12245882D01*
X11568357Y-12245882D02*
X11606452Y-12245882D01*
X11606452Y-12245882D02*
X11625500Y-12255406D01*
X11625500Y-12255406D02*
X11635023Y-12274454D01*
X11635023Y-12274454D02*
X11635023Y-12293501D01*
X11635023Y-12293501D02*
X11539785Y-12312549D01*
X11806452Y-12379216D02*
X11806452Y-12179216D01*
X11806452Y-12369692D02*
X11787404Y-12379216D01*
X11787404Y-12379216D02*
X11749309Y-12379216D01*
X11749309Y-12379216D02*
X11730261Y-12369692D01*
X11730261Y-12369692D02*
X11720738Y-12360168D01*
X11720738Y-12360168D02*
X11711214Y-12341120D01*
X11711214Y-12341120D02*
X11711214Y-12283977D01*
X11711214Y-12283977D02*
X11720738Y-12264930D01*
X11720738Y-12264930D02*
X11730261Y-12255406D01*
X11730261Y-12255406D02*
X11749309Y-12245882D01*
X11749309Y-12245882D02*
X11787404Y-12245882D01*
X11787404Y-12245882D02*
X11806452Y-12255406D01*
X11882642Y-12455406D02*
X11892166Y-12445882D01*
X11892166Y-12445882D02*
X11911214Y-12417311D01*
X11911214Y-12417311D02*
X11920738Y-12398263D01*
X11920738Y-12398263D02*
X11930261Y-12369692D01*
X11930261Y-12369692D02*
X11939785Y-12322073D01*
X11939785Y-12322073D02*
X11939785Y-12283977D01*
X11939785Y-12283977D02*
X11930261Y-12236358D01*
X11930261Y-12236358D02*
X11920738Y-12207787D01*
X11920738Y-12207787D02*
X11911214Y-12188739D01*
X11911214Y-12188739D02*
X11892166Y-12160168D01*
X11892166Y-12160168D02*
X11882642Y-12150644D01*
D14*
X5270975Y-12594119D02*
X5270975Y-12509345D01*
X5186201Y-12509345D01*
X5186201Y-12594119D01*
X5270975Y-12594119D01*
D11*
X5654070Y-12643216D02*
X5539785Y-12643216D01*
X5596928Y-12643216D02*
X5596928Y-12443216D01*
X5596928Y-12443216D02*
X5577880Y-12471787D01*
X5577880Y-12471787D02*
X5558832Y-12490835D01*
X5558832Y-12490835D02*
X5539785Y-12500358D01*
X5739785Y-12624168D02*
X5749309Y-12633692D01*
X5749309Y-12633692D02*
X5739785Y-12643216D01*
X5739785Y-12643216D02*
X5730261Y-12633692D01*
X5730261Y-12633692D02*
X5739785Y-12624168D01*
X5739785Y-12624168D02*
X5739785Y-12643216D01*
X5939785Y-12643216D02*
X5825499Y-12643216D01*
X5882642Y-12643216D02*
X5882642Y-12443216D01*
X5882642Y-12443216D02*
X5863594Y-12471787D01*
X5863594Y-12471787D02*
X5844547Y-12490835D01*
X5844547Y-12490835D02*
X5825499Y-12500358D01*
X6035023Y-12643216D02*
X6073118Y-12643216D01*
X6073118Y-12643216D02*
X6092166Y-12633692D01*
X6092166Y-12633692D02*
X6101690Y-12624168D01*
X6101690Y-12624168D02*
X6120737Y-12595596D01*
X6120737Y-12595596D02*
X6130261Y-12557501D01*
X6130261Y-12557501D02*
X6130261Y-12481311D01*
X6130261Y-12481311D02*
X6120737Y-12462263D01*
X6120737Y-12462263D02*
X6111213Y-12452739D01*
X6111213Y-12452739D02*
X6092166Y-12443216D01*
X6092166Y-12443216D02*
X6054070Y-12443216D01*
X6054070Y-12443216D02*
X6035023Y-12452739D01*
X6035023Y-12452739D02*
X6025499Y-12462263D01*
X6025499Y-12462263D02*
X6015975Y-12481311D01*
X6015975Y-12481311D02*
X6015975Y-12528930D01*
X6015975Y-12528930D02*
X6025499Y-12547977D01*
X6025499Y-12547977D02*
X6035023Y-12557501D01*
X6035023Y-12557501D02*
X6054070Y-12567025D01*
X6054070Y-12567025D02*
X6092166Y-12567025D01*
X6092166Y-12567025D02*
X6111213Y-12557501D01*
X6111213Y-12557501D02*
X6120737Y-12547977D01*
X6120737Y-12547977D02*
X6130261Y-12528930D01*
X6225499Y-12643216D02*
X6263594Y-12643216D01*
X6263594Y-12643216D02*
X6282642Y-12633692D01*
X6282642Y-12633692D02*
X6292166Y-12624168D01*
X6292166Y-12624168D02*
X6311213Y-12595596D01*
X6311213Y-12595596D02*
X6320737Y-12557501D01*
X6320737Y-12557501D02*
X6320737Y-12481311D01*
X6320737Y-12481311D02*
X6311213Y-12462263D01*
X6311213Y-12462263D02*
X6301690Y-12452739D01*
X6301690Y-12452739D02*
X6282642Y-12443216D01*
X6282642Y-12443216D02*
X6244547Y-12443216D01*
X6244547Y-12443216D02*
X6225499Y-12452739D01*
X6225499Y-12452739D02*
X6215975Y-12462263D01*
X6215975Y-12462263D02*
X6206451Y-12481311D01*
X6206451Y-12481311D02*
X6206451Y-12528930D01*
X6206451Y-12528930D02*
X6215975Y-12547977D01*
X6215975Y-12547977D02*
X6225499Y-12557501D01*
X6225499Y-12557501D02*
X6244547Y-12567025D01*
X6244547Y-12567025D02*
X6282642Y-12567025D01*
X6282642Y-12567025D02*
X6301690Y-12557501D01*
X6301690Y-12557501D02*
X6311213Y-12547977D01*
X6311213Y-12547977D02*
X6320737Y-12528930D01*
X6406451Y-12643216D02*
X6406451Y-12509882D01*
X6406451Y-12528930D02*
X6415975Y-12519406D01*
X6415975Y-12519406D02*
X6435023Y-12509882D01*
X6435023Y-12509882D02*
X6463594Y-12509882D01*
X6463594Y-12509882D02*
X6482642Y-12519406D01*
X6482642Y-12519406D02*
X6492166Y-12538454D01*
X6492166Y-12538454D02*
X6492166Y-12643216D01*
X6492166Y-12538454D02*
X6501690Y-12519406D01*
X6501690Y-12519406D02*
X6520737Y-12509882D01*
X6520737Y-12509882D02*
X6549309Y-12509882D01*
X6549309Y-12509882D02*
X6568356Y-12519406D01*
X6568356Y-12519406D02*
X6577880Y-12538454D01*
X6577880Y-12538454D02*
X6577880Y-12643216D01*
X6673118Y-12643216D02*
X6673118Y-12509882D01*
X6673118Y-12528930D02*
X6682642Y-12519406D01*
X6682642Y-12519406D02*
X6701690Y-12509882D01*
X6701690Y-12509882D02*
X6730261Y-12509882D01*
X6730261Y-12509882D02*
X6749309Y-12519406D01*
X6749309Y-12519406D02*
X6758832Y-12538454D01*
X6758832Y-12538454D02*
X6758832Y-12643216D01*
X6758832Y-12538454D02*
X6768356Y-12519406D01*
X6768356Y-12519406D02*
X6787404Y-12509882D01*
X6787404Y-12509882D02*
X6815975Y-12509882D01*
X6815975Y-12509882D02*
X6835023Y-12519406D01*
X6835023Y-12519406D02*
X6844547Y-12538454D01*
X6844547Y-12538454D02*
X6844547Y-12643216D01*
X7235023Y-12433692D02*
X7063594Y-12690835D01*
X7492166Y-12443216D02*
X7511214Y-12443216D01*
X7511214Y-12443216D02*
X7530261Y-12452739D01*
X7530261Y-12452739D02*
X7539785Y-12462263D01*
X7539785Y-12462263D02*
X7549309Y-12481311D01*
X7549309Y-12481311D02*
X7558833Y-12519406D01*
X7558833Y-12519406D02*
X7558833Y-12567025D01*
X7558833Y-12567025D02*
X7549309Y-12605120D01*
X7549309Y-12605120D02*
X7539785Y-12624168D01*
X7539785Y-12624168D02*
X7530261Y-12633692D01*
X7530261Y-12633692D02*
X7511214Y-12643216D01*
X7511214Y-12643216D02*
X7492166Y-12643216D01*
X7492166Y-12643216D02*
X7473118Y-12633692D01*
X7473118Y-12633692D02*
X7463594Y-12624168D01*
X7463594Y-12624168D02*
X7454071Y-12605120D01*
X7454071Y-12605120D02*
X7444547Y-12567025D01*
X7444547Y-12567025D02*
X7444547Y-12519406D01*
X7444547Y-12519406D02*
X7454071Y-12481311D01*
X7454071Y-12481311D02*
X7463594Y-12462263D01*
X7463594Y-12462263D02*
X7473118Y-12452739D01*
X7473118Y-12452739D02*
X7492166Y-12443216D01*
X7644547Y-12624168D02*
X7654071Y-12633692D01*
X7654071Y-12633692D02*
X7644547Y-12643216D01*
X7644547Y-12643216D02*
X7635023Y-12633692D01*
X7635023Y-12633692D02*
X7644547Y-12624168D01*
X7644547Y-12624168D02*
X7644547Y-12643216D01*
X7777880Y-12443216D02*
X7796928Y-12443216D01*
X7796928Y-12443216D02*
X7815975Y-12452739D01*
X7815975Y-12452739D02*
X7825499Y-12462263D01*
X7825499Y-12462263D02*
X7835023Y-12481311D01*
X7835023Y-12481311D02*
X7844547Y-12519406D01*
X7844547Y-12519406D02*
X7844547Y-12567025D01*
X7844547Y-12567025D02*
X7835023Y-12605120D01*
X7835023Y-12605120D02*
X7825499Y-12624168D01*
X7825499Y-12624168D02*
X7815975Y-12633692D01*
X7815975Y-12633692D02*
X7796928Y-12643216D01*
X7796928Y-12643216D02*
X7777880Y-12643216D01*
X7777880Y-12643216D02*
X7758833Y-12633692D01*
X7758833Y-12633692D02*
X7749309Y-12624168D01*
X7749309Y-12624168D02*
X7739785Y-12605120D01*
X7739785Y-12605120D02*
X7730261Y-12567025D01*
X7730261Y-12567025D02*
X7730261Y-12519406D01*
X7730261Y-12519406D02*
X7739785Y-12481311D01*
X7739785Y-12481311D02*
X7749309Y-12462263D01*
X7749309Y-12462263D02*
X7758833Y-12452739D01*
X7758833Y-12452739D02*
X7777880Y-12443216D01*
X8015975Y-12509882D02*
X8015975Y-12643216D01*
X7968356Y-12433692D02*
X7920737Y-12576549D01*
X7920737Y-12576549D02*
X8044547Y-12576549D01*
X8101690Y-12443216D02*
X8235023Y-12443216D01*
X8235023Y-12443216D02*
X8149309Y-12643216D01*
X8301690Y-12462263D02*
X8311214Y-12452739D01*
X8311214Y-12452739D02*
X8330261Y-12443216D01*
X8330261Y-12443216D02*
X8377880Y-12443216D01*
X8377880Y-12443216D02*
X8396928Y-12452739D01*
X8396928Y-12452739D02*
X8406452Y-12462263D01*
X8406452Y-12462263D02*
X8415976Y-12481311D01*
X8415976Y-12481311D02*
X8415976Y-12500358D01*
X8415976Y-12500358D02*
X8406452Y-12528930D01*
X8406452Y-12528930D02*
X8292166Y-12643216D01*
X8292166Y-12643216D02*
X8415976Y-12643216D01*
X8492166Y-12443216D02*
X8492166Y-12481311D01*
X8568357Y-12443216D02*
X8568357Y-12481311D01*
X8863595Y-12719406D02*
X8854071Y-12709882D01*
X8854071Y-12709882D02*
X8835023Y-12681311D01*
X8835023Y-12681311D02*
X8825499Y-12662263D01*
X8825499Y-12662263D02*
X8815976Y-12633692D01*
X8815976Y-12633692D02*
X8806452Y-12586073D01*
X8806452Y-12586073D02*
X8806452Y-12547977D01*
X8806452Y-12547977D02*
X8815976Y-12500358D01*
X8815976Y-12500358D02*
X8825499Y-12471787D01*
X8825499Y-12471787D02*
X8835023Y-12452739D01*
X8835023Y-12452739D02*
X8854071Y-12424168D01*
X8854071Y-12424168D02*
X8863595Y-12414644D01*
X9025499Y-12509882D02*
X9025499Y-12643216D01*
X8977880Y-12433692D02*
X8930261Y-12576549D01*
X8930261Y-12576549D02*
X9054071Y-12576549D01*
X9282642Y-12643216D02*
X9282642Y-12443216D01*
X9368357Y-12643216D02*
X9368357Y-12538454D01*
X9368357Y-12538454D02*
X9358833Y-12519406D01*
X9358833Y-12519406D02*
X9339785Y-12509882D01*
X9339785Y-12509882D02*
X9311214Y-12509882D01*
X9311214Y-12509882D02*
X9292166Y-12519406D01*
X9292166Y-12519406D02*
X9282642Y-12528930D01*
X9492166Y-12643216D02*
X9473119Y-12633692D01*
X9473119Y-12633692D02*
X9463595Y-12624168D01*
X9463595Y-12624168D02*
X9454071Y-12605120D01*
X9454071Y-12605120D02*
X9454071Y-12547977D01*
X9454071Y-12547977D02*
X9463595Y-12528930D01*
X9463595Y-12528930D02*
X9473119Y-12519406D01*
X9473119Y-12519406D02*
X9492166Y-12509882D01*
X9492166Y-12509882D02*
X9520738Y-12509882D01*
X9520738Y-12509882D02*
X9539785Y-12519406D01*
X9539785Y-12519406D02*
X9549309Y-12528930D01*
X9549309Y-12528930D02*
X9558833Y-12547977D01*
X9558833Y-12547977D02*
X9558833Y-12605120D01*
X9558833Y-12605120D02*
X9549309Y-12624168D01*
X9549309Y-12624168D02*
X9539785Y-12633692D01*
X9539785Y-12633692D02*
X9520738Y-12643216D01*
X9520738Y-12643216D02*
X9492166Y-12643216D01*
X9673119Y-12643216D02*
X9654071Y-12633692D01*
X9654071Y-12633692D02*
X9644547Y-12614644D01*
X9644547Y-12614644D02*
X9644547Y-12443216D01*
X9825500Y-12633692D02*
X9806452Y-12643216D01*
X9806452Y-12643216D02*
X9768357Y-12643216D01*
X9768357Y-12643216D02*
X9749309Y-12633692D01*
X9749309Y-12633692D02*
X9739785Y-12614644D01*
X9739785Y-12614644D02*
X9739785Y-12538454D01*
X9739785Y-12538454D02*
X9749309Y-12519406D01*
X9749309Y-12519406D02*
X9768357Y-12509882D01*
X9768357Y-12509882D02*
X9806452Y-12509882D01*
X9806452Y-12509882D02*
X9825500Y-12519406D01*
X9825500Y-12519406D02*
X9835023Y-12538454D01*
X9835023Y-12538454D02*
X9835023Y-12557501D01*
X9835023Y-12557501D02*
X9739785Y-12576549D01*
X9911214Y-12633692D02*
X9930261Y-12643216D01*
X9930261Y-12643216D02*
X9968357Y-12643216D01*
X9968357Y-12643216D02*
X9987404Y-12633692D01*
X9987404Y-12633692D02*
X9996928Y-12614644D01*
X9996928Y-12614644D02*
X9996928Y-12605120D01*
X9996928Y-12605120D02*
X9987404Y-12586073D01*
X9987404Y-12586073D02*
X9968357Y-12576549D01*
X9968357Y-12576549D02*
X9939785Y-12576549D01*
X9939785Y-12576549D02*
X9920738Y-12567025D01*
X9920738Y-12567025D02*
X9911214Y-12547977D01*
X9911214Y-12547977D02*
X9911214Y-12538454D01*
X9911214Y-12538454D02*
X9920738Y-12519406D01*
X9920738Y-12519406D02*
X9939785Y-12509882D01*
X9939785Y-12509882D02*
X9968357Y-12509882D01*
X9968357Y-12509882D02*
X9987404Y-12519406D01*
X10063595Y-12719406D02*
X10073119Y-12709882D01*
X10073119Y-12709882D02*
X10092166Y-12681311D01*
X10092166Y-12681311D02*
X10101690Y-12662263D01*
X10101690Y-12662263D02*
X10111214Y-12633692D01*
X10111214Y-12633692D02*
X10120738Y-12586073D01*
X10120738Y-12586073D02*
X10120738Y-12547977D01*
X10120738Y-12547977D02*
X10111214Y-12500358D01*
X10111214Y-12500358D02*
X10101690Y-12471787D01*
X10101690Y-12471787D02*
X10092166Y-12452739D01*
X10092166Y-12452739D02*
X10073119Y-12424168D01*
X10073119Y-12424168D02*
X10063595Y-12414644D01*
X10425500Y-12719406D02*
X10415976Y-12709882D01*
X10415976Y-12709882D02*
X10396928Y-12681311D01*
X10396928Y-12681311D02*
X10387404Y-12662263D01*
X10387404Y-12662263D02*
X10377881Y-12633692D01*
X10377881Y-12633692D02*
X10368357Y-12586073D01*
X10368357Y-12586073D02*
X10368357Y-12547977D01*
X10368357Y-12547977D02*
X10377881Y-12500358D01*
X10377881Y-12500358D02*
X10387404Y-12471787D01*
X10387404Y-12471787D02*
X10396928Y-12452739D01*
X10396928Y-12452739D02*
X10415976Y-12424168D01*
X10415976Y-12424168D02*
X10425500Y-12414644D01*
X10501690Y-12509882D02*
X10501690Y-12643216D01*
X10501690Y-12528930D02*
X10511214Y-12519406D01*
X10511214Y-12519406D02*
X10530261Y-12509882D01*
X10530261Y-12509882D02*
X10558833Y-12509882D01*
X10558833Y-12509882D02*
X10577881Y-12519406D01*
X10577881Y-12519406D02*
X10587404Y-12538454D01*
X10587404Y-12538454D02*
X10587404Y-12643216D01*
X10711214Y-12643216D02*
X10692166Y-12633692D01*
X10692166Y-12633692D02*
X10682642Y-12624168D01*
X10682642Y-12624168D02*
X10673119Y-12605120D01*
X10673119Y-12605120D02*
X10673119Y-12547977D01*
X10673119Y-12547977D02*
X10682642Y-12528930D01*
X10682642Y-12528930D02*
X10692166Y-12519406D01*
X10692166Y-12519406D02*
X10711214Y-12509882D01*
X10711214Y-12509882D02*
X10739785Y-12509882D01*
X10739785Y-12509882D02*
X10758833Y-12519406D01*
X10758833Y-12519406D02*
X10768357Y-12528930D01*
X10768357Y-12528930D02*
X10777881Y-12547977D01*
X10777881Y-12547977D02*
X10777881Y-12605120D01*
X10777881Y-12605120D02*
X10768357Y-12624168D01*
X10768357Y-12624168D02*
X10758833Y-12633692D01*
X10758833Y-12633692D02*
X10739785Y-12643216D01*
X10739785Y-12643216D02*
X10711214Y-12643216D01*
X10835023Y-12509882D02*
X10911214Y-12509882D01*
X10863595Y-12443216D02*
X10863595Y-12614644D01*
X10863595Y-12614644D02*
X10873119Y-12633692D01*
X10873119Y-12633692D02*
X10892166Y-12643216D01*
X10892166Y-12643216D02*
X10911214Y-12643216D01*
X11130262Y-12509882D02*
X11130262Y-12709882D01*
X11130262Y-12519406D02*
X11149309Y-12509882D01*
X11149309Y-12509882D02*
X11187404Y-12509882D01*
X11187404Y-12509882D02*
X11206452Y-12519406D01*
X11206452Y-12519406D02*
X11215976Y-12528930D01*
X11215976Y-12528930D02*
X11225500Y-12547977D01*
X11225500Y-12547977D02*
X11225500Y-12605120D01*
X11225500Y-12605120D02*
X11215976Y-12624168D01*
X11215976Y-12624168D02*
X11206452Y-12633692D01*
X11206452Y-12633692D02*
X11187404Y-12643216D01*
X11187404Y-12643216D02*
X11149309Y-12643216D01*
X11149309Y-12643216D02*
X11130262Y-12633692D01*
X11339785Y-12643216D02*
X11320738Y-12633692D01*
X11320738Y-12633692D02*
X11311214Y-12614644D01*
X11311214Y-12614644D02*
X11311214Y-12443216D01*
X11501690Y-12643216D02*
X11501690Y-12538454D01*
X11501690Y-12538454D02*
X11492166Y-12519406D01*
X11492166Y-12519406D02*
X11473119Y-12509882D01*
X11473119Y-12509882D02*
X11435023Y-12509882D01*
X11435023Y-12509882D02*
X11415976Y-12519406D01*
X11501690Y-12633692D02*
X11482642Y-12643216D01*
X11482642Y-12643216D02*
X11435023Y-12643216D01*
X11435023Y-12643216D02*
X11415976Y-12633692D01*
X11415976Y-12633692D02*
X11406452Y-12614644D01*
X11406452Y-12614644D02*
X11406452Y-12595596D01*
X11406452Y-12595596D02*
X11415976Y-12576549D01*
X11415976Y-12576549D02*
X11435023Y-12567025D01*
X11435023Y-12567025D02*
X11482642Y-12567025D01*
X11482642Y-12567025D02*
X11501690Y-12557501D01*
X11568357Y-12509882D02*
X11644547Y-12509882D01*
X11596928Y-12443216D02*
X11596928Y-12614644D01*
X11596928Y-12614644D02*
X11606452Y-12633692D01*
X11606452Y-12633692D02*
X11625500Y-12643216D01*
X11625500Y-12643216D02*
X11644547Y-12643216D01*
X11787404Y-12633692D02*
X11768357Y-12643216D01*
X11768357Y-12643216D02*
X11730261Y-12643216D01*
X11730261Y-12643216D02*
X11711214Y-12633692D01*
X11711214Y-12633692D02*
X11701690Y-12614644D01*
X11701690Y-12614644D02*
X11701690Y-12538454D01*
X11701690Y-12538454D02*
X11711214Y-12519406D01*
X11711214Y-12519406D02*
X11730261Y-12509882D01*
X11730261Y-12509882D02*
X11768357Y-12509882D01*
X11768357Y-12509882D02*
X11787404Y-12519406D01*
X11787404Y-12519406D02*
X11796928Y-12538454D01*
X11796928Y-12538454D02*
X11796928Y-12557501D01*
X11796928Y-12557501D02*
X11701690Y-12576549D01*
X11968357Y-12643216D02*
X11968357Y-12443216D01*
X11968357Y-12633692D02*
X11949309Y-12643216D01*
X11949309Y-12643216D02*
X11911214Y-12643216D01*
X11911214Y-12643216D02*
X11892166Y-12633692D01*
X11892166Y-12633692D02*
X11882642Y-12624168D01*
X11882642Y-12624168D02*
X11873119Y-12605120D01*
X11873119Y-12605120D02*
X11873119Y-12547977D01*
X11873119Y-12547977D02*
X11882642Y-12528930D01*
X11882642Y-12528930D02*
X11892166Y-12519406D01*
X11892166Y-12519406D02*
X11911214Y-12509882D01*
X11911214Y-12509882D02*
X11949309Y-12509882D01*
X11949309Y-12509882D02*
X11968357Y-12519406D01*
X12044547Y-12719406D02*
X12054071Y-12709882D01*
X12054071Y-12709882D02*
X12073119Y-12681311D01*
X12073119Y-12681311D02*
X12082642Y-12662263D01*
X12082642Y-12662263D02*
X12092166Y-12633692D01*
X12092166Y-12633692D02*
X12101690Y-12586073D01*
X12101690Y-12586073D02*
X12101690Y-12547977D01*
X12101690Y-12547977D02*
X12092166Y-12500358D01*
X12092166Y-12500358D02*
X12082642Y-12471787D01*
X12082642Y-12471787D02*
X12073119Y-12452739D01*
X12073119Y-12452739D02*
X12054071Y-12424168D01*
X12054071Y-12424168D02*
X12044547Y-12414644D01*
D15*
X5223532Y-12880732D02*
X5288532Y-12815732D01*
X5223532Y-12750732D01*
X5158532Y-12815732D01*
X5223532Y-12880732D01*
D11*
X5654070Y-12907216D02*
X5539785Y-12907216D01*
X5596928Y-12907216D02*
X5596928Y-12707216D01*
X5596928Y-12707216D02*
X5577880Y-12735787D01*
X5577880Y-12735787D02*
X5558832Y-12754835D01*
X5558832Y-12754835D02*
X5539785Y-12764358D01*
X5739785Y-12888168D02*
X5749309Y-12897692D01*
X5749309Y-12897692D02*
X5739785Y-12907216D01*
X5739785Y-12907216D02*
X5730261Y-12897692D01*
X5730261Y-12897692D02*
X5739785Y-12888168D01*
X5739785Y-12888168D02*
X5739785Y-12907216D01*
X5815975Y-12707216D02*
X5939785Y-12707216D01*
X5939785Y-12707216D02*
X5873118Y-12783406D01*
X5873118Y-12783406D02*
X5901690Y-12783406D01*
X5901690Y-12783406D02*
X5920737Y-12792930D01*
X5920737Y-12792930D02*
X5930261Y-12802454D01*
X5930261Y-12802454D02*
X5939785Y-12821501D01*
X5939785Y-12821501D02*
X5939785Y-12869120D01*
X5939785Y-12869120D02*
X5930261Y-12888168D01*
X5930261Y-12888168D02*
X5920737Y-12897692D01*
X5920737Y-12897692D02*
X5901690Y-12907216D01*
X5901690Y-12907216D02*
X5844547Y-12907216D01*
X5844547Y-12907216D02*
X5825499Y-12897692D01*
X5825499Y-12897692D02*
X5815975Y-12888168D01*
X6063594Y-12707216D02*
X6082642Y-12707216D01*
X6082642Y-12707216D02*
X6101690Y-12716739D01*
X6101690Y-12716739D02*
X6111213Y-12726263D01*
X6111213Y-12726263D02*
X6120737Y-12745311D01*
X6120737Y-12745311D02*
X6130261Y-12783406D01*
X6130261Y-12783406D02*
X6130261Y-12831025D01*
X6130261Y-12831025D02*
X6120737Y-12869120D01*
X6120737Y-12869120D02*
X6111213Y-12888168D01*
X6111213Y-12888168D02*
X6101690Y-12897692D01*
X6101690Y-12897692D02*
X6082642Y-12907216D01*
X6082642Y-12907216D02*
X6063594Y-12907216D01*
X6063594Y-12907216D02*
X6044547Y-12897692D01*
X6044547Y-12897692D02*
X6035023Y-12888168D01*
X6035023Y-12888168D02*
X6025499Y-12869120D01*
X6025499Y-12869120D02*
X6015975Y-12831025D01*
X6015975Y-12831025D02*
X6015975Y-12783406D01*
X6015975Y-12783406D02*
X6025499Y-12745311D01*
X6025499Y-12745311D02*
X6035023Y-12726263D01*
X6035023Y-12726263D02*
X6044547Y-12716739D01*
X6044547Y-12716739D02*
X6063594Y-12707216D01*
X6254070Y-12707216D02*
X6273118Y-12707216D01*
X6273118Y-12707216D02*
X6292166Y-12716739D01*
X6292166Y-12716739D02*
X6301690Y-12726263D01*
X6301690Y-12726263D02*
X6311213Y-12745311D01*
X6311213Y-12745311D02*
X6320737Y-12783406D01*
X6320737Y-12783406D02*
X6320737Y-12831025D01*
X6320737Y-12831025D02*
X6311213Y-12869120D01*
X6311213Y-12869120D02*
X6301690Y-12888168D01*
X6301690Y-12888168D02*
X6292166Y-12897692D01*
X6292166Y-12897692D02*
X6273118Y-12907216D01*
X6273118Y-12907216D02*
X6254070Y-12907216D01*
X6254070Y-12907216D02*
X6235023Y-12897692D01*
X6235023Y-12897692D02*
X6225499Y-12888168D01*
X6225499Y-12888168D02*
X6215975Y-12869120D01*
X6215975Y-12869120D02*
X6206451Y-12831025D01*
X6206451Y-12831025D02*
X6206451Y-12783406D01*
X6206451Y-12783406D02*
X6215975Y-12745311D01*
X6215975Y-12745311D02*
X6225499Y-12726263D01*
X6225499Y-12726263D02*
X6235023Y-12716739D01*
X6235023Y-12716739D02*
X6254070Y-12707216D01*
X6406451Y-12907216D02*
X6406451Y-12773882D01*
X6406451Y-12792930D02*
X6415975Y-12783406D01*
X6415975Y-12783406D02*
X6435023Y-12773882D01*
X6435023Y-12773882D02*
X6463594Y-12773882D01*
X6463594Y-12773882D02*
X6482642Y-12783406D01*
X6482642Y-12783406D02*
X6492166Y-12802454D01*
X6492166Y-12802454D02*
X6492166Y-12907216D01*
X6492166Y-12802454D02*
X6501690Y-12783406D01*
X6501690Y-12783406D02*
X6520737Y-12773882D01*
X6520737Y-12773882D02*
X6549309Y-12773882D01*
X6549309Y-12773882D02*
X6568356Y-12783406D01*
X6568356Y-12783406D02*
X6577880Y-12802454D01*
X6577880Y-12802454D02*
X6577880Y-12907216D01*
X6673118Y-12907216D02*
X6673118Y-12773882D01*
X6673118Y-12792930D02*
X6682642Y-12783406D01*
X6682642Y-12783406D02*
X6701690Y-12773882D01*
X6701690Y-12773882D02*
X6730261Y-12773882D01*
X6730261Y-12773882D02*
X6749309Y-12783406D01*
X6749309Y-12783406D02*
X6758832Y-12802454D01*
X6758832Y-12802454D02*
X6758832Y-12907216D01*
X6758832Y-12802454D02*
X6768356Y-12783406D01*
X6768356Y-12783406D02*
X6787404Y-12773882D01*
X6787404Y-12773882D02*
X6815975Y-12773882D01*
X6815975Y-12773882D02*
X6835023Y-12783406D01*
X6835023Y-12783406D02*
X6844547Y-12802454D01*
X6844547Y-12802454D02*
X6844547Y-12907216D01*
X7235023Y-12697692D02*
X7063594Y-12954835D01*
X7492166Y-12707216D02*
X7511214Y-12707216D01*
X7511214Y-12707216D02*
X7530261Y-12716739D01*
X7530261Y-12716739D02*
X7539785Y-12726263D01*
X7539785Y-12726263D02*
X7549309Y-12745311D01*
X7549309Y-12745311D02*
X7558833Y-12783406D01*
X7558833Y-12783406D02*
X7558833Y-12831025D01*
X7558833Y-12831025D02*
X7549309Y-12869120D01*
X7549309Y-12869120D02*
X7539785Y-12888168D01*
X7539785Y-12888168D02*
X7530261Y-12897692D01*
X7530261Y-12897692D02*
X7511214Y-12907216D01*
X7511214Y-12907216D02*
X7492166Y-12907216D01*
X7492166Y-12907216D02*
X7473118Y-12897692D01*
X7473118Y-12897692D02*
X7463594Y-12888168D01*
X7463594Y-12888168D02*
X7454071Y-12869120D01*
X7454071Y-12869120D02*
X7444547Y-12831025D01*
X7444547Y-12831025D02*
X7444547Y-12783406D01*
X7444547Y-12783406D02*
X7454071Y-12745311D01*
X7454071Y-12745311D02*
X7463594Y-12726263D01*
X7463594Y-12726263D02*
X7473118Y-12716739D01*
X7473118Y-12716739D02*
X7492166Y-12707216D01*
X7644547Y-12888168D02*
X7654071Y-12897692D01*
X7654071Y-12897692D02*
X7644547Y-12907216D01*
X7644547Y-12907216D02*
X7635023Y-12897692D01*
X7635023Y-12897692D02*
X7644547Y-12888168D01*
X7644547Y-12888168D02*
X7644547Y-12907216D01*
X7777880Y-12707216D02*
X7796928Y-12707216D01*
X7796928Y-12707216D02*
X7815975Y-12716739D01*
X7815975Y-12716739D02*
X7825499Y-12726263D01*
X7825499Y-12726263D02*
X7835023Y-12745311D01*
X7835023Y-12745311D02*
X7844547Y-12783406D01*
X7844547Y-12783406D02*
X7844547Y-12831025D01*
X7844547Y-12831025D02*
X7835023Y-12869120D01*
X7835023Y-12869120D02*
X7825499Y-12888168D01*
X7825499Y-12888168D02*
X7815975Y-12897692D01*
X7815975Y-12897692D02*
X7796928Y-12907216D01*
X7796928Y-12907216D02*
X7777880Y-12907216D01*
X7777880Y-12907216D02*
X7758833Y-12897692D01*
X7758833Y-12897692D02*
X7749309Y-12888168D01*
X7749309Y-12888168D02*
X7739785Y-12869120D01*
X7739785Y-12869120D02*
X7730261Y-12831025D01*
X7730261Y-12831025D02*
X7730261Y-12783406D01*
X7730261Y-12783406D02*
X7739785Y-12745311D01*
X7739785Y-12745311D02*
X7749309Y-12726263D01*
X7749309Y-12726263D02*
X7758833Y-12716739D01*
X7758833Y-12716739D02*
X7777880Y-12707216D01*
X8025499Y-12707216D02*
X7930261Y-12707216D01*
X7930261Y-12707216D02*
X7920737Y-12802454D01*
X7920737Y-12802454D02*
X7930261Y-12792930D01*
X7930261Y-12792930D02*
X7949309Y-12783406D01*
X7949309Y-12783406D02*
X7996928Y-12783406D01*
X7996928Y-12783406D02*
X8015975Y-12792930D01*
X8015975Y-12792930D02*
X8025499Y-12802454D01*
X8025499Y-12802454D02*
X8035023Y-12821501D01*
X8035023Y-12821501D02*
X8035023Y-12869120D01*
X8035023Y-12869120D02*
X8025499Y-12888168D01*
X8025499Y-12888168D02*
X8015975Y-12897692D01*
X8015975Y-12897692D02*
X7996928Y-12907216D01*
X7996928Y-12907216D02*
X7949309Y-12907216D01*
X7949309Y-12907216D02*
X7930261Y-12897692D01*
X7930261Y-12897692D02*
X7920737Y-12888168D01*
X8225499Y-12907216D02*
X8111214Y-12907216D01*
X8168356Y-12907216D02*
X8168356Y-12707216D01*
X8168356Y-12707216D02*
X8149309Y-12735787D01*
X8149309Y-12735787D02*
X8130261Y-12754835D01*
X8130261Y-12754835D02*
X8111214Y-12764358D01*
X8301690Y-12726263D02*
X8311214Y-12716739D01*
X8311214Y-12716739D02*
X8330261Y-12707216D01*
X8330261Y-12707216D02*
X8377880Y-12707216D01*
X8377880Y-12707216D02*
X8396928Y-12716739D01*
X8396928Y-12716739D02*
X8406452Y-12726263D01*
X8406452Y-12726263D02*
X8415976Y-12745311D01*
X8415976Y-12745311D02*
X8415976Y-12764358D01*
X8415976Y-12764358D02*
X8406452Y-12792930D01*
X8406452Y-12792930D02*
X8292166Y-12907216D01*
X8292166Y-12907216D02*
X8415976Y-12907216D01*
X8492166Y-12707216D02*
X8492166Y-12745311D01*
X8568357Y-12707216D02*
X8568357Y-12745311D01*
X8863595Y-12983406D02*
X8854071Y-12973882D01*
X8854071Y-12973882D02*
X8835023Y-12945311D01*
X8835023Y-12945311D02*
X8825499Y-12926263D01*
X8825499Y-12926263D02*
X8815976Y-12897692D01*
X8815976Y-12897692D02*
X8806452Y-12850073D01*
X8806452Y-12850073D02*
X8806452Y-12811977D01*
X8806452Y-12811977D02*
X8815976Y-12764358D01*
X8815976Y-12764358D02*
X8825499Y-12735787D01*
X8825499Y-12735787D02*
X8835023Y-12716739D01*
X8835023Y-12716739D02*
X8854071Y-12688168D01*
X8854071Y-12688168D02*
X8863595Y-12678644D01*
X9044547Y-12907216D02*
X8930261Y-12907216D01*
X8987404Y-12907216D02*
X8987404Y-12707216D01*
X8987404Y-12707216D02*
X8968357Y-12735787D01*
X8968357Y-12735787D02*
X8949309Y-12754835D01*
X8949309Y-12754835D02*
X8930261Y-12764358D01*
X9282642Y-12907216D02*
X9282642Y-12707216D01*
X9368357Y-12907216D02*
X9368357Y-12802454D01*
X9368357Y-12802454D02*
X9358833Y-12783406D01*
X9358833Y-12783406D02*
X9339785Y-12773882D01*
X9339785Y-12773882D02*
X9311214Y-12773882D01*
X9311214Y-12773882D02*
X9292166Y-12783406D01*
X9292166Y-12783406D02*
X9282642Y-12792930D01*
X9492166Y-12907216D02*
X9473119Y-12897692D01*
X9473119Y-12897692D02*
X9463595Y-12888168D01*
X9463595Y-12888168D02*
X9454071Y-12869120D01*
X9454071Y-12869120D02*
X9454071Y-12811977D01*
X9454071Y-12811977D02*
X9463595Y-12792930D01*
X9463595Y-12792930D02*
X9473119Y-12783406D01*
X9473119Y-12783406D02*
X9492166Y-12773882D01*
X9492166Y-12773882D02*
X9520738Y-12773882D01*
X9520738Y-12773882D02*
X9539785Y-12783406D01*
X9539785Y-12783406D02*
X9549309Y-12792930D01*
X9549309Y-12792930D02*
X9558833Y-12811977D01*
X9558833Y-12811977D02*
X9558833Y-12869120D01*
X9558833Y-12869120D02*
X9549309Y-12888168D01*
X9549309Y-12888168D02*
X9539785Y-12897692D01*
X9539785Y-12897692D02*
X9520738Y-12907216D01*
X9520738Y-12907216D02*
X9492166Y-12907216D01*
X9673119Y-12907216D02*
X9654071Y-12897692D01*
X9654071Y-12897692D02*
X9644547Y-12878644D01*
X9644547Y-12878644D02*
X9644547Y-12707216D01*
X9825500Y-12897692D02*
X9806452Y-12907216D01*
X9806452Y-12907216D02*
X9768357Y-12907216D01*
X9768357Y-12907216D02*
X9749309Y-12897692D01*
X9749309Y-12897692D02*
X9739785Y-12878644D01*
X9739785Y-12878644D02*
X9739785Y-12802454D01*
X9739785Y-12802454D02*
X9749309Y-12783406D01*
X9749309Y-12783406D02*
X9768357Y-12773882D01*
X9768357Y-12773882D02*
X9806452Y-12773882D01*
X9806452Y-12773882D02*
X9825500Y-12783406D01*
X9825500Y-12783406D02*
X9835023Y-12802454D01*
X9835023Y-12802454D02*
X9835023Y-12821501D01*
X9835023Y-12821501D02*
X9739785Y-12840549D01*
X9901690Y-12983406D02*
X9911214Y-12973882D01*
X9911214Y-12973882D02*
X9930261Y-12945311D01*
X9930261Y-12945311D02*
X9939785Y-12926263D01*
X9939785Y-12926263D02*
X9949309Y-12897692D01*
X9949309Y-12897692D02*
X9958833Y-12850073D01*
X9958833Y-12850073D02*
X9958833Y-12811977D01*
X9958833Y-12811977D02*
X9949309Y-12764358D01*
X9949309Y-12764358D02*
X9939785Y-12735787D01*
X9939785Y-12735787D02*
X9930261Y-12716739D01*
X9930261Y-12716739D02*
X9911214Y-12688168D01*
X9911214Y-12688168D02*
X9901690Y-12678644D01*
X10263595Y-12983406D02*
X10254071Y-12973882D01*
X10254071Y-12973882D02*
X10235023Y-12945311D01*
X10235023Y-12945311D02*
X10225500Y-12926263D01*
X10225500Y-12926263D02*
X10215976Y-12897692D01*
X10215976Y-12897692D02*
X10206452Y-12850073D01*
X10206452Y-12850073D02*
X10206452Y-12811977D01*
X10206452Y-12811977D02*
X10215976Y-12764358D01*
X10215976Y-12764358D02*
X10225500Y-12735787D01*
X10225500Y-12735787D02*
X10235023Y-12716739D01*
X10235023Y-12716739D02*
X10254071Y-12688168D01*
X10254071Y-12688168D02*
X10263595Y-12678644D01*
X10339785Y-12773882D02*
X10339785Y-12907216D01*
X10339785Y-12792930D02*
X10349309Y-12783406D01*
X10349309Y-12783406D02*
X10368357Y-12773882D01*
X10368357Y-12773882D02*
X10396928Y-12773882D01*
X10396928Y-12773882D02*
X10415976Y-12783406D01*
X10415976Y-12783406D02*
X10425500Y-12802454D01*
X10425500Y-12802454D02*
X10425500Y-12907216D01*
X10549309Y-12907216D02*
X10530261Y-12897692D01*
X10530261Y-12897692D02*
X10520738Y-12888168D01*
X10520738Y-12888168D02*
X10511214Y-12869120D01*
X10511214Y-12869120D02*
X10511214Y-12811977D01*
X10511214Y-12811977D02*
X10520738Y-12792930D01*
X10520738Y-12792930D02*
X10530261Y-12783406D01*
X10530261Y-12783406D02*
X10549309Y-12773882D01*
X10549309Y-12773882D02*
X10577881Y-12773882D01*
X10577881Y-12773882D02*
X10596928Y-12783406D01*
X10596928Y-12783406D02*
X10606452Y-12792930D01*
X10606452Y-12792930D02*
X10615976Y-12811977D01*
X10615976Y-12811977D02*
X10615976Y-12869120D01*
X10615976Y-12869120D02*
X10606452Y-12888168D01*
X10606452Y-12888168D02*
X10596928Y-12897692D01*
X10596928Y-12897692D02*
X10577881Y-12907216D01*
X10577881Y-12907216D02*
X10549309Y-12907216D01*
X10673119Y-12773882D02*
X10749309Y-12773882D01*
X10701690Y-12707216D02*
X10701690Y-12878644D01*
X10701690Y-12878644D02*
X10711214Y-12897692D01*
X10711214Y-12897692D02*
X10730261Y-12907216D01*
X10730261Y-12907216D02*
X10749309Y-12907216D01*
X10968357Y-12773882D02*
X10968357Y-12973882D01*
X10968357Y-12783406D02*
X10987404Y-12773882D01*
X10987404Y-12773882D02*
X11025500Y-12773882D01*
X11025500Y-12773882D02*
X11044547Y-12783406D01*
X11044547Y-12783406D02*
X11054071Y-12792930D01*
X11054071Y-12792930D02*
X11063595Y-12811977D01*
X11063595Y-12811977D02*
X11063595Y-12869120D01*
X11063595Y-12869120D02*
X11054071Y-12888168D01*
X11054071Y-12888168D02*
X11044547Y-12897692D01*
X11044547Y-12897692D02*
X11025500Y-12907216D01*
X11025500Y-12907216D02*
X10987404Y-12907216D01*
X10987404Y-12907216D02*
X10968357Y-12897692D01*
X11177881Y-12907216D02*
X11158833Y-12897692D01*
X11158833Y-12897692D02*
X11149309Y-12878644D01*
X11149309Y-12878644D02*
X11149309Y-12707216D01*
X11339785Y-12907216D02*
X11339785Y-12802454D01*
X11339785Y-12802454D02*
X11330261Y-12783406D01*
X11330261Y-12783406D02*
X11311214Y-12773882D01*
X11311214Y-12773882D02*
X11273119Y-12773882D01*
X11273119Y-12773882D02*
X11254071Y-12783406D01*
X11339785Y-12897692D02*
X11320738Y-12907216D01*
X11320738Y-12907216D02*
X11273119Y-12907216D01*
X11273119Y-12907216D02*
X11254071Y-12897692D01*
X11254071Y-12897692D02*
X11244547Y-12878644D01*
X11244547Y-12878644D02*
X11244547Y-12859596D01*
X11244547Y-12859596D02*
X11254071Y-12840549D01*
X11254071Y-12840549D02*
X11273119Y-12831025D01*
X11273119Y-12831025D02*
X11320738Y-12831025D01*
X11320738Y-12831025D02*
X11339785Y-12821501D01*
X11406452Y-12773882D02*
X11482642Y-12773882D01*
X11435023Y-12707216D02*
X11435023Y-12878644D01*
X11435023Y-12878644D02*
X11444547Y-12897692D01*
X11444547Y-12897692D02*
X11463595Y-12907216D01*
X11463595Y-12907216D02*
X11482642Y-12907216D01*
X11625500Y-12897692D02*
X11606452Y-12907216D01*
X11606452Y-12907216D02*
X11568357Y-12907216D01*
X11568357Y-12907216D02*
X11549309Y-12897692D01*
X11549309Y-12897692D02*
X11539785Y-12878644D01*
X11539785Y-12878644D02*
X11539785Y-12802454D01*
X11539785Y-12802454D02*
X11549309Y-12783406D01*
X11549309Y-12783406D02*
X11568357Y-12773882D01*
X11568357Y-12773882D02*
X11606452Y-12773882D01*
X11606452Y-12773882D02*
X11625500Y-12783406D01*
X11625500Y-12783406D02*
X11635023Y-12802454D01*
X11635023Y-12802454D02*
X11635023Y-12821501D01*
X11635023Y-12821501D02*
X11539785Y-12840549D01*
X11806452Y-12907216D02*
X11806452Y-12707216D01*
X11806452Y-12897692D02*
X11787404Y-12907216D01*
X11787404Y-12907216D02*
X11749309Y-12907216D01*
X11749309Y-12907216D02*
X11730261Y-12897692D01*
X11730261Y-12897692D02*
X11720738Y-12888168D01*
X11720738Y-12888168D02*
X11711214Y-12869120D01*
X11711214Y-12869120D02*
X11711214Y-12811977D01*
X11711214Y-12811977D02*
X11720738Y-12792930D01*
X11720738Y-12792930D02*
X11730261Y-12783406D01*
X11730261Y-12783406D02*
X11749309Y-12773882D01*
X11749309Y-12773882D02*
X11787404Y-12773882D01*
X11787404Y-12773882D02*
X11806452Y-12783406D01*
X11882642Y-12983406D02*
X11892166Y-12973882D01*
X11892166Y-12973882D02*
X11911214Y-12945311D01*
X11911214Y-12945311D02*
X11920738Y-12926263D01*
X11920738Y-12926263D02*
X11930261Y-12897692D01*
X11930261Y-12897692D02*
X11939785Y-12850073D01*
X11939785Y-12850073D02*
X11939785Y-12811977D01*
X11939785Y-12811977D02*
X11930261Y-12764358D01*
X11930261Y-12764358D02*
X11920738Y-12735787D01*
X11920738Y-12735787D02*
X11911214Y-12716739D01*
X11911214Y-12716739D02*
X11892166Y-12688168D01*
X11892166Y-12688168D02*
X11882642Y-12678644D01*
M02*
