M48
; DRILL file {KiCad 7.0.10-7.0.10~ubuntu22.04.1} date Wed 21 Feb 2024 21:45:03 EET
; FORMAT={-:-/ absolute / inch / decimal}
; #@! TF.CreationDate,2024-02-21T21:45:03+02:00
; #@! TF.GenerationSoftware,Kicad,Pcbnew,7.0.10-7.0.10~ubuntu22.04.1
; #@! TF.FileFunction,Plated,1,4,PTH
FMAT,2
INCH
; #@! TA.AperFunction,Plated,PTH,ViaDrill
T1C0.0118
; #@! TA.AperFunction,Plated,PTH,ComponentDrill
T2C0.0138
; #@! TA.AperFunction,Plated,PTH,ComponentDrill
T3C0.0197
; #@! TA.AperFunction,Plated,PTH,ComponentDrill
T4C0.0236
; #@! TA.AperFunction,Plated,PTH,ComponentDrill
T5C0.0256
; #@! TA.AperFunction,Plated,PTH,ComponentDrill
T6C0.0354
; #@! TA.AperFunction,Plated,PTH,ComponentDrill
T7C0.0362
; #@! TA.AperFunction,Plated,PTH,ComponentDrill
T8C0.0390
; #@! TA.AperFunction,Plated,PTH,ComponentDrill
T9C0.0512
; #@! TA.AperFunction,Plated,PTH,ComponentDrill
T10C0.1181
%
G90
G05
T1
X2.136Y-2.447
X2.14Y-2.69
X2.144Y-2.505
X2.145Y-2.946
X2.145Y-2.965
X2.145Y-2.984
X2.145Y-3.16
X2.15Y-2.805
X2.155Y-2.11
X2.16Y-2.519
X2.2Y-2.065
X2.2Y-2.305
X2.2Y-2.517
X2.205Y-2.4
X2.2062Y-2.69
X2.21Y-1.975
X2.21Y-2.14
X2.21Y-3.16
X2.215Y-2.805
X2.242Y-2.825
X2.243Y-3.13
X2.25Y-2.05
X2.25Y-2.305
X2.255Y-3.26
X2.258Y-2.84
X2.26Y-2.53
X2.261Y-2.601
X2.261Y-2.622
X2.261Y-3.114
X2.264Y-2.693
X2.293Y-2.403
X2.305Y-3.16
X2.31Y-2.805
X2.3131Y-2.403
X2.3131Y-2.4231
X2.315Y-3.2591
X2.3226Y-2.682
X2.33Y-2.701
X2.341Y-2.4026
X2.3741Y-3.33
X2.38Y-2.577
X2.38Y-3.16
X2.3817Y-2.4689
X2.3836Y-2.543
X2.384Y-2.5006
X2.3869Y-2.6235
X2.393Y-2.4516
X2.394Y-2.877
X2.396Y-2.5915
X2.397Y-2.4831
X2.397Y-2.561
X2.3975Y-2.5285
X2.4002Y-2.6404
X2.41Y-2.805
X2.41Y-3.555
X2.412Y-3.495
X2.4154Y-2.6556
X2.418Y-2.594
X2.42Y-1.925
X2.43Y-2.325
X2.43Y-3.595
X2.43Y-3.63
X2.43Y-3.649
X2.43Y-3.668
X2.451Y-3.099
X2.458Y-2.578
X2.46Y-2.39
X2.46Y-2.515
X2.461Y-2.645
X2.465Y-1.83
X2.473Y-2.685
X2.478Y-2.5792
X2.484Y-3.495
X2.484Y-3.555
X2.485Y-1.75
X2.4919Y-2.642
X2.495Y-2.685
X2.495Y-3.255
X2.498Y-3.049
X2.5Y-3.28
X2.5041Y-3.33
X2.505Y-2.125
X2.505Y-2.805
X2.512Y-2.642
X2.515Y-2.055
X2.517Y-2.685
X2.519Y-3.025
X2.525Y-2.125
X2.535Y-3.855
X2.5366Y-3.415
X2.537Y-3.39
X2.54Y-3.6991
X2.545Y-2.125
X2.546Y-2.575
X2.5506Y-3.679
X2.555Y-2.8
X2.555Y-3.255
X2.56Y-2.31
X2.565Y-3.3609
X2.569Y-2.644
X2.57Y-2.375
X2.581Y-4.201
X2.581Y-4.22
X2.581Y-4.239
X2.5877Y-2.375
X2.59Y-2.92
X2.595Y-3.64
X2.605Y-1.75
X2.6097Y-2.7994
X2.615Y-3.64
X2.62Y-3.26
X2.62Y-3.855
X2.6249Y-3.335
X2.625Y-2.31
X2.63Y-1.83
X2.635Y-3.64
X2.639Y-2.929
X2.645Y-3.335
X2.647Y-2.644
X2.648Y-3.075
X2.659Y-3.725
X2.66Y-2.395
X2.66Y-2.5198
X2.661Y-2.577
X2.661Y-3.309
X2.6641Y-4.13
X2.665Y-3.058
X2.674Y-3.2937
X2.675Y-1.925
X2.684Y-2.624
X2.69Y-2.325
X2.692Y-2.071
X2.692Y-2.09
X2.692Y-2.109
X2.692Y-3.856
X2.695Y-4.22
X2.695Y-4.2909
X2.698Y-2.609
X2.7Y-2.8
X2.705Y-3.755
X2.71Y-3.64
X2.712Y-3.715
X2.714Y-2.678
X2.72Y-3.335
X2.725Y-3.255
X2.735Y-2.679
X2.7393Y-2.47
X2.74Y-2.45
X2.74Y-3.2937
X2.755Y-2.679
X2.7591Y-2.7991
X2.76Y-3.65
X2.76Y-4.2191
X2.76Y-4.2909
X2.765Y-2.92
X2.766Y-2.5619
X2.7662Y-2.501
X2.775Y-2.679
X2.7802Y-2.5164
X2.8081Y-2.5153
X2.815Y-2.705
X2.816Y-2.923
X2.82Y-3.905
X2.834Y-3.492
X2.839Y-2.705
X2.842Y-3.905
X2.8516Y-3.392
X2.8516Y-3.416
X2.8612Y-2.3629
X2.862Y-3.2937
X2.864Y-3.905
X2.875Y-2.803
X2.88Y-1.875
X2.886Y-3.905
X2.895Y-4.13
X2.9Y-3.133
X2.9Y-3.155
X2.925Y-2.365
X2.93Y-2.93
X2.95Y-2.695
X2.9512Y-2.451
X2.965Y-3.165
X2.9783Y-3.3611
X2.9899Y-3.1931
X2.99Y-2.365
X2.99Y-3.104
X2.99Y-3.124
X2.99Y-3.144
X2.99Y-3.171
X2.99Y-3.2149
X2.99Y-3.235
X2.995Y-3.35
X3.011Y-3.2351
X3.016Y-3.328
X3.031Y-3.313
X3.0418Y-2.451
X3.046Y-1.704
X3.05Y-4.28
X3.05Y-4.355
X3.055Y-2.365
X3.058Y-1.721
X3.058Y-1.742
X3.06Y-2.77
X3.08Y-2.77
X3.09Y-2.921
X3.1Y-2.77
X3.1061Y-3.2969
X3.1061Y-3.3169
X3.14Y-1.7503
X3.14Y-1.77
X3.14Y-1.82
X3.14Y-1.8503
X3.14Y-1.87
X3.14Y-1.9002
X3.14Y-1.9198
X3.1408Y-1.7996
X3.1449Y-3.2151
X3.145Y-3.1749
X3.145Y-3.1548
X3.1453Y-3.2353
X3.1454Y-3.195
X3.16Y-2.656
X3.16Y-2.9
X3.16Y-2.9201
X3.18Y-3.285
X3.18Y-3.63
X3.19Y-2.675
X3.206Y-4.119
X3.206Y-4.138
X3.206Y-4.157
X3.245Y-3.305
X3.255Y-2.64
X3.26Y-2.795
X3.26Y-2.93
X3.2625Y-3.0085
X3.2626Y-3.0879
X3.2626Y-3.1641
X3.28Y-3.725
X3.2836Y-3.3516
X3.29Y-2.95
X3.296Y-3.3674
X3.3Y-3.105
X3.3Y-3.34
X3.3016Y-3.2043
X3.3047Y-2.9967
X3.3049Y-3.32
X3.305Y-2.85
X3.31Y-2.87
X3.322Y-2.715
X3.322Y-2.795
X3.325Y-3.32
X3.3349Y-2.3501
X3.335Y-2.33
X3.3369Y-2.3701
X3.34Y-2.93
X3.34Y-2.98
X3.34Y-3.03
X3.34Y-3.0658
X3.34Y-3.24
X3.3421Y-3.0079
X3.349Y-3.725
X3.38Y-2.79
X3.38Y-2.85
X3.38Y-2.875
X3.38Y-2.91
X3.38Y-2.99
X3.38Y-3.03
X3.38Y-3.0658
X3.38Y-3.105
X3.39Y-3.92
X3.39Y-4.2191
X3.39Y-4.2909
X3.415Y-2.535
X3.415Y-2.955
X3.42Y-2.83
X3.42Y-2.87
X3.42Y-2.99
X3.42Y-3.03
X3.42Y-3.07
X3.42Y-3.225
X3.43Y-2.34
X3.4319Y-3.145
X3.44Y-2.715
X3.451Y-2.7943
X3.4545Y-4.2905
X3.455Y-2.905
X3.455Y-4.215
X3.4593Y-2.9931
X3.46Y-2.83
X3.46Y-2.87
X3.46Y-2.95
X3.46Y-3.065
X3.46Y-3.105
X3.46Y-3.145
X3.4613Y-3.0263
X3.495Y-3.225
X3.498Y-2.9927
X3.4982Y-3.0268
X3.5Y-2.83
X3.5Y-2.87
X3.5Y-2.91
X3.5Y-2.95
X3.5Y-3.105
X3.505Y-3.575
X3.5106Y-3.671
X3.515Y-3.431
X3.52Y-2.715
X3.535Y-3.0754
X3.537Y-3.105
X3.539Y-1.954
X3.56Y-2.795
X3.57Y-2.26
X3.575Y-2.835
X3.575Y-2.8722
X3.575Y-2.955
X3.575Y-3.185
X3.575Y-3.225
X3.575Y-3.43
X3.576Y-3.107
X3.579Y-3.066
X3.58Y-3.03
X3.58Y-3.145
X3.595Y-3.35
X3.6Y-2.715
X3.602Y-2.021
X3.615Y-2.495
X3.615Y-2.755
X3.615Y-2.79
X3.615Y-2.835
X3.615Y-2.875
X3.615Y-2.91
X3.615Y-2.95
X3.615Y-2.985
X3.615Y-3.145
X3.615Y-3.225
X3.616Y-3.108
X3.6219Y-3.025
X3.655Y-2.835
X3.655Y-2.875
X3.655Y-2.91
X3.655Y-2.955
X3.655Y-2.99
X3.655Y-3.024
X3.66Y-2.781
X3.6849Y-2.5455
X3.685Y-2.5254
X3.685Y-2.4652
X3.685Y-2.335
X3.685Y-2.3551
X3.685Y-2.425
X3.685Y-2.4451
X3.685Y-2.5053
X3.685Y-2.4852
X3.6879Y-1.7247
X3.695Y-2.745
X3.695Y-2.79
X3.695Y-2.93
X3.695Y-3.145
X3.695Y-3.185
X3.695Y-3.225
X3.6951Y-2.8101
X3.6958Y-3.0443
X3.6961Y-3.1218
X3.706Y-2.023
X3.707Y-1.979
X3.707Y-2.001
X3.7296Y-2.7896
X3.733Y-2.6
X3.735Y-3.205
X3.735Y-3.145
X3.735Y-4.285
X3.735Y-4.355
X3.735Y-3.1849
X3.7445Y-2.8235
X3.75Y-2.455
X3.7736Y-3.0796
X3.7743Y-3.0081
X3.7743Y-2.9294
X3.775Y-2.73
X3.7751Y-2.6931
X3.795Y-2.525
X3.795Y-2.544
X3.795Y-2.563
X3.805Y-1.8153
X3.805Y-2.63
X3.8176Y-3.2826
X3.82Y-2.89
X3.8294Y-2.6294
X3.8379Y-2.8801
X3.8514Y-2.994
X3.8674Y-3.0457
X3.868Y-3.095
X3.8715Y-2.994
X3.885Y-2.935
X3.89Y-3.0457
X3.89Y-3.095
X3.903Y-3.078
X3.9036Y-2.9236
X3.909Y-3.1079
X3.914Y-3.151
X3.9169Y-2.9407
X3.919Y-2.486
X3.919Y-2.505
X3.919Y-2.524
X3.94Y-2.305
X3.95Y-2.46
X3.95Y-4.29
X3.9552Y-2.7
X3.9624Y-2.9793
X3.9816Y-2.9852
X3.984Y-2.7
X3.984Y-2.719
X3.984Y-2.738
X3.99Y-2.39
X3.993Y-3.65
X4.038Y-3.134
X4.038Y-3.154
X4.038Y-3.174
X4.047Y-2.996
X4.06Y-3.905
X4.069Y-2.996
X4.1062Y-2.101
X4.1258Y-2.101
X4.1273Y-3.645
X4.14Y-4.285
X4.14Y-4.35
X4.145Y-2.139
X4.145Y-2.161
X4.145Y-2.182
X4.165Y-2.101
X4.168Y-1.854
X4.17Y-2.645
X4.17Y-2.99
X4.17Y-3.53
X4.184Y-1.659
X4.185Y-2.101
X4.185Y-3.195
X4.185Y-3.505
X4.2Y-2.673
X4.2Y-2.99
X4.2Y-3.53
X4.204Y-2.139
X4.204Y-2.161
X4.204Y-2.182
X4.205Y-2.645
X4.215Y-3.195
X4.218Y-3.505
X4.2242Y-2.101
X4.231Y-2.673
X4.235Y-2.645
X4.235Y-2.99
X4.235Y-3.53
X4.24Y-3.805
X4.2438Y-2.101
X4.244Y-1.659
X4.2484Y-1.78
X4.249Y-3.195
X4.25Y-3.505
X4.264Y-1.846
X4.264Y-2.139
X4.264Y-2.161
X4.264Y-2.182
X4.264Y-2.455
X4.264Y-2.474
X4.264Y-2.493
X4.265Y-2.645
X4.265Y-2.673
X4.265Y-2.99
X4.265Y-3.53
X4.28Y-1.78
X4.28Y-3.195
X4.28Y-3.505
X4.2843Y-2.101
X4.295Y-2.645
X4.295Y-3.53
X4.296Y-1.766
X4.296Y-2.99
X4.304Y-1.659
X4.304Y-2.101
X4.3075Y-2.7175
X4.3076Y-2.7376
X4.31Y-3.195
X4.312Y-1.78
X4.325Y-2.99
X4.325Y-3.089
X4.327Y-1.766
X4.335Y-4.29
X4.34Y-2.645
X4.341Y-3.195
X4.355Y-2.969
X4.355Y-2.99
X4.355Y-3.47
X4.355Y-3.53
X4.364Y-1.729
X4.372Y-2.645
X4.373Y-3.195
X4.3806Y-1.8324
X4.381Y-1.878
X4.39Y-1.854
X4.4022Y-2.9178
X4.405Y-2.837
X4.4164Y-2.932
X4.42Y-2.99
X4.42Y-3.195
X4.42Y-3.58
X4.428Y-2.837
X4.4306Y-2.9462
X4.434Y-1.814
X4.44Y-2.65
X4.45Y-2.59
X4.45Y-3.195
X4.45Y-3.53
X4.455Y-2.99
X4.46Y-2.81
X4.46Y-2.8301
X4.465Y-3.44
X4.48Y-2.92
X4.499Y-2.649
X4.499Y-3.468
X4.499Y-3.489
X4.52Y-4.285
X4.52Y-4.35
X4.523Y-2.758
X4.528Y-3.424
X4.529Y-3.402
X4.539Y-2.743
X4.545Y-2.25
X4.545Y-3.53
X4.55Y-2.645
X4.565Y-3.195
X4.57Y-2.885
X4.57Y-2.9051
X4.57Y-2.9252
X4.5715Y-2.9487
X4.58Y-2.645
X4.58Y-2.99
X4.58Y-3.635
X4.595Y-3.195
X4.61Y-2.645
X4.61Y-2.787
X4.61Y-2.99
X4.61Y-3.53
X4.6119Y-2.6929
X4.625Y-3.195
X4.625Y-3.505
X4.6311Y-3.822
X4.6311Y-3.841
X4.6311Y-3.86
X4.64Y-2.09
X4.64Y-2.645
X4.64Y-2.674
X4.64Y-2.99
X4.64Y-3.53
X4.654Y-3.505
X4.655Y-3.195
X4.67Y-2.99
X4.67Y-3.53
X4.671Y-2.787
X4.675Y-2.645
X4.685Y-2.885
X4.685Y-3.505
X4.686Y-3.195
X4.695Y-2.12
X4.7Y-2.787
X4.7Y-2.99
X4.7Y-3.53
X4.705Y-2.645
X4.715Y-3.195
X4.765Y-2.185
X4.766Y-3.458
X4.766Y-3.477
X4.766Y-3.496
X4.767Y-2.749
X4.767Y-2.768
X4.767Y-2.787
T2
X2.5108Y-2.425
X2.5108Y-2.4752
X2.5108Y-2.5254
X2.561Y-2.425
X2.561Y-2.4752
X2.561Y-2.5254
X2.6112Y-2.425
X2.6112Y-2.4752
X2.6112Y-2.5254
T3
X2.1576Y-1.7864
X2.1576Y-4.215
X2.1836Y-1.7238
X2.1836Y-1.8491
X2.1836Y-4.1524
X2.1836Y-4.2776
X2.2462Y-1.6978
X2.2462Y-1.875
X2.2462Y-4.1264
X2.2462Y-4.3036
X2.3089Y-1.7238
X2.3089Y-1.8491
X2.3089Y-4.1524
X2.3089Y-4.2776
X2.3348Y-1.7864
X2.3348Y-4.215
X4.5926Y-1.7774
X4.5926Y-4.215
X4.6186Y-1.7147
X4.6186Y-1.84
X4.6186Y-4.1524
X4.6186Y-4.2776
X4.6812Y-1.6888
X4.6812Y-1.8659
X4.6812Y-4.1264
X4.6812Y-4.3036
X4.7439Y-1.7147
X4.7439Y-1.84
X4.7439Y-4.1524
X4.7439Y-4.2776
X4.7698Y-1.7774
X4.7698Y-4.215
T5
X3.815Y-3.803
X3.815Y-3.853
X3.815Y-3.903
X3.815Y-3.953
X3.815Y-4.003
X3.865Y-3.803
X3.865Y-3.853
X3.865Y-3.903
X3.865Y-3.953
X3.865Y-4.003
X3.945Y-3.084
X3.945Y-3.134
X3.945Y-3.184
X3.995Y-3.084
X3.995Y-3.134
X3.995Y-3.184
T7
X2.9484Y-2.0827
X2.9484Y-2.1859
X3.0469Y-2.0827
X3.0469Y-2.1859
X3.1256Y-2.0827
X3.1256Y-2.1859
X3.224Y-2.0827
X3.224Y-2.1859
X3.5284Y-2.0827
X3.5284Y-2.1859
X3.6269Y-2.0827
X3.6269Y-2.1859
X3.7056Y-2.0827
X3.7056Y-2.1859
X3.804Y-2.0827
X3.804Y-2.1859
T8
X3.8636Y-4.2619
X4.0408Y-4.2619
X4.2436Y-4.26
X4.4208Y-4.26
T9
X3.814Y-4.1639
X4.09Y-4.1639
X4.194Y-4.162
X4.47Y-4.162
T10
X2.2462Y-1.7864
X2.2462Y-4.215
X4.6812Y-1.7774
X4.6812Y-4.215
T3
G00X4.411Y-3.7636
M15
G01X4.3677Y-3.7636
M16
G05
G00X4.4161Y-2.2186
M15
G01X4.3728Y-2.2186
M16
G05
G00X4.4543Y-3.9564
M15
G01X4.411Y-3.9564
M16
G05
G00X4.4594Y-2.4114
M15
G01X4.4161Y-2.4114
M16
G05
G00X4.6118Y-3.9564
M15
G01X4.5685Y-3.9564
M16
G05
G00X4.6169Y-2.4114
M15
G01X4.5736Y-2.4114
M16
G05
G00X4.7299Y-3.9564
M15
G01X4.6866Y-3.9564
M16
G05
G00X4.735Y-2.4114
M15
G01X4.6917Y-2.4114
M16
G05
T4
G00X2.3811Y-1.7003
M15
G01X2.3811Y-1.6767
M16
G05
G00X2.3811Y-1.8747
M15
G01X2.3811Y-1.8314
M16
G05
G00X2.7213Y-1.7003
M15
G01X2.7213Y-1.6767
M16
G05
G00X2.7213Y-1.8747
M15
G01X2.7213Y-1.8314
M16
G05
T6
G00X3.9883Y-1.7712
M15
G01X3.9883Y-1.7397
M16
G05
G00X3.9883Y-2.0255
M15
G01X3.9883Y-1.9546
M16
G05
G00X4.5592Y-1.7712
M15
G01X4.5592Y-1.7397
M16
G05
G00X4.5592Y-2.0255
M15
G01X4.5592Y-1.9546
M16
G05
T9
G00X2.839Y-1.9957
M15
G01X2.839Y-1.9563
M16
G05
G00X2.839Y-2.2193
M15
G01X2.839Y-2.18
M16
G05
G00X3.334Y-1.9957
M15
G01X3.334Y-1.9563
M16
G05
G00X3.334Y-2.2193
M15
G01X3.334Y-2.18
M16
G05
G00X3.419Y-1.9957
M15
G01X3.419Y-1.9563
M16
G05
G00X3.419Y-2.2193
M15
G01X3.419Y-2.18
M16
G05
G00X3.914Y-1.9957
M15
G01X3.914Y-1.9563
M16
G05
G00X3.914Y-2.2193
M15
G01X3.914Y-2.18
M16
G05
M30
