%TF.GenerationSoftware,KiCad,Pcbnew,7.0.10-7.0.10~ubuntu22.04.1*%
%TF.CreationDate,2024-02-20T15:26:36+02:00*%
%TF.ProjectId,karabas-mini,6b617261-6261-4732-9d6d-696e692e6b69,rev?*%
%TF.SameCoordinates,Original*%
%TF.FileFunction,Legend,Top*%
%TF.FilePolarity,Positive*%
%FSLAX46Y46*%
G04 Gerber Fmt 4.6, Leading zero omitted, Abs format (unit mm)*
G04 Created by KiCad (PCBNEW 7.0.10-7.0.10~ubuntu22.04.1) date 2024-02-20 15:26:36*
%MOMM*%
%LPD*%
G01*
G04 APERTURE LIST*
%ADD10C,0.120000*%
%ADD11C,0.150000*%
%ADD12C,0.100000*%
%ADD13C,0.127000*%
%ADD14C,0.200000*%
%ADD15C,0.254000*%
G04 APERTURE END LIST*
D10*
X85512000Y-91781000D02*
X85512000Y-91567000D01*
X85512000Y-91567000D02*
X86868000Y-91567000D01*
D11*
X54079780Y-88893807D02*
X54555971Y-88560474D01*
X54079780Y-88322379D02*
X55079780Y-88322379D01*
X55079780Y-88322379D02*
X55079780Y-88703331D01*
X55079780Y-88703331D02*
X55032161Y-88798569D01*
X55032161Y-88798569D02*
X54984542Y-88846188D01*
X54984542Y-88846188D02*
X54889304Y-88893807D01*
X54889304Y-88893807D02*
X54746447Y-88893807D01*
X54746447Y-88893807D02*
X54651209Y-88846188D01*
X54651209Y-88846188D02*
X54603590Y-88798569D01*
X54603590Y-88798569D02*
X54555971Y-88703331D01*
X54555971Y-88703331D02*
X54555971Y-88322379D01*
X54127400Y-89703331D02*
X54079780Y-89608093D01*
X54079780Y-89608093D02*
X54079780Y-89417617D01*
X54079780Y-89417617D02*
X54127400Y-89322379D01*
X54127400Y-89322379D02*
X54222638Y-89274760D01*
X54222638Y-89274760D02*
X54603590Y-89274760D01*
X54603590Y-89274760D02*
X54698828Y-89322379D01*
X54698828Y-89322379D02*
X54746447Y-89417617D01*
X54746447Y-89417617D02*
X54746447Y-89608093D01*
X54746447Y-89608093D02*
X54698828Y-89703331D01*
X54698828Y-89703331D02*
X54603590Y-89750950D01*
X54603590Y-89750950D02*
X54508352Y-89750950D01*
X54508352Y-89750950D02*
X54413114Y-89274760D01*
X54746447Y-90084284D02*
X54079780Y-90322379D01*
X54079780Y-90322379D02*
X54746447Y-90560474D01*
X54175019Y-90941427D02*
X54127400Y-90989046D01*
X54127400Y-90989046D02*
X54079780Y-90941427D01*
X54079780Y-90941427D02*
X54127400Y-90893808D01*
X54127400Y-90893808D02*
X54175019Y-90941427D01*
X54175019Y-90941427D02*
X54079780Y-90941427D01*
X54365495Y-91369998D02*
X54365495Y-91846188D01*
X54079780Y-91274760D02*
X55079780Y-91608093D01*
X55079780Y-91608093D02*
X54079780Y-91941426D01*
X54232180Y-95104179D02*
X54898847Y-95104179D01*
X54803609Y-95104179D02*
X54851228Y-95151798D01*
X54851228Y-95151798D02*
X54898847Y-95247036D01*
X54898847Y-95247036D02*
X54898847Y-95389893D01*
X54898847Y-95389893D02*
X54851228Y-95485131D01*
X54851228Y-95485131D02*
X54755990Y-95532750D01*
X54755990Y-95532750D02*
X54232180Y-95532750D01*
X54755990Y-95532750D02*
X54851228Y-95580369D01*
X54851228Y-95580369D02*
X54898847Y-95675607D01*
X54898847Y-95675607D02*
X54898847Y-95818464D01*
X54898847Y-95818464D02*
X54851228Y-95913703D01*
X54851228Y-95913703D02*
X54755990Y-95961322D01*
X54755990Y-95961322D02*
X54232180Y-95961322D01*
X54232180Y-96437512D02*
X54898847Y-96437512D01*
X55232180Y-96437512D02*
X55184561Y-96389893D01*
X55184561Y-96389893D02*
X55136942Y-96437512D01*
X55136942Y-96437512D02*
X55184561Y-96485131D01*
X55184561Y-96485131D02*
X55232180Y-96437512D01*
X55232180Y-96437512D02*
X55136942Y-96437512D01*
X54898847Y-96913702D02*
X54232180Y-96913702D01*
X54803609Y-96913702D02*
X54851228Y-96961321D01*
X54851228Y-96961321D02*
X54898847Y-97056559D01*
X54898847Y-97056559D02*
X54898847Y-97199416D01*
X54898847Y-97199416D02*
X54851228Y-97294654D01*
X54851228Y-97294654D02*
X54755990Y-97342273D01*
X54755990Y-97342273D02*
X54232180Y-97342273D01*
X54232180Y-97818464D02*
X54898847Y-97818464D01*
X55232180Y-97818464D02*
X55184561Y-97770845D01*
X55184561Y-97770845D02*
X55136942Y-97818464D01*
X55136942Y-97818464D02*
X55184561Y-97866083D01*
X55184561Y-97866083D02*
X55232180Y-97818464D01*
X55232180Y-97818464D02*
X55136942Y-97818464D01*
X54184705Y-82766819D02*
X54184705Y-83576342D01*
X54184705Y-83576342D02*
X54232324Y-83671580D01*
X54232324Y-83671580D02*
X54279943Y-83719200D01*
X54279943Y-83719200D02*
X54375181Y-83766819D01*
X54375181Y-83766819D02*
X54565657Y-83766819D01*
X54565657Y-83766819D02*
X54660895Y-83719200D01*
X54660895Y-83719200D02*
X54708514Y-83671580D01*
X54708514Y-83671580D02*
X54756133Y-83576342D01*
X54756133Y-83576342D02*
X54756133Y-82766819D01*
X55756133Y-83766819D02*
X55184705Y-83766819D01*
X55470419Y-83766819D02*
X55470419Y-82766819D01*
X55470419Y-82766819D02*
X55375181Y-82909676D01*
X55375181Y-82909676D02*
X55279943Y-83004914D01*
X55279943Y-83004914D02*
X55184705Y-83052533D01*
X56708514Y-83766819D02*
X56137086Y-83766819D01*
X56422800Y-83766819D02*
X56422800Y-82766819D01*
X56422800Y-82766819D02*
X56327562Y-82909676D01*
X56327562Y-82909676D02*
X56232324Y-83004914D01*
X56232324Y-83004914D02*
X56137086Y-83052533D01*
D12*
X72835999Y-97716371D02*
X72835999Y-98144942D01*
X72835999Y-98144942D02*
X72807428Y-98230657D01*
X72807428Y-98230657D02*
X72750285Y-98287800D01*
X72750285Y-98287800D02*
X72664571Y-98316371D01*
X72664571Y-98316371D02*
X72607428Y-98316371D01*
X73378857Y-97916371D02*
X73378857Y-98316371D01*
X73235999Y-97687800D02*
X73093142Y-98116371D01*
X73093142Y-98116371D02*
X73464571Y-98116371D01*
D11*
X93649895Y-64783619D02*
X93649895Y-65593142D01*
X93649895Y-65593142D02*
X93697514Y-65688380D01*
X93697514Y-65688380D02*
X93745133Y-65736000D01*
X93745133Y-65736000D02*
X93840371Y-65783619D01*
X93840371Y-65783619D02*
X94030847Y-65783619D01*
X94030847Y-65783619D02*
X94126085Y-65736000D01*
X94126085Y-65736000D02*
X94173704Y-65688380D01*
X94173704Y-65688380D02*
X94221323Y-65593142D01*
X94221323Y-65593142D02*
X94221323Y-64783619D01*
X94602276Y-64783619D02*
X95268942Y-64783619D01*
X95268942Y-64783619D02*
X94840371Y-65783619D01*
X82668905Y-92170819D02*
X82668905Y-92980342D01*
X82668905Y-92980342D02*
X82716524Y-93075580D01*
X82716524Y-93075580D02*
X82764143Y-93123200D01*
X82764143Y-93123200D02*
X82859381Y-93170819D01*
X82859381Y-93170819D02*
X83049857Y-93170819D01*
X83049857Y-93170819D02*
X83145095Y-93123200D01*
X83145095Y-93123200D02*
X83192714Y-93075580D01*
X83192714Y-93075580D02*
X83240333Y-92980342D01*
X83240333Y-92980342D02*
X83240333Y-92170819D01*
X84240333Y-93170819D02*
X83668905Y-93170819D01*
X83954619Y-93170819D02*
X83954619Y-92170819D01*
X83954619Y-92170819D02*
X83859381Y-92313676D01*
X83859381Y-92313676D02*
X83764143Y-92408914D01*
X83764143Y-92408914D02*
X83668905Y-92456533D01*
X85097476Y-92170819D02*
X84907000Y-92170819D01*
X84907000Y-92170819D02*
X84811762Y-92218438D01*
X84811762Y-92218438D02*
X84764143Y-92266057D01*
X84764143Y-92266057D02*
X84668905Y-92408914D01*
X84668905Y-92408914D02*
X84621286Y-92599390D01*
X84621286Y-92599390D02*
X84621286Y-92980342D01*
X84621286Y-92980342D02*
X84668905Y-93075580D01*
X84668905Y-93075580D02*
X84716524Y-93123200D01*
X84716524Y-93123200D02*
X84811762Y-93170819D01*
X84811762Y-93170819D02*
X85002238Y-93170819D01*
X85002238Y-93170819D02*
X85097476Y-93123200D01*
X85097476Y-93123200D02*
X85145095Y-93075580D01*
X85145095Y-93075580D02*
X85192714Y-92980342D01*
X85192714Y-92980342D02*
X85192714Y-92742247D01*
X85192714Y-92742247D02*
X85145095Y-92647009D01*
X85145095Y-92647009D02*
X85097476Y-92599390D01*
X85097476Y-92599390D02*
X85002238Y-92551771D01*
X85002238Y-92551771D02*
X84811762Y-92551771D01*
X84811762Y-92551771D02*
X84716524Y-92599390D01*
X84716524Y-92599390D02*
X84668905Y-92647009D01*
X84668905Y-92647009D02*
X84621286Y-92742247D01*
X108795104Y-105127419D02*
X108461771Y-104651228D01*
X108223676Y-105127419D02*
X108223676Y-104127419D01*
X108223676Y-104127419D02*
X108604628Y-104127419D01*
X108604628Y-104127419D02*
X108699866Y-104175038D01*
X108699866Y-104175038D02*
X108747485Y-104222657D01*
X108747485Y-104222657D02*
X108795104Y-104317895D01*
X108795104Y-104317895D02*
X108795104Y-104460752D01*
X108795104Y-104460752D02*
X108747485Y-104555990D01*
X108747485Y-104555990D02*
X108699866Y-104603609D01*
X108699866Y-104603609D02*
X108604628Y-104651228D01*
X108604628Y-104651228D02*
X108223676Y-104651228D01*
X109604628Y-105079800D02*
X109509390Y-105127419D01*
X109509390Y-105127419D02*
X109318914Y-105127419D01*
X109318914Y-105127419D02*
X109223676Y-105079800D01*
X109223676Y-105079800D02*
X109176057Y-104984561D01*
X109176057Y-104984561D02*
X109176057Y-104603609D01*
X109176057Y-104603609D02*
X109223676Y-104508371D01*
X109223676Y-104508371D02*
X109318914Y-104460752D01*
X109318914Y-104460752D02*
X109509390Y-104460752D01*
X109509390Y-104460752D02*
X109604628Y-104508371D01*
X109604628Y-104508371D02*
X109652247Y-104603609D01*
X109652247Y-104603609D02*
X109652247Y-104698847D01*
X109652247Y-104698847D02*
X109176057Y-104794085D01*
X110033200Y-105079800D02*
X110128438Y-105127419D01*
X110128438Y-105127419D02*
X110318914Y-105127419D01*
X110318914Y-105127419D02*
X110414152Y-105079800D01*
X110414152Y-105079800D02*
X110461771Y-104984561D01*
X110461771Y-104984561D02*
X110461771Y-104936942D01*
X110461771Y-104936942D02*
X110414152Y-104841704D01*
X110414152Y-104841704D02*
X110318914Y-104794085D01*
X110318914Y-104794085D02*
X110176057Y-104794085D01*
X110176057Y-104794085D02*
X110080819Y-104746466D01*
X110080819Y-104746466D02*
X110033200Y-104651228D01*
X110033200Y-104651228D02*
X110033200Y-104603609D01*
X110033200Y-104603609D02*
X110080819Y-104508371D01*
X110080819Y-104508371D02*
X110176057Y-104460752D01*
X110176057Y-104460752D02*
X110318914Y-104460752D01*
X110318914Y-104460752D02*
X110414152Y-104508371D01*
X111271295Y-105079800D02*
X111176057Y-105127419D01*
X111176057Y-105127419D02*
X110985581Y-105127419D01*
X110985581Y-105127419D02*
X110890343Y-105079800D01*
X110890343Y-105079800D02*
X110842724Y-104984561D01*
X110842724Y-104984561D02*
X110842724Y-104603609D01*
X110842724Y-104603609D02*
X110890343Y-104508371D01*
X110890343Y-104508371D02*
X110985581Y-104460752D01*
X110985581Y-104460752D02*
X111176057Y-104460752D01*
X111176057Y-104460752D02*
X111271295Y-104508371D01*
X111271295Y-104508371D02*
X111318914Y-104603609D01*
X111318914Y-104603609D02*
X111318914Y-104698847D01*
X111318914Y-104698847D02*
X110842724Y-104794085D01*
X111604629Y-104460752D02*
X111985581Y-104460752D01*
X111747486Y-104127419D02*
X111747486Y-104984561D01*
X111747486Y-104984561D02*
X111795105Y-105079800D01*
X111795105Y-105079800D02*
X111890343Y-105127419D01*
X111890343Y-105127419D02*
X111985581Y-105127419D01*
X101974819Y-72262904D02*
X102784342Y-72262904D01*
X102784342Y-72262904D02*
X102879580Y-72215285D01*
X102879580Y-72215285D02*
X102927200Y-72167666D01*
X102927200Y-72167666D02*
X102974819Y-72072428D01*
X102974819Y-72072428D02*
X102974819Y-71881952D01*
X102974819Y-71881952D02*
X102927200Y-71786714D01*
X102927200Y-71786714D02*
X102879580Y-71739095D01*
X102879580Y-71739095D02*
X102784342Y-71691476D01*
X102784342Y-71691476D02*
X101974819Y-71691476D01*
X102974819Y-71167666D02*
X102974819Y-70977190D01*
X102974819Y-70977190D02*
X102927200Y-70881952D01*
X102927200Y-70881952D02*
X102879580Y-70834333D01*
X102879580Y-70834333D02*
X102736723Y-70739095D01*
X102736723Y-70739095D02*
X102546247Y-70691476D01*
X102546247Y-70691476D02*
X102165295Y-70691476D01*
X102165295Y-70691476D02*
X102070057Y-70739095D01*
X102070057Y-70739095D02*
X102022438Y-70786714D01*
X102022438Y-70786714D02*
X101974819Y-70881952D01*
X101974819Y-70881952D02*
X101974819Y-71072428D01*
X101974819Y-71072428D02*
X102022438Y-71167666D01*
X102022438Y-71167666D02*
X102070057Y-71215285D01*
X102070057Y-71215285D02*
X102165295Y-71262904D01*
X102165295Y-71262904D02*
X102403390Y-71262904D01*
X102403390Y-71262904D02*
X102498628Y-71215285D01*
X102498628Y-71215285D02*
X102546247Y-71167666D01*
X102546247Y-71167666D02*
X102593866Y-71072428D01*
X102593866Y-71072428D02*
X102593866Y-70881952D01*
X102593866Y-70881952D02*
X102546247Y-70786714D01*
X102546247Y-70786714D02*
X102498628Y-70739095D01*
X102498628Y-70739095D02*
X102403390Y-70691476D01*
X64233466Y-43777819D02*
X64233466Y-44492104D01*
X64233466Y-44492104D02*
X64185847Y-44634961D01*
X64185847Y-44634961D02*
X64090609Y-44730200D01*
X64090609Y-44730200D02*
X63947752Y-44777819D01*
X63947752Y-44777819D02*
X63852514Y-44777819D01*
X64614419Y-43777819D02*
X65281085Y-43777819D01*
X65281085Y-43777819D02*
X64852514Y-44777819D01*
D12*
X90467999Y-97716371D02*
X90467999Y-98144942D01*
X90467999Y-98144942D02*
X90439428Y-98230657D01*
X90439428Y-98230657D02*
X90382285Y-98287800D01*
X90382285Y-98287800D02*
X90296571Y-98316371D01*
X90296571Y-98316371D02*
X90239428Y-98316371D01*
X91039428Y-97716371D02*
X90753714Y-97716371D01*
X90753714Y-97716371D02*
X90725142Y-98002085D01*
X90725142Y-98002085D02*
X90753714Y-97973514D01*
X90753714Y-97973514D02*
X90810857Y-97944942D01*
X90810857Y-97944942D02*
X90953714Y-97944942D01*
X90953714Y-97944942D02*
X91010857Y-97973514D01*
X91010857Y-97973514D02*
X91039428Y-98002085D01*
X91039428Y-98002085D02*
X91067999Y-98059228D01*
X91067999Y-98059228D02*
X91067999Y-98202085D01*
X91067999Y-98202085D02*
X91039428Y-98259228D01*
X91039428Y-98259228D02*
X91010857Y-98287800D01*
X91010857Y-98287800D02*
X90953714Y-98316371D01*
X90953714Y-98316371D02*
X90810857Y-98316371D01*
X90810857Y-98316371D02*
X90753714Y-98287800D01*
X90753714Y-98287800D02*
X90725142Y-98259228D01*
D11*
X57234180Y-58070904D02*
X57710371Y-57737571D01*
X57234180Y-57499476D02*
X58234180Y-57499476D01*
X58234180Y-57499476D02*
X58234180Y-57880428D01*
X58234180Y-57880428D02*
X58186561Y-57975666D01*
X58186561Y-57975666D02*
X58138942Y-58023285D01*
X58138942Y-58023285D02*
X58043704Y-58070904D01*
X58043704Y-58070904D02*
X57900847Y-58070904D01*
X57900847Y-58070904D02*
X57805609Y-58023285D01*
X57805609Y-58023285D02*
X57757990Y-57975666D01*
X57757990Y-57975666D02*
X57710371Y-57880428D01*
X57710371Y-57880428D02*
X57710371Y-57499476D01*
X57281800Y-58880428D02*
X57234180Y-58785190D01*
X57234180Y-58785190D02*
X57234180Y-58594714D01*
X57234180Y-58594714D02*
X57281800Y-58499476D01*
X57281800Y-58499476D02*
X57377038Y-58451857D01*
X57377038Y-58451857D02*
X57757990Y-58451857D01*
X57757990Y-58451857D02*
X57853228Y-58499476D01*
X57853228Y-58499476D02*
X57900847Y-58594714D01*
X57900847Y-58594714D02*
X57900847Y-58785190D01*
X57900847Y-58785190D02*
X57853228Y-58880428D01*
X57853228Y-58880428D02*
X57757990Y-58928047D01*
X57757990Y-58928047D02*
X57662752Y-58928047D01*
X57662752Y-58928047D02*
X57567514Y-58451857D01*
X57281800Y-59309000D02*
X57234180Y-59404238D01*
X57234180Y-59404238D02*
X57234180Y-59594714D01*
X57234180Y-59594714D02*
X57281800Y-59689952D01*
X57281800Y-59689952D02*
X57377038Y-59737571D01*
X57377038Y-59737571D02*
X57424657Y-59737571D01*
X57424657Y-59737571D02*
X57519895Y-59689952D01*
X57519895Y-59689952D02*
X57567514Y-59594714D01*
X57567514Y-59594714D02*
X57567514Y-59451857D01*
X57567514Y-59451857D02*
X57615133Y-59356619D01*
X57615133Y-59356619D02*
X57710371Y-59309000D01*
X57710371Y-59309000D02*
X57757990Y-59309000D01*
X57757990Y-59309000D02*
X57853228Y-59356619D01*
X57853228Y-59356619D02*
X57900847Y-59451857D01*
X57900847Y-59451857D02*
X57900847Y-59594714D01*
X57900847Y-59594714D02*
X57853228Y-59689952D01*
X57281800Y-60547095D02*
X57234180Y-60451857D01*
X57234180Y-60451857D02*
X57234180Y-60261381D01*
X57234180Y-60261381D02*
X57281800Y-60166143D01*
X57281800Y-60166143D02*
X57377038Y-60118524D01*
X57377038Y-60118524D02*
X57757990Y-60118524D01*
X57757990Y-60118524D02*
X57853228Y-60166143D01*
X57853228Y-60166143D02*
X57900847Y-60261381D01*
X57900847Y-60261381D02*
X57900847Y-60451857D01*
X57900847Y-60451857D02*
X57853228Y-60547095D01*
X57853228Y-60547095D02*
X57757990Y-60594714D01*
X57757990Y-60594714D02*
X57662752Y-60594714D01*
X57662752Y-60594714D02*
X57567514Y-60118524D01*
X57900847Y-60880429D02*
X57900847Y-61261381D01*
X58234180Y-61023286D02*
X57377038Y-61023286D01*
X57377038Y-61023286D02*
X57281800Y-61070905D01*
X57281800Y-61070905D02*
X57234180Y-61166143D01*
X57234180Y-61166143D02*
X57234180Y-61261381D01*
X66962905Y-83739819D02*
X66962905Y-84549342D01*
X66962905Y-84549342D02*
X67010524Y-84644580D01*
X67010524Y-84644580D02*
X67058143Y-84692200D01*
X67058143Y-84692200D02*
X67153381Y-84739819D01*
X67153381Y-84739819D02*
X67343857Y-84739819D01*
X67343857Y-84739819D02*
X67439095Y-84692200D01*
X67439095Y-84692200D02*
X67486714Y-84644580D01*
X67486714Y-84644580D02*
X67534333Y-84549342D01*
X67534333Y-84549342D02*
X67534333Y-83739819D01*
X68534333Y-84739819D02*
X67962905Y-84739819D01*
X68248619Y-84739819D02*
X68248619Y-83739819D01*
X68248619Y-83739819D02*
X68153381Y-83882676D01*
X68153381Y-83882676D02*
X68058143Y-83977914D01*
X68058143Y-83977914D02*
X67962905Y-84025533D01*
X69439095Y-83739819D02*
X68962905Y-83739819D01*
X68962905Y-83739819D02*
X68915286Y-84216009D01*
X68915286Y-84216009D02*
X68962905Y-84168390D01*
X68962905Y-84168390D02*
X69058143Y-84120771D01*
X69058143Y-84120771D02*
X69296238Y-84120771D01*
X69296238Y-84120771D02*
X69391476Y-84168390D01*
X69391476Y-84168390D02*
X69439095Y-84216009D01*
X69439095Y-84216009D02*
X69486714Y-84311247D01*
X69486714Y-84311247D02*
X69486714Y-84549342D01*
X69486714Y-84549342D02*
X69439095Y-84644580D01*
X69439095Y-84644580D02*
X69391476Y-84692200D01*
X69391476Y-84692200D02*
X69296238Y-84739819D01*
X69296238Y-84739819D02*
X69058143Y-84739819D01*
X69058143Y-84739819D02*
X68962905Y-84692200D01*
X68962905Y-84692200D02*
X68915286Y-84644580D01*
X81076895Y-65952019D02*
X81076895Y-66761542D01*
X81076895Y-66761542D02*
X81124514Y-66856780D01*
X81124514Y-66856780D02*
X81172133Y-66904400D01*
X81172133Y-66904400D02*
X81267371Y-66952019D01*
X81267371Y-66952019D02*
X81457847Y-66952019D01*
X81457847Y-66952019D02*
X81553085Y-66904400D01*
X81553085Y-66904400D02*
X81600704Y-66856780D01*
X81600704Y-66856780D02*
X81648323Y-66761542D01*
X81648323Y-66761542D02*
X81648323Y-65952019D01*
X82267371Y-66380590D02*
X82172133Y-66332971D01*
X82172133Y-66332971D02*
X82124514Y-66285352D01*
X82124514Y-66285352D02*
X82076895Y-66190114D01*
X82076895Y-66190114D02*
X82076895Y-66142495D01*
X82076895Y-66142495D02*
X82124514Y-66047257D01*
X82124514Y-66047257D02*
X82172133Y-65999638D01*
X82172133Y-65999638D02*
X82267371Y-65952019D01*
X82267371Y-65952019D02*
X82457847Y-65952019D01*
X82457847Y-65952019D02*
X82553085Y-65999638D01*
X82553085Y-65999638D02*
X82600704Y-66047257D01*
X82600704Y-66047257D02*
X82648323Y-66142495D01*
X82648323Y-66142495D02*
X82648323Y-66190114D01*
X82648323Y-66190114D02*
X82600704Y-66285352D01*
X82600704Y-66285352D02*
X82553085Y-66332971D01*
X82553085Y-66332971D02*
X82457847Y-66380590D01*
X82457847Y-66380590D02*
X82267371Y-66380590D01*
X82267371Y-66380590D02*
X82172133Y-66428209D01*
X82172133Y-66428209D02*
X82124514Y-66475828D01*
X82124514Y-66475828D02*
X82076895Y-66571066D01*
X82076895Y-66571066D02*
X82076895Y-66761542D01*
X82076895Y-66761542D02*
X82124514Y-66856780D01*
X82124514Y-66856780D02*
X82172133Y-66904400D01*
X82172133Y-66904400D02*
X82267371Y-66952019D01*
X82267371Y-66952019D02*
X82457847Y-66952019D01*
X82457847Y-66952019D02*
X82553085Y-66904400D01*
X82553085Y-66904400D02*
X82600704Y-66856780D01*
X82600704Y-66856780D02*
X82648323Y-66761542D01*
X82648323Y-66761542D02*
X82648323Y-66571066D01*
X82648323Y-66571066D02*
X82600704Y-66475828D01*
X82600704Y-66475828D02*
X82553085Y-66428209D01*
X82553085Y-66428209D02*
X82457847Y-66380590D01*
X92325866Y-50026219D02*
X92325866Y-50740504D01*
X92325866Y-50740504D02*
X92278247Y-50883361D01*
X92278247Y-50883361D02*
X92183009Y-50978600D01*
X92183009Y-50978600D02*
X92040152Y-51026219D01*
X92040152Y-51026219D02*
X91944914Y-51026219D01*
X93325866Y-51026219D02*
X92754438Y-51026219D01*
X93040152Y-51026219D02*
X93040152Y-50026219D01*
X93040152Y-50026219D02*
X92944914Y-50169076D01*
X92944914Y-50169076D02*
X92849676Y-50264314D01*
X92849676Y-50264314D02*
X92754438Y-50311933D01*
X78279666Y-50026219D02*
X78279666Y-50740504D01*
X78279666Y-50740504D02*
X78232047Y-50883361D01*
X78232047Y-50883361D02*
X78136809Y-50978600D01*
X78136809Y-50978600D02*
X77993952Y-51026219D01*
X77993952Y-51026219D02*
X77898714Y-51026219D01*
X78708238Y-50121457D02*
X78755857Y-50073838D01*
X78755857Y-50073838D02*
X78851095Y-50026219D01*
X78851095Y-50026219D02*
X79089190Y-50026219D01*
X79089190Y-50026219D02*
X79184428Y-50073838D01*
X79184428Y-50073838D02*
X79232047Y-50121457D01*
X79232047Y-50121457D02*
X79279666Y-50216695D01*
X79279666Y-50216695D02*
X79279666Y-50311933D01*
X79279666Y-50311933D02*
X79232047Y-50454790D01*
X79232047Y-50454790D02*
X78660619Y-51026219D01*
X78660619Y-51026219D02*
X79279666Y-51026219D01*
D10*
X119763114Y-58504333D02*
X119191686Y-58504333D01*
X119191686Y-58504333D02*
X119077400Y-58466238D01*
X119077400Y-58466238D02*
X119001210Y-58390047D01*
X119001210Y-58390047D02*
X118963114Y-58275762D01*
X118963114Y-58275762D02*
X118963114Y-58199571D01*
X119420257Y-58999571D02*
X119458352Y-58923381D01*
X119458352Y-58923381D02*
X119496448Y-58885286D01*
X119496448Y-58885286D02*
X119572638Y-58847190D01*
X119572638Y-58847190D02*
X119610733Y-58847190D01*
X119610733Y-58847190D02*
X119686924Y-58885286D01*
X119686924Y-58885286D02*
X119725019Y-58923381D01*
X119725019Y-58923381D02*
X119763114Y-58999571D01*
X119763114Y-58999571D02*
X119763114Y-59151952D01*
X119763114Y-59151952D02*
X119725019Y-59228143D01*
X119725019Y-59228143D02*
X119686924Y-59266238D01*
X119686924Y-59266238D02*
X119610733Y-59304333D01*
X119610733Y-59304333D02*
X119572638Y-59304333D01*
X119572638Y-59304333D02*
X119496448Y-59266238D01*
X119496448Y-59266238D02*
X119458352Y-59228143D01*
X119458352Y-59228143D02*
X119420257Y-59151952D01*
X119420257Y-59151952D02*
X119420257Y-58999571D01*
X119420257Y-58999571D02*
X119382162Y-58923381D01*
X119382162Y-58923381D02*
X119344067Y-58885286D01*
X119344067Y-58885286D02*
X119267876Y-58847190D01*
X119267876Y-58847190D02*
X119115495Y-58847190D01*
X119115495Y-58847190D02*
X119039305Y-58885286D01*
X119039305Y-58885286D02*
X119001210Y-58923381D01*
X119001210Y-58923381D02*
X118963114Y-58999571D01*
X118963114Y-58999571D02*
X118963114Y-59151952D01*
X118963114Y-59151952D02*
X119001210Y-59228143D01*
X119001210Y-59228143D02*
X119039305Y-59266238D01*
X119039305Y-59266238D02*
X119115495Y-59304333D01*
X119115495Y-59304333D02*
X119267876Y-59304333D01*
X119267876Y-59304333D02*
X119344067Y-59266238D01*
X119344067Y-59266238D02*
X119382162Y-59228143D01*
X119382162Y-59228143D02*
X119420257Y-59151952D01*
X119632304Y-97747333D02*
X119060876Y-97747333D01*
X119060876Y-97747333D02*
X118946590Y-97709238D01*
X118946590Y-97709238D02*
X118870400Y-97633047D01*
X118870400Y-97633047D02*
X118832304Y-97518762D01*
X118832304Y-97518762D02*
X118832304Y-97442571D01*
X119632304Y-98471143D02*
X119632304Y-98318762D01*
X119632304Y-98318762D02*
X119594209Y-98242571D01*
X119594209Y-98242571D02*
X119556114Y-98204476D01*
X119556114Y-98204476D02*
X119441828Y-98128286D01*
X119441828Y-98128286D02*
X119289447Y-98090190D01*
X119289447Y-98090190D02*
X118984685Y-98090190D01*
X118984685Y-98090190D02*
X118908495Y-98128286D01*
X118908495Y-98128286D02*
X118870400Y-98166381D01*
X118870400Y-98166381D02*
X118832304Y-98242571D01*
X118832304Y-98242571D02*
X118832304Y-98394952D01*
X118832304Y-98394952D02*
X118870400Y-98471143D01*
X118870400Y-98471143D02*
X118908495Y-98509238D01*
X118908495Y-98509238D02*
X118984685Y-98547333D01*
X118984685Y-98547333D02*
X119175161Y-98547333D01*
X119175161Y-98547333D02*
X119251352Y-98509238D01*
X119251352Y-98509238D02*
X119289447Y-98471143D01*
X119289447Y-98471143D02*
X119327542Y-98394952D01*
X119327542Y-98394952D02*
X119327542Y-98242571D01*
X119327542Y-98242571D02*
X119289447Y-98166381D01*
X119289447Y-98166381D02*
X119251352Y-98128286D01*
X119251352Y-98128286D02*
X119175161Y-98090190D01*
D11*
X98552638Y-105151519D02*
X98552638Y-104151519D01*
X98552638Y-104151519D02*
X98885971Y-104865804D01*
X98885971Y-104865804D02*
X99219304Y-104151519D01*
X99219304Y-104151519D02*
X99219304Y-105151519D01*
X100124066Y-105151519D02*
X100124066Y-104627709D01*
X100124066Y-104627709D02*
X100076447Y-104532471D01*
X100076447Y-104532471D02*
X99981209Y-104484852D01*
X99981209Y-104484852D02*
X99790733Y-104484852D01*
X99790733Y-104484852D02*
X99695495Y-104532471D01*
X100124066Y-105103900D02*
X100028828Y-105151519D01*
X100028828Y-105151519D02*
X99790733Y-105151519D01*
X99790733Y-105151519D02*
X99695495Y-105103900D01*
X99695495Y-105103900D02*
X99647876Y-105008661D01*
X99647876Y-105008661D02*
X99647876Y-104913423D01*
X99647876Y-104913423D02*
X99695495Y-104818185D01*
X99695495Y-104818185D02*
X99790733Y-104770566D01*
X99790733Y-104770566D02*
X100028828Y-104770566D01*
X100028828Y-104770566D02*
X100124066Y-104722947D01*
X101028828Y-104484852D02*
X101028828Y-105294376D01*
X101028828Y-105294376D02*
X100981209Y-105389614D01*
X100981209Y-105389614D02*
X100933590Y-105437233D01*
X100933590Y-105437233D02*
X100838352Y-105484852D01*
X100838352Y-105484852D02*
X100695495Y-105484852D01*
X100695495Y-105484852D02*
X100600257Y-105437233D01*
X101028828Y-105103900D02*
X100933590Y-105151519D01*
X100933590Y-105151519D02*
X100743114Y-105151519D01*
X100743114Y-105151519D02*
X100647876Y-105103900D01*
X100647876Y-105103900D02*
X100600257Y-105056280D01*
X100600257Y-105056280D02*
X100552638Y-104961042D01*
X100552638Y-104961042D02*
X100552638Y-104675328D01*
X100552638Y-104675328D02*
X100600257Y-104580090D01*
X100600257Y-104580090D02*
X100647876Y-104532471D01*
X100647876Y-104532471D02*
X100743114Y-104484852D01*
X100743114Y-104484852D02*
X100933590Y-104484852D01*
X100933590Y-104484852D02*
X101028828Y-104532471D01*
X101505019Y-105151519D02*
X101505019Y-104484852D01*
X101505019Y-104151519D02*
X101457400Y-104199138D01*
X101457400Y-104199138D02*
X101505019Y-104246757D01*
X101505019Y-104246757D02*
X101552638Y-104199138D01*
X101552638Y-104199138D02*
X101505019Y-104151519D01*
X101505019Y-104151519D02*
X101505019Y-104246757D01*
X102409780Y-105103900D02*
X102314542Y-105151519D01*
X102314542Y-105151519D02*
X102124066Y-105151519D01*
X102124066Y-105151519D02*
X102028828Y-105103900D01*
X102028828Y-105103900D02*
X101981209Y-105056280D01*
X101981209Y-105056280D02*
X101933590Y-104961042D01*
X101933590Y-104961042D02*
X101933590Y-104675328D01*
X101933590Y-104675328D02*
X101981209Y-104580090D01*
X101981209Y-104580090D02*
X102028828Y-104532471D01*
X102028828Y-104532471D02*
X102124066Y-104484852D01*
X102124066Y-104484852D02*
X102314542Y-104484852D01*
X102314542Y-104484852D02*
X102409780Y-104532471D01*
X101963819Y-86709094D02*
X102773342Y-86709094D01*
X102773342Y-86709094D02*
X102868580Y-86661475D01*
X102868580Y-86661475D02*
X102916200Y-86613856D01*
X102916200Y-86613856D02*
X102963819Y-86518618D01*
X102963819Y-86518618D02*
X102963819Y-86328142D01*
X102963819Y-86328142D02*
X102916200Y-86232904D01*
X102916200Y-86232904D02*
X102868580Y-86185285D01*
X102868580Y-86185285D02*
X102773342Y-86137666D01*
X102773342Y-86137666D02*
X101963819Y-86137666D01*
X102963819Y-85137666D02*
X102963819Y-85709094D01*
X102963819Y-85423380D02*
X101963819Y-85423380D01*
X101963819Y-85423380D02*
X102106676Y-85518618D01*
X102106676Y-85518618D02*
X102201914Y-85613856D01*
X102201914Y-85613856D02*
X102249533Y-85709094D01*
X101963819Y-84518618D02*
X101963819Y-84423380D01*
X101963819Y-84423380D02*
X102011438Y-84328142D01*
X102011438Y-84328142D02*
X102059057Y-84280523D01*
X102059057Y-84280523D02*
X102154295Y-84232904D01*
X102154295Y-84232904D02*
X102344771Y-84185285D01*
X102344771Y-84185285D02*
X102582866Y-84185285D01*
X102582866Y-84185285D02*
X102773342Y-84232904D01*
X102773342Y-84232904D02*
X102868580Y-84280523D01*
X102868580Y-84280523D02*
X102916200Y-84328142D01*
X102916200Y-84328142D02*
X102963819Y-84423380D01*
X102963819Y-84423380D02*
X102963819Y-84518618D01*
X102963819Y-84518618D02*
X102916200Y-84613856D01*
X102916200Y-84613856D02*
X102868580Y-84661475D01*
X102868580Y-84661475D02*
X102773342Y-84709094D01*
X102773342Y-84709094D02*
X102582866Y-84756713D01*
X102582866Y-84756713D02*
X102344771Y-84756713D01*
X102344771Y-84756713D02*
X102154295Y-84709094D01*
X102154295Y-84709094D02*
X102059057Y-84661475D01*
X102059057Y-84661475D02*
X102011438Y-84613856D01*
X102011438Y-84613856D02*
X101963819Y-84518618D01*
X57884990Y-51204952D02*
X57837371Y-51347809D01*
X57837371Y-51347809D02*
X57789752Y-51395428D01*
X57789752Y-51395428D02*
X57694514Y-51443047D01*
X57694514Y-51443047D02*
X57551657Y-51443047D01*
X57551657Y-51443047D02*
X57456419Y-51395428D01*
X57456419Y-51395428D02*
X57408800Y-51347809D01*
X57408800Y-51347809D02*
X57361180Y-51252571D01*
X57361180Y-51252571D02*
X57361180Y-50871619D01*
X57361180Y-50871619D02*
X58361180Y-50871619D01*
X58361180Y-50871619D02*
X58361180Y-51204952D01*
X58361180Y-51204952D02*
X58313561Y-51300190D01*
X58313561Y-51300190D02*
X58265942Y-51347809D01*
X58265942Y-51347809D02*
X58170704Y-51395428D01*
X58170704Y-51395428D02*
X58075466Y-51395428D01*
X58075466Y-51395428D02*
X57980228Y-51347809D01*
X57980228Y-51347809D02*
X57932609Y-51300190D01*
X57932609Y-51300190D02*
X57884990Y-51204952D01*
X57884990Y-51204952D02*
X57884990Y-50871619D01*
X57361180Y-52014476D02*
X57408800Y-51919238D01*
X57408800Y-51919238D02*
X57456419Y-51871619D01*
X57456419Y-51871619D02*
X57551657Y-51824000D01*
X57551657Y-51824000D02*
X57837371Y-51824000D01*
X57837371Y-51824000D02*
X57932609Y-51871619D01*
X57932609Y-51871619D02*
X57980228Y-51919238D01*
X57980228Y-51919238D02*
X58027847Y-52014476D01*
X58027847Y-52014476D02*
X58027847Y-52157333D01*
X58027847Y-52157333D02*
X57980228Y-52252571D01*
X57980228Y-52252571D02*
X57932609Y-52300190D01*
X57932609Y-52300190D02*
X57837371Y-52347809D01*
X57837371Y-52347809D02*
X57551657Y-52347809D01*
X57551657Y-52347809D02*
X57456419Y-52300190D01*
X57456419Y-52300190D02*
X57408800Y-52252571D01*
X57408800Y-52252571D02*
X57361180Y-52157333D01*
X57361180Y-52157333D02*
X57361180Y-52014476D01*
X57361180Y-52919238D02*
X57408800Y-52824000D01*
X57408800Y-52824000D02*
X57456419Y-52776381D01*
X57456419Y-52776381D02*
X57551657Y-52728762D01*
X57551657Y-52728762D02*
X57837371Y-52728762D01*
X57837371Y-52728762D02*
X57932609Y-52776381D01*
X57932609Y-52776381D02*
X57980228Y-52824000D01*
X57980228Y-52824000D02*
X58027847Y-52919238D01*
X58027847Y-52919238D02*
X58027847Y-53062095D01*
X58027847Y-53062095D02*
X57980228Y-53157333D01*
X57980228Y-53157333D02*
X57932609Y-53204952D01*
X57932609Y-53204952D02*
X57837371Y-53252571D01*
X57837371Y-53252571D02*
X57551657Y-53252571D01*
X57551657Y-53252571D02*
X57456419Y-53204952D01*
X57456419Y-53204952D02*
X57408800Y-53157333D01*
X57408800Y-53157333D02*
X57361180Y-53062095D01*
X57361180Y-53062095D02*
X57361180Y-52919238D01*
X58027847Y-53538286D02*
X58027847Y-53919238D01*
X58361180Y-53681143D02*
X57504038Y-53681143D01*
X57504038Y-53681143D02*
X57408800Y-53728762D01*
X57408800Y-53728762D02*
X57361180Y-53824000D01*
X57361180Y-53824000D02*
X57361180Y-53919238D01*
X100099905Y-77093419D02*
X100099905Y-76093419D01*
X100099905Y-76093419D02*
X100480857Y-76093419D01*
X100480857Y-76093419D02*
X100576095Y-76141038D01*
X100576095Y-76141038D02*
X100623714Y-76188657D01*
X100623714Y-76188657D02*
X100671333Y-76283895D01*
X100671333Y-76283895D02*
X100671333Y-76426752D01*
X100671333Y-76426752D02*
X100623714Y-76521990D01*
X100623714Y-76521990D02*
X100576095Y-76569609D01*
X100576095Y-76569609D02*
X100480857Y-76617228D01*
X100480857Y-76617228D02*
X100099905Y-76617228D01*
X101052286Y-76188657D02*
X101099905Y-76141038D01*
X101099905Y-76141038D02*
X101195143Y-76093419D01*
X101195143Y-76093419D02*
X101433238Y-76093419D01*
X101433238Y-76093419D02*
X101528476Y-76141038D01*
X101528476Y-76141038D02*
X101576095Y-76188657D01*
X101576095Y-76188657D02*
X101623714Y-76283895D01*
X101623714Y-76283895D02*
X101623714Y-76379133D01*
X101623714Y-76379133D02*
X101576095Y-76521990D01*
X101576095Y-76521990D02*
X101004667Y-77093419D01*
X101004667Y-77093419D02*
X101623714Y-77093419D01*
X64288095Y-57504819D02*
X64288095Y-58314342D01*
X64288095Y-58314342D02*
X64335714Y-58409580D01*
X64335714Y-58409580D02*
X64383333Y-58457200D01*
X64383333Y-58457200D02*
X64478571Y-58504819D01*
X64478571Y-58504819D02*
X64669047Y-58504819D01*
X64669047Y-58504819D02*
X64764285Y-58457200D01*
X64764285Y-58457200D02*
X64811904Y-58409580D01*
X64811904Y-58409580D02*
X64859523Y-58314342D01*
X64859523Y-58314342D02*
X64859523Y-57504819D01*
X65240476Y-57504819D02*
X65859523Y-57504819D01*
X65859523Y-57504819D02*
X65526190Y-57885771D01*
X65526190Y-57885771D02*
X65669047Y-57885771D01*
X65669047Y-57885771D02*
X65764285Y-57933390D01*
X65764285Y-57933390D02*
X65811904Y-57981009D01*
X65811904Y-57981009D02*
X65859523Y-58076247D01*
X65859523Y-58076247D02*
X65859523Y-58314342D01*
X65859523Y-58314342D02*
X65811904Y-58409580D01*
X65811904Y-58409580D02*
X65764285Y-58457200D01*
X65764285Y-58457200D02*
X65669047Y-58504819D01*
X65669047Y-58504819D02*
X65383333Y-58504819D01*
X65383333Y-58504819D02*
X65288095Y-58457200D01*
X65288095Y-58457200D02*
X65240476Y-58409580D01*
X96797905Y-95356019D02*
X96797905Y-94356019D01*
X96797905Y-94356019D02*
X97178857Y-94356019D01*
X97178857Y-94356019D02*
X97274095Y-94403638D01*
X97274095Y-94403638D02*
X97321714Y-94451257D01*
X97321714Y-94451257D02*
X97369333Y-94546495D01*
X97369333Y-94546495D02*
X97369333Y-94689352D01*
X97369333Y-94689352D02*
X97321714Y-94784590D01*
X97321714Y-94784590D02*
X97274095Y-94832209D01*
X97274095Y-94832209D02*
X97178857Y-94879828D01*
X97178857Y-94879828D02*
X96797905Y-94879828D01*
X98321714Y-95356019D02*
X97750286Y-95356019D01*
X98036000Y-95356019D02*
X98036000Y-94356019D01*
X98036000Y-94356019D02*
X97940762Y-94498876D01*
X97940762Y-94498876D02*
X97845524Y-94594114D01*
X97845524Y-94594114D02*
X97750286Y-94641733D01*
D10*
%TO.C,D2*%
X115361500Y-109346276D02*
X115361500Y-109855724D01*
X114316500Y-109346276D02*
X114316500Y-109855724D01*
%TO.C,R35*%
X67101500Y-51434276D02*
X67101500Y-51943724D01*
X66056500Y-51434276D02*
X66056500Y-51943724D01*
%TO.C,U11*%
X54027000Y-82227000D02*
X54027000Y-81027000D01*
X53627000Y-81027000D02*
X53627000Y-70427000D01*
X54027000Y-81027000D02*
X53627000Y-81027000D01*
X75827000Y-81027000D02*
X76227000Y-81027000D01*
X76227000Y-81027000D02*
X76227000Y-70427000D01*
X53627000Y-70427000D02*
X54027000Y-70427000D01*
X75827000Y-70427000D02*
X76227000Y-70427000D01*
%TO.C,C64*%
X77450733Y-92835000D02*
X77743267Y-92835000D01*
X77450733Y-93855000D02*
X77743267Y-93855000D01*
D11*
%TO.C,J4*%
X61386000Y-105388000D02*
X61386000Y-98188000D01*
X61386000Y-108188000D02*
X61386000Y-110488000D01*
X61386000Y-110488000D02*
X68736000Y-110488000D01*
X68736000Y-110488000D02*
X70086000Y-110538000D01*
X70086000Y-110538000D02*
X71236000Y-110688000D01*
X70786000Y-97788000D02*
X70786000Y-98088000D01*
X70786000Y-98088000D02*
X71086000Y-98088000D01*
X71086000Y-97788000D02*
X70786000Y-97788000D01*
X71086000Y-98088000D02*
X71086000Y-97788000D01*
X71236000Y-110688000D02*
X72336000Y-110888000D01*
X71536000Y-97188000D02*
X71536000Y-95888000D01*
X71536000Y-97188000D02*
X74536000Y-97188000D01*
X72336000Y-110888000D02*
X73386000Y-111188000D01*
X73386000Y-111188000D02*
X76086000Y-111188000D01*
X76086000Y-98188000D02*
X76086000Y-105388000D01*
X76086000Y-111188000D02*
X76086000Y-108188000D01*
D10*
%TO.C,U7*%
X80078144Y-67106078D02*
X80078144Y-67806078D01*
X80278144Y-67306078D02*
X80278144Y-84506078D01*
X80278144Y-84506078D02*
X97478144Y-84506078D01*
X80778144Y-67106078D02*
X80078144Y-67106078D01*
X97478144Y-67306078D02*
X80278144Y-67306078D01*
X97478144Y-84506078D02*
X97478144Y-67306078D01*
%TO.C,C42*%
X82061267Y-61724000D02*
X81768733Y-61724000D01*
X82061267Y-60704000D02*
X81768733Y-60704000D01*
%TO.C,R46*%
X73913276Y-91298500D02*
X74422724Y-91298500D01*
X73913276Y-92343500D02*
X74422724Y-92343500D01*
D13*
%TO.C,U16*%
X85512000Y-91781000D02*
X81112000Y-91781000D01*
X85512000Y-86781000D02*
X81112000Y-86781000D01*
D14*
X87652000Y-91541000D02*
G75*
G03*
X87452000Y-91541000I-100000J0D01*
G01*
X87452000Y-91541000D02*
G75*
G03*
X87652000Y-91541000I100000J0D01*
G01*
D10*
%TO.C,X1*%
X91804000Y-87030000D02*
X91864000Y-87030000D01*
X91804000Y-92430000D02*
X91804000Y-87030000D01*
X91864000Y-92430000D02*
X91804000Y-92430000D01*
X91864000Y-93030000D02*
X91864000Y-92430000D01*
X94064000Y-87030000D02*
X96944000Y-87030000D01*
X94064000Y-92430000D02*
X94064000Y-93030000D01*
X96944000Y-92430000D02*
X94064000Y-92430000D01*
X99144000Y-87030000D02*
X99204000Y-87030000D01*
X99204000Y-87030000D02*
X99204000Y-92430000D01*
X99204000Y-92430000D02*
X99144000Y-92430000D01*
%TO.C,C69*%
X74021733Y-85215000D02*
X74314267Y-85215000D01*
X74021733Y-86235000D02*
X74314267Y-86235000D01*
%TO.C,C74*%
X74021733Y-86739000D02*
X74314267Y-86739000D01*
X74021733Y-87759000D02*
X74314267Y-87759000D01*
%TO.C,G\u002A\u002A\u002A*%
G36*
X58607660Y-88357669D02*
G01*
X58607660Y-88857809D01*
X58464763Y-88857809D01*
X58321866Y-88857809D01*
X58321866Y-88357669D01*
X58321866Y-87857528D01*
X58464763Y-87857528D01*
X58607660Y-87857528D01*
X58607660Y-88357669D01*
G37*
G36*
X55606816Y-88357669D02*
G01*
X55606816Y-88857809D01*
X55463919Y-88857809D01*
X55321022Y-88857809D01*
X55321022Y-88357669D01*
X55321022Y-87857528D01*
X55463919Y-87857528D01*
X55606816Y-87857528D01*
X55606816Y-88357669D01*
G37*
G36*
X55606816Y-89500847D02*
G01*
X55606816Y-90000988D01*
X55463919Y-90000988D01*
X55321022Y-90000988D01*
X55321022Y-89500847D01*
X55321022Y-89000707D01*
X55463919Y-89000707D01*
X55606816Y-89000707D01*
X55606816Y-89500847D01*
G37*
G36*
X55606816Y-90644026D02*
G01*
X55606816Y-91144167D01*
X55463919Y-91144167D01*
X55321022Y-91144167D01*
X55321022Y-90644026D01*
X55321022Y-90143885D01*
X55463919Y-90143885D01*
X55606816Y-90143885D01*
X55606816Y-90644026D01*
G37*
G36*
X55606816Y-91787205D02*
G01*
X55606816Y-92287345D01*
X55463919Y-92287345D01*
X55321022Y-92287345D01*
X55321022Y-91787205D01*
X55321022Y-91287064D01*
X55463919Y-91287064D01*
X55606816Y-91287064D01*
X55606816Y-91787205D01*
G37*
G36*
X57893174Y-92358794D02*
G01*
X57893174Y-93430524D01*
X57750276Y-93430524D01*
X57607379Y-93430524D01*
X57607379Y-92501691D01*
X57607379Y-91572859D01*
X57035790Y-91572859D01*
X56464200Y-91572859D01*
X56464200Y-91429961D01*
X56464200Y-91287064D01*
X57178687Y-91287064D01*
X57893174Y-91287064D01*
X57893174Y-92358794D01*
G37*
G36*
X55321022Y-100432493D02*
G01*
X55606816Y-100432493D01*
X55606816Y-101504223D01*
X55606816Y-102575953D01*
X54892330Y-102575953D01*
X54177843Y-102575953D01*
X54177843Y-102290158D01*
X54463638Y-102290158D01*
X54892330Y-102290158D01*
X55321022Y-102290158D01*
X55321022Y-101504223D01*
X55321022Y-100718288D01*
X54892330Y-100718288D01*
X54463638Y-100718288D01*
X54463638Y-101504223D01*
X54463638Y-102290158D01*
X54177843Y-102290158D01*
X54177843Y-101504223D01*
X54177843Y-100432493D01*
X54892330Y-100432493D01*
X55321022Y-100432493D01*
G37*
G36*
X58607660Y-86857247D02*
G01*
X58607660Y-87000144D01*
X58250417Y-87000144D01*
X57893174Y-87000144D01*
X57893174Y-87928977D01*
X57893174Y-88857809D01*
X57178687Y-88857809D01*
X56464200Y-88857809D01*
X56464200Y-88714912D01*
X56464200Y-88572015D01*
X57035790Y-88572015D01*
X57607379Y-88572015D01*
X57607379Y-87786079D01*
X57607379Y-87000144D01*
X57035790Y-87000144D01*
X56464200Y-87000144D01*
X56464200Y-86857247D01*
X56464200Y-86714350D01*
X57535930Y-86714350D01*
X58607660Y-86714350D01*
X58607660Y-86857247D01*
G37*
G36*
X57607379Y-95859778D02*
G01*
X58607660Y-95859778D01*
X58607660Y-96002676D01*
X58607660Y-96145573D01*
X58250417Y-96145573D01*
X57893174Y-96145573D01*
X57893174Y-97074406D01*
X57893174Y-98003238D01*
X57178687Y-98003238D01*
X56464200Y-98003238D01*
X56464200Y-97717444D01*
X56749995Y-97717444D01*
X57178687Y-97717444D01*
X57607379Y-97717444D01*
X57607379Y-96931508D01*
X57607379Y-96145573D01*
X57178687Y-96145573D01*
X56749995Y-96145573D01*
X56749995Y-96931508D01*
X56749995Y-97717444D01*
X56464200Y-97717444D01*
X56464200Y-96931508D01*
X56464200Y-95859778D01*
X57535930Y-95859778D01*
X57607379Y-95859778D01*
G37*
G36*
X55606816Y-99217866D02*
G01*
X55606816Y-100289596D01*
X55463919Y-100289596D01*
X55321022Y-100289596D01*
X55321022Y-99360763D01*
X55321022Y-98431930D01*
X54892330Y-98431930D01*
X54463638Y-98431930D01*
X54463638Y-99217866D01*
X54463638Y-100003801D01*
X54597604Y-100003801D01*
X54731570Y-100003801D01*
X54731570Y-99369694D01*
X54731570Y-98735587D01*
X54874467Y-98735587D01*
X55017365Y-98735587D01*
X55017365Y-99512591D01*
X55017365Y-100289596D01*
X54597604Y-100289596D01*
X54177843Y-100289596D01*
X54177843Y-99217866D01*
X54177843Y-98146136D01*
X54892330Y-98146136D01*
X55606816Y-98146136D01*
X55606816Y-99217866D01*
G37*
G36*
X56749995Y-101361326D02*
G01*
X56749995Y-102290158D01*
X56892892Y-102290158D01*
X57035790Y-102290158D01*
X57035790Y-101361326D01*
X57035790Y-100432493D01*
X57464482Y-100432493D01*
X57893174Y-100432493D01*
X57893174Y-101504223D01*
X57893174Y-102575953D01*
X57750276Y-102575953D01*
X57607379Y-102575953D01*
X57607379Y-101647120D01*
X57607379Y-100718288D01*
X57464482Y-100718288D01*
X57321584Y-100718288D01*
X57321584Y-101647120D01*
X57321584Y-102575953D01*
X56892892Y-102575953D01*
X56464200Y-102575953D01*
X56464200Y-101504223D01*
X56464200Y-100432493D01*
X56607098Y-100432493D01*
X56749995Y-100432493D01*
X56749995Y-101361326D01*
G37*
G36*
X57035790Y-89000707D02*
G01*
X57321584Y-89000707D01*
X57321584Y-89929539D01*
X57321584Y-90858372D01*
X57464482Y-90858372D01*
X57607379Y-90858372D01*
X57607379Y-89929539D01*
X57607379Y-89000707D01*
X57750276Y-89000707D01*
X57893174Y-89000707D01*
X57893174Y-90072437D01*
X57893174Y-91144167D01*
X57178687Y-91144167D01*
X56464200Y-91144167D01*
X56464200Y-90858372D01*
X56749995Y-90858372D01*
X56892892Y-90858372D01*
X57035790Y-90858372D01*
X57035790Y-90072437D01*
X57035790Y-89286501D01*
X56892892Y-89286501D01*
X56749995Y-89286501D01*
X56749995Y-90072437D01*
X56749995Y-90858372D01*
X56464200Y-90858372D01*
X56464200Y-90072437D01*
X56464200Y-89000707D01*
X56892892Y-89000707D01*
X57035790Y-89000707D01*
G37*
G36*
X57035790Y-93573421D02*
G01*
X57321584Y-93573421D01*
X57321584Y-94502254D01*
X57321584Y-95431086D01*
X57464482Y-95431086D01*
X57607379Y-95431086D01*
X57607379Y-94502254D01*
X57607379Y-93573421D01*
X57750276Y-93573421D01*
X57893174Y-93573421D01*
X57893174Y-94645151D01*
X57893174Y-95716881D01*
X57178687Y-95716881D01*
X56464200Y-95716881D01*
X56464200Y-95431086D01*
X56749995Y-95431086D01*
X56892892Y-95431086D01*
X57035790Y-95431086D01*
X57035790Y-94645151D01*
X57035790Y-93859216D01*
X56892892Y-93859216D01*
X56749995Y-93859216D01*
X56749995Y-94645151D01*
X56749995Y-95431086D01*
X56464200Y-95431086D01*
X56464200Y-94645151D01*
X56464200Y-93573421D01*
X56892892Y-93573421D01*
X57035790Y-93573421D01*
G37*
G36*
X57035790Y-98146136D02*
G01*
X57321584Y-98146136D01*
X57321584Y-99074968D01*
X57321584Y-100003801D01*
X57464482Y-100003801D01*
X57607379Y-100003801D01*
X57607379Y-99074968D01*
X57607379Y-98146136D01*
X57750276Y-98146136D01*
X57893174Y-98146136D01*
X57893174Y-99217866D01*
X57893174Y-100289596D01*
X57178687Y-100289596D01*
X56464200Y-100289596D01*
X56464200Y-100003801D01*
X56749995Y-100003801D01*
X56892892Y-100003801D01*
X57035790Y-100003801D01*
X57035790Y-99217866D01*
X57035790Y-98431930D01*
X56892892Y-98431930D01*
X56749995Y-98431930D01*
X56749995Y-99217866D01*
X56749995Y-100003801D01*
X56464200Y-100003801D01*
X56464200Y-99217866D01*
X56464200Y-98146136D01*
X56892892Y-98146136D01*
X57035790Y-98146136D01*
G37*
%TO.C,C72*%
X62376267Y-86235000D02*
X62083733Y-86235000D01*
X62376267Y-85215000D02*
X62083733Y-85215000D01*
%TO.C,BTN4*%
X113898000Y-110904000D02*
X113898000Y-107004000D01*
X113898000Y-110904000D02*
X106178000Y-110904000D01*
X113898000Y-104404000D02*
X113898000Y-103894000D01*
X113898000Y-103894000D02*
X113378000Y-103894000D01*
X113378000Y-107234000D02*
X113378000Y-107004000D01*
X113378000Y-107234000D02*
X112838000Y-107234000D01*
X113378000Y-104404000D02*
X113378000Y-103894000D01*
X111738000Y-107234000D02*
X108338000Y-107234000D01*
X107238000Y-107234000D02*
X106698000Y-107234000D01*
X106698000Y-107234000D02*
X106698000Y-107004000D01*
X106698000Y-104404000D02*
X106698000Y-103894000D01*
X106698000Y-103894000D02*
X106178000Y-103894000D01*
X106178000Y-110904000D02*
X106178000Y-107004000D01*
X106178000Y-104404000D02*
X106178000Y-103894000D01*
%TO.C,U9*%
X103365000Y-76691000D02*
X103745000Y-76691000D01*
X103745000Y-76691000D02*
X103745000Y-77851000D01*
X121995000Y-76691000D02*
X121615000Y-76691000D01*
X103365000Y-71501000D02*
X103365000Y-76691000D01*
X103365000Y-71501000D02*
X103365000Y-66311000D01*
X121995000Y-71501000D02*
X121995000Y-76691000D01*
X121995000Y-71501000D02*
X121995000Y-66311000D01*
X103365000Y-66311000D02*
X103745000Y-66311000D01*
X121995000Y-66311000D02*
X121615000Y-66311000D01*
%TO.C,C45*%
X66821267Y-95125000D02*
X66528733Y-95125000D01*
X66821267Y-94105000D02*
X66528733Y-94105000D01*
%TO.C,C65*%
X89791000Y-87864733D02*
X89791000Y-88157267D01*
X88771000Y-87864733D02*
X88771000Y-88157267D01*
%TO.C,C43*%
X95992733Y-60831000D02*
X96285267Y-60831000D01*
X95992733Y-61851000D02*
X96285267Y-61851000D01*
%TO.C,F1*%
X62859000Y-51848936D02*
X62859000Y-53053064D01*
X60139000Y-51848936D02*
X60139000Y-53053064D01*
%TO.C,J7*%
X69501000Y-45743000D02*
X69501000Y-43963000D01*
X67601000Y-48663000D02*
X68401000Y-48663000D01*
X60101000Y-45743000D02*
X60101000Y-43963000D01*
D11*
%TO.C,J5*%
X79018000Y-105388000D02*
X79018000Y-98188000D01*
X79018000Y-108188000D02*
X79018000Y-110488000D01*
X79018000Y-110488000D02*
X86368000Y-110488000D01*
X86368000Y-110488000D02*
X87718000Y-110538000D01*
X87718000Y-110538000D02*
X88868000Y-110688000D01*
X88418000Y-97788000D02*
X88418000Y-98088000D01*
X88418000Y-98088000D02*
X88718000Y-98088000D01*
X88718000Y-97788000D02*
X88418000Y-97788000D01*
X88718000Y-98088000D02*
X88718000Y-97788000D01*
X88868000Y-110688000D02*
X89968000Y-110888000D01*
X89168000Y-97188000D02*
X89168000Y-95888000D01*
X89168000Y-97188000D02*
X92168000Y-97188000D01*
X89968000Y-110888000D02*
X91018000Y-111188000D01*
X91018000Y-111188000D02*
X93718000Y-111188000D01*
X93718000Y-98188000D02*
X93718000Y-105388000D01*
X93718000Y-111188000D02*
X93718000Y-108188000D01*
D10*
%TO.C,BTN2*%
X56722000Y-56601000D02*
X56602000Y-56601000D01*
X55592000Y-56601000D02*
X54452000Y-56601000D01*
X53442000Y-56601000D02*
X53322000Y-56601000D01*
X53322000Y-56601000D02*
X53322000Y-61001000D01*
X56722000Y-61001000D02*
X56722000Y-56601000D01*
X56602000Y-61001000D02*
X56722000Y-61001000D01*
X54452000Y-61001000D02*
X55592000Y-61001000D01*
X53322000Y-61001000D02*
X53442000Y-61001000D01*
%TO.C,C63*%
X88771000Y-91586267D02*
X88771000Y-91293733D01*
X89791000Y-91586267D02*
X89791000Y-91293733D01*
%TO.C,D1*%
X105709500Y-109346276D02*
X105709500Y-109855724D01*
X104664500Y-109346276D02*
X104664500Y-109855724D01*
%TO.C,U15*%
X65091000Y-91715000D02*
X65091000Y-91165000D01*
X65641000Y-85495000D02*
X65091000Y-85495000D01*
X65641000Y-91715000D02*
X65091000Y-91715000D01*
X70761000Y-85495000D02*
X71311000Y-85495000D01*
X70761000Y-91715000D02*
X71311000Y-91715000D01*
X71311000Y-85495000D02*
X71311000Y-86045000D01*
X71311000Y-91715000D02*
X71311000Y-91165000D01*
%TO.C,U8*%
X92870000Y-58401000D02*
X92870000Y-59051000D01*
X92220000Y-65621000D02*
X92870000Y-65621000D01*
X92220000Y-58401000D02*
X92870000Y-58401000D01*
X86300000Y-65621000D02*
X85650000Y-65621000D01*
X86300000Y-58401000D02*
X85650000Y-58401000D01*
X85650000Y-65621000D02*
X85650000Y-64971000D01*
X85650000Y-58401000D02*
X85650000Y-59051000D01*
%TO.C,J1*%
X100432000Y-40471000D02*
X99432000Y-40471000D01*
X100432000Y-39851000D02*
X100432000Y-40471000D01*
X99432000Y-51941000D02*
X99432000Y-54121000D01*
X99432000Y-40471000D02*
X99432000Y-48441000D01*
X98312000Y-56971000D02*
X87932000Y-56971000D01*
X96222000Y-57121000D02*
X97022000Y-57121000D01*
X86812000Y-51941000D02*
X86812000Y-54121000D01*
X86812000Y-48441000D02*
X86812000Y-40471000D01*
X86812000Y-40471000D02*
X85812000Y-40471000D01*
X85812000Y-40471000D02*
X85812000Y-39851000D01*
X85812000Y-39851000D02*
X100432000Y-39851000D01*
%TO.C,J2*%
X85700000Y-40471000D02*
X84700000Y-40471000D01*
X85700000Y-39851000D02*
X85700000Y-40471000D01*
X84700000Y-51941000D02*
X84700000Y-54121000D01*
X84700000Y-40471000D02*
X84700000Y-48441000D01*
X83580000Y-56971000D02*
X73200000Y-56971000D01*
X81490000Y-57121000D02*
X82290000Y-57121000D01*
X72080000Y-51941000D02*
X72080000Y-54121000D01*
X72080000Y-48441000D02*
X72080000Y-40471000D01*
X72080000Y-40471000D02*
X71080000Y-40471000D01*
X71080000Y-40471000D02*
X71080000Y-39851000D01*
X71080000Y-39851000D02*
X85700000Y-39851000D01*
%TO.C,C62*%
X77477233Y-88263000D02*
X77769767Y-88263000D01*
X77477233Y-89283000D02*
X77769767Y-89283000D01*
%TO.C,C68*%
X62376267Y-90807000D02*
X62083733Y-90807000D01*
X62376267Y-89787000D02*
X62083733Y-89787000D01*
D15*
%TO.C,J8*%
X122917470Y-62100460D02*
X122917470Y-61600080D01*
X122917470Y-61600080D02*
X122917470Y-56001920D01*
X122917470Y-56001920D02*
X122917470Y-55501540D01*
X122917470Y-55501540D02*
X122419630Y-55501540D01*
X122419630Y-62100460D02*
X122917470Y-62100460D01*
X122419630Y-62100460D02*
X120519710Y-62100460D01*
X122419630Y-55501540D02*
X112419650Y-55501540D01*
X118919510Y-62100460D02*
X117519970Y-62100460D01*
X115919770Y-62100460D02*
X113519470Y-62100460D01*
X110717850Y-62100460D02*
X111919270Y-62100460D01*
X110717850Y-62100460D02*
X110717850Y-55501540D01*
D10*
%TO.C,Y1*%
X53211000Y-63162000D02*
X53211000Y-67662000D01*
X53211000Y-67662000D02*
X58611000Y-67662000D01*
%TO.C,R36*%
X65577500Y-51434276D02*
X65577500Y-51943724D01*
X64532500Y-51434276D02*
X64532500Y-51943724D01*
%TO.C,R44*%
X77342276Y-91298500D02*
X77851724Y-91298500D01*
X77342276Y-92343500D02*
X77851724Y-92343500D01*
D15*
%TO.C,J6*%
X122786660Y-101343460D02*
X122786660Y-100843080D01*
X122786660Y-100843080D02*
X122786660Y-95244920D01*
X122786660Y-95244920D02*
X122786660Y-94744540D01*
X122786660Y-94744540D02*
X122288820Y-94744540D01*
X122288820Y-101343460D02*
X122786660Y-101343460D01*
X122288820Y-101343460D02*
X120388900Y-101343460D01*
X122288820Y-94744540D02*
X112288840Y-94744540D01*
X118788700Y-101343460D02*
X117389160Y-101343460D01*
X115788960Y-101343460D02*
X113388660Y-101343460D01*
X110587040Y-101343460D02*
X111788460Y-101343460D01*
X110587040Y-101343460D02*
X110587040Y-94744540D01*
D10*
%TO.C,C67*%
X62376267Y-87759000D02*
X62083733Y-87759000D01*
X62376267Y-86739000D02*
X62083733Y-86739000D01*
%TO.C,D4*%
X95391500Y-109473276D02*
X95391500Y-109982724D01*
X94346500Y-109473276D02*
X94346500Y-109982724D01*
%TO.C,C37*%
X91315000Y-87864733D02*
X91315000Y-88157267D01*
X90295000Y-87864733D02*
X90295000Y-88157267D01*
%TO.C,BTN3*%
X104246000Y-110953500D02*
X104246000Y-107053500D01*
X104246000Y-110953500D02*
X96526000Y-110953500D01*
X104246000Y-104453500D02*
X104246000Y-103943500D01*
X104246000Y-103943500D02*
X103726000Y-103943500D01*
X103726000Y-107283500D02*
X103726000Y-107053500D01*
X103726000Y-107283500D02*
X103186000Y-107283500D01*
X103726000Y-104453500D02*
X103726000Y-103943500D01*
X102086000Y-107283500D02*
X98686000Y-107283500D01*
X97586000Y-107283500D02*
X97046000Y-107283500D01*
X97046000Y-107283500D02*
X97046000Y-107053500D01*
X97046000Y-104453500D02*
X97046000Y-103943500D01*
X97046000Y-103943500D02*
X96526000Y-103943500D01*
X96526000Y-110953500D02*
X96526000Y-107053500D01*
X96526000Y-104453500D02*
X96526000Y-103943500D01*
%TO.C,U10*%
X103354000Y-90661000D02*
X103734000Y-90661000D01*
X103734000Y-90661000D02*
X103734000Y-91821000D01*
X121984000Y-90661000D02*
X121604000Y-90661000D01*
X103354000Y-85471000D02*
X103354000Y-90661000D01*
X103354000Y-85471000D02*
X103354000Y-80281000D01*
X121984000Y-85471000D02*
X121984000Y-90661000D01*
X121984000Y-85471000D02*
X121984000Y-80281000D01*
X103354000Y-80281000D02*
X103734000Y-80281000D01*
X121984000Y-80281000D02*
X121604000Y-80281000D01*
%TO.C,C70*%
X74021733Y-89787000D02*
X74314267Y-89787000D01*
X74021733Y-90807000D02*
X74314267Y-90807000D01*
%TO.C,BTN1*%
X56722000Y-50124000D02*
X56602000Y-50124000D01*
X55592000Y-50124000D02*
X54452000Y-50124000D01*
X53442000Y-50124000D02*
X53322000Y-50124000D01*
X53322000Y-50124000D02*
X53322000Y-54524000D01*
X56722000Y-54524000D02*
X56722000Y-50124000D01*
X56602000Y-54524000D02*
X56722000Y-54524000D01*
X54452000Y-54524000D02*
X55592000Y-54524000D01*
X53322000Y-54524000D02*
X53442000Y-54524000D01*
%TO.C,C39*%
X99189000Y-60432733D02*
X99189000Y-60725267D01*
X98169000Y-60432733D02*
X98169000Y-60725267D01*
%TO.C,R16*%
X96393724Y-60212500D02*
X95884276Y-60212500D01*
X96393724Y-59167500D02*
X95884276Y-59167500D01*
%TO.C,C73*%
X62376267Y-89283000D02*
X62083733Y-89283000D01*
X62376267Y-88263000D02*
X62083733Y-88263000D01*
%TO.C,D3*%
X78023500Y-109473276D02*
X78023500Y-109982724D01*
X76978500Y-109473276D02*
X76978500Y-109982724D01*
%TO.C,J3*%
X103653000Y-53008000D02*
X103653000Y-52258000D01*
X103653000Y-52258000D02*
X101853000Y-52258000D01*
X115253000Y-52258000D02*
X113453000Y-52258000D01*
X100943000Y-48708000D02*
X100943000Y-45908000D01*
X116163000Y-48708000D02*
X116163000Y-45908000D01*
X100943000Y-43208000D02*
X100943000Y-41108000D01*
X116163000Y-43208000D02*
X116163000Y-41108000D01*
%TO.C,C46*%
X84347267Y-95125000D02*
X84054733Y-95125000D01*
X84347267Y-94105000D02*
X84054733Y-94105000D01*
%TO.C,R45*%
X73913276Y-88250500D02*
X74422724Y-88250500D01*
X73913276Y-89295500D02*
X74422724Y-89295500D01*
%TO.C,R43*%
X77342276Y-89774500D02*
X77851724Y-89774500D01*
X77342276Y-90819500D02*
X77851724Y-90819500D01*
%TO.C,R12*%
X99680500Y-88197724D02*
X99680500Y-87688276D01*
X100725500Y-88197724D02*
X100725500Y-87688276D01*
%TO.C,C38*%
X82061267Y-60200000D02*
X81768733Y-60200000D01*
X82061267Y-59180000D02*
X81768733Y-59180000D01*
%TO.C,C66*%
X87014267Y-93347000D02*
X86721733Y-93347000D01*
X87014267Y-92327000D02*
X86721733Y-92327000D01*
%TO.C,P2*%
X99073000Y-77573600D02*
X100203000Y-77573600D01*
X99073000Y-78333600D02*
X99073000Y-77573600D01*
X99073000Y-79093600D02*
X99073000Y-81568600D01*
X99073000Y-79093600D02*
X99639529Y-79093600D01*
X99073000Y-81568600D02*
X99895470Y-81568600D01*
X100510530Y-81568600D02*
X101165470Y-81568600D01*
X100766471Y-79093600D02*
X100909529Y-79093600D01*
X100963000Y-77638600D02*
X101165470Y-77638600D01*
X100963000Y-77770129D02*
X100963000Y-77638600D01*
X100963000Y-79040129D02*
X100963000Y-78897071D01*
X101780530Y-77638600D02*
X102603000Y-77638600D01*
X101780530Y-81568600D02*
X102603000Y-81568600D01*
X102603000Y-77638600D02*
X102603000Y-81568600D01*
%TO.C,U3*%
X61440000Y-66480000D02*
X61440000Y-65830000D01*
X62090000Y-59260000D02*
X61440000Y-59260000D01*
X62090000Y-66480000D02*
X61440000Y-66480000D01*
X68010000Y-59260000D02*
X68660000Y-59260000D01*
X68010000Y-66480000D02*
X68660000Y-66480000D01*
X68660000Y-59260000D02*
X68660000Y-59910000D01*
X68660000Y-66480000D02*
X68660000Y-65830000D01*
%TO.C,C71*%
X74021733Y-92835000D02*
X74314267Y-92835000D01*
X74021733Y-93855000D02*
X74314267Y-93855000D01*
%TO.C,R15*%
X100852500Y-60324276D02*
X100852500Y-60833724D01*
X99807500Y-60324276D02*
X99807500Y-60833724D01*
%TO.C,P1*%
X95771000Y-95836200D02*
X96901000Y-95836200D01*
X95771000Y-96596200D02*
X95771000Y-95836200D01*
X95771000Y-97356200D02*
X95771000Y-102371200D01*
X95771000Y-97356200D02*
X96337529Y-97356200D01*
X95771000Y-102371200D02*
X96593470Y-102371200D01*
X97208530Y-102371200D02*
X97863470Y-102371200D01*
X97464471Y-97356200D02*
X97607529Y-97356200D01*
X97661000Y-95901200D02*
X97863470Y-95901200D01*
X97661000Y-96032729D02*
X97661000Y-95901200D01*
X97661000Y-97302729D02*
X97661000Y-97159671D01*
X98478530Y-95901200D02*
X99301000Y-95901200D01*
X98478530Y-102371200D02*
X99301000Y-102371200D01*
X99301000Y-95901200D02*
X99301000Y-102371200D01*
%TD*%
M02*
