%TF.GenerationSoftware,KiCad,Pcbnew,7.0.10-7.0.10~ubuntu22.04.1*%
%TF.CreationDate,2024-02-21T21:45:05+02:00*%
%TF.ProjectId,karabas-mini,6b617261-6261-4732-9d6d-696e692e6b69,rev?*%
%TF.SameCoordinates,Original*%
%TF.FileFunction,Legend,Bot*%
%TF.FilePolarity,Positive*%
%FSLAX46Y46*%
G04 Gerber Fmt 4.6, Leading zero omitted, Abs format (unit mm)*
G04 Created by KiCad (PCBNEW 7.0.10-7.0.10~ubuntu22.04.1) date 2024-02-21 21:45:05*
%MOMM*%
%LPD*%
G01*
G04 APERTURE LIST*
%ADD10C,0.150000*%
%ADD11C,0.120000*%
%ADD12C,0.127000*%
%ADD13C,0.200000*%
%ADD14C,0.300000*%
G04 APERTURE END LIST*
D10*
X104595604Y-82061112D02*
X104629276Y-81960096D01*
X104629276Y-81960096D02*
X104763963Y-81825409D01*
X104763963Y-81825409D02*
X104864978Y-81791738D01*
X104864978Y-81791738D02*
X104999665Y-81791738D01*
X104999665Y-81791738D02*
X105100680Y-81825409D01*
X105100680Y-81825409D02*
X105235367Y-81960096D01*
X105235367Y-81960096D02*
X105269039Y-82061112D01*
X105269039Y-82061112D02*
X105269039Y-82195799D01*
X105269039Y-82195799D02*
X105235367Y-82296814D01*
X105235367Y-82296814D02*
X105100680Y-82431501D01*
X105100680Y-82431501D02*
X104999665Y-82465173D01*
X104460917Y-81657051D02*
X104662947Y-81522364D01*
X104662947Y-81522364D02*
X104932321Y-81455020D01*
X104932321Y-81455020D02*
X105201695Y-81522364D01*
X105201695Y-81522364D02*
X105403726Y-81657051D01*
X105403726Y-81657051D02*
X105538413Y-81859081D01*
X105538413Y-81859081D02*
X105605756Y-82128455D01*
X105605756Y-82128455D02*
X105538413Y-82397829D01*
X105538413Y-82397829D02*
X105403726Y-82599860D01*
X105403726Y-82599860D02*
X105201695Y-82734547D01*
X105201695Y-82734547D02*
X104932321Y-82801890D01*
X104932321Y-82801890D02*
X104662947Y-82734547D01*
X104662947Y-82734547D02*
X104460917Y-82599860D01*
X104460917Y-82599860D02*
X104326230Y-82397829D01*
X104326230Y-82397829D02*
X104258886Y-82128455D01*
X104258886Y-82128455D02*
X104326230Y-81859081D01*
X104326230Y-81859081D02*
X104460917Y-81657051D01*
X103349749Y-83104936D02*
X103282405Y-83104936D01*
X103282405Y-83104936D02*
X103181390Y-83138608D01*
X103181390Y-83138608D02*
X103013031Y-83306967D01*
X103013031Y-83306967D02*
X102979359Y-83407982D01*
X102979359Y-83407982D02*
X102979359Y-83475325D01*
X102979359Y-83475325D02*
X103013031Y-83576341D01*
X103013031Y-83576341D02*
X103080375Y-83643684D01*
X103080375Y-83643684D02*
X103215062Y-83711028D01*
X103215062Y-83711028D02*
X104023184Y-83711028D01*
X104023184Y-83711028D02*
X103585451Y-84148760D01*
X102440611Y-83879387D02*
X102373268Y-83946730D01*
X102373268Y-83946730D02*
X102339596Y-84047745D01*
X102339596Y-84047745D02*
X102339596Y-84115089D01*
X102339596Y-84115089D02*
X102373268Y-84216104D01*
X102373268Y-84216104D02*
X102474283Y-84384463D01*
X102474283Y-84384463D02*
X102642642Y-84552822D01*
X102642642Y-84552822D02*
X102811001Y-84653837D01*
X102811001Y-84653837D02*
X102912016Y-84687509D01*
X102912016Y-84687509D02*
X102979359Y-84687509D01*
X102979359Y-84687509D02*
X103080375Y-84653837D01*
X103080375Y-84653837D02*
X103147718Y-84586493D01*
X103147718Y-84586493D02*
X103181390Y-84485478D01*
X103181390Y-84485478D02*
X103181390Y-84418135D01*
X103181390Y-84418135D02*
X103147718Y-84317119D01*
X103147718Y-84317119D02*
X103046703Y-84148761D01*
X103046703Y-84148761D02*
X102878344Y-83980402D01*
X102878344Y-83980402D02*
X102709985Y-83879387D01*
X102709985Y-83879387D02*
X102608970Y-83845715D01*
X102608970Y-83845715D02*
X102541627Y-83845715D01*
X102541627Y-83845715D02*
X102440611Y-83879387D01*
X102002878Y-84451806D02*
X101935535Y-84451806D01*
X101935535Y-84451806D02*
X101834520Y-84485478D01*
X101834520Y-84485478D02*
X101666161Y-84653837D01*
X101666161Y-84653837D02*
X101632489Y-84754852D01*
X101632489Y-84754852D02*
X101632489Y-84822196D01*
X101632489Y-84822196D02*
X101666161Y-84923211D01*
X101666161Y-84923211D02*
X101733504Y-84990554D01*
X101733504Y-84990554D02*
X101868191Y-85057898D01*
X101868191Y-85057898D02*
X102676313Y-85057898D01*
X102676313Y-85057898D02*
X102238581Y-85495631D01*
X101161085Y-85630318D02*
X101632489Y-86101722D01*
X101060069Y-85192585D02*
X101733504Y-85529302D01*
X101733504Y-85529302D02*
X101295772Y-85967035D01*
X100420306Y-87313905D02*
X100049917Y-86943516D01*
X100049917Y-86943516D02*
X100016245Y-86842501D01*
X100016245Y-86842501D02*
X100049917Y-86741486D01*
X100049917Y-86741486D02*
X100184604Y-86606799D01*
X100184604Y-86606799D02*
X100285619Y-86573127D01*
X100386634Y-87280234D02*
X100487649Y-87246562D01*
X100487649Y-87246562D02*
X100656008Y-87078203D01*
X100656008Y-87078203D02*
X100689680Y-86977188D01*
X100689680Y-86977188D02*
X100656008Y-86876173D01*
X100656008Y-86876173D02*
X100588665Y-86808829D01*
X100588665Y-86808829D02*
X100487649Y-86775157D01*
X100487649Y-86775157D02*
X100386634Y-86808829D01*
X100386634Y-86808829D02*
X100218275Y-86977188D01*
X100218275Y-86977188D02*
X100117260Y-87010860D01*
X99612184Y-87179218D02*
X100083588Y-87650623D01*
X99679527Y-87246562D02*
X99612184Y-87246562D01*
X99612184Y-87246562D02*
X99511169Y-87280234D01*
X99511169Y-87280234D02*
X99410153Y-87381249D01*
X99410153Y-87381249D02*
X99376482Y-87482264D01*
X99376482Y-87482264D02*
X99410153Y-87583280D01*
X99410153Y-87583280D02*
X99780543Y-87953669D01*
X99140779Y-88593432D02*
X98433672Y-87886325D01*
X99107107Y-88559760D02*
X99208123Y-88526089D01*
X99208123Y-88526089D02*
X99342810Y-88391402D01*
X99342810Y-88391402D02*
X99376481Y-88290386D01*
X99376481Y-88290386D02*
X99376481Y-88223043D01*
X99376481Y-88223043D02*
X99342810Y-88122028D01*
X99342810Y-88122028D02*
X99140779Y-87919997D01*
X99140779Y-87919997D02*
X99039764Y-87886325D01*
X99039764Y-87886325D02*
X98972420Y-87886325D01*
X98972420Y-87886325D02*
X98871405Y-87919997D01*
X98871405Y-87919997D02*
X98736718Y-88054684D01*
X98736718Y-88054684D02*
X98703046Y-88155699D01*
X98400001Y-88391402D02*
X98703046Y-89031165D01*
X98063283Y-88728119D02*
X98703046Y-89031165D01*
X98703046Y-89031165D02*
X98938749Y-89132180D01*
X98938749Y-89132180D02*
X99006092Y-89132180D01*
X99006092Y-89132180D02*
X99107107Y-89098508D01*
X98265313Y-89468898D02*
X97558207Y-88761791D01*
X97928596Y-89266867D02*
X97995939Y-89738272D01*
X97524535Y-89266867D02*
X98063283Y-89266867D01*
X97389848Y-90344364D02*
X97019458Y-89973974D01*
X97019458Y-89973974D02*
X96985787Y-89872959D01*
X96985787Y-89872959D02*
X97019458Y-89771944D01*
X97019458Y-89771944D02*
X97154146Y-89637257D01*
X97154146Y-89637257D02*
X97255161Y-89603585D01*
X97356176Y-90310692D02*
X97457191Y-90277020D01*
X97457191Y-90277020D02*
X97625550Y-90108661D01*
X97625550Y-90108661D02*
X97659222Y-90007646D01*
X97659222Y-90007646D02*
X97625550Y-89906631D01*
X97625550Y-89906631D02*
X97558207Y-89839287D01*
X97558207Y-89839287D02*
X97457191Y-89805616D01*
X97457191Y-89805616D02*
X97356176Y-89839287D01*
X97356176Y-89839287D02*
X97187817Y-90007646D01*
X97187817Y-90007646D02*
X97086802Y-90041318D01*
X97053130Y-90681081D02*
X96581726Y-90209677D01*
X96716413Y-90344364D02*
X96615397Y-90310692D01*
X96615397Y-90310692D02*
X96548054Y-90310692D01*
X96548054Y-90310692D02*
X96447039Y-90344364D01*
X96447039Y-90344364D02*
X96379695Y-90411707D01*
X96143993Y-90647410D02*
X96851099Y-91354516D01*
X96177664Y-90681081D02*
X96076649Y-90714753D01*
X96076649Y-90714753D02*
X95941962Y-90849440D01*
X95941962Y-90849440D02*
X95908290Y-90950455D01*
X95908290Y-90950455D02*
X95908290Y-91017799D01*
X95908290Y-91017799D02*
X95941962Y-91118814D01*
X95941962Y-91118814D02*
X96143993Y-91320845D01*
X96143993Y-91320845D02*
X96245008Y-91354516D01*
X96245008Y-91354516D02*
X96312351Y-91354516D01*
X96312351Y-91354516D02*
X96413367Y-91320845D01*
X96413367Y-91320845D02*
X96548054Y-91186158D01*
X96548054Y-91186158D02*
X96581725Y-91085142D01*
X95874619Y-91859593D02*
X95908290Y-91758578D01*
X95908290Y-91758578D02*
X95908290Y-91691234D01*
X95908290Y-91691234D02*
X95874619Y-91590219D01*
X95874619Y-91590219D02*
X95672588Y-91388188D01*
X95672588Y-91388188D02*
X95571573Y-91354517D01*
X95571573Y-91354517D02*
X95504229Y-91354517D01*
X95504229Y-91354517D02*
X95403214Y-91388188D01*
X95403214Y-91388188D02*
X95302199Y-91489204D01*
X95302199Y-91489204D02*
X95268527Y-91590219D01*
X95268527Y-91590219D02*
X95268527Y-91657562D01*
X95268527Y-91657562D02*
X95302199Y-91758578D01*
X95302199Y-91758578D02*
X95504229Y-91960608D01*
X95504229Y-91960608D02*
X95605245Y-91994280D01*
X95605245Y-91994280D02*
X95672588Y-91994280D01*
X95672588Y-91994280D02*
X95773603Y-91960608D01*
X95773603Y-91960608D02*
X95874619Y-91859593D01*
X94931809Y-91859593D02*
X95234855Y-92499356D01*
X95234855Y-92499356D02*
X94595092Y-92196310D01*
X105111117Y-83957169D02*
X105447835Y-84563261D01*
X105447835Y-84563261D02*
X104976430Y-84361230D01*
X104976430Y-84361230D02*
X105178461Y-84832635D01*
X105178461Y-84832635D02*
X104572369Y-84495917D01*
X104370339Y-84697948D02*
X104707056Y-85304039D01*
X104707056Y-85304039D02*
X104235652Y-85102009D01*
X104235652Y-85102009D02*
X104437682Y-85573413D01*
X104437682Y-85573413D02*
X103831591Y-85236696D01*
X103629560Y-85438726D02*
X103966278Y-86044818D01*
X103966278Y-86044818D02*
X103494873Y-85842787D01*
X103494873Y-85842787D02*
X103696904Y-86314192D01*
X103696904Y-86314192D02*
X103090812Y-85977474D01*
X103225499Y-86650909D02*
X103225499Y-86718253D01*
X103225499Y-86718253D02*
X103292843Y-86718253D01*
X103292843Y-86718253D02*
X103292843Y-86650909D01*
X103292843Y-86650909D02*
X103225499Y-86650909D01*
X103225499Y-86650909D02*
X103292843Y-86718253D01*
X102956126Y-87054970D02*
X102249019Y-86347863D01*
X102619408Y-86852939D02*
X102686752Y-87324344D01*
X102215347Y-86852939D02*
X102754095Y-86852939D01*
X102080660Y-87930435D02*
X101710271Y-87560046D01*
X101710271Y-87560046D02*
X101676599Y-87459031D01*
X101676599Y-87459031D02*
X101710271Y-87358016D01*
X101710271Y-87358016D02*
X101844958Y-87223329D01*
X101844958Y-87223329D02*
X101945973Y-87189657D01*
X102046988Y-87896764D02*
X102148003Y-87863092D01*
X102148003Y-87863092D02*
X102316362Y-87694733D01*
X102316362Y-87694733D02*
X102350034Y-87593718D01*
X102350034Y-87593718D02*
X102316362Y-87492703D01*
X102316362Y-87492703D02*
X102249019Y-87425359D01*
X102249019Y-87425359D02*
X102148003Y-87391687D01*
X102148003Y-87391687D02*
X102046988Y-87425359D01*
X102046988Y-87425359D02*
X101878629Y-87593718D01*
X101878629Y-87593718D02*
X101777614Y-87627390D01*
X101743942Y-88267153D02*
X101272538Y-87795749D01*
X101407225Y-87930436D02*
X101306210Y-87896764D01*
X101306210Y-87896764D02*
X101238866Y-87896764D01*
X101238866Y-87896764D02*
X101137851Y-87930436D01*
X101137851Y-87930436D02*
X101070507Y-87997779D01*
X101003163Y-89007932D02*
X100632774Y-88637543D01*
X100632774Y-88637543D02*
X100599102Y-88536527D01*
X100599102Y-88536527D02*
X100632774Y-88435512D01*
X100632774Y-88435512D02*
X100767461Y-88300825D01*
X100767461Y-88300825D02*
X100868476Y-88267153D01*
X100969492Y-88974260D02*
X101070507Y-88940588D01*
X101070507Y-88940588D02*
X101238866Y-88772230D01*
X101238866Y-88772230D02*
X101272538Y-88671214D01*
X101272538Y-88671214D02*
X101238866Y-88570199D01*
X101238866Y-88570199D02*
X101171522Y-88502856D01*
X101171522Y-88502856D02*
X101070507Y-88469184D01*
X101070507Y-88469184D02*
X100969492Y-88502856D01*
X100969492Y-88502856D02*
X100801133Y-88671214D01*
X100801133Y-88671214D02*
X100700118Y-88704886D01*
X100666446Y-89344649D02*
X99959339Y-88637543D01*
X100228713Y-88906917D02*
X100127698Y-88940588D01*
X100127698Y-88940588D02*
X99993011Y-89075275D01*
X99993011Y-89075275D02*
X99959339Y-89176291D01*
X99959339Y-89176291D02*
X99959339Y-89243634D01*
X99959339Y-89243634D02*
X99993011Y-89344649D01*
X99993011Y-89344649D02*
X100195041Y-89546680D01*
X100195041Y-89546680D02*
X100296057Y-89580352D01*
X100296057Y-89580352D02*
X100363400Y-89580352D01*
X100363400Y-89580352D02*
X100464415Y-89546680D01*
X100464415Y-89546680D02*
X100599102Y-89411993D01*
X100599102Y-89411993D02*
X100632774Y-89310978D01*
X99723637Y-90287459D02*
X99353248Y-89917069D01*
X99353248Y-89917069D02*
X99319576Y-89816054D01*
X99319576Y-89816054D02*
X99353248Y-89715039D01*
X99353248Y-89715039D02*
X99487935Y-89580352D01*
X99487935Y-89580352D02*
X99588950Y-89546680D01*
X99689965Y-90253787D02*
X99790980Y-90220115D01*
X99790980Y-90220115D02*
X99959339Y-90051756D01*
X99959339Y-90051756D02*
X99993011Y-89950741D01*
X99993011Y-89950741D02*
X99959339Y-89849726D01*
X99959339Y-89849726D02*
X99891996Y-89782382D01*
X99891996Y-89782382D02*
X99790980Y-89748711D01*
X99790980Y-89748711D02*
X99689965Y-89782382D01*
X99689965Y-89782382D02*
X99521606Y-89950741D01*
X99521606Y-89950741D02*
X99420591Y-89984413D01*
X99386919Y-90556833D02*
X99353247Y-90657848D01*
X99353247Y-90657848D02*
X99218560Y-90792535D01*
X99218560Y-90792535D02*
X99117545Y-90826207D01*
X99117545Y-90826207D02*
X99016530Y-90792535D01*
X99016530Y-90792535D02*
X98982858Y-90758863D01*
X98982858Y-90758863D02*
X98949186Y-90657848D01*
X98949186Y-90657848D02*
X98982858Y-90556833D01*
X98982858Y-90556833D02*
X99083873Y-90455817D01*
X99083873Y-90455817D02*
X99117545Y-90354802D01*
X99117545Y-90354802D02*
X99083873Y-90253787D01*
X99083873Y-90253787D02*
X99050202Y-90220115D01*
X99050202Y-90220115D02*
X98949186Y-90186443D01*
X98949186Y-90186443D02*
X98848171Y-90220115D01*
X98848171Y-90220115D02*
X98747156Y-90321130D01*
X98747156Y-90321130D02*
X98713484Y-90422146D01*
X98747156Y-91129253D02*
X98747156Y-91196596D01*
X98747156Y-91196596D02*
X98814499Y-91196596D01*
X98814499Y-91196596D02*
X98814499Y-91129253D01*
X98814499Y-91129253D02*
X98747156Y-91129253D01*
X98747156Y-91129253D02*
X98814499Y-91196596D01*
X97703332Y-91364954D02*
X98174736Y-91836359D01*
X98006378Y-91061909D02*
X98376767Y-91432298D01*
X98376767Y-91432298D02*
X98410439Y-91533313D01*
X98410439Y-91533313D02*
X98376767Y-91634328D01*
X98376767Y-91634328D02*
X98275752Y-91735344D01*
X98275752Y-91735344D02*
X98174736Y-91769015D01*
X98174736Y-91769015D02*
X98107393Y-91769015D01*
X97838019Y-92173077D02*
X97130912Y-91465970D01*
X97501301Y-91971046D02*
X97568645Y-92442451D01*
X97097240Y-91971046D02*
X97635988Y-91971046D01*
X73507504Y-82157219D02*
X73507504Y-82966742D01*
X73507504Y-82966742D02*
X73459885Y-83061980D01*
X73459885Y-83061980D02*
X73412266Y-83109600D01*
X73412266Y-83109600D02*
X73317028Y-83157219D01*
X73317028Y-83157219D02*
X73126552Y-83157219D01*
X73126552Y-83157219D02*
X73031314Y-83109600D01*
X73031314Y-83109600D02*
X72983695Y-83061980D01*
X72983695Y-83061980D02*
X72936076Y-82966742D01*
X72936076Y-82966742D02*
X72936076Y-82157219D01*
X71983695Y-82157219D02*
X72459885Y-82157219D01*
X72459885Y-82157219D02*
X72507504Y-82633409D01*
X72507504Y-82633409D02*
X72459885Y-82585790D01*
X72459885Y-82585790D02*
X72364647Y-82538171D01*
X72364647Y-82538171D02*
X72126552Y-82538171D01*
X72126552Y-82538171D02*
X72031314Y-82585790D01*
X72031314Y-82585790D02*
X71983695Y-82633409D01*
X71983695Y-82633409D02*
X71936076Y-82728647D01*
X71936076Y-82728647D02*
X71936076Y-82966742D01*
X71936076Y-82966742D02*
X71983695Y-83061980D01*
X71983695Y-83061980D02*
X72031314Y-83109600D01*
X72031314Y-83109600D02*
X72126552Y-83157219D01*
X72126552Y-83157219D02*
X72364647Y-83157219D01*
X72364647Y-83157219D02*
X72459885Y-83109600D01*
X72459885Y-83109600D02*
X72507504Y-83061980D01*
X75666504Y-69990619D02*
X75666504Y-70800142D01*
X75666504Y-70800142D02*
X75618885Y-70895380D01*
X75618885Y-70895380D02*
X75571266Y-70943000D01*
X75571266Y-70943000D02*
X75476028Y-70990619D01*
X75476028Y-70990619D02*
X75285552Y-70990619D01*
X75285552Y-70990619D02*
X75190314Y-70943000D01*
X75190314Y-70943000D02*
X75142695Y-70895380D01*
X75142695Y-70895380D02*
X75095076Y-70800142D01*
X75095076Y-70800142D02*
X75095076Y-69990619D01*
X74095076Y-70990619D02*
X74666504Y-70990619D01*
X74380790Y-70990619D02*
X74380790Y-69990619D01*
X74380790Y-69990619D02*
X74476028Y-70133476D01*
X74476028Y-70133476D02*
X74571266Y-70228714D01*
X74571266Y-70228714D02*
X74666504Y-70276333D01*
X109873894Y-48756219D02*
X109873894Y-49565742D01*
X109873894Y-49565742D02*
X109826275Y-49660980D01*
X109826275Y-49660980D02*
X109778656Y-49708600D01*
X109778656Y-49708600D02*
X109683418Y-49756219D01*
X109683418Y-49756219D02*
X109492942Y-49756219D01*
X109492942Y-49756219D02*
X109397704Y-49708600D01*
X109397704Y-49708600D02*
X109350085Y-49660980D01*
X109350085Y-49660980D02*
X109302466Y-49565742D01*
X109302466Y-49565742D02*
X109302466Y-48756219D01*
X108302466Y-49756219D02*
X108873894Y-49756219D01*
X108588180Y-49756219D02*
X108588180Y-48756219D01*
X108588180Y-48756219D02*
X108683418Y-48899076D01*
X108683418Y-48899076D02*
X108778656Y-48994314D01*
X108778656Y-48994314D02*
X108873894Y-49041933D01*
X107826275Y-49756219D02*
X107635799Y-49756219D01*
X107635799Y-49756219D02*
X107540561Y-49708600D01*
X107540561Y-49708600D02*
X107492942Y-49660980D01*
X107492942Y-49660980D02*
X107397704Y-49518123D01*
X107397704Y-49518123D02*
X107350085Y-49327647D01*
X107350085Y-49327647D02*
X107350085Y-48946695D01*
X107350085Y-48946695D02*
X107397704Y-48851457D01*
X107397704Y-48851457D02*
X107445323Y-48803838D01*
X107445323Y-48803838D02*
X107540561Y-48756219D01*
X107540561Y-48756219D02*
X107731037Y-48756219D01*
X107731037Y-48756219D02*
X107826275Y-48803838D01*
X107826275Y-48803838D02*
X107873894Y-48851457D01*
X107873894Y-48851457D02*
X107921513Y-48946695D01*
X107921513Y-48946695D02*
X107921513Y-49184790D01*
X107921513Y-49184790D02*
X107873894Y-49280028D01*
X107873894Y-49280028D02*
X107826275Y-49327647D01*
X107826275Y-49327647D02*
X107731037Y-49375266D01*
X107731037Y-49375266D02*
X107540561Y-49375266D01*
X107540561Y-49375266D02*
X107445323Y-49327647D01*
X107445323Y-49327647D02*
X107397704Y-49280028D01*
X107397704Y-49280028D02*
X107350085Y-49184790D01*
X99307494Y-68669819D02*
X99307494Y-69479342D01*
X99307494Y-69479342D02*
X99259875Y-69574580D01*
X99259875Y-69574580D02*
X99212256Y-69622200D01*
X99212256Y-69622200D02*
X99117018Y-69669819D01*
X99117018Y-69669819D02*
X98926542Y-69669819D01*
X98926542Y-69669819D02*
X98831304Y-69622200D01*
X98831304Y-69622200D02*
X98783685Y-69574580D01*
X98783685Y-69574580D02*
X98736066Y-69479342D01*
X98736066Y-69479342D02*
X98736066Y-68669819D01*
X97736066Y-69669819D02*
X98307494Y-69669819D01*
X98021780Y-69669819D02*
X98021780Y-68669819D01*
X98021780Y-68669819D02*
X98117018Y-68812676D01*
X98117018Y-68812676D02*
X98212256Y-68907914D01*
X98212256Y-68907914D02*
X98307494Y-68955533D01*
X97402732Y-68669819D02*
X96783685Y-68669819D01*
X96783685Y-68669819D02*
X97117018Y-69050771D01*
X97117018Y-69050771D02*
X96974161Y-69050771D01*
X96974161Y-69050771D02*
X96878923Y-69098390D01*
X96878923Y-69098390D02*
X96831304Y-69146009D01*
X96831304Y-69146009D02*
X96783685Y-69241247D01*
X96783685Y-69241247D02*
X96783685Y-69479342D01*
X96783685Y-69479342D02*
X96831304Y-69574580D01*
X96831304Y-69574580D02*
X96878923Y-69622200D01*
X96878923Y-69622200D02*
X96974161Y-69669819D01*
X96974161Y-69669819D02*
X97259875Y-69669819D01*
X97259875Y-69669819D02*
X97355113Y-69622200D01*
X97355113Y-69622200D02*
X97402732Y-69574580D01*
X59238304Y-49943219D02*
X59238304Y-50752742D01*
X59238304Y-50752742D02*
X59190685Y-50847980D01*
X59190685Y-50847980D02*
X59143066Y-50895600D01*
X59143066Y-50895600D02*
X59047828Y-50943219D01*
X59047828Y-50943219D02*
X58857352Y-50943219D01*
X58857352Y-50943219D02*
X58762114Y-50895600D01*
X58762114Y-50895600D02*
X58714495Y-50847980D01*
X58714495Y-50847980D02*
X58666876Y-50752742D01*
X58666876Y-50752742D02*
X58666876Y-49943219D01*
X58238304Y-50038457D02*
X58190685Y-49990838D01*
X58190685Y-49990838D02*
X58095447Y-49943219D01*
X58095447Y-49943219D02*
X57857352Y-49943219D01*
X57857352Y-49943219D02*
X57762114Y-49990838D01*
X57762114Y-49990838D02*
X57714495Y-50038457D01*
X57714495Y-50038457D02*
X57666876Y-50133695D01*
X57666876Y-50133695D02*
X57666876Y-50228933D01*
X57666876Y-50228933D02*
X57714495Y-50371790D01*
X57714495Y-50371790D02*
X58285923Y-50943219D01*
X58285923Y-50943219D02*
X57666876Y-50943219D01*
X110280294Y-92469619D02*
X110280294Y-93279142D01*
X110280294Y-93279142D02*
X110232675Y-93374380D01*
X110232675Y-93374380D02*
X110185056Y-93422000D01*
X110185056Y-93422000D02*
X110089818Y-93469619D01*
X110089818Y-93469619D02*
X109899342Y-93469619D01*
X109899342Y-93469619D02*
X109804104Y-93422000D01*
X109804104Y-93422000D02*
X109756485Y-93374380D01*
X109756485Y-93374380D02*
X109708866Y-93279142D01*
X109708866Y-93279142D02*
X109708866Y-92469619D01*
X108708866Y-93469619D02*
X109280294Y-93469619D01*
X108994580Y-93469619D02*
X108994580Y-92469619D01*
X108994580Y-92469619D02*
X109089818Y-92612476D01*
X109089818Y-92612476D02*
X109185056Y-92707714D01*
X109185056Y-92707714D02*
X109280294Y-92755333D01*
X107851723Y-92802952D02*
X107851723Y-93469619D01*
X108089818Y-92422000D02*
X108327913Y-93136285D01*
X108327913Y-93136285D02*
X107708866Y-93136285D01*
X88131494Y-101054819D02*
X88131494Y-101864342D01*
X88131494Y-101864342D02*
X88083875Y-101959580D01*
X88083875Y-101959580D02*
X88036256Y-102007200D01*
X88036256Y-102007200D02*
X87941018Y-102054819D01*
X87941018Y-102054819D02*
X87750542Y-102054819D01*
X87750542Y-102054819D02*
X87655304Y-102007200D01*
X87655304Y-102007200D02*
X87607685Y-101959580D01*
X87607685Y-101959580D02*
X87560066Y-101864342D01*
X87560066Y-101864342D02*
X87560066Y-101054819D01*
X86560066Y-102054819D02*
X87131494Y-102054819D01*
X86845780Y-102054819D02*
X86845780Y-101054819D01*
X86845780Y-101054819D02*
X86941018Y-101197676D01*
X86941018Y-101197676D02*
X87036256Y-101292914D01*
X87036256Y-101292914D02*
X87131494Y-101340533D01*
X85988637Y-101483390D02*
X86083875Y-101435771D01*
X86083875Y-101435771D02*
X86131494Y-101388152D01*
X86131494Y-101388152D02*
X86179113Y-101292914D01*
X86179113Y-101292914D02*
X86179113Y-101245295D01*
X86179113Y-101245295D02*
X86131494Y-101150057D01*
X86131494Y-101150057D02*
X86083875Y-101102438D01*
X86083875Y-101102438D02*
X85988637Y-101054819D01*
X85988637Y-101054819D02*
X85798161Y-101054819D01*
X85798161Y-101054819D02*
X85702923Y-101102438D01*
X85702923Y-101102438D02*
X85655304Y-101150057D01*
X85655304Y-101150057D02*
X85607685Y-101245295D01*
X85607685Y-101245295D02*
X85607685Y-101292914D01*
X85607685Y-101292914D02*
X85655304Y-101388152D01*
X85655304Y-101388152D02*
X85702923Y-101435771D01*
X85702923Y-101435771D02*
X85798161Y-101483390D01*
X85798161Y-101483390D02*
X85988637Y-101483390D01*
X85988637Y-101483390D02*
X86083875Y-101531009D01*
X86083875Y-101531009D02*
X86131494Y-101578628D01*
X86131494Y-101578628D02*
X86179113Y-101673866D01*
X86179113Y-101673866D02*
X86179113Y-101864342D01*
X86179113Y-101864342D02*
X86131494Y-101959580D01*
X86131494Y-101959580D02*
X86083875Y-102007200D01*
X86083875Y-102007200D02*
X85988637Y-102054819D01*
X85988637Y-102054819D02*
X85798161Y-102054819D01*
X85798161Y-102054819D02*
X85702923Y-102007200D01*
X85702923Y-102007200D02*
X85655304Y-101959580D01*
X85655304Y-101959580D02*
X85607685Y-101864342D01*
X85607685Y-101864342D02*
X85607685Y-101673866D01*
X85607685Y-101673866D02*
X85655304Y-101578628D01*
X85655304Y-101578628D02*
X85702923Y-101531009D01*
X85702923Y-101531009D02*
X85798161Y-101483390D01*
X90188894Y-68695219D02*
X90188894Y-69504742D01*
X90188894Y-69504742D02*
X90141275Y-69599980D01*
X90141275Y-69599980D02*
X90093656Y-69647600D01*
X90093656Y-69647600D02*
X89998418Y-69695219D01*
X89998418Y-69695219D02*
X89807942Y-69695219D01*
X89807942Y-69695219D02*
X89712704Y-69647600D01*
X89712704Y-69647600D02*
X89665085Y-69599980D01*
X89665085Y-69599980D02*
X89617466Y-69504742D01*
X89617466Y-69504742D02*
X89617466Y-68695219D01*
X88617466Y-69695219D02*
X89188894Y-69695219D01*
X88903180Y-69695219D02*
X88903180Y-68695219D01*
X88903180Y-68695219D02*
X88998418Y-68838076D01*
X88998418Y-68838076D02*
X89093656Y-68933314D01*
X89093656Y-68933314D02*
X89188894Y-68980933D01*
X88236513Y-68790457D02*
X88188894Y-68742838D01*
X88188894Y-68742838D02*
X88093656Y-68695219D01*
X88093656Y-68695219D02*
X87855561Y-68695219D01*
X87855561Y-68695219D02*
X87760323Y-68742838D01*
X87760323Y-68742838D02*
X87712704Y-68790457D01*
X87712704Y-68790457D02*
X87665085Y-68885695D01*
X87665085Y-68885695D02*
X87665085Y-68980933D01*
X87665085Y-68980933D02*
X87712704Y-69123790D01*
X87712704Y-69123790D02*
X88284132Y-69695219D01*
X88284132Y-69695219D02*
X87665085Y-69695219D01*
X79151904Y-42507819D02*
X79151904Y-43317342D01*
X79151904Y-43317342D02*
X79104285Y-43412580D01*
X79104285Y-43412580D02*
X79056666Y-43460200D01*
X79056666Y-43460200D02*
X78961428Y-43507819D01*
X78961428Y-43507819D02*
X78770952Y-43507819D01*
X78770952Y-43507819D02*
X78675714Y-43460200D01*
X78675714Y-43460200D02*
X78628095Y-43412580D01*
X78628095Y-43412580D02*
X78580476Y-43317342D01*
X78580476Y-43317342D02*
X78580476Y-42507819D01*
X77675714Y-42841152D02*
X77675714Y-43507819D01*
X77913809Y-42460200D02*
X78151904Y-43174485D01*
X78151904Y-43174485D02*
X77532857Y-43174485D01*
X65601694Y-104509219D02*
X65601694Y-105318742D01*
X65601694Y-105318742D02*
X65554075Y-105413980D01*
X65554075Y-105413980D02*
X65506456Y-105461600D01*
X65506456Y-105461600D02*
X65411218Y-105509219D01*
X65411218Y-105509219D02*
X65220742Y-105509219D01*
X65220742Y-105509219D02*
X65125504Y-105461600D01*
X65125504Y-105461600D02*
X65077885Y-105413980D01*
X65077885Y-105413980D02*
X65030266Y-105318742D01*
X65030266Y-105318742D02*
X65030266Y-104509219D01*
X64030266Y-105509219D02*
X64601694Y-105509219D01*
X64315980Y-105509219D02*
X64315980Y-104509219D01*
X64315980Y-104509219D02*
X64411218Y-104652076D01*
X64411218Y-104652076D02*
X64506456Y-104747314D01*
X64506456Y-104747314D02*
X64601694Y-104794933D01*
X63696932Y-104509219D02*
X63030266Y-104509219D01*
X63030266Y-104509219D02*
X63458837Y-105509219D01*
X63017304Y-82004819D02*
X63017304Y-82814342D01*
X63017304Y-82814342D02*
X62969685Y-82909580D01*
X62969685Y-82909580D02*
X62922066Y-82957200D01*
X62922066Y-82957200D02*
X62826828Y-83004819D01*
X62826828Y-83004819D02*
X62636352Y-83004819D01*
X62636352Y-83004819D02*
X62541114Y-82957200D01*
X62541114Y-82957200D02*
X62493495Y-82909580D01*
X62493495Y-82909580D02*
X62445876Y-82814342D01*
X62445876Y-82814342D02*
X62445876Y-82004819D01*
X61541114Y-82004819D02*
X61731590Y-82004819D01*
X61731590Y-82004819D02*
X61826828Y-82052438D01*
X61826828Y-82052438D02*
X61874447Y-82100057D01*
X61874447Y-82100057D02*
X61969685Y-82242914D01*
X61969685Y-82242914D02*
X62017304Y-82433390D01*
X62017304Y-82433390D02*
X62017304Y-82814342D01*
X62017304Y-82814342D02*
X61969685Y-82909580D01*
X61969685Y-82909580D02*
X61922066Y-82957200D01*
X61922066Y-82957200D02*
X61826828Y-83004819D01*
X61826828Y-83004819D02*
X61636352Y-83004819D01*
X61636352Y-83004819D02*
X61541114Y-82957200D01*
X61541114Y-82957200D02*
X61493495Y-82909580D01*
X61493495Y-82909580D02*
X61445876Y-82814342D01*
X61445876Y-82814342D02*
X61445876Y-82576247D01*
X61445876Y-82576247D02*
X61493495Y-82481009D01*
X61493495Y-82481009D02*
X61541114Y-82433390D01*
X61541114Y-82433390D02*
X61636352Y-82385771D01*
X61636352Y-82385771D02*
X61826828Y-82385771D01*
X61826828Y-82385771D02*
X61922066Y-82433390D01*
X61922066Y-82433390D02*
X61969685Y-82481009D01*
X61969685Y-82481009D02*
X62017304Y-82576247D01*
D11*
%TO.C,R28*%
X86628500Y-107822276D02*
X86628500Y-108331724D01*
X85583500Y-107822276D02*
X85583500Y-108331724D01*
%TO.C,C27*%
X82506051Y-81410198D02*
X82299198Y-81617051D01*
X81784802Y-80688949D02*
X81577949Y-80895802D01*
%TO.C,R49*%
X58278500Y-83947724D02*
X58278500Y-83438276D01*
X59323500Y-83947724D02*
X59323500Y-83438276D01*
%TO.C,C34*%
X95738733Y-71245000D02*
X96031267Y-71245000D01*
X95738733Y-72265000D02*
X96031267Y-72265000D01*
%TO.C,C56*%
X100804733Y-58012000D02*
X101097267Y-58012000D01*
X100804733Y-59032000D02*
X101097267Y-59032000D01*
%TO.C,U5*%
X68337000Y-77851000D02*
X68337000Y-79801000D01*
X68337000Y-77851000D02*
X68337000Y-75901000D01*
X73457000Y-77851000D02*
X73457000Y-81301000D01*
X73457000Y-77851000D02*
X73457000Y-75901000D01*
%TO.C,R48*%
X60959276Y-84059500D02*
X61468724Y-84059500D01*
X60959276Y-85104500D02*
X61468724Y-85104500D01*
%TO.C,C8*%
X73816000Y-59328267D02*
X73816000Y-59035733D01*
X74836000Y-59328267D02*
X74836000Y-59035733D01*
%TO.C,R18*%
X107275100Y-43307724D02*
X107275100Y-42798276D01*
X108320100Y-43307724D02*
X108320100Y-42798276D01*
%TO.C,U1*%
X71551000Y-61305000D02*
X71551000Y-67315000D01*
X78371000Y-63555000D02*
X78371000Y-67315000D01*
X78371000Y-67315000D02*
X77111000Y-67315000D01*
X71551000Y-67315000D02*
X72811000Y-67315000D01*
%TO.C,Y3*%
X97823000Y-47208000D02*
X92423000Y-47208000D01*
X97823000Y-42708000D02*
X97823000Y-47208000D01*
%TO.C,R40*%
X65548500Y-43815724D02*
X65548500Y-43306276D01*
X66593500Y-43815724D02*
X66593500Y-43306276D01*
%TO.C,C49*%
X53973000Y-79521267D02*
X53973000Y-79228733D01*
X54993000Y-79521267D02*
X54993000Y-79228733D01*
%TO.C,C77*%
X116185733Y-53338000D02*
X116478267Y-53338000D01*
X116185733Y-54358000D02*
X116478267Y-54358000D01*
%TO.C,C79*%
X116185733Y-54989000D02*
X116478267Y-54989000D01*
X116185733Y-56009000D02*
X116478267Y-56009000D01*
%TO.C,C15*%
X61796200Y-63290667D02*
X61796200Y-62998133D01*
X62816200Y-63290667D02*
X62816200Y-62998133D01*
%TO.C,R39*%
X102428524Y-96407500D02*
X101919076Y-96407500D01*
X102428524Y-95362500D02*
X101919076Y-95362500D01*
%TO.C,C57*%
X105548733Y-92073000D02*
X105841267Y-92073000D01*
X105548733Y-93093000D02*
X105841267Y-93093000D01*
%TO.C,C13*%
X68433733Y-60196000D02*
X68726267Y-60196000D01*
X68433733Y-61216000D02*
X68726267Y-61216000D01*
D12*
%TO.C,U19*%
X110738800Y-45887400D02*
X110738800Y-46257400D01*
X106278800Y-45887400D02*
X106278800Y-46257400D01*
X110738800Y-47887400D02*
X110738800Y-47517400D01*
X106278800Y-47887400D02*
X106278800Y-47517400D01*
D13*
X106808800Y-44852400D02*
G75*
G03*
X106608800Y-44852400I-100000J0D01*
G01*
X106608800Y-44852400D02*
G75*
G03*
X106808800Y-44852400I100000J0D01*
G01*
D12*
%TO.C,BT1*%
X107566000Y-69153000D02*
X107566000Y-73003000D01*
X107566000Y-69153000D02*
X113416000Y-69153000D01*
X107566000Y-73003000D02*
X109991000Y-73003000D01*
X119891000Y-73003000D02*
X122366000Y-73003000D01*
X122366000Y-69153000D02*
X116516000Y-69153000D01*
X122366000Y-73003000D02*
X122366000Y-69153000D01*
X109991000Y-73003000D02*
G75*
G03*
X113441001Y-85728001I4949391J-5488304D01*
G01*
X116490999Y-85728000D02*
G75*
G03*
X119940999Y-73003001I-1499390J7236696D01*
G01*
D14*
X114977803Y-67228000D02*
G75*
G03*
X114754197Y-67228000I-111803J0D01*
G01*
X114754197Y-67228000D02*
G75*
G03*
X114977803Y-67228000I111803J0D01*
G01*
D11*
%TO.C,C3*%
X55029233Y-67816000D02*
X55321767Y-67816000D01*
X55029233Y-68836000D02*
X55321767Y-68836000D01*
%TO.C,Y2*%
X82982000Y-41445000D02*
X88382000Y-41445000D01*
X82982000Y-45945000D02*
X82982000Y-41445000D01*
%TO.C,C20*%
X75059000Y-75418733D02*
X75059000Y-75711267D01*
X74039000Y-75418733D02*
X74039000Y-75711267D01*
%TO.C,C11*%
X68726267Y-66067400D02*
X68433733Y-66067400D01*
X68726267Y-65047400D02*
X68433733Y-65047400D01*
%TO.C,C32*%
X95738733Y-76960000D02*
X96031267Y-76960000D01*
X95738733Y-77980000D02*
X96031267Y-77980000D01*
%TO.C,C24*%
X78992000Y-66694267D02*
X78992000Y-66401733D01*
X80012000Y-66694267D02*
X80012000Y-66401733D01*
%TO.C,R53*%
X76200724Y-105424500D02*
X75691276Y-105424500D01*
X76200724Y-104379500D02*
X75691276Y-104379500D01*
%TO.C,C40*%
X98296000Y-44469267D02*
X98296000Y-44176733D01*
X99316000Y-44469267D02*
X99316000Y-44176733D01*
%TO.C,R27*%
X88279500Y-107822276D02*
X88279500Y-108331724D01*
X87234500Y-107822276D02*
X87234500Y-108331724D01*
%TO.C,C59*%
X97033267Y-59032000D02*
X96740733Y-59032000D01*
X97033267Y-58012000D02*
X96740733Y-58012000D01*
%TO.C,C16*%
X61518267Y-61216000D02*
X61225733Y-61216000D01*
X61518267Y-60196000D02*
X61225733Y-60196000D01*
%TO.C,R17*%
X105751100Y-43307724D02*
X105751100Y-42798276D01*
X106796100Y-43307724D02*
X106796100Y-42798276D01*
%TO.C,C4*%
X55295267Y-67185000D02*
X55002733Y-67185000D01*
X55295267Y-66165000D02*
X55002733Y-66165000D01*
%TO.C,R6*%
X110631500Y-107822276D02*
X110631500Y-108331724D01*
X109586500Y-107822276D02*
X109586500Y-108331724D01*
%TO.C,C29*%
X87169144Y-74629658D02*
X87169144Y-74348498D01*
X88189144Y-74629658D02*
X88189144Y-74348498D01*
%TO.C,R7*%
X105709500Y-107822276D02*
X105709500Y-108331724D01*
X104664500Y-107822276D02*
X104664500Y-108331724D01*
%TO.C,C17*%
X90404733Y-48131000D02*
X90697267Y-48131000D01*
X90404733Y-49151000D02*
X90697267Y-49151000D01*
%TO.C,C55*%
X91547733Y-58037000D02*
X91840267Y-58037000D01*
X91547733Y-59057000D02*
X91840267Y-59057000D01*
%TO.C,C33*%
X90217144Y-74629658D02*
X90217144Y-74348498D01*
X91237144Y-74629658D02*
X91237144Y-74348498D01*
%TO.C,R13*%
X91866500Y-84200276D02*
X91866500Y-84709724D01*
X90821500Y-84200276D02*
X90821500Y-84709724D01*
%TO.C,R52*%
X68834724Y-105424500D02*
X68325276Y-105424500D01*
X68834724Y-104379500D02*
X68325276Y-104379500D01*
%TO.C,C35*%
X90600724Y-77298078D02*
X90319564Y-77298078D01*
X90600724Y-76278078D02*
X90319564Y-76278078D01*
%TO.C,C41*%
X91950000Y-44176733D02*
X91950000Y-44469267D01*
X90930000Y-44176733D02*
X90930000Y-44469267D01*
%TO.C,R3*%
X55403724Y-62625500D02*
X54894276Y-62625500D01*
X55403724Y-61580500D02*
X54894276Y-61580500D01*
%TO.C,C31*%
X88693144Y-74629658D02*
X88693144Y-74348498D01*
X89713144Y-74629658D02*
X89713144Y-74348498D01*
%TO.C,R50*%
X116077276Y-56627500D02*
X116586724Y-56627500D01*
X116077276Y-57672500D02*
X116586724Y-57672500D01*
%TO.C,R32*%
X104933724Y-103011500D02*
X104424276Y-103011500D01*
X104933724Y-101966500D02*
X104424276Y-101966500D01*
%TO.C,C12*%
X68460233Y-63498000D02*
X68752767Y-63498000D01*
X68460233Y-64518000D02*
X68752767Y-64518000D01*
%TO.C,R14*%
X83016420Y-82614654D02*
X83376654Y-82254420D01*
X83755346Y-83353580D02*
X84115580Y-82993346D01*
%TO.C,C5*%
X66165000Y-58312267D02*
X66165000Y-58019733D01*
X67185000Y-58312267D02*
X67185000Y-58019733D01*
%TO.C,C30*%
X95738733Y-79449200D02*
X96031267Y-79449200D01*
X95738733Y-80469200D02*
X96031267Y-80469200D01*
%TO.C,C14*%
X75467000Y-59328267D02*
X75467000Y-59035733D01*
X76487000Y-59328267D02*
X76487000Y-59035733D01*
%TO.C,R8*%
X115361500Y-107822276D02*
X115361500Y-108331724D01*
X114316500Y-107822276D02*
X114316500Y-108331724D01*
%TO.C,C10*%
X64674533Y-65047400D02*
X64967067Y-65047400D01*
X64674533Y-66067400D02*
X64967067Y-66067400D01*
%TO.C,C84*%
X105031000Y-46716733D02*
X105031000Y-47009267D01*
X104011000Y-46716733D02*
X104011000Y-47009267D01*
%TO.C,R31*%
X95391500Y-107822276D02*
X95391500Y-108331724D01*
X94346500Y-107822276D02*
X94346500Y-108331724D01*
%TO.C,C85*%
X112113600Y-47085467D02*
X112113600Y-46792933D01*
X113133600Y-47085467D02*
X113133600Y-46792933D01*
%TO.C,R47*%
X64770724Y-85104500D02*
X64261276Y-85104500D01*
X64770724Y-84059500D02*
X64261276Y-84059500D01*
%TO.C,U13*%
X94620000Y-59883000D02*
X94620000Y-65893000D01*
X101440000Y-62133000D02*
X101440000Y-65893000D01*
X101440000Y-65893000D02*
X100180000Y-65893000D01*
X94620000Y-65893000D02*
X95880000Y-65893000D01*
%TO.C,C82*%
X88411267Y-91315000D02*
X88118733Y-91315000D01*
X88411267Y-90295000D02*
X88118733Y-90295000D01*
%TO.C,U2*%
X53821000Y-58776000D02*
X54081000Y-58776000D01*
X59011000Y-58776000D02*
X59011000Y-60451000D01*
X59271000Y-58776000D02*
X59011000Y-58776000D01*
X53821000Y-56051000D02*
X53821000Y-58776000D01*
X53821000Y-56051000D02*
X53821000Y-53326000D01*
X59271000Y-56051000D02*
X59271000Y-58776000D01*
X59271000Y-56051000D02*
X59271000Y-53326000D01*
X53821000Y-53326000D02*
X54081000Y-53326000D01*
X59271000Y-53326000D02*
X59011000Y-53326000D01*
%TO.C,C18*%
X70657000Y-46704000D02*
X70657000Y-42319000D01*
X73677000Y-46704000D02*
X70657000Y-46704000D01*
X73677000Y-42319000D02*
X73677000Y-46704000D01*
%TO.C,C19*%
X77118000Y-59328267D02*
X77118000Y-59035733D01*
X78138000Y-59328267D02*
X78138000Y-59035733D01*
%TO.C,R2*%
X55403724Y-65546500D02*
X54894276Y-65546500D01*
X55403724Y-64501500D02*
X54894276Y-64501500D01*
%TO.C,R5*%
X100852500Y-107822276D02*
X100852500Y-108331724D01*
X99807500Y-107822276D02*
X99807500Y-108331724D01*
%TO.C,C25*%
X93343000Y-68853267D02*
X93343000Y-68560733D01*
X94363000Y-68853267D02*
X94363000Y-68560733D01*
%TO.C,C21*%
X62529000Y-53181000D02*
X62529000Y-48796000D01*
X65549000Y-53181000D02*
X62529000Y-53181000D01*
X65549000Y-48796000D02*
X65549000Y-53181000D01*
%TO.C,C75*%
X83032000Y-85633000D02*
X83032000Y-93693000D01*
X78512000Y-85633000D02*
X83032000Y-85633000D01*
X78512000Y-93693000D02*
X78512000Y-85633000D01*
%TO.C,C81*%
X55243000Y-83839267D02*
X55243000Y-83546733D01*
X56263000Y-83839267D02*
X56263000Y-83546733D01*
%TO.C,C7*%
X72165000Y-59301767D02*
X72165000Y-59009233D01*
X73185000Y-59301767D02*
X73185000Y-59009233D01*
%TO.C,R41*%
X103758276Y-68946500D02*
X104267724Y-68946500D01*
X103758276Y-69991500D02*
X104267724Y-69991500D01*
%TO.C,C44*%
X113286000Y-66401733D02*
X113286000Y-66694267D01*
X112266000Y-66401733D02*
X112266000Y-66694267D01*
%TO.C,C80*%
X119995733Y-56640000D02*
X120288267Y-56640000D01*
X119995733Y-57660000D02*
X120288267Y-57660000D01*
%TO.C,U14*%
X104405000Y-97790000D02*
X104405000Y-99740000D01*
X104405000Y-97790000D02*
X104405000Y-95840000D01*
X109525000Y-97790000D02*
X109525000Y-101240000D01*
X109525000Y-97790000D02*
X109525000Y-95840000D01*
%TO.C,C50*%
X59688000Y-79521267D02*
X59688000Y-79228733D01*
X60708000Y-79521267D02*
X60708000Y-79228733D01*
%TO.C,C48*%
X59057000Y-71989733D02*
X59057000Y-72282267D01*
X58037000Y-71989733D02*
X58037000Y-72282267D01*
%TO.C,R11*%
X65771500Y-72263724D02*
X65771500Y-71754276D01*
X66816500Y-72263724D02*
X66816500Y-71754276D01*
%TO.C,R37*%
X102495324Y-98058500D02*
X101985876Y-98058500D01*
X102495324Y-97013500D02*
X101985876Y-97013500D01*
%TO.C,C60*%
X80417000Y-68353500D02*
X80417000Y-60293500D01*
X84937000Y-68353500D02*
X80417000Y-68353500D01*
X84937000Y-60293500D02*
X84937000Y-68353500D01*
%TO.C,Q2*%
X93793000Y-108331000D02*
X93793000Y-107681000D01*
X93793000Y-108331000D02*
X93793000Y-108981000D01*
X90673000Y-108331000D02*
X90673000Y-106656000D01*
X90673000Y-108331000D02*
X90673000Y-108981000D01*
%TO.C,C76*%
X85109267Y-91315000D02*
X84816733Y-91315000D01*
X85109267Y-90295000D02*
X84816733Y-90295000D01*
%TO.C,C22*%
X84728267Y-47627000D02*
X84435733Y-47627000D01*
X84728267Y-46607000D02*
X84435733Y-46607000D01*
%TO.C,C28*%
X89283000Y-82657733D02*
X89283000Y-82950267D01*
X88263000Y-82657733D02*
X88263000Y-82950267D01*
%TO.C,R54*%
X56754500Y-83947724D02*
X56754500Y-83438276D01*
X57799500Y-83947724D02*
X57799500Y-83438276D01*
%TO.C,U18*%
X83458000Y-92293000D02*
X83458000Y-98303000D01*
X90278000Y-94543000D02*
X90278000Y-98303000D01*
X90278000Y-98303000D02*
X89018000Y-98303000D01*
X83458000Y-98303000D02*
X84718000Y-98303000D01*
%TO.C,C78*%
X119995733Y-54989000D02*
X120288267Y-54989000D01*
X119995733Y-56009000D02*
X120288267Y-56009000D01*
%TO.C,C52*%
X111810267Y-99062000D02*
X111517733Y-99062000D01*
X111810267Y-98042000D02*
X111517733Y-98042000D01*
%TO.C,C6*%
X62894000Y-58312267D02*
X62894000Y-58019733D01*
X63914000Y-58312267D02*
X63914000Y-58019733D01*
%TO.C,C51*%
X74039000Y-80664267D02*
X74039000Y-80371733D01*
X75059000Y-80664267D02*
X75059000Y-80371733D01*
%TO.C,C61*%
X101993000Y-68455500D02*
X101993000Y-60395500D01*
X106513000Y-68455500D02*
X101993000Y-68455500D01*
X106513000Y-60395500D02*
X106513000Y-68455500D01*
%TO.C,R25*%
X70626500Y-107822276D02*
X70626500Y-108331724D01*
X69581500Y-107822276D02*
X69581500Y-108331724D01*
%TO.C,C83*%
X111355600Y-42906733D02*
X111355600Y-43199267D01*
X110335600Y-42906733D02*
X110335600Y-43199267D01*
%TO.C,U12*%
X85490000Y-59908000D02*
X85490000Y-65918000D01*
X92310000Y-62158000D02*
X92310000Y-65918000D01*
X92310000Y-65918000D02*
X91050000Y-65918000D01*
X85490000Y-65918000D02*
X86750000Y-65918000D01*
%TO.C,C1*%
X72409267Y-48135000D02*
X72116733Y-48135000D01*
X72409267Y-47115000D02*
X72116733Y-47115000D01*
D10*
%TO.C,U4*%
X80465000Y-51689000D02*
X80465000Y-51209000D01*
X80465000Y-51689000D02*
X76315000Y-51689000D01*
X80465000Y-42009000D02*
X81590000Y-42009000D01*
X80465000Y-41529000D02*
X80465000Y-42009000D01*
X80465000Y-41529000D02*
X76315000Y-41529000D01*
X76315000Y-51689000D02*
X76315000Y-51209000D01*
X76315000Y-41529000D02*
X76315000Y-42009000D01*
D11*
%TO.C,U17*%
X77240000Y-86574000D02*
X76620000Y-86574000D01*
X60620000Y-86574000D02*
X60620000Y-85964000D01*
X60620000Y-86574000D02*
X53000000Y-86574000D01*
X53000000Y-86574000D02*
X53000000Y-102814000D01*
X77240000Y-88694000D02*
X77240000Y-86574000D01*
X77240000Y-102814000D02*
X77240000Y-100694000D01*
X76620000Y-102814000D02*
X77240000Y-102814000D01*
X53000000Y-102814000D02*
X60620000Y-102814000D01*
%TO.C,C58*%
X87903267Y-59057000D02*
X87610733Y-59057000D01*
X87903267Y-58037000D02*
X87610733Y-58037000D01*
%TO.C,U6*%
X61575000Y-77851000D02*
X61575000Y-79801000D01*
X61575000Y-77851000D02*
X61575000Y-75901000D01*
X66695000Y-77851000D02*
X66695000Y-81301000D01*
X66695000Y-77851000D02*
X66695000Y-75901000D01*
%TO.C,R1*%
X55530724Y-50560500D02*
X55021276Y-50560500D01*
X55530724Y-49515500D02*
X55021276Y-49515500D01*
%TO.C,R9*%
X62977500Y-72263724D02*
X62977500Y-71754276D01*
X64022500Y-72263724D02*
X64022500Y-71754276D01*
%TO.C,C9*%
X67816000Y-58312267D02*
X67816000Y-58019733D01*
X68836000Y-58312267D02*
X68836000Y-58019733D01*
%TO.C,R33*%
X108362724Y-103011500D02*
X107853276Y-103011500D01*
X108362724Y-101966500D02*
X107853276Y-101966500D01*
%TO.C,R19*%
X109844100Y-42798276D02*
X109844100Y-43307724D01*
X108799100Y-42798276D02*
X108799100Y-43307724D01*
%TO.C,C47*%
X111631000Y-90062267D02*
X111631000Y-89769733D01*
X112651000Y-90062267D02*
X112651000Y-89769733D01*
%TO.C,C54*%
X102094333Y-100328000D02*
X102386867Y-100328000D01*
X102094333Y-101348000D02*
X102386867Y-101348000D01*
%TO.C,C53*%
X102386867Y-99697000D02*
X102094333Y-99697000D01*
X102386867Y-98677000D02*
X102094333Y-98677000D01*
%TO.C,C23*%
X65512733Y-82167000D02*
X65805267Y-82167000D01*
X65512733Y-83187000D02*
X65805267Y-83187000D01*
%TO.C,R51*%
X119887276Y-53325500D02*
X120396724Y-53325500D01*
X119887276Y-54370500D02*
X120396724Y-54370500D01*
%TO.C,R10*%
X90805724Y-51068500D02*
X90296276Y-51068500D01*
X90805724Y-50023500D02*
X90296276Y-50023500D01*
%TO.C,R38*%
X101884276Y-93711500D02*
X102393724Y-93711500D01*
X101884276Y-94756500D02*
X102393724Y-94756500D01*
%TO.C,R4*%
X62275500Y-57911276D02*
X62275500Y-58420724D01*
X61230500Y-57911276D02*
X61230500Y-58420724D01*
%TO.C,R26*%
X68975500Y-107822276D02*
X68975500Y-108331724D01*
X67930500Y-107822276D02*
X67930500Y-108331724D01*
%TO.C,R55*%
X72389276Y-104379500D02*
X72898724Y-104379500D01*
X72389276Y-105424500D02*
X72898724Y-105424500D01*
%TO.C,C36*%
X83738767Y-74932000D02*
X83446233Y-74932000D01*
X83738767Y-73912000D02*
X83446233Y-73912000D01*
%TO.C,R30*%
X78119500Y-107822276D02*
X78119500Y-108331724D01*
X77074500Y-107822276D02*
X77074500Y-108331724D01*
%TO.C,C26*%
X80689667Y-71960200D02*
X80397133Y-71960200D01*
X80689667Y-70940200D02*
X80397133Y-70940200D01*
%TO.C,R29*%
X69454500Y-72263724D02*
X69454500Y-71754276D01*
X70499500Y-72263724D02*
X70499500Y-71754276D01*
%TO.C,Q1*%
X76490000Y-108331000D02*
X76490000Y-107681000D01*
X76490000Y-108331000D02*
X76490000Y-108981000D01*
X73370000Y-108331000D02*
X73370000Y-106656000D01*
X73370000Y-108331000D02*
X73370000Y-108981000D01*
%TO.C,R42*%
X102393724Y-93105500D02*
X101884276Y-93105500D01*
X102393724Y-92060500D02*
X101884276Y-92060500D01*
%TO.C,C2*%
X64514000Y-58312267D02*
X64514000Y-58019733D01*
X65534000Y-58312267D02*
X65534000Y-58019733D01*
%TO.C,R34*%
X62627500Y-43815724D02*
X62627500Y-43306276D01*
X63672500Y-43815724D02*
X63672500Y-43306276D01*
%TD*%
M02*
