%TF.GenerationSoftware,KiCad,Pcbnew,7.0.10-7.0.10~ubuntu22.04.1*%
%TF.CreationDate,2024-02-20T15:26:36+02:00*%
%TF.ProjectId,karabas-mini,6b617261-6261-4732-9d6d-696e692e6b69,rev?*%
%TF.SameCoordinates,Original*%
%TF.FileFunction,Soldermask,Bot*%
%TF.FilePolarity,Negative*%
%FSLAX46Y46*%
G04 Gerber Fmt 4.6, Leading zero omitted, Abs format (unit mm)*
G04 Created by KiCad (PCBNEW 7.0.10-7.0.10~ubuntu22.04.1) date 2024-02-20 15:26:36*
%MOMM*%
%LPD*%
G01*
G04 APERTURE LIST*
G04 Aperture macros list*
%AMRoundRect*
0 Rectangle with rounded corners*
0 $1 Rounding radius*
0 $2 $3 $4 $5 $6 $7 $8 $9 X,Y pos of 4 corners*
0 Add a 4 corners polygon primitive as box body*
4,1,4,$2,$3,$4,$5,$6,$7,$8,$9,$2,$3,0*
0 Add four circle primitives for the rounded corners*
1,1,$1+$1,$2,$3*
1,1,$1+$1,$4,$5*
1,1,$1+$1,$6,$7*
1,1,$1+$1,$8,$9*
0 Add four rect primitives between the rounded corners*
20,1,$1+$1,$2,$3,$4,$5,0*
20,1,$1+$1,$4,$5,$6,$7,0*
20,1,$1+$1,$6,$7,$8,$9,0*
20,1,$1+$1,$8,$9,$2,$3,0*%
G04 Aperture macros list end*
%ADD10C,0.010000*%
%ADD11RoundRect,0.237500X-0.237500X0.250000X-0.237500X-0.250000X0.237500X-0.250000X0.237500X0.250000X0*%
%ADD12RoundRect,0.237500X0.237500X-0.250000X0.237500X0.250000X-0.237500X0.250000X-0.237500X-0.250000X0*%
%ADD13RoundRect,0.237500X0.237500X-0.300000X0.237500X0.300000X-0.237500X0.300000X-0.237500X-0.300000X0*%
%ADD14RoundRect,0.237500X-0.237500X0.300000X-0.237500X-0.300000X0.237500X-0.300000X0.237500X0.300000X0*%
%ADD15C,2.100000*%
%ADD16C,1.750000*%
%ADD17C,0.650000*%
%ADD18O,1.000000X2.100000*%
%ADD19O,1.000000X1.600000*%
%ADD20C,0.800000*%
%ADD21C,6.000000*%
%ADD22R,1.500000X1.500000*%
%ADD23C,1.500000*%
%ADD24O,2.000000X3.000000*%
%ADD25C,1.402080*%
%ADD26O,2.286000X1.524000*%
%ADD27O,1.500000X3.300000*%
%ADD28O,1.500000X2.300000*%
%ADD29R,1.000000X1.000000*%
%ADD30O,1.000000X1.000000*%
%ADD31RoundRect,0.237500X0.044194X0.380070X-0.380070X-0.044194X-0.044194X-0.380070X0.380070X0.044194X0*%
%ADD32RoundRect,0.237500X-0.300000X-0.237500X0.300000X-0.237500X0.300000X0.237500X-0.300000X0.237500X0*%
%ADD33RoundRect,0.150000X0.150000X-0.725000X0.150000X0.725000X-0.150000X0.725000X-0.150000X-0.725000X0*%
%ADD34RoundRect,0.237500X-0.250000X-0.237500X0.250000X-0.237500X0.250000X0.237500X-0.250000X0.237500X0*%
%ADD35R,1.500000X2.000000*%
%ADD36R,3.800000X2.000000*%
%ADD37R,2.100000X1.800000*%
%ADD38RoundRect,0.237500X0.250000X0.237500X-0.250000X0.237500X-0.250000X-0.237500X0.250000X-0.237500X0*%
%ADD39C,1.300000*%
%ADD40C,1.050000*%
%ADD41RoundRect,0.102000X-1.150000X2.250000X-1.150000X-2.250000X1.150000X-2.250000X1.150000X2.250000X0*%
%ADD42RoundRect,0.237500X0.300000X0.237500X-0.300000X0.237500X-0.300000X-0.237500X0.300000X-0.237500X0*%
%ADD43RoundRect,0.225000X0.250000X-0.225000X0.250000X0.225000X-0.250000X0.225000X-0.250000X-0.225000X0*%
%ADD44RoundRect,0.225000X0.225000X0.250000X-0.225000X0.250000X-0.225000X-0.250000X0.225000X-0.250000X0*%
%ADD45RoundRect,0.237500X-0.008839X-0.344715X0.344715X0.008839X0.008839X0.344715X-0.344715X-0.008839X0*%
%ADD46RoundRect,0.150000X0.150000X-0.650000X0.150000X0.650000X-0.150000X0.650000X-0.150000X-0.650000X0*%
%ADD47RoundRect,0.250001X0.924999X-0.499999X0.924999X0.499999X-0.924999X0.499999X-0.924999X-0.499999X0*%
%ADD48RoundRect,0.250000X-1.025000X0.787500X-1.025000X-0.787500X1.025000X-0.787500X1.025000X0.787500X0*%
%ADD49RoundRect,0.306000X-0.969000X2.231500X-0.969000X-2.231500X0.969000X-2.231500X0.969000X2.231500X0*%
%ADD50RoundRect,0.250000X1.025000X-0.787500X1.025000X0.787500X-1.025000X0.787500X-1.025000X-0.787500X0*%
%ADD51RoundRect,0.306000X0.969000X-2.231500X0.969000X2.231500X-0.969000X2.231500X-0.969000X-2.231500X0*%
%ADD52RoundRect,0.150000X-0.150000X0.587500X-0.150000X-0.587500X0.150000X-0.587500X0.150000X0.587500X0*%
%ADD53R,1.400000X0.400000*%
%ADD54R,1.000000X2.500000*%
%ADD55R,1.800000X1.000000*%
%ADD56RoundRect,0.150000X0.150000X-0.825000X0.150000X0.825000X-0.150000X0.825000X-0.150000X-0.825000X0*%
G04 APERTURE END LIST*
%TO.C,U19*%
D10*
X107998800Y-45650400D02*
X108001800Y-45650400D01*
X108003800Y-45650400D01*
X108006800Y-45651400D01*
X108008800Y-45651400D01*
X108011800Y-45652400D01*
X108013800Y-45653400D01*
X108016800Y-45654400D01*
X108018800Y-45655400D01*
X108020800Y-45656400D01*
X108023800Y-45658400D01*
X108025800Y-45659400D01*
X108027800Y-45661400D01*
X108029800Y-45662400D01*
X108031800Y-45664400D01*
X108033800Y-45666400D01*
X108034800Y-45668400D01*
X108036800Y-45670400D01*
X108037800Y-45672400D01*
X108039800Y-45675400D01*
X108040800Y-45677400D01*
X108041800Y-45679400D01*
X108042800Y-45682400D01*
X108043800Y-45684400D01*
X108044800Y-45687400D01*
X108044800Y-45689400D01*
X108045800Y-45692400D01*
X108045800Y-45694400D01*
X108045800Y-45697400D01*
X108045800Y-45699400D01*
X108045800Y-46424400D01*
X108045800Y-46427400D01*
X108045800Y-46430400D01*
X108045800Y-46432400D01*
X108044800Y-46435400D01*
X108044800Y-46437400D01*
X108043800Y-46440400D01*
X108042800Y-46442400D01*
X108041800Y-46445400D01*
X108040800Y-46447400D01*
X108039800Y-46450400D01*
X108037800Y-46452400D01*
X108036800Y-46454400D01*
X108034800Y-46456400D01*
X108033800Y-46458400D01*
X108031800Y-46460400D01*
X108029800Y-46462400D01*
X108027800Y-46463400D01*
X108025800Y-46465400D01*
X108023800Y-46466400D01*
X108020800Y-46468400D01*
X108018800Y-46469400D01*
X108016800Y-46470400D01*
X108013800Y-46471400D01*
X108011800Y-46472400D01*
X108008800Y-46473400D01*
X108006800Y-46473400D01*
X108003800Y-46474400D01*
X108001800Y-46474400D01*
X107998800Y-46474400D01*
X107996800Y-46475400D01*
X107821300Y-46474900D01*
X107820800Y-46475400D01*
X107818800Y-46474400D01*
X107815800Y-46474400D01*
X107813800Y-46474400D01*
X107810800Y-46473400D01*
X107808800Y-46473400D01*
X107805800Y-46472400D01*
X107803800Y-46471400D01*
X107800800Y-46470400D01*
X107798800Y-46469400D01*
X107795800Y-46468400D01*
X107793800Y-46466400D01*
X107791800Y-46465400D01*
X107789800Y-46463400D01*
X107787800Y-46462400D01*
X107785800Y-46460400D01*
X107783800Y-46458400D01*
X107782800Y-46456400D01*
X107780800Y-46454400D01*
X107779800Y-46452400D01*
X107777800Y-46449400D01*
X107776800Y-46447400D01*
X107775800Y-46445400D01*
X107774800Y-46442400D01*
X107773800Y-46440400D01*
X107772800Y-46437400D01*
X107772800Y-46435400D01*
X107771800Y-46432400D01*
X107771800Y-46430400D01*
X107771800Y-46427400D01*
X107770800Y-46424400D01*
X107770800Y-45699400D01*
X107771800Y-45697400D01*
X107771800Y-45694400D01*
X107771800Y-45692400D01*
X107772800Y-45689400D01*
X107772800Y-45687400D01*
X107773800Y-45684400D01*
X107774800Y-45682400D01*
X107775800Y-45679400D01*
X107776800Y-45677400D01*
X107777800Y-45675400D01*
X107779800Y-45672400D01*
X107780800Y-45670400D01*
X107782800Y-45668400D01*
X107783800Y-45666400D01*
X107785800Y-45664400D01*
X107787800Y-45662400D01*
X107789800Y-45661400D01*
X107791800Y-45659400D01*
X107793800Y-45658400D01*
X107795800Y-45656400D01*
X107798800Y-45655400D01*
X107800800Y-45654400D01*
X107803800Y-45653400D01*
X107805800Y-45652400D01*
X107808800Y-45651400D01*
X107810800Y-45651400D01*
X107813800Y-45650400D01*
X107815800Y-45650400D01*
X107818800Y-45650400D01*
X107820800Y-45649400D01*
X107996800Y-45649400D01*
X107998800Y-45650400D01*
G36*
X107998800Y-45650400D02*
G01*
X108001800Y-45650400D01*
X108003800Y-45650400D01*
X108006800Y-45651400D01*
X108008800Y-45651400D01*
X108011800Y-45652400D01*
X108013800Y-45653400D01*
X108016800Y-45654400D01*
X108018800Y-45655400D01*
X108020800Y-45656400D01*
X108023800Y-45658400D01*
X108025800Y-45659400D01*
X108027800Y-45661400D01*
X108029800Y-45662400D01*
X108031800Y-45664400D01*
X108033800Y-45666400D01*
X108034800Y-45668400D01*
X108036800Y-45670400D01*
X108037800Y-45672400D01*
X108039800Y-45675400D01*
X108040800Y-45677400D01*
X108041800Y-45679400D01*
X108042800Y-45682400D01*
X108043800Y-45684400D01*
X108044800Y-45687400D01*
X108044800Y-45689400D01*
X108045800Y-45692400D01*
X108045800Y-45694400D01*
X108045800Y-45697400D01*
X108045800Y-45699400D01*
X108045800Y-46424400D01*
X108045800Y-46427400D01*
X108045800Y-46430400D01*
X108045800Y-46432400D01*
X108044800Y-46435400D01*
X108044800Y-46437400D01*
X108043800Y-46440400D01*
X108042800Y-46442400D01*
X108041800Y-46445400D01*
X108040800Y-46447400D01*
X108039800Y-46450400D01*
X108037800Y-46452400D01*
X108036800Y-46454400D01*
X108034800Y-46456400D01*
X108033800Y-46458400D01*
X108031800Y-46460400D01*
X108029800Y-46462400D01*
X108027800Y-46463400D01*
X108025800Y-46465400D01*
X108023800Y-46466400D01*
X108020800Y-46468400D01*
X108018800Y-46469400D01*
X108016800Y-46470400D01*
X108013800Y-46471400D01*
X108011800Y-46472400D01*
X108008800Y-46473400D01*
X108006800Y-46473400D01*
X108003800Y-46474400D01*
X108001800Y-46474400D01*
X107998800Y-46474400D01*
X107996800Y-46475400D01*
X107821300Y-46474900D01*
X107820800Y-46475400D01*
X107818800Y-46474400D01*
X107815800Y-46474400D01*
X107813800Y-46474400D01*
X107810800Y-46473400D01*
X107808800Y-46473400D01*
X107805800Y-46472400D01*
X107803800Y-46471400D01*
X107800800Y-46470400D01*
X107798800Y-46469400D01*
X107795800Y-46468400D01*
X107793800Y-46466400D01*
X107791800Y-46465400D01*
X107789800Y-46463400D01*
X107787800Y-46462400D01*
X107785800Y-46460400D01*
X107783800Y-46458400D01*
X107782800Y-46456400D01*
X107780800Y-46454400D01*
X107779800Y-46452400D01*
X107777800Y-46449400D01*
X107776800Y-46447400D01*
X107775800Y-46445400D01*
X107774800Y-46442400D01*
X107773800Y-46440400D01*
X107772800Y-46437400D01*
X107772800Y-46435400D01*
X107771800Y-46432400D01*
X107771800Y-46430400D01*
X107771800Y-46427400D01*
X107770800Y-46424400D01*
X107770800Y-45699400D01*
X107771800Y-45697400D01*
X107771800Y-45694400D01*
X107771800Y-45692400D01*
X107772800Y-45689400D01*
X107772800Y-45687400D01*
X107773800Y-45684400D01*
X107774800Y-45682400D01*
X107775800Y-45679400D01*
X107776800Y-45677400D01*
X107777800Y-45675400D01*
X107779800Y-45672400D01*
X107780800Y-45670400D01*
X107782800Y-45668400D01*
X107783800Y-45666400D01*
X107785800Y-45664400D01*
X107787800Y-45662400D01*
X107789800Y-45661400D01*
X107791800Y-45659400D01*
X107793800Y-45658400D01*
X107795800Y-45656400D01*
X107798800Y-45655400D01*
X107800800Y-45654400D01*
X107803800Y-45653400D01*
X107805800Y-45652400D01*
X107808800Y-45651400D01*
X107810800Y-45651400D01*
X107813800Y-45650400D01*
X107815800Y-45650400D01*
X107818800Y-45650400D01*
X107820800Y-45649400D01*
X107996800Y-45649400D01*
X107998800Y-45650400D01*
G37*
X107598800Y-45650400D02*
X107601800Y-45650400D01*
X107603800Y-45650400D01*
X107606800Y-45651400D01*
X107608800Y-45651400D01*
X107611800Y-45652400D01*
X107613800Y-45653400D01*
X107616800Y-45654400D01*
X107618800Y-45655400D01*
X107621800Y-45656400D01*
X107623800Y-45658400D01*
X107625800Y-45659400D01*
X107627800Y-45661400D01*
X107629800Y-45662400D01*
X107631800Y-45664400D01*
X107633800Y-45666400D01*
X107634800Y-45668400D01*
X107636800Y-45670400D01*
X107637800Y-45672400D01*
X107639800Y-45675400D01*
X107640800Y-45677400D01*
X107641800Y-45679400D01*
X107642800Y-45682400D01*
X107643800Y-45684400D01*
X107644800Y-45687400D01*
X107644800Y-45689400D01*
X107645800Y-45692400D01*
X107645800Y-45694400D01*
X107645800Y-45697400D01*
X107645800Y-45699400D01*
X107645800Y-46424400D01*
X107645800Y-46427400D01*
X107645800Y-46430400D01*
X107645800Y-46432400D01*
X107644800Y-46435400D01*
X107644800Y-46437400D01*
X107643800Y-46440400D01*
X107642800Y-46442400D01*
X107641800Y-46445400D01*
X107640800Y-46447400D01*
X107639800Y-46450400D01*
X107637800Y-46452400D01*
X107636800Y-46454400D01*
X107634800Y-46456400D01*
X107633800Y-46458400D01*
X107631800Y-46460400D01*
X107629800Y-46462400D01*
X107627800Y-46463400D01*
X107625800Y-46465400D01*
X107623800Y-46466400D01*
X107621800Y-46468400D01*
X107618800Y-46469400D01*
X107616800Y-46470400D01*
X107613800Y-46471400D01*
X107611800Y-46472400D01*
X107608800Y-46473400D01*
X107606800Y-46473400D01*
X107603800Y-46474400D01*
X107601800Y-46474400D01*
X107598800Y-46474400D01*
X107596800Y-46475400D01*
X107421300Y-46474900D01*
X107421800Y-46475400D01*
X107418800Y-46474400D01*
X107415800Y-46474400D01*
X107413800Y-46474400D01*
X107410800Y-46473400D01*
X107408800Y-46473400D01*
X107405800Y-46472400D01*
X107403800Y-46471400D01*
X107400800Y-46470400D01*
X107398800Y-46469400D01*
X107396800Y-46468400D01*
X107393800Y-46466400D01*
X107391800Y-46465400D01*
X107389800Y-46463400D01*
X107387800Y-46462400D01*
X107385800Y-46460400D01*
X107383800Y-46458400D01*
X107382800Y-46456400D01*
X107380800Y-46454400D01*
X107379800Y-46452400D01*
X107377800Y-46449400D01*
X107376800Y-46447400D01*
X107375800Y-46445400D01*
X107374800Y-46442400D01*
X107373800Y-46440400D01*
X107372800Y-46437400D01*
X107372800Y-46435400D01*
X107371800Y-46432400D01*
X107371800Y-46430400D01*
X107371800Y-46427400D01*
X107371800Y-46424400D01*
X107371800Y-45699400D01*
X107371800Y-45697400D01*
X107371800Y-45694400D01*
X107371800Y-45692400D01*
X107372800Y-45689400D01*
X107372800Y-45687400D01*
X107373800Y-45684400D01*
X107374800Y-45682400D01*
X107375800Y-45679400D01*
X107376800Y-45677400D01*
X107377800Y-45675400D01*
X107379800Y-45672400D01*
X107380800Y-45670400D01*
X107382800Y-45668400D01*
X107383800Y-45666400D01*
X107385800Y-45664400D01*
X107387800Y-45662400D01*
X107389800Y-45661400D01*
X107391800Y-45659400D01*
X107393800Y-45658400D01*
X107396800Y-45656400D01*
X107398800Y-45655400D01*
X107400800Y-45654400D01*
X107403800Y-45653400D01*
X107405800Y-45652400D01*
X107408800Y-45651400D01*
X107410800Y-45651400D01*
X107413800Y-45650400D01*
X107415800Y-45650400D01*
X107418800Y-45650400D01*
X107421800Y-45649400D01*
X107596800Y-45649400D01*
X107598800Y-45650400D01*
G36*
X107598800Y-45650400D02*
G01*
X107601800Y-45650400D01*
X107603800Y-45650400D01*
X107606800Y-45651400D01*
X107608800Y-45651400D01*
X107611800Y-45652400D01*
X107613800Y-45653400D01*
X107616800Y-45654400D01*
X107618800Y-45655400D01*
X107621800Y-45656400D01*
X107623800Y-45658400D01*
X107625800Y-45659400D01*
X107627800Y-45661400D01*
X107629800Y-45662400D01*
X107631800Y-45664400D01*
X107633800Y-45666400D01*
X107634800Y-45668400D01*
X107636800Y-45670400D01*
X107637800Y-45672400D01*
X107639800Y-45675400D01*
X107640800Y-45677400D01*
X107641800Y-45679400D01*
X107642800Y-45682400D01*
X107643800Y-45684400D01*
X107644800Y-45687400D01*
X107644800Y-45689400D01*
X107645800Y-45692400D01*
X107645800Y-45694400D01*
X107645800Y-45697400D01*
X107645800Y-45699400D01*
X107645800Y-46424400D01*
X107645800Y-46427400D01*
X107645800Y-46430400D01*
X107645800Y-46432400D01*
X107644800Y-46435400D01*
X107644800Y-46437400D01*
X107643800Y-46440400D01*
X107642800Y-46442400D01*
X107641800Y-46445400D01*
X107640800Y-46447400D01*
X107639800Y-46450400D01*
X107637800Y-46452400D01*
X107636800Y-46454400D01*
X107634800Y-46456400D01*
X107633800Y-46458400D01*
X107631800Y-46460400D01*
X107629800Y-46462400D01*
X107627800Y-46463400D01*
X107625800Y-46465400D01*
X107623800Y-46466400D01*
X107621800Y-46468400D01*
X107618800Y-46469400D01*
X107616800Y-46470400D01*
X107613800Y-46471400D01*
X107611800Y-46472400D01*
X107608800Y-46473400D01*
X107606800Y-46473400D01*
X107603800Y-46474400D01*
X107601800Y-46474400D01*
X107598800Y-46474400D01*
X107596800Y-46475400D01*
X107421300Y-46474900D01*
X107421800Y-46475400D01*
X107418800Y-46474400D01*
X107415800Y-46474400D01*
X107413800Y-46474400D01*
X107410800Y-46473400D01*
X107408800Y-46473400D01*
X107405800Y-46472400D01*
X107403800Y-46471400D01*
X107400800Y-46470400D01*
X107398800Y-46469400D01*
X107396800Y-46468400D01*
X107393800Y-46466400D01*
X107391800Y-46465400D01*
X107389800Y-46463400D01*
X107387800Y-46462400D01*
X107385800Y-46460400D01*
X107383800Y-46458400D01*
X107382800Y-46456400D01*
X107380800Y-46454400D01*
X107379800Y-46452400D01*
X107377800Y-46449400D01*
X107376800Y-46447400D01*
X107375800Y-46445400D01*
X107374800Y-46442400D01*
X107373800Y-46440400D01*
X107372800Y-46437400D01*
X107372800Y-46435400D01*
X107371800Y-46432400D01*
X107371800Y-46430400D01*
X107371800Y-46427400D01*
X107371800Y-46424400D01*
X107371800Y-45699400D01*
X107371800Y-45697400D01*
X107371800Y-45694400D01*
X107371800Y-45692400D01*
X107372800Y-45689400D01*
X107372800Y-45687400D01*
X107373800Y-45684400D01*
X107374800Y-45682400D01*
X107375800Y-45679400D01*
X107376800Y-45677400D01*
X107377800Y-45675400D01*
X107379800Y-45672400D01*
X107380800Y-45670400D01*
X107382800Y-45668400D01*
X107383800Y-45666400D01*
X107385800Y-45664400D01*
X107387800Y-45662400D01*
X107389800Y-45661400D01*
X107391800Y-45659400D01*
X107393800Y-45658400D01*
X107396800Y-45656400D01*
X107398800Y-45655400D01*
X107400800Y-45654400D01*
X107403800Y-45653400D01*
X107405800Y-45652400D01*
X107408800Y-45651400D01*
X107410800Y-45651400D01*
X107413800Y-45650400D01*
X107415800Y-45650400D01*
X107418800Y-45650400D01*
X107421800Y-45649400D01*
X107596800Y-45649400D01*
X107598800Y-45650400D01*
G37*
X107198800Y-45650400D02*
X107201800Y-45650400D01*
X107203800Y-45650400D01*
X107206800Y-45651400D01*
X107208800Y-45651400D01*
X107211800Y-45652400D01*
X107213800Y-45653400D01*
X107216800Y-45654400D01*
X107218800Y-45655400D01*
X107220800Y-45656400D01*
X107223800Y-45658400D01*
X107225800Y-45659400D01*
X107227800Y-45661400D01*
X107229800Y-45662400D01*
X107231800Y-45664400D01*
X107233800Y-45666400D01*
X107234800Y-45668400D01*
X107236800Y-45670400D01*
X107237800Y-45672400D01*
X107239800Y-45675400D01*
X107240800Y-45677400D01*
X107241800Y-45679400D01*
X107242800Y-45682400D01*
X107243800Y-45684400D01*
X107244800Y-45687400D01*
X107244800Y-45689400D01*
X107245800Y-45692400D01*
X107245800Y-45694400D01*
X107245800Y-45697400D01*
X107246800Y-45699400D01*
X107246800Y-46424400D01*
X107245800Y-46427400D01*
X107245800Y-46430400D01*
X107245800Y-46432400D01*
X107244800Y-46435400D01*
X107244800Y-46437400D01*
X107243800Y-46440400D01*
X107242800Y-46442400D01*
X107241800Y-46445400D01*
X107240800Y-46447400D01*
X107239800Y-46449400D01*
X107237800Y-46452400D01*
X107236800Y-46454400D01*
X107234800Y-46456400D01*
X107233800Y-46458400D01*
X107231800Y-46460400D01*
X107229800Y-46462400D01*
X107227800Y-46463400D01*
X107225800Y-46465400D01*
X107223800Y-46466400D01*
X107220800Y-46468400D01*
X107218800Y-46469400D01*
X107216800Y-46470400D01*
X107213800Y-46471400D01*
X107211800Y-46472400D01*
X107208800Y-46473400D01*
X107206800Y-46473400D01*
X107203800Y-46474400D01*
X107201800Y-46474400D01*
X107198800Y-46474400D01*
X107195800Y-46475400D01*
X107021300Y-46474900D01*
X107020800Y-46475400D01*
X107018800Y-46474400D01*
X107015800Y-46474400D01*
X107013800Y-46474400D01*
X107010800Y-46473400D01*
X107008800Y-46473400D01*
X107005800Y-46472400D01*
X107003800Y-46471400D01*
X107000800Y-46470400D01*
X106998800Y-46469400D01*
X106995800Y-46468400D01*
X106993800Y-46466400D01*
X106991800Y-46465400D01*
X106989800Y-46463400D01*
X106987800Y-46462400D01*
X106985800Y-46460400D01*
X106983800Y-46458400D01*
X106982800Y-46456400D01*
X106980800Y-46454400D01*
X106979800Y-46452400D01*
X106977800Y-46449400D01*
X106976800Y-46447400D01*
X106975800Y-46445400D01*
X106974800Y-46442400D01*
X106973800Y-46440400D01*
X106972800Y-46437400D01*
X106972800Y-46435400D01*
X106971800Y-46432400D01*
X106971800Y-46430400D01*
X106971800Y-46427400D01*
X106970800Y-46424400D01*
X106970800Y-45699400D01*
X106971800Y-45697400D01*
X106971800Y-45694400D01*
X106971800Y-45692400D01*
X106972800Y-45689400D01*
X106972800Y-45687400D01*
X106973800Y-45684400D01*
X106974800Y-45682400D01*
X106975800Y-45679400D01*
X106976800Y-45677400D01*
X106977800Y-45675400D01*
X106979800Y-45672400D01*
X106980800Y-45670400D01*
X106982800Y-45668400D01*
X106983800Y-45666400D01*
X106985800Y-45664400D01*
X106987800Y-45662400D01*
X106989800Y-45661400D01*
X106991800Y-45659400D01*
X106993800Y-45658400D01*
X106995800Y-45656400D01*
X106998800Y-45655400D01*
X107000800Y-45654400D01*
X107003800Y-45653400D01*
X107005800Y-45652400D01*
X107008800Y-45651400D01*
X107010800Y-45651400D01*
X107013800Y-45650400D01*
X107015800Y-45650400D01*
X107018800Y-45650400D01*
X107020800Y-45649400D01*
X107195800Y-45649400D01*
X107198800Y-45650400D01*
G36*
X107198800Y-45650400D02*
G01*
X107201800Y-45650400D01*
X107203800Y-45650400D01*
X107206800Y-45651400D01*
X107208800Y-45651400D01*
X107211800Y-45652400D01*
X107213800Y-45653400D01*
X107216800Y-45654400D01*
X107218800Y-45655400D01*
X107220800Y-45656400D01*
X107223800Y-45658400D01*
X107225800Y-45659400D01*
X107227800Y-45661400D01*
X107229800Y-45662400D01*
X107231800Y-45664400D01*
X107233800Y-45666400D01*
X107234800Y-45668400D01*
X107236800Y-45670400D01*
X107237800Y-45672400D01*
X107239800Y-45675400D01*
X107240800Y-45677400D01*
X107241800Y-45679400D01*
X107242800Y-45682400D01*
X107243800Y-45684400D01*
X107244800Y-45687400D01*
X107244800Y-45689400D01*
X107245800Y-45692400D01*
X107245800Y-45694400D01*
X107245800Y-45697400D01*
X107246800Y-45699400D01*
X107246800Y-46424400D01*
X107245800Y-46427400D01*
X107245800Y-46430400D01*
X107245800Y-46432400D01*
X107244800Y-46435400D01*
X107244800Y-46437400D01*
X107243800Y-46440400D01*
X107242800Y-46442400D01*
X107241800Y-46445400D01*
X107240800Y-46447400D01*
X107239800Y-46449400D01*
X107237800Y-46452400D01*
X107236800Y-46454400D01*
X107234800Y-46456400D01*
X107233800Y-46458400D01*
X107231800Y-46460400D01*
X107229800Y-46462400D01*
X107227800Y-46463400D01*
X107225800Y-46465400D01*
X107223800Y-46466400D01*
X107220800Y-46468400D01*
X107218800Y-46469400D01*
X107216800Y-46470400D01*
X107213800Y-46471400D01*
X107211800Y-46472400D01*
X107208800Y-46473400D01*
X107206800Y-46473400D01*
X107203800Y-46474400D01*
X107201800Y-46474400D01*
X107198800Y-46474400D01*
X107195800Y-46475400D01*
X107021300Y-46474900D01*
X107020800Y-46475400D01*
X107018800Y-46474400D01*
X107015800Y-46474400D01*
X107013800Y-46474400D01*
X107010800Y-46473400D01*
X107008800Y-46473400D01*
X107005800Y-46472400D01*
X107003800Y-46471400D01*
X107000800Y-46470400D01*
X106998800Y-46469400D01*
X106995800Y-46468400D01*
X106993800Y-46466400D01*
X106991800Y-46465400D01*
X106989800Y-46463400D01*
X106987800Y-46462400D01*
X106985800Y-46460400D01*
X106983800Y-46458400D01*
X106982800Y-46456400D01*
X106980800Y-46454400D01*
X106979800Y-46452400D01*
X106977800Y-46449400D01*
X106976800Y-46447400D01*
X106975800Y-46445400D01*
X106974800Y-46442400D01*
X106973800Y-46440400D01*
X106972800Y-46437400D01*
X106972800Y-46435400D01*
X106971800Y-46432400D01*
X106971800Y-46430400D01*
X106971800Y-46427400D01*
X106970800Y-46424400D01*
X106970800Y-45699400D01*
X106971800Y-45697400D01*
X106971800Y-45694400D01*
X106971800Y-45692400D01*
X106972800Y-45689400D01*
X106972800Y-45687400D01*
X106973800Y-45684400D01*
X106974800Y-45682400D01*
X106975800Y-45679400D01*
X106976800Y-45677400D01*
X106977800Y-45675400D01*
X106979800Y-45672400D01*
X106980800Y-45670400D01*
X106982800Y-45668400D01*
X106983800Y-45666400D01*
X106985800Y-45664400D01*
X106987800Y-45662400D01*
X106989800Y-45661400D01*
X106991800Y-45659400D01*
X106993800Y-45658400D01*
X106995800Y-45656400D01*
X106998800Y-45655400D01*
X107000800Y-45654400D01*
X107003800Y-45653400D01*
X107005800Y-45652400D01*
X107008800Y-45651400D01*
X107010800Y-45651400D01*
X107013800Y-45650400D01*
X107015800Y-45650400D01*
X107018800Y-45650400D01*
X107020800Y-45649400D01*
X107195800Y-45649400D01*
X107198800Y-45650400D01*
G37*
X107056800Y-46951400D02*
X107058800Y-46951400D01*
X107061800Y-46952400D01*
X107063800Y-46953400D01*
X107066800Y-46954400D01*
X107068800Y-46955400D01*
X107070800Y-46956400D01*
X107073800Y-46958400D01*
X107075800Y-46959400D01*
X107077800Y-46961400D01*
X107079800Y-46962400D01*
X107081800Y-46964400D01*
X107083800Y-46966400D01*
X107084800Y-46968400D01*
X107086800Y-46970400D01*
X107087800Y-46972400D01*
X107089800Y-46974400D01*
X107090800Y-46977400D01*
X107091800Y-46979400D01*
X107092800Y-46982400D01*
X107093800Y-46984400D01*
X107094800Y-46987400D01*
X107094800Y-46989400D01*
X107095800Y-46992400D01*
X107095800Y-46994400D01*
X107095800Y-46997400D01*
X107095800Y-47000400D01*
X107095800Y-47174400D01*
X107095800Y-47177400D01*
X107095800Y-47180400D01*
X107095800Y-47182400D01*
X107094800Y-47185400D01*
X107094800Y-47187400D01*
X107093800Y-47190400D01*
X107092800Y-47192400D01*
X107091800Y-47195400D01*
X107090800Y-47197400D01*
X107089800Y-47200400D01*
X107087800Y-47202400D01*
X107086800Y-47204400D01*
X107084800Y-47206400D01*
X107083800Y-47208400D01*
X107081800Y-47210400D01*
X107079800Y-47212400D01*
X107077800Y-47213400D01*
X107075800Y-47215400D01*
X107073800Y-47216400D01*
X107070800Y-47218400D01*
X107068800Y-47219400D01*
X107066800Y-47220400D01*
X107063800Y-47221400D01*
X107061800Y-47222400D01*
X107058800Y-47223400D01*
X107056800Y-47223400D01*
X107053800Y-47224400D01*
X107051800Y-47224400D01*
X107048800Y-47224400D01*
X107046800Y-47225400D01*
X106320800Y-47225400D01*
X106318800Y-47224400D01*
X106315800Y-47224400D01*
X106313800Y-47224400D01*
X106310800Y-47223400D01*
X106308800Y-47223400D01*
X106305800Y-47222400D01*
X106303800Y-47221400D01*
X106300800Y-47220400D01*
X106298800Y-47219400D01*
X106296800Y-47218400D01*
X106293800Y-47216400D01*
X106291800Y-47215400D01*
X106289800Y-47213400D01*
X106287800Y-47212400D01*
X106285800Y-47210400D01*
X106283800Y-47208400D01*
X106282800Y-47206400D01*
X106280800Y-47204400D01*
X106279800Y-47202400D01*
X106277800Y-47200400D01*
X106276800Y-47197400D01*
X106275800Y-47195400D01*
X106274800Y-47192400D01*
X106273800Y-47190400D01*
X106272800Y-47187400D01*
X106272800Y-47185400D01*
X106271800Y-47182400D01*
X106271800Y-47180400D01*
X106271800Y-47177400D01*
X106271800Y-47174400D01*
X106271300Y-46999900D01*
X106271800Y-47000400D01*
X106271800Y-46997400D01*
X106271800Y-46994400D01*
X106271800Y-46992400D01*
X106272800Y-46989400D01*
X106272800Y-46987400D01*
X106273800Y-46984400D01*
X106274800Y-46982400D01*
X106275800Y-46979400D01*
X106276800Y-46977400D01*
X106277800Y-46974400D01*
X106279800Y-46972400D01*
X106280800Y-46970400D01*
X106282800Y-46968400D01*
X106283800Y-46966400D01*
X106285800Y-46964400D01*
X106287800Y-46962400D01*
X106289800Y-46961400D01*
X106291800Y-46959400D01*
X106293800Y-46958400D01*
X106296800Y-46956400D01*
X106298800Y-46955400D01*
X106300800Y-46954400D01*
X106303800Y-46953400D01*
X106305800Y-46952400D01*
X106308800Y-46951400D01*
X106310800Y-46951400D01*
X106313800Y-46950400D01*
X106315800Y-46950400D01*
X106318800Y-46950400D01*
X106320800Y-46950400D01*
X107046800Y-46950400D01*
X107048800Y-46950400D01*
X107051800Y-46950400D01*
X107053800Y-46950400D01*
X107056800Y-46951400D01*
G36*
X107056800Y-46951400D02*
G01*
X107058800Y-46951400D01*
X107061800Y-46952400D01*
X107063800Y-46953400D01*
X107066800Y-46954400D01*
X107068800Y-46955400D01*
X107070800Y-46956400D01*
X107073800Y-46958400D01*
X107075800Y-46959400D01*
X107077800Y-46961400D01*
X107079800Y-46962400D01*
X107081800Y-46964400D01*
X107083800Y-46966400D01*
X107084800Y-46968400D01*
X107086800Y-46970400D01*
X107087800Y-46972400D01*
X107089800Y-46974400D01*
X107090800Y-46977400D01*
X107091800Y-46979400D01*
X107092800Y-46982400D01*
X107093800Y-46984400D01*
X107094800Y-46987400D01*
X107094800Y-46989400D01*
X107095800Y-46992400D01*
X107095800Y-46994400D01*
X107095800Y-46997400D01*
X107095800Y-47000400D01*
X107095800Y-47174400D01*
X107095800Y-47177400D01*
X107095800Y-47180400D01*
X107095800Y-47182400D01*
X107094800Y-47185400D01*
X107094800Y-47187400D01*
X107093800Y-47190400D01*
X107092800Y-47192400D01*
X107091800Y-47195400D01*
X107090800Y-47197400D01*
X107089800Y-47200400D01*
X107087800Y-47202400D01*
X107086800Y-47204400D01*
X107084800Y-47206400D01*
X107083800Y-47208400D01*
X107081800Y-47210400D01*
X107079800Y-47212400D01*
X107077800Y-47213400D01*
X107075800Y-47215400D01*
X107073800Y-47216400D01*
X107070800Y-47218400D01*
X107068800Y-47219400D01*
X107066800Y-47220400D01*
X107063800Y-47221400D01*
X107061800Y-47222400D01*
X107058800Y-47223400D01*
X107056800Y-47223400D01*
X107053800Y-47224400D01*
X107051800Y-47224400D01*
X107048800Y-47224400D01*
X107046800Y-47225400D01*
X106320800Y-47225400D01*
X106318800Y-47224400D01*
X106315800Y-47224400D01*
X106313800Y-47224400D01*
X106310800Y-47223400D01*
X106308800Y-47223400D01*
X106305800Y-47222400D01*
X106303800Y-47221400D01*
X106300800Y-47220400D01*
X106298800Y-47219400D01*
X106296800Y-47218400D01*
X106293800Y-47216400D01*
X106291800Y-47215400D01*
X106289800Y-47213400D01*
X106287800Y-47212400D01*
X106285800Y-47210400D01*
X106283800Y-47208400D01*
X106282800Y-47206400D01*
X106280800Y-47204400D01*
X106279800Y-47202400D01*
X106277800Y-47200400D01*
X106276800Y-47197400D01*
X106275800Y-47195400D01*
X106274800Y-47192400D01*
X106273800Y-47190400D01*
X106272800Y-47187400D01*
X106272800Y-47185400D01*
X106271800Y-47182400D01*
X106271800Y-47180400D01*
X106271800Y-47177400D01*
X106271800Y-47174400D01*
X106271300Y-46999900D01*
X106271800Y-47000400D01*
X106271800Y-46997400D01*
X106271800Y-46994400D01*
X106271800Y-46992400D01*
X106272800Y-46989400D01*
X106272800Y-46987400D01*
X106273800Y-46984400D01*
X106274800Y-46982400D01*
X106275800Y-46979400D01*
X106276800Y-46977400D01*
X106277800Y-46974400D01*
X106279800Y-46972400D01*
X106280800Y-46970400D01*
X106282800Y-46968400D01*
X106283800Y-46966400D01*
X106285800Y-46964400D01*
X106287800Y-46962400D01*
X106289800Y-46961400D01*
X106291800Y-46959400D01*
X106293800Y-46958400D01*
X106296800Y-46956400D01*
X106298800Y-46955400D01*
X106300800Y-46954400D01*
X106303800Y-46953400D01*
X106305800Y-46952400D01*
X106308800Y-46951400D01*
X106310800Y-46951400D01*
X106313800Y-46950400D01*
X106315800Y-46950400D01*
X106318800Y-46950400D01*
X106320800Y-46950400D01*
X107046800Y-46950400D01*
X107048800Y-46950400D01*
X107051800Y-46950400D01*
X107053800Y-46950400D01*
X107056800Y-46951400D01*
G37*
X110706800Y-46951400D02*
X110708800Y-46951400D01*
X110711800Y-46952400D01*
X110713800Y-46953400D01*
X110716800Y-46954400D01*
X110718800Y-46955400D01*
X110720800Y-46956400D01*
X110723800Y-46958400D01*
X110725800Y-46959400D01*
X110727800Y-46961400D01*
X110729800Y-46962400D01*
X110731800Y-46964400D01*
X110733800Y-46966400D01*
X110734800Y-46968400D01*
X110736800Y-46970400D01*
X110737800Y-46972400D01*
X110739800Y-46974400D01*
X110740800Y-46977400D01*
X110741800Y-46979400D01*
X110742800Y-46982400D01*
X110743800Y-46984400D01*
X110744800Y-46987400D01*
X110744800Y-46989400D01*
X110745800Y-46992400D01*
X110745800Y-46994400D01*
X110745800Y-46997400D01*
X110745800Y-47000400D01*
X110745800Y-47174400D01*
X110745800Y-47177400D01*
X110745800Y-47180400D01*
X110745800Y-47182400D01*
X110744800Y-47185400D01*
X110744800Y-47187400D01*
X110743800Y-47190400D01*
X110742800Y-47192400D01*
X110741800Y-47195400D01*
X110740800Y-47197400D01*
X110739800Y-47200400D01*
X110737800Y-47202400D01*
X110736800Y-47204400D01*
X110734800Y-47206400D01*
X110733800Y-47208400D01*
X110731800Y-47210400D01*
X110729800Y-47212400D01*
X110727800Y-47213400D01*
X110725800Y-47215400D01*
X110723800Y-47216400D01*
X110720800Y-47218400D01*
X110718800Y-47219400D01*
X110716800Y-47220400D01*
X110713800Y-47221400D01*
X110711800Y-47222400D01*
X110708800Y-47223400D01*
X110706800Y-47223400D01*
X110703800Y-47224400D01*
X110701800Y-47224400D01*
X110698800Y-47224400D01*
X110696800Y-47225400D01*
X109970800Y-47225400D01*
X109968800Y-47224400D01*
X109965800Y-47224400D01*
X109963800Y-47224400D01*
X109960800Y-47223400D01*
X109958800Y-47223400D01*
X109955800Y-47222400D01*
X109953800Y-47221400D01*
X109950800Y-47220400D01*
X109948800Y-47219400D01*
X109946800Y-47218400D01*
X109943800Y-47216400D01*
X109941800Y-47215400D01*
X109939800Y-47213400D01*
X109937800Y-47212400D01*
X109935800Y-47210400D01*
X109933800Y-47208400D01*
X109932800Y-47206400D01*
X109930800Y-47204400D01*
X109929800Y-47202400D01*
X109927800Y-47200400D01*
X109926800Y-47197400D01*
X109925800Y-47195400D01*
X109924800Y-47192400D01*
X109923800Y-47190400D01*
X109922800Y-47187400D01*
X109922800Y-47185400D01*
X109921800Y-47182400D01*
X109921800Y-47180400D01*
X109921800Y-47177400D01*
X109921800Y-47174400D01*
X109921300Y-46999900D01*
X109921800Y-47000400D01*
X109921800Y-46997400D01*
X109921800Y-46994400D01*
X109921800Y-46992400D01*
X109922800Y-46989400D01*
X109922800Y-46987400D01*
X109923800Y-46984400D01*
X109924800Y-46982400D01*
X109925800Y-46979400D01*
X109926800Y-46977400D01*
X109927800Y-46974400D01*
X109929800Y-46972400D01*
X109930800Y-46970400D01*
X109932800Y-46968400D01*
X109933800Y-46966400D01*
X109935800Y-46964400D01*
X109937800Y-46962400D01*
X109939800Y-46961400D01*
X109941800Y-46959400D01*
X109943800Y-46958400D01*
X109946800Y-46956400D01*
X109948800Y-46955400D01*
X109950800Y-46954400D01*
X109953800Y-46953400D01*
X109955800Y-46952400D01*
X109958800Y-46951400D01*
X109960800Y-46951400D01*
X109963800Y-46950400D01*
X109965800Y-46950400D01*
X109968800Y-46950400D01*
X109970800Y-46950400D01*
X110696800Y-46950400D01*
X110698800Y-46950400D01*
X110701800Y-46950400D01*
X110703800Y-46950400D01*
X110706800Y-46951400D01*
G36*
X110706800Y-46951400D02*
G01*
X110708800Y-46951400D01*
X110711800Y-46952400D01*
X110713800Y-46953400D01*
X110716800Y-46954400D01*
X110718800Y-46955400D01*
X110720800Y-46956400D01*
X110723800Y-46958400D01*
X110725800Y-46959400D01*
X110727800Y-46961400D01*
X110729800Y-46962400D01*
X110731800Y-46964400D01*
X110733800Y-46966400D01*
X110734800Y-46968400D01*
X110736800Y-46970400D01*
X110737800Y-46972400D01*
X110739800Y-46974400D01*
X110740800Y-46977400D01*
X110741800Y-46979400D01*
X110742800Y-46982400D01*
X110743800Y-46984400D01*
X110744800Y-46987400D01*
X110744800Y-46989400D01*
X110745800Y-46992400D01*
X110745800Y-46994400D01*
X110745800Y-46997400D01*
X110745800Y-47000400D01*
X110745800Y-47174400D01*
X110745800Y-47177400D01*
X110745800Y-47180400D01*
X110745800Y-47182400D01*
X110744800Y-47185400D01*
X110744800Y-47187400D01*
X110743800Y-47190400D01*
X110742800Y-47192400D01*
X110741800Y-47195400D01*
X110740800Y-47197400D01*
X110739800Y-47200400D01*
X110737800Y-47202400D01*
X110736800Y-47204400D01*
X110734800Y-47206400D01*
X110733800Y-47208400D01*
X110731800Y-47210400D01*
X110729800Y-47212400D01*
X110727800Y-47213400D01*
X110725800Y-47215400D01*
X110723800Y-47216400D01*
X110720800Y-47218400D01*
X110718800Y-47219400D01*
X110716800Y-47220400D01*
X110713800Y-47221400D01*
X110711800Y-47222400D01*
X110708800Y-47223400D01*
X110706800Y-47223400D01*
X110703800Y-47224400D01*
X110701800Y-47224400D01*
X110698800Y-47224400D01*
X110696800Y-47225400D01*
X109970800Y-47225400D01*
X109968800Y-47224400D01*
X109965800Y-47224400D01*
X109963800Y-47224400D01*
X109960800Y-47223400D01*
X109958800Y-47223400D01*
X109955800Y-47222400D01*
X109953800Y-47221400D01*
X109950800Y-47220400D01*
X109948800Y-47219400D01*
X109946800Y-47218400D01*
X109943800Y-47216400D01*
X109941800Y-47215400D01*
X109939800Y-47213400D01*
X109937800Y-47212400D01*
X109935800Y-47210400D01*
X109933800Y-47208400D01*
X109932800Y-47206400D01*
X109930800Y-47204400D01*
X109929800Y-47202400D01*
X109927800Y-47200400D01*
X109926800Y-47197400D01*
X109925800Y-47195400D01*
X109924800Y-47192400D01*
X109923800Y-47190400D01*
X109922800Y-47187400D01*
X109922800Y-47185400D01*
X109921800Y-47182400D01*
X109921800Y-47180400D01*
X109921800Y-47177400D01*
X109921800Y-47174400D01*
X109921300Y-46999900D01*
X109921800Y-47000400D01*
X109921800Y-46997400D01*
X109921800Y-46994400D01*
X109921800Y-46992400D01*
X109922800Y-46989400D01*
X109922800Y-46987400D01*
X109923800Y-46984400D01*
X109924800Y-46982400D01*
X109925800Y-46979400D01*
X109926800Y-46977400D01*
X109927800Y-46974400D01*
X109929800Y-46972400D01*
X109930800Y-46970400D01*
X109932800Y-46968400D01*
X109933800Y-46966400D01*
X109935800Y-46964400D01*
X109937800Y-46962400D01*
X109939800Y-46961400D01*
X109941800Y-46959400D01*
X109943800Y-46958400D01*
X109946800Y-46956400D01*
X109948800Y-46955400D01*
X109950800Y-46954400D01*
X109953800Y-46953400D01*
X109955800Y-46952400D01*
X109958800Y-46951400D01*
X109960800Y-46951400D01*
X109963800Y-46950400D01*
X109965800Y-46950400D01*
X109968800Y-46950400D01*
X109970800Y-46950400D01*
X110696800Y-46950400D01*
X110698800Y-46950400D01*
X110701800Y-46950400D01*
X110703800Y-46950400D01*
X110706800Y-46951400D01*
G37*
X107048800Y-46550400D02*
X107051800Y-46550400D01*
X107053800Y-46550400D01*
X107056800Y-46551400D01*
X107058800Y-46551400D01*
X107061800Y-46552400D01*
X107063800Y-46553400D01*
X107066800Y-46554400D01*
X107068800Y-46555400D01*
X107070800Y-46556400D01*
X107073800Y-46558400D01*
X107075800Y-46559400D01*
X107077800Y-46561400D01*
X107079800Y-46562400D01*
X107081800Y-46564400D01*
X107083800Y-46566400D01*
X107084800Y-46568400D01*
X107086800Y-46570400D01*
X107087800Y-46572400D01*
X107089800Y-46574400D01*
X107090800Y-46577400D01*
X107091800Y-46579400D01*
X107092800Y-46582400D01*
X107093800Y-46584400D01*
X107094800Y-46587400D01*
X107094800Y-46589400D01*
X107095800Y-46592400D01*
X107095800Y-46594400D01*
X107095800Y-46597400D01*
X107095800Y-46600400D01*
X107095800Y-46774400D01*
X107095800Y-46777400D01*
X107095800Y-46780400D01*
X107095800Y-46782400D01*
X107094800Y-46785400D01*
X107094800Y-46787400D01*
X107093800Y-46790400D01*
X107092800Y-46792400D01*
X107091800Y-46795400D01*
X107090800Y-46797400D01*
X107089800Y-46800400D01*
X107087800Y-46802400D01*
X107086800Y-46804400D01*
X107084800Y-46806400D01*
X107083800Y-46808400D01*
X107081800Y-46810400D01*
X107079800Y-46812400D01*
X107077800Y-46813400D01*
X107075800Y-46815400D01*
X107073800Y-46816400D01*
X107070800Y-46818400D01*
X107068800Y-46819400D01*
X107066800Y-46820400D01*
X107063800Y-46821400D01*
X107061800Y-46822400D01*
X107058800Y-46823400D01*
X107056800Y-46823400D01*
X107053800Y-46824400D01*
X107051800Y-46824400D01*
X107048800Y-46824400D01*
X107046800Y-46824400D01*
X106320800Y-46824400D01*
X106318800Y-46824400D01*
X106315800Y-46824400D01*
X106313800Y-46824400D01*
X106310800Y-46823400D01*
X106308800Y-46823400D01*
X106305800Y-46822400D01*
X106303800Y-46821400D01*
X106300800Y-46820400D01*
X106298800Y-46819400D01*
X106296800Y-46818400D01*
X106293800Y-46816400D01*
X106291800Y-46815400D01*
X106289800Y-46813400D01*
X106287800Y-46812400D01*
X106285800Y-46810400D01*
X106283800Y-46808400D01*
X106282800Y-46806400D01*
X106280800Y-46804400D01*
X106279800Y-46802400D01*
X106277800Y-46800400D01*
X106276800Y-46797400D01*
X106275800Y-46795400D01*
X106274800Y-46792400D01*
X106273800Y-46790400D01*
X106272800Y-46787400D01*
X106272800Y-46785400D01*
X106271800Y-46782400D01*
X106271800Y-46780400D01*
X106271800Y-46777400D01*
X106271800Y-46774400D01*
X106271300Y-46599900D01*
X106271800Y-46600400D01*
X106271800Y-46597400D01*
X106271800Y-46594400D01*
X106271800Y-46592400D01*
X106272800Y-46589400D01*
X106272800Y-46587400D01*
X106273800Y-46584400D01*
X106274800Y-46582400D01*
X106275800Y-46579400D01*
X106276800Y-46577400D01*
X106277800Y-46574400D01*
X106279800Y-46572400D01*
X106280800Y-46570400D01*
X106282800Y-46568400D01*
X106283800Y-46566400D01*
X106285800Y-46564400D01*
X106287800Y-46562400D01*
X106289800Y-46561400D01*
X106291800Y-46559400D01*
X106293800Y-46558400D01*
X106296800Y-46556400D01*
X106298800Y-46555400D01*
X106300800Y-46554400D01*
X106303800Y-46553400D01*
X106305800Y-46552400D01*
X106308800Y-46551400D01*
X106310800Y-46551400D01*
X106313800Y-46550400D01*
X106315800Y-46550400D01*
X106318800Y-46550400D01*
X106320800Y-46549400D01*
X107046800Y-46549400D01*
X107048800Y-46550400D01*
G36*
X107048800Y-46550400D02*
G01*
X107051800Y-46550400D01*
X107053800Y-46550400D01*
X107056800Y-46551400D01*
X107058800Y-46551400D01*
X107061800Y-46552400D01*
X107063800Y-46553400D01*
X107066800Y-46554400D01*
X107068800Y-46555400D01*
X107070800Y-46556400D01*
X107073800Y-46558400D01*
X107075800Y-46559400D01*
X107077800Y-46561400D01*
X107079800Y-46562400D01*
X107081800Y-46564400D01*
X107083800Y-46566400D01*
X107084800Y-46568400D01*
X107086800Y-46570400D01*
X107087800Y-46572400D01*
X107089800Y-46574400D01*
X107090800Y-46577400D01*
X107091800Y-46579400D01*
X107092800Y-46582400D01*
X107093800Y-46584400D01*
X107094800Y-46587400D01*
X107094800Y-46589400D01*
X107095800Y-46592400D01*
X107095800Y-46594400D01*
X107095800Y-46597400D01*
X107095800Y-46600400D01*
X107095800Y-46774400D01*
X107095800Y-46777400D01*
X107095800Y-46780400D01*
X107095800Y-46782400D01*
X107094800Y-46785400D01*
X107094800Y-46787400D01*
X107093800Y-46790400D01*
X107092800Y-46792400D01*
X107091800Y-46795400D01*
X107090800Y-46797400D01*
X107089800Y-46800400D01*
X107087800Y-46802400D01*
X107086800Y-46804400D01*
X107084800Y-46806400D01*
X107083800Y-46808400D01*
X107081800Y-46810400D01*
X107079800Y-46812400D01*
X107077800Y-46813400D01*
X107075800Y-46815400D01*
X107073800Y-46816400D01*
X107070800Y-46818400D01*
X107068800Y-46819400D01*
X107066800Y-46820400D01*
X107063800Y-46821400D01*
X107061800Y-46822400D01*
X107058800Y-46823400D01*
X107056800Y-46823400D01*
X107053800Y-46824400D01*
X107051800Y-46824400D01*
X107048800Y-46824400D01*
X107046800Y-46824400D01*
X106320800Y-46824400D01*
X106318800Y-46824400D01*
X106315800Y-46824400D01*
X106313800Y-46824400D01*
X106310800Y-46823400D01*
X106308800Y-46823400D01*
X106305800Y-46822400D01*
X106303800Y-46821400D01*
X106300800Y-46820400D01*
X106298800Y-46819400D01*
X106296800Y-46818400D01*
X106293800Y-46816400D01*
X106291800Y-46815400D01*
X106289800Y-46813400D01*
X106287800Y-46812400D01*
X106285800Y-46810400D01*
X106283800Y-46808400D01*
X106282800Y-46806400D01*
X106280800Y-46804400D01*
X106279800Y-46802400D01*
X106277800Y-46800400D01*
X106276800Y-46797400D01*
X106275800Y-46795400D01*
X106274800Y-46792400D01*
X106273800Y-46790400D01*
X106272800Y-46787400D01*
X106272800Y-46785400D01*
X106271800Y-46782400D01*
X106271800Y-46780400D01*
X106271800Y-46777400D01*
X106271800Y-46774400D01*
X106271300Y-46599900D01*
X106271800Y-46600400D01*
X106271800Y-46597400D01*
X106271800Y-46594400D01*
X106271800Y-46592400D01*
X106272800Y-46589400D01*
X106272800Y-46587400D01*
X106273800Y-46584400D01*
X106274800Y-46582400D01*
X106275800Y-46579400D01*
X106276800Y-46577400D01*
X106277800Y-46574400D01*
X106279800Y-46572400D01*
X106280800Y-46570400D01*
X106282800Y-46568400D01*
X106283800Y-46566400D01*
X106285800Y-46564400D01*
X106287800Y-46562400D01*
X106289800Y-46561400D01*
X106291800Y-46559400D01*
X106293800Y-46558400D01*
X106296800Y-46556400D01*
X106298800Y-46555400D01*
X106300800Y-46554400D01*
X106303800Y-46553400D01*
X106305800Y-46552400D01*
X106308800Y-46551400D01*
X106310800Y-46551400D01*
X106313800Y-46550400D01*
X106315800Y-46550400D01*
X106318800Y-46550400D01*
X106320800Y-46549400D01*
X107046800Y-46549400D01*
X107048800Y-46550400D01*
G37*
X110698800Y-46550400D02*
X110701800Y-46550400D01*
X110703800Y-46550400D01*
X110706800Y-46551400D01*
X110708800Y-46551400D01*
X110711800Y-46552400D01*
X110713800Y-46553400D01*
X110716800Y-46554400D01*
X110718800Y-46555400D01*
X110720800Y-46556400D01*
X110723800Y-46558400D01*
X110725800Y-46559400D01*
X110727800Y-46561400D01*
X110729800Y-46562400D01*
X110731800Y-46564400D01*
X110733800Y-46566400D01*
X110734800Y-46568400D01*
X110736800Y-46570400D01*
X110737800Y-46572400D01*
X110739800Y-46574400D01*
X110740800Y-46577400D01*
X110741800Y-46579400D01*
X110742800Y-46582400D01*
X110743800Y-46584400D01*
X110744800Y-46587400D01*
X110744800Y-46589400D01*
X110745800Y-46592400D01*
X110745800Y-46594400D01*
X110745800Y-46597400D01*
X110745800Y-46600400D01*
X110745800Y-46774400D01*
X110745800Y-46777400D01*
X110745800Y-46780400D01*
X110745800Y-46782400D01*
X110744800Y-46785400D01*
X110744800Y-46787400D01*
X110743800Y-46790400D01*
X110742800Y-46792400D01*
X110741800Y-46795400D01*
X110740800Y-46797400D01*
X110739800Y-46800400D01*
X110737800Y-46802400D01*
X110736800Y-46804400D01*
X110734800Y-46806400D01*
X110733800Y-46808400D01*
X110731800Y-46810400D01*
X110729800Y-46812400D01*
X110727800Y-46813400D01*
X110725800Y-46815400D01*
X110723800Y-46816400D01*
X110720800Y-46818400D01*
X110718800Y-46819400D01*
X110716800Y-46820400D01*
X110713800Y-46821400D01*
X110711800Y-46822400D01*
X110708800Y-46823400D01*
X110706800Y-46823400D01*
X110703800Y-46824400D01*
X110701800Y-46824400D01*
X110698800Y-46824400D01*
X110696800Y-46824400D01*
X109970800Y-46824400D01*
X109968800Y-46824400D01*
X109965800Y-46824400D01*
X109963800Y-46824400D01*
X109960800Y-46823400D01*
X109958800Y-46823400D01*
X109955800Y-46822400D01*
X109953800Y-46821400D01*
X109950800Y-46820400D01*
X109948800Y-46819400D01*
X109946800Y-46818400D01*
X109943800Y-46816400D01*
X109941800Y-46815400D01*
X109939800Y-46813400D01*
X109937800Y-46812400D01*
X109935800Y-46810400D01*
X109933800Y-46808400D01*
X109932800Y-46806400D01*
X109930800Y-46804400D01*
X109929800Y-46802400D01*
X109927800Y-46800400D01*
X109926800Y-46797400D01*
X109925800Y-46795400D01*
X109924800Y-46792400D01*
X109923800Y-46790400D01*
X109922800Y-46787400D01*
X109922800Y-46785400D01*
X109921800Y-46782400D01*
X109921800Y-46780400D01*
X109921800Y-46777400D01*
X109921800Y-46774400D01*
X109921300Y-46599900D01*
X109921800Y-46600400D01*
X109921800Y-46597400D01*
X109921800Y-46594400D01*
X109921800Y-46592400D01*
X109922800Y-46589400D01*
X109922800Y-46587400D01*
X109923800Y-46584400D01*
X109924800Y-46582400D01*
X109925800Y-46579400D01*
X109926800Y-46577400D01*
X109927800Y-46574400D01*
X109929800Y-46572400D01*
X109930800Y-46570400D01*
X109932800Y-46568400D01*
X109933800Y-46566400D01*
X109935800Y-46564400D01*
X109937800Y-46562400D01*
X109939800Y-46561400D01*
X109941800Y-46559400D01*
X109943800Y-46558400D01*
X109946800Y-46556400D01*
X109948800Y-46555400D01*
X109950800Y-46554400D01*
X109953800Y-46553400D01*
X109955800Y-46552400D01*
X109958800Y-46551400D01*
X109960800Y-46551400D01*
X109963800Y-46550400D01*
X109965800Y-46550400D01*
X109968800Y-46550400D01*
X109970800Y-46549400D01*
X110696800Y-46549400D01*
X110698800Y-46550400D01*
G36*
X110698800Y-46550400D02*
G01*
X110701800Y-46550400D01*
X110703800Y-46550400D01*
X110706800Y-46551400D01*
X110708800Y-46551400D01*
X110711800Y-46552400D01*
X110713800Y-46553400D01*
X110716800Y-46554400D01*
X110718800Y-46555400D01*
X110720800Y-46556400D01*
X110723800Y-46558400D01*
X110725800Y-46559400D01*
X110727800Y-46561400D01*
X110729800Y-46562400D01*
X110731800Y-46564400D01*
X110733800Y-46566400D01*
X110734800Y-46568400D01*
X110736800Y-46570400D01*
X110737800Y-46572400D01*
X110739800Y-46574400D01*
X110740800Y-46577400D01*
X110741800Y-46579400D01*
X110742800Y-46582400D01*
X110743800Y-46584400D01*
X110744800Y-46587400D01*
X110744800Y-46589400D01*
X110745800Y-46592400D01*
X110745800Y-46594400D01*
X110745800Y-46597400D01*
X110745800Y-46600400D01*
X110745800Y-46774400D01*
X110745800Y-46777400D01*
X110745800Y-46780400D01*
X110745800Y-46782400D01*
X110744800Y-46785400D01*
X110744800Y-46787400D01*
X110743800Y-46790400D01*
X110742800Y-46792400D01*
X110741800Y-46795400D01*
X110740800Y-46797400D01*
X110739800Y-46800400D01*
X110737800Y-46802400D01*
X110736800Y-46804400D01*
X110734800Y-46806400D01*
X110733800Y-46808400D01*
X110731800Y-46810400D01*
X110729800Y-46812400D01*
X110727800Y-46813400D01*
X110725800Y-46815400D01*
X110723800Y-46816400D01*
X110720800Y-46818400D01*
X110718800Y-46819400D01*
X110716800Y-46820400D01*
X110713800Y-46821400D01*
X110711800Y-46822400D01*
X110708800Y-46823400D01*
X110706800Y-46823400D01*
X110703800Y-46824400D01*
X110701800Y-46824400D01*
X110698800Y-46824400D01*
X110696800Y-46824400D01*
X109970800Y-46824400D01*
X109968800Y-46824400D01*
X109965800Y-46824400D01*
X109963800Y-46824400D01*
X109960800Y-46823400D01*
X109958800Y-46823400D01*
X109955800Y-46822400D01*
X109953800Y-46821400D01*
X109950800Y-46820400D01*
X109948800Y-46819400D01*
X109946800Y-46818400D01*
X109943800Y-46816400D01*
X109941800Y-46815400D01*
X109939800Y-46813400D01*
X109937800Y-46812400D01*
X109935800Y-46810400D01*
X109933800Y-46808400D01*
X109932800Y-46806400D01*
X109930800Y-46804400D01*
X109929800Y-46802400D01*
X109927800Y-46800400D01*
X109926800Y-46797400D01*
X109925800Y-46795400D01*
X109924800Y-46792400D01*
X109923800Y-46790400D01*
X109922800Y-46787400D01*
X109922800Y-46785400D01*
X109921800Y-46782400D01*
X109921800Y-46780400D01*
X109921800Y-46777400D01*
X109921800Y-46774400D01*
X109921300Y-46599900D01*
X109921800Y-46600400D01*
X109921800Y-46597400D01*
X109921800Y-46594400D01*
X109921800Y-46592400D01*
X109922800Y-46589400D01*
X109922800Y-46587400D01*
X109923800Y-46584400D01*
X109924800Y-46582400D01*
X109925800Y-46579400D01*
X109926800Y-46577400D01*
X109927800Y-46574400D01*
X109929800Y-46572400D01*
X109930800Y-46570400D01*
X109932800Y-46568400D01*
X109933800Y-46566400D01*
X109935800Y-46564400D01*
X109937800Y-46562400D01*
X109939800Y-46561400D01*
X109941800Y-46559400D01*
X109943800Y-46558400D01*
X109946800Y-46556400D01*
X109948800Y-46555400D01*
X109950800Y-46554400D01*
X109953800Y-46553400D01*
X109955800Y-46552400D01*
X109958800Y-46551400D01*
X109960800Y-46551400D01*
X109963800Y-46550400D01*
X109965800Y-46550400D01*
X109968800Y-46550400D01*
X109970800Y-46549400D01*
X110696800Y-46549400D01*
X110698800Y-46550400D01*
G37*
X108398800Y-45650400D02*
X108401800Y-45650400D01*
X108403800Y-45650400D01*
X108406800Y-45651400D01*
X108408800Y-45651400D01*
X108411800Y-45652400D01*
X108413800Y-45653400D01*
X108416800Y-45654400D01*
X108418800Y-45655400D01*
X108420800Y-45656400D01*
X108423800Y-45658400D01*
X108425800Y-45659400D01*
X108427800Y-45661400D01*
X108429800Y-45662400D01*
X108431800Y-45664400D01*
X108433800Y-45666400D01*
X108434800Y-45668400D01*
X108436800Y-45670400D01*
X108437800Y-45672400D01*
X108439800Y-45675400D01*
X108440800Y-45677400D01*
X108441800Y-45679400D01*
X108442800Y-45682400D01*
X108443800Y-45684400D01*
X108444800Y-45687400D01*
X108444800Y-45689400D01*
X108445800Y-45692400D01*
X108445800Y-45694400D01*
X108445800Y-45697400D01*
X108445800Y-45699400D01*
X108445800Y-46424400D01*
X108445800Y-46427400D01*
X108445800Y-46430400D01*
X108445800Y-46432400D01*
X108444800Y-46435400D01*
X108444800Y-46437400D01*
X108443800Y-46440400D01*
X108442800Y-46442400D01*
X108441800Y-46445400D01*
X108440800Y-46447400D01*
X108439800Y-46449400D01*
X108437800Y-46452400D01*
X108436800Y-46454400D01*
X108434800Y-46456400D01*
X108433800Y-46458400D01*
X108431800Y-46460400D01*
X108429800Y-46462400D01*
X108427800Y-46463400D01*
X108425800Y-46465400D01*
X108423800Y-46466400D01*
X108420800Y-46468400D01*
X108418800Y-46469400D01*
X108416800Y-46470400D01*
X108413800Y-46471400D01*
X108411800Y-46472400D01*
X108408800Y-46473400D01*
X108406800Y-46473400D01*
X108403800Y-46474400D01*
X108401800Y-46474400D01*
X108398800Y-46474400D01*
X108395800Y-46475400D01*
X108221300Y-46474900D01*
X108221800Y-46475400D01*
X108218800Y-46474400D01*
X108215800Y-46474400D01*
X108213800Y-46474400D01*
X108210800Y-46473400D01*
X108208800Y-46473400D01*
X108205800Y-46472400D01*
X108203800Y-46471400D01*
X108200800Y-46470400D01*
X108198800Y-46469400D01*
X108195800Y-46468400D01*
X108193800Y-46466400D01*
X108191800Y-46465400D01*
X108189800Y-46463400D01*
X108187800Y-46462400D01*
X108185800Y-46460400D01*
X108183800Y-46458400D01*
X108182800Y-46456400D01*
X108180800Y-46454400D01*
X108179800Y-46452400D01*
X108177800Y-46449400D01*
X108176800Y-46447400D01*
X108175800Y-46445400D01*
X108174800Y-46442400D01*
X108173800Y-46440400D01*
X108172800Y-46437400D01*
X108172800Y-46435400D01*
X108171800Y-46432400D01*
X108171800Y-46430400D01*
X108171800Y-46427400D01*
X108170800Y-46424400D01*
X108170800Y-45699400D01*
X108171800Y-45697400D01*
X108171800Y-45694400D01*
X108171800Y-45692400D01*
X108172800Y-45689400D01*
X108172800Y-45687400D01*
X108173800Y-45684400D01*
X108174800Y-45682400D01*
X108175800Y-45679400D01*
X108176800Y-45677400D01*
X108177800Y-45675400D01*
X108179800Y-45672400D01*
X108180800Y-45670400D01*
X108182800Y-45668400D01*
X108183800Y-45666400D01*
X108185800Y-45664400D01*
X108187800Y-45662400D01*
X108189800Y-45661400D01*
X108191800Y-45659400D01*
X108193800Y-45658400D01*
X108195800Y-45656400D01*
X108198800Y-45655400D01*
X108200800Y-45654400D01*
X108203800Y-45653400D01*
X108205800Y-45652400D01*
X108208800Y-45651400D01*
X108210800Y-45651400D01*
X108213800Y-45650400D01*
X108215800Y-45650400D01*
X108218800Y-45650400D01*
X108221800Y-45649400D01*
X108395800Y-45649400D01*
X108398800Y-45650400D01*
G36*
X108398800Y-45650400D02*
G01*
X108401800Y-45650400D01*
X108403800Y-45650400D01*
X108406800Y-45651400D01*
X108408800Y-45651400D01*
X108411800Y-45652400D01*
X108413800Y-45653400D01*
X108416800Y-45654400D01*
X108418800Y-45655400D01*
X108420800Y-45656400D01*
X108423800Y-45658400D01*
X108425800Y-45659400D01*
X108427800Y-45661400D01*
X108429800Y-45662400D01*
X108431800Y-45664400D01*
X108433800Y-45666400D01*
X108434800Y-45668400D01*
X108436800Y-45670400D01*
X108437800Y-45672400D01*
X108439800Y-45675400D01*
X108440800Y-45677400D01*
X108441800Y-45679400D01*
X108442800Y-45682400D01*
X108443800Y-45684400D01*
X108444800Y-45687400D01*
X108444800Y-45689400D01*
X108445800Y-45692400D01*
X108445800Y-45694400D01*
X108445800Y-45697400D01*
X108445800Y-45699400D01*
X108445800Y-46424400D01*
X108445800Y-46427400D01*
X108445800Y-46430400D01*
X108445800Y-46432400D01*
X108444800Y-46435400D01*
X108444800Y-46437400D01*
X108443800Y-46440400D01*
X108442800Y-46442400D01*
X108441800Y-46445400D01*
X108440800Y-46447400D01*
X108439800Y-46449400D01*
X108437800Y-46452400D01*
X108436800Y-46454400D01*
X108434800Y-46456400D01*
X108433800Y-46458400D01*
X108431800Y-46460400D01*
X108429800Y-46462400D01*
X108427800Y-46463400D01*
X108425800Y-46465400D01*
X108423800Y-46466400D01*
X108420800Y-46468400D01*
X108418800Y-46469400D01*
X108416800Y-46470400D01*
X108413800Y-46471400D01*
X108411800Y-46472400D01*
X108408800Y-46473400D01*
X108406800Y-46473400D01*
X108403800Y-46474400D01*
X108401800Y-46474400D01*
X108398800Y-46474400D01*
X108395800Y-46475400D01*
X108221300Y-46474900D01*
X108221800Y-46475400D01*
X108218800Y-46474400D01*
X108215800Y-46474400D01*
X108213800Y-46474400D01*
X108210800Y-46473400D01*
X108208800Y-46473400D01*
X108205800Y-46472400D01*
X108203800Y-46471400D01*
X108200800Y-46470400D01*
X108198800Y-46469400D01*
X108195800Y-46468400D01*
X108193800Y-46466400D01*
X108191800Y-46465400D01*
X108189800Y-46463400D01*
X108187800Y-46462400D01*
X108185800Y-46460400D01*
X108183800Y-46458400D01*
X108182800Y-46456400D01*
X108180800Y-46454400D01*
X108179800Y-46452400D01*
X108177800Y-46449400D01*
X108176800Y-46447400D01*
X108175800Y-46445400D01*
X108174800Y-46442400D01*
X108173800Y-46440400D01*
X108172800Y-46437400D01*
X108172800Y-46435400D01*
X108171800Y-46432400D01*
X108171800Y-46430400D01*
X108171800Y-46427400D01*
X108170800Y-46424400D01*
X108170800Y-45699400D01*
X108171800Y-45697400D01*
X108171800Y-45694400D01*
X108171800Y-45692400D01*
X108172800Y-45689400D01*
X108172800Y-45687400D01*
X108173800Y-45684400D01*
X108174800Y-45682400D01*
X108175800Y-45679400D01*
X108176800Y-45677400D01*
X108177800Y-45675400D01*
X108179800Y-45672400D01*
X108180800Y-45670400D01*
X108182800Y-45668400D01*
X108183800Y-45666400D01*
X108185800Y-45664400D01*
X108187800Y-45662400D01*
X108189800Y-45661400D01*
X108191800Y-45659400D01*
X108193800Y-45658400D01*
X108195800Y-45656400D01*
X108198800Y-45655400D01*
X108200800Y-45654400D01*
X108203800Y-45653400D01*
X108205800Y-45652400D01*
X108208800Y-45651400D01*
X108210800Y-45651400D01*
X108213800Y-45650400D01*
X108215800Y-45650400D01*
X108218800Y-45650400D01*
X108221800Y-45649400D01*
X108395800Y-45649400D01*
X108398800Y-45650400D01*
G37*
X108798800Y-45650400D02*
X108801800Y-45650400D01*
X108803800Y-45650400D01*
X108806800Y-45651400D01*
X108808800Y-45651400D01*
X108811800Y-45652400D01*
X108813800Y-45653400D01*
X108816800Y-45654400D01*
X108818800Y-45655400D01*
X108821800Y-45656400D01*
X108823800Y-45658400D01*
X108825800Y-45659400D01*
X108827800Y-45661400D01*
X108829800Y-45662400D01*
X108831800Y-45664400D01*
X108833800Y-45666400D01*
X108834800Y-45668400D01*
X108836800Y-45670400D01*
X108837800Y-45672400D01*
X108839800Y-45675400D01*
X108840800Y-45677400D01*
X108841800Y-45679400D01*
X108842800Y-45682400D01*
X108843800Y-45684400D01*
X108844800Y-45687400D01*
X108844800Y-45689400D01*
X108845800Y-45692400D01*
X108845800Y-45694400D01*
X108845800Y-45697400D01*
X108846800Y-45699400D01*
X108846800Y-46424400D01*
X108845800Y-46427400D01*
X108845800Y-46430400D01*
X108845800Y-46432400D01*
X108844800Y-46435400D01*
X108844800Y-46437400D01*
X108843800Y-46440400D01*
X108842800Y-46442400D01*
X108841800Y-46445400D01*
X108840800Y-46447400D01*
X108839800Y-46449400D01*
X108837800Y-46452400D01*
X108836800Y-46454400D01*
X108834800Y-46456400D01*
X108833800Y-46458400D01*
X108831800Y-46460400D01*
X108829800Y-46462400D01*
X108827800Y-46463400D01*
X108825800Y-46465400D01*
X108823800Y-46466400D01*
X108821800Y-46468400D01*
X108818800Y-46469400D01*
X108816800Y-46470400D01*
X108813800Y-46471400D01*
X108811800Y-46472400D01*
X108808800Y-46473400D01*
X108806800Y-46473400D01*
X108803800Y-46474400D01*
X108801800Y-46474400D01*
X108798800Y-46474400D01*
X108795800Y-46475400D01*
X108621300Y-46474900D01*
X108621800Y-46475400D01*
X108618800Y-46474400D01*
X108615800Y-46474400D01*
X108613800Y-46474400D01*
X108610800Y-46473400D01*
X108608800Y-46473400D01*
X108605800Y-46472400D01*
X108603800Y-46471400D01*
X108600800Y-46470400D01*
X108598800Y-46469400D01*
X108596800Y-46468400D01*
X108593800Y-46466400D01*
X108591800Y-46465400D01*
X108589800Y-46463400D01*
X108587800Y-46462400D01*
X108585800Y-46460400D01*
X108583800Y-46458400D01*
X108582800Y-46456400D01*
X108580800Y-46454400D01*
X108579800Y-46452400D01*
X108577800Y-46449400D01*
X108576800Y-46447400D01*
X108575800Y-46445400D01*
X108574800Y-46442400D01*
X108573800Y-46440400D01*
X108572800Y-46437400D01*
X108572800Y-46435400D01*
X108571800Y-46432400D01*
X108571800Y-46430400D01*
X108571800Y-46427400D01*
X108571800Y-46424400D01*
X108571800Y-45699400D01*
X108571800Y-45697400D01*
X108571800Y-45694400D01*
X108571800Y-45692400D01*
X108572800Y-45689400D01*
X108572800Y-45687400D01*
X108573800Y-45684400D01*
X108574800Y-45682400D01*
X108575800Y-45679400D01*
X108576800Y-45677400D01*
X108577800Y-45675400D01*
X108579800Y-45672400D01*
X108580800Y-45670400D01*
X108582800Y-45668400D01*
X108583800Y-45666400D01*
X108585800Y-45664400D01*
X108587800Y-45662400D01*
X108589800Y-45661400D01*
X108591800Y-45659400D01*
X108593800Y-45658400D01*
X108596800Y-45656400D01*
X108598800Y-45655400D01*
X108600800Y-45654400D01*
X108603800Y-45653400D01*
X108605800Y-45652400D01*
X108608800Y-45651400D01*
X108610800Y-45651400D01*
X108613800Y-45650400D01*
X108615800Y-45650400D01*
X108618800Y-45650400D01*
X108621800Y-45649400D01*
X108795800Y-45649400D01*
X108798800Y-45650400D01*
G36*
X108798800Y-45650400D02*
G01*
X108801800Y-45650400D01*
X108803800Y-45650400D01*
X108806800Y-45651400D01*
X108808800Y-45651400D01*
X108811800Y-45652400D01*
X108813800Y-45653400D01*
X108816800Y-45654400D01*
X108818800Y-45655400D01*
X108821800Y-45656400D01*
X108823800Y-45658400D01*
X108825800Y-45659400D01*
X108827800Y-45661400D01*
X108829800Y-45662400D01*
X108831800Y-45664400D01*
X108833800Y-45666400D01*
X108834800Y-45668400D01*
X108836800Y-45670400D01*
X108837800Y-45672400D01*
X108839800Y-45675400D01*
X108840800Y-45677400D01*
X108841800Y-45679400D01*
X108842800Y-45682400D01*
X108843800Y-45684400D01*
X108844800Y-45687400D01*
X108844800Y-45689400D01*
X108845800Y-45692400D01*
X108845800Y-45694400D01*
X108845800Y-45697400D01*
X108846800Y-45699400D01*
X108846800Y-46424400D01*
X108845800Y-46427400D01*
X108845800Y-46430400D01*
X108845800Y-46432400D01*
X108844800Y-46435400D01*
X108844800Y-46437400D01*
X108843800Y-46440400D01*
X108842800Y-46442400D01*
X108841800Y-46445400D01*
X108840800Y-46447400D01*
X108839800Y-46449400D01*
X108837800Y-46452400D01*
X108836800Y-46454400D01*
X108834800Y-46456400D01*
X108833800Y-46458400D01*
X108831800Y-46460400D01*
X108829800Y-46462400D01*
X108827800Y-46463400D01*
X108825800Y-46465400D01*
X108823800Y-46466400D01*
X108821800Y-46468400D01*
X108818800Y-46469400D01*
X108816800Y-46470400D01*
X108813800Y-46471400D01*
X108811800Y-46472400D01*
X108808800Y-46473400D01*
X108806800Y-46473400D01*
X108803800Y-46474400D01*
X108801800Y-46474400D01*
X108798800Y-46474400D01*
X108795800Y-46475400D01*
X108621300Y-46474900D01*
X108621800Y-46475400D01*
X108618800Y-46474400D01*
X108615800Y-46474400D01*
X108613800Y-46474400D01*
X108610800Y-46473400D01*
X108608800Y-46473400D01*
X108605800Y-46472400D01*
X108603800Y-46471400D01*
X108600800Y-46470400D01*
X108598800Y-46469400D01*
X108596800Y-46468400D01*
X108593800Y-46466400D01*
X108591800Y-46465400D01*
X108589800Y-46463400D01*
X108587800Y-46462400D01*
X108585800Y-46460400D01*
X108583800Y-46458400D01*
X108582800Y-46456400D01*
X108580800Y-46454400D01*
X108579800Y-46452400D01*
X108577800Y-46449400D01*
X108576800Y-46447400D01*
X108575800Y-46445400D01*
X108574800Y-46442400D01*
X108573800Y-46440400D01*
X108572800Y-46437400D01*
X108572800Y-46435400D01*
X108571800Y-46432400D01*
X108571800Y-46430400D01*
X108571800Y-46427400D01*
X108571800Y-46424400D01*
X108571800Y-45699400D01*
X108571800Y-45697400D01*
X108571800Y-45694400D01*
X108571800Y-45692400D01*
X108572800Y-45689400D01*
X108572800Y-45687400D01*
X108573800Y-45684400D01*
X108574800Y-45682400D01*
X108575800Y-45679400D01*
X108576800Y-45677400D01*
X108577800Y-45675400D01*
X108579800Y-45672400D01*
X108580800Y-45670400D01*
X108582800Y-45668400D01*
X108583800Y-45666400D01*
X108585800Y-45664400D01*
X108587800Y-45662400D01*
X108589800Y-45661400D01*
X108591800Y-45659400D01*
X108593800Y-45658400D01*
X108596800Y-45656400D01*
X108598800Y-45655400D01*
X108600800Y-45654400D01*
X108603800Y-45653400D01*
X108605800Y-45652400D01*
X108608800Y-45651400D01*
X108610800Y-45651400D01*
X108613800Y-45650400D01*
X108615800Y-45650400D01*
X108618800Y-45650400D01*
X108621800Y-45649400D01*
X108795800Y-45649400D01*
X108798800Y-45650400D01*
G37*
X109198800Y-45650400D02*
X109201800Y-45650400D01*
X109203800Y-45650400D01*
X109206800Y-45651400D01*
X109208800Y-45651400D01*
X109211800Y-45652400D01*
X109213800Y-45653400D01*
X109216800Y-45654400D01*
X109218800Y-45655400D01*
X109221800Y-45656400D01*
X109223800Y-45658400D01*
X109225800Y-45659400D01*
X109227800Y-45661400D01*
X109229800Y-45662400D01*
X109231800Y-45664400D01*
X109233800Y-45666400D01*
X109234800Y-45668400D01*
X109236800Y-45670400D01*
X109237800Y-45672400D01*
X109239800Y-45675400D01*
X109240800Y-45677400D01*
X109241800Y-45679400D01*
X109242800Y-45682400D01*
X109243800Y-45684400D01*
X109244800Y-45687400D01*
X109244800Y-45689400D01*
X109245800Y-45692400D01*
X109245800Y-45694400D01*
X109245800Y-45697400D01*
X109246800Y-45699400D01*
X109246800Y-46424400D01*
X109245800Y-46427400D01*
X109245800Y-46430400D01*
X109245800Y-46432400D01*
X109244800Y-46435400D01*
X109244800Y-46437400D01*
X109243800Y-46440400D01*
X109242800Y-46442400D01*
X109241800Y-46445400D01*
X109240800Y-46447400D01*
X109239800Y-46449400D01*
X109237800Y-46452400D01*
X109236800Y-46454400D01*
X109234800Y-46456400D01*
X109233800Y-46458400D01*
X109231800Y-46460400D01*
X109229800Y-46462400D01*
X109227800Y-46463400D01*
X109225800Y-46465400D01*
X109223800Y-46466400D01*
X109221800Y-46468400D01*
X109218800Y-46469400D01*
X109216800Y-46470400D01*
X109213800Y-46471400D01*
X109211800Y-46472400D01*
X109208800Y-46473400D01*
X109206800Y-46473400D01*
X109203800Y-46474400D01*
X109201800Y-46474400D01*
X109198800Y-46474400D01*
X109196800Y-46475400D01*
X109021300Y-46474900D01*
X109020800Y-46475400D01*
X109018800Y-46474400D01*
X109015800Y-46474400D01*
X109013800Y-46474400D01*
X109010800Y-46473400D01*
X109008800Y-46473400D01*
X109005800Y-46472400D01*
X109003800Y-46471400D01*
X109000800Y-46470400D01*
X108998800Y-46469400D01*
X108996800Y-46468400D01*
X108993800Y-46466400D01*
X108991800Y-46465400D01*
X108989800Y-46463400D01*
X108987800Y-46462400D01*
X108985800Y-46460400D01*
X108983800Y-46458400D01*
X108982800Y-46456400D01*
X108980800Y-46454400D01*
X108979800Y-46452400D01*
X108977800Y-46450400D01*
X108976800Y-46447400D01*
X108975800Y-46445400D01*
X108974800Y-46442400D01*
X108973800Y-46440400D01*
X108972800Y-46437400D01*
X108972800Y-46435400D01*
X108971800Y-46432400D01*
X108971800Y-46430400D01*
X108971800Y-46427400D01*
X108971800Y-46424400D01*
X108971800Y-45699400D01*
X108971800Y-45697400D01*
X108971800Y-45694400D01*
X108971800Y-45692400D01*
X108972800Y-45689400D01*
X108972800Y-45687400D01*
X108973800Y-45684400D01*
X108974800Y-45682400D01*
X108975800Y-45679400D01*
X108976800Y-45677400D01*
X108977800Y-45675400D01*
X108979800Y-45672400D01*
X108980800Y-45670400D01*
X108982800Y-45668400D01*
X108983800Y-45666400D01*
X108985800Y-45664400D01*
X108987800Y-45662400D01*
X108989800Y-45661400D01*
X108991800Y-45659400D01*
X108993800Y-45658400D01*
X108996800Y-45656400D01*
X108998800Y-45655400D01*
X109000800Y-45654400D01*
X109003800Y-45653400D01*
X109005800Y-45652400D01*
X109008800Y-45651400D01*
X109010800Y-45651400D01*
X109013800Y-45650400D01*
X109015800Y-45650400D01*
X109018800Y-45650400D01*
X109020800Y-45649400D01*
X109196800Y-45649400D01*
X109198800Y-45650400D01*
G36*
X109198800Y-45650400D02*
G01*
X109201800Y-45650400D01*
X109203800Y-45650400D01*
X109206800Y-45651400D01*
X109208800Y-45651400D01*
X109211800Y-45652400D01*
X109213800Y-45653400D01*
X109216800Y-45654400D01*
X109218800Y-45655400D01*
X109221800Y-45656400D01*
X109223800Y-45658400D01*
X109225800Y-45659400D01*
X109227800Y-45661400D01*
X109229800Y-45662400D01*
X109231800Y-45664400D01*
X109233800Y-45666400D01*
X109234800Y-45668400D01*
X109236800Y-45670400D01*
X109237800Y-45672400D01*
X109239800Y-45675400D01*
X109240800Y-45677400D01*
X109241800Y-45679400D01*
X109242800Y-45682400D01*
X109243800Y-45684400D01*
X109244800Y-45687400D01*
X109244800Y-45689400D01*
X109245800Y-45692400D01*
X109245800Y-45694400D01*
X109245800Y-45697400D01*
X109246800Y-45699400D01*
X109246800Y-46424400D01*
X109245800Y-46427400D01*
X109245800Y-46430400D01*
X109245800Y-46432400D01*
X109244800Y-46435400D01*
X109244800Y-46437400D01*
X109243800Y-46440400D01*
X109242800Y-46442400D01*
X109241800Y-46445400D01*
X109240800Y-46447400D01*
X109239800Y-46449400D01*
X109237800Y-46452400D01*
X109236800Y-46454400D01*
X109234800Y-46456400D01*
X109233800Y-46458400D01*
X109231800Y-46460400D01*
X109229800Y-46462400D01*
X109227800Y-46463400D01*
X109225800Y-46465400D01*
X109223800Y-46466400D01*
X109221800Y-46468400D01*
X109218800Y-46469400D01*
X109216800Y-46470400D01*
X109213800Y-46471400D01*
X109211800Y-46472400D01*
X109208800Y-46473400D01*
X109206800Y-46473400D01*
X109203800Y-46474400D01*
X109201800Y-46474400D01*
X109198800Y-46474400D01*
X109196800Y-46475400D01*
X109021300Y-46474900D01*
X109020800Y-46475400D01*
X109018800Y-46474400D01*
X109015800Y-46474400D01*
X109013800Y-46474400D01*
X109010800Y-46473400D01*
X109008800Y-46473400D01*
X109005800Y-46472400D01*
X109003800Y-46471400D01*
X109000800Y-46470400D01*
X108998800Y-46469400D01*
X108996800Y-46468400D01*
X108993800Y-46466400D01*
X108991800Y-46465400D01*
X108989800Y-46463400D01*
X108987800Y-46462400D01*
X108985800Y-46460400D01*
X108983800Y-46458400D01*
X108982800Y-46456400D01*
X108980800Y-46454400D01*
X108979800Y-46452400D01*
X108977800Y-46450400D01*
X108976800Y-46447400D01*
X108975800Y-46445400D01*
X108974800Y-46442400D01*
X108973800Y-46440400D01*
X108972800Y-46437400D01*
X108972800Y-46435400D01*
X108971800Y-46432400D01*
X108971800Y-46430400D01*
X108971800Y-46427400D01*
X108971800Y-46424400D01*
X108971800Y-45699400D01*
X108971800Y-45697400D01*
X108971800Y-45694400D01*
X108971800Y-45692400D01*
X108972800Y-45689400D01*
X108972800Y-45687400D01*
X108973800Y-45684400D01*
X108974800Y-45682400D01*
X108975800Y-45679400D01*
X108976800Y-45677400D01*
X108977800Y-45675400D01*
X108979800Y-45672400D01*
X108980800Y-45670400D01*
X108982800Y-45668400D01*
X108983800Y-45666400D01*
X108985800Y-45664400D01*
X108987800Y-45662400D01*
X108989800Y-45661400D01*
X108991800Y-45659400D01*
X108993800Y-45658400D01*
X108996800Y-45656400D01*
X108998800Y-45655400D01*
X109000800Y-45654400D01*
X109003800Y-45653400D01*
X109005800Y-45652400D01*
X109008800Y-45651400D01*
X109010800Y-45651400D01*
X109013800Y-45650400D01*
X109015800Y-45650400D01*
X109018800Y-45650400D01*
X109020800Y-45649400D01*
X109196800Y-45649400D01*
X109198800Y-45650400D01*
G37*
X109598800Y-45650400D02*
X109601800Y-45650400D01*
X109603800Y-45650400D01*
X109606800Y-45651400D01*
X109608800Y-45651400D01*
X109611800Y-45652400D01*
X109613800Y-45653400D01*
X109616800Y-45654400D01*
X109618800Y-45655400D01*
X109620800Y-45656400D01*
X109623800Y-45658400D01*
X109625800Y-45659400D01*
X109627800Y-45661400D01*
X109629800Y-45662400D01*
X109631800Y-45664400D01*
X109633800Y-45666400D01*
X109634800Y-45668400D01*
X109636800Y-45670400D01*
X109637800Y-45672400D01*
X109639800Y-45675400D01*
X109640800Y-45677400D01*
X109641800Y-45679400D01*
X109642800Y-45682400D01*
X109643800Y-45684400D01*
X109644800Y-45687400D01*
X109644800Y-45689400D01*
X109645800Y-45692400D01*
X109645800Y-45694400D01*
X109645800Y-45697400D01*
X109645800Y-45699400D01*
X109645800Y-46424400D01*
X109645800Y-46427400D01*
X109645800Y-46430400D01*
X109645800Y-46432400D01*
X109644800Y-46435400D01*
X109644800Y-46437400D01*
X109643800Y-46440400D01*
X109642800Y-46442400D01*
X109641800Y-46445400D01*
X109640800Y-46447400D01*
X109639800Y-46449400D01*
X109637800Y-46452400D01*
X109636800Y-46454400D01*
X109634800Y-46456400D01*
X109633800Y-46458400D01*
X109631800Y-46460400D01*
X109629800Y-46462400D01*
X109627800Y-46463400D01*
X109625800Y-46465400D01*
X109623800Y-46466400D01*
X109620800Y-46468400D01*
X109618800Y-46469400D01*
X109616800Y-46470400D01*
X109613800Y-46471400D01*
X109611800Y-46472400D01*
X109608800Y-46473400D01*
X109606800Y-46473400D01*
X109603800Y-46474400D01*
X109601800Y-46474400D01*
X109598800Y-46474400D01*
X109595800Y-46475400D01*
X109421300Y-46474900D01*
X109420800Y-46475400D01*
X109418800Y-46474400D01*
X109415800Y-46474400D01*
X109413800Y-46474400D01*
X109410800Y-46473400D01*
X109408800Y-46473400D01*
X109405800Y-46472400D01*
X109403800Y-46471400D01*
X109400800Y-46470400D01*
X109398800Y-46469400D01*
X109395800Y-46468400D01*
X109393800Y-46466400D01*
X109391800Y-46465400D01*
X109389800Y-46463400D01*
X109387800Y-46462400D01*
X109385800Y-46460400D01*
X109383800Y-46458400D01*
X109382800Y-46456400D01*
X109380800Y-46454400D01*
X109379800Y-46452400D01*
X109377800Y-46450400D01*
X109376800Y-46447400D01*
X109375800Y-46445400D01*
X109374800Y-46442400D01*
X109373800Y-46440400D01*
X109372800Y-46437400D01*
X109372800Y-46435400D01*
X109371800Y-46432400D01*
X109371800Y-46430400D01*
X109371800Y-46427400D01*
X109371800Y-46424400D01*
X109371800Y-45699400D01*
X109371800Y-45697400D01*
X109371800Y-45694400D01*
X109371800Y-45692400D01*
X109372800Y-45689400D01*
X109372800Y-45687400D01*
X109373800Y-45684400D01*
X109374800Y-45682400D01*
X109375800Y-45679400D01*
X109376800Y-45677400D01*
X109377800Y-45675400D01*
X109379800Y-45672400D01*
X109380800Y-45670400D01*
X109382800Y-45668400D01*
X109383800Y-45666400D01*
X109385800Y-45664400D01*
X109387800Y-45662400D01*
X109389800Y-45661400D01*
X109391800Y-45659400D01*
X109393800Y-45658400D01*
X109395800Y-45656400D01*
X109398800Y-45655400D01*
X109400800Y-45654400D01*
X109403800Y-45653400D01*
X109405800Y-45652400D01*
X109408800Y-45651400D01*
X109410800Y-45651400D01*
X109413800Y-45650400D01*
X109415800Y-45650400D01*
X109418800Y-45650400D01*
X109420800Y-45649400D01*
X109595800Y-45649400D01*
X109598800Y-45650400D01*
G36*
X109598800Y-45650400D02*
G01*
X109601800Y-45650400D01*
X109603800Y-45650400D01*
X109606800Y-45651400D01*
X109608800Y-45651400D01*
X109611800Y-45652400D01*
X109613800Y-45653400D01*
X109616800Y-45654400D01*
X109618800Y-45655400D01*
X109620800Y-45656400D01*
X109623800Y-45658400D01*
X109625800Y-45659400D01*
X109627800Y-45661400D01*
X109629800Y-45662400D01*
X109631800Y-45664400D01*
X109633800Y-45666400D01*
X109634800Y-45668400D01*
X109636800Y-45670400D01*
X109637800Y-45672400D01*
X109639800Y-45675400D01*
X109640800Y-45677400D01*
X109641800Y-45679400D01*
X109642800Y-45682400D01*
X109643800Y-45684400D01*
X109644800Y-45687400D01*
X109644800Y-45689400D01*
X109645800Y-45692400D01*
X109645800Y-45694400D01*
X109645800Y-45697400D01*
X109645800Y-45699400D01*
X109645800Y-46424400D01*
X109645800Y-46427400D01*
X109645800Y-46430400D01*
X109645800Y-46432400D01*
X109644800Y-46435400D01*
X109644800Y-46437400D01*
X109643800Y-46440400D01*
X109642800Y-46442400D01*
X109641800Y-46445400D01*
X109640800Y-46447400D01*
X109639800Y-46449400D01*
X109637800Y-46452400D01*
X109636800Y-46454400D01*
X109634800Y-46456400D01*
X109633800Y-46458400D01*
X109631800Y-46460400D01*
X109629800Y-46462400D01*
X109627800Y-46463400D01*
X109625800Y-46465400D01*
X109623800Y-46466400D01*
X109620800Y-46468400D01*
X109618800Y-46469400D01*
X109616800Y-46470400D01*
X109613800Y-46471400D01*
X109611800Y-46472400D01*
X109608800Y-46473400D01*
X109606800Y-46473400D01*
X109603800Y-46474400D01*
X109601800Y-46474400D01*
X109598800Y-46474400D01*
X109595800Y-46475400D01*
X109421300Y-46474900D01*
X109420800Y-46475400D01*
X109418800Y-46474400D01*
X109415800Y-46474400D01*
X109413800Y-46474400D01*
X109410800Y-46473400D01*
X109408800Y-46473400D01*
X109405800Y-46472400D01*
X109403800Y-46471400D01*
X109400800Y-46470400D01*
X109398800Y-46469400D01*
X109395800Y-46468400D01*
X109393800Y-46466400D01*
X109391800Y-46465400D01*
X109389800Y-46463400D01*
X109387800Y-46462400D01*
X109385800Y-46460400D01*
X109383800Y-46458400D01*
X109382800Y-46456400D01*
X109380800Y-46454400D01*
X109379800Y-46452400D01*
X109377800Y-46450400D01*
X109376800Y-46447400D01*
X109375800Y-46445400D01*
X109374800Y-46442400D01*
X109373800Y-46440400D01*
X109372800Y-46437400D01*
X109372800Y-46435400D01*
X109371800Y-46432400D01*
X109371800Y-46430400D01*
X109371800Y-46427400D01*
X109371800Y-46424400D01*
X109371800Y-45699400D01*
X109371800Y-45697400D01*
X109371800Y-45694400D01*
X109371800Y-45692400D01*
X109372800Y-45689400D01*
X109372800Y-45687400D01*
X109373800Y-45684400D01*
X109374800Y-45682400D01*
X109375800Y-45679400D01*
X109376800Y-45677400D01*
X109377800Y-45675400D01*
X109379800Y-45672400D01*
X109380800Y-45670400D01*
X109382800Y-45668400D01*
X109383800Y-45666400D01*
X109385800Y-45664400D01*
X109387800Y-45662400D01*
X109389800Y-45661400D01*
X109391800Y-45659400D01*
X109393800Y-45658400D01*
X109395800Y-45656400D01*
X109398800Y-45655400D01*
X109400800Y-45654400D01*
X109403800Y-45653400D01*
X109405800Y-45652400D01*
X109408800Y-45651400D01*
X109410800Y-45651400D01*
X109413800Y-45650400D01*
X109415800Y-45650400D01*
X109418800Y-45650400D01*
X109420800Y-45649400D01*
X109595800Y-45649400D01*
X109598800Y-45650400D01*
G37*
X109998800Y-45650400D02*
X110001800Y-45650400D01*
X110003800Y-45650400D01*
X110006800Y-45651400D01*
X110008800Y-45651400D01*
X110011800Y-45652400D01*
X110013800Y-45653400D01*
X110016800Y-45654400D01*
X110018800Y-45655400D01*
X110021800Y-45656400D01*
X110023800Y-45658400D01*
X110025800Y-45659400D01*
X110027800Y-45661400D01*
X110029800Y-45662400D01*
X110031800Y-45664400D01*
X110033800Y-45666400D01*
X110034800Y-45668400D01*
X110036800Y-45670400D01*
X110037800Y-45672400D01*
X110039800Y-45675400D01*
X110040800Y-45677400D01*
X110041800Y-45679400D01*
X110042800Y-45682400D01*
X110043800Y-45684400D01*
X110044800Y-45687400D01*
X110044800Y-45689400D01*
X110045800Y-45692400D01*
X110045800Y-45694400D01*
X110045800Y-45697400D01*
X110046800Y-45699400D01*
X110046800Y-46424400D01*
X110045800Y-46427400D01*
X110045800Y-46430400D01*
X110045800Y-46432400D01*
X110044800Y-46435400D01*
X110044800Y-46437400D01*
X110043800Y-46440400D01*
X110042800Y-46442400D01*
X110041800Y-46445400D01*
X110040800Y-46447400D01*
X110039800Y-46449400D01*
X110037800Y-46452400D01*
X110036800Y-46454400D01*
X110034800Y-46456400D01*
X110033800Y-46458400D01*
X110031800Y-46460400D01*
X110029800Y-46462400D01*
X110027800Y-46463400D01*
X110025800Y-46465400D01*
X110023800Y-46466400D01*
X110021800Y-46468400D01*
X110018800Y-46469400D01*
X110016800Y-46470400D01*
X110013800Y-46471400D01*
X110011800Y-46472400D01*
X110008800Y-46473400D01*
X110006800Y-46473400D01*
X110003800Y-46474400D01*
X110001800Y-46474400D01*
X109998800Y-46474400D01*
X109996800Y-46475400D01*
X109821300Y-46474900D01*
X109821800Y-46475400D01*
X109818800Y-46474400D01*
X109815800Y-46474400D01*
X109813800Y-46474400D01*
X109810800Y-46473400D01*
X109808800Y-46473400D01*
X109805800Y-46472400D01*
X109803800Y-46471400D01*
X109800800Y-46470400D01*
X109798800Y-46469400D01*
X109796800Y-46468400D01*
X109793800Y-46466400D01*
X109791800Y-46465400D01*
X109789800Y-46463400D01*
X109787800Y-46462400D01*
X109785800Y-46460400D01*
X109783800Y-46458400D01*
X109782800Y-46456400D01*
X109780800Y-46454400D01*
X109779800Y-46452400D01*
X109777800Y-46449400D01*
X109776800Y-46447400D01*
X109775800Y-46445400D01*
X109774800Y-46442400D01*
X109773800Y-46440400D01*
X109772800Y-46437400D01*
X109772800Y-46435400D01*
X109771800Y-46432400D01*
X109771800Y-46430400D01*
X109771800Y-46427400D01*
X109770800Y-46424400D01*
X109770800Y-45699400D01*
X109771800Y-45697400D01*
X109771800Y-45694400D01*
X109771800Y-45692400D01*
X109772800Y-45689400D01*
X109772800Y-45687400D01*
X109773800Y-45684400D01*
X109774800Y-45682400D01*
X109775800Y-45679400D01*
X109776800Y-45677400D01*
X109777800Y-45675400D01*
X109779800Y-45672400D01*
X109780800Y-45670400D01*
X109782800Y-45668400D01*
X109783800Y-45666400D01*
X109785800Y-45664400D01*
X109787800Y-45662400D01*
X109789800Y-45661400D01*
X109791800Y-45659400D01*
X109793800Y-45658400D01*
X109796800Y-45656400D01*
X109798800Y-45655400D01*
X109800800Y-45654400D01*
X109803800Y-45653400D01*
X109805800Y-45652400D01*
X109808800Y-45651400D01*
X109810800Y-45651400D01*
X109813800Y-45650400D01*
X109815800Y-45650400D01*
X109818800Y-45650400D01*
X109821800Y-45649400D01*
X109996800Y-45649400D01*
X109998800Y-45650400D01*
G36*
X109998800Y-45650400D02*
G01*
X110001800Y-45650400D01*
X110003800Y-45650400D01*
X110006800Y-45651400D01*
X110008800Y-45651400D01*
X110011800Y-45652400D01*
X110013800Y-45653400D01*
X110016800Y-45654400D01*
X110018800Y-45655400D01*
X110021800Y-45656400D01*
X110023800Y-45658400D01*
X110025800Y-45659400D01*
X110027800Y-45661400D01*
X110029800Y-45662400D01*
X110031800Y-45664400D01*
X110033800Y-45666400D01*
X110034800Y-45668400D01*
X110036800Y-45670400D01*
X110037800Y-45672400D01*
X110039800Y-45675400D01*
X110040800Y-45677400D01*
X110041800Y-45679400D01*
X110042800Y-45682400D01*
X110043800Y-45684400D01*
X110044800Y-45687400D01*
X110044800Y-45689400D01*
X110045800Y-45692400D01*
X110045800Y-45694400D01*
X110045800Y-45697400D01*
X110046800Y-45699400D01*
X110046800Y-46424400D01*
X110045800Y-46427400D01*
X110045800Y-46430400D01*
X110045800Y-46432400D01*
X110044800Y-46435400D01*
X110044800Y-46437400D01*
X110043800Y-46440400D01*
X110042800Y-46442400D01*
X110041800Y-46445400D01*
X110040800Y-46447400D01*
X110039800Y-46449400D01*
X110037800Y-46452400D01*
X110036800Y-46454400D01*
X110034800Y-46456400D01*
X110033800Y-46458400D01*
X110031800Y-46460400D01*
X110029800Y-46462400D01*
X110027800Y-46463400D01*
X110025800Y-46465400D01*
X110023800Y-46466400D01*
X110021800Y-46468400D01*
X110018800Y-46469400D01*
X110016800Y-46470400D01*
X110013800Y-46471400D01*
X110011800Y-46472400D01*
X110008800Y-46473400D01*
X110006800Y-46473400D01*
X110003800Y-46474400D01*
X110001800Y-46474400D01*
X109998800Y-46474400D01*
X109996800Y-46475400D01*
X109821300Y-46474900D01*
X109821800Y-46475400D01*
X109818800Y-46474400D01*
X109815800Y-46474400D01*
X109813800Y-46474400D01*
X109810800Y-46473400D01*
X109808800Y-46473400D01*
X109805800Y-46472400D01*
X109803800Y-46471400D01*
X109800800Y-46470400D01*
X109798800Y-46469400D01*
X109796800Y-46468400D01*
X109793800Y-46466400D01*
X109791800Y-46465400D01*
X109789800Y-46463400D01*
X109787800Y-46462400D01*
X109785800Y-46460400D01*
X109783800Y-46458400D01*
X109782800Y-46456400D01*
X109780800Y-46454400D01*
X109779800Y-46452400D01*
X109777800Y-46449400D01*
X109776800Y-46447400D01*
X109775800Y-46445400D01*
X109774800Y-46442400D01*
X109773800Y-46440400D01*
X109772800Y-46437400D01*
X109772800Y-46435400D01*
X109771800Y-46432400D01*
X109771800Y-46430400D01*
X109771800Y-46427400D01*
X109770800Y-46424400D01*
X109770800Y-45699400D01*
X109771800Y-45697400D01*
X109771800Y-45694400D01*
X109771800Y-45692400D01*
X109772800Y-45689400D01*
X109772800Y-45687400D01*
X109773800Y-45684400D01*
X109774800Y-45682400D01*
X109775800Y-45679400D01*
X109776800Y-45677400D01*
X109777800Y-45675400D01*
X109779800Y-45672400D01*
X109780800Y-45670400D01*
X109782800Y-45668400D01*
X109783800Y-45666400D01*
X109785800Y-45664400D01*
X109787800Y-45662400D01*
X109789800Y-45661400D01*
X109791800Y-45659400D01*
X109793800Y-45658400D01*
X109796800Y-45656400D01*
X109798800Y-45655400D01*
X109800800Y-45654400D01*
X109803800Y-45653400D01*
X109805800Y-45652400D01*
X109808800Y-45651400D01*
X109810800Y-45651400D01*
X109813800Y-45650400D01*
X109815800Y-45650400D01*
X109818800Y-45650400D01*
X109821800Y-45649400D01*
X109996800Y-45649400D01*
X109998800Y-45650400D01*
G37*
X107998800Y-47300400D02*
X108001800Y-47300400D01*
X108003800Y-47300400D01*
X108006800Y-47301400D01*
X108008800Y-47301400D01*
X108011800Y-47302400D01*
X108013800Y-47303400D01*
X108016800Y-47304400D01*
X108018800Y-47305400D01*
X108020800Y-47306400D01*
X108023800Y-47308400D01*
X108025800Y-47309400D01*
X108027800Y-47311400D01*
X108029800Y-47312400D01*
X108031800Y-47314400D01*
X108033800Y-47316400D01*
X108034800Y-47318400D01*
X108036800Y-47320400D01*
X108037800Y-47322400D01*
X108039800Y-47325400D01*
X108040800Y-47327400D01*
X108041800Y-47329400D01*
X108042800Y-47332400D01*
X108043800Y-47334400D01*
X108044800Y-47337400D01*
X108044800Y-47339400D01*
X108045800Y-47342400D01*
X108045800Y-47344400D01*
X108045800Y-47347400D01*
X108045800Y-47350400D01*
X108045800Y-48075400D01*
X108045800Y-48077400D01*
X108045800Y-48080400D01*
X108045800Y-48082400D01*
X108044800Y-48085400D01*
X108044800Y-48087400D01*
X108043800Y-48090400D01*
X108042800Y-48092400D01*
X108041800Y-48095400D01*
X108040800Y-48097400D01*
X108039800Y-48099400D01*
X108037800Y-48102400D01*
X108036800Y-48104400D01*
X108034800Y-48106400D01*
X108033800Y-48108400D01*
X108031800Y-48110400D01*
X108029800Y-48112400D01*
X108027800Y-48113400D01*
X108025800Y-48115400D01*
X108023800Y-48116400D01*
X108020800Y-48118400D01*
X108018800Y-48119400D01*
X108016800Y-48120400D01*
X108013800Y-48121400D01*
X108011800Y-48122400D01*
X108008800Y-48123400D01*
X108006800Y-48123400D01*
X108003800Y-48124400D01*
X108001800Y-48124400D01*
X107998800Y-48124400D01*
X107996800Y-48125400D01*
X107821300Y-48124900D01*
X107820800Y-48125400D01*
X107818800Y-48124400D01*
X107815800Y-48124400D01*
X107813800Y-48124400D01*
X107810800Y-48123400D01*
X107808800Y-48123400D01*
X107805800Y-48122400D01*
X107803800Y-48121400D01*
X107800800Y-48120400D01*
X107798800Y-48119400D01*
X107795800Y-48118400D01*
X107793800Y-48116400D01*
X107791800Y-48115400D01*
X107789800Y-48113400D01*
X107787800Y-48112400D01*
X107785800Y-48110400D01*
X107783800Y-48108400D01*
X107782800Y-48106400D01*
X107780800Y-48104400D01*
X107779800Y-48102400D01*
X107777800Y-48099400D01*
X107776800Y-48097400D01*
X107775800Y-48095400D01*
X107774800Y-48092400D01*
X107773800Y-48090400D01*
X107772800Y-48087400D01*
X107772800Y-48085400D01*
X107771800Y-48082400D01*
X107771800Y-48080400D01*
X107771800Y-48077400D01*
X107770800Y-48075400D01*
X107770800Y-47350400D01*
X107771800Y-47347400D01*
X107771800Y-47344400D01*
X107771800Y-47342400D01*
X107772800Y-47339400D01*
X107772800Y-47337400D01*
X107773800Y-47334400D01*
X107774800Y-47332400D01*
X107775800Y-47329400D01*
X107776800Y-47327400D01*
X107777800Y-47325400D01*
X107779800Y-47322400D01*
X107780800Y-47320400D01*
X107782800Y-47318400D01*
X107783800Y-47316400D01*
X107785800Y-47314400D01*
X107787800Y-47312400D01*
X107789800Y-47311400D01*
X107791800Y-47309400D01*
X107793800Y-47308400D01*
X107795800Y-47306400D01*
X107798800Y-47305400D01*
X107800800Y-47304400D01*
X107803800Y-47303400D01*
X107805800Y-47302400D01*
X107808800Y-47301400D01*
X107810800Y-47301400D01*
X107813800Y-47300400D01*
X107815800Y-47300400D01*
X107818800Y-47300400D01*
X107820800Y-47299400D01*
X107996800Y-47299400D01*
X107998800Y-47300400D01*
G36*
X107998800Y-47300400D02*
G01*
X108001800Y-47300400D01*
X108003800Y-47300400D01*
X108006800Y-47301400D01*
X108008800Y-47301400D01*
X108011800Y-47302400D01*
X108013800Y-47303400D01*
X108016800Y-47304400D01*
X108018800Y-47305400D01*
X108020800Y-47306400D01*
X108023800Y-47308400D01*
X108025800Y-47309400D01*
X108027800Y-47311400D01*
X108029800Y-47312400D01*
X108031800Y-47314400D01*
X108033800Y-47316400D01*
X108034800Y-47318400D01*
X108036800Y-47320400D01*
X108037800Y-47322400D01*
X108039800Y-47325400D01*
X108040800Y-47327400D01*
X108041800Y-47329400D01*
X108042800Y-47332400D01*
X108043800Y-47334400D01*
X108044800Y-47337400D01*
X108044800Y-47339400D01*
X108045800Y-47342400D01*
X108045800Y-47344400D01*
X108045800Y-47347400D01*
X108045800Y-47350400D01*
X108045800Y-48075400D01*
X108045800Y-48077400D01*
X108045800Y-48080400D01*
X108045800Y-48082400D01*
X108044800Y-48085400D01*
X108044800Y-48087400D01*
X108043800Y-48090400D01*
X108042800Y-48092400D01*
X108041800Y-48095400D01*
X108040800Y-48097400D01*
X108039800Y-48099400D01*
X108037800Y-48102400D01*
X108036800Y-48104400D01*
X108034800Y-48106400D01*
X108033800Y-48108400D01*
X108031800Y-48110400D01*
X108029800Y-48112400D01*
X108027800Y-48113400D01*
X108025800Y-48115400D01*
X108023800Y-48116400D01*
X108020800Y-48118400D01*
X108018800Y-48119400D01*
X108016800Y-48120400D01*
X108013800Y-48121400D01*
X108011800Y-48122400D01*
X108008800Y-48123400D01*
X108006800Y-48123400D01*
X108003800Y-48124400D01*
X108001800Y-48124400D01*
X107998800Y-48124400D01*
X107996800Y-48125400D01*
X107821300Y-48124900D01*
X107820800Y-48125400D01*
X107818800Y-48124400D01*
X107815800Y-48124400D01*
X107813800Y-48124400D01*
X107810800Y-48123400D01*
X107808800Y-48123400D01*
X107805800Y-48122400D01*
X107803800Y-48121400D01*
X107800800Y-48120400D01*
X107798800Y-48119400D01*
X107795800Y-48118400D01*
X107793800Y-48116400D01*
X107791800Y-48115400D01*
X107789800Y-48113400D01*
X107787800Y-48112400D01*
X107785800Y-48110400D01*
X107783800Y-48108400D01*
X107782800Y-48106400D01*
X107780800Y-48104400D01*
X107779800Y-48102400D01*
X107777800Y-48099400D01*
X107776800Y-48097400D01*
X107775800Y-48095400D01*
X107774800Y-48092400D01*
X107773800Y-48090400D01*
X107772800Y-48087400D01*
X107772800Y-48085400D01*
X107771800Y-48082400D01*
X107771800Y-48080400D01*
X107771800Y-48077400D01*
X107770800Y-48075400D01*
X107770800Y-47350400D01*
X107771800Y-47347400D01*
X107771800Y-47344400D01*
X107771800Y-47342400D01*
X107772800Y-47339400D01*
X107772800Y-47337400D01*
X107773800Y-47334400D01*
X107774800Y-47332400D01*
X107775800Y-47329400D01*
X107776800Y-47327400D01*
X107777800Y-47325400D01*
X107779800Y-47322400D01*
X107780800Y-47320400D01*
X107782800Y-47318400D01*
X107783800Y-47316400D01*
X107785800Y-47314400D01*
X107787800Y-47312400D01*
X107789800Y-47311400D01*
X107791800Y-47309400D01*
X107793800Y-47308400D01*
X107795800Y-47306400D01*
X107798800Y-47305400D01*
X107800800Y-47304400D01*
X107803800Y-47303400D01*
X107805800Y-47302400D01*
X107808800Y-47301400D01*
X107810800Y-47301400D01*
X107813800Y-47300400D01*
X107815800Y-47300400D01*
X107818800Y-47300400D01*
X107820800Y-47299400D01*
X107996800Y-47299400D01*
X107998800Y-47300400D01*
G37*
X107598800Y-47300400D02*
X107601800Y-47300400D01*
X107603800Y-47300400D01*
X107606800Y-47301400D01*
X107608800Y-47301400D01*
X107611800Y-47302400D01*
X107613800Y-47303400D01*
X107616800Y-47304400D01*
X107618800Y-47305400D01*
X107621800Y-47306400D01*
X107623800Y-47308400D01*
X107625800Y-47309400D01*
X107627800Y-47311400D01*
X107629800Y-47312400D01*
X107631800Y-47314400D01*
X107633800Y-47316400D01*
X107634800Y-47318400D01*
X107636800Y-47320400D01*
X107637800Y-47322400D01*
X107639800Y-47324400D01*
X107640800Y-47327400D01*
X107641800Y-47329400D01*
X107642800Y-47332400D01*
X107643800Y-47334400D01*
X107644800Y-47337400D01*
X107644800Y-47339400D01*
X107645800Y-47342400D01*
X107645800Y-47344400D01*
X107645800Y-47347400D01*
X107645800Y-47350400D01*
X107645800Y-48075400D01*
X107645800Y-48077400D01*
X107645800Y-48080400D01*
X107645800Y-48082400D01*
X107644800Y-48085400D01*
X107644800Y-48087400D01*
X107643800Y-48090400D01*
X107642800Y-48092400D01*
X107641800Y-48095400D01*
X107640800Y-48097400D01*
X107639800Y-48099400D01*
X107637800Y-48102400D01*
X107636800Y-48104400D01*
X107634800Y-48106400D01*
X107633800Y-48108400D01*
X107631800Y-48110400D01*
X107629800Y-48112400D01*
X107627800Y-48113400D01*
X107625800Y-48115400D01*
X107623800Y-48116400D01*
X107621800Y-48118400D01*
X107618800Y-48119400D01*
X107616800Y-48120400D01*
X107613800Y-48121400D01*
X107611800Y-48122400D01*
X107608800Y-48123400D01*
X107606800Y-48123400D01*
X107603800Y-48124400D01*
X107601800Y-48124400D01*
X107598800Y-48124400D01*
X107596800Y-48125400D01*
X107421300Y-48124900D01*
X107421800Y-48125400D01*
X107418800Y-48124400D01*
X107415800Y-48124400D01*
X107413800Y-48124400D01*
X107410800Y-48123400D01*
X107408800Y-48123400D01*
X107405800Y-48122400D01*
X107403800Y-48121400D01*
X107400800Y-48120400D01*
X107398800Y-48119400D01*
X107396800Y-48118400D01*
X107393800Y-48116400D01*
X107391800Y-48115400D01*
X107389800Y-48113400D01*
X107387800Y-48112400D01*
X107385800Y-48110400D01*
X107383800Y-48108400D01*
X107382800Y-48106400D01*
X107380800Y-48104400D01*
X107379800Y-48102400D01*
X107377800Y-48099400D01*
X107376800Y-48097400D01*
X107375800Y-48095400D01*
X107374800Y-48092400D01*
X107373800Y-48090400D01*
X107372800Y-48087400D01*
X107372800Y-48085400D01*
X107371800Y-48082400D01*
X107371800Y-48080400D01*
X107371800Y-48077400D01*
X107371800Y-48075400D01*
X107371800Y-47350400D01*
X107371800Y-47347400D01*
X107371800Y-47344400D01*
X107371800Y-47342400D01*
X107372800Y-47339400D01*
X107372800Y-47337400D01*
X107373800Y-47334400D01*
X107374800Y-47332400D01*
X107375800Y-47329400D01*
X107376800Y-47327400D01*
X107377800Y-47325400D01*
X107379800Y-47322400D01*
X107380800Y-47320400D01*
X107382800Y-47318400D01*
X107383800Y-47316400D01*
X107385800Y-47314400D01*
X107387800Y-47312400D01*
X107389800Y-47311400D01*
X107391800Y-47309400D01*
X107393800Y-47308400D01*
X107396800Y-47306400D01*
X107398800Y-47305400D01*
X107400800Y-47304400D01*
X107403800Y-47303400D01*
X107405800Y-47302400D01*
X107408800Y-47301400D01*
X107410800Y-47301400D01*
X107413800Y-47300400D01*
X107415800Y-47300400D01*
X107418800Y-47300400D01*
X107421800Y-47299400D01*
X107596800Y-47299400D01*
X107598800Y-47300400D01*
G36*
X107598800Y-47300400D02*
G01*
X107601800Y-47300400D01*
X107603800Y-47300400D01*
X107606800Y-47301400D01*
X107608800Y-47301400D01*
X107611800Y-47302400D01*
X107613800Y-47303400D01*
X107616800Y-47304400D01*
X107618800Y-47305400D01*
X107621800Y-47306400D01*
X107623800Y-47308400D01*
X107625800Y-47309400D01*
X107627800Y-47311400D01*
X107629800Y-47312400D01*
X107631800Y-47314400D01*
X107633800Y-47316400D01*
X107634800Y-47318400D01*
X107636800Y-47320400D01*
X107637800Y-47322400D01*
X107639800Y-47324400D01*
X107640800Y-47327400D01*
X107641800Y-47329400D01*
X107642800Y-47332400D01*
X107643800Y-47334400D01*
X107644800Y-47337400D01*
X107644800Y-47339400D01*
X107645800Y-47342400D01*
X107645800Y-47344400D01*
X107645800Y-47347400D01*
X107645800Y-47350400D01*
X107645800Y-48075400D01*
X107645800Y-48077400D01*
X107645800Y-48080400D01*
X107645800Y-48082400D01*
X107644800Y-48085400D01*
X107644800Y-48087400D01*
X107643800Y-48090400D01*
X107642800Y-48092400D01*
X107641800Y-48095400D01*
X107640800Y-48097400D01*
X107639800Y-48099400D01*
X107637800Y-48102400D01*
X107636800Y-48104400D01*
X107634800Y-48106400D01*
X107633800Y-48108400D01*
X107631800Y-48110400D01*
X107629800Y-48112400D01*
X107627800Y-48113400D01*
X107625800Y-48115400D01*
X107623800Y-48116400D01*
X107621800Y-48118400D01*
X107618800Y-48119400D01*
X107616800Y-48120400D01*
X107613800Y-48121400D01*
X107611800Y-48122400D01*
X107608800Y-48123400D01*
X107606800Y-48123400D01*
X107603800Y-48124400D01*
X107601800Y-48124400D01*
X107598800Y-48124400D01*
X107596800Y-48125400D01*
X107421300Y-48124900D01*
X107421800Y-48125400D01*
X107418800Y-48124400D01*
X107415800Y-48124400D01*
X107413800Y-48124400D01*
X107410800Y-48123400D01*
X107408800Y-48123400D01*
X107405800Y-48122400D01*
X107403800Y-48121400D01*
X107400800Y-48120400D01*
X107398800Y-48119400D01*
X107396800Y-48118400D01*
X107393800Y-48116400D01*
X107391800Y-48115400D01*
X107389800Y-48113400D01*
X107387800Y-48112400D01*
X107385800Y-48110400D01*
X107383800Y-48108400D01*
X107382800Y-48106400D01*
X107380800Y-48104400D01*
X107379800Y-48102400D01*
X107377800Y-48099400D01*
X107376800Y-48097400D01*
X107375800Y-48095400D01*
X107374800Y-48092400D01*
X107373800Y-48090400D01*
X107372800Y-48087400D01*
X107372800Y-48085400D01*
X107371800Y-48082400D01*
X107371800Y-48080400D01*
X107371800Y-48077400D01*
X107371800Y-48075400D01*
X107371800Y-47350400D01*
X107371800Y-47347400D01*
X107371800Y-47344400D01*
X107371800Y-47342400D01*
X107372800Y-47339400D01*
X107372800Y-47337400D01*
X107373800Y-47334400D01*
X107374800Y-47332400D01*
X107375800Y-47329400D01*
X107376800Y-47327400D01*
X107377800Y-47325400D01*
X107379800Y-47322400D01*
X107380800Y-47320400D01*
X107382800Y-47318400D01*
X107383800Y-47316400D01*
X107385800Y-47314400D01*
X107387800Y-47312400D01*
X107389800Y-47311400D01*
X107391800Y-47309400D01*
X107393800Y-47308400D01*
X107396800Y-47306400D01*
X107398800Y-47305400D01*
X107400800Y-47304400D01*
X107403800Y-47303400D01*
X107405800Y-47302400D01*
X107408800Y-47301400D01*
X107410800Y-47301400D01*
X107413800Y-47300400D01*
X107415800Y-47300400D01*
X107418800Y-47300400D01*
X107421800Y-47299400D01*
X107596800Y-47299400D01*
X107598800Y-47300400D01*
G37*
X107198800Y-47300400D02*
X107201800Y-47300400D01*
X107203800Y-47300400D01*
X107206800Y-47301400D01*
X107208800Y-47301400D01*
X107211800Y-47302400D01*
X107213800Y-47303400D01*
X107216800Y-47304400D01*
X107218800Y-47305400D01*
X107220800Y-47306400D01*
X107223800Y-47308400D01*
X107225800Y-47309400D01*
X107227800Y-47311400D01*
X107229800Y-47312400D01*
X107231800Y-47314400D01*
X107233800Y-47316400D01*
X107234800Y-47318400D01*
X107236800Y-47320400D01*
X107237800Y-47322400D01*
X107239800Y-47325400D01*
X107240800Y-47327400D01*
X107241800Y-47329400D01*
X107242800Y-47332400D01*
X107243800Y-47334400D01*
X107244800Y-47337400D01*
X107244800Y-47339400D01*
X107245800Y-47342400D01*
X107245800Y-47344400D01*
X107245800Y-47347400D01*
X107246800Y-47350400D01*
X107246800Y-48075400D01*
X107245800Y-48077400D01*
X107245800Y-48080400D01*
X107245800Y-48082400D01*
X107244800Y-48085400D01*
X107244800Y-48087400D01*
X107243800Y-48090400D01*
X107242800Y-48092400D01*
X107241800Y-48095400D01*
X107240800Y-48097400D01*
X107239800Y-48099400D01*
X107237800Y-48102400D01*
X107236800Y-48104400D01*
X107234800Y-48106400D01*
X107233800Y-48108400D01*
X107231800Y-48110400D01*
X107229800Y-48112400D01*
X107227800Y-48113400D01*
X107225800Y-48115400D01*
X107223800Y-48116400D01*
X107220800Y-48118400D01*
X107218800Y-48119400D01*
X107216800Y-48120400D01*
X107213800Y-48121400D01*
X107211800Y-48122400D01*
X107208800Y-48123400D01*
X107206800Y-48123400D01*
X107203800Y-48124400D01*
X107201800Y-48124400D01*
X107198800Y-48124400D01*
X107195800Y-48125400D01*
X107021300Y-48124900D01*
X107020800Y-48125400D01*
X107018800Y-48124400D01*
X107015800Y-48124400D01*
X107013800Y-48124400D01*
X107010800Y-48123400D01*
X107008800Y-48123400D01*
X107005800Y-48122400D01*
X107003800Y-48121400D01*
X107000800Y-48120400D01*
X106998800Y-48119400D01*
X106995800Y-48118400D01*
X106993800Y-48116400D01*
X106991800Y-48115400D01*
X106989800Y-48113400D01*
X106987800Y-48112400D01*
X106985800Y-48110400D01*
X106983800Y-48108400D01*
X106982800Y-48106400D01*
X106980800Y-48104400D01*
X106979800Y-48102400D01*
X106977800Y-48099400D01*
X106976800Y-48097400D01*
X106975800Y-48095400D01*
X106974800Y-48092400D01*
X106973800Y-48090400D01*
X106972800Y-48087400D01*
X106972800Y-48085400D01*
X106971800Y-48082400D01*
X106971800Y-48080400D01*
X106971800Y-48077400D01*
X106970800Y-48075400D01*
X106970800Y-47350400D01*
X106971800Y-47347400D01*
X106971800Y-47344400D01*
X106971800Y-47342400D01*
X106972800Y-47339400D01*
X106972800Y-47337400D01*
X106973800Y-47334400D01*
X106974800Y-47332400D01*
X106975800Y-47329400D01*
X106976800Y-47327400D01*
X106977800Y-47325400D01*
X106979800Y-47322400D01*
X106980800Y-47320400D01*
X106982800Y-47318400D01*
X106983800Y-47316400D01*
X106985800Y-47314400D01*
X106987800Y-47312400D01*
X106989800Y-47311400D01*
X106991800Y-47309400D01*
X106993800Y-47308400D01*
X106995800Y-47306400D01*
X106998800Y-47305400D01*
X107000800Y-47304400D01*
X107003800Y-47303400D01*
X107005800Y-47302400D01*
X107008800Y-47301400D01*
X107010800Y-47301400D01*
X107013800Y-47300400D01*
X107015800Y-47300400D01*
X107018800Y-47300400D01*
X107020800Y-47299400D01*
X107195800Y-47299400D01*
X107198800Y-47300400D01*
G36*
X107198800Y-47300400D02*
G01*
X107201800Y-47300400D01*
X107203800Y-47300400D01*
X107206800Y-47301400D01*
X107208800Y-47301400D01*
X107211800Y-47302400D01*
X107213800Y-47303400D01*
X107216800Y-47304400D01*
X107218800Y-47305400D01*
X107220800Y-47306400D01*
X107223800Y-47308400D01*
X107225800Y-47309400D01*
X107227800Y-47311400D01*
X107229800Y-47312400D01*
X107231800Y-47314400D01*
X107233800Y-47316400D01*
X107234800Y-47318400D01*
X107236800Y-47320400D01*
X107237800Y-47322400D01*
X107239800Y-47325400D01*
X107240800Y-47327400D01*
X107241800Y-47329400D01*
X107242800Y-47332400D01*
X107243800Y-47334400D01*
X107244800Y-47337400D01*
X107244800Y-47339400D01*
X107245800Y-47342400D01*
X107245800Y-47344400D01*
X107245800Y-47347400D01*
X107246800Y-47350400D01*
X107246800Y-48075400D01*
X107245800Y-48077400D01*
X107245800Y-48080400D01*
X107245800Y-48082400D01*
X107244800Y-48085400D01*
X107244800Y-48087400D01*
X107243800Y-48090400D01*
X107242800Y-48092400D01*
X107241800Y-48095400D01*
X107240800Y-48097400D01*
X107239800Y-48099400D01*
X107237800Y-48102400D01*
X107236800Y-48104400D01*
X107234800Y-48106400D01*
X107233800Y-48108400D01*
X107231800Y-48110400D01*
X107229800Y-48112400D01*
X107227800Y-48113400D01*
X107225800Y-48115400D01*
X107223800Y-48116400D01*
X107220800Y-48118400D01*
X107218800Y-48119400D01*
X107216800Y-48120400D01*
X107213800Y-48121400D01*
X107211800Y-48122400D01*
X107208800Y-48123400D01*
X107206800Y-48123400D01*
X107203800Y-48124400D01*
X107201800Y-48124400D01*
X107198800Y-48124400D01*
X107195800Y-48125400D01*
X107021300Y-48124900D01*
X107020800Y-48125400D01*
X107018800Y-48124400D01*
X107015800Y-48124400D01*
X107013800Y-48124400D01*
X107010800Y-48123400D01*
X107008800Y-48123400D01*
X107005800Y-48122400D01*
X107003800Y-48121400D01*
X107000800Y-48120400D01*
X106998800Y-48119400D01*
X106995800Y-48118400D01*
X106993800Y-48116400D01*
X106991800Y-48115400D01*
X106989800Y-48113400D01*
X106987800Y-48112400D01*
X106985800Y-48110400D01*
X106983800Y-48108400D01*
X106982800Y-48106400D01*
X106980800Y-48104400D01*
X106979800Y-48102400D01*
X106977800Y-48099400D01*
X106976800Y-48097400D01*
X106975800Y-48095400D01*
X106974800Y-48092400D01*
X106973800Y-48090400D01*
X106972800Y-48087400D01*
X106972800Y-48085400D01*
X106971800Y-48082400D01*
X106971800Y-48080400D01*
X106971800Y-48077400D01*
X106970800Y-48075400D01*
X106970800Y-47350400D01*
X106971800Y-47347400D01*
X106971800Y-47344400D01*
X106971800Y-47342400D01*
X106972800Y-47339400D01*
X106972800Y-47337400D01*
X106973800Y-47334400D01*
X106974800Y-47332400D01*
X106975800Y-47329400D01*
X106976800Y-47327400D01*
X106977800Y-47325400D01*
X106979800Y-47322400D01*
X106980800Y-47320400D01*
X106982800Y-47318400D01*
X106983800Y-47316400D01*
X106985800Y-47314400D01*
X106987800Y-47312400D01*
X106989800Y-47311400D01*
X106991800Y-47309400D01*
X106993800Y-47308400D01*
X106995800Y-47306400D01*
X106998800Y-47305400D01*
X107000800Y-47304400D01*
X107003800Y-47303400D01*
X107005800Y-47302400D01*
X107008800Y-47301400D01*
X107010800Y-47301400D01*
X107013800Y-47300400D01*
X107015800Y-47300400D01*
X107018800Y-47300400D01*
X107020800Y-47299400D01*
X107195800Y-47299400D01*
X107198800Y-47300400D01*
G37*
X108398800Y-47300400D02*
X108401800Y-47300400D01*
X108403800Y-47300400D01*
X108406800Y-47301400D01*
X108408800Y-47301400D01*
X108411800Y-47302400D01*
X108413800Y-47303400D01*
X108416800Y-47304400D01*
X108418800Y-47305400D01*
X108420800Y-47306400D01*
X108423800Y-47308400D01*
X108425800Y-47309400D01*
X108427800Y-47311400D01*
X108429800Y-47312400D01*
X108431800Y-47314400D01*
X108433800Y-47316400D01*
X108434800Y-47318400D01*
X108436800Y-47320400D01*
X108437800Y-47322400D01*
X108439800Y-47325400D01*
X108440800Y-47327400D01*
X108441800Y-47329400D01*
X108442800Y-47332400D01*
X108443800Y-47334400D01*
X108444800Y-47337400D01*
X108444800Y-47339400D01*
X108445800Y-47342400D01*
X108445800Y-47344400D01*
X108445800Y-47347400D01*
X108445800Y-47350400D01*
X108445800Y-48075400D01*
X108445800Y-48077400D01*
X108445800Y-48080400D01*
X108445800Y-48082400D01*
X108444800Y-48085400D01*
X108444800Y-48087400D01*
X108443800Y-48090400D01*
X108442800Y-48092400D01*
X108441800Y-48095400D01*
X108440800Y-48097400D01*
X108439800Y-48099400D01*
X108437800Y-48102400D01*
X108436800Y-48104400D01*
X108434800Y-48106400D01*
X108433800Y-48108400D01*
X108431800Y-48110400D01*
X108429800Y-48112400D01*
X108427800Y-48113400D01*
X108425800Y-48115400D01*
X108423800Y-48116400D01*
X108420800Y-48118400D01*
X108418800Y-48119400D01*
X108416800Y-48120400D01*
X108413800Y-48121400D01*
X108411800Y-48122400D01*
X108408800Y-48123400D01*
X108406800Y-48123400D01*
X108403800Y-48124400D01*
X108401800Y-48124400D01*
X108398800Y-48124400D01*
X108395800Y-48125400D01*
X108221300Y-48124900D01*
X108221800Y-48125400D01*
X108218800Y-48124400D01*
X108215800Y-48124400D01*
X108213800Y-48124400D01*
X108210800Y-48123400D01*
X108208800Y-48123400D01*
X108205800Y-48122400D01*
X108203800Y-48121400D01*
X108200800Y-48120400D01*
X108198800Y-48119400D01*
X108195800Y-48118400D01*
X108193800Y-48116400D01*
X108191800Y-48115400D01*
X108189800Y-48113400D01*
X108187800Y-48112400D01*
X108185800Y-48110400D01*
X108183800Y-48108400D01*
X108182800Y-48106400D01*
X108180800Y-48104400D01*
X108179800Y-48102400D01*
X108177800Y-48099400D01*
X108176800Y-48097400D01*
X108175800Y-48095400D01*
X108174800Y-48092400D01*
X108173800Y-48090400D01*
X108172800Y-48087400D01*
X108172800Y-48085400D01*
X108171800Y-48082400D01*
X108171800Y-48080400D01*
X108171800Y-48077400D01*
X108170800Y-48075400D01*
X108170800Y-47350400D01*
X108171800Y-47347400D01*
X108171800Y-47344400D01*
X108171800Y-47342400D01*
X108172800Y-47339400D01*
X108172800Y-47337400D01*
X108173800Y-47334400D01*
X108174800Y-47332400D01*
X108175800Y-47329400D01*
X108176800Y-47327400D01*
X108177800Y-47325400D01*
X108179800Y-47322400D01*
X108180800Y-47320400D01*
X108182800Y-47318400D01*
X108183800Y-47316400D01*
X108185800Y-47314400D01*
X108187800Y-47312400D01*
X108189800Y-47311400D01*
X108191800Y-47309400D01*
X108193800Y-47308400D01*
X108195800Y-47306400D01*
X108198800Y-47305400D01*
X108200800Y-47304400D01*
X108203800Y-47303400D01*
X108205800Y-47302400D01*
X108208800Y-47301400D01*
X108210800Y-47301400D01*
X108213800Y-47300400D01*
X108215800Y-47300400D01*
X108218800Y-47300400D01*
X108221800Y-47299400D01*
X108395800Y-47299400D01*
X108398800Y-47300400D01*
G36*
X108398800Y-47300400D02*
G01*
X108401800Y-47300400D01*
X108403800Y-47300400D01*
X108406800Y-47301400D01*
X108408800Y-47301400D01*
X108411800Y-47302400D01*
X108413800Y-47303400D01*
X108416800Y-47304400D01*
X108418800Y-47305400D01*
X108420800Y-47306400D01*
X108423800Y-47308400D01*
X108425800Y-47309400D01*
X108427800Y-47311400D01*
X108429800Y-47312400D01*
X108431800Y-47314400D01*
X108433800Y-47316400D01*
X108434800Y-47318400D01*
X108436800Y-47320400D01*
X108437800Y-47322400D01*
X108439800Y-47325400D01*
X108440800Y-47327400D01*
X108441800Y-47329400D01*
X108442800Y-47332400D01*
X108443800Y-47334400D01*
X108444800Y-47337400D01*
X108444800Y-47339400D01*
X108445800Y-47342400D01*
X108445800Y-47344400D01*
X108445800Y-47347400D01*
X108445800Y-47350400D01*
X108445800Y-48075400D01*
X108445800Y-48077400D01*
X108445800Y-48080400D01*
X108445800Y-48082400D01*
X108444800Y-48085400D01*
X108444800Y-48087400D01*
X108443800Y-48090400D01*
X108442800Y-48092400D01*
X108441800Y-48095400D01*
X108440800Y-48097400D01*
X108439800Y-48099400D01*
X108437800Y-48102400D01*
X108436800Y-48104400D01*
X108434800Y-48106400D01*
X108433800Y-48108400D01*
X108431800Y-48110400D01*
X108429800Y-48112400D01*
X108427800Y-48113400D01*
X108425800Y-48115400D01*
X108423800Y-48116400D01*
X108420800Y-48118400D01*
X108418800Y-48119400D01*
X108416800Y-48120400D01*
X108413800Y-48121400D01*
X108411800Y-48122400D01*
X108408800Y-48123400D01*
X108406800Y-48123400D01*
X108403800Y-48124400D01*
X108401800Y-48124400D01*
X108398800Y-48124400D01*
X108395800Y-48125400D01*
X108221300Y-48124900D01*
X108221800Y-48125400D01*
X108218800Y-48124400D01*
X108215800Y-48124400D01*
X108213800Y-48124400D01*
X108210800Y-48123400D01*
X108208800Y-48123400D01*
X108205800Y-48122400D01*
X108203800Y-48121400D01*
X108200800Y-48120400D01*
X108198800Y-48119400D01*
X108195800Y-48118400D01*
X108193800Y-48116400D01*
X108191800Y-48115400D01*
X108189800Y-48113400D01*
X108187800Y-48112400D01*
X108185800Y-48110400D01*
X108183800Y-48108400D01*
X108182800Y-48106400D01*
X108180800Y-48104400D01*
X108179800Y-48102400D01*
X108177800Y-48099400D01*
X108176800Y-48097400D01*
X108175800Y-48095400D01*
X108174800Y-48092400D01*
X108173800Y-48090400D01*
X108172800Y-48087400D01*
X108172800Y-48085400D01*
X108171800Y-48082400D01*
X108171800Y-48080400D01*
X108171800Y-48077400D01*
X108170800Y-48075400D01*
X108170800Y-47350400D01*
X108171800Y-47347400D01*
X108171800Y-47344400D01*
X108171800Y-47342400D01*
X108172800Y-47339400D01*
X108172800Y-47337400D01*
X108173800Y-47334400D01*
X108174800Y-47332400D01*
X108175800Y-47329400D01*
X108176800Y-47327400D01*
X108177800Y-47325400D01*
X108179800Y-47322400D01*
X108180800Y-47320400D01*
X108182800Y-47318400D01*
X108183800Y-47316400D01*
X108185800Y-47314400D01*
X108187800Y-47312400D01*
X108189800Y-47311400D01*
X108191800Y-47309400D01*
X108193800Y-47308400D01*
X108195800Y-47306400D01*
X108198800Y-47305400D01*
X108200800Y-47304400D01*
X108203800Y-47303400D01*
X108205800Y-47302400D01*
X108208800Y-47301400D01*
X108210800Y-47301400D01*
X108213800Y-47300400D01*
X108215800Y-47300400D01*
X108218800Y-47300400D01*
X108221800Y-47299400D01*
X108395800Y-47299400D01*
X108398800Y-47300400D01*
G37*
X108798800Y-47300400D02*
X108801800Y-47300400D01*
X108803800Y-47300400D01*
X108806800Y-47301400D01*
X108808800Y-47301400D01*
X108811800Y-47302400D01*
X108813800Y-47303400D01*
X108816800Y-47304400D01*
X108818800Y-47305400D01*
X108821800Y-47306400D01*
X108823800Y-47308400D01*
X108825800Y-47309400D01*
X108827800Y-47311400D01*
X108829800Y-47312400D01*
X108831800Y-47314400D01*
X108833800Y-47316400D01*
X108834800Y-47318400D01*
X108836800Y-47320400D01*
X108837800Y-47322400D01*
X108839800Y-47325400D01*
X108840800Y-47327400D01*
X108841800Y-47329400D01*
X108842800Y-47332400D01*
X108843800Y-47334400D01*
X108844800Y-47337400D01*
X108844800Y-47339400D01*
X108845800Y-47342400D01*
X108845800Y-47344400D01*
X108845800Y-47347400D01*
X108846800Y-47350400D01*
X108846800Y-48075400D01*
X108845800Y-48077400D01*
X108845800Y-48080400D01*
X108845800Y-48082400D01*
X108844800Y-48085400D01*
X108844800Y-48087400D01*
X108843800Y-48090400D01*
X108842800Y-48092400D01*
X108841800Y-48095400D01*
X108840800Y-48097400D01*
X108839800Y-48099400D01*
X108837800Y-48102400D01*
X108836800Y-48104400D01*
X108834800Y-48106400D01*
X108833800Y-48108400D01*
X108831800Y-48110400D01*
X108829800Y-48112400D01*
X108827800Y-48113400D01*
X108825800Y-48115400D01*
X108823800Y-48116400D01*
X108821800Y-48118400D01*
X108818800Y-48119400D01*
X108816800Y-48120400D01*
X108813800Y-48121400D01*
X108811800Y-48122400D01*
X108808800Y-48123400D01*
X108806800Y-48123400D01*
X108803800Y-48124400D01*
X108801800Y-48124400D01*
X108798800Y-48124400D01*
X108795800Y-48125400D01*
X108621300Y-48124900D01*
X108621800Y-48125400D01*
X108618800Y-48124400D01*
X108615800Y-48124400D01*
X108613800Y-48124400D01*
X108610800Y-48123400D01*
X108608800Y-48123400D01*
X108605800Y-48122400D01*
X108603800Y-48121400D01*
X108600800Y-48120400D01*
X108598800Y-48119400D01*
X108596800Y-48118400D01*
X108593800Y-48116400D01*
X108591800Y-48115400D01*
X108589800Y-48113400D01*
X108587800Y-48112400D01*
X108585800Y-48110400D01*
X108583800Y-48108400D01*
X108582800Y-48106400D01*
X108580800Y-48104400D01*
X108579800Y-48102400D01*
X108577800Y-48099400D01*
X108576800Y-48097400D01*
X108575800Y-48095400D01*
X108574800Y-48092400D01*
X108573800Y-48090400D01*
X108572800Y-48087400D01*
X108572800Y-48085400D01*
X108571800Y-48082400D01*
X108571800Y-48080400D01*
X108571800Y-48077400D01*
X108571800Y-48075400D01*
X108571800Y-47350400D01*
X108571800Y-47347400D01*
X108571800Y-47344400D01*
X108571800Y-47342400D01*
X108572800Y-47339400D01*
X108572800Y-47337400D01*
X108573800Y-47334400D01*
X108574800Y-47332400D01*
X108575800Y-47329400D01*
X108576800Y-47327400D01*
X108577800Y-47325400D01*
X108579800Y-47322400D01*
X108580800Y-47320400D01*
X108582800Y-47318400D01*
X108583800Y-47316400D01*
X108585800Y-47314400D01*
X108587800Y-47312400D01*
X108589800Y-47311400D01*
X108591800Y-47309400D01*
X108593800Y-47308400D01*
X108596800Y-47306400D01*
X108598800Y-47305400D01*
X108600800Y-47304400D01*
X108603800Y-47303400D01*
X108605800Y-47302400D01*
X108608800Y-47301400D01*
X108610800Y-47301400D01*
X108613800Y-47300400D01*
X108615800Y-47300400D01*
X108618800Y-47300400D01*
X108621800Y-47299400D01*
X108795800Y-47299400D01*
X108798800Y-47300400D01*
G36*
X108798800Y-47300400D02*
G01*
X108801800Y-47300400D01*
X108803800Y-47300400D01*
X108806800Y-47301400D01*
X108808800Y-47301400D01*
X108811800Y-47302400D01*
X108813800Y-47303400D01*
X108816800Y-47304400D01*
X108818800Y-47305400D01*
X108821800Y-47306400D01*
X108823800Y-47308400D01*
X108825800Y-47309400D01*
X108827800Y-47311400D01*
X108829800Y-47312400D01*
X108831800Y-47314400D01*
X108833800Y-47316400D01*
X108834800Y-47318400D01*
X108836800Y-47320400D01*
X108837800Y-47322400D01*
X108839800Y-47325400D01*
X108840800Y-47327400D01*
X108841800Y-47329400D01*
X108842800Y-47332400D01*
X108843800Y-47334400D01*
X108844800Y-47337400D01*
X108844800Y-47339400D01*
X108845800Y-47342400D01*
X108845800Y-47344400D01*
X108845800Y-47347400D01*
X108846800Y-47350400D01*
X108846800Y-48075400D01*
X108845800Y-48077400D01*
X108845800Y-48080400D01*
X108845800Y-48082400D01*
X108844800Y-48085400D01*
X108844800Y-48087400D01*
X108843800Y-48090400D01*
X108842800Y-48092400D01*
X108841800Y-48095400D01*
X108840800Y-48097400D01*
X108839800Y-48099400D01*
X108837800Y-48102400D01*
X108836800Y-48104400D01*
X108834800Y-48106400D01*
X108833800Y-48108400D01*
X108831800Y-48110400D01*
X108829800Y-48112400D01*
X108827800Y-48113400D01*
X108825800Y-48115400D01*
X108823800Y-48116400D01*
X108821800Y-48118400D01*
X108818800Y-48119400D01*
X108816800Y-48120400D01*
X108813800Y-48121400D01*
X108811800Y-48122400D01*
X108808800Y-48123400D01*
X108806800Y-48123400D01*
X108803800Y-48124400D01*
X108801800Y-48124400D01*
X108798800Y-48124400D01*
X108795800Y-48125400D01*
X108621300Y-48124900D01*
X108621800Y-48125400D01*
X108618800Y-48124400D01*
X108615800Y-48124400D01*
X108613800Y-48124400D01*
X108610800Y-48123400D01*
X108608800Y-48123400D01*
X108605800Y-48122400D01*
X108603800Y-48121400D01*
X108600800Y-48120400D01*
X108598800Y-48119400D01*
X108596800Y-48118400D01*
X108593800Y-48116400D01*
X108591800Y-48115400D01*
X108589800Y-48113400D01*
X108587800Y-48112400D01*
X108585800Y-48110400D01*
X108583800Y-48108400D01*
X108582800Y-48106400D01*
X108580800Y-48104400D01*
X108579800Y-48102400D01*
X108577800Y-48099400D01*
X108576800Y-48097400D01*
X108575800Y-48095400D01*
X108574800Y-48092400D01*
X108573800Y-48090400D01*
X108572800Y-48087400D01*
X108572800Y-48085400D01*
X108571800Y-48082400D01*
X108571800Y-48080400D01*
X108571800Y-48077400D01*
X108571800Y-48075400D01*
X108571800Y-47350400D01*
X108571800Y-47347400D01*
X108571800Y-47344400D01*
X108571800Y-47342400D01*
X108572800Y-47339400D01*
X108572800Y-47337400D01*
X108573800Y-47334400D01*
X108574800Y-47332400D01*
X108575800Y-47329400D01*
X108576800Y-47327400D01*
X108577800Y-47325400D01*
X108579800Y-47322400D01*
X108580800Y-47320400D01*
X108582800Y-47318400D01*
X108583800Y-47316400D01*
X108585800Y-47314400D01*
X108587800Y-47312400D01*
X108589800Y-47311400D01*
X108591800Y-47309400D01*
X108593800Y-47308400D01*
X108596800Y-47306400D01*
X108598800Y-47305400D01*
X108600800Y-47304400D01*
X108603800Y-47303400D01*
X108605800Y-47302400D01*
X108608800Y-47301400D01*
X108610800Y-47301400D01*
X108613800Y-47300400D01*
X108615800Y-47300400D01*
X108618800Y-47300400D01*
X108621800Y-47299400D01*
X108795800Y-47299400D01*
X108798800Y-47300400D01*
G37*
X109198800Y-47300400D02*
X109201800Y-47300400D01*
X109203800Y-47300400D01*
X109206800Y-47301400D01*
X109208800Y-47301400D01*
X109211800Y-47302400D01*
X109213800Y-47303400D01*
X109216800Y-47304400D01*
X109218800Y-47305400D01*
X109221800Y-47306400D01*
X109223800Y-47308400D01*
X109225800Y-47309400D01*
X109227800Y-47311400D01*
X109229800Y-47312400D01*
X109231800Y-47314400D01*
X109233800Y-47316400D01*
X109234800Y-47318400D01*
X109236800Y-47320400D01*
X109237800Y-47322400D01*
X109239800Y-47325400D01*
X109240800Y-47327400D01*
X109241800Y-47329400D01*
X109242800Y-47332400D01*
X109243800Y-47334400D01*
X109244800Y-47337400D01*
X109244800Y-47339400D01*
X109245800Y-47342400D01*
X109245800Y-47344400D01*
X109245800Y-47347400D01*
X109246800Y-47350400D01*
X109246800Y-48075400D01*
X109245800Y-48077400D01*
X109245800Y-48080400D01*
X109245800Y-48082400D01*
X109244800Y-48085400D01*
X109244800Y-48087400D01*
X109243800Y-48090400D01*
X109242800Y-48092400D01*
X109241800Y-48095400D01*
X109240800Y-48097400D01*
X109239800Y-48099400D01*
X109237800Y-48102400D01*
X109236800Y-48104400D01*
X109234800Y-48106400D01*
X109233800Y-48108400D01*
X109231800Y-48110400D01*
X109229800Y-48112400D01*
X109227800Y-48113400D01*
X109225800Y-48115400D01*
X109223800Y-48116400D01*
X109221800Y-48118400D01*
X109218800Y-48119400D01*
X109216800Y-48120400D01*
X109213800Y-48121400D01*
X109211800Y-48122400D01*
X109208800Y-48123400D01*
X109206800Y-48123400D01*
X109203800Y-48124400D01*
X109201800Y-48124400D01*
X109198800Y-48124400D01*
X109196800Y-48125400D01*
X109021300Y-48124900D01*
X109020800Y-48125400D01*
X109018800Y-48124400D01*
X109015800Y-48124400D01*
X109013800Y-48124400D01*
X109010800Y-48123400D01*
X109008800Y-48123400D01*
X109005800Y-48122400D01*
X109003800Y-48121400D01*
X109000800Y-48120400D01*
X108998800Y-48119400D01*
X108996800Y-48118400D01*
X108993800Y-48116400D01*
X108991800Y-48115400D01*
X108989800Y-48113400D01*
X108987800Y-48112400D01*
X108985800Y-48110400D01*
X108983800Y-48108400D01*
X108982800Y-48106400D01*
X108980800Y-48104400D01*
X108979800Y-48102400D01*
X108977800Y-48099400D01*
X108976800Y-48097400D01*
X108975800Y-48095400D01*
X108974800Y-48092400D01*
X108973800Y-48090400D01*
X108972800Y-48087400D01*
X108972800Y-48085400D01*
X108971800Y-48082400D01*
X108971800Y-48080400D01*
X108971800Y-48077400D01*
X108971800Y-48075400D01*
X108971800Y-47350400D01*
X108971800Y-47347400D01*
X108971800Y-47344400D01*
X108971800Y-47342400D01*
X108972800Y-47339400D01*
X108972800Y-47337400D01*
X108973800Y-47334400D01*
X108974800Y-47332400D01*
X108975800Y-47329400D01*
X108976800Y-47327400D01*
X108977800Y-47325400D01*
X108979800Y-47322400D01*
X108980800Y-47320400D01*
X108982800Y-47318400D01*
X108983800Y-47316400D01*
X108985800Y-47314400D01*
X108987800Y-47312400D01*
X108989800Y-47311400D01*
X108991800Y-47309400D01*
X108993800Y-47308400D01*
X108996800Y-47306400D01*
X108998800Y-47305400D01*
X109000800Y-47304400D01*
X109003800Y-47303400D01*
X109005800Y-47302400D01*
X109008800Y-47301400D01*
X109010800Y-47301400D01*
X109013800Y-47300400D01*
X109015800Y-47300400D01*
X109018800Y-47300400D01*
X109020800Y-47299400D01*
X109196800Y-47299400D01*
X109198800Y-47300400D01*
G36*
X109198800Y-47300400D02*
G01*
X109201800Y-47300400D01*
X109203800Y-47300400D01*
X109206800Y-47301400D01*
X109208800Y-47301400D01*
X109211800Y-47302400D01*
X109213800Y-47303400D01*
X109216800Y-47304400D01*
X109218800Y-47305400D01*
X109221800Y-47306400D01*
X109223800Y-47308400D01*
X109225800Y-47309400D01*
X109227800Y-47311400D01*
X109229800Y-47312400D01*
X109231800Y-47314400D01*
X109233800Y-47316400D01*
X109234800Y-47318400D01*
X109236800Y-47320400D01*
X109237800Y-47322400D01*
X109239800Y-47325400D01*
X109240800Y-47327400D01*
X109241800Y-47329400D01*
X109242800Y-47332400D01*
X109243800Y-47334400D01*
X109244800Y-47337400D01*
X109244800Y-47339400D01*
X109245800Y-47342400D01*
X109245800Y-47344400D01*
X109245800Y-47347400D01*
X109246800Y-47350400D01*
X109246800Y-48075400D01*
X109245800Y-48077400D01*
X109245800Y-48080400D01*
X109245800Y-48082400D01*
X109244800Y-48085400D01*
X109244800Y-48087400D01*
X109243800Y-48090400D01*
X109242800Y-48092400D01*
X109241800Y-48095400D01*
X109240800Y-48097400D01*
X109239800Y-48099400D01*
X109237800Y-48102400D01*
X109236800Y-48104400D01*
X109234800Y-48106400D01*
X109233800Y-48108400D01*
X109231800Y-48110400D01*
X109229800Y-48112400D01*
X109227800Y-48113400D01*
X109225800Y-48115400D01*
X109223800Y-48116400D01*
X109221800Y-48118400D01*
X109218800Y-48119400D01*
X109216800Y-48120400D01*
X109213800Y-48121400D01*
X109211800Y-48122400D01*
X109208800Y-48123400D01*
X109206800Y-48123400D01*
X109203800Y-48124400D01*
X109201800Y-48124400D01*
X109198800Y-48124400D01*
X109196800Y-48125400D01*
X109021300Y-48124900D01*
X109020800Y-48125400D01*
X109018800Y-48124400D01*
X109015800Y-48124400D01*
X109013800Y-48124400D01*
X109010800Y-48123400D01*
X109008800Y-48123400D01*
X109005800Y-48122400D01*
X109003800Y-48121400D01*
X109000800Y-48120400D01*
X108998800Y-48119400D01*
X108996800Y-48118400D01*
X108993800Y-48116400D01*
X108991800Y-48115400D01*
X108989800Y-48113400D01*
X108987800Y-48112400D01*
X108985800Y-48110400D01*
X108983800Y-48108400D01*
X108982800Y-48106400D01*
X108980800Y-48104400D01*
X108979800Y-48102400D01*
X108977800Y-48099400D01*
X108976800Y-48097400D01*
X108975800Y-48095400D01*
X108974800Y-48092400D01*
X108973800Y-48090400D01*
X108972800Y-48087400D01*
X108972800Y-48085400D01*
X108971800Y-48082400D01*
X108971800Y-48080400D01*
X108971800Y-48077400D01*
X108971800Y-48075400D01*
X108971800Y-47350400D01*
X108971800Y-47347400D01*
X108971800Y-47344400D01*
X108971800Y-47342400D01*
X108972800Y-47339400D01*
X108972800Y-47337400D01*
X108973800Y-47334400D01*
X108974800Y-47332400D01*
X108975800Y-47329400D01*
X108976800Y-47327400D01*
X108977800Y-47325400D01*
X108979800Y-47322400D01*
X108980800Y-47320400D01*
X108982800Y-47318400D01*
X108983800Y-47316400D01*
X108985800Y-47314400D01*
X108987800Y-47312400D01*
X108989800Y-47311400D01*
X108991800Y-47309400D01*
X108993800Y-47308400D01*
X108996800Y-47306400D01*
X108998800Y-47305400D01*
X109000800Y-47304400D01*
X109003800Y-47303400D01*
X109005800Y-47302400D01*
X109008800Y-47301400D01*
X109010800Y-47301400D01*
X109013800Y-47300400D01*
X109015800Y-47300400D01*
X109018800Y-47300400D01*
X109020800Y-47299400D01*
X109196800Y-47299400D01*
X109198800Y-47300400D01*
G37*
X109598800Y-47300400D02*
X109601800Y-47300400D01*
X109603800Y-47300400D01*
X109606800Y-47301400D01*
X109608800Y-47301400D01*
X109611800Y-47302400D01*
X109613800Y-47303400D01*
X109616800Y-47304400D01*
X109618800Y-47305400D01*
X109620800Y-47306400D01*
X109623800Y-47308400D01*
X109625800Y-47309400D01*
X109627800Y-47311400D01*
X109629800Y-47312400D01*
X109631800Y-47314400D01*
X109633800Y-47316400D01*
X109634800Y-47318400D01*
X109636800Y-47320400D01*
X109637800Y-47322400D01*
X109639800Y-47325400D01*
X109640800Y-47327400D01*
X109641800Y-47329400D01*
X109642800Y-47332400D01*
X109643800Y-47334400D01*
X109644800Y-47337400D01*
X109644800Y-47339400D01*
X109645800Y-47342400D01*
X109645800Y-47344400D01*
X109645800Y-47347400D01*
X109645800Y-47350400D01*
X109645800Y-48075400D01*
X109645800Y-48077400D01*
X109645800Y-48080400D01*
X109645800Y-48082400D01*
X109644800Y-48085400D01*
X109644800Y-48087400D01*
X109643800Y-48090400D01*
X109642800Y-48092400D01*
X109641800Y-48095400D01*
X109640800Y-48097400D01*
X109639800Y-48099400D01*
X109637800Y-48102400D01*
X109636800Y-48104400D01*
X109634800Y-48106400D01*
X109633800Y-48108400D01*
X109631800Y-48110400D01*
X109629800Y-48112400D01*
X109627800Y-48113400D01*
X109625800Y-48115400D01*
X109623800Y-48116400D01*
X109620800Y-48118400D01*
X109618800Y-48119400D01*
X109616800Y-48120400D01*
X109613800Y-48121400D01*
X109611800Y-48122400D01*
X109608800Y-48123400D01*
X109606800Y-48123400D01*
X109603800Y-48124400D01*
X109601800Y-48124400D01*
X109598800Y-48124400D01*
X109595800Y-48125400D01*
X109421300Y-48124900D01*
X109420800Y-48125400D01*
X109418800Y-48124400D01*
X109415800Y-48124400D01*
X109413800Y-48124400D01*
X109410800Y-48123400D01*
X109408800Y-48123400D01*
X109405800Y-48122400D01*
X109403800Y-48121400D01*
X109400800Y-48120400D01*
X109398800Y-48119400D01*
X109395800Y-48118400D01*
X109393800Y-48116400D01*
X109391800Y-48115400D01*
X109389800Y-48113400D01*
X109387800Y-48112400D01*
X109385800Y-48110400D01*
X109383800Y-48108400D01*
X109382800Y-48106400D01*
X109380800Y-48104400D01*
X109379800Y-48102400D01*
X109377800Y-48099400D01*
X109376800Y-48097400D01*
X109375800Y-48095400D01*
X109374800Y-48092400D01*
X109373800Y-48090400D01*
X109372800Y-48087400D01*
X109372800Y-48085400D01*
X109371800Y-48082400D01*
X109371800Y-48080400D01*
X109371800Y-48077400D01*
X109371800Y-48075400D01*
X109371800Y-47350400D01*
X109371800Y-47347400D01*
X109371800Y-47344400D01*
X109371800Y-47342400D01*
X109372800Y-47339400D01*
X109372800Y-47337400D01*
X109373800Y-47334400D01*
X109374800Y-47332400D01*
X109375800Y-47329400D01*
X109376800Y-47327400D01*
X109377800Y-47325400D01*
X109379800Y-47322400D01*
X109380800Y-47320400D01*
X109382800Y-47318400D01*
X109383800Y-47316400D01*
X109385800Y-47314400D01*
X109387800Y-47312400D01*
X109389800Y-47311400D01*
X109391800Y-47309400D01*
X109393800Y-47308400D01*
X109395800Y-47306400D01*
X109398800Y-47305400D01*
X109400800Y-47304400D01*
X109403800Y-47303400D01*
X109405800Y-47302400D01*
X109408800Y-47301400D01*
X109410800Y-47301400D01*
X109413800Y-47300400D01*
X109415800Y-47300400D01*
X109418800Y-47300400D01*
X109420800Y-47299400D01*
X109595800Y-47299400D01*
X109598800Y-47300400D01*
G36*
X109598800Y-47300400D02*
G01*
X109601800Y-47300400D01*
X109603800Y-47300400D01*
X109606800Y-47301400D01*
X109608800Y-47301400D01*
X109611800Y-47302400D01*
X109613800Y-47303400D01*
X109616800Y-47304400D01*
X109618800Y-47305400D01*
X109620800Y-47306400D01*
X109623800Y-47308400D01*
X109625800Y-47309400D01*
X109627800Y-47311400D01*
X109629800Y-47312400D01*
X109631800Y-47314400D01*
X109633800Y-47316400D01*
X109634800Y-47318400D01*
X109636800Y-47320400D01*
X109637800Y-47322400D01*
X109639800Y-47325400D01*
X109640800Y-47327400D01*
X109641800Y-47329400D01*
X109642800Y-47332400D01*
X109643800Y-47334400D01*
X109644800Y-47337400D01*
X109644800Y-47339400D01*
X109645800Y-47342400D01*
X109645800Y-47344400D01*
X109645800Y-47347400D01*
X109645800Y-47350400D01*
X109645800Y-48075400D01*
X109645800Y-48077400D01*
X109645800Y-48080400D01*
X109645800Y-48082400D01*
X109644800Y-48085400D01*
X109644800Y-48087400D01*
X109643800Y-48090400D01*
X109642800Y-48092400D01*
X109641800Y-48095400D01*
X109640800Y-48097400D01*
X109639800Y-48099400D01*
X109637800Y-48102400D01*
X109636800Y-48104400D01*
X109634800Y-48106400D01*
X109633800Y-48108400D01*
X109631800Y-48110400D01*
X109629800Y-48112400D01*
X109627800Y-48113400D01*
X109625800Y-48115400D01*
X109623800Y-48116400D01*
X109620800Y-48118400D01*
X109618800Y-48119400D01*
X109616800Y-48120400D01*
X109613800Y-48121400D01*
X109611800Y-48122400D01*
X109608800Y-48123400D01*
X109606800Y-48123400D01*
X109603800Y-48124400D01*
X109601800Y-48124400D01*
X109598800Y-48124400D01*
X109595800Y-48125400D01*
X109421300Y-48124900D01*
X109420800Y-48125400D01*
X109418800Y-48124400D01*
X109415800Y-48124400D01*
X109413800Y-48124400D01*
X109410800Y-48123400D01*
X109408800Y-48123400D01*
X109405800Y-48122400D01*
X109403800Y-48121400D01*
X109400800Y-48120400D01*
X109398800Y-48119400D01*
X109395800Y-48118400D01*
X109393800Y-48116400D01*
X109391800Y-48115400D01*
X109389800Y-48113400D01*
X109387800Y-48112400D01*
X109385800Y-48110400D01*
X109383800Y-48108400D01*
X109382800Y-48106400D01*
X109380800Y-48104400D01*
X109379800Y-48102400D01*
X109377800Y-48099400D01*
X109376800Y-48097400D01*
X109375800Y-48095400D01*
X109374800Y-48092400D01*
X109373800Y-48090400D01*
X109372800Y-48087400D01*
X109372800Y-48085400D01*
X109371800Y-48082400D01*
X109371800Y-48080400D01*
X109371800Y-48077400D01*
X109371800Y-48075400D01*
X109371800Y-47350400D01*
X109371800Y-47347400D01*
X109371800Y-47344400D01*
X109371800Y-47342400D01*
X109372800Y-47339400D01*
X109372800Y-47337400D01*
X109373800Y-47334400D01*
X109374800Y-47332400D01*
X109375800Y-47329400D01*
X109376800Y-47327400D01*
X109377800Y-47325400D01*
X109379800Y-47322400D01*
X109380800Y-47320400D01*
X109382800Y-47318400D01*
X109383800Y-47316400D01*
X109385800Y-47314400D01*
X109387800Y-47312400D01*
X109389800Y-47311400D01*
X109391800Y-47309400D01*
X109393800Y-47308400D01*
X109395800Y-47306400D01*
X109398800Y-47305400D01*
X109400800Y-47304400D01*
X109403800Y-47303400D01*
X109405800Y-47302400D01*
X109408800Y-47301400D01*
X109410800Y-47301400D01*
X109413800Y-47300400D01*
X109415800Y-47300400D01*
X109418800Y-47300400D01*
X109420800Y-47299400D01*
X109595800Y-47299400D01*
X109598800Y-47300400D01*
G37*
X109998800Y-47300400D02*
X110001800Y-47300400D01*
X110003800Y-47300400D01*
X110006800Y-47301400D01*
X110008800Y-47301400D01*
X110011800Y-47302400D01*
X110013800Y-47303400D01*
X110016800Y-47304400D01*
X110018800Y-47305400D01*
X110021800Y-47306400D01*
X110023800Y-47308400D01*
X110025800Y-47309400D01*
X110027800Y-47311400D01*
X110029800Y-47312400D01*
X110031800Y-47314400D01*
X110033800Y-47316400D01*
X110034800Y-47318400D01*
X110036800Y-47320400D01*
X110037800Y-47322400D01*
X110039800Y-47325400D01*
X110040800Y-47327400D01*
X110041800Y-47329400D01*
X110042800Y-47332400D01*
X110043800Y-47334400D01*
X110044800Y-47337400D01*
X110044800Y-47339400D01*
X110045800Y-47342400D01*
X110045800Y-47344400D01*
X110045800Y-47347400D01*
X110046800Y-47350400D01*
X110046800Y-48075400D01*
X110045800Y-48077400D01*
X110045800Y-48080400D01*
X110045800Y-48082400D01*
X110044800Y-48085400D01*
X110044800Y-48087400D01*
X110043800Y-48090400D01*
X110042800Y-48092400D01*
X110041800Y-48095400D01*
X110040800Y-48097400D01*
X110039800Y-48099400D01*
X110037800Y-48102400D01*
X110036800Y-48104400D01*
X110034800Y-48106400D01*
X110033800Y-48108400D01*
X110031800Y-48110400D01*
X110029800Y-48112400D01*
X110027800Y-48113400D01*
X110025800Y-48115400D01*
X110023800Y-48116400D01*
X110021800Y-48118400D01*
X110018800Y-48119400D01*
X110016800Y-48120400D01*
X110013800Y-48121400D01*
X110011800Y-48122400D01*
X110008800Y-48123400D01*
X110006800Y-48123400D01*
X110003800Y-48124400D01*
X110001800Y-48124400D01*
X109998800Y-48124400D01*
X109996800Y-48125400D01*
X109821300Y-48124900D01*
X109821800Y-48125400D01*
X109818800Y-48124400D01*
X109815800Y-48124400D01*
X109813800Y-48124400D01*
X109810800Y-48123400D01*
X109808800Y-48123400D01*
X109805800Y-48122400D01*
X109803800Y-48121400D01*
X109800800Y-48120400D01*
X109798800Y-48119400D01*
X109796800Y-48118400D01*
X109793800Y-48116400D01*
X109791800Y-48115400D01*
X109789800Y-48113400D01*
X109787800Y-48112400D01*
X109785800Y-48110400D01*
X109783800Y-48108400D01*
X109782800Y-48106400D01*
X109780800Y-48104400D01*
X109779800Y-48102400D01*
X109777800Y-48099400D01*
X109776800Y-48097400D01*
X109775800Y-48095400D01*
X109774800Y-48092400D01*
X109773800Y-48090400D01*
X109772800Y-48087400D01*
X109772800Y-48085400D01*
X109771800Y-48082400D01*
X109771800Y-48080400D01*
X109771800Y-48077400D01*
X109770800Y-48075400D01*
X109770800Y-47350400D01*
X109771800Y-47347400D01*
X109771800Y-47344400D01*
X109771800Y-47342400D01*
X109772800Y-47339400D01*
X109772800Y-47337400D01*
X109773800Y-47334400D01*
X109774800Y-47332400D01*
X109775800Y-47329400D01*
X109776800Y-47327400D01*
X109777800Y-47325400D01*
X109779800Y-47322400D01*
X109780800Y-47320400D01*
X109782800Y-47318400D01*
X109783800Y-47316400D01*
X109785800Y-47314400D01*
X109787800Y-47312400D01*
X109789800Y-47311400D01*
X109791800Y-47309400D01*
X109793800Y-47308400D01*
X109796800Y-47306400D01*
X109798800Y-47305400D01*
X109800800Y-47304400D01*
X109803800Y-47303400D01*
X109805800Y-47302400D01*
X109808800Y-47301400D01*
X109810800Y-47301400D01*
X109813800Y-47300400D01*
X109815800Y-47300400D01*
X109818800Y-47300400D01*
X109821800Y-47299400D01*
X109996800Y-47299400D01*
X109998800Y-47300400D01*
G36*
X109998800Y-47300400D02*
G01*
X110001800Y-47300400D01*
X110003800Y-47300400D01*
X110006800Y-47301400D01*
X110008800Y-47301400D01*
X110011800Y-47302400D01*
X110013800Y-47303400D01*
X110016800Y-47304400D01*
X110018800Y-47305400D01*
X110021800Y-47306400D01*
X110023800Y-47308400D01*
X110025800Y-47309400D01*
X110027800Y-47311400D01*
X110029800Y-47312400D01*
X110031800Y-47314400D01*
X110033800Y-47316400D01*
X110034800Y-47318400D01*
X110036800Y-47320400D01*
X110037800Y-47322400D01*
X110039800Y-47325400D01*
X110040800Y-47327400D01*
X110041800Y-47329400D01*
X110042800Y-47332400D01*
X110043800Y-47334400D01*
X110044800Y-47337400D01*
X110044800Y-47339400D01*
X110045800Y-47342400D01*
X110045800Y-47344400D01*
X110045800Y-47347400D01*
X110046800Y-47350400D01*
X110046800Y-48075400D01*
X110045800Y-48077400D01*
X110045800Y-48080400D01*
X110045800Y-48082400D01*
X110044800Y-48085400D01*
X110044800Y-48087400D01*
X110043800Y-48090400D01*
X110042800Y-48092400D01*
X110041800Y-48095400D01*
X110040800Y-48097400D01*
X110039800Y-48099400D01*
X110037800Y-48102400D01*
X110036800Y-48104400D01*
X110034800Y-48106400D01*
X110033800Y-48108400D01*
X110031800Y-48110400D01*
X110029800Y-48112400D01*
X110027800Y-48113400D01*
X110025800Y-48115400D01*
X110023800Y-48116400D01*
X110021800Y-48118400D01*
X110018800Y-48119400D01*
X110016800Y-48120400D01*
X110013800Y-48121400D01*
X110011800Y-48122400D01*
X110008800Y-48123400D01*
X110006800Y-48123400D01*
X110003800Y-48124400D01*
X110001800Y-48124400D01*
X109998800Y-48124400D01*
X109996800Y-48125400D01*
X109821300Y-48124900D01*
X109821800Y-48125400D01*
X109818800Y-48124400D01*
X109815800Y-48124400D01*
X109813800Y-48124400D01*
X109810800Y-48123400D01*
X109808800Y-48123400D01*
X109805800Y-48122400D01*
X109803800Y-48121400D01*
X109800800Y-48120400D01*
X109798800Y-48119400D01*
X109796800Y-48118400D01*
X109793800Y-48116400D01*
X109791800Y-48115400D01*
X109789800Y-48113400D01*
X109787800Y-48112400D01*
X109785800Y-48110400D01*
X109783800Y-48108400D01*
X109782800Y-48106400D01*
X109780800Y-48104400D01*
X109779800Y-48102400D01*
X109777800Y-48099400D01*
X109776800Y-48097400D01*
X109775800Y-48095400D01*
X109774800Y-48092400D01*
X109773800Y-48090400D01*
X109772800Y-48087400D01*
X109772800Y-48085400D01*
X109771800Y-48082400D01*
X109771800Y-48080400D01*
X109771800Y-48077400D01*
X109770800Y-48075400D01*
X109770800Y-47350400D01*
X109771800Y-47347400D01*
X109771800Y-47344400D01*
X109771800Y-47342400D01*
X109772800Y-47339400D01*
X109772800Y-47337400D01*
X109773800Y-47334400D01*
X109774800Y-47332400D01*
X109775800Y-47329400D01*
X109776800Y-47327400D01*
X109777800Y-47325400D01*
X109779800Y-47322400D01*
X109780800Y-47320400D01*
X109782800Y-47318400D01*
X109783800Y-47316400D01*
X109785800Y-47314400D01*
X109787800Y-47312400D01*
X109789800Y-47311400D01*
X109791800Y-47309400D01*
X109793800Y-47308400D01*
X109796800Y-47306400D01*
X109798800Y-47305400D01*
X109800800Y-47304400D01*
X109803800Y-47303400D01*
X109805800Y-47302400D01*
X109808800Y-47301400D01*
X109810800Y-47301400D01*
X109813800Y-47300400D01*
X109815800Y-47300400D01*
X109818800Y-47300400D01*
X109821800Y-47299400D01*
X109996800Y-47299400D01*
X109998800Y-47300400D01*
G37*
X106798800Y-45650400D02*
X106801800Y-45650400D01*
X106803800Y-45650400D01*
X106806800Y-45651400D01*
X106808800Y-45651400D01*
X106811800Y-45652400D01*
X106813800Y-45653400D01*
X106816800Y-45654400D01*
X106818800Y-45655400D01*
X106820800Y-45656400D01*
X106823800Y-45658400D01*
X106825800Y-45659400D01*
X106827800Y-45661400D01*
X106829800Y-45662400D01*
X106831800Y-45664400D01*
X106833800Y-45666400D01*
X106834800Y-45668400D01*
X106836800Y-45670400D01*
X106837800Y-45672400D01*
X106839800Y-45675400D01*
X106840800Y-45677400D01*
X106841800Y-45679400D01*
X106842800Y-45682400D01*
X106843800Y-45684400D01*
X106844800Y-45687400D01*
X106844800Y-45689400D01*
X106845800Y-45692400D01*
X106845800Y-45694400D01*
X106845800Y-45697400D01*
X106845800Y-45699400D01*
X106845800Y-46424400D01*
X106845800Y-46427400D01*
X106845800Y-46430400D01*
X106845800Y-46432400D01*
X106844800Y-46435400D01*
X106844800Y-46437400D01*
X106843800Y-46440400D01*
X106842800Y-46442400D01*
X106841800Y-46445400D01*
X106840800Y-46447400D01*
X106839800Y-46450400D01*
X106837800Y-46452400D01*
X106836800Y-46454400D01*
X106834800Y-46456400D01*
X106833800Y-46458400D01*
X106831800Y-46460400D01*
X106829800Y-46462400D01*
X106827800Y-46463400D01*
X106825800Y-46465400D01*
X106823800Y-46466400D01*
X106820800Y-46468400D01*
X106818800Y-46469400D01*
X106816800Y-46470400D01*
X106813800Y-46471400D01*
X106811800Y-46472400D01*
X106808800Y-46473400D01*
X106806800Y-46473400D01*
X106803800Y-46474400D01*
X106801800Y-46474400D01*
X106798800Y-46474400D01*
X106796800Y-46475400D01*
X106621300Y-46474900D01*
X106621800Y-46475400D01*
X106618800Y-46474400D01*
X106615800Y-46474400D01*
X106613800Y-46474400D01*
X106610800Y-46473400D01*
X106608800Y-46473400D01*
X106605800Y-46472400D01*
X106603800Y-46471400D01*
X106600800Y-46470400D01*
X106598800Y-46469400D01*
X106595800Y-46468400D01*
X106593800Y-46466400D01*
X106591800Y-46465400D01*
X106589800Y-46463400D01*
X106587800Y-46462400D01*
X106585800Y-46460400D01*
X106583800Y-46458400D01*
X106582800Y-46456400D01*
X106580800Y-46454400D01*
X106579800Y-46452400D01*
X106577800Y-46449400D01*
X106576800Y-46447400D01*
X106575800Y-46445400D01*
X106574800Y-46442400D01*
X106573800Y-46440400D01*
X106572800Y-46437400D01*
X106572800Y-46435400D01*
X106571800Y-46432400D01*
X106571800Y-46430400D01*
X106571800Y-46427400D01*
X106570800Y-46424400D01*
X106570800Y-45699400D01*
X106571800Y-45697400D01*
X106571800Y-45694400D01*
X106571800Y-45692400D01*
X106572800Y-45689400D01*
X106572800Y-45687400D01*
X106573800Y-45684400D01*
X106574800Y-45682400D01*
X106575800Y-45679400D01*
X106576800Y-45677400D01*
X106577800Y-45675400D01*
X106579800Y-45672400D01*
X106580800Y-45670400D01*
X106582800Y-45668400D01*
X106583800Y-45666400D01*
X106585800Y-45664400D01*
X106587800Y-45662400D01*
X106589800Y-45661400D01*
X106591800Y-45659400D01*
X106593800Y-45658400D01*
X106595800Y-45656400D01*
X106598800Y-45655400D01*
X106600800Y-45654400D01*
X106603800Y-45653400D01*
X106605800Y-45652400D01*
X106608800Y-45651400D01*
X106610800Y-45651400D01*
X106613800Y-45650400D01*
X106615800Y-45650400D01*
X106618800Y-45650400D01*
X106621800Y-45649400D01*
X106796800Y-45649400D01*
X106798800Y-45650400D01*
G36*
X106798800Y-45650400D02*
G01*
X106801800Y-45650400D01*
X106803800Y-45650400D01*
X106806800Y-45651400D01*
X106808800Y-45651400D01*
X106811800Y-45652400D01*
X106813800Y-45653400D01*
X106816800Y-45654400D01*
X106818800Y-45655400D01*
X106820800Y-45656400D01*
X106823800Y-45658400D01*
X106825800Y-45659400D01*
X106827800Y-45661400D01*
X106829800Y-45662400D01*
X106831800Y-45664400D01*
X106833800Y-45666400D01*
X106834800Y-45668400D01*
X106836800Y-45670400D01*
X106837800Y-45672400D01*
X106839800Y-45675400D01*
X106840800Y-45677400D01*
X106841800Y-45679400D01*
X106842800Y-45682400D01*
X106843800Y-45684400D01*
X106844800Y-45687400D01*
X106844800Y-45689400D01*
X106845800Y-45692400D01*
X106845800Y-45694400D01*
X106845800Y-45697400D01*
X106845800Y-45699400D01*
X106845800Y-46424400D01*
X106845800Y-46427400D01*
X106845800Y-46430400D01*
X106845800Y-46432400D01*
X106844800Y-46435400D01*
X106844800Y-46437400D01*
X106843800Y-46440400D01*
X106842800Y-46442400D01*
X106841800Y-46445400D01*
X106840800Y-46447400D01*
X106839800Y-46450400D01*
X106837800Y-46452400D01*
X106836800Y-46454400D01*
X106834800Y-46456400D01*
X106833800Y-46458400D01*
X106831800Y-46460400D01*
X106829800Y-46462400D01*
X106827800Y-46463400D01*
X106825800Y-46465400D01*
X106823800Y-46466400D01*
X106820800Y-46468400D01*
X106818800Y-46469400D01*
X106816800Y-46470400D01*
X106813800Y-46471400D01*
X106811800Y-46472400D01*
X106808800Y-46473400D01*
X106806800Y-46473400D01*
X106803800Y-46474400D01*
X106801800Y-46474400D01*
X106798800Y-46474400D01*
X106796800Y-46475400D01*
X106621300Y-46474900D01*
X106621800Y-46475400D01*
X106618800Y-46474400D01*
X106615800Y-46474400D01*
X106613800Y-46474400D01*
X106610800Y-46473400D01*
X106608800Y-46473400D01*
X106605800Y-46472400D01*
X106603800Y-46471400D01*
X106600800Y-46470400D01*
X106598800Y-46469400D01*
X106595800Y-46468400D01*
X106593800Y-46466400D01*
X106591800Y-46465400D01*
X106589800Y-46463400D01*
X106587800Y-46462400D01*
X106585800Y-46460400D01*
X106583800Y-46458400D01*
X106582800Y-46456400D01*
X106580800Y-46454400D01*
X106579800Y-46452400D01*
X106577800Y-46449400D01*
X106576800Y-46447400D01*
X106575800Y-46445400D01*
X106574800Y-46442400D01*
X106573800Y-46440400D01*
X106572800Y-46437400D01*
X106572800Y-46435400D01*
X106571800Y-46432400D01*
X106571800Y-46430400D01*
X106571800Y-46427400D01*
X106570800Y-46424400D01*
X106570800Y-45699400D01*
X106571800Y-45697400D01*
X106571800Y-45694400D01*
X106571800Y-45692400D01*
X106572800Y-45689400D01*
X106572800Y-45687400D01*
X106573800Y-45684400D01*
X106574800Y-45682400D01*
X106575800Y-45679400D01*
X106576800Y-45677400D01*
X106577800Y-45675400D01*
X106579800Y-45672400D01*
X106580800Y-45670400D01*
X106582800Y-45668400D01*
X106583800Y-45666400D01*
X106585800Y-45664400D01*
X106587800Y-45662400D01*
X106589800Y-45661400D01*
X106591800Y-45659400D01*
X106593800Y-45658400D01*
X106595800Y-45656400D01*
X106598800Y-45655400D01*
X106600800Y-45654400D01*
X106603800Y-45653400D01*
X106605800Y-45652400D01*
X106608800Y-45651400D01*
X106610800Y-45651400D01*
X106613800Y-45650400D01*
X106615800Y-45650400D01*
X106618800Y-45650400D01*
X106621800Y-45649400D01*
X106796800Y-45649400D01*
X106798800Y-45650400D01*
G37*
X106798800Y-47300400D02*
X106801800Y-47300400D01*
X106803800Y-47300400D01*
X106806800Y-47301400D01*
X106808800Y-47301400D01*
X106811800Y-47302400D01*
X106813800Y-47303400D01*
X106816800Y-47304400D01*
X106818800Y-47305400D01*
X106820800Y-47306400D01*
X106823800Y-47308400D01*
X106825800Y-47309400D01*
X106827800Y-47311400D01*
X106829800Y-47312400D01*
X106831800Y-47314400D01*
X106833800Y-47316400D01*
X106834800Y-47318400D01*
X106836800Y-47320400D01*
X106837800Y-47322400D01*
X106839800Y-47324400D01*
X106840800Y-47327400D01*
X106841800Y-47329400D01*
X106842800Y-47332400D01*
X106843800Y-47334400D01*
X106844800Y-47337400D01*
X106844800Y-47339400D01*
X106845800Y-47342400D01*
X106845800Y-47344400D01*
X106845800Y-47347400D01*
X106845800Y-47350400D01*
X106845800Y-48075400D01*
X106845800Y-48077400D01*
X106845800Y-48080400D01*
X106845800Y-48082400D01*
X106844800Y-48085400D01*
X106844800Y-48087400D01*
X106843800Y-48090400D01*
X106842800Y-48092400D01*
X106841800Y-48095400D01*
X106840800Y-48097400D01*
X106839800Y-48099400D01*
X106837800Y-48102400D01*
X106836800Y-48104400D01*
X106834800Y-48106400D01*
X106833800Y-48108400D01*
X106831800Y-48110400D01*
X106829800Y-48112400D01*
X106827800Y-48113400D01*
X106825800Y-48115400D01*
X106823800Y-48116400D01*
X106820800Y-48118400D01*
X106818800Y-48119400D01*
X106816800Y-48120400D01*
X106813800Y-48121400D01*
X106811800Y-48122400D01*
X106808800Y-48123400D01*
X106806800Y-48123400D01*
X106803800Y-48124400D01*
X106801800Y-48124400D01*
X106798800Y-48124400D01*
X106796800Y-48125400D01*
X106621300Y-48124900D01*
X106621800Y-48125400D01*
X106618800Y-48124400D01*
X106615800Y-48124400D01*
X106613800Y-48124400D01*
X106610800Y-48123400D01*
X106608800Y-48123400D01*
X106605800Y-48122400D01*
X106603800Y-48121400D01*
X106600800Y-48120400D01*
X106598800Y-48119400D01*
X106595800Y-48118400D01*
X106593800Y-48116400D01*
X106591800Y-48115400D01*
X106589800Y-48113400D01*
X106587800Y-48112400D01*
X106585800Y-48110400D01*
X106583800Y-48108400D01*
X106582800Y-48106400D01*
X106580800Y-48104400D01*
X106579800Y-48102400D01*
X106577800Y-48099400D01*
X106576800Y-48097400D01*
X106575800Y-48095400D01*
X106574800Y-48092400D01*
X106573800Y-48090400D01*
X106572800Y-48087400D01*
X106572800Y-48085400D01*
X106571800Y-48082400D01*
X106571800Y-48080400D01*
X106571800Y-48077400D01*
X106570800Y-48075400D01*
X106570800Y-47350400D01*
X106571800Y-47347400D01*
X106571800Y-47344400D01*
X106571800Y-47342400D01*
X106572800Y-47339400D01*
X106572800Y-47337400D01*
X106573800Y-47334400D01*
X106574800Y-47332400D01*
X106575800Y-47329400D01*
X106576800Y-47327400D01*
X106577800Y-47325400D01*
X106579800Y-47322400D01*
X106580800Y-47320400D01*
X106582800Y-47318400D01*
X106583800Y-47316400D01*
X106585800Y-47314400D01*
X106587800Y-47312400D01*
X106589800Y-47311400D01*
X106591800Y-47309400D01*
X106593800Y-47308400D01*
X106595800Y-47306400D01*
X106598800Y-47305400D01*
X106600800Y-47304400D01*
X106603800Y-47303400D01*
X106605800Y-47302400D01*
X106608800Y-47301400D01*
X106610800Y-47301400D01*
X106613800Y-47300400D01*
X106615800Y-47300400D01*
X106618800Y-47300400D01*
X106621800Y-47299400D01*
X106796800Y-47299400D01*
X106798800Y-47300400D01*
G36*
X106798800Y-47300400D02*
G01*
X106801800Y-47300400D01*
X106803800Y-47300400D01*
X106806800Y-47301400D01*
X106808800Y-47301400D01*
X106811800Y-47302400D01*
X106813800Y-47303400D01*
X106816800Y-47304400D01*
X106818800Y-47305400D01*
X106820800Y-47306400D01*
X106823800Y-47308400D01*
X106825800Y-47309400D01*
X106827800Y-47311400D01*
X106829800Y-47312400D01*
X106831800Y-47314400D01*
X106833800Y-47316400D01*
X106834800Y-47318400D01*
X106836800Y-47320400D01*
X106837800Y-47322400D01*
X106839800Y-47324400D01*
X106840800Y-47327400D01*
X106841800Y-47329400D01*
X106842800Y-47332400D01*
X106843800Y-47334400D01*
X106844800Y-47337400D01*
X106844800Y-47339400D01*
X106845800Y-47342400D01*
X106845800Y-47344400D01*
X106845800Y-47347400D01*
X106845800Y-47350400D01*
X106845800Y-48075400D01*
X106845800Y-48077400D01*
X106845800Y-48080400D01*
X106845800Y-48082400D01*
X106844800Y-48085400D01*
X106844800Y-48087400D01*
X106843800Y-48090400D01*
X106842800Y-48092400D01*
X106841800Y-48095400D01*
X106840800Y-48097400D01*
X106839800Y-48099400D01*
X106837800Y-48102400D01*
X106836800Y-48104400D01*
X106834800Y-48106400D01*
X106833800Y-48108400D01*
X106831800Y-48110400D01*
X106829800Y-48112400D01*
X106827800Y-48113400D01*
X106825800Y-48115400D01*
X106823800Y-48116400D01*
X106820800Y-48118400D01*
X106818800Y-48119400D01*
X106816800Y-48120400D01*
X106813800Y-48121400D01*
X106811800Y-48122400D01*
X106808800Y-48123400D01*
X106806800Y-48123400D01*
X106803800Y-48124400D01*
X106801800Y-48124400D01*
X106798800Y-48124400D01*
X106796800Y-48125400D01*
X106621300Y-48124900D01*
X106621800Y-48125400D01*
X106618800Y-48124400D01*
X106615800Y-48124400D01*
X106613800Y-48124400D01*
X106610800Y-48123400D01*
X106608800Y-48123400D01*
X106605800Y-48122400D01*
X106603800Y-48121400D01*
X106600800Y-48120400D01*
X106598800Y-48119400D01*
X106595800Y-48118400D01*
X106593800Y-48116400D01*
X106591800Y-48115400D01*
X106589800Y-48113400D01*
X106587800Y-48112400D01*
X106585800Y-48110400D01*
X106583800Y-48108400D01*
X106582800Y-48106400D01*
X106580800Y-48104400D01*
X106579800Y-48102400D01*
X106577800Y-48099400D01*
X106576800Y-48097400D01*
X106575800Y-48095400D01*
X106574800Y-48092400D01*
X106573800Y-48090400D01*
X106572800Y-48087400D01*
X106572800Y-48085400D01*
X106571800Y-48082400D01*
X106571800Y-48080400D01*
X106571800Y-48077400D01*
X106570800Y-48075400D01*
X106570800Y-47350400D01*
X106571800Y-47347400D01*
X106571800Y-47344400D01*
X106571800Y-47342400D01*
X106572800Y-47339400D01*
X106572800Y-47337400D01*
X106573800Y-47334400D01*
X106574800Y-47332400D01*
X106575800Y-47329400D01*
X106576800Y-47327400D01*
X106577800Y-47325400D01*
X106579800Y-47322400D01*
X106580800Y-47320400D01*
X106582800Y-47318400D01*
X106583800Y-47316400D01*
X106585800Y-47314400D01*
X106587800Y-47312400D01*
X106589800Y-47311400D01*
X106591800Y-47309400D01*
X106593800Y-47308400D01*
X106595800Y-47306400D01*
X106598800Y-47305400D01*
X106600800Y-47304400D01*
X106603800Y-47303400D01*
X106605800Y-47302400D01*
X106608800Y-47301400D01*
X106610800Y-47301400D01*
X106613800Y-47300400D01*
X106615800Y-47300400D01*
X106618800Y-47300400D01*
X106621800Y-47299400D01*
X106796800Y-47299400D01*
X106798800Y-47300400D01*
G37*
X110398800Y-47300400D02*
X110401800Y-47300400D01*
X110403800Y-47300400D01*
X110406800Y-47301400D01*
X110408800Y-47301400D01*
X110411800Y-47302400D01*
X110413800Y-47303400D01*
X110416800Y-47304400D01*
X110418800Y-47305400D01*
X110421800Y-47306400D01*
X110423800Y-47308400D01*
X110425800Y-47309400D01*
X110427800Y-47311400D01*
X110429800Y-47312400D01*
X110431800Y-47314400D01*
X110433800Y-47316400D01*
X110434800Y-47318400D01*
X110436800Y-47320400D01*
X110437800Y-47322400D01*
X110439800Y-47325400D01*
X110440800Y-47327400D01*
X110441800Y-47329400D01*
X110442800Y-47332400D01*
X110443800Y-47334400D01*
X110444800Y-47337400D01*
X110444800Y-47339400D01*
X110445800Y-47342400D01*
X110445800Y-47344400D01*
X110445800Y-47347400D01*
X110446800Y-47350400D01*
X110446800Y-48075400D01*
X110445800Y-48077400D01*
X110445800Y-48080400D01*
X110445800Y-48082400D01*
X110444800Y-48085400D01*
X110444800Y-48087400D01*
X110443800Y-48090400D01*
X110442800Y-48092400D01*
X110441800Y-48095400D01*
X110440800Y-48097400D01*
X110439800Y-48099400D01*
X110437800Y-48102400D01*
X110436800Y-48104400D01*
X110434800Y-48106400D01*
X110433800Y-48108400D01*
X110431800Y-48110400D01*
X110429800Y-48112400D01*
X110427800Y-48113400D01*
X110425800Y-48115400D01*
X110423800Y-48116400D01*
X110421800Y-48118400D01*
X110418800Y-48119400D01*
X110416800Y-48120400D01*
X110413800Y-48121400D01*
X110411800Y-48122400D01*
X110408800Y-48123400D01*
X110406800Y-48123400D01*
X110403800Y-48124400D01*
X110401800Y-48124400D01*
X110398800Y-48124400D01*
X110395800Y-48125400D01*
X110221300Y-48124900D01*
X110220800Y-48125400D01*
X110218800Y-48124400D01*
X110215800Y-48124400D01*
X110213800Y-48124400D01*
X110210800Y-48123400D01*
X110208800Y-48123400D01*
X110205800Y-48122400D01*
X110203800Y-48121400D01*
X110200800Y-48120400D01*
X110198800Y-48119400D01*
X110196800Y-48118400D01*
X110193800Y-48116400D01*
X110191800Y-48115400D01*
X110189800Y-48113400D01*
X110187800Y-48112400D01*
X110185800Y-48110400D01*
X110183800Y-48108400D01*
X110182800Y-48106400D01*
X110180800Y-48104400D01*
X110179800Y-48102400D01*
X110177800Y-48099400D01*
X110176800Y-48097400D01*
X110175800Y-48095400D01*
X110174800Y-48092400D01*
X110173800Y-48090400D01*
X110172800Y-48087400D01*
X110172800Y-48085400D01*
X110171800Y-48082400D01*
X110171800Y-48080400D01*
X110171800Y-48077400D01*
X110171800Y-48075400D01*
X110171800Y-47350400D01*
X110171800Y-47347400D01*
X110171800Y-47344400D01*
X110171800Y-47342400D01*
X110172800Y-47339400D01*
X110172800Y-47337400D01*
X110173800Y-47334400D01*
X110174800Y-47332400D01*
X110175800Y-47329400D01*
X110176800Y-47327400D01*
X110177800Y-47324400D01*
X110179800Y-47322400D01*
X110180800Y-47320400D01*
X110182800Y-47318400D01*
X110183800Y-47316400D01*
X110185800Y-47314400D01*
X110187800Y-47312400D01*
X110189800Y-47311400D01*
X110191800Y-47309400D01*
X110193800Y-47308400D01*
X110196800Y-47306400D01*
X110198800Y-47305400D01*
X110200800Y-47304400D01*
X110203800Y-47303400D01*
X110205800Y-47302400D01*
X110208800Y-47301400D01*
X110210800Y-47301400D01*
X110213800Y-47300400D01*
X110215800Y-47300400D01*
X110218800Y-47300400D01*
X110220800Y-47299400D01*
X110395800Y-47299400D01*
X110398800Y-47300400D01*
G36*
X110398800Y-47300400D02*
G01*
X110401800Y-47300400D01*
X110403800Y-47300400D01*
X110406800Y-47301400D01*
X110408800Y-47301400D01*
X110411800Y-47302400D01*
X110413800Y-47303400D01*
X110416800Y-47304400D01*
X110418800Y-47305400D01*
X110421800Y-47306400D01*
X110423800Y-47308400D01*
X110425800Y-47309400D01*
X110427800Y-47311400D01*
X110429800Y-47312400D01*
X110431800Y-47314400D01*
X110433800Y-47316400D01*
X110434800Y-47318400D01*
X110436800Y-47320400D01*
X110437800Y-47322400D01*
X110439800Y-47325400D01*
X110440800Y-47327400D01*
X110441800Y-47329400D01*
X110442800Y-47332400D01*
X110443800Y-47334400D01*
X110444800Y-47337400D01*
X110444800Y-47339400D01*
X110445800Y-47342400D01*
X110445800Y-47344400D01*
X110445800Y-47347400D01*
X110446800Y-47350400D01*
X110446800Y-48075400D01*
X110445800Y-48077400D01*
X110445800Y-48080400D01*
X110445800Y-48082400D01*
X110444800Y-48085400D01*
X110444800Y-48087400D01*
X110443800Y-48090400D01*
X110442800Y-48092400D01*
X110441800Y-48095400D01*
X110440800Y-48097400D01*
X110439800Y-48099400D01*
X110437800Y-48102400D01*
X110436800Y-48104400D01*
X110434800Y-48106400D01*
X110433800Y-48108400D01*
X110431800Y-48110400D01*
X110429800Y-48112400D01*
X110427800Y-48113400D01*
X110425800Y-48115400D01*
X110423800Y-48116400D01*
X110421800Y-48118400D01*
X110418800Y-48119400D01*
X110416800Y-48120400D01*
X110413800Y-48121400D01*
X110411800Y-48122400D01*
X110408800Y-48123400D01*
X110406800Y-48123400D01*
X110403800Y-48124400D01*
X110401800Y-48124400D01*
X110398800Y-48124400D01*
X110395800Y-48125400D01*
X110221300Y-48124900D01*
X110220800Y-48125400D01*
X110218800Y-48124400D01*
X110215800Y-48124400D01*
X110213800Y-48124400D01*
X110210800Y-48123400D01*
X110208800Y-48123400D01*
X110205800Y-48122400D01*
X110203800Y-48121400D01*
X110200800Y-48120400D01*
X110198800Y-48119400D01*
X110196800Y-48118400D01*
X110193800Y-48116400D01*
X110191800Y-48115400D01*
X110189800Y-48113400D01*
X110187800Y-48112400D01*
X110185800Y-48110400D01*
X110183800Y-48108400D01*
X110182800Y-48106400D01*
X110180800Y-48104400D01*
X110179800Y-48102400D01*
X110177800Y-48099400D01*
X110176800Y-48097400D01*
X110175800Y-48095400D01*
X110174800Y-48092400D01*
X110173800Y-48090400D01*
X110172800Y-48087400D01*
X110172800Y-48085400D01*
X110171800Y-48082400D01*
X110171800Y-48080400D01*
X110171800Y-48077400D01*
X110171800Y-48075400D01*
X110171800Y-47350400D01*
X110171800Y-47347400D01*
X110171800Y-47344400D01*
X110171800Y-47342400D01*
X110172800Y-47339400D01*
X110172800Y-47337400D01*
X110173800Y-47334400D01*
X110174800Y-47332400D01*
X110175800Y-47329400D01*
X110176800Y-47327400D01*
X110177800Y-47324400D01*
X110179800Y-47322400D01*
X110180800Y-47320400D01*
X110182800Y-47318400D01*
X110183800Y-47316400D01*
X110185800Y-47314400D01*
X110187800Y-47312400D01*
X110189800Y-47311400D01*
X110191800Y-47309400D01*
X110193800Y-47308400D01*
X110196800Y-47306400D01*
X110198800Y-47305400D01*
X110200800Y-47304400D01*
X110203800Y-47303400D01*
X110205800Y-47302400D01*
X110208800Y-47301400D01*
X110210800Y-47301400D01*
X110213800Y-47300400D01*
X110215800Y-47300400D01*
X110218800Y-47300400D01*
X110220800Y-47299400D01*
X110395800Y-47299400D01*
X110398800Y-47300400D01*
G37*
X110398800Y-45650400D02*
X110401800Y-45650400D01*
X110403800Y-45650400D01*
X110406800Y-45651400D01*
X110408800Y-45651400D01*
X110411800Y-45652400D01*
X110413800Y-45653400D01*
X110416800Y-45654400D01*
X110418800Y-45655400D01*
X110421800Y-45656400D01*
X110423800Y-45658400D01*
X110425800Y-45659400D01*
X110427800Y-45661400D01*
X110429800Y-45662400D01*
X110431800Y-45664400D01*
X110433800Y-45666400D01*
X110434800Y-45668400D01*
X110436800Y-45670400D01*
X110437800Y-45672400D01*
X110439800Y-45675400D01*
X110440800Y-45677400D01*
X110441800Y-45679400D01*
X110442800Y-45682400D01*
X110443800Y-45684400D01*
X110444800Y-45687400D01*
X110444800Y-45689400D01*
X110445800Y-45692400D01*
X110445800Y-45694400D01*
X110445800Y-45697400D01*
X110446800Y-45699400D01*
X110446800Y-46424400D01*
X110445800Y-46427400D01*
X110445800Y-46430400D01*
X110445800Y-46432400D01*
X110444800Y-46435400D01*
X110444800Y-46437400D01*
X110443800Y-46440400D01*
X110442800Y-46442400D01*
X110441800Y-46445400D01*
X110440800Y-46447400D01*
X110439800Y-46449400D01*
X110437800Y-46452400D01*
X110436800Y-46454400D01*
X110434800Y-46456400D01*
X110433800Y-46458400D01*
X110431800Y-46460400D01*
X110429800Y-46462400D01*
X110427800Y-46463400D01*
X110425800Y-46465400D01*
X110423800Y-46466400D01*
X110421800Y-46468400D01*
X110418800Y-46469400D01*
X110416800Y-46470400D01*
X110413800Y-46471400D01*
X110411800Y-46472400D01*
X110408800Y-46473400D01*
X110406800Y-46473400D01*
X110403800Y-46474400D01*
X110401800Y-46474400D01*
X110398800Y-46474400D01*
X110395800Y-46475400D01*
X110221300Y-46474900D01*
X110220800Y-46475400D01*
X110218800Y-46474400D01*
X110215800Y-46474400D01*
X110213800Y-46474400D01*
X110210800Y-46473400D01*
X110208800Y-46473400D01*
X110205800Y-46472400D01*
X110203800Y-46471400D01*
X110200800Y-46470400D01*
X110198800Y-46469400D01*
X110196800Y-46468400D01*
X110193800Y-46466400D01*
X110191800Y-46465400D01*
X110189800Y-46463400D01*
X110187800Y-46462400D01*
X110185800Y-46460400D01*
X110183800Y-46458400D01*
X110182800Y-46456400D01*
X110180800Y-46454400D01*
X110179800Y-46452400D01*
X110177800Y-46450400D01*
X110176800Y-46447400D01*
X110175800Y-46445400D01*
X110174800Y-46442400D01*
X110173800Y-46440400D01*
X110172800Y-46437400D01*
X110172800Y-46435400D01*
X110171800Y-46432400D01*
X110171800Y-46430400D01*
X110171800Y-46427400D01*
X110171800Y-46424400D01*
X110171800Y-45699400D01*
X110171800Y-45697400D01*
X110171800Y-45694400D01*
X110171800Y-45692400D01*
X110172800Y-45689400D01*
X110172800Y-45687400D01*
X110173800Y-45684400D01*
X110174800Y-45682400D01*
X110175800Y-45679400D01*
X110176800Y-45677400D01*
X110177800Y-45675400D01*
X110179800Y-45672400D01*
X110180800Y-45670400D01*
X110182800Y-45668400D01*
X110183800Y-45666400D01*
X110185800Y-45664400D01*
X110187800Y-45662400D01*
X110189800Y-45661400D01*
X110191800Y-45659400D01*
X110193800Y-45658400D01*
X110196800Y-45656400D01*
X110198800Y-45655400D01*
X110200800Y-45654400D01*
X110203800Y-45653400D01*
X110205800Y-45652400D01*
X110208800Y-45651400D01*
X110210800Y-45651400D01*
X110213800Y-45650400D01*
X110215800Y-45650400D01*
X110218800Y-45650400D01*
X110220800Y-45649400D01*
X110395800Y-45649400D01*
X110398800Y-45650400D01*
G36*
X110398800Y-45650400D02*
G01*
X110401800Y-45650400D01*
X110403800Y-45650400D01*
X110406800Y-45651400D01*
X110408800Y-45651400D01*
X110411800Y-45652400D01*
X110413800Y-45653400D01*
X110416800Y-45654400D01*
X110418800Y-45655400D01*
X110421800Y-45656400D01*
X110423800Y-45658400D01*
X110425800Y-45659400D01*
X110427800Y-45661400D01*
X110429800Y-45662400D01*
X110431800Y-45664400D01*
X110433800Y-45666400D01*
X110434800Y-45668400D01*
X110436800Y-45670400D01*
X110437800Y-45672400D01*
X110439800Y-45675400D01*
X110440800Y-45677400D01*
X110441800Y-45679400D01*
X110442800Y-45682400D01*
X110443800Y-45684400D01*
X110444800Y-45687400D01*
X110444800Y-45689400D01*
X110445800Y-45692400D01*
X110445800Y-45694400D01*
X110445800Y-45697400D01*
X110446800Y-45699400D01*
X110446800Y-46424400D01*
X110445800Y-46427400D01*
X110445800Y-46430400D01*
X110445800Y-46432400D01*
X110444800Y-46435400D01*
X110444800Y-46437400D01*
X110443800Y-46440400D01*
X110442800Y-46442400D01*
X110441800Y-46445400D01*
X110440800Y-46447400D01*
X110439800Y-46449400D01*
X110437800Y-46452400D01*
X110436800Y-46454400D01*
X110434800Y-46456400D01*
X110433800Y-46458400D01*
X110431800Y-46460400D01*
X110429800Y-46462400D01*
X110427800Y-46463400D01*
X110425800Y-46465400D01*
X110423800Y-46466400D01*
X110421800Y-46468400D01*
X110418800Y-46469400D01*
X110416800Y-46470400D01*
X110413800Y-46471400D01*
X110411800Y-46472400D01*
X110408800Y-46473400D01*
X110406800Y-46473400D01*
X110403800Y-46474400D01*
X110401800Y-46474400D01*
X110398800Y-46474400D01*
X110395800Y-46475400D01*
X110221300Y-46474900D01*
X110220800Y-46475400D01*
X110218800Y-46474400D01*
X110215800Y-46474400D01*
X110213800Y-46474400D01*
X110210800Y-46473400D01*
X110208800Y-46473400D01*
X110205800Y-46472400D01*
X110203800Y-46471400D01*
X110200800Y-46470400D01*
X110198800Y-46469400D01*
X110196800Y-46468400D01*
X110193800Y-46466400D01*
X110191800Y-46465400D01*
X110189800Y-46463400D01*
X110187800Y-46462400D01*
X110185800Y-46460400D01*
X110183800Y-46458400D01*
X110182800Y-46456400D01*
X110180800Y-46454400D01*
X110179800Y-46452400D01*
X110177800Y-46450400D01*
X110176800Y-46447400D01*
X110175800Y-46445400D01*
X110174800Y-46442400D01*
X110173800Y-46440400D01*
X110172800Y-46437400D01*
X110172800Y-46435400D01*
X110171800Y-46432400D01*
X110171800Y-46430400D01*
X110171800Y-46427400D01*
X110171800Y-46424400D01*
X110171800Y-45699400D01*
X110171800Y-45697400D01*
X110171800Y-45694400D01*
X110171800Y-45692400D01*
X110172800Y-45689400D01*
X110172800Y-45687400D01*
X110173800Y-45684400D01*
X110174800Y-45682400D01*
X110175800Y-45679400D01*
X110176800Y-45677400D01*
X110177800Y-45675400D01*
X110179800Y-45672400D01*
X110180800Y-45670400D01*
X110182800Y-45668400D01*
X110183800Y-45666400D01*
X110185800Y-45664400D01*
X110187800Y-45662400D01*
X110189800Y-45661400D01*
X110191800Y-45659400D01*
X110193800Y-45658400D01*
X110196800Y-45656400D01*
X110198800Y-45655400D01*
X110200800Y-45654400D01*
X110203800Y-45653400D01*
X110205800Y-45652400D01*
X110208800Y-45651400D01*
X110210800Y-45651400D01*
X110213800Y-45650400D01*
X110215800Y-45650400D01*
X110218800Y-45650400D01*
X110220800Y-45649400D01*
X110395800Y-45649400D01*
X110398800Y-45650400D01*
G37*
%TD*%
D11*
%TO.C,R19*%
X109321600Y-42140500D03*
X109321600Y-43965500D03*
%TD*%
D12*
%TO.C,R18*%
X107797600Y-43965500D03*
X107797600Y-42140500D03*
%TD*%
%TO.C,R17*%
X106273600Y-43965500D03*
X106273600Y-42140500D03*
%TD*%
D13*
%TO.C,C85*%
X112623600Y-47801700D03*
X112623600Y-46076700D03*
%TD*%
D14*
%TO.C,C84*%
X104521000Y-46000500D03*
X104521000Y-47725500D03*
%TD*%
%TO.C,C83*%
X110845600Y-42190500D03*
X110845600Y-43915500D03*
%TD*%
D15*
%TO.C,BTN4*%
X113538000Y-105714000D03*
X106528000Y-105714000D03*
D16*
X112288000Y-108204000D03*
X107788000Y-108204000D03*
%TD*%
D17*
%TO.C,J7*%
X67691000Y-46568000D03*
X61911000Y-46568000D03*
D18*
X69121000Y-47068000D03*
D19*
X69121000Y-42888000D03*
D18*
X60481000Y-47068000D03*
D19*
X60481000Y-42888000D03*
%TD*%
D20*
%TO.C,H4*%
X116653000Y-45145010D03*
X117312010Y-43554020D03*
X117312010Y-46736000D03*
X118903000Y-42895010D03*
D21*
X118903000Y-45145010D03*
D20*
X118903000Y-47395010D03*
X120493990Y-43554020D03*
X120493990Y-46736000D03*
X121153000Y-45145010D03*
%TD*%
D22*
%TO.C,J1*%
X96622000Y-55521000D03*
D23*
X94122000Y-55521000D03*
X92122000Y-55521000D03*
X89622000Y-55521000D03*
X96622000Y-52901000D03*
X94122000Y-52901000D03*
X92122000Y-52901000D03*
X89622000Y-52901000D03*
D24*
X99416000Y-55871000D03*
X99416000Y-50191000D03*
X86843000Y-55871000D03*
X86843000Y-50191000D03*
%TD*%
D22*
%TO.C,J2*%
X81890000Y-55521000D03*
D23*
X79390000Y-55521000D03*
X77390000Y-55521000D03*
X74890000Y-55521000D03*
X81890000Y-52901000D03*
X79390000Y-52901000D03*
X77390000Y-52901000D03*
X74890000Y-52901000D03*
D24*
X84684000Y-55871000D03*
X84684000Y-50191000D03*
X72111000Y-55871000D03*
X72111000Y-50191000D03*
%TD*%
D25*
%TO.C,J8*%
X121319810Y-58801000D03*
X114319570Y-58801000D03*
D26*
X116719870Y-61249660D03*
X119719610Y-61249660D03*
X111619550Y-56352340D03*
X112719370Y-61249660D03*
%TD*%
D20*
%TO.C,H1*%
X54804000Y-107061000D03*
X55463010Y-105470010D03*
X55463010Y-108651990D03*
X57054000Y-104811000D03*
D21*
X57054000Y-107061000D03*
D20*
X57054000Y-109311000D03*
X58644990Y-105470010D03*
X58644990Y-108651990D03*
X59304000Y-107061000D03*
%TD*%
D25*
%TO.C,J6*%
X121189000Y-98044000D03*
X114188760Y-98044000D03*
D26*
X116589060Y-100492660D03*
X119588800Y-100492660D03*
X111488740Y-95595340D03*
X112588560Y-100492660D03*
%TD*%
D15*
%TO.C,BTN3*%
X103886000Y-105763500D03*
X96876000Y-105763500D03*
D16*
X102636000Y-108253500D03*
X98136000Y-108253500D03*
%TD*%
D20*
%TO.C,H2*%
X116653000Y-107061000D03*
X117312010Y-105470010D03*
X117312010Y-108651990D03*
X118903000Y-104811000D03*
D21*
X118903000Y-107061000D03*
D20*
X118903000Y-109311000D03*
X120493990Y-105470010D03*
X120493990Y-108651990D03*
X121153000Y-107061000D03*
%TD*%
D27*
%TO.C,J3*%
X101303000Y-50548000D03*
X115803000Y-50548000D03*
D28*
X101303000Y-44588000D03*
X115803000Y-44588000D03*
%TD*%
D20*
%TO.C,H3*%
X54804000Y-45375000D03*
X55463010Y-43784010D03*
X55463010Y-46965990D03*
X57054000Y-43125000D03*
D21*
X57054000Y-45375000D03*
D20*
X57054000Y-47625000D03*
X58644990Y-43784010D03*
X58644990Y-46965990D03*
X59304000Y-45375000D03*
%TD*%
D29*
%TO.C,P2*%
X100203000Y-78333600D03*
D30*
X101473000Y-78333600D03*
X100203000Y-79603600D03*
X101473000Y-79603600D03*
X100203000Y-80873600D03*
X101473000Y-80873600D03*
%TD*%
D29*
%TO.C,P1*%
X96901000Y-96596200D03*
D30*
X98171000Y-96596200D03*
X96901000Y-97866200D03*
X98171000Y-97866200D03*
X96901000Y-99136200D03*
X98171000Y-99136200D03*
X96901000Y-100406200D03*
X98171000Y-100406200D03*
X96901000Y-101676200D03*
X98171000Y-101676200D03*
%TD*%
D11*
%TO.C,R28*%
X86106000Y-107164500D03*
X86106000Y-108989500D03*
%TD*%
D31*
%TO.C,C27*%
X82651880Y-80543120D03*
X81432120Y-81762880D03*
%TD*%
D12*
%TO.C,R49*%
X58801000Y-84605500D03*
X58801000Y-82780500D03*
%TD*%
D32*
%TO.C,C34*%
X95022500Y-71755000D03*
X96747500Y-71755000D03*
%TD*%
%TO.C,C56*%
X100088500Y-58522000D03*
X101813500Y-58522000D03*
%TD*%
D33*
%TO.C,U5*%
X72802000Y-80426000D03*
X71532000Y-80426000D03*
X70262000Y-80426000D03*
X68992000Y-80426000D03*
X68992000Y-75276000D03*
X70262000Y-75276000D03*
X71532000Y-75276000D03*
X72802000Y-75276000D03*
%TD*%
D34*
%TO.C,R48*%
X60301500Y-84582000D03*
X62126500Y-84582000D03*
%TD*%
D13*
%TO.C,C8*%
X74326000Y-60044500D03*
X74326000Y-58319500D03*
%TD*%
D35*
%TO.C,U1*%
X72661000Y-62255000D03*
X74961000Y-62255000D03*
D36*
X74961000Y-68555000D03*
D35*
X77261000Y-62255000D03*
%TD*%
D37*
%TO.C,Y3*%
X96573000Y-46108000D03*
X93673000Y-46108000D03*
X93673000Y-43808000D03*
X96573000Y-43808000D03*
%TD*%
D12*
%TO.C,R40*%
X66071000Y-44473500D03*
X66071000Y-42648500D03*
%TD*%
D13*
%TO.C,C49*%
X54483000Y-80237500D03*
X54483000Y-78512500D03*
%TD*%
D32*
%TO.C,C77*%
X115469500Y-53848000D03*
X117194500Y-53848000D03*
%TD*%
%TO.C,C79*%
X115469500Y-55499000D03*
X117194500Y-55499000D03*
%TD*%
D13*
%TO.C,C15*%
X62306200Y-64006900D03*
X62306200Y-62281900D03*
%TD*%
D38*
%TO.C,R39*%
X103086300Y-95885000D03*
X101261300Y-95885000D03*
%TD*%
D32*
%TO.C,C57*%
X104832500Y-92583000D03*
X106557500Y-92583000D03*
%TD*%
%TO.C,C13*%
X67717500Y-60706000D03*
X69442500Y-60706000D03*
%TD*%
D39*
%TO.C,BT1*%
X114966000Y-74803000D03*
D40*
X114966000Y-82253000D03*
D41*
X114966000Y-70553000D03*
X114966000Y-86953000D03*
%TD*%
D32*
%TO.C,C3*%
X54313000Y-68326000D03*
X56038000Y-68326000D03*
%TD*%
D37*
%TO.C,Y2*%
X84232000Y-42545000D03*
X87132000Y-42545000D03*
X87132000Y-44845000D03*
X84232000Y-44845000D03*
%TD*%
D14*
%TO.C,C20*%
X74549000Y-74702500D03*
X74549000Y-76427500D03*
%TD*%
D42*
%TO.C,C11*%
X69442500Y-65557400D03*
X67717500Y-65557400D03*
%TD*%
D32*
%TO.C,C32*%
X95022500Y-77470000D03*
X96747500Y-77470000D03*
%TD*%
D13*
%TO.C,C24*%
X79502000Y-67410500D03*
X79502000Y-65685500D03*
%TD*%
D38*
%TO.C,R53*%
X76858500Y-104902000D03*
X75033500Y-104902000D03*
%TD*%
D13*
%TO.C,C40*%
X98806000Y-45185500D03*
X98806000Y-43460500D03*
%TD*%
D11*
%TO.C,R27*%
X87757000Y-107164500D03*
X87757000Y-108989500D03*
%TD*%
D42*
%TO.C,C59*%
X97749500Y-58522000D03*
X96024500Y-58522000D03*
%TD*%
%TO.C,C16*%
X62234500Y-60706000D03*
X60509500Y-60706000D03*
%TD*%
%TO.C,C4*%
X56011500Y-66675000D03*
X54286500Y-66675000D03*
%TD*%
D11*
%TO.C,R6*%
X110109000Y-107164500D03*
X110109000Y-108989500D03*
%TD*%
D43*
%TO.C,C29*%
X87679144Y-75264078D03*
X87679144Y-73714078D03*
%TD*%
D11*
%TO.C,R7*%
X105187000Y-107164500D03*
X105187000Y-108989500D03*
%TD*%
D32*
%TO.C,C17*%
X89688500Y-48641000D03*
X91413500Y-48641000D03*
%TD*%
%TO.C,C55*%
X90831500Y-58547000D03*
X92556500Y-58547000D03*
%TD*%
D43*
%TO.C,C33*%
X90727144Y-75264078D03*
X90727144Y-73714078D03*
%TD*%
D11*
%TO.C,R13*%
X91344000Y-83542500D03*
X91344000Y-85367500D03*
%TD*%
D38*
%TO.C,R52*%
X69492500Y-104902000D03*
X67667500Y-104902000D03*
%TD*%
D44*
%TO.C,C35*%
X91235144Y-76788078D03*
X89685144Y-76788078D03*
%TD*%
D14*
%TO.C,C41*%
X91440000Y-43460500D03*
X91440000Y-45185500D03*
%TD*%
D38*
%TO.C,R3*%
X56061500Y-62103000D03*
X54236500Y-62103000D03*
%TD*%
D43*
%TO.C,C31*%
X89203144Y-75264078D03*
X89203144Y-73714078D03*
%TD*%
D34*
%TO.C,R50*%
X115419500Y-57150000D03*
X117244500Y-57150000D03*
%TD*%
D38*
%TO.C,R32*%
X105591500Y-102489000D03*
X103766500Y-102489000D03*
%TD*%
D32*
%TO.C,C12*%
X67744000Y-64008000D03*
X69469000Y-64008000D03*
%TD*%
D45*
%TO.C,R14*%
X82920765Y-83449235D03*
X84211235Y-82158765D03*
%TD*%
D13*
%TO.C,C5*%
X66675000Y-59028500D03*
X66675000Y-57303500D03*
%TD*%
D32*
%TO.C,C30*%
X95022500Y-79959200D03*
X96747500Y-79959200D03*
%TD*%
D13*
%TO.C,C14*%
X75977000Y-60044500D03*
X75977000Y-58319500D03*
%TD*%
D11*
%TO.C,R8*%
X114839000Y-107164500D03*
X114839000Y-108989500D03*
%TD*%
D32*
%TO.C,C10*%
X63958300Y-65557400D03*
X65683300Y-65557400D03*
%TD*%
D11*
%TO.C,R31*%
X94869000Y-107164500D03*
X94869000Y-108989500D03*
%TD*%
D38*
%TO.C,R47*%
X65428500Y-84582000D03*
X63603500Y-84582000D03*
%TD*%
D35*
%TO.C,U13*%
X95730000Y-60833000D03*
X98030000Y-60833000D03*
D36*
X98030000Y-67133000D03*
D35*
X100330000Y-60833000D03*
%TD*%
D42*
%TO.C,C82*%
X89127500Y-90805000D03*
X87402500Y-90805000D03*
%TD*%
D46*
%TO.C,U2*%
X58451000Y-59651000D03*
X57181000Y-59651000D03*
X55911000Y-59651000D03*
X54641000Y-59651000D03*
X54641000Y-52451000D03*
X55911000Y-52451000D03*
X57181000Y-52451000D03*
X58451000Y-52451000D03*
%TD*%
D47*
%TO.C,C18*%
X72167000Y-45694000D03*
X72167000Y-42444000D03*
%TD*%
D13*
%TO.C,C19*%
X77628000Y-60044500D03*
X77628000Y-58319500D03*
%TD*%
D38*
%TO.C,R2*%
X56061500Y-65024000D03*
X54236500Y-65024000D03*
%TD*%
D11*
%TO.C,R5*%
X100330000Y-107164500D03*
X100330000Y-108989500D03*
%TD*%
D13*
%TO.C,C25*%
X93853000Y-69569500D03*
X93853000Y-67844500D03*
%TD*%
D47*
%TO.C,C21*%
X64039000Y-52171000D03*
X64039000Y-48921000D03*
%TD*%
D48*
%TO.C,C75*%
X80772000Y-86930500D03*
D49*
X80772000Y-91643000D03*
%TD*%
D13*
%TO.C,C81*%
X55753000Y-84555500D03*
X55753000Y-82830500D03*
%TD*%
%TO.C,C7*%
X72675000Y-60018000D03*
X72675000Y-58293000D03*
%TD*%
D34*
%TO.C,R41*%
X103100500Y-69469000D03*
X104925500Y-69469000D03*
%TD*%
D14*
%TO.C,C44*%
X112776000Y-65685500D03*
X112776000Y-67410500D03*
%TD*%
D32*
%TO.C,C80*%
X119279500Y-57150000D03*
X121004500Y-57150000D03*
%TD*%
D33*
%TO.C,U14*%
X108870000Y-100365000D03*
X107600000Y-100365000D03*
X106330000Y-100365000D03*
X105060000Y-100365000D03*
X105060000Y-95215000D03*
X106330000Y-95215000D03*
X107600000Y-95215000D03*
X108870000Y-95215000D03*
%TD*%
D13*
%TO.C,C50*%
X60198000Y-80237500D03*
X60198000Y-78512500D03*
%TD*%
D14*
%TO.C,C48*%
X58547000Y-71273500D03*
X58547000Y-72998500D03*
%TD*%
D12*
%TO.C,R11*%
X66294000Y-72921500D03*
X66294000Y-71096500D03*
%TD*%
D38*
%TO.C,R37*%
X103153100Y-97536000D03*
X101328100Y-97536000D03*
%TD*%
D50*
%TO.C,C60*%
X82677000Y-67056000D03*
D51*
X82677000Y-62343500D03*
%TD*%
D52*
%TO.C,Q2*%
X91283000Y-107393500D03*
X93183000Y-107393500D03*
X92233000Y-109268500D03*
%TD*%
D42*
%TO.C,C76*%
X85825500Y-90805000D03*
X84100500Y-90805000D03*
%TD*%
%TO.C,C22*%
X85444500Y-47117000D03*
X83719500Y-47117000D03*
%TD*%
D14*
%TO.C,C28*%
X88773000Y-81941500D03*
X88773000Y-83666500D03*
%TD*%
D12*
%TO.C,R54*%
X57277000Y-84605500D03*
X57277000Y-82780500D03*
%TD*%
D35*
%TO.C,U18*%
X84568000Y-93243000D03*
X86868000Y-93243000D03*
D36*
X86868000Y-99543000D03*
D35*
X89168000Y-93243000D03*
%TD*%
D32*
%TO.C,C78*%
X119279500Y-55499000D03*
X121004500Y-55499000D03*
%TD*%
D42*
%TO.C,C52*%
X112526500Y-98552000D03*
X110801500Y-98552000D03*
%TD*%
D13*
%TO.C,C6*%
X63404000Y-59028500D03*
X63404000Y-57303500D03*
%TD*%
%TO.C,C51*%
X74549000Y-81380500D03*
X74549000Y-79655500D03*
%TD*%
D50*
%TO.C,C61*%
X104253000Y-67158000D03*
D51*
X104253000Y-62445500D03*
%TD*%
D11*
%TO.C,R25*%
X70104000Y-107164500D03*
X70104000Y-108989500D03*
%TD*%
D35*
%TO.C,U12*%
X86600000Y-60858000D03*
X88900000Y-60858000D03*
D36*
X88900000Y-67158000D03*
D35*
X91200000Y-60858000D03*
%TD*%
D42*
%TO.C,C1*%
X73125500Y-47625000D03*
X71400500Y-47625000D03*
%TD*%
D53*
%TO.C,U4*%
X81057000Y-42481500D03*
X81057000Y-43116500D03*
X81057000Y-43751500D03*
X81057000Y-44386500D03*
X81057000Y-45021500D03*
X81057000Y-45656500D03*
X81057000Y-46291500D03*
X81057000Y-46926500D03*
X81057000Y-47561500D03*
X81057000Y-48196500D03*
X81057000Y-48831500D03*
X81057000Y-49466500D03*
X81057000Y-50101500D03*
X81057000Y-50736500D03*
X75723000Y-50736500D03*
X75723000Y-50101500D03*
X75723000Y-49466500D03*
X75723000Y-48831500D03*
X75723000Y-48196500D03*
X75723000Y-47561500D03*
X75723000Y-46926500D03*
X75723000Y-46291500D03*
X75723000Y-45656500D03*
X75723000Y-45021500D03*
X75723000Y-44386500D03*
X75723000Y-43751500D03*
X75723000Y-43116500D03*
X75723000Y-42481500D03*
%TD*%
D54*
%TO.C,U17*%
X61620000Y-87094000D03*
X63620000Y-87094000D03*
X65620000Y-87094000D03*
X67620000Y-87094000D03*
X69620000Y-87094000D03*
X71620000Y-87094000D03*
X73620000Y-87094000D03*
X75620000Y-87094000D03*
D55*
X77120000Y-89694000D03*
X77120000Y-91694000D03*
X77120000Y-93694000D03*
X77120000Y-95694000D03*
X77120000Y-97694000D03*
X77120000Y-99694000D03*
D54*
X75620000Y-102294000D03*
X73620000Y-102294000D03*
X71620000Y-102294000D03*
X69620000Y-102294000D03*
X67620000Y-102294000D03*
X65620000Y-102294000D03*
X63620000Y-102294000D03*
X61620000Y-102294000D03*
%TD*%
D42*
%TO.C,C58*%
X88619500Y-58547000D03*
X86894500Y-58547000D03*
%TD*%
D56*
%TO.C,U6*%
X66040000Y-80326000D03*
X64770000Y-80326000D03*
X63500000Y-80326000D03*
X62230000Y-80326000D03*
X62230000Y-75376000D03*
X63500000Y-75376000D03*
X64770000Y-75376000D03*
X66040000Y-75376000D03*
%TD*%
D38*
%TO.C,R1*%
X56188500Y-50038000D03*
X54363500Y-50038000D03*
%TD*%
D12*
%TO.C,R9*%
X63500000Y-72921500D03*
X63500000Y-71096500D03*
%TD*%
D13*
%TO.C,C9*%
X68326000Y-59028500D03*
X68326000Y-57303500D03*
%TD*%
D38*
%TO.C,R33*%
X109020500Y-102489000D03*
X107195500Y-102489000D03*
%TD*%
D13*
%TO.C,C47*%
X112141000Y-90778500D03*
X112141000Y-89053500D03*
%TD*%
D32*
%TO.C,C54*%
X101378100Y-100838000D03*
X103103100Y-100838000D03*
%TD*%
D42*
%TO.C,C53*%
X103103100Y-99187000D03*
X101378100Y-99187000D03*
%TD*%
D32*
%TO.C,C23*%
X64796500Y-82677000D03*
X66521500Y-82677000D03*
%TD*%
D34*
%TO.C,R51*%
X119229500Y-53848000D03*
X121054500Y-53848000D03*
%TD*%
D38*
%TO.C,R10*%
X91463500Y-50546000D03*
X89638500Y-50546000D03*
%TD*%
D34*
%TO.C,R38*%
X101226500Y-94234000D03*
X103051500Y-94234000D03*
%TD*%
D11*
%TO.C,R4*%
X61753000Y-57253500D03*
X61753000Y-59078500D03*
%TD*%
%TO.C,R26*%
X68453000Y-107164500D03*
X68453000Y-108989500D03*
%TD*%
D34*
%TO.C,R55*%
X71731500Y-104902000D03*
X73556500Y-104902000D03*
%TD*%
D42*
%TO.C,C36*%
X84455000Y-74422000D03*
X82730000Y-74422000D03*
%TD*%
D11*
%TO.C,R30*%
X77597000Y-107164500D03*
X77597000Y-108989500D03*
%TD*%
D42*
%TO.C,C26*%
X81408144Y-71708078D03*
X79683144Y-71708078D03*
%TD*%
D12*
%TO.C,R29*%
X69977000Y-72921500D03*
X69977000Y-71096500D03*
%TD*%
D52*
%TO.C,Q1*%
X73980000Y-107393500D03*
X75880000Y-107393500D03*
X74930000Y-109268500D03*
%TD*%
D38*
%TO.C,R42*%
X103051500Y-92583000D03*
X101226500Y-92583000D03*
%TD*%
D13*
%TO.C,C2*%
X65024000Y-59028500D03*
X65024000Y-57303500D03*
%TD*%
D12*
%TO.C,R34*%
X63150000Y-44473500D03*
X63150000Y-42648500D03*
%TD*%
M02*
