M48
; DRILL file {KiCad 7.0.11-7.0.11~ubuntu22.04.1} date Sun 26 May 2024 19:57:31 EEST
; FORMAT={-:-/ absolute / inch / decimal}
; #@! TF.CreationDate,2024-05-26T19:57:31+03:00
; #@! TF.GenerationSoftware,Kicad,Pcbnew,7.0.11-7.0.11~ubuntu22.04.1
; #@! TF.FileFunction,Plated,1,4,PTH
FMAT,2
INCH
; #@! TA.AperFunction,Plated,PTH,ViaDrill
T1C0.0118
; #@! TA.AperFunction,Plated,PTH,ComponentDrill
T2C0.0138
; #@! TA.AperFunction,Plated,PTH,ComponentDrill
T3C0.0157
; #@! TA.AperFunction,Plated,PTH,ComponentDrill
T4C0.0197
; #@! TA.AperFunction,Plated,PTH,ComponentDrill
T5C0.0236
; #@! TA.AperFunction,Plated,PTH,ComponentDrill
T6C0.0256
; #@! TA.AperFunction,Plated,PTH,ComponentDrill
T7C0.0354
; #@! TA.AperFunction,Plated,PTH,ComponentDrill
T8C0.0362
; #@! TA.AperFunction,Plated,PTH,ComponentDrill
T9C0.0390
; #@! TA.AperFunction,Plated,PTH,ComponentDrill
T10C0.0512
; #@! TA.AperFunction,Plated,PTH,ComponentDrill
T11C0.1181
%
G90
G05
T1
X2.136Y-2.447
X2.14Y-2.69
X2.144Y-2.505
X2.145Y-2.946
X2.145Y-2.965
X2.145Y-2.984
X2.145Y-3.16
X2.15Y-2.805
X2.151Y-2.065
X2.16Y-2.519
X2.2Y-2.065
X2.2Y-2.517
X2.201Y-2.348
X2.205Y-2.4
X2.2062Y-2.69
X2.21Y-1.975
X2.21Y-2.14
X2.21Y-3.16
X2.215Y-2.805
X2.242Y-2.825
X2.243Y-3.13
X2.248Y-2.68
X2.251Y-2.065
X2.252Y-2.348
X2.255Y-3.26
X2.258Y-2.84
X2.26Y-2.53
X2.261Y-2.601
X2.261Y-2.622
X2.261Y-3.114
X2.293Y-2.403
X2.2996Y-2.68
X2.3007Y-2.7
X2.305Y-3.16
X2.3079Y-3.0569
X2.31Y-2.805
X2.3128Y-2.6614
X2.3131Y-2.403
X2.3131Y-2.4231
X2.315Y-3.2591
X2.3203Y-2.68
X2.332Y-2.921
X2.341Y-2.4026
X2.3741Y-3.33
X2.38Y-2.577
X2.38Y-3.16
X2.3817Y-2.4689
X2.3836Y-2.543
X2.384Y-2.5006
X2.3869Y-2.6235
X2.393Y-2.4516
X2.396Y-2.5915
X2.3969Y-2.9679
X2.397Y-2.4831
X2.397Y-2.561
X2.3975Y-2.5285
X2.3976Y-2.922
X2.4002Y-2.6404
X2.41Y-2.805
X2.41Y-3.555
X2.412Y-3.495
X2.415Y-2.879
X2.4154Y-2.6556
X2.418Y-2.594
X2.43Y-2.325
X2.43Y-3.595
X2.43Y-3.63
X2.43Y-3.649
X2.43Y-3.668
X2.451Y-3.099
X2.458Y-1.671
X2.458Y-1.692
X2.458Y-1.713
X2.458Y-2.578
X2.46Y-2.39
X2.46Y-2.515
X2.461Y-2.645
X2.473Y-2.685
X2.478Y-2.5792
X2.484Y-3.495
X2.484Y-3.555
X2.484Y-3.052
X2.4919Y-2.642
X2.495Y-2.685
X2.495Y-3.255
X2.5Y-3.28
X2.5041Y-3.33
X2.505Y-2.125
X2.505Y-2.805
X2.512Y-2.642
X2.517Y-2.685
X2.519Y-3.025
X2.519Y-3.045
X2.525Y-2.125
X2.535Y-3.855
X2.5366Y-3.415
X2.537Y-3.39
X2.54Y-3.6991
X2.545Y-2.125
X2.546Y-2.575
X2.5506Y-3.679
X2.555Y-2.8
X2.555Y-3.255
X2.56Y-2.31
X2.565Y-3.3609
X2.5652Y-2.06
X2.569Y-2.644
X2.57Y-2.375
X2.581Y-4.201
X2.581Y-4.22
X2.581Y-4.239
X2.5877Y-2.375
X2.59Y-2.92
X2.595Y-3.64
X2.608Y-3.047
X2.609Y-2.021
X2.6097Y-2.7994
X2.615Y-3.64
X2.62Y-3.26
X2.62Y-3.855
X2.6228Y-2.1169
X2.6249Y-3.335
X2.625Y-2.31
X2.635Y-3.64
X2.636Y-2.05
X2.639Y-2.929
X2.645Y-3.335
X2.647Y-2.644
X2.648Y-3.075
X2.659Y-3.725
X2.66Y-2.395
X2.661Y-3.309
X2.662Y-3.057
X2.6641Y-4.13
X2.666Y-2.581
X2.667Y-2.522
X2.667Y-2.931
X2.674Y-3.2937
X2.684Y-2.624
X2.69Y-2.325
X2.692Y-3.856
X2.695Y-4.22
X2.695Y-4.2909
X2.698Y-2.609
X2.7Y-2.8
X2.705Y-3.755
X2.708Y-3.26
X2.71Y-3.64
X2.712Y-3.715
X2.715Y-2.679
X2.72Y-3.335
X2.721Y-1.8755
X2.735Y-2.679
X2.737Y-2.343
X2.7393Y-2.47
X2.74Y-2.45
X2.74Y-3.2937
X2.754Y-2.356
X2.755Y-2.679
X2.7591Y-2.7991
X2.76Y-3.65
X2.76Y-4.2191
X2.76Y-4.2909
X2.765Y-2.92
X2.766Y-2.5619
X2.7662Y-2.501
X2.775Y-2.679
X2.7802Y-2.5164
X2.8081Y-2.5153
X2.815Y-2.705
X2.816Y-2.923
X2.82Y-3.905
X2.834Y-3.492
X2.838Y-2.679
X2.839Y-2.705
X2.842Y-3.905
X2.8516Y-3.392
X2.8516Y-3.416
X2.852Y-2.351
X2.864Y-3.905
X2.868Y-3.2937
X2.875Y-2.803
X2.886Y-3.905
X2.895Y-4.13
X2.899Y-1.7215
X2.899Y-1.7425
X2.899Y-1.763
X2.9Y-3.133
X2.9Y-3.155
X2.93Y-2.93
X2.934Y-2.352
X2.95Y-2.695
X2.9512Y-2.451
X2.965Y-3.165
X2.9783Y-3.3611
X2.981Y-1.7508
X2.981Y-1.7705
X2.981Y-1.8205
X2.981Y-1.8508
X2.981Y-1.8705
X2.981Y-1.9007
X2.981Y-1.9203
X2.9818Y-1.8001
X2.9899Y-3.1931
X2.99Y-3.104
X2.99Y-3.124
X2.99Y-3.144
X2.99Y-3.171
X2.99Y-3.2149
X2.99Y-3.235
X2.993Y-2.352
X2.995Y-3.35
X3.011Y-3.2351
X3.012Y-3.332
X3.013Y-2.537
X3.013Y-2.556
X3.013Y-2.576
X3.017Y-3.389
X3.028Y-3.318
X3.032Y-3.374
X3.0418Y-2.451
X3.05Y-4.28
X3.05Y-4.355
X3.055Y-2.365
X3.1061Y-3.2969
X3.1061Y-3.3169
X3.108Y-2.924
X3.116Y-2.765
X3.129Y-2.478
X3.129Y-2.497
X3.129Y-2.517
X3.131Y-3.75
X3.138Y-2.765
X3.1449Y-3.2151
X3.145Y-3.1749
X3.145Y-3.1548
X3.1453Y-3.2353
X3.1454Y-3.195
X3.146Y-3.693
X3.154Y-3.75
X3.16Y-2.656
X3.16Y-2.9
X3.16Y-2.9201
X3.18Y-3.285
X3.19Y-2.675
X3.192Y-3.62
X3.2031Y-3.366
X3.206Y-4.138
X3.206Y-4.157
X3.206Y-4.175
X3.21Y-3.638
X3.221Y-2.621
X3.222Y-3.304
X3.26Y-2.795
X3.26Y-2.93
X3.2625Y-3.0085
X3.2626Y-3.0879
X3.2626Y-3.1641
X3.281Y-3.353
X3.288Y-3.721
X3.29Y-2.95
X3.296Y-3.3674
X3.3Y-3.105
X3.3016Y-3.2043
X3.3039Y-3.344
X3.3047Y-2.9967
X3.305Y-2.85
X3.31Y-2.87
X3.316Y-3.315
X3.322Y-2.715
X3.322Y-2.795
X3.3275Y-2.3444
X3.3277Y-2.323
X3.328Y-2.302
X3.334Y-3.419
X3.34Y-2.93
X3.34Y-2.98
X3.34Y-3.03
X3.34Y-3.0658
X3.34Y-3.24
X3.34Y-3.3057
X3.3421Y-3.0079
X3.344Y-3.147
X3.3489Y-3.3517
X3.349Y-3.725
X3.367Y-3.332
X3.38Y-2.79
X3.38Y-2.85
X3.38Y-2.875
X3.38Y-2.91
X3.38Y-2.99
X3.38Y-3.03
X3.38Y-3.0658
X3.38Y-3.105
X3.39Y-3.92
X3.39Y-4.2191
X3.39Y-4.2909
X3.3905Y-3.1829
X3.4044Y-3.4016
X3.414Y-3.226
X3.415Y-2.494
X3.415Y-2.515
X3.415Y-2.535
X3.415Y-2.955
X3.416Y-3.418
X3.42Y-2.83
X3.42Y-2.87
X3.42Y-2.99
X3.42Y-3.03
X3.42Y-3.07
X3.43Y-2.34
X3.4319Y-3.145
X3.44Y-2.715
X3.4436Y-3.317
X3.444Y-3.464
X3.451Y-2.7943
X3.4545Y-4.2905
X3.455Y-2.905
X3.455Y-4.215
X3.4589Y-3.3608
X3.4593Y-2.9931
X3.46Y-2.83
X3.46Y-2.87
X3.46Y-2.95
X3.46Y-3.065
X3.46Y-3.105
X3.46Y-3.145
X3.4613Y-3.0263
X3.4728Y-3.4076
X3.479Y-3.369
X3.48Y-3.552
X3.482Y-3.486
X3.495Y-3.225
X3.498Y-2.9927
X3.4982Y-3.0268
X3.5Y-2.83
X3.5Y-2.87
X3.5Y-2.91
X3.5Y-2.95
X3.5Y-3.105
X3.503Y-2.321
X3.51Y-3.651
X3.5106Y-3.671
X3.515Y-3.455
X3.52Y-2.715
X3.527Y-1.902
X3.532Y-3.376
X3.534Y-3.4651
X3.535Y-3.0754
X3.537Y-3.105
X3.56Y-2.795
X3.563Y-2.752
X3.57Y-2.26
X3.575Y-2.835
X3.575Y-2.8722
X3.575Y-2.955
X3.575Y-3.185
X3.575Y-3.225
X3.576Y-3.107
X3.579Y-3.066
X3.579Y-3.317
X3.58Y-3.03
X3.58Y-3.145
X3.58Y-3.295
X3.59Y-3.337
X3.6Y-2.715
X3.606Y-3.535
X3.606Y-3.556
X3.606Y-3.577
X3.607Y-2.792
X3.613Y-1.964
X3.615Y-2.474
X3.615Y-2.495
X3.615Y-2.515
X3.615Y-2.835
X3.615Y-2.875
X3.615Y-2.91
X3.615Y-2.95
X3.615Y-2.985
X3.615Y-3.145
X3.615Y-3.225
X3.616Y-3.108
X3.618Y-3.1931
X3.619Y-3.173
X3.621Y-3.258
X3.6219Y-3.025
X3.634Y-3.514
X3.636Y-2.578
X3.6375Y-3.3355
X3.654Y-3.514
X3.655Y-2.835
X3.655Y-2.875
X3.655Y-2.91
X3.655Y-2.955
X3.655Y-2.99
X3.655Y-3.024
X3.6555Y-2.8144
X3.6566Y-2.779
X3.682Y-3.185
X3.695Y-2.726
X3.695Y-2.93
X3.695Y-3.145
X3.695Y-3.225
X3.6951Y-2.821
X3.6958Y-3.0443
X3.696Y-2.866
X3.696Y-3.2979
X3.6961Y-3.1218
X3.7Y-2.32
X3.7Y-2.341
X3.7038Y-2.5529
X3.704Y-2.5127
X3.704Y-2.4726
X3.704Y-2.4324
X3.704Y-2.4525
X3.704Y-2.4927
X3.704Y-2.5328
X3.706Y-3.654
X3.707Y-2.3805
X3.709Y-3.3816
X3.7171Y-2.7919
X3.727Y-3.654
X3.735Y-3.205
X3.735Y-3.145
X3.735Y-4.285
X3.735Y-4.355
X3.735Y-3.1849
X3.7359Y-2.778
X3.736Y-2.7579
X3.7424Y-2.5984
X3.7445Y-2.8235
X3.748Y-3.654
X3.754Y-3.955
X3.7626Y-2.6764
X3.7736Y-3.0796
X3.7743Y-3.0081
X3.7743Y-2.9294
X3.775Y-2.738
X3.7751Y-2.6931
X3.811Y-2.621
X3.813Y-2.482
X3.817Y-2.732
X3.8176Y-3.2826
X3.82Y-2.89
X3.832Y-2.621
X3.8401Y-2.89
X3.8514Y-2.994
X3.865Y-2.774
X3.8674Y-3.0457
X3.868Y-3.095
X3.8715Y-2.994
X3.872Y-3.661
X3.884Y-3.461
X3.885Y-2.935
X3.89Y-3.0457
X3.89Y-3.095
X3.891Y-3.668
X3.892Y-2.774
X3.902Y-3.419
X3.903Y-3.078
X3.9036Y-2.9236
X3.905Y-3.461
X3.907Y-2.48
X3.909Y-3.1079
X3.913Y-2.774
X3.914Y-3.151
X3.9169Y-2.9407
X3.932Y-2.774
X3.938Y-3.526
X3.94Y-2.305
X3.942Y-2.49
X3.95Y-4.29
X3.959Y-2.687
X3.9624Y-2.9793
X3.973Y-2.671
X3.9816Y-2.9852
X3.99Y-2.39
X3.9917Y-2.4354
X3.992Y-2.46
X3.992Y-2.49
X4.019Y-3.764
X4.019Y-3.785
X4.019Y-3.806
X4.024Y-2.993
X4.038Y-3.134
X4.038Y-3.154
X4.038Y-3.174
X4.041Y-2.699
X4.041Y-2.718
X4.041Y-2.737
X4.047Y-2.996
X4.1062Y-2.101
X4.1258Y-2.101
X4.133Y-3.3584
X4.14Y-4.285
X4.14Y-4.35
X4.145Y-2.139
X4.145Y-2.161
X4.145Y-2.182
X4.165Y-2.101
X4.168Y-1.854
X4.17Y-2.645
X4.17Y-2.99
X4.17Y-3.53
X4.184Y-1.659
X4.185Y-2.101
X4.185Y-3.195
X4.185Y-3.505
X4.2Y-2.673
X4.2Y-2.99
X4.2Y-3.53
X4.204Y-2.139
X4.204Y-2.161
X4.204Y-2.182
X4.205Y-2.645
X4.215Y-3.195
X4.218Y-3.505
X4.2242Y-2.101
X4.227Y-2.441
X4.227Y-2.46
X4.227Y-2.479
X4.231Y-2.673
X4.235Y-2.645
X4.235Y-2.99
X4.235Y-3.53
X4.2438Y-2.101
X4.244Y-1.659
X4.2484Y-1.78
X4.249Y-3.195
X4.25Y-3.505
X4.264Y-1.846
X4.264Y-2.139
X4.264Y-2.161
X4.264Y-2.182
X4.265Y-2.645
X4.265Y-2.673
X4.265Y-2.99
X4.265Y-3.53
X4.28Y-1.78
X4.28Y-3.195
X4.28Y-3.505
X4.282Y-3.699
X4.2843Y-2.101
X4.295Y-2.645
X4.295Y-3.53
X4.296Y-1.766
X4.296Y-2.99
X4.304Y-1.659
X4.304Y-2.101
X4.3075Y-2.7175
X4.3076Y-2.7376
X4.31Y-3.195
X4.312Y-1.78
X4.315Y-3.403
X4.325Y-2.99
X4.325Y-3.089
X4.327Y-1.766
X4.335Y-4.29
X4.34Y-2.645
X4.341Y-3.195
X4.355Y-2.969
X4.355Y-2.99
X4.355Y-3.47
X4.355Y-3.53
X4.364Y-1.729
X4.3691Y-2.281
X4.371Y-2.342
X4.372Y-2.645
X4.373Y-3.195
X4.3806Y-1.8324
X4.381Y-1.878
X4.39Y-1.854
X4.4022Y-2.9178
X4.405Y-2.837
X4.4164Y-2.932
X4.42Y-2.99
X4.42Y-3.195
X4.42Y-3.58
X4.428Y-2.837
X4.4306Y-2.9462
X4.434Y-1.814
X4.44Y-2.65
X4.441Y-2.282
X4.45Y-2.59
X4.45Y-3.195
X4.45Y-3.53
X4.455Y-2.99
X4.46Y-2.81
X4.46Y-2.8301
X4.465Y-3.44
X4.467Y-3.752
X4.48Y-2.92
X4.485Y-3.642
X4.496Y-4.01
X4.499Y-2.649
X4.499Y-3.468
X4.499Y-3.489
X4.52Y-4.285
X4.52Y-4.35
X4.523Y-2.758
X4.525Y-3.641
X4.528Y-3.424
X4.529Y-3.402
X4.539Y-2.743
X4.545Y-3.53
X4.55Y-2.645
X4.556Y-3.771
X4.556Y-3.792
X4.565Y-3.195
X4.57Y-2.885
X4.57Y-2.9051
X4.57Y-2.9252
X4.5715Y-2.9487
X4.58Y-2.645
X4.58Y-2.99
X4.587Y-3.53
X4.595Y-3.195
X4.595Y-3.505
X4.61Y-2.645
X4.61Y-2.787
X4.61Y-2.99
X4.61Y-3.53
X4.6119Y-2.6929
X4.621Y-2.28
X4.625Y-3.195
X4.625Y-3.505
X4.631Y-3.712
X4.632Y-3.733
X4.632Y-3.754
X4.64Y-2.645
X4.64Y-2.674
X4.64Y-2.99
X4.64Y-3.53
X4.654Y-3.505
X4.655Y-3.195
X4.67Y-2.99
X4.67Y-3.53
X4.671Y-2.787
X4.675Y-2.645
X4.685Y-2.885
X4.685Y-3.505
X4.686Y-3.195
X4.7Y-2.787
X4.7Y-2.99
X4.7Y-3.53
X4.705Y-2.645
X4.715Y-3.195
X4.766Y-3.458
X4.766Y-3.477
X4.766Y-3.496
X4.767Y-2.749
X4.767Y-2.768
X4.767Y-2.787
X4.778Y-3.637
T2
X2.5108Y-2.425
X2.5108Y-2.4752
X2.5108Y-2.5254
X2.561Y-2.425
X2.561Y-2.4752
X2.561Y-2.5254
X2.6112Y-2.425
X2.6112Y-2.4752
X2.6112Y-2.5254
T3
X2.445Y-1.808
X2.445Y-1.8434
X2.445Y-1.8789
X2.445Y-1.9143
X2.445Y-1.9497
X2.445Y-1.9852
X2.445Y-2.0206
X2.4757Y-1.8257
X2.4757Y-1.8611
X2.4757Y-1.8966
X2.4757Y-1.932
X2.4757Y-1.9674
X2.4757Y-2.0029
X2.4757Y-2.0383
T4
X2.1576Y-1.7864
X2.1576Y-4.215
X2.1836Y-1.7238
X2.1836Y-1.8491
X2.1836Y-4.1524
X2.1836Y-4.2776
X2.2462Y-1.6978
X2.2462Y-1.875
X2.2462Y-4.1264
X2.2462Y-4.3036
X2.3089Y-1.7238
X2.3089Y-1.8491
X2.3089Y-4.1524
X2.3089Y-4.2776
X2.3348Y-1.7864
X2.3348Y-4.215
X4.5926Y-1.7774
X4.5926Y-4.215
X4.6186Y-1.7147
X4.6186Y-1.84
X4.6186Y-4.1524
X4.6186Y-4.2776
X4.6812Y-1.6888
X4.6812Y-1.8659
X4.6812Y-4.1264
X4.6812Y-4.3036
X4.7439Y-1.7147
X4.7439Y-1.84
X4.7439Y-4.1524
X4.7439Y-4.2776
X4.7698Y-1.7774
X4.7698Y-4.215
T6
X3.842Y-3.706
X3.842Y-3.756
X3.842Y-3.806
X3.842Y-3.856
X3.842Y-3.906
X3.842Y-3.956
X3.842Y-4.006
X3.892Y-3.706
X3.892Y-3.756
X3.892Y-3.806
X3.892Y-3.856
X3.892Y-3.906
X3.892Y-3.956
X3.892Y-4.006
X3.945Y-3.084
X3.945Y-3.134
X3.945Y-3.184
X3.9794Y-2.178
X3.995Y-3.084
X3.995Y-3.134
X3.995Y-3.184
X4.0294Y-2.178
X4.148Y-3.805
X4.148Y-3.855
X4.148Y-3.905
X4.148Y-3.955
X4.148Y-4.005
X4.198Y-3.805
X4.198Y-3.855
X4.198Y-3.905
X4.198Y-3.955
X4.198Y-4.005
X4.28Y-2.398
X4.28Y-2.448
X4.28Y-2.498
X4.76Y-1.966
X4.76Y-2.016
X4.76Y-2.066
X4.76Y-2.116
T8
X2.7909Y-2.0827
X2.7909Y-2.1859
X2.8894Y-2.0827
X2.8894Y-2.1859
X2.9681Y-2.0827
X2.9681Y-2.1859
X3.0665Y-2.0827
X3.0665Y-2.1859
X3.4497Y-2.0827
X3.4497Y-2.1859
X3.5481Y-2.0827
X3.5481Y-2.1859
X3.6269Y-2.0827
X3.6269Y-2.1859
X3.7253Y-2.0827
X3.7253Y-2.1859
T9
X3.8636Y-4.2619
X4.0408Y-4.2619
X4.2436Y-4.26
X4.4208Y-4.26
T10
X3.814Y-4.1639
X4.09Y-4.1639
X4.194Y-4.162
X4.47Y-4.162
T11
X2.2462Y-1.7864
X2.2462Y-4.215
X4.6812Y-1.7774
X4.6812Y-4.215
T4
G00X4.411Y-3.7636
M15
G01X4.3677Y-3.7636
M16
G05
G00X4.4161Y-2.2186
M15
G01X4.3728Y-2.2186
M16
G05
G00X4.4543Y-3.9564
M15
G01X4.411Y-3.9564
M16
G05
G00X4.4594Y-2.4114
M15
G01X4.4161Y-2.4114
M16
G05
G00X4.6118Y-3.9564
M15
G01X4.5685Y-3.9564
M16
G05
G00X4.6169Y-2.4114
M15
G01X4.5736Y-2.4114
M16
G05
G00X4.7299Y-3.9564
M15
G01X4.6866Y-3.9564
M16
G05
G00X4.735Y-2.4114
M15
G01X4.6917Y-2.4114
M16
G05
T5
G00X2.4041Y-1.8474
M15
G01X2.4041Y-1.808
M16
G05
G00X2.4041Y-2.0363
M15
G01X2.4041Y-1.997
M16
G05
G00X2.5167Y-1.8474
M15
G01X2.5167Y-1.808
M16
G05
G00X2.5167Y-2.0363
M15
G01X2.5167Y-1.997
M16
G05
T7
G00X3.9883Y-1.7712
M15
G01X3.9883Y-1.7397
M16
G05
G00X3.9883Y-2.0255
M15
G01X3.9883Y-1.9546
M16
G05
G00X4.5592Y-1.7712
M15
G01X4.5592Y-1.7397
M16
G05
G00X4.5592Y-2.0255
M15
G01X4.5592Y-1.9546
M16
G05
T10
G00X2.6815Y-1.9957
M15
G01X2.6815Y-1.9563
M16
G05
G00X2.6815Y-2.2193
M15
G01X2.6815Y-2.18
M16
G05
G00X3.1765Y-1.9957
M15
G01X3.1765Y-1.9563
M16
G05
G00X3.1765Y-2.2193
M15
G01X3.1765Y-2.18
M16
G05
G00X3.3403Y-1.9957
M15
G01X3.3403Y-1.9563
M16
G05
G00X3.3403Y-2.2193
M15
G01X3.3403Y-2.18
M16
G05
G00X3.8353Y-1.9957
M15
G01X3.8353Y-1.9563
M16
G05
G00X3.8353Y-2.2193
M15
G01X3.8353Y-2.18
M16
G05
M30
