%TF.GenerationSoftware,KiCad,Pcbnew,7.0.11-7.0.11~ubuntu22.04.1*%
%TF.CreationDate,2024-03-20T00:33:39+02:00*%
%TF.ProjectId,karabas-mini,6b617261-6261-4732-9d6d-696e692e6b69,rev?*%
%TF.SameCoordinates,Original*%
%TF.FileFunction,Legend,Top*%
%TF.FilePolarity,Positive*%
%FSLAX46Y46*%
G04 Gerber Fmt 4.6, Leading zero omitted, Abs format (unit mm)*
G04 Created by KiCad (PCBNEW 7.0.11-7.0.11~ubuntu22.04.1) date 2024-03-20 00:33:39*
%MOMM*%
%LPD*%
G01*
G04 APERTURE LIST*
%ADD10C,0.150000*%
%ADD11C,0.120000*%
%ADD12C,0.100000*%
%ADD13C,0.127000*%
%ADD14C,0.200000*%
%ADD15C,0.254000*%
G04 APERTURE END LIST*
D10*
X80340200Y-66791072D02*
X80010000Y-66319400D01*
X80391000Y-66319400D01*
X80670400Y-66319400D01*
X80340200Y-66791072D01*
G36*
X80340200Y-66791072D02*
G01*
X80010000Y-66319400D01*
X80391000Y-66319400D01*
X80670400Y-66319400D01*
X80340200Y-66791072D01*
G37*
D11*
X85512000Y-91781000D02*
X85512000Y-91567000D01*
D10*
X93649800Y-66802000D02*
X93370400Y-66802000D01*
X92989400Y-66802000D01*
X93319600Y-66330328D01*
X93649800Y-66802000D01*
G36*
X93649800Y-66802000D02*
G01*
X93370400Y-66802000D01*
X92989400Y-66802000D01*
X93319600Y-66330328D01*
X93649800Y-66802000D01*
G37*
X61748247Y-58941285D02*
X61418047Y-58469613D01*
X61799047Y-58469613D01*
X62078447Y-58469613D01*
X61748247Y-58941285D01*
G36*
X61748247Y-58941285D02*
G01*
X61418047Y-58469613D01*
X61799047Y-58469613D01*
X62078447Y-58469613D01*
X61748247Y-58941285D01*
G37*
X65354200Y-85231472D02*
X65024000Y-84759800D01*
X65405000Y-84759800D01*
X65684400Y-84759800D01*
X65354200Y-85231472D01*
G36*
X65354200Y-85231472D02*
G01*
X65024000Y-84759800D01*
X65405000Y-84759800D01*
X65684400Y-84759800D01*
X65354200Y-85231472D01*
G37*
D11*
X85512000Y-91567000D02*
X86868000Y-91567000D01*
D10*
X54079780Y-88893807D02*
X54555971Y-88560474D01*
X54079780Y-88322379D02*
X55079780Y-88322379D01*
X55079780Y-88322379D02*
X55079780Y-88703331D01*
X55079780Y-88703331D02*
X55032161Y-88798569D01*
X55032161Y-88798569D02*
X54984542Y-88846188D01*
X54984542Y-88846188D02*
X54889304Y-88893807D01*
X54889304Y-88893807D02*
X54746447Y-88893807D01*
X54746447Y-88893807D02*
X54651209Y-88846188D01*
X54651209Y-88846188D02*
X54603590Y-88798569D01*
X54603590Y-88798569D02*
X54555971Y-88703331D01*
X54555971Y-88703331D02*
X54555971Y-88322379D01*
X54127400Y-89703331D02*
X54079780Y-89608093D01*
X54079780Y-89608093D02*
X54079780Y-89417617D01*
X54079780Y-89417617D02*
X54127400Y-89322379D01*
X54127400Y-89322379D02*
X54222638Y-89274760D01*
X54222638Y-89274760D02*
X54603590Y-89274760D01*
X54603590Y-89274760D02*
X54698828Y-89322379D01*
X54698828Y-89322379D02*
X54746447Y-89417617D01*
X54746447Y-89417617D02*
X54746447Y-89608093D01*
X54746447Y-89608093D02*
X54698828Y-89703331D01*
X54698828Y-89703331D02*
X54603590Y-89750950D01*
X54603590Y-89750950D02*
X54508352Y-89750950D01*
X54508352Y-89750950D02*
X54413114Y-89274760D01*
X54746447Y-90084284D02*
X54079780Y-90322379D01*
X54079780Y-90322379D02*
X54746447Y-90560474D01*
X54175019Y-90941427D02*
X54127400Y-90989046D01*
X54127400Y-90989046D02*
X54079780Y-90941427D01*
X54079780Y-90941427D02*
X54127400Y-90893808D01*
X54127400Y-90893808D02*
X54175019Y-90941427D01*
X54175019Y-90941427D02*
X54079780Y-90941427D01*
X54175019Y-91989045D02*
X54127400Y-91941426D01*
X54127400Y-91941426D02*
X54079780Y-91798569D01*
X54079780Y-91798569D02*
X54079780Y-91703331D01*
X54079780Y-91703331D02*
X54127400Y-91560474D01*
X54127400Y-91560474D02*
X54222638Y-91465236D01*
X54222638Y-91465236D02*
X54317876Y-91417617D01*
X54317876Y-91417617D02*
X54508352Y-91369998D01*
X54508352Y-91369998D02*
X54651209Y-91369998D01*
X54651209Y-91369998D02*
X54841685Y-91417617D01*
X54841685Y-91417617D02*
X54936923Y-91465236D01*
X54936923Y-91465236D02*
X55032161Y-91560474D01*
X55032161Y-91560474D02*
X55079780Y-91703331D01*
X55079780Y-91703331D02*
X55079780Y-91798569D01*
X55079780Y-91798569D02*
X55032161Y-91941426D01*
X55032161Y-91941426D02*
X54984542Y-91989045D01*
G36*
X89216445Y-95515476D02*
G01*
X88161970Y-95515476D01*
X88161970Y-95291083D01*
X88304827Y-95291083D01*
X88310668Y-95312885D01*
X88314589Y-95335119D01*
X88317216Y-95337323D01*
X88318104Y-95340637D01*
X88336595Y-95353585D01*
X88353889Y-95368096D01*
X88358473Y-95368904D01*
X88360130Y-95370064D01*
X88363418Y-95369776D01*
X88379541Y-95372619D01*
X88998588Y-95372619D01*
X89046797Y-95355072D01*
X89072449Y-95310643D01*
X89063540Y-95260119D01*
X89024240Y-95227142D01*
X88998588Y-95222619D01*
X88560607Y-95222619D01*
X89004002Y-94779223D01*
X89005897Y-94775158D01*
X89009717Y-94772812D01*
X89022120Y-94749907D01*
X89069739Y-94607051D01*
X89069694Y-94605415D01*
X89073588Y-94583333D01*
X89073588Y-94488095D01*
X89072054Y-94483881D01*
X89073096Y-94479520D01*
X89065670Y-94454554D01*
X89018051Y-94359316D01*
X89016861Y-94358190D01*
X89004002Y-94339824D01*
X88956383Y-94292205D01*
X88954901Y-94291514D01*
X88936891Y-94278156D01*
X88841653Y-94230537D01*
X88837199Y-94230024D01*
X88833764Y-94227142D01*
X88808112Y-94222619D01*
X88570017Y-94222619D01*
X88565803Y-94224152D01*
X88561442Y-94223111D01*
X88536476Y-94230537D01*
X88441238Y-94278156D01*
X88440112Y-94279345D01*
X88421746Y-94292205D01*
X88374127Y-94339824D01*
X88352446Y-94386321D01*
X88365723Y-94435875D01*
X88407749Y-94465302D01*
X88458856Y-94460830D01*
X88480193Y-94445890D01*
X88519206Y-94406877D01*
X88587722Y-94372619D01*
X88790407Y-94372619D01*
X88858923Y-94406877D01*
X88889330Y-94437284D01*
X88923588Y-94505800D01*
X88923588Y-94571163D01*
X88885416Y-94685676D01*
X88326508Y-95244586D01*
X88316970Y-95265039D01*
X88305680Y-95284595D01*
X88306276Y-95287975D01*
X88304827Y-95291083D01*
X88161970Y-95291083D01*
X88161970Y-94079762D01*
X89216445Y-94079762D01*
X89216445Y-95515476D01*
G37*
G36*
X71587706Y-95439276D02*
G01*
X70582842Y-95439276D01*
X70582842Y-95208395D01*
X70725699Y-95208395D01*
X70734608Y-95258919D01*
X70773908Y-95291896D01*
X70799560Y-95296419D01*
X71370988Y-95296419D01*
X71419197Y-95278872D01*
X71444849Y-95234443D01*
X71435940Y-95183919D01*
X71396640Y-95150942D01*
X71370988Y-95146419D01*
X71160274Y-95146419D01*
X71160274Y-94221419D01*
X71158798Y-94217365D01*
X71159819Y-94213176D01*
X71150171Y-94193663D01*
X71142727Y-94173210D01*
X71138992Y-94171054D01*
X71137081Y-94167187D01*
X71117146Y-94158440D01*
X71098298Y-94147558D01*
X71094050Y-94148306D01*
X71090101Y-94146574D01*
X71069206Y-94152687D01*
X71047774Y-94156467D01*
X71045002Y-94159769D01*
X71040863Y-94160981D01*
X71022870Y-94179816D01*
X70931750Y-94316496D01*
X70850371Y-94397875D01*
X70766019Y-94440051D01*
X70730747Y-94477305D01*
X70727672Y-94528516D01*
X70758236Y-94569721D01*
X70808134Y-94581641D01*
X70833101Y-94574215D01*
X70928339Y-94526596D01*
X70929464Y-94525406D01*
X70947831Y-94512547D01*
X71010274Y-94450104D01*
X71010274Y-95146419D01*
X70799560Y-95146419D01*
X70751351Y-95163966D01*
X70725699Y-95208395D01*
X70582842Y-95208395D01*
X70582842Y-94003717D01*
X71587706Y-94003717D01*
X71587706Y-95439276D01*
G37*
G36*
X102051990Y-94882304D02*
G01*
X102013819Y-94996817D01*
X101987325Y-95023311D01*
X101918809Y-95057569D01*
X101811362Y-95057569D01*
X101742846Y-95023311D01*
X101712438Y-94992903D01*
X101678180Y-94924386D01*
X101678180Y-94636141D01*
X102051990Y-94636141D01*
X102051990Y-94882304D01*
G37*
G36*
X102528180Y-94876769D02*
G01*
X102493922Y-94945285D01*
X102463515Y-94975692D01*
X102394999Y-95009950D01*
X102335171Y-95009950D01*
X102266655Y-94975692D01*
X102236248Y-94945285D01*
X102201990Y-94876769D01*
X102201990Y-94636141D01*
X102528180Y-94636141D01*
X102528180Y-94876769D01*
G37*
G36*
X102821037Y-97350426D02*
G01*
X101385323Y-97350426D01*
X101385323Y-96942093D01*
X101528180Y-96942093D01*
X101529713Y-96946306D01*
X101528672Y-96950668D01*
X101536098Y-96975635D01*
X101583718Y-97070873D01*
X101584909Y-97072000D01*
X101597767Y-97090364D01*
X101645386Y-97137983D01*
X101646867Y-97138674D01*
X101664878Y-97152032D01*
X101760116Y-97199651D01*
X101764569Y-97200163D01*
X101768005Y-97203046D01*
X101793657Y-97207569D01*
X101888895Y-97207569D01*
X101893108Y-97206035D01*
X101897469Y-97207077D01*
X101922436Y-97199651D01*
X102017674Y-97152032D01*
X102018799Y-97150842D01*
X102037166Y-97137983D01*
X102084785Y-97090364D01*
X102085476Y-97088882D01*
X102098834Y-97070872D01*
X102146453Y-96975634D01*
X102146859Y-96972105D01*
X102152132Y-96960283D01*
X102197754Y-96777793D01*
X102236248Y-96700806D01*
X102266655Y-96670399D01*
X102335171Y-96636141D01*
X102394999Y-96636141D01*
X102463515Y-96670399D01*
X102493922Y-96700806D01*
X102528180Y-96769322D01*
X102528180Y-96977542D01*
X102484410Y-97108852D01*
X102485811Y-97160136D01*
X102519848Y-97198521D01*
X102570597Y-97206046D01*
X102614309Y-97179191D01*
X102626712Y-97156286D01*
X102674331Y-97013430D01*
X102674286Y-97011794D01*
X102678180Y-96989712D01*
X102678180Y-96751617D01*
X102676646Y-96747403D01*
X102677688Y-96743042D01*
X102670262Y-96718076D01*
X102622643Y-96622838D01*
X102621453Y-96621712D01*
X102608594Y-96603346D01*
X102560975Y-96555727D01*
X102559493Y-96555036D01*
X102541483Y-96541678D01*
X102446245Y-96494059D01*
X102441791Y-96493546D01*
X102438356Y-96490664D01*
X102412704Y-96486141D01*
X102317466Y-96486141D01*
X102313252Y-96487674D01*
X102308891Y-96486633D01*
X102283925Y-96494059D01*
X102188687Y-96541678D01*
X102187561Y-96542867D01*
X102169195Y-96555727D01*
X102121576Y-96603346D01*
X102120885Y-96604827D01*
X102107527Y-96622838D01*
X102059908Y-96718076D01*
X102059501Y-96721604D01*
X102054229Y-96733427D01*
X102008606Y-96915917D01*
X101970113Y-96992904D01*
X101939706Y-97023311D01*
X101871190Y-97057569D01*
X101811362Y-97057569D01*
X101742846Y-97023311D01*
X101712438Y-96992903D01*
X101678180Y-96924386D01*
X101678180Y-96716169D01*
X101721951Y-96584858D01*
X101720550Y-96533574D01*
X101686513Y-96495189D01*
X101635765Y-96487663D01*
X101592052Y-96514518D01*
X101579649Y-96537423D01*
X101532029Y-96680280D01*
X101532073Y-96681915D01*
X101528180Y-96703998D01*
X101528180Y-96942093D01*
X101385323Y-96942093D01*
X101385323Y-95942093D01*
X101528180Y-95942093D01*
X101529713Y-95946306D01*
X101528672Y-95950668D01*
X101536098Y-95975635D01*
X101583718Y-96070873D01*
X101584909Y-96072000D01*
X101597767Y-96090364D01*
X101645386Y-96137983D01*
X101646867Y-96138674D01*
X101664878Y-96152032D01*
X101760116Y-96199651D01*
X101764569Y-96200163D01*
X101768005Y-96203046D01*
X101793657Y-96207569D01*
X102603180Y-96207569D01*
X102651389Y-96190022D01*
X102677041Y-96145593D01*
X102668132Y-96095069D01*
X102628832Y-96062092D01*
X102603180Y-96057569D01*
X101811362Y-96057569D01*
X101742846Y-96023311D01*
X101712438Y-95992903D01*
X101678180Y-95924386D01*
X101678180Y-95769323D01*
X101712438Y-95700806D01*
X101742846Y-95670399D01*
X101811362Y-95636141D01*
X102603180Y-95636141D01*
X102651389Y-95618594D01*
X102677041Y-95574165D01*
X102668132Y-95523641D01*
X102628832Y-95490664D01*
X102603180Y-95486141D01*
X101793657Y-95486141D01*
X101789443Y-95487674D01*
X101785082Y-95486633D01*
X101760116Y-95494059D01*
X101664878Y-95541678D01*
X101663752Y-95542867D01*
X101645386Y-95555727D01*
X101597767Y-95603346D01*
X101597075Y-95604828D01*
X101583718Y-95622837D01*
X101536098Y-95718075D01*
X101535585Y-95722529D01*
X101532703Y-95725965D01*
X101528180Y-95751617D01*
X101528180Y-95942093D01*
X101385323Y-95942093D01*
X101385323Y-94942093D01*
X101528180Y-94942093D01*
X101529713Y-94946306D01*
X101528672Y-94950668D01*
X101536098Y-94975635D01*
X101583718Y-95070873D01*
X101584909Y-95072000D01*
X101597767Y-95090364D01*
X101645386Y-95137983D01*
X101646867Y-95138674D01*
X101664878Y-95152032D01*
X101760116Y-95199651D01*
X101764569Y-95200163D01*
X101768005Y-95203046D01*
X101793657Y-95207569D01*
X101936514Y-95207569D01*
X101940727Y-95206035D01*
X101945088Y-95207077D01*
X101970055Y-95199651D01*
X102065293Y-95152032D01*
X102066418Y-95150842D01*
X102084785Y-95137983D01*
X102132404Y-95090364D01*
X102134299Y-95086299D01*
X102138119Y-95083953D01*
X102146783Y-95067952D01*
X102169195Y-95090364D01*
X102170676Y-95091055D01*
X102188687Y-95104413D01*
X102283925Y-95152032D01*
X102288378Y-95152544D01*
X102291814Y-95155427D01*
X102317466Y-95159950D01*
X102412704Y-95159950D01*
X102416917Y-95158416D01*
X102421278Y-95159458D01*
X102446245Y-95152032D01*
X102541483Y-95104413D01*
X102542608Y-95103223D01*
X102560975Y-95090364D01*
X102608594Y-95042745D01*
X102609285Y-95041263D01*
X102622643Y-95023253D01*
X102670262Y-94928015D01*
X102670774Y-94923561D01*
X102673657Y-94920126D01*
X102678180Y-94894474D01*
X102678180Y-94561141D01*
X102671516Y-94542832D01*
X102668132Y-94523641D01*
X102662947Y-94519290D01*
X102660633Y-94512932D01*
X102643759Y-94503189D01*
X102628832Y-94490664D01*
X102619089Y-94488946D01*
X102616204Y-94487280D01*
X102612921Y-94487858D01*
X102603180Y-94486141D01*
X101603180Y-94486141D01*
X101584871Y-94492804D01*
X101565680Y-94496189D01*
X101561329Y-94501373D01*
X101554971Y-94503688D01*
X101545228Y-94520561D01*
X101532703Y-94535489D01*
X101530985Y-94545231D01*
X101529319Y-94548117D01*
X101529897Y-94551399D01*
X101528180Y-94561141D01*
X101528180Y-94942093D01*
X101385323Y-94942093D01*
X101385323Y-93942093D01*
X101528180Y-93942093D01*
X101529713Y-93946306D01*
X101528672Y-93950668D01*
X101536098Y-93975635D01*
X101560942Y-94025323D01*
X101554971Y-94027497D01*
X101529319Y-94071926D01*
X101538228Y-94122450D01*
X101577528Y-94155427D01*
X101603180Y-94159950D01*
X102269847Y-94159950D01*
X102318056Y-94142403D01*
X102343708Y-94097974D01*
X102334799Y-94047450D01*
X102295499Y-94014473D01*
X102269847Y-94009950D01*
X101729485Y-94009950D01*
X101712438Y-93992903D01*
X101678180Y-93924386D01*
X101678180Y-93816942D01*
X101706701Y-93759899D01*
X101763743Y-93731379D01*
X102269847Y-93731379D01*
X102318056Y-93713832D01*
X102343708Y-93669403D01*
X102334799Y-93618879D01*
X102295499Y-93585902D01*
X102269847Y-93581379D01*
X101746038Y-93581379D01*
X101741824Y-93582912D01*
X101737463Y-93581871D01*
X101712497Y-93589297D01*
X101617259Y-93636916D01*
X101609540Y-93645068D01*
X101599236Y-93649535D01*
X101583718Y-93670456D01*
X101536098Y-93765694D01*
X101535585Y-93770148D01*
X101532703Y-93773584D01*
X101528180Y-93799236D01*
X101528180Y-93942093D01*
X101385323Y-93942093D01*
X101385323Y-93438522D01*
X102821037Y-93438522D01*
X102821037Y-97350426D01*
G37*
X54232180Y-95104179D02*
X54898847Y-95104179D01*
X54803609Y-95104179D02*
X54851228Y-95151798D01*
X54851228Y-95151798D02*
X54898847Y-95247036D01*
X54898847Y-95247036D02*
X54898847Y-95389893D01*
X54898847Y-95389893D02*
X54851228Y-95485131D01*
X54851228Y-95485131D02*
X54755990Y-95532750D01*
X54755990Y-95532750D02*
X54232180Y-95532750D01*
X54755990Y-95532750D02*
X54851228Y-95580369D01*
X54851228Y-95580369D02*
X54898847Y-95675607D01*
X54898847Y-95675607D02*
X54898847Y-95818464D01*
X54898847Y-95818464D02*
X54851228Y-95913703D01*
X54851228Y-95913703D02*
X54755990Y-95961322D01*
X54755990Y-95961322D02*
X54232180Y-95961322D01*
X54232180Y-96437512D02*
X54898847Y-96437512D01*
X55232180Y-96437512D02*
X55184561Y-96389893D01*
X55184561Y-96389893D02*
X55136942Y-96437512D01*
X55136942Y-96437512D02*
X55184561Y-96485131D01*
X55184561Y-96485131D02*
X55232180Y-96437512D01*
X55232180Y-96437512D02*
X55136942Y-96437512D01*
X54898847Y-96913702D02*
X54232180Y-96913702D01*
X54803609Y-96913702D02*
X54851228Y-96961321D01*
X54851228Y-96961321D02*
X54898847Y-97056559D01*
X54898847Y-97056559D02*
X54898847Y-97199416D01*
X54898847Y-97199416D02*
X54851228Y-97294654D01*
X54851228Y-97294654D02*
X54755990Y-97342273D01*
X54755990Y-97342273D02*
X54232180Y-97342273D01*
X54232180Y-97818464D02*
X54898847Y-97818464D01*
X55232180Y-97818464D02*
X55184561Y-97770845D01*
X55184561Y-97770845D02*
X55136942Y-97818464D01*
X55136942Y-97818464D02*
X55184561Y-97866083D01*
X55184561Y-97866083D02*
X55232180Y-97818464D01*
X55232180Y-97818464D02*
X55136942Y-97818464D01*
X74460314Y-66437704D02*
X74936504Y-66437704D01*
X74365076Y-66723419D02*
X74698409Y-65723419D01*
X74698409Y-65723419D02*
X75031742Y-66723419D01*
X75365076Y-66723419D02*
X75365076Y-65723419D01*
X75365076Y-65723419D02*
X75603171Y-65723419D01*
X75603171Y-65723419D02*
X75746028Y-65771038D01*
X75746028Y-65771038D02*
X75841266Y-65866276D01*
X75841266Y-65866276D02*
X75888885Y-65961514D01*
X75888885Y-65961514D02*
X75936504Y-66151990D01*
X75936504Y-66151990D02*
X75936504Y-66294847D01*
X75936504Y-66294847D02*
X75888885Y-66485323D01*
X75888885Y-66485323D02*
X75841266Y-66580561D01*
X75841266Y-66580561D02*
X75746028Y-66675800D01*
X75746028Y-66675800D02*
X75603171Y-66723419D01*
X75603171Y-66723419D02*
X75365076Y-66723419D01*
X76936504Y-66628180D02*
X76888885Y-66675800D01*
X76888885Y-66675800D02*
X76746028Y-66723419D01*
X76746028Y-66723419D02*
X76650790Y-66723419D01*
X76650790Y-66723419D02*
X76507933Y-66675800D01*
X76507933Y-66675800D02*
X76412695Y-66580561D01*
X76412695Y-66580561D02*
X76365076Y-66485323D01*
X76365076Y-66485323D02*
X76317457Y-66294847D01*
X76317457Y-66294847D02*
X76317457Y-66151990D01*
X76317457Y-66151990D02*
X76365076Y-65961514D01*
X76365076Y-65961514D02*
X76412695Y-65866276D01*
X76412695Y-65866276D02*
X76507933Y-65771038D01*
X76507933Y-65771038D02*
X76650790Y-65723419D01*
X76650790Y-65723419D02*
X76746028Y-65723419D01*
X76746028Y-65723419D02*
X76888885Y-65771038D01*
X76888885Y-65771038D02*
X76936504Y-65818657D01*
X77555552Y-65723419D02*
X77650790Y-65723419D01*
X77650790Y-65723419D02*
X77746028Y-65771038D01*
X77746028Y-65771038D02*
X77793647Y-65818657D01*
X77793647Y-65818657D02*
X77841266Y-65913895D01*
X77841266Y-65913895D02*
X77888885Y-66104371D01*
X77888885Y-66104371D02*
X77888885Y-66342466D01*
X77888885Y-66342466D02*
X77841266Y-66532942D01*
X77841266Y-66532942D02*
X77793647Y-66628180D01*
X77793647Y-66628180D02*
X77746028Y-66675800D01*
X77746028Y-66675800D02*
X77650790Y-66723419D01*
X77650790Y-66723419D02*
X77555552Y-66723419D01*
X77555552Y-66723419D02*
X77460314Y-66675800D01*
X77460314Y-66675800D02*
X77412695Y-66628180D01*
X77412695Y-66628180D02*
X77365076Y-66532942D01*
X77365076Y-66532942D02*
X77317457Y-66342466D01*
X77317457Y-66342466D02*
X77317457Y-66104371D01*
X77317457Y-66104371D02*
X77365076Y-65913895D01*
X77365076Y-65913895D02*
X77412695Y-65818657D01*
X77412695Y-65818657D02*
X77460314Y-65771038D01*
X77460314Y-65771038D02*
X77555552Y-65723419D01*
X54184705Y-82766819D02*
X54184705Y-83576342D01*
X54184705Y-83576342D02*
X54232324Y-83671580D01*
X54232324Y-83671580D02*
X54279943Y-83719200D01*
X54279943Y-83719200D02*
X54375181Y-83766819D01*
X54375181Y-83766819D02*
X54565657Y-83766819D01*
X54565657Y-83766819D02*
X54660895Y-83719200D01*
X54660895Y-83719200D02*
X54708514Y-83671580D01*
X54708514Y-83671580D02*
X54756133Y-83576342D01*
X54756133Y-83576342D02*
X54756133Y-82766819D01*
X55756133Y-83766819D02*
X55184705Y-83766819D01*
X55470419Y-83766819D02*
X55470419Y-82766819D01*
X55470419Y-82766819D02*
X55375181Y-82909676D01*
X55375181Y-82909676D02*
X55279943Y-83004914D01*
X55279943Y-83004914D02*
X55184705Y-83052533D01*
X56708514Y-83766819D02*
X56137086Y-83766819D01*
X56422800Y-83766819D02*
X56422800Y-82766819D01*
X56422800Y-82766819D02*
X56327562Y-82909676D01*
X56327562Y-82909676D02*
X56232324Y-83004914D01*
X56232324Y-83004914D02*
X56137086Y-83052533D01*
D12*
X72835999Y-97716371D02*
X72835999Y-98144942D01*
X72835999Y-98144942D02*
X72807428Y-98230657D01*
X72807428Y-98230657D02*
X72750285Y-98287800D01*
X72750285Y-98287800D02*
X72664571Y-98316371D01*
X72664571Y-98316371D02*
X72607428Y-98316371D01*
X73378857Y-97916371D02*
X73378857Y-98316371D01*
X73235999Y-97687800D02*
X73093142Y-98116371D01*
X73093142Y-98116371D02*
X73464571Y-98116371D01*
D10*
X81127695Y-65698019D02*
X81127695Y-66507542D01*
X81127695Y-66507542D02*
X81175314Y-66602780D01*
X81175314Y-66602780D02*
X81222933Y-66650400D01*
X81222933Y-66650400D02*
X81318171Y-66698019D01*
X81318171Y-66698019D02*
X81508647Y-66698019D01*
X81508647Y-66698019D02*
X81603885Y-66650400D01*
X81603885Y-66650400D02*
X81651504Y-66602780D01*
X81651504Y-66602780D02*
X81699123Y-66507542D01*
X81699123Y-66507542D02*
X81699123Y-65698019D01*
X82080076Y-65698019D02*
X82746742Y-65698019D01*
X82746742Y-65698019D02*
X82318171Y-66698019D01*
X82668905Y-92170819D02*
X82668905Y-92980342D01*
X82668905Y-92980342D02*
X82716524Y-93075580D01*
X82716524Y-93075580D02*
X82764143Y-93123200D01*
X82764143Y-93123200D02*
X82859381Y-93170819D01*
X82859381Y-93170819D02*
X83049857Y-93170819D01*
X83049857Y-93170819D02*
X83145095Y-93123200D01*
X83145095Y-93123200D02*
X83192714Y-93075580D01*
X83192714Y-93075580D02*
X83240333Y-92980342D01*
X83240333Y-92980342D02*
X83240333Y-92170819D01*
X84240333Y-93170819D02*
X83668905Y-93170819D01*
X83954619Y-93170819D02*
X83954619Y-92170819D01*
X83954619Y-92170819D02*
X83859381Y-92313676D01*
X83859381Y-92313676D02*
X83764143Y-92408914D01*
X83764143Y-92408914D02*
X83668905Y-92456533D01*
X85097476Y-92170819D02*
X84907000Y-92170819D01*
X84907000Y-92170819D02*
X84811762Y-92218438D01*
X84811762Y-92218438D02*
X84764143Y-92266057D01*
X84764143Y-92266057D02*
X84668905Y-92408914D01*
X84668905Y-92408914D02*
X84621286Y-92599390D01*
X84621286Y-92599390D02*
X84621286Y-92980342D01*
X84621286Y-92980342D02*
X84668905Y-93075580D01*
X84668905Y-93075580D02*
X84716524Y-93123200D01*
X84716524Y-93123200D02*
X84811762Y-93170819D01*
X84811762Y-93170819D02*
X85002238Y-93170819D01*
X85002238Y-93170819D02*
X85097476Y-93123200D01*
X85097476Y-93123200D02*
X85145095Y-93075580D01*
X85145095Y-93075580D02*
X85192714Y-92980342D01*
X85192714Y-92980342D02*
X85192714Y-92742247D01*
X85192714Y-92742247D02*
X85145095Y-92647009D01*
X85145095Y-92647009D02*
X85097476Y-92599390D01*
X85097476Y-92599390D02*
X85002238Y-92551771D01*
X85002238Y-92551771D02*
X84811762Y-92551771D01*
X84811762Y-92551771D02*
X84716524Y-92599390D01*
X84716524Y-92599390D02*
X84668905Y-92647009D01*
X84668905Y-92647009D02*
X84621286Y-92742247D01*
X108795104Y-105127419D02*
X108461771Y-104651228D01*
X108223676Y-105127419D02*
X108223676Y-104127419D01*
X108223676Y-104127419D02*
X108604628Y-104127419D01*
X108604628Y-104127419D02*
X108699866Y-104175038D01*
X108699866Y-104175038D02*
X108747485Y-104222657D01*
X108747485Y-104222657D02*
X108795104Y-104317895D01*
X108795104Y-104317895D02*
X108795104Y-104460752D01*
X108795104Y-104460752D02*
X108747485Y-104555990D01*
X108747485Y-104555990D02*
X108699866Y-104603609D01*
X108699866Y-104603609D02*
X108604628Y-104651228D01*
X108604628Y-104651228D02*
X108223676Y-104651228D01*
X109604628Y-105079800D02*
X109509390Y-105127419D01*
X109509390Y-105127419D02*
X109318914Y-105127419D01*
X109318914Y-105127419D02*
X109223676Y-105079800D01*
X109223676Y-105079800D02*
X109176057Y-104984561D01*
X109176057Y-104984561D02*
X109176057Y-104603609D01*
X109176057Y-104603609D02*
X109223676Y-104508371D01*
X109223676Y-104508371D02*
X109318914Y-104460752D01*
X109318914Y-104460752D02*
X109509390Y-104460752D01*
X109509390Y-104460752D02*
X109604628Y-104508371D01*
X109604628Y-104508371D02*
X109652247Y-104603609D01*
X109652247Y-104603609D02*
X109652247Y-104698847D01*
X109652247Y-104698847D02*
X109176057Y-104794085D01*
X110033200Y-105079800D02*
X110128438Y-105127419D01*
X110128438Y-105127419D02*
X110318914Y-105127419D01*
X110318914Y-105127419D02*
X110414152Y-105079800D01*
X110414152Y-105079800D02*
X110461771Y-104984561D01*
X110461771Y-104984561D02*
X110461771Y-104936942D01*
X110461771Y-104936942D02*
X110414152Y-104841704D01*
X110414152Y-104841704D02*
X110318914Y-104794085D01*
X110318914Y-104794085D02*
X110176057Y-104794085D01*
X110176057Y-104794085D02*
X110080819Y-104746466D01*
X110080819Y-104746466D02*
X110033200Y-104651228D01*
X110033200Y-104651228D02*
X110033200Y-104603609D01*
X110033200Y-104603609D02*
X110080819Y-104508371D01*
X110080819Y-104508371D02*
X110176057Y-104460752D01*
X110176057Y-104460752D02*
X110318914Y-104460752D01*
X110318914Y-104460752D02*
X110414152Y-104508371D01*
X111271295Y-105079800D02*
X111176057Y-105127419D01*
X111176057Y-105127419D02*
X110985581Y-105127419D01*
X110985581Y-105127419D02*
X110890343Y-105079800D01*
X110890343Y-105079800D02*
X110842724Y-104984561D01*
X110842724Y-104984561D02*
X110842724Y-104603609D01*
X110842724Y-104603609D02*
X110890343Y-104508371D01*
X110890343Y-104508371D02*
X110985581Y-104460752D01*
X110985581Y-104460752D02*
X111176057Y-104460752D01*
X111176057Y-104460752D02*
X111271295Y-104508371D01*
X111271295Y-104508371D02*
X111318914Y-104603609D01*
X111318914Y-104603609D02*
X111318914Y-104698847D01*
X111318914Y-104698847D02*
X110842724Y-104794085D01*
X111604629Y-104460752D02*
X111985581Y-104460752D01*
X111747486Y-104127419D02*
X111747486Y-104984561D01*
X111747486Y-104984561D02*
X111795105Y-105079800D01*
X111795105Y-105079800D02*
X111890343Y-105127419D01*
X111890343Y-105127419D02*
X111985581Y-105127419D01*
X101346095Y-70981219D02*
X101346095Y-71790742D01*
X101346095Y-71790742D02*
X101393714Y-71885980D01*
X101393714Y-71885980D02*
X101441333Y-71933600D01*
X101441333Y-71933600D02*
X101536571Y-71981219D01*
X101536571Y-71981219D02*
X101727047Y-71981219D01*
X101727047Y-71981219D02*
X101822285Y-71933600D01*
X101822285Y-71933600D02*
X101869904Y-71885980D01*
X101869904Y-71885980D02*
X101917523Y-71790742D01*
X101917523Y-71790742D02*
X101917523Y-70981219D01*
X102441333Y-71981219D02*
X102631809Y-71981219D01*
X102631809Y-71981219D02*
X102727047Y-71933600D01*
X102727047Y-71933600D02*
X102774666Y-71885980D01*
X102774666Y-71885980D02*
X102869904Y-71743123D01*
X102869904Y-71743123D02*
X102917523Y-71552647D01*
X102917523Y-71552647D02*
X102917523Y-71171695D01*
X102917523Y-71171695D02*
X102869904Y-71076457D01*
X102869904Y-71076457D02*
X102822285Y-71028838D01*
X102822285Y-71028838D02*
X102727047Y-70981219D01*
X102727047Y-70981219D02*
X102536571Y-70981219D01*
X102536571Y-70981219D02*
X102441333Y-71028838D01*
X102441333Y-71028838D02*
X102393714Y-71076457D01*
X102393714Y-71076457D02*
X102346095Y-71171695D01*
X102346095Y-71171695D02*
X102346095Y-71409790D01*
X102346095Y-71409790D02*
X102393714Y-71505028D01*
X102393714Y-71505028D02*
X102441333Y-71552647D01*
X102441333Y-71552647D02*
X102536571Y-71600266D01*
X102536571Y-71600266D02*
X102727047Y-71600266D01*
X102727047Y-71600266D02*
X102822285Y-71552647D01*
X102822285Y-71552647D02*
X102869904Y-71505028D01*
X102869904Y-71505028D02*
X102917523Y-71409790D01*
X64233466Y-43777819D02*
X64233466Y-44492104D01*
X64233466Y-44492104D02*
X64185847Y-44634961D01*
X64185847Y-44634961D02*
X64090609Y-44730200D01*
X64090609Y-44730200D02*
X63947752Y-44777819D01*
X63947752Y-44777819D02*
X63852514Y-44777819D01*
X64614419Y-43777819D02*
X65281085Y-43777819D01*
X65281085Y-43777819D02*
X64852514Y-44777819D01*
D12*
X90467999Y-97716371D02*
X90467999Y-98144942D01*
X90467999Y-98144942D02*
X90439428Y-98230657D01*
X90439428Y-98230657D02*
X90382285Y-98287800D01*
X90382285Y-98287800D02*
X90296571Y-98316371D01*
X90296571Y-98316371D02*
X90239428Y-98316371D01*
X91039428Y-97716371D02*
X90753714Y-97716371D01*
X90753714Y-97716371D02*
X90725142Y-98002085D01*
X90725142Y-98002085D02*
X90753714Y-97973514D01*
X90753714Y-97973514D02*
X90810857Y-97944942D01*
X90810857Y-97944942D02*
X90953714Y-97944942D01*
X90953714Y-97944942D02*
X91010857Y-97973514D01*
X91010857Y-97973514D02*
X91039428Y-98002085D01*
X91039428Y-98002085D02*
X91067999Y-98059228D01*
X91067999Y-98059228D02*
X91067999Y-98202085D01*
X91067999Y-98202085D02*
X91039428Y-98259228D01*
X91039428Y-98259228D02*
X91010857Y-98287800D01*
X91010857Y-98287800D02*
X90953714Y-98316371D01*
X90953714Y-98316371D02*
X90810857Y-98316371D01*
X90810857Y-98316371D02*
X90753714Y-98287800D01*
X90753714Y-98287800D02*
X90725142Y-98259228D01*
D10*
G36*
X57893326Y-59663244D02*
G01*
X57921847Y-59720286D01*
X57921847Y-59875352D01*
X57893326Y-59932393D01*
X57836285Y-59960914D01*
X57820237Y-59960914D01*
X57755000Y-59634724D01*
X57836285Y-59634724D01*
X57893326Y-59663244D01*
G37*
G36*
X57893326Y-57996577D02*
G01*
X57921847Y-58053619D01*
X57921847Y-58208685D01*
X57893326Y-58265726D01*
X57836285Y-58294247D01*
X57820237Y-58294247D01*
X57755000Y-57968057D01*
X57836285Y-57968057D01*
X57893326Y-57996577D01*
G37*
G36*
X58255180Y-57303923D02*
G01*
X58220922Y-57372439D01*
X58190515Y-57402846D01*
X58121999Y-57437104D01*
X58014552Y-57437104D01*
X57946036Y-57402846D01*
X57915629Y-57372439D01*
X57881371Y-57303923D01*
X57881371Y-57015676D01*
X58255180Y-57015676D01*
X58255180Y-57303923D01*
G37*
G36*
X58548037Y-60919299D02*
G01*
X57112323Y-60919299D01*
X57112323Y-60702581D01*
X57255180Y-60702581D01*
X57272727Y-60750790D01*
X57317156Y-60776442D01*
X57367680Y-60767533D01*
X57400657Y-60728233D01*
X57405180Y-60702581D01*
X57405180Y-60625049D01*
X57433701Y-60568006D01*
X57490743Y-60539486D01*
X57921847Y-60539486D01*
X57921847Y-60702581D01*
X57939394Y-60750790D01*
X57983823Y-60776442D01*
X58034347Y-60767533D01*
X58067324Y-60728233D01*
X58071847Y-60702581D01*
X58071847Y-60539486D01*
X58330180Y-60539486D01*
X58378389Y-60521939D01*
X58404041Y-60477510D01*
X58395132Y-60426986D01*
X58355832Y-60394009D01*
X58330180Y-60389486D01*
X58071847Y-60389486D01*
X58071847Y-60321629D01*
X58054300Y-60273420D01*
X58009871Y-60247768D01*
X57959347Y-60256677D01*
X57926370Y-60295977D01*
X57921847Y-60321629D01*
X57921847Y-60389486D01*
X57473038Y-60389486D01*
X57468824Y-60391019D01*
X57464463Y-60389978D01*
X57439497Y-60397404D01*
X57344259Y-60445023D01*
X57336540Y-60453175D01*
X57326236Y-60457642D01*
X57310718Y-60478563D01*
X57263098Y-60573801D01*
X57262585Y-60578255D01*
X57259703Y-60581691D01*
X57255180Y-60607343D01*
X57255180Y-60702581D01*
X57112323Y-60702581D01*
X57112323Y-59893057D01*
X57255180Y-59893057D01*
X57256713Y-59897270D01*
X57255672Y-59901632D01*
X57263098Y-59926599D01*
X57310718Y-60021837D01*
X57347973Y-60057109D01*
X57399183Y-60060183D01*
X57440389Y-60029619D01*
X57452308Y-59979720D01*
X57444882Y-59954754D01*
X57405180Y-59875350D01*
X57405180Y-59720287D01*
X57433701Y-59663244D01*
X57490743Y-59634724D01*
X57602028Y-59634724D01*
X57685208Y-60050622D01*
X57691647Y-60061209D01*
X57693800Y-60073414D01*
X57704566Y-60082448D01*
X57711869Y-60094454D01*
X57723606Y-60098424D01*
X57733100Y-60106391D01*
X57758752Y-60110914D01*
X57853990Y-60110914D01*
X57858203Y-60109380D01*
X57862564Y-60110422D01*
X57887531Y-60102996D01*
X57982769Y-60055377D01*
X57990488Y-60047223D01*
X58000793Y-60042757D01*
X58016310Y-60021836D01*
X58063929Y-59926598D01*
X58064441Y-59922144D01*
X58067324Y-59918709D01*
X58071847Y-59893057D01*
X58071847Y-59702581D01*
X58070313Y-59698367D01*
X58071355Y-59694006D01*
X58063929Y-59669040D01*
X58016310Y-59573802D01*
X58008156Y-59566082D01*
X58003690Y-59555778D01*
X57982769Y-59540261D01*
X57887531Y-59492642D01*
X57883077Y-59492129D01*
X57879642Y-59489247D01*
X57853990Y-59484724D01*
X57473038Y-59484724D01*
X57468824Y-59486257D01*
X57464463Y-59485216D01*
X57439497Y-59492642D01*
X57344259Y-59540261D01*
X57336540Y-59548413D01*
X57326236Y-59552880D01*
X57310718Y-59573801D01*
X57263098Y-59669039D01*
X57262585Y-59673493D01*
X57259703Y-59676929D01*
X57255180Y-59702581D01*
X57255180Y-59893057D01*
X57112323Y-59893057D01*
X57112323Y-59035914D01*
X57255180Y-59035914D01*
X57256713Y-59040127D01*
X57255672Y-59044489D01*
X57263098Y-59069456D01*
X57310718Y-59164694D01*
X57318872Y-59172414D01*
X57323338Y-59182717D01*
X57344259Y-59198234D01*
X57439497Y-59245853D01*
X57443950Y-59246365D01*
X57447386Y-59249248D01*
X57473038Y-59253771D01*
X57520657Y-59253771D01*
X57524870Y-59252237D01*
X57529231Y-59253279D01*
X57554198Y-59245853D01*
X57649436Y-59198234D01*
X57657155Y-59190080D01*
X57667460Y-59185614D01*
X57682977Y-59164693D01*
X57730596Y-59069455D01*
X57731108Y-59065001D01*
X57733991Y-59061566D01*
X57738514Y-59035914D01*
X57738514Y-58910762D01*
X57767034Y-58853720D01*
X57824076Y-58825200D01*
X57836285Y-58825200D01*
X57893326Y-58853720D01*
X57921847Y-58910762D01*
X57921847Y-59018209D01*
X57882146Y-59097611D01*
X57876281Y-59148578D01*
X57904547Y-59191391D01*
X57953722Y-59206017D01*
X58000793Y-59185614D01*
X58016310Y-59164693D01*
X58063929Y-59069455D01*
X58064441Y-59065001D01*
X58067324Y-59061566D01*
X58071847Y-59035914D01*
X58071847Y-58893057D01*
X58070313Y-58888843D01*
X58071355Y-58884482D01*
X58063929Y-58859516D01*
X58016310Y-58764278D01*
X58008156Y-58756558D01*
X58003690Y-58746254D01*
X57982769Y-58730737D01*
X57887531Y-58683118D01*
X57883077Y-58682605D01*
X57879642Y-58679723D01*
X57853990Y-58675200D01*
X57806371Y-58675200D01*
X57802157Y-58676733D01*
X57797796Y-58675692D01*
X57772830Y-58683118D01*
X57677592Y-58730737D01*
X57669872Y-58738890D01*
X57659568Y-58743357D01*
X57644051Y-58764278D01*
X57596432Y-58859516D01*
X57595919Y-58863969D01*
X57593037Y-58867405D01*
X57588514Y-58893057D01*
X57588514Y-59018209D01*
X57559993Y-59075250D01*
X57502952Y-59103771D01*
X57490743Y-59103771D01*
X57433701Y-59075250D01*
X57405180Y-59018207D01*
X57405180Y-58863144D01*
X57444882Y-58783741D01*
X57450747Y-58732775D01*
X57422481Y-58689961D01*
X57373307Y-58675334D01*
X57326236Y-58695737D01*
X57310718Y-58716658D01*
X57263098Y-58811896D01*
X57262585Y-58816350D01*
X57259703Y-58819786D01*
X57255180Y-58845438D01*
X57255180Y-59035914D01*
X57112323Y-59035914D01*
X57112323Y-58226390D01*
X57255180Y-58226390D01*
X57256713Y-58230603D01*
X57255672Y-58234965D01*
X57263098Y-58259932D01*
X57310718Y-58355170D01*
X57347973Y-58390442D01*
X57399183Y-58393516D01*
X57440389Y-58362952D01*
X57452308Y-58313053D01*
X57444882Y-58288087D01*
X57405180Y-58208683D01*
X57405180Y-58053620D01*
X57433701Y-57996577D01*
X57490743Y-57968057D01*
X57602028Y-57968057D01*
X57685208Y-58383955D01*
X57691647Y-58394542D01*
X57693800Y-58406747D01*
X57704566Y-58415781D01*
X57711869Y-58427787D01*
X57723606Y-58431757D01*
X57733100Y-58439724D01*
X57758752Y-58444247D01*
X57853990Y-58444247D01*
X57858203Y-58442713D01*
X57862564Y-58443755D01*
X57887531Y-58436329D01*
X57982769Y-58388710D01*
X57990488Y-58380556D01*
X58000793Y-58376090D01*
X58016310Y-58355169D01*
X58063929Y-58259931D01*
X58064441Y-58255477D01*
X58067324Y-58252042D01*
X58071847Y-58226390D01*
X58071847Y-58035914D01*
X58070313Y-58031700D01*
X58071355Y-58027339D01*
X58063929Y-58002373D01*
X58016310Y-57907135D01*
X58008156Y-57899415D01*
X58003690Y-57889111D01*
X57982769Y-57873594D01*
X57887531Y-57825975D01*
X57883077Y-57825462D01*
X57879642Y-57822580D01*
X57853990Y-57818057D01*
X57473038Y-57818057D01*
X57468824Y-57819590D01*
X57464463Y-57818549D01*
X57439497Y-57825975D01*
X57344259Y-57873594D01*
X57336540Y-57881746D01*
X57326236Y-57886213D01*
X57310718Y-57907134D01*
X57263098Y-58002372D01*
X57262585Y-58006826D01*
X57259703Y-58010262D01*
X57255180Y-58035914D01*
X57255180Y-58226390D01*
X57112323Y-58226390D01*
X57112323Y-56927652D01*
X57256319Y-56927652D01*
X57265228Y-56978176D01*
X57304528Y-57011153D01*
X57330180Y-57015676D01*
X57731371Y-57015676D01*
X57731371Y-57139721D01*
X57287170Y-57450662D01*
X57257739Y-57492683D01*
X57262202Y-57543791D01*
X57298474Y-57580073D01*
X57349581Y-57584551D01*
X57373190Y-57573546D01*
X57731716Y-57322577D01*
X57732904Y-57325841D01*
X57731863Y-57330202D01*
X57739289Y-57355169D01*
X57786908Y-57450407D01*
X57788097Y-57451532D01*
X57800957Y-57469899D01*
X57848576Y-57517518D01*
X57850057Y-57518209D01*
X57868068Y-57531567D01*
X57963306Y-57579186D01*
X57967759Y-57579698D01*
X57971195Y-57582581D01*
X57996847Y-57587104D01*
X58139704Y-57587104D01*
X58143917Y-57585570D01*
X58148278Y-57586612D01*
X58173245Y-57579186D01*
X58268483Y-57531567D01*
X58269608Y-57530377D01*
X58287975Y-57517518D01*
X58335594Y-57469899D01*
X58336285Y-57468417D01*
X58349643Y-57450407D01*
X58397262Y-57355169D01*
X58397774Y-57350715D01*
X58400657Y-57347280D01*
X58405180Y-57321628D01*
X58405180Y-56940676D01*
X58398516Y-56922367D01*
X58395132Y-56903176D01*
X58389947Y-56898825D01*
X58387633Y-56892467D01*
X58370759Y-56882724D01*
X58355832Y-56870199D01*
X58346089Y-56868481D01*
X58343204Y-56866815D01*
X58339921Y-56867393D01*
X58330180Y-56865676D01*
X57330180Y-56865676D01*
X57281971Y-56883223D01*
X57256319Y-56927652D01*
X57112323Y-56927652D01*
X57112323Y-56722819D01*
X58548037Y-56722819D01*
X58548037Y-60919299D01*
G37*
X74485714Y-60367104D02*
X74961904Y-60367104D01*
X74390476Y-60652819D02*
X74723809Y-59652819D01*
X74723809Y-59652819D02*
X75057142Y-60652819D01*
X75390476Y-60652819D02*
X75390476Y-59652819D01*
X75390476Y-59652819D02*
X75628571Y-59652819D01*
X75628571Y-59652819D02*
X75771428Y-59700438D01*
X75771428Y-59700438D02*
X75866666Y-59795676D01*
X75866666Y-59795676D02*
X75914285Y-59890914D01*
X75914285Y-59890914D02*
X75961904Y-60081390D01*
X75961904Y-60081390D02*
X75961904Y-60224247D01*
X75961904Y-60224247D02*
X75914285Y-60414723D01*
X75914285Y-60414723D02*
X75866666Y-60509961D01*
X75866666Y-60509961D02*
X75771428Y-60605200D01*
X75771428Y-60605200D02*
X75628571Y-60652819D01*
X75628571Y-60652819D02*
X75390476Y-60652819D01*
X76961904Y-60557580D02*
X76914285Y-60605200D01*
X76914285Y-60605200D02*
X76771428Y-60652819D01*
X76771428Y-60652819D02*
X76676190Y-60652819D01*
X76676190Y-60652819D02*
X76533333Y-60605200D01*
X76533333Y-60605200D02*
X76438095Y-60509961D01*
X76438095Y-60509961D02*
X76390476Y-60414723D01*
X76390476Y-60414723D02*
X76342857Y-60224247D01*
X76342857Y-60224247D02*
X76342857Y-60081390D01*
X76342857Y-60081390D02*
X76390476Y-59890914D01*
X76390476Y-59890914D02*
X76438095Y-59795676D01*
X76438095Y-59795676D02*
X76533333Y-59700438D01*
X76533333Y-59700438D02*
X76676190Y-59652819D01*
X76676190Y-59652819D02*
X76771428Y-59652819D01*
X76771428Y-59652819D02*
X76914285Y-59700438D01*
X76914285Y-59700438D02*
X76961904Y-59748057D01*
X77295238Y-59652819D02*
X77914285Y-59652819D01*
X77914285Y-59652819D02*
X77580952Y-60033771D01*
X77580952Y-60033771D02*
X77723809Y-60033771D01*
X77723809Y-60033771D02*
X77819047Y-60081390D01*
X77819047Y-60081390D02*
X77866666Y-60129009D01*
X77866666Y-60129009D02*
X77914285Y-60224247D01*
X77914285Y-60224247D02*
X77914285Y-60462342D01*
X77914285Y-60462342D02*
X77866666Y-60557580D01*
X77866666Y-60557580D02*
X77819047Y-60605200D01*
X77819047Y-60605200D02*
X77723809Y-60652819D01*
X77723809Y-60652819D02*
X77438095Y-60652819D01*
X77438095Y-60652819D02*
X77342857Y-60605200D01*
X77342857Y-60605200D02*
X77295238Y-60557580D01*
X66962905Y-83739819D02*
X66962905Y-84549342D01*
X66962905Y-84549342D02*
X67010524Y-84644580D01*
X67010524Y-84644580D02*
X67058143Y-84692200D01*
X67058143Y-84692200D02*
X67153381Y-84739819D01*
X67153381Y-84739819D02*
X67343857Y-84739819D01*
X67343857Y-84739819D02*
X67439095Y-84692200D01*
X67439095Y-84692200D02*
X67486714Y-84644580D01*
X67486714Y-84644580D02*
X67534333Y-84549342D01*
X67534333Y-84549342D02*
X67534333Y-83739819D01*
X68534333Y-84739819D02*
X67962905Y-84739819D01*
X68248619Y-84739819D02*
X68248619Y-83739819D01*
X68248619Y-83739819D02*
X68153381Y-83882676D01*
X68153381Y-83882676D02*
X68058143Y-83977914D01*
X68058143Y-83977914D02*
X67962905Y-84025533D01*
X69439095Y-83739819D02*
X68962905Y-83739819D01*
X68962905Y-83739819D02*
X68915286Y-84216009D01*
X68915286Y-84216009D02*
X68962905Y-84168390D01*
X68962905Y-84168390D02*
X69058143Y-84120771D01*
X69058143Y-84120771D02*
X69296238Y-84120771D01*
X69296238Y-84120771D02*
X69391476Y-84168390D01*
X69391476Y-84168390D02*
X69439095Y-84216009D01*
X69439095Y-84216009D02*
X69486714Y-84311247D01*
X69486714Y-84311247D02*
X69486714Y-84549342D01*
X69486714Y-84549342D02*
X69439095Y-84644580D01*
X69439095Y-84644580D02*
X69391476Y-84692200D01*
X69391476Y-84692200D02*
X69296238Y-84739819D01*
X69296238Y-84739819D02*
X69058143Y-84739819D01*
X69058143Y-84739819D02*
X68962905Y-84692200D01*
X68962905Y-84692200D02*
X68915286Y-84644580D01*
X94107095Y-65799619D02*
X94107095Y-66609142D01*
X94107095Y-66609142D02*
X94154714Y-66704380D01*
X94154714Y-66704380D02*
X94202333Y-66752000D01*
X94202333Y-66752000D02*
X94297571Y-66799619D01*
X94297571Y-66799619D02*
X94488047Y-66799619D01*
X94488047Y-66799619D02*
X94583285Y-66752000D01*
X94583285Y-66752000D02*
X94630904Y-66704380D01*
X94630904Y-66704380D02*
X94678523Y-66609142D01*
X94678523Y-66609142D02*
X94678523Y-65799619D01*
X95297571Y-66228190D02*
X95202333Y-66180571D01*
X95202333Y-66180571D02*
X95154714Y-66132952D01*
X95154714Y-66132952D02*
X95107095Y-66037714D01*
X95107095Y-66037714D02*
X95107095Y-65990095D01*
X95107095Y-65990095D02*
X95154714Y-65894857D01*
X95154714Y-65894857D02*
X95202333Y-65847238D01*
X95202333Y-65847238D02*
X95297571Y-65799619D01*
X95297571Y-65799619D02*
X95488047Y-65799619D01*
X95488047Y-65799619D02*
X95583285Y-65847238D01*
X95583285Y-65847238D02*
X95630904Y-65894857D01*
X95630904Y-65894857D02*
X95678523Y-65990095D01*
X95678523Y-65990095D02*
X95678523Y-66037714D01*
X95678523Y-66037714D02*
X95630904Y-66132952D01*
X95630904Y-66132952D02*
X95583285Y-66180571D01*
X95583285Y-66180571D02*
X95488047Y-66228190D01*
X95488047Y-66228190D02*
X95297571Y-66228190D01*
X95297571Y-66228190D02*
X95202333Y-66275809D01*
X95202333Y-66275809D02*
X95154714Y-66323428D01*
X95154714Y-66323428D02*
X95107095Y-66418666D01*
X95107095Y-66418666D02*
X95107095Y-66609142D01*
X95107095Y-66609142D02*
X95154714Y-66704380D01*
X95154714Y-66704380D02*
X95202333Y-66752000D01*
X95202333Y-66752000D02*
X95297571Y-66799619D01*
X95297571Y-66799619D02*
X95488047Y-66799619D01*
X95488047Y-66799619D02*
X95583285Y-66752000D01*
X95583285Y-66752000D02*
X95630904Y-66704380D01*
X95630904Y-66704380D02*
X95678523Y-66609142D01*
X95678523Y-66609142D02*
X95678523Y-66418666D01*
X95678523Y-66418666D02*
X95630904Y-66323428D01*
X95630904Y-66323428D02*
X95583285Y-66275809D01*
X95583285Y-66275809D02*
X95488047Y-66228190D01*
X92325866Y-50026219D02*
X92325866Y-50740504D01*
X92325866Y-50740504D02*
X92278247Y-50883361D01*
X92278247Y-50883361D02*
X92183009Y-50978600D01*
X92183009Y-50978600D02*
X92040152Y-51026219D01*
X92040152Y-51026219D02*
X91944914Y-51026219D01*
X93325866Y-51026219D02*
X92754438Y-51026219D01*
X93040152Y-51026219D02*
X93040152Y-50026219D01*
X93040152Y-50026219D02*
X92944914Y-50169076D01*
X92944914Y-50169076D02*
X92849676Y-50264314D01*
X92849676Y-50264314D02*
X92754438Y-50311933D01*
X78279666Y-50026219D02*
X78279666Y-50740504D01*
X78279666Y-50740504D02*
X78232047Y-50883361D01*
X78232047Y-50883361D02*
X78136809Y-50978600D01*
X78136809Y-50978600D02*
X77993952Y-51026219D01*
X77993952Y-51026219D02*
X77898714Y-51026219D01*
X78708238Y-50121457D02*
X78755857Y-50073838D01*
X78755857Y-50073838D02*
X78851095Y-50026219D01*
X78851095Y-50026219D02*
X79089190Y-50026219D01*
X79089190Y-50026219D02*
X79184428Y-50073838D01*
X79184428Y-50073838D02*
X79232047Y-50121457D01*
X79232047Y-50121457D02*
X79279666Y-50216695D01*
X79279666Y-50216695D02*
X79279666Y-50311933D01*
X79279666Y-50311933D02*
X79232047Y-50454790D01*
X79232047Y-50454790D02*
X78660619Y-51026219D01*
X78660619Y-51026219D02*
X79279666Y-51026219D01*
D11*
X119763114Y-58504333D02*
X119191686Y-58504333D01*
X119191686Y-58504333D02*
X119077400Y-58466238D01*
X119077400Y-58466238D02*
X119001210Y-58390047D01*
X119001210Y-58390047D02*
X118963114Y-58275762D01*
X118963114Y-58275762D02*
X118963114Y-58199571D01*
X119420257Y-58999571D02*
X119458352Y-58923381D01*
X119458352Y-58923381D02*
X119496448Y-58885286D01*
X119496448Y-58885286D02*
X119572638Y-58847190D01*
X119572638Y-58847190D02*
X119610733Y-58847190D01*
X119610733Y-58847190D02*
X119686924Y-58885286D01*
X119686924Y-58885286D02*
X119725019Y-58923381D01*
X119725019Y-58923381D02*
X119763114Y-58999571D01*
X119763114Y-58999571D02*
X119763114Y-59151952D01*
X119763114Y-59151952D02*
X119725019Y-59228143D01*
X119725019Y-59228143D02*
X119686924Y-59266238D01*
X119686924Y-59266238D02*
X119610733Y-59304333D01*
X119610733Y-59304333D02*
X119572638Y-59304333D01*
X119572638Y-59304333D02*
X119496448Y-59266238D01*
X119496448Y-59266238D02*
X119458352Y-59228143D01*
X119458352Y-59228143D02*
X119420257Y-59151952D01*
X119420257Y-59151952D02*
X119420257Y-58999571D01*
X119420257Y-58999571D02*
X119382162Y-58923381D01*
X119382162Y-58923381D02*
X119344067Y-58885286D01*
X119344067Y-58885286D02*
X119267876Y-58847190D01*
X119267876Y-58847190D02*
X119115495Y-58847190D01*
X119115495Y-58847190D02*
X119039305Y-58885286D01*
X119039305Y-58885286D02*
X119001210Y-58923381D01*
X119001210Y-58923381D02*
X118963114Y-58999571D01*
X118963114Y-58999571D02*
X118963114Y-59151952D01*
X118963114Y-59151952D02*
X119001210Y-59228143D01*
X119001210Y-59228143D02*
X119039305Y-59266238D01*
X119039305Y-59266238D02*
X119115495Y-59304333D01*
X119115495Y-59304333D02*
X119267876Y-59304333D01*
X119267876Y-59304333D02*
X119344067Y-59266238D01*
X119344067Y-59266238D02*
X119382162Y-59228143D01*
X119382162Y-59228143D02*
X119420257Y-59151952D01*
D10*
X97483705Y-92892219D02*
X97483705Y-91892219D01*
X97483705Y-91892219D02*
X97864657Y-91892219D01*
X97864657Y-91892219D02*
X97959895Y-91939838D01*
X97959895Y-91939838D02*
X98007514Y-91987457D01*
X98007514Y-91987457D02*
X98055133Y-92082695D01*
X98055133Y-92082695D02*
X98055133Y-92225552D01*
X98055133Y-92225552D02*
X98007514Y-92320790D01*
X98007514Y-92320790D02*
X97959895Y-92368409D01*
X97959895Y-92368409D02*
X97864657Y-92416028D01*
X97864657Y-92416028D02*
X97483705Y-92416028D01*
X98388467Y-91892219D02*
X99007514Y-91892219D01*
X99007514Y-91892219D02*
X98674181Y-92273171D01*
X98674181Y-92273171D02*
X98817038Y-92273171D01*
X98817038Y-92273171D02*
X98912276Y-92320790D01*
X98912276Y-92320790D02*
X98959895Y-92368409D01*
X98959895Y-92368409D02*
X99007514Y-92463647D01*
X99007514Y-92463647D02*
X99007514Y-92701742D01*
X99007514Y-92701742D02*
X98959895Y-92796980D01*
X98959895Y-92796980D02*
X98912276Y-92844600D01*
X98912276Y-92844600D02*
X98817038Y-92892219D01*
X98817038Y-92892219D02*
X98531324Y-92892219D01*
X98531324Y-92892219D02*
X98436086Y-92844600D01*
X98436086Y-92844600D02*
X98388467Y-92796980D01*
D11*
X119632304Y-97747333D02*
X119060876Y-97747333D01*
X119060876Y-97747333D02*
X118946590Y-97709238D01*
X118946590Y-97709238D02*
X118870400Y-97633047D01*
X118870400Y-97633047D02*
X118832304Y-97518762D01*
X118832304Y-97518762D02*
X118832304Y-97442571D01*
X119632304Y-98471143D02*
X119632304Y-98318762D01*
X119632304Y-98318762D02*
X119594209Y-98242571D01*
X119594209Y-98242571D02*
X119556114Y-98204476D01*
X119556114Y-98204476D02*
X119441828Y-98128286D01*
X119441828Y-98128286D02*
X119289447Y-98090190D01*
X119289447Y-98090190D02*
X118984685Y-98090190D01*
X118984685Y-98090190D02*
X118908495Y-98128286D01*
X118908495Y-98128286D02*
X118870400Y-98166381D01*
X118870400Y-98166381D02*
X118832304Y-98242571D01*
X118832304Y-98242571D02*
X118832304Y-98394952D01*
X118832304Y-98394952D02*
X118870400Y-98471143D01*
X118870400Y-98471143D02*
X118908495Y-98509238D01*
X118908495Y-98509238D02*
X118984685Y-98547333D01*
X118984685Y-98547333D02*
X119175161Y-98547333D01*
X119175161Y-98547333D02*
X119251352Y-98509238D01*
X119251352Y-98509238D02*
X119289447Y-98471143D01*
X119289447Y-98471143D02*
X119327542Y-98394952D01*
X119327542Y-98394952D02*
X119327542Y-98242571D01*
X119327542Y-98242571D02*
X119289447Y-98166381D01*
X119289447Y-98166381D02*
X119251352Y-98128286D01*
X119251352Y-98128286D02*
X119175161Y-98090190D01*
D10*
X74460314Y-62373704D02*
X74936504Y-62373704D01*
X74365076Y-62659419D02*
X74698409Y-61659419D01*
X74698409Y-61659419D02*
X75031742Y-62659419D01*
X75365076Y-62659419D02*
X75365076Y-61659419D01*
X75365076Y-61659419D02*
X75603171Y-61659419D01*
X75603171Y-61659419D02*
X75746028Y-61707038D01*
X75746028Y-61707038D02*
X75841266Y-61802276D01*
X75841266Y-61802276D02*
X75888885Y-61897514D01*
X75888885Y-61897514D02*
X75936504Y-62087990D01*
X75936504Y-62087990D02*
X75936504Y-62230847D01*
X75936504Y-62230847D02*
X75888885Y-62421323D01*
X75888885Y-62421323D02*
X75841266Y-62516561D01*
X75841266Y-62516561D02*
X75746028Y-62611800D01*
X75746028Y-62611800D02*
X75603171Y-62659419D01*
X75603171Y-62659419D02*
X75365076Y-62659419D01*
X76936504Y-62564180D02*
X76888885Y-62611800D01*
X76888885Y-62611800D02*
X76746028Y-62659419D01*
X76746028Y-62659419D02*
X76650790Y-62659419D01*
X76650790Y-62659419D02*
X76507933Y-62611800D01*
X76507933Y-62611800D02*
X76412695Y-62516561D01*
X76412695Y-62516561D02*
X76365076Y-62421323D01*
X76365076Y-62421323D02*
X76317457Y-62230847D01*
X76317457Y-62230847D02*
X76317457Y-62087990D01*
X76317457Y-62087990D02*
X76365076Y-61897514D01*
X76365076Y-61897514D02*
X76412695Y-61802276D01*
X76412695Y-61802276D02*
X76507933Y-61707038D01*
X76507933Y-61707038D02*
X76650790Y-61659419D01*
X76650790Y-61659419D02*
X76746028Y-61659419D01*
X76746028Y-61659419D02*
X76888885Y-61707038D01*
X76888885Y-61707038D02*
X76936504Y-61754657D01*
X77317457Y-61754657D02*
X77365076Y-61707038D01*
X77365076Y-61707038D02*
X77460314Y-61659419D01*
X77460314Y-61659419D02*
X77698409Y-61659419D01*
X77698409Y-61659419D02*
X77793647Y-61707038D01*
X77793647Y-61707038D02*
X77841266Y-61754657D01*
X77841266Y-61754657D02*
X77888885Y-61849895D01*
X77888885Y-61849895D02*
X77888885Y-61945133D01*
X77888885Y-61945133D02*
X77841266Y-62087990D01*
X77841266Y-62087990D02*
X77269838Y-62659419D01*
X77269838Y-62659419D02*
X77888885Y-62659419D01*
G36*
X65869731Y-56425676D02*
G01*
X63914343Y-56425676D01*
X63914343Y-55677473D01*
X64057200Y-55677473D01*
X64063726Y-55701832D01*
X64069949Y-55726262D01*
X64070349Y-55726549D01*
X64070477Y-55727027D01*
X64091111Y-55741475D01*
X64111605Y-55756208D01*
X64112098Y-55756170D01*
X64112503Y-55756454D01*
X64137606Y-55754257D01*
X64162765Y-55752370D01*
X64163118Y-55752024D01*
X64163610Y-55751982D01*
X64184947Y-55737042D01*
X64223960Y-55698029D01*
X64292476Y-55663771D01*
X64495161Y-55663771D01*
X64563677Y-55698029D01*
X64594084Y-55728436D01*
X64628342Y-55796952D01*
X64628342Y-55999637D01*
X64594083Y-56068153D01*
X64563676Y-56098561D01*
X64495161Y-56132819D01*
X64292476Y-56132819D01*
X64223960Y-56098561D01*
X64184948Y-56059548D01*
X64138451Y-56037866D01*
X64088896Y-56051143D01*
X64059470Y-56093168D01*
X64063940Y-56144275D01*
X64078880Y-56165612D01*
X64126499Y-56213232D01*
X64127980Y-56213922D01*
X64145992Y-56227282D01*
X64241230Y-56274901D01*
X64245683Y-56275413D01*
X64249119Y-56278296D01*
X64274771Y-56282819D01*
X64512866Y-56282819D01*
X64517079Y-56281285D01*
X64521440Y-56282327D01*
X64546407Y-56274901D01*
X64641645Y-56227282D01*
X64642769Y-56226094D01*
X64661138Y-56213232D01*
X64708756Y-56165613D01*
X64709446Y-56164131D01*
X64722805Y-56146121D01*
X64770424Y-56050883D01*
X64770936Y-56046429D01*
X64773819Y-56042994D01*
X64778342Y-56017342D01*
X64778342Y-55779247D01*
X64776808Y-55775033D01*
X64777850Y-55770672D01*
X64770424Y-55745706D01*
X64722805Y-55650468D01*
X64721615Y-55649342D01*
X64708756Y-55630976D01*
X64661137Y-55583357D01*
X64659655Y-55582666D01*
X64641645Y-55569308D01*
X64546407Y-55521689D01*
X64541953Y-55521176D01*
X64538518Y-55518294D01*
X64512866Y-55513771D01*
X64274771Y-55513771D01*
X64270557Y-55515304D01*
X64266196Y-55514263D01*
X64241230Y-55521689D01*
X64222588Y-55531009D01*
X64247407Y-55282819D01*
X64655723Y-55282819D01*
X64703932Y-55265272D01*
X64729584Y-55220843D01*
X64726926Y-55205770D01*
X64914085Y-55205770D01*
X64917906Y-55231536D01*
X65251239Y-56231536D01*
X65252581Y-56233227D01*
X65252640Y-56235386D01*
X65268389Y-56253147D01*
X65283130Y-56271722D01*
X65285243Y-56272154D01*
X65286677Y-56273771D01*
X65310147Y-56277251D01*
X65333391Y-56282008D01*
X65335290Y-56280979D01*
X65337426Y-56281296D01*
X65357639Y-56268877D01*
X65378505Y-56257579D01*
X65379298Y-56255571D01*
X65381138Y-56254441D01*
X65393541Y-56231536D01*
X65726874Y-55231536D01*
X65725473Y-55180253D01*
X65691435Y-55141867D01*
X65640687Y-55134342D01*
X65596974Y-55161197D01*
X65584572Y-55184102D01*
X65322390Y-55970648D01*
X65060208Y-55184102D01*
X65028317Y-55143916D01*
X64978056Y-55133630D01*
X64932942Y-55158059D01*
X64914085Y-55205770D01*
X64726926Y-55205770D01*
X64720675Y-55170319D01*
X64681375Y-55137342D01*
X64655723Y-55132819D01*
X64179533Y-55132819D01*
X64164565Y-55138266D01*
X64148682Y-55139458D01*
X64141175Y-55146780D01*
X64131324Y-55150366D01*
X64123360Y-55164159D01*
X64111958Y-55175282D01*
X64107226Y-55192102D01*
X64105672Y-55194795D01*
X64105979Y-55196537D01*
X64104905Y-55200356D01*
X64057286Y-55676546D01*
X64057408Y-55677026D01*
X64057200Y-55677473D01*
X63914343Y-55677473D01*
X63914343Y-54989962D01*
X65869731Y-54989962D01*
X65869731Y-56425676D01*
G37*
X98552638Y-105151519D02*
X98552638Y-104151519D01*
X98552638Y-104151519D02*
X98885971Y-104865804D01*
X98885971Y-104865804D02*
X99219304Y-104151519D01*
X99219304Y-104151519D02*
X99219304Y-105151519D01*
X100124066Y-105151519D02*
X100124066Y-104627709D01*
X100124066Y-104627709D02*
X100076447Y-104532471D01*
X100076447Y-104532471D02*
X99981209Y-104484852D01*
X99981209Y-104484852D02*
X99790733Y-104484852D01*
X99790733Y-104484852D02*
X99695495Y-104532471D01*
X100124066Y-105103900D02*
X100028828Y-105151519D01*
X100028828Y-105151519D02*
X99790733Y-105151519D01*
X99790733Y-105151519D02*
X99695495Y-105103900D01*
X99695495Y-105103900D02*
X99647876Y-105008661D01*
X99647876Y-105008661D02*
X99647876Y-104913423D01*
X99647876Y-104913423D02*
X99695495Y-104818185D01*
X99695495Y-104818185D02*
X99790733Y-104770566D01*
X99790733Y-104770566D02*
X100028828Y-104770566D01*
X100028828Y-104770566D02*
X100124066Y-104722947D01*
X101028828Y-104484852D02*
X101028828Y-105294376D01*
X101028828Y-105294376D02*
X100981209Y-105389614D01*
X100981209Y-105389614D02*
X100933590Y-105437233D01*
X100933590Y-105437233D02*
X100838352Y-105484852D01*
X100838352Y-105484852D02*
X100695495Y-105484852D01*
X100695495Y-105484852D02*
X100600257Y-105437233D01*
X101028828Y-105103900D02*
X100933590Y-105151519D01*
X100933590Y-105151519D02*
X100743114Y-105151519D01*
X100743114Y-105151519D02*
X100647876Y-105103900D01*
X100647876Y-105103900D02*
X100600257Y-105056280D01*
X100600257Y-105056280D02*
X100552638Y-104961042D01*
X100552638Y-104961042D02*
X100552638Y-104675328D01*
X100552638Y-104675328D02*
X100600257Y-104580090D01*
X100600257Y-104580090D02*
X100647876Y-104532471D01*
X100647876Y-104532471D02*
X100743114Y-104484852D01*
X100743114Y-104484852D02*
X100933590Y-104484852D01*
X100933590Y-104484852D02*
X101028828Y-104532471D01*
X101505019Y-105151519D02*
X101505019Y-104484852D01*
X101505019Y-104151519D02*
X101457400Y-104199138D01*
X101457400Y-104199138D02*
X101505019Y-104246757D01*
X101505019Y-104246757D02*
X101552638Y-104199138D01*
X101552638Y-104199138D02*
X101505019Y-104151519D01*
X101505019Y-104151519D02*
X101505019Y-104246757D01*
X102409780Y-105103900D02*
X102314542Y-105151519D01*
X102314542Y-105151519D02*
X102124066Y-105151519D01*
X102124066Y-105151519D02*
X102028828Y-105103900D01*
X102028828Y-105103900D02*
X101981209Y-105056280D01*
X101981209Y-105056280D02*
X101933590Y-104961042D01*
X101933590Y-104961042D02*
X101933590Y-104675328D01*
X101933590Y-104675328D02*
X101981209Y-104580090D01*
X101981209Y-104580090D02*
X102028828Y-104532471D01*
X102028828Y-104532471D02*
X102124066Y-104484852D01*
X102124066Y-104484852D02*
X102314542Y-104484852D01*
X102314542Y-104484852D02*
X102409780Y-104532471D01*
X100565105Y-91199619D02*
X100565105Y-92009142D01*
X100565105Y-92009142D02*
X100612724Y-92104380D01*
X100612724Y-92104380D02*
X100660343Y-92152000D01*
X100660343Y-92152000D02*
X100755581Y-92199619D01*
X100755581Y-92199619D02*
X100946057Y-92199619D01*
X100946057Y-92199619D02*
X101041295Y-92152000D01*
X101041295Y-92152000D02*
X101088914Y-92104380D01*
X101088914Y-92104380D02*
X101136533Y-92009142D01*
X101136533Y-92009142D02*
X101136533Y-91199619D01*
X102136533Y-92199619D02*
X101565105Y-92199619D01*
X101850819Y-92199619D02*
X101850819Y-91199619D01*
X101850819Y-91199619D02*
X101755581Y-91342476D01*
X101755581Y-91342476D02*
X101660343Y-91437714D01*
X101660343Y-91437714D02*
X101565105Y-91485333D01*
X102755581Y-91199619D02*
X102850819Y-91199619D01*
X102850819Y-91199619D02*
X102946057Y-91247238D01*
X102946057Y-91247238D02*
X102993676Y-91294857D01*
X102993676Y-91294857D02*
X103041295Y-91390095D01*
X103041295Y-91390095D02*
X103088914Y-91580571D01*
X103088914Y-91580571D02*
X103088914Y-91818666D01*
X103088914Y-91818666D02*
X103041295Y-92009142D01*
X103041295Y-92009142D02*
X102993676Y-92104380D01*
X102993676Y-92104380D02*
X102946057Y-92152000D01*
X102946057Y-92152000D02*
X102850819Y-92199619D01*
X102850819Y-92199619D02*
X102755581Y-92199619D01*
X102755581Y-92199619D02*
X102660343Y-92152000D01*
X102660343Y-92152000D02*
X102612724Y-92104380D01*
X102612724Y-92104380D02*
X102565105Y-92009142D01*
X102565105Y-92009142D02*
X102517486Y-91818666D01*
X102517486Y-91818666D02*
X102517486Y-91580571D01*
X102517486Y-91580571D02*
X102565105Y-91390095D01*
X102565105Y-91390095D02*
X102612724Y-91294857D01*
X102612724Y-91294857D02*
X102660343Y-91247238D01*
X102660343Y-91247238D02*
X102755581Y-91199619D01*
G36*
X106269582Y-63496382D02*
G01*
X106299989Y-63526789D01*
X106334247Y-63595305D01*
X106334247Y-63702752D01*
X106299989Y-63771268D01*
X106269582Y-63801675D01*
X106201066Y-63835933D01*
X105950762Y-63835933D01*
X105882246Y-63801675D01*
X105851838Y-63771267D01*
X105817580Y-63702750D01*
X105817580Y-63595306D01*
X105851838Y-63526789D01*
X105882246Y-63496382D01*
X105950762Y-63462124D01*
X106201066Y-63462124D01*
X106269582Y-63496382D01*
G37*
G36*
X106269582Y-62115430D02*
G01*
X106299989Y-62145837D01*
X106334247Y-62214353D01*
X106334247Y-62369419D01*
X106315276Y-62407362D01*
X105836552Y-62407362D01*
X105817580Y-62369417D01*
X105817580Y-62214354D01*
X105851838Y-62145837D01*
X105882246Y-62115430D01*
X105950762Y-62081172D01*
X106201066Y-62081172D01*
X106269582Y-62115430D01*
G37*
G36*
X106505409Y-60482362D02*
G01*
X106103295Y-60616400D01*
X106103295Y-60348323D01*
X106505409Y-60482362D01*
G37*
G36*
X106960151Y-64128790D02*
G01*
X105524723Y-64128790D01*
X105524723Y-63720457D01*
X105667580Y-63720457D01*
X105669113Y-63724670D01*
X105668072Y-63729032D01*
X105675498Y-63753999D01*
X105723118Y-63849237D01*
X105724309Y-63850364D01*
X105737167Y-63868728D01*
X105784786Y-63916347D01*
X105786267Y-63917038D01*
X105804278Y-63930396D01*
X105899516Y-63978015D01*
X105903969Y-63978527D01*
X105907405Y-63981410D01*
X105933057Y-63985933D01*
X106218771Y-63985933D01*
X106222984Y-63984399D01*
X106227345Y-63985441D01*
X106252312Y-63978015D01*
X106347550Y-63930396D01*
X106348675Y-63929206D01*
X106367042Y-63916347D01*
X106414661Y-63868728D01*
X106415352Y-63867246D01*
X106428710Y-63849236D01*
X106476329Y-63753998D01*
X106476841Y-63749544D01*
X106479724Y-63746109D01*
X106484247Y-63720457D01*
X106484247Y-63577600D01*
X106482713Y-63573386D01*
X106483755Y-63569025D01*
X106476329Y-63544059D01*
X106428710Y-63448821D01*
X106427520Y-63447695D01*
X106414661Y-63429329D01*
X106367042Y-63381710D01*
X106365560Y-63381019D01*
X106347550Y-63367661D01*
X106252312Y-63320042D01*
X106247858Y-63319529D01*
X106244423Y-63316647D01*
X106218771Y-63312124D01*
X105933057Y-63312124D01*
X105928843Y-63313657D01*
X105924482Y-63312616D01*
X105899516Y-63320042D01*
X105804278Y-63367661D01*
X105803152Y-63368850D01*
X105784786Y-63381710D01*
X105737167Y-63429329D01*
X105736475Y-63430811D01*
X105723118Y-63448820D01*
X105675498Y-63544058D01*
X105674985Y-63548512D01*
X105672103Y-63551948D01*
X105667580Y-63577600D01*
X105667580Y-63720457D01*
X105524723Y-63720457D01*
X105524723Y-62945529D01*
X105668719Y-62945529D01*
X105677628Y-62996053D01*
X105716928Y-63029030D01*
X105742580Y-63033553D01*
X106409247Y-63033553D01*
X106457456Y-63016006D01*
X106483108Y-62971577D01*
X106479659Y-62952017D01*
X106572628Y-62952017D01*
X106577670Y-62970836D01*
X106579369Y-62990249D01*
X106582038Y-62994062D01*
X106582390Y-62996053D01*
X106584918Y-62998174D01*
X106585042Y-62998351D01*
X106585905Y-63001571D01*
X106588635Y-63003482D01*
X106594309Y-63011586D01*
X106641928Y-63059205D01*
X106659586Y-63067438D01*
X106675550Y-63078617D01*
X106682292Y-63078026D01*
X106688424Y-63080886D01*
X106707243Y-63075843D01*
X106726657Y-63074145D01*
X106734759Y-63068471D01*
X106737979Y-63067609D01*
X106739890Y-63064879D01*
X106747994Y-63059205D01*
X106795613Y-63011586D01*
X106803848Y-62993925D01*
X106815024Y-62977964D01*
X106814725Y-62974548D01*
X106816441Y-62971577D01*
X106815845Y-62968197D01*
X106817294Y-62965090D01*
X106812251Y-62946268D01*
X106810553Y-62926857D01*
X106807883Y-62923043D01*
X106807532Y-62921053D01*
X106805003Y-62918931D01*
X106804879Y-62918754D01*
X106804017Y-62915535D01*
X106801287Y-62913623D01*
X106795613Y-62905520D01*
X106747994Y-62857901D01*
X106730333Y-62849666D01*
X106714372Y-62838490D01*
X106707630Y-62839079D01*
X106701497Y-62836220D01*
X106682675Y-62841262D01*
X106663265Y-62842961D01*
X106655162Y-62848634D01*
X106651943Y-62849497D01*
X106650031Y-62852227D01*
X106641928Y-62857901D01*
X106594309Y-62905520D01*
X106586075Y-62923177D01*
X106574897Y-62939142D01*
X106575195Y-62942558D01*
X106573481Y-62945529D01*
X106574077Y-62948909D01*
X106572628Y-62952017D01*
X106479659Y-62952017D01*
X106474199Y-62921053D01*
X106434899Y-62888076D01*
X106409247Y-62883553D01*
X105742580Y-62883553D01*
X105694371Y-62901100D01*
X105668719Y-62945529D01*
X105524723Y-62945529D01*
X105524723Y-62387124D01*
X105667580Y-62387124D01*
X105669113Y-62391337D01*
X105668072Y-62395699D01*
X105675498Y-62420666D01*
X105685393Y-62440457D01*
X105668719Y-62469338D01*
X105677628Y-62519862D01*
X105716928Y-62552839D01*
X105742580Y-62557362D01*
X106742580Y-62557362D01*
X106790789Y-62539815D01*
X106816441Y-62495386D01*
X106807532Y-62444862D01*
X106768232Y-62411885D01*
X106742580Y-62407362D01*
X106480679Y-62407362D01*
X106484247Y-62387124D01*
X106484247Y-62196648D01*
X106482713Y-62192434D01*
X106483755Y-62188073D01*
X106476329Y-62163107D01*
X106428710Y-62067869D01*
X106427520Y-62066743D01*
X106414661Y-62048377D01*
X106367042Y-62000758D01*
X106365560Y-62000067D01*
X106347550Y-61986709D01*
X106252312Y-61939090D01*
X106247858Y-61938577D01*
X106244423Y-61935695D01*
X106218771Y-61931172D01*
X105933057Y-61931172D01*
X105928843Y-61932705D01*
X105924482Y-61931664D01*
X105899516Y-61939090D01*
X105804278Y-61986709D01*
X105803152Y-61987898D01*
X105784786Y-62000758D01*
X105737167Y-62048377D01*
X105736475Y-62049859D01*
X105723118Y-62067868D01*
X105675498Y-62163106D01*
X105674985Y-62167560D01*
X105672103Y-62170996D01*
X105667580Y-62196648D01*
X105667580Y-62387124D01*
X105524723Y-62387124D01*
X105524723Y-61434743D01*
X105667580Y-61434743D01*
X105669113Y-61438956D01*
X105668072Y-61443318D01*
X105675498Y-61468285D01*
X105700342Y-61517973D01*
X105694371Y-61520147D01*
X105668719Y-61564576D01*
X105677628Y-61615100D01*
X105716928Y-61648077D01*
X105742580Y-61652600D01*
X106409247Y-61652600D01*
X106457456Y-61635053D01*
X106483108Y-61590624D01*
X106474199Y-61540100D01*
X106434899Y-61507123D01*
X106409247Y-61502600D01*
X105868885Y-61502600D01*
X105851838Y-61485553D01*
X105817580Y-61417036D01*
X105817580Y-61309592D01*
X105846101Y-61252549D01*
X105903143Y-61224029D01*
X106409247Y-61224029D01*
X106457456Y-61206482D01*
X106483108Y-61162053D01*
X106474199Y-61111529D01*
X106434899Y-61078552D01*
X106409247Y-61074029D01*
X105885438Y-61074029D01*
X105881224Y-61075562D01*
X105876863Y-61074521D01*
X105851897Y-61081947D01*
X105756659Y-61129566D01*
X105748940Y-61137718D01*
X105738636Y-61142185D01*
X105723118Y-61163106D01*
X105675498Y-61258344D01*
X105674985Y-61262798D01*
X105672103Y-61266234D01*
X105667580Y-61291886D01*
X105667580Y-61434743D01*
X105524723Y-61434743D01*
X105524723Y-60826696D01*
X105668391Y-60826696D01*
X105692820Y-60871810D01*
X105740531Y-60890667D01*
X105766297Y-60886846D01*
X106766297Y-60553513D01*
X106767988Y-60552170D01*
X106770146Y-60552112D01*
X106787898Y-60536370D01*
X106806483Y-60521622D01*
X106806915Y-60519507D01*
X106808532Y-60518074D01*
X106812011Y-60494605D01*
X106816769Y-60471361D01*
X106815740Y-60469461D01*
X106816057Y-60467326D01*
X106803636Y-60447108D01*
X106792340Y-60426247D01*
X106790332Y-60425453D01*
X106789202Y-60423613D01*
X106766297Y-60411211D01*
X105766297Y-60077878D01*
X105715013Y-60079279D01*
X105676628Y-60113316D01*
X105669103Y-60164065D01*
X105695958Y-60207777D01*
X105718863Y-60220180D01*
X105953295Y-60298323D01*
X105953295Y-60666400D01*
X105718863Y-60744544D01*
X105678677Y-60776435D01*
X105668391Y-60826696D01*
X105524723Y-60826696D01*
X105524723Y-59935021D01*
X106960151Y-59935021D01*
X106960151Y-64128790D01*
G37*
G36*
X57888182Y-52838020D02*
G01*
X57918589Y-52868427D01*
X57952847Y-52936943D01*
X57952847Y-53044390D01*
X57918589Y-53112906D01*
X57888182Y-53143313D01*
X57819666Y-53177571D01*
X57569362Y-53177571D01*
X57500846Y-53143313D01*
X57470438Y-53112905D01*
X57436180Y-53044388D01*
X57436180Y-52936944D01*
X57470438Y-52868427D01*
X57500846Y-52838020D01*
X57569362Y-52803762D01*
X57819666Y-52803762D01*
X57888182Y-52838020D01*
G37*
G36*
X57888182Y-51933258D02*
G01*
X57918589Y-51963665D01*
X57952847Y-52032181D01*
X57952847Y-52139628D01*
X57918589Y-52208144D01*
X57888182Y-52238551D01*
X57819666Y-52272809D01*
X57569362Y-52272809D01*
X57500846Y-52238551D01*
X57470438Y-52208143D01*
X57436180Y-52139626D01*
X57436180Y-52032182D01*
X57470438Y-51963665D01*
X57500846Y-51933258D01*
X57569362Y-51899000D01*
X57819666Y-51899000D01*
X57888182Y-51933258D01*
G37*
G36*
X57809990Y-51192782D02*
G01*
X57771819Y-51307295D01*
X57745325Y-51333789D01*
X57676809Y-51368047D01*
X57569362Y-51368047D01*
X57500846Y-51333789D01*
X57470438Y-51303381D01*
X57436180Y-51234864D01*
X57436180Y-50946619D01*
X57809990Y-50946619D01*
X57809990Y-51192782D01*
G37*
G36*
X58286180Y-51187247D02*
G01*
X58251922Y-51255763D01*
X58221515Y-51286170D01*
X58152999Y-51320428D01*
X58093171Y-51320428D01*
X58024655Y-51286170D01*
X57994248Y-51255763D01*
X57959990Y-51187247D01*
X57959990Y-50946619D01*
X58286180Y-50946619D01*
X58286180Y-51187247D01*
G37*
G36*
X58579037Y-54135956D02*
G01*
X57143323Y-54135956D01*
X57143323Y-53919238D01*
X57286180Y-53919238D01*
X57303727Y-53967447D01*
X57348156Y-53993099D01*
X57398680Y-53984190D01*
X57431657Y-53944890D01*
X57436180Y-53919238D01*
X57436180Y-53841706D01*
X57464701Y-53784663D01*
X57521743Y-53756143D01*
X57952847Y-53756143D01*
X57952847Y-53919238D01*
X57970394Y-53967447D01*
X58014823Y-53993099D01*
X58065347Y-53984190D01*
X58098324Y-53944890D01*
X58102847Y-53919238D01*
X58102847Y-53756143D01*
X58361180Y-53756143D01*
X58409389Y-53738596D01*
X58435041Y-53694167D01*
X58426132Y-53643643D01*
X58386832Y-53610666D01*
X58361180Y-53606143D01*
X58102847Y-53606143D01*
X58102847Y-53538286D01*
X58085300Y-53490077D01*
X58040871Y-53464425D01*
X57990347Y-53473334D01*
X57957370Y-53512634D01*
X57952847Y-53538286D01*
X57952847Y-53606143D01*
X57504038Y-53606143D01*
X57499824Y-53607676D01*
X57495463Y-53606635D01*
X57470497Y-53614061D01*
X57375259Y-53661680D01*
X57367540Y-53669832D01*
X57357236Y-53674299D01*
X57341718Y-53695220D01*
X57294098Y-53790458D01*
X57293585Y-53794912D01*
X57290703Y-53798348D01*
X57286180Y-53824000D01*
X57286180Y-53919238D01*
X57143323Y-53919238D01*
X57143323Y-53062095D01*
X57286180Y-53062095D01*
X57287713Y-53066308D01*
X57286672Y-53070670D01*
X57294098Y-53095637D01*
X57341718Y-53190875D01*
X57342909Y-53192002D01*
X57355767Y-53210366D01*
X57403386Y-53257985D01*
X57404867Y-53258676D01*
X57422878Y-53272034D01*
X57518116Y-53319653D01*
X57522569Y-53320165D01*
X57526005Y-53323048D01*
X57551657Y-53327571D01*
X57837371Y-53327571D01*
X57841584Y-53326037D01*
X57845945Y-53327079D01*
X57870912Y-53319653D01*
X57966150Y-53272034D01*
X57967275Y-53270844D01*
X57985642Y-53257985D01*
X58033261Y-53210366D01*
X58033952Y-53208884D01*
X58047310Y-53190874D01*
X58094929Y-53095636D01*
X58095441Y-53091182D01*
X58098324Y-53087747D01*
X58102847Y-53062095D01*
X58102847Y-52919238D01*
X58101313Y-52915024D01*
X58102355Y-52910663D01*
X58094929Y-52885697D01*
X58047310Y-52790459D01*
X58046120Y-52789333D01*
X58033261Y-52770967D01*
X57985642Y-52723348D01*
X57984160Y-52722657D01*
X57966150Y-52709299D01*
X57870912Y-52661680D01*
X57866458Y-52661167D01*
X57863023Y-52658285D01*
X57837371Y-52653762D01*
X57551657Y-52653762D01*
X57547443Y-52655295D01*
X57543082Y-52654254D01*
X57518116Y-52661680D01*
X57422878Y-52709299D01*
X57421752Y-52710488D01*
X57403386Y-52723348D01*
X57355767Y-52770967D01*
X57355075Y-52772449D01*
X57341718Y-52790458D01*
X57294098Y-52885696D01*
X57293585Y-52890150D01*
X57290703Y-52893586D01*
X57286180Y-52919238D01*
X57286180Y-53062095D01*
X57143323Y-53062095D01*
X57143323Y-52157333D01*
X57286180Y-52157333D01*
X57287713Y-52161546D01*
X57286672Y-52165908D01*
X57294098Y-52190875D01*
X57341718Y-52286113D01*
X57342909Y-52287240D01*
X57355767Y-52305604D01*
X57403386Y-52353223D01*
X57404867Y-52353914D01*
X57422878Y-52367272D01*
X57518116Y-52414891D01*
X57522569Y-52415403D01*
X57526005Y-52418286D01*
X57551657Y-52422809D01*
X57837371Y-52422809D01*
X57841584Y-52421275D01*
X57845945Y-52422317D01*
X57870912Y-52414891D01*
X57966150Y-52367272D01*
X57967275Y-52366082D01*
X57985642Y-52353223D01*
X58033261Y-52305604D01*
X58033952Y-52304122D01*
X58047310Y-52286112D01*
X58094929Y-52190874D01*
X58095441Y-52186420D01*
X58098324Y-52182985D01*
X58102847Y-52157333D01*
X58102847Y-52014476D01*
X58101313Y-52010262D01*
X58102355Y-52005901D01*
X58094929Y-51980935D01*
X58047310Y-51885697D01*
X58046120Y-51884571D01*
X58033261Y-51866205D01*
X57985642Y-51818586D01*
X57984160Y-51817895D01*
X57966150Y-51804537D01*
X57870912Y-51756918D01*
X57866458Y-51756405D01*
X57863023Y-51753523D01*
X57837371Y-51749000D01*
X57551657Y-51749000D01*
X57547443Y-51750533D01*
X57543082Y-51749492D01*
X57518116Y-51756918D01*
X57422878Y-51804537D01*
X57421752Y-51805726D01*
X57403386Y-51818586D01*
X57355767Y-51866205D01*
X57355075Y-51867687D01*
X57341718Y-51885696D01*
X57294098Y-51980934D01*
X57293585Y-51985388D01*
X57290703Y-51988824D01*
X57286180Y-52014476D01*
X57286180Y-52157333D01*
X57143323Y-52157333D01*
X57143323Y-51252571D01*
X57286180Y-51252571D01*
X57287713Y-51256784D01*
X57286672Y-51261146D01*
X57294098Y-51286113D01*
X57341718Y-51381351D01*
X57342909Y-51382478D01*
X57355767Y-51400842D01*
X57403386Y-51448461D01*
X57404867Y-51449152D01*
X57422878Y-51462510D01*
X57518116Y-51510129D01*
X57522569Y-51510641D01*
X57526005Y-51513524D01*
X57551657Y-51518047D01*
X57694514Y-51518047D01*
X57698727Y-51516513D01*
X57703088Y-51517555D01*
X57728055Y-51510129D01*
X57823293Y-51462510D01*
X57824418Y-51461320D01*
X57842785Y-51448461D01*
X57890404Y-51400842D01*
X57892299Y-51396777D01*
X57896119Y-51394431D01*
X57904783Y-51378430D01*
X57927195Y-51400842D01*
X57928676Y-51401533D01*
X57946687Y-51414891D01*
X58041925Y-51462510D01*
X58046378Y-51463022D01*
X58049814Y-51465905D01*
X58075466Y-51470428D01*
X58170704Y-51470428D01*
X58174917Y-51468894D01*
X58179278Y-51469936D01*
X58204245Y-51462510D01*
X58299483Y-51414891D01*
X58300608Y-51413701D01*
X58318975Y-51400842D01*
X58366594Y-51353223D01*
X58367285Y-51351741D01*
X58380643Y-51333731D01*
X58428262Y-51238493D01*
X58428774Y-51234039D01*
X58431657Y-51230604D01*
X58436180Y-51204952D01*
X58436180Y-50871619D01*
X58429516Y-50853310D01*
X58426132Y-50834119D01*
X58420947Y-50829768D01*
X58418633Y-50823410D01*
X58401759Y-50813667D01*
X58386832Y-50801142D01*
X58377089Y-50799424D01*
X58374204Y-50797758D01*
X58370921Y-50798336D01*
X58361180Y-50796619D01*
X57361180Y-50796619D01*
X57342871Y-50803282D01*
X57323680Y-50806667D01*
X57319329Y-50811851D01*
X57312971Y-50814166D01*
X57303228Y-50831039D01*
X57290703Y-50845967D01*
X57288985Y-50855709D01*
X57287319Y-50858595D01*
X57287897Y-50861877D01*
X57286180Y-50871619D01*
X57286180Y-51252571D01*
X57143323Y-51252571D01*
X57143323Y-50653762D01*
X58579037Y-50653762D01*
X58579037Y-54135956D01*
G37*
X108226266Y-47511619D02*
X108226266Y-48225904D01*
X108226266Y-48225904D02*
X108178647Y-48368761D01*
X108178647Y-48368761D02*
X108083409Y-48464000D01*
X108083409Y-48464000D02*
X107940552Y-48511619D01*
X107940552Y-48511619D02*
X107845314Y-48511619D01*
X108607219Y-47511619D02*
X109226266Y-47511619D01*
X109226266Y-47511619D02*
X108892933Y-47892571D01*
X108892933Y-47892571D02*
X109035790Y-47892571D01*
X109035790Y-47892571D02*
X109131028Y-47940190D01*
X109131028Y-47940190D02*
X109178647Y-47987809D01*
X109178647Y-47987809D02*
X109226266Y-48083047D01*
X109226266Y-48083047D02*
X109226266Y-48321142D01*
X109226266Y-48321142D02*
X109178647Y-48416380D01*
X109178647Y-48416380D02*
X109131028Y-48464000D01*
X109131028Y-48464000D02*
X109035790Y-48511619D01*
X109035790Y-48511619D02*
X108750076Y-48511619D01*
X108750076Y-48511619D02*
X108654838Y-48464000D01*
X108654838Y-48464000D02*
X108607219Y-48416380D01*
X100099905Y-77093419D02*
X100099905Y-76093419D01*
X100099905Y-76093419D02*
X100480857Y-76093419D01*
X100480857Y-76093419D02*
X100576095Y-76141038D01*
X100576095Y-76141038D02*
X100623714Y-76188657D01*
X100623714Y-76188657D02*
X100671333Y-76283895D01*
X100671333Y-76283895D02*
X100671333Y-76426752D01*
X100671333Y-76426752D02*
X100623714Y-76521990D01*
X100623714Y-76521990D02*
X100576095Y-76569609D01*
X100576095Y-76569609D02*
X100480857Y-76617228D01*
X100480857Y-76617228D02*
X100099905Y-76617228D01*
X101623714Y-77093419D02*
X101052286Y-77093419D01*
X101338000Y-77093419D02*
X101338000Y-76093419D01*
X101338000Y-76093419D02*
X101242762Y-76236276D01*
X101242762Y-76236276D02*
X101147524Y-76331514D01*
X101147524Y-76331514D02*
X101052286Y-76379133D01*
X64288095Y-57504819D02*
X64288095Y-58314342D01*
X64288095Y-58314342D02*
X64335714Y-58409580D01*
X64335714Y-58409580D02*
X64383333Y-58457200D01*
X64383333Y-58457200D02*
X64478571Y-58504819D01*
X64478571Y-58504819D02*
X64669047Y-58504819D01*
X64669047Y-58504819D02*
X64764285Y-58457200D01*
X64764285Y-58457200D02*
X64811904Y-58409580D01*
X64811904Y-58409580D02*
X64859523Y-58314342D01*
X64859523Y-58314342D02*
X64859523Y-57504819D01*
X65240476Y-57504819D02*
X65859523Y-57504819D01*
X65859523Y-57504819D02*
X65526190Y-57885771D01*
X65526190Y-57885771D02*
X65669047Y-57885771D01*
X65669047Y-57885771D02*
X65764285Y-57933390D01*
X65764285Y-57933390D02*
X65811904Y-57981009D01*
X65811904Y-57981009D02*
X65859523Y-58076247D01*
X65859523Y-58076247D02*
X65859523Y-58314342D01*
X65859523Y-58314342D02*
X65811904Y-58409580D01*
X65811904Y-58409580D02*
X65764285Y-58457200D01*
X65764285Y-58457200D02*
X65669047Y-58504819D01*
X65669047Y-58504819D02*
X65383333Y-58504819D01*
X65383333Y-58504819D02*
X65288095Y-58457200D01*
X65288095Y-58457200D02*
X65240476Y-58409580D01*
X74460314Y-64405704D02*
X74936504Y-64405704D01*
X74365076Y-64691419D02*
X74698409Y-63691419D01*
X74698409Y-63691419D02*
X75031742Y-64691419D01*
X75365076Y-64691419D02*
X75365076Y-63691419D01*
X75365076Y-63691419D02*
X75603171Y-63691419D01*
X75603171Y-63691419D02*
X75746028Y-63739038D01*
X75746028Y-63739038D02*
X75841266Y-63834276D01*
X75841266Y-63834276D02*
X75888885Y-63929514D01*
X75888885Y-63929514D02*
X75936504Y-64119990D01*
X75936504Y-64119990D02*
X75936504Y-64262847D01*
X75936504Y-64262847D02*
X75888885Y-64453323D01*
X75888885Y-64453323D02*
X75841266Y-64548561D01*
X75841266Y-64548561D02*
X75746028Y-64643800D01*
X75746028Y-64643800D02*
X75603171Y-64691419D01*
X75603171Y-64691419D02*
X75365076Y-64691419D01*
X76936504Y-64596180D02*
X76888885Y-64643800D01*
X76888885Y-64643800D02*
X76746028Y-64691419D01*
X76746028Y-64691419D02*
X76650790Y-64691419D01*
X76650790Y-64691419D02*
X76507933Y-64643800D01*
X76507933Y-64643800D02*
X76412695Y-64548561D01*
X76412695Y-64548561D02*
X76365076Y-64453323D01*
X76365076Y-64453323D02*
X76317457Y-64262847D01*
X76317457Y-64262847D02*
X76317457Y-64119990D01*
X76317457Y-64119990D02*
X76365076Y-63929514D01*
X76365076Y-63929514D02*
X76412695Y-63834276D01*
X76412695Y-63834276D02*
X76507933Y-63739038D01*
X76507933Y-63739038D02*
X76650790Y-63691419D01*
X76650790Y-63691419D02*
X76746028Y-63691419D01*
X76746028Y-63691419D02*
X76888885Y-63739038D01*
X76888885Y-63739038D02*
X76936504Y-63786657D01*
X77888885Y-64691419D02*
X77317457Y-64691419D01*
X77603171Y-64691419D02*
X77603171Y-63691419D01*
X77603171Y-63691419D02*
X77507933Y-63834276D01*
X77507933Y-63834276D02*
X77412695Y-63929514D01*
X77412695Y-63929514D02*
X77317457Y-63977133D01*
X105256105Y-95406819D02*
X105256105Y-94406819D01*
X105256105Y-94406819D02*
X105637057Y-94406819D01*
X105637057Y-94406819D02*
X105732295Y-94454438D01*
X105732295Y-94454438D02*
X105779914Y-94502057D01*
X105779914Y-94502057D02*
X105827533Y-94597295D01*
X105827533Y-94597295D02*
X105827533Y-94740152D01*
X105827533Y-94740152D02*
X105779914Y-94835390D01*
X105779914Y-94835390D02*
X105732295Y-94883009D01*
X105732295Y-94883009D02*
X105637057Y-94930628D01*
X105637057Y-94930628D02*
X105256105Y-94930628D01*
X106208486Y-94502057D02*
X106256105Y-94454438D01*
X106256105Y-94454438D02*
X106351343Y-94406819D01*
X106351343Y-94406819D02*
X106589438Y-94406819D01*
X106589438Y-94406819D02*
X106684676Y-94454438D01*
X106684676Y-94454438D02*
X106732295Y-94502057D01*
X106732295Y-94502057D02*
X106779914Y-94597295D01*
X106779914Y-94597295D02*
X106779914Y-94692533D01*
X106779914Y-94692533D02*
X106732295Y-94835390D01*
X106732295Y-94835390D02*
X106160867Y-95406819D01*
X106160867Y-95406819D02*
X106779914Y-95406819D01*
D11*
%TO.C,R56*%
X99633300Y-85622676D02*
X99633300Y-86132124D01*
X98588300Y-85622676D02*
X98588300Y-86132124D01*
%TO.C,R24*%
X102808300Y-89051676D02*
X102808300Y-89561124D01*
X101763300Y-89051676D02*
X101763300Y-89561124D01*
%TO.C,R22*%
X97978700Y-64161124D02*
X97978700Y-63651676D01*
X99023700Y-64161124D02*
X99023700Y-63651676D01*
%TO.C,R21*%
X95747100Y-63651676D02*
X95747100Y-64161124D01*
X94702100Y-63651676D02*
X94702100Y-64161124D01*
%TO.C,C91*%
X101221000Y-85731133D02*
X101221000Y-86023667D01*
X100201000Y-85731133D02*
X100201000Y-86023667D01*
%TO.C,C90*%
X102821200Y-85731133D02*
X102821200Y-86023667D01*
X101801200Y-85731133D02*
X101801200Y-86023667D01*
%TO.C,C88*%
X99616800Y-64078067D02*
X99616800Y-63785533D01*
X100636800Y-64078067D02*
X100636800Y-63785533D01*
%TO.C,C87*%
X96340200Y-64052667D02*
X96340200Y-63760133D01*
X97360200Y-64052667D02*
X97360200Y-63760133D01*
%TO.C,D2*%
X115361500Y-109346276D02*
X115361500Y-109855724D01*
X114316500Y-109346276D02*
X114316500Y-109855724D01*
%TO.C,R35*%
X67101500Y-51434276D02*
X67101500Y-51943724D01*
X66056500Y-51434276D02*
X66056500Y-51943724D01*
%TO.C,TP10*%
X74131400Y-66243200D02*
G75*
G03*
X72731400Y-66243200I-700000J0D01*
G01*
X72731400Y-66243200D02*
G75*
G03*
X74131400Y-66243200I700000J0D01*
G01*
%TO.C,U11*%
X54027000Y-82227000D02*
X54027000Y-81027000D01*
X53627000Y-81027000D02*
X53627000Y-70427000D01*
X54027000Y-81027000D02*
X53627000Y-81027000D01*
X75827000Y-81027000D02*
X76227000Y-81027000D01*
X76227000Y-81027000D02*
X76227000Y-70427000D01*
X53627000Y-70427000D02*
X54027000Y-70427000D01*
X75827000Y-70427000D02*
X76227000Y-70427000D01*
%TO.C,C64*%
X77450733Y-92835000D02*
X77743267Y-92835000D01*
X77450733Y-93855000D02*
X77743267Y-93855000D01*
D10*
%TO.C,J4*%
X61386000Y-105388000D02*
X61386000Y-98188000D01*
X61386000Y-108188000D02*
X61386000Y-110488000D01*
X61386000Y-110488000D02*
X68736000Y-110488000D01*
X68736000Y-110488000D02*
X70086000Y-110538000D01*
X70086000Y-110538000D02*
X71236000Y-110688000D01*
X70786000Y-97788000D02*
X70786000Y-98088000D01*
X70786000Y-98088000D02*
X71086000Y-98088000D01*
X71086000Y-97788000D02*
X70786000Y-97788000D01*
X71086000Y-98088000D02*
X71086000Y-97788000D01*
X71236000Y-110688000D02*
X72336000Y-110888000D01*
X71536000Y-97188000D02*
X71536000Y-95888000D01*
X71536000Y-97188000D02*
X74536000Y-97188000D01*
X72336000Y-110888000D02*
X73386000Y-111188000D01*
X73386000Y-111188000D02*
X76086000Y-111188000D01*
X76086000Y-98188000D02*
X76086000Y-105388000D01*
X76086000Y-111188000D02*
X76086000Y-108188000D01*
D11*
%TO.C,U7*%
X80078144Y-67106078D02*
X80078144Y-67806078D01*
X80278144Y-67306078D02*
X80278144Y-84506078D01*
X80278144Y-84506078D02*
X97478144Y-84506078D01*
X80778144Y-67106078D02*
X80078144Y-67106078D01*
X97478144Y-67306078D02*
X80278144Y-67306078D01*
X97478144Y-84506078D02*
X97478144Y-67306078D01*
%TO.C,C42*%
X82061267Y-61724000D02*
X81768733Y-61724000D01*
X82061267Y-60704000D02*
X81768733Y-60704000D01*
%TO.C,R46*%
X73913276Y-91298500D02*
X74422724Y-91298500D01*
X73913276Y-92343500D02*
X74422724Y-92343500D01*
D13*
%TO.C,U16*%
X85512000Y-91781000D02*
X81112000Y-91781000D01*
X85512000Y-86781000D02*
X81112000Y-86781000D01*
D14*
X87652000Y-91541000D02*
G75*
G03*
X87452000Y-91541000I-100000J0D01*
G01*
X87452000Y-91541000D02*
G75*
G03*
X87652000Y-91541000I100000J0D01*
G01*
D11*
%TO.C,C69*%
X74021733Y-85215000D02*
X74314267Y-85215000D01*
X74021733Y-86235000D02*
X74314267Y-86235000D01*
%TO.C,C74*%
X74021733Y-86739000D02*
X74314267Y-86739000D01*
X74021733Y-87759000D02*
X74314267Y-87759000D01*
%TO.C,G\u002A\u002A\u002A*%
G36*
X58607660Y-88357669D02*
G01*
X58607660Y-88857809D01*
X58464763Y-88857809D01*
X58321866Y-88857809D01*
X58321866Y-88357669D01*
X58321866Y-87857528D01*
X58464763Y-87857528D01*
X58607660Y-87857528D01*
X58607660Y-88357669D01*
G37*
G36*
X55606816Y-88357669D02*
G01*
X55606816Y-88857809D01*
X55463919Y-88857809D01*
X55321022Y-88857809D01*
X55321022Y-88357669D01*
X55321022Y-87857528D01*
X55463919Y-87857528D01*
X55606816Y-87857528D01*
X55606816Y-88357669D01*
G37*
G36*
X55606816Y-89500847D02*
G01*
X55606816Y-90000988D01*
X55463919Y-90000988D01*
X55321022Y-90000988D01*
X55321022Y-89500847D01*
X55321022Y-89000707D01*
X55463919Y-89000707D01*
X55606816Y-89000707D01*
X55606816Y-89500847D01*
G37*
G36*
X55606816Y-90644026D02*
G01*
X55606816Y-91144167D01*
X55463919Y-91144167D01*
X55321022Y-91144167D01*
X55321022Y-90644026D01*
X55321022Y-90143885D01*
X55463919Y-90143885D01*
X55606816Y-90143885D01*
X55606816Y-90644026D01*
G37*
G36*
X55606816Y-91787205D02*
G01*
X55606816Y-92287345D01*
X55463919Y-92287345D01*
X55321022Y-92287345D01*
X55321022Y-91787205D01*
X55321022Y-91287064D01*
X55463919Y-91287064D01*
X55606816Y-91287064D01*
X55606816Y-91787205D01*
G37*
G36*
X57893174Y-92358794D02*
G01*
X57893174Y-93430524D01*
X57750276Y-93430524D01*
X57607379Y-93430524D01*
X57607379Y-92501691D01*
X57607379Y-91572859D01*
X57035790Y-91572859D01*
X56464200Y-91572859D01*
X56464200Y-91429961D01*
X56464200Y-91287064D01*
X57178687Y-91287064D01*
X57893174Y-91287064D01*
X57893174Y-92358794D01*
G37*
G36*
X55321022Y-100432493D02*
G01*
X55606816Y-100432493D01*
X55606816Y-101504223D01*
X55606816Y-102575953D01*
X54892330Y-102575953D01*
X54177843Y-102575953D01*
X54177843Y-102290158D01*
X54463638Y-102290158D01*
X54892330Y-102290158D01*
X55321022Y-102290158D01*
X55321022Y-101504223D01*
X55321022Y-100718288D01*
X54892330Y-100718288D01*
X54463638Y-100718288D01*
X54463638Y-101504223D01*
X54463638Y-102290158D01*
X54177843Y-102290158D01*
X54177843Y-101504223D01*
X54177843Y-100432493D01*
X54892330Y-100432493D01*
X55321022Y-100432493D01*
G37*
G36*
X58607660Y-86857247D02*
G01*
X58607660Y-87000144D01*
X58250417Y-87000144D01*
X57893174Y-87000144D01*
X57893174Y-87928977D01*
X57893174Y-88857809D01*
X57178687Y-88857809D01*
X56464200Y-88857809D01*
X56464200Y-88714912D01*
X56464200Y-88572015D01*
X57035790Y-88572015D01*
X57607379Y-88572015D01*
X57607379Y-87786079D01*
X57607379Y-87000144D01*
X57035790Y-87000144D01*
X56464200Y-87000144D01*
X56464200Y-86857247D01*
X56464200Y-86714350D01*
X57535930Y-86714350D01*
X58607660Y-86714350D01*
X58607660Y-86857247D01*
G37*
G36*
X57607379Y-95859778D02*
G01*
X58607660Y-95859778D01*
X58607660Y-96002676D01*
X58607660Y-96145573D01*
X58250417Y-96145573D01*
X57893174Y-96145573D01*
X57893174Y-97074406D01*
X57893174Y-98003238D01*
X57178687Y-98003238D01*
X56464200Y-98003238D01*
X56464200Y-97717444D01*
X56749995Y-97717444D01*
X57178687Y-97717444D01*
X57607379Y-97717444D01*
X57607379Y-96931508D01*
X57607379Y-96145573D01*
X57178687Y-96145573D01*
X56749995Y-96145573D01*
X56749995Y-96931508D01*
X56749995Y-97717444D01*
X56464200Y-97717444D01*
X56464200Y-96931508D01*
X56464200Y-95859778D01*
X57535930Y-95859778D01*
X57607379Y-95859778D01*
G37*
G36*
X55606816Y-99217866D02*
G01*
X55606816Y-100289596D01*
X55463919Y-100289596D01*
X55321022Y-100289596D01*
X55321022Y-99360763D01*
X55321022Y-98431930D01*
X54892330Y-98431930D01*
X54463638Y-98431930D01*
X54463638Y-99217866D01*
X54463638Y-100003801D01*
X54597604Y-100003801D01*
X54731570Y-100003801D01*
X54731570Y-99369694D01*
X54731570Y-98735587D01*
X54874467Y-98735587D01*
X55017365Y-98735587D01*
X55017365Y-99512591D01*
X55017365Y-100289596D01*
X54597604Y-100289596D01*
X54177843Y-100289596D01*
X54177843Y-99217866D01*
X54177843Y-98146136D01*
X54892330Y-98146136D01*
X55606816Y-98146136D01*
X55606816Y-99217866D01*
G37*
G36*
X56749995Y-101361326D02*
G01*
X56749995Y-102290158D01*
X56892892Y-102290158D01*
X57035790Y-102290158D01*
X57035790Y-101361326D01*
X57035790Y-100432493D01*
X57464482Y-100432493D01*
X57893174Y-100432493D01*
X57893174Y-101504223D01*
X57893174Y-102575953D01*
X57750276Y-102575953D01*
X57607379Y-102575953D01*
X57607379Y-101647120D01*
X57607379Y-100718288D01*
X57464482Y-100718288D01*
X57321584Y-100718288D01*
X57321584Y-101647120D01*
X57321584Y-102575953D01*
X56892892Y-102575953D01*
X56464200Y-102575953D01*
X56464200Y-101504223D01*
X56464200Y-100432493D01*
X56607098Y-100432493D01*
X56749995Y-100432493D01*
X56749995Y-101361326D01*
G37*
G36*
X57035790Y-89000707D02*
G01*
X57321584Y-89000707D01*
X57321584Y-89929539D01*
X57321584Y-90858372D01*
X57464482Y-90858372D01*
X57607379Y-90858372D01*
X57607379Y-89929539D01*
X57607379Y-89000707D01*
X57750276Y-89000707D01*
X57893174Y-89000707D01*
X57893174Y-90072437D01*
X57893174Y-91144167D01*
X57178687Y-91144167D01*
X56464200Y-91144167D01*
X56464200Y-90858372D01*
X56749995Y-90858372D01*
X56892892Y-90858372D01*
X57035790Y-90858372D01*
X57035790Y-90072437D01*
X57035790Y-89286501D01*
X56892892Y-89286501D01*
X56749995Y-89286501D01*
X56749995Y-90072437D01*
X56749995Y-90858372D01*
X56464200Y-90858372D01*
X56464200Y-90072437D01*
X56464200Y-89000707D01*
X56892892Y-89000707D01*
X57035790Y-89000707D01*
G37*
G36*
X57035790Y-93573421D02*
G01*
X57321584Y-93573421D01*
X57321584Y-94502254D01*
X57321584Y-95431086D01*
X57464482Y-95431086D01*
X57607379Y-95431086D01*
X57607379Y-94502254D01*
X57607379Y-93573421D01*
X57750276Y-93573421D01*
X57893174Y-93573421D01*
X57893174Y-94645151D01*
X57893174Y-95716881D01*
X57178687Y-95716881D01*
X56464200Y-95716881D01*
X56464200Y-95431086D01*
X56749995Y-95431086D01*
X56892892Y-95431086D01*
X57035790Y-95431086D01*
X57035790Y-94645151D01*
X57035790Y-93859216D01*
X56892892Y-93859216D01*
X56749995Y-93859216D01*
X56749995Y-94645151D01*
X56749995Y-95431086D01*
X56464200Y-95431086D01*
X56464200Y-94645151D01*
X56464200Y-93573421D01*
X56892892Y-93573421D01*
X57035790Y-93573421D01*
G37*
G36*
X57035790Y-98146136D02*
G01*
X57321584Y-98146136D01*
X57321584Y-99074968D01*
X57321584Y-100003801D01*
X57464482Y-100003801D01*
X57607379Y-100003801D01*
X57607379Y-99074968D01*
X57607379Y-98146136D01*
X57750276Y-98146136D01*
X57893174Y-98146136D01*
X57893174Y-99217866D01*
X57893174Y-100289596D01*
X57178687Y-100289596D01*
X56464200Y-100289596D01*
X56464200Y-100003801D01*
X56749995Y-100003801D01*
X56892892Y-100003801D01*
X57035790Y-100003801D01*
X57035790Y-99217866D01*
X57035790Y-98431930D01*
X56892892Y-98431930D01*
X56749995Y-98431930D01*
X56749995Y-99217866D01*
X56749995Y-100003801D01*
X56464200Y-100003801D01*
X56464200Y-99217866D01*
X56464200Y-98146136D01*
X56892892Y-98146136D01*
X57035790Y-98146136D01*
G37*
%TO.C,C72*%
X62376267Y-86235000D02*
X62083733Y-86235000D01*
X62376267Y-85215000D02*
X62083733Y-85215000D01*
%TO.C,BTN4*%
X113898000Y-110904000D02*
X113898000Y-107004000D01*
X113898000Y-110904000D02*
X106178000Y-110904000D01*
X113898000Y-104404000D02*
X113898000Y-103894000D01*
X113898000Y-103894000D02*
X113378000Y-103894000D01*
X113378000Y-107234000D02*
X113378000Y-107004000D01*
X113378000Y-107234000D02*
X112838000Y-107234000D01*
X113378000Y-104404000D02*
X113378000Y-103894000D01*
X111738000Y-107234000D02*
X108338000Y-107234000D01*
X107238000Y-107234000D02*
X106698000Y-107234000D01*
X106698000Y-107234000D02*
X106698000Y-107004000D01*
X106698000Y-104404000D02*
X106698000Y-103894000D01*
X106698000Y-103894000D02*
X106178000Y-103894000D01*
X106178000Y-110904000D02*
X106178000Y-107004000D01*
X106178000Y-104404000D02*
X106178000Y-103894000D01*
%TO.C,U9*%
X103365000Y-76691000D02*
X103745000Y-76691000D01*
X103745000Y-76691000D02*
X103745000Y-77851000D01*
X121995000Y-76691000D02*
X121615000Y-76691000D01*
X103365000Y-71501000D02*
X103365000Y-76691000D01*
X103365000Y-71501000D02*
X103365000Y-66311000D01*
X121995000Y-71501000D02*
X121995000Y-76691000D01*
X121995000Y-71501000D02*
X121995000Y-66311000D01*
X103365000Y-66311000D02*
X103745000Y-66311000D01*
X121995000Y-66311000D02*
X121615000Y-66311000D01*
%TO.C,C45*%
X66821267Y-95125000D02*
X66528733Y-95125000D01*
X66821267Y-94105000D02*
X66528733Y-94105000D01*
%TO.C,C65*%
X88906133Y-88288400D02*
X89198667Y-88288400D01*
X88906133Y-89308400D02*
X89198667Y-89308400D01*
%TO.C,C43*%
X95992733Y-60831000D02*
X96285267Y-60831000D01*
X95992733Y-61851000D02*
X96285267Y-61851000D01*
%TO.C,F1*%
X62859000Y-51848936D02*
X62859000Y-53053064D01*
X60139000Y-51848936D02*
X60139000Y-53053064D01*
%TO.C,J7*%
X69501000Y-45743000D02*
X69501000Y-43963000D01*
X67601000Y-48663000D02*
X68401000Y-48663000D01*
X60101000Y-45743000D02*
X60101000Y-43963000D01*
D10*
%TO.C,J5*%
X79018000Y-105388000D02*
X79018000Y-98188000D01*
X79018000Y-108188000D02*
X79018000Y-110488000D01*
X79018000Y-110488000D02*
X86368000Y-110488000D01*
X86368000Y-110488000D02*
X87718000Y-110538000D01*
X87718000Y-110538000D02*
X88868000Y-110688000D01*
X88418000Y-97788000D02*
X88418000Y-98088000D01*
X88418000Y-98088000D02*
X88718000Y-98088000D01*
X88718000Y-97788000D02*
X88418000Y-97788000D01*
X88718000Y-98088000D02*
X88718000Y-97788000D01*
X88868000Y-110688000D02*
X89968000Y-110888000D01*
X89168000Y-97188000D02*
X89168000Y-95888000D01*
X89168000Y-97188000D02*
X92168000Y-97188000D01*
X89968000Y-110888000D02*
X91018000Y-111188000D01*
X91018000Y-111188000D02*
X93718000Y-111188000D01*
X93718000Y-98188000D02*
X93718000Y-105388000D01*
X93718000Y-111188000D02*
X93718000Y-108188000D01*
D11*
%TO.C,BTN2*%
X56722000Y-56601000D02*
X56602000Y-56601000D01*
X55592000Y-56601000D02*
X54452000Y-56601000D01*
X53442000Y-56601000D02*
X53322000Y-56601000D01*
X53322000Y-56601000D02*
X53322000Y-61001000D01*
X56722000Y-61001000D02*
X56722000Y-56601000D01*
X56602000Y-61001000D02*
X56722000Y-61001000D01*
X54452000Y-61001000D02*
X55592000Y-61001000D01*
X53322000Y-61001000D02*
X53442000Y-61001000D01*
%TO.C,C63*%
X89198667Y-90832400D02*
X88906133Y-90832400D01*
X89198667Y-89812400D02*
X88906133Y-89812400D01*
%TO.C,TP13*%
X74106000Y-60147200D02*
G75*
G03*
X72706000Y-60147200I-700000J0D01*
G01*
X72706000Y-60147200D02*
G75*
G03*
X74106000Y-60147200I700000J0D01*
G01*
%TO.C,D1*%
X105709500Y-109346276D02*
X105709500Y-109855724D01*
X104664500Y-109346276D02*
X104664500Y-109855724D01*
%TO.C,U15*%
X65091000Y-91715000D02*
X65091000Y-91165000D01*
X65641000Y-85495000D02*
X65091000Y-85495000D01*
X65641000Y-91715000D02*
X65091000Y-91715000D01*
X70761000Y-85495000D02*
X71311000Y-85495000D01*
X70761000Y-91715000D02*
X71311000Y-91715000D01*
X71311000Y-85495000D02*
X71311000Y-86045000D01*
X71311000Y-91715000D02*
X71311000Y-91165000D01*
%TO.C,U8*%
X93318200Y-65849800D02*
X93318200Y-66084800D01*
X93318200Y-58104800D02*
X93318200Y-58579800D01*
X92843200Y-66324800D02*
X93018200Y-66324800D01*
X92843200Y-58104800D02*
X93318200Y-58104800D01*
X85573200Y-66324800D02*
X85098200Y-66324800D01*
X85573200Y-58104800D02*
X85098200Y-58104800D01*
X85098200Y-66324800D02*
X85098200Y-65849800D01*
X85098200Y-58104800D02*
X85098200Y-58579800D01*
X93558200Y-66654800D02*
X93078200Y-66654800D01*
X93318200Y-66324800D01*
X93558200Y-66654800D01*
G36*
X93558200Y-66654800D02*
G01*
X93078200Y-66654800D01*
X93318200Y-66324800D01*
X93558200Y-66654800D01*
G37*
%TO.C,J1*%
X100432000Y-40471000D02*
X99432000Y-40471000D01*
X100432000Y-39851000D02*
X100432000Y-40471000D01*
X99432000Y-51941000D02*
X99432000Y-54121000D01*
X99432000Y-40471000D02*
X99432000Y-48441000D01*
X98312000Y-56971000D02*
X87932000Y-56971000D01*
X96222000Y-57121000D02*
X97022000Y-57121000D01*
X86812000Y-51941000D02*
X86812000Y-54121000D01*
X86812000Y-48441000D02*
X86812000Y-40471000D01*
X86812000Y-40471000D02*
X85812000Y-40471000D01*
X85812000Y-40471000D02*
X85812000Y-39851000D01*
X85812000Y-39851000D02*
X100432000Y-39851000D01*
%TO.C,J2*%
X85700000Y-40471000D02*
X84700000Y-40471000D01*
X85700000Y-39851000D02*
X85700000Y-40471000D01*
X84700000Y-51941000D02*
X84700000Y-54121000D01*
X84700000Y-40471000D02*
X84700000Y-48441000D01*
X83580000Y-56971000D02*
X73200000Y-56971000D01*
X81490000Y-57121000D02*
X82290000Y-57121000D01*
X72080000Y-51941000D02*
X72080000Y-54121000D01*
X72080000Y-48441000D02*
X72080000Y-40471000D01*
X72080000Y-40471000D02*
X71080000Y-40471000D01*
X71080000Y-40471000D02*
X71080000Y-39851000D01*
X71080000Y-39851000D02*
X85700000Y-39851000D01*
%TO.C,C62*%
X77450733Y-88263000D02*
X77743267Y-88263000D01*
X77450733Y-89283000D02*
X77743267Y-89283000D01*
%TO.C,C68*%
X62376267Y-90807000D02*
X62083733Y-90807000D01*
X62376267Y-89787000D02*
X62083733Y-89787000D01*
D15*
%TO.C,J8*%
X122917470Y-62100460D02*
X122917470Y-61600080D01*
X122917470Y-61600080D02*
X122917470Y-56001920D01*
X122917470Y-56001920D02*
X122917470Y-55501540D01*
X122917470Y-55501540D02*
X122419630Y-55501540D01*
X122419630Y-62100460D02*
X122917470Y-62100460D01*
X122419630Y-62100460D02*
X120519710Y-62100460D01*
X122419630Y-55501540D02*
X112419650Y-55501540D01*
X118919510Y-62100460D02*
X117519970Y-62100460D01*
X115919770Y-62100460D02*
X113519470Y-62100460D01*
X110717850Y-62100460D02*
X111919270Y-62100460D01*
X110717850Y-62100460D02*
X110717850Y-55501540D01*
D11*
%TO.C,Y1*%
X53211000Y-63162000D02*
X53211000Y-67662000D01*
X53211000Y-67662000D02*
X58611000Y-67662000D01*
%TO.C,R36*%
X65577500Y-51434276D02*
X65577500Y-51943724D01*
X64532500Y-51434276D02*
X64532500Y-51943724D01*
%TO.C,R44*%
X77342276Y-91298500D02*
X77851724Y-91298500D01*
X77342276Y-92343500D02*
X77851724Y-92343500D01*
%TO.C,P3*%
X96456800Y-93372400D02*
X97586800Y-93372400D01*
X96456800Y-94132400D02*
X96456800Y-93372400D01*
X96456800Y-94892400D02*
X96456800Y-102447400D01*
X96456800Y-94892400D02*
X97023329Y-94892400D01*
X96456800Y-102447400D02*
X97279270Y-102447400D01*
X97894330Y-102447400D02*
X98549270Y-102447400D01*
X98150271Y-94892400D02*
X98293329Y-94892400D01*
X98346800Y-93437400D02*
X98549270Y-93437400D01*
X98346800Y-93568929D02*
X98346800Y-93437400D01*
X98346800Y-94838929D02*
X98346800Y-94695871D01*
X99164330Y-93437400D02*
X99986800Y-93437400D01*
X99164330Y-102447400D02*
X99986800Y-102447400D01*
X99986800Y-93437400D02*
X99986800Y-102447400D01*
D15*
%TO.C,J6*%
X122786660Y-101343460D02*
X122786660Y-100843080D01*
X122786660Y-100843080D02*
X122786660Y-95244920D01*
X122786660Y-95244920D02*
X122786660Y-94744540D01*
X122786660Y-94744540D02*
X122288820Y-94744540D01*
X122288820Y-101343460D02*
X122786660Y-101343460D01*
X122288820Y-101343460D02*
X120388900Y-101343460D01*
X122288820Y-94744540D02*
X112288840Y-94744540D01*
X118788700Y-101343460D02*
X117389160Y-101343460D01*
X115788960Y-101343460D02*
X113388660Y-101343460D01*
X110587040Y-101343460D02*
X111788460Y-101343460D01*
X110587040Y-101343460D02*
X110587040Y-94744540D01*
D11*
%TO.C,C67*%
X62376267Y-87759000D02*
X62083733Y-87759000D01*
X62376267Y-86739000D02*
X62083733Y-86739000D01*
%TO.C,D4*%
X95391500Y-109473276D02*
X95391500Y-109982724D01*
X94346500Y-109473276D02*
X94346500Y-109982724D01*
%TO.C,TP12*%
X74106000Y-62179200D02*
G75*
G03*
X72706000Y-62179200I-700000J0D01*
G01*
X72706000Y-62179200D02*
G75*
G03*
X74106000Y-62179200I700000J0D01*
G01*
%TO.C,J9*%
X66372200Y-56380400D02*
X66372200Y-55270400D01*
X67132200Y-56380400D02*
X66372200Y-56380400D01*
X67892200Y-56380400D02*
X69097200Y-56380400D01*
X67892200Y-56380400D02*
X67892200Y-55833871D01*
X69097200Y-56380400D02*
X69097200Y-55577930D01*
X69097200Y-54962870D02*
X69097200Y-54160400D01*
X67892200Y-54706929D02*
X67892200Y-54160400D01*
X67892200Y-54160400D02*
X69097200Y-54160400D01*
%TO.C,BTN3*%
X104246000Y-110953500D02*
X104246000Y-107053500D01*
X104246000Y-110953500D02*
X96526000Y-110953500D01*
X104246000Y-104453500D02*
X104246000Y-103943500D01*
X104246000Y-103943500D02*
X103726000Y-103943500D01*
X103726000Y-107283500D02*
X103726000Y-107053500D01*
X103726000Y-107283500D02*
X103186000Y-107283500D01*
X103726000Y-104453500D02*
X103726000Y-103943500D01*
X102086000Y-107283500D02*
X98686000Y-107283500D01*
X97586000Y-107283500D02*
X97046000Y-107283500D01*
X97046000Y-107283500D02*
X97046000Y-107053500D01*
X97046000Y-104453500D02*
X97046000Y-103943500D01*
X97046000Y-103943500D02*
X96526000Y-103943500D01*
X96526000Y-110953500D02*
X96526000Y-107053500D01*
X96526000Y-104453500D02*
X96526000Y-103943500D01*
%TO.C,U10*%
X103354000Y-90661000D02*
X103734000Y-90661000D01*
X103734000Y-90661000D02*
X103734000Y-91821000D01*
X121984000Y-90661000D02*
X121604000Y-90661000D01*
X103354000Y-85471000D02*
X103354000Y-90661000D01*
X103354000Y-85471000D02*
X103354000Y-80281000D01*
X121984000Y-85471000D02*
X121984000Y-90661000D01*
X121984000Y-85471000D02*
X121984000Y-80281000D01*
X103354000Y-80281000D02*
X103734000Y-80281000D01*
X121984000Y-80281000D02*
X121604000Y-80281000D01*
%TO.C,J10*%
X107602000Y-60149200D02*
X108712000Y-60149200D01*
X107602000Y-60909200D02*
X107602000Y-60149200D01*
X107602000Y-61669200D02*
X107602000Y-64144200D01*
X107602000Y-61669200D02*
X108148529Y-61669200D01*
X107602000Y-64144200D02*
X108404470Y-64144200D01*
X109019530Y-64144200D02*
X109822000Y-64144200D01*
X109275471Y-61669200D02*
X109822000Y-61669200D01*
X109822000Y-61669200D02*
X109822000Y-64144200D01*
%TO.C,C70*%
X74021733Y-89787000D02*
X74314267Y-89787000D01*
X74021733Y-90807000D02*
X74314267Y-90807000D01*
%TO.C,BTN1*%
X56722000Y-50124000D02*
X56602000Y-50124000D01*
X55592000Y-50124000D02*
X54452000Y-50124000D01*
X53442000Y-50124000D02*
X53322000Y-50124000D01*
X53322000Y-50124000D02*
X53322000Y-54524000D01*
X56722000Y-54524000D02*
X56722000Y-50124000D01*
X56602000Y-54524000D02*
X56722000Y-54524000D01*
X54452000Y-54524000D02*
X55592000Y-54524000D01*
X53322000Y-54524000D02*
X53442000Y-54524000D01*
%TO.C,C39*%
X99189000Y-60432733D02*
X99189000Y-60725267D01*
X98169000Y-60432733D02*
X98169000Y-60725267D01*
%TO.C,R16*%
X96393724Y-60212500D02*
X95884276Y-60212500D01*
X96393724Y-59167500D02*
X95884276Y-59167500D01*
%TO.C,C73*%
X62376267Y-89283000D02*
X62083733Y-89283000D01*
X62376267Y-88263000D02*
X62083733Y-88263000D01*
%TO.C,D3*%
X78023500Y-109473276D02*
X78023500Y-109982724D01*
X76978500Y-109473276D02*
X76978500Y-109982724D01*
%TO.C,J3*%
X103653000Y-53008000D02*
X103653000Y-52258000D01*
X103653000Y-52258000D02*
X101853000Y-52258000D01*
X115253000Y-52258000D02*
X113453000Y-52258000D01*
X100943000Y-48708000D02*
X100943000Y-45908000D01*
X116163000Y-48708000D02*
X116163000Y-45908000D01*
X100943000Y-43208000D02*
X100943000Y-41108000D01*
X116163000Y-43208000D02*
X116163000Y-41108000D01*
%TO.C,C46*%
X84347267Y-95125000D02*
X84054733Y-95125000D01*
X84347267Y-94105000D02*
X84054733Y-94105000D01*
%TO.C,R45*%
X73913276Y-88250500D02*
X74422724Y-88250500D01*
X73913276Y-89295500D02*
X74422724Y-89295500D01*
%TO.C,R43*%
X77342276Y-89774500D02*
X77851724Y-89774500D01*
X77342276Y-90819500D02*
X77851724Y-90819500D01*
%TO.C,C38*%
X82061267Y-60200000D02*
X81768733Y-60200000D01*
X82061267Y-59180000D02*
X81768733Y-59180000D01*
%TO.C,C66*%
X89198667Y-92381800D02*
X88906133Y-92381800D01*
X89198667Y-91361800D02*
X88906133Y-91361800D01*
%TO.C,P1*%
X99073000Y-77573600D02*
X100203000Y-77573600D01*
X99073000Y-78333600D02*
X99073000Y-77573600D01*
X99073000Y-79093600D02*
X99073000Y-81568600D01*
X99073000Y-79093600D02*
X99639529Y-79093600D01*
X99073000Y-81568600D02*
X99895470Y-81568600D01*
X100510530Y-81568600D02*
X101165470Y-81568600D01*
X100766471Y-79093600D02*
X100909529Y-79093600D01*
X100963000Y-77638600D02*
X101165470Y-77638600D01*
X100963000Y-77770129D02*
X100963000Y-77638600D01*
X100963000Y-79040129D02*
X100963000Y-78897071D01*
X101780530Y-77638600D02*
X102603000Y-77638600D01*
X101780530Y-81568600D02*
X102603000Y-81568600D01*
X102603000Y-77638600D02*
X102603000Y-81568600D01*
%TO.C,U3*%
X61440000Y-66480000D02*
X61440000Y-65830000D01*
X62090000Y-59260000D02*
X61440000Y-59260000D01*
X62090000Y-66480000D02*
X61440000Y-66480000D01*
X68010000Y-59260000D02*
X68660000Y-59260000D01*
X68010000Y-66480000D02*
X68660000Y-66480000D01*
X68660000Y-59260000D02*
X68660000Y-59910000D01*
X68660000Y-66480000D02*
X68660000Y-65830000D01*
%TO.C,C71*%
X74021733Y-92835000D02*
X74314267Y-92835000D01*
X74021733Y-93855000D02*
X74314267Y-93855000D01*
%TO.C,R15*%
X100852500Y-60324276D02*
X100852500Y-60833724D01*
X99807500Y-60324276D02*
X99807500Y-60833724D01*
%TO.C,TP11*%
X74131400Y-64211200D02*
G75*
G03*
X72731400Y-64211200I-700000J0D01*
G01*
X72731400Y-64211200D02*
G75*
G03*
X74131400Y-64211200I700000J0D01*
G01*
%TO.C,P2*%
X104229200Y-95887000D02*
X105359200Y-95887000D01*
X104229200Y-96647000D02*
X104229200Y-95887000D01*
X104229200Y-97407000D02*
X104229200Y-102422000D01*
X104229200Y-97407000D02*
X104795729Y-97407000D01*
X104229200Y-102422000D02*
X105051670Y-102422000D01*
X105666730Y-102422000D02*
X106321670Y-102422000D01*
X105922671Y-97407000D02*
X106065729Y-97407000D01*
X106119200Y-95952000D02*
X106321670Y-95952000D01*
X106119200Y-96083529D02*
X106119200Y-95952000D01*
X106119200Y-97353529D02*
X106119200Y-97210471D01*
X106936730Y-95952000D02*
X107759200Y-95952000D01*
X106936730Y-102422000D02*
X107759200Y-102422000D01*
X107759200Y-95952000D02*
X107759200Y-102422000D01*
%TD*%
M02*
