%TF.GenerationSoftware,KiCad,Pcbnew,7.0.11-7.0.11~ubuntu22.04.1*%
%TF.CreationDate,2024-06-18T23:44:43+03:00*%
%TF.ProjectId,karabas-mini,6b617261-6261-4732-9d6d-696e692e6b69,rev?*%
%TF.SameCoordinates,Original*%
%TF.FileFunction,Legend,Bot*%
%TF.FilePolarity,Positive*%
%FSLAX46Y46*%
G04 Gerber Fmt 4.6, Leading zero omitted, Abs format (unit mm)*
G04 Created by KiCad (PCBNEW 7.0.11-7.0.11~ubuntu22.04.1) date 2024-06-18 23:44:43*
%MOMM*%
%LPD*%
G01*
G04 APERTURE LIST*
%ADD10C,0.150000*%
%ADD11C,0.120000*%
%ADD12C,0.127000*%
%ADD13C,0.200000*%
%ADD14C,0.300000*%
G04 APERTURE END LIST*
D10*
G36*
X76125229Y-71283876D02*
G01*
X73642183Y-71283876D01*
X73642183Y-70875542D01*
X73785040Y-70875542D01*
X73786573Y-70879755D01*
X73785532Y-70884116D01*
X73792958Y-70909083D01*
X73840577Y-71004321D01*
X73841765Y-71005446D01*
X73854625Y-71023812D01*
X73902244Y-71071432D01*
X73903725Y-71072122D01*
X73921737Y-71085482D01*
X74016975Y-71133101D01*
X74021428Y-71133613D01*
X74024864Y-71136496D01*
X74050516Y-71141019D01*
X74336230Y-71141019D01*
X74340443Y-71139485D01*
X74344804Y-71140527D01*
X74369771Y-71133101D01*
X74465009Y-71085482D01*
X74466133Y-71084294D01*
X74484502Y-71071432D01*
X74532120Y-71023813D01*
X74537692Y-71011864D01*
X74737706Y-71011864D01*
X74742748Y-71030684D01*
X74744447Y-71050096D01*
X74750120Y-71058198D01*
X74750983Y-71061419D01*
X74753714Y-71063331D01*
X74759387Y-71071433D01*
X74807006Y-71119052D01*
X74824664Y-71127285D01*
X74840628Y-71138464D01*
X74844044Y-71138165D01*
X74847015Y-71139880D01*
X74850394Y-71139284D01*
X74853502Y-71140733D01*
X74872321Y-71135690D01*
X74891735Y-71133992D01*
X74895548Y-71131322D01*
X74897539Y-71130971D01*
X74899660Y-71128442D01*
X74899837Y-71128318D01*
X74903057Y-71127456D01*
X74904968Y-71124726D01*
X74913072Y-71119052D01*
X74960691Y-71071433D01*
X74968925Y-71053774D01*
X74980102Y-71037812D01*
X74979512Y-71031069D01*
X74982372Y-71024937D01*
X74977329Y-71006118D01*
X74975632Y-70986705D01*
X74969957Y-70978600D01*
X74969095Y-70975382D01*
X74966365Y-70973470D01*
X74960691Y-70965367D01*
X74913073Y-70917748D01*
X74895415Y-70909514D01*
X74879450Y-70898335D01*
X74876033Y-70898633D01*
X74873063Y-70896919D01*
X74869683Y-70897514D01*
X74866576Y-70896066D01*
X74847756Y-70901108D01*
X74828342Y-70902807D01*
X74824528Y-70905477D01*
X74822539Y-70905828D01*
X74820417Y-70908355D01*
X74820239Y-70908480D01*
X74817021Y-70909343D01*
X74815109Y-70912072D01*
X74807005Y-70917748D01*
X74759386Y-70965368D01*
X74751152Y-70983025D01*
X74739975Y-70998989D01*
X74740565Y-71005732D01*
X74737706Y-71011864D01*
X74537692Y-71011864D01*
X74553801Y-70977316D01*
X74540523Y-70927761D01*
X74498498Y-70898335D01*
X74447390Y-70902807D01*
X74426053Y-70917748D01*
X74387040Y-70956761D01*
X74318525Y-70991019D01*
X74068221Y-70991019D01*
X73999705Y-70956761D01*
X73969298Y-70926353D01*
X73943892Y-70875542D01*
X75213611Y-70875542D01*
X75215144Y-70879755D01*
X75214103Y-70884116D01*
X75221529Y-70909083D01*
X75269148Y-71004321D01*
X75270336Y-71005446D01*
X75283196Y-71023812D01*
X75330815Y-71071432D01*
X75332296Y-71072122D01*
X75350308Y-71085482D01*
X75445546Y-71133101D01*
X75449999Y-71133613D01*
X75453435Y-71136496D01*
X75479087Y-71141019D01*
X75764801Y-71141019D01*
X75769014Y-71139485D01*
X75773375Y-71140527D01*
X75798342Y-71133101D01*
X75893580Y-71085482D01*
X75894704Y-71084294D01*
X75913073Y-71071432D01*
X75960691Y-71023813D01*
X75982372Y-70977316D01*
X75969094Y-70927761D01*
X75927069Y-70898335D01*
X75875961Y-70902807D01*
X75854624Y-70917748D01*
X75815611Y-70956761D01*
X75747096Y-70991019D01*
X75496792Y-70991019D01*
X75428276Y-70956761D01*
X75397869Y-70926353D01*
X75363611Y-70857837D01*
X75363611Y-70655152D01*
X75397869Y-70586636D01*
X75428276Y-70556229D01*
X75496792Y-70521971D01*
X75621944Y-70521971D01*
X75640943Y-70515055D01*
X75660780Y-70511133D01*
X75664530Y-70506470D01*
X75670153Y-70504424D01*
X75680262Y-70486914D01*
X75692937Y-70471159D01*
X75692813Y-70465176D01*
X75695805Y-70459995D01*
X75692293Y-70440081D01*
X75691875Y-70419867D01*
X75687435Y-70412533D01*
X75686896Y-70409471D01*
X75684226Y-70407231D01*
X75678387Y-70397583D01*
X75453893Y-70141019D01*
X75907658Y-70141019D01*
X75955867Y-70123472D01*
X75981519Y-70079043D01*
X75972610Y-70028519D01*
X75933310Y-69995542D01*
X75907658Y-69991019D01*
X75288611Y-69991019D01*
X75269611Y-69997934D01*
X75249775Y-70001857D01*
X75246024Y-70006519D01*
X75240402Y-70008566D01*
X75230291Y-70026077D01*
X75217618Y-70041832D01*
X75217741Y-70047813D01*
X75214750Y-70052995D01*
X75218261Y-70072908D01*
X75218680Y-70093123D01*
X75223119Y-70100456D01*
X75223659Y-70103519D01*
X75226328Y-70105758D01*
X75232168Y-70115407D01*
X75459863Y-70375630D01*
X75445546Y-70379889D01*
X75350308Y-70427508D01*
X75349182Y-70428697D01*
X75330816Y-70441557D01*
X75283197Y-70489176D01*
X75282506Y-70490657D01*
X75269148Y-70508668D01*
X75221529Y-70603906D01*
X75221016Y-70608359D01*
X75218134Y-70611795D01*
X75213611Y-70637447D01*
X75213611Y-70875542D01*
X73943892Y-70875542D01*
X73935040Y-70857837D01*
X73935040Y-70655152D01*
X73969298Y-70586636D01*
X73999705Y-70556229D01*
X74068221Y-70521971D01*
X74193373Y-70521971D01*
X74212372Y-70515055D01*
X74232209Y-70511133D01*
X74235959Y-70506470D01*
X74241582Y-70504424D01*
X74251691Y-70486914D01*
X74264366Y-70471159D01*
X74264242Y-70465176D01*
X74267234Y-70459995D01*
X74263722Y-70440081D01*
X74263304Y-70419867D01*
X74258864Y-70412533D01*
X74258325Y-70409471D01*
X74255655Y-70407231D01*
X74249816Y-70397583D01*
X74025322Y-70141019D01*
X74479087Y-70141019D01*
X74527296Y-70123472D01*
X74552948Y-70079043D01*
X74544039Y-70028519D01*
X74504739Y-69995542D01*
X74479087Y-69991019D01*
X73860040Y-69991019D01*
X73841040Y-69997934D01*
X73821204Y-70001857D01*
X73817453Y-70006519D01*
X73811831Y-70008566D01*
X73801720Y-70026077D01*
X73789047Y-70041832D01*
X73789170Y-70047813D01*
X73786179Y-70052995D01*
X73789690Y-70072908D01*
X73790109Y-70093123D01*
X73794548Y-70100456D01*
X73795088Y-70103519D01*
X73797757Y-70105758D01*
X73803597Y-70115407D01*
X74031292Y-70375630D01*
X74016975Y-70379889D01*
X73921737Y-70427508D01*
X73920611Y-70428697D01*
X73902245Y-70441557D01*
X73854626Y-70489176D01*
X73853935Y-70490657D01*
X73840577Y-70508668D01*
X73792958Y-70603906D01*
X73792445Y-70608359D01*
X73789563Y-70611795D01*
X73785040Y-70637447D01*
X73785040Y-70875542D01*
X73642183Y-70875542D01*
X73642183Y-69848162D01*
X76125229Y-69848162D01*
X76125229Y-71283876D01*
G37*
G36*
X54719182Y-71372019D02*
G01*
X54568257Y-71372019D01*
X54453744Y-71333848D01*
X54379631Y-71259734D01*
X54341137Y-71182747D01*
X54297754Y-71009213D01*
X54297754Y-70884824D01*
X54341137Y-70711290D01*
X54379631Y-70634303D01*
X54453744Y-70560190D01*
X54568257Y-70522019D01*
X54719182Y-70522019D01*
X54719182Y-71372019D01*
G37*
G36*
X57154896Y-71664876D02*
G01*
X54004897Y-71664876D01*
X54004897Y-71018447D01*
X54147754Y-71018447D01*
X54148939Y-71021704D01*
X54149993Y-71036637D01*
X54197612Y-71227113D01*
X54199600Y-71230057D01*
X54203291Y-71242464D01*
X54250910Y-71337702D01*
X54252096Y-71338825D01*
X54264959Y-71357194D01*
X54360197Y-71452433D01*
X54364261Y-71454328D01*
X54366608Y-71458148D01*
X54389513Y-71470551D01*
X54532369Y-71518170D01*
X54534004Y-71518125D01*
X54556087Y-71522019D01*
X54794182Y-71522019D01*
X54812490Y-71515355D01*
X54831682Y-71511971D01*
X54836032Y-71506786D01*
X54842391Y-71504472D01*
X54852133Y-71487598D01*
X54864659Y-71472671D01*
X54866376Y-71462928D01*
X54868043Y-71460043D01*
X54867464Y-71456760D01*
X54869182Y-71447019D01*
X54869182Y-70447019D01*
X54866041Y-70438388D01*
X55100633Y-70438388D01*
X55102175Y-70464391D01*
X55340270Y-71464391D01*
X55344599Y-71470959D01*
X55345295Y-71478797D01*
X55358355Y-71491826D01*
X55368506Y-71507224D01*
X55376044Y-71509472D01*
X55381615Y-71515030D01*
X55399991Y-71516615D01*
X55417668Y-71521888D01*
X55424890Y-71518763D01*
X55432728Y-71519440D01*
X55447824Y-71508842D01*
X55464754Y-71501519D01*
X55468277Y-71494484D01*
X55474718Y-71489964D01*
X55485698Y-71466344D01*
X55603705Y-71023813D01*
X55721714Y-71466344D01*
X55726219Y-71472795D01*
X55727125Y-71480610D01*
X55740530Y-71493283D01*
X55751091Y-71508404D01*
X55758685Y-71510448D01*
X55764404Y-71515855D01*
X55782817Y-71516946D01*
X55800629Y-71521742D01*
X55807765Y-71518424D01*
X55815618Y-71518890D01*
X55830421Y-71507893D01*
X55847152Y-71500116D01*
X55850486Y-71492987D01*
X55856801Y-71488297D01*
X55867142Y-71464391D01*
X55916630Y-71256542D01*
X56290611Y-71256542D01*
X56292144Y-71260755D01*
X56291103Y-71265116D01*
X56298529Y-71290083D01*
X56346148Y-71385321D01*
X56347336Y-71386446D01*
X56360196Y-71404812D01*
X56407815Y-71452432D01*
X56409296Y-71453122D01*
X56427308Y-71466482D01*
X56522546Y-71514101D01*
X56526999Y-71514613D01*
X56530435Y-71517496D01*
X56556087Y-71522019D01*
X56794182Y-71522019D01*
X56795720Y-71521458D01*
X56817899Y-71518170D01*
X56960756Y-71470551D01*
X57000942Y-71438660D01*
X57011228Y-71388399D01*
X56986799Y-71343285D01*
X56939087Y-71324428D01*
X56913321Y-71328249D01*
X56782012Y-71372019D01*
X56573792Y-71372019D01*
X56505276Y-71337761D01*
X56474869Y-71307353D01*
X56440611Y-71238837D01*
X56440611Y-71179009D01*
X56474869Y-71110493D01*
X56505276Y-71080086D01*
X56582263Y-71041592D01*
X56764753Y-70995970D01*
X56767697Y-70993981D01*
X56780104Y-70990291D01*
X56875342Y-70942672D01*
X56876467Y-70941482D01*
X56894834Y-70928623D01*
X56942453Y-70881004D01*
X56943144Y-70879522D01*
X56956502Y-70861512D01*
X57004121Y-70766274D01*
X57004633Y-70761820D01*
X57007516Y-70758385D01*
X57012039Y-70732733D01*
X57012039Y-70637495D01*
X57010505Y-70633281D01*
X57011547Y-70628920D01*
X57004121Y-70603954D01*
X56956502Y-70508716D01*
X56955312Y-70507590D01*
X56942453Y-70489224D01*
X56894834Y-70441605D01*
X56893352Y-70440914D01*
X56875342Y-70427556D01*
X56780104Y-70379937D01*
X56775650Y-70379424D01*
X56772215Y-70376542D01*
X56746563Y-70372019D01*
X56508468Y-70372019D01*
X56506930Y-70372578D01*
X56484750Y-70375868D01*
X56341894Y-70423487D01*
X56301708Y-70455378D01*
X56291422Y-70505639D01*
X56315851Y-70550753D01*
X56363562Y-70569610D01*
X56389328Y-70565789D01*
X56520638Y-70522019D01*
X56728858Y-70522019D01*
X56797374Y-70556277D01*
X56827781Y-70586684D01*
X56862039Y-70655200D01*
X56862039Y-70715028D01*
X56827781Y-70783544D01*
X56797374Y-70813951D01*
X56720387Y-70852444D01*
X56537897Y-70898067D01*
X56534952Y-70900055D01*
X56522546Y-70903746D01*
X56427308Y-70951365D01*
X56426182Y-70952554D01*
X56407816Y-70965414D01*
X56360197Y-71013033D01*
X56359506Y-71014514D01*
X56346148Y-71032525D01*
X56298529Y-71127763D01*
X56298016Y-71132216D01*
X56295134Y-71135652D01*
X56290611Y-71161304D01*
X56290611Y-71256542D01*
X55916630Y-71256542D01*
X56105237Y-70464390D01*
X56099334Y-70413428D01*
X56062055Y-70378183D01*
X56010841Y-70375147D01*
X55969658Y-70405741D01*
X55959317Y-70429647D01*
X55790065Y-71140503D01*
X55676174Y-70713408D01*
X55672246Y-70707785D01*
X55671641Y-70700955D01*
X55657903Y-70687249D01*
X55646797Y-70671348D01*
X55640178Y-70669565D01*
X55635322Y-70664721D01*
X55615988Y-70663052D01*
X55597259Y-70658010D01*
X55591040Y-70660900D01*
X55584208Y-70660311D01*
X55568328Y-70671458D01*
X55550737Y-70679636D01*
X55547831Y-70685847D01*
X55542218Y-70689788D01*
X55531238Y-70713408D01*
X55417346Y-71140503D01*
X55248095Y-70429647D01*
X55219859Y-70386814D01*
X55170697Y-70372150D01*
X55123611Y-70392519D01*
X55100633Y-70438388D01*
X54866041Y-70438388D01*
X54862518Y-70428710D01*
X54859134Y-70409519D01*
X54853949Y-70405168D01*
X54851635Y-70398810D01*
X54834761Y-70389067D01*
X54819834Y-70376542D01*
X54810091Y-70374824D01*
X54807206Y-70373158D01*
X54803923Y-70373736D01*
X54794182Y-70372019D01*
X54556087Y-70372019D01*
X54554549Y-70372578D01*
X54532369Y-70375868D01*
X54389513Y-70423487D01*
X54386002Y-70426273D01*
X54381534Y-70426664D01*
X54360197Y-70441605D01*
X54264959Y-70536843D01*
X54264268Y-70538324D01*
X54250910Y-70556335D01*
X54203291Y-70651573D01*
X54202884Y-70655101D01*
X54197612Y-70666924D01*
X54149993Y-70857400D01*
X54150353Y-70860848D01*
X54147754Y-70875590D01*
X54147754Y-71018447D01*
X54004897Y-71018447D01*
X54004897Y-70229162D01*
X57154896Y-70229162D01*
X57154896Y-71664876D01*
G37*
G36*
X84622311Y-104027127D02*
G01*
X84625747Y-104030010D01*
X84651399Y-104034533D01*
X84895599Y-104034533D01*
X84962164Y-104067815D01*
X84995447Y-104134381D01*
X84995447Y-104203733D01*
X84962164Y-104270298D01*
X84895599Y-104303580D01*
X84669103Y-104303580D01*
X84621637Y-104279847D01*
X84621637Y-104027049D01*
X84622311Y-104027127D01*
G37*
G36*
X85938304Y-103743980D02*
G01*
X85938304Y-104279847D01*
X85890837Y-104303580D01*
X85716722Y-104303580D01*
X85638682Y-104264560D01*
X85603514Y-104229392D01*
X85564494Y-104151352D01*
X85564494Y-103872476D01*
X85603514Y-103794436D01*
X85638683Y-103759267D01*
X85716723Y-103720247D01*
X85890837Y-103720247D01*
X85938304Y-103743980D01*
G37*
G36*
X86612787Y-104027127D02*
G01*
X86616223Y-104030010D01*
X86641875Y-104034533D01*
X86886075Y-104034533D01*
X86952640Y-104067815D01*
X86985923Y-104134381D01*
X86985923Y-104203733D01*
X86952640Y-104270298D01*
X86886075Y-104303580D01*
X86659579Y-104303580D01*
X86612113Y-104279847D01*
X86612113Y-104027049D01*
X86612787Y-104027127D01*
G37*
G36*
X88288977Y-104027127D02*
G01*
X88292413Y-104030010D01*
X88318065Y-104034533D01*
X88562265Y-104034533D01*
X88628830Y-104067815D01*
X88662113Y-104134381D01*
X88662113Y-104203733D01*
X88628830Y-104270298D01*
X88562265Y-104303580D01*
X88335769Y-104303580D01*
X88288303Y-104279847D01*
X88288303Y-104027049D01*
X88288977Y-104027127D01*
G37*
G36*
X81407353Y-101972980D02*
G01*
X81407353Y-102508847D01*
X81359886Y-102532580D01*
X81185771Y-102532580D01*
X81107731Y-102493560D01*
X81072563Y-102458392D01*
X81033543Y-102380352D01*
X81033543Y-102101476D01*
X81072563Y-102023436D01*
X81107732Y-101988267D01*
X81185772Y-101949247D01*
X81359886Y-101949247D01*
X81407353Y-101972980D01*
G37*
G36*
X95178713Y-101473815D02*
G01*
X95413399Y-101614626D01*
X95554211Y-101849312D01*
X95601104Y-102083771D01*
X95554211Y-102318229D01*
X95413399Y-102552914D01*
X95178713Y-102693726D01*
X94944252Y-102740618D01*
X94709797Y-102693726D01*
X94475111Y-102552914D01*
X94384892Y-102402550D01*
X94659867Y-102402550D01*
X94680270Y-102449621D01*
X94701191Y-102465139D01*
X94805952Y-102517520D01*
X94810405Y-102518032D01*
X94813841Y-102520915D01*
X94839493Y-102525438D01*
X95049017Y-102525438D01*
X95053230Y-102523904D01*
X95057591Y-102524946D01*
X95082558Y-102517520D01*
X95187320Y-102465139D01*
X95188445Y-102463949D01*
X95206812Y-102451090D01*
X95311574Y-102346328D01*
X95312264Y-102344846D01*
X95325623Y-102326836D01*
X95378004Y-102222074D01*
X95378516Y-102217620D01*
X95381399Y-102214185D01*
X95385922Y-102188533D01*
X95385922Y-101979009D01*
X95384388Y-101974795D01*
X95385430Y-101970434D01*
X95378004Y-101945468D01*
X95325623Y-101840706D01*
X95324436Y-101839582D01*
X95311574Y-101821214D01*
X95206812Y-101716452D01*
X95205330Y-101715761D01*
X95187320Y-101702403D01*
X95082558Y-101650022D01*
X95078104Y-101649509D01*
X95074669Y-101646627D01*
X95049017Y-101642104D01*
X94839493Y-101642104D01*
X94835281Y-101643637D01*
X94830919Y-101642595D01*
X94805952Y-101650022D01*
X94701191Y-101702403D01*
X94665919Y-101739657D01*
X94662844Y-101790868D01*
X94693408Y-101832074D01*
X94743307Y-101843993D01*
X94768273Y-101836567D01*
X94857199Y-101792104D01*
X95031312Y-101792104D01*
X95109352Y-101831124D01*
X95196902Y-101918674D01*
X95235922Y-101996714D01*
X95235922Y-102170828D01*
X95196902Y-102248868D01*
X95109352Y-102336418D01*
X95031312Y-102375438D01*
X94857199Y-102375438D01*
X94768273Y-102330975D01*
X94717307Y-102325110D01*
X94674493Y-102353376D01*
X94659867Y-102402550D01*
X94384892Y-102402550D01*
X94334299Y-102318229D01*
X94287407Y-102083771D01*
X94334299Y-101849312D01*
X94475111Y-101614626D01*
X94709797Y-101473815D01*
X94944252Y-101426923D01*
X95178713Y-101473815D01*
G37*
G36*
X80390307Y-101988267D02*
G01*
X80425476Y-102023436D01*
X80464496Y-102101476D01*
X80464496Y-102380352D01*
X80425476Y-102458392D01*
X80390307Y-102493560D01*
X80312267Y-102532580D01*
X80190533Y-102532580D01*
X80112493Y-102493560D01*
X80077325Y-102458392D01*
X80038305Y-102380352D01*
X80038305Y-102101476D01*
X80077325Y-102023436D01*
X80112494Y-101988267D01*
X80190534Y-101949247D01*
X80312267Y-101949247D01*
X80390307Y-101988267D01*
G37*
G36*
X82762788Y-102256127D02*
G01*
X82766224Y-102259010D01*
X82791876Y-102263533D01*
X83036076Y-102263533D01*
X83102641Y-102296815D01*
X83135924Y-102363381D01*
X83135924Y-102432733D01*
X83102641Y-102499298D01*
X83036076Y-102532580D01*
X82809580Y-102532580D01*
X82762114Y-102508847D01*
X82762114Y-102256049D01*
X82762788Y-102256127D01*
G37*
G36*
X85785544Y-101988267D02*
G01*
X85820713Y-102023436D01*
X85859733Y-102101476D01*
X85859733Y-102380352D01*
X85820713Y-102458392D01*
X85785544Y-102493560D01*
X85707504Y-102532580D01*
X85533389Y-102532580D01*
X85485923Y-102508847D01*
X85485923Y-101972980D01*
X85533390Y-101949247D01*
X85707504Y-101949247D01*
X85785544Y-101988267D01*
G37*
G36*
X87477073Y-102256127D02*
G01*
X87480509Y-102259010D01*
X87506161Y-102263533D01*
X87750361Y-102263533D01*
X87816926Y-102296815D01*
X87850209Y-102363381D01*
X87850209Y-102432733D01*
X87816926Y-102499298D01*
X87750361Y-102532580D01*
X87523865Y-102532580D01*
X87476399Y-102508847D01*
X87476399Y-102256049D01*
X87477073Y-102256127D01*
G37*
G36*
X91704591Y-101621600D02*
G01*
X91739760Y-101656769D01*
X91783015Y-101743280D01*
X91831161Y-101935862D01*
X91831161Y-102179299D01*
X91783015Y-102371881D01*
X91739760Y-102458392D01*
X91704591Y-102493560D01*
X91626551Y-102532580D01*
X91557198Y-102532580D01*
X91479158Y-102493560D01*
X91443990Y-102458392D01*
X91400734Y-102371881D01*
X91352589Y-102179298D01*
X91352589Y-101935862D01*
X91400734Y-101743279D01*
X91443990Y-101656769D01*
X91479159Y-101621600D01*
X91557199Y-101582580D01*
X91626551Y-101582580D01*
X91704591Y-101621600D01*
G37*
G36*
X95908871Y-104610723D02*
G01*
X78840687Y-104610723D01*
X78840687Y-104382675D01*
X81119368Y-104382675D01*
X81139520Y-104429854D01*
X81185285Y-104453042D01*
X81235246Y-104441388D01*
X81254256Y-104423580D01*
X81516656Y-104073713D01*
X81538304Y-104095361D01*
X81538304Y-104378580D01*
X81555851Y-104426789D01*
X81600280Y-104452441D01*
X81650804Y-104443532D01*
X81683781Y-104404232D01*
X81688304Y-104378580D01*
X82062113Y-104378580D01*
X82079660Y-104426789D01*
X82124089Y-104452441D01*
X82174613Y-104443532D01*
X82198801Y-104414705D01*
X82260715Y-104445662D01*
X82265168Y-104446174D01*
X82268604Y-104449057D01*
X82294256Y-104453580D01*
X82451399Y-104453580D01*
X82455611Y-104452046D01*
X82459973Y-104453089D01*
X82484940Y-104445662D01*
X82589701Y-104393282D01*
X82597420Y-104385128D01*
X82607726Y-104380662D01*
X82623243Y-104359741D01*
X82643282Y-104319664D01*
X83005257Y-104319664D01*
X83010299Y-104338483D01*
X83011998Y-104357897D01*
X83017671Y-104366000D01*
X83018534Y-104369218D01*
X83021262Y-104371128D01*
X83026938Y-104379234D01*
X83079319Y-104431613D01*
X83096977Y-104439846D01*
X83112940Y-104451024D01*
X83116356Y-104450725D01*
X83119328Y-104452441D01*
X83122708Y-104451844D01*
X83125816Y-104453294D01*
X83144633Y-104448251D01*
X83164047Y-104446554D01*
X83167861Y-104443882D01*
X83169852Y-104443532D01*
X83171972Y-104441004D01*
X83172153Y-104440878D01*
X83175371Y-104440016D01*
X83177281Y-104437287D01*
X83185385Y-104431614D01*
X83237765Y-104379234D01*
X83245998Y-104361578D01*
X83257178Y-104345612D01*
X83256588Y-104338868D01*
X83259447Y-104332737D01*
X83254405Y-104313920D01*
X83252707Y-104294504D01*
X83247032Y-104286399D01*
X83246170Y-104283182D01*
X83243440Y-104281270D01*
X83237766Y-104273167D01*
X83186037Y-104221438D01*
X83528780Y-104221438D01*
X83530313Y-104225651D01*
X83529272Y-104230012D01*
X83536698Y-104254979D01*
X83589079Y-104359741D01*
X83597232Y-104367460D01*
X83601699Y-104377765D01*
X83622620Y-104393282D01*
X83727382Y-104445662D01*
X83731835Y-104446174D01*
X83735271Y-104449057D01*
X83760923Y-104453580D01*
X83970447Y-104453580D01*
X83974659Y-104452046D01*
X83979021Y-104453089D01*
X84003988Y-104445662D01*
X84108749Y-104393282D01*
X84122669Y-104378580D01*
X84471637Y-104378580D01*
X84489184Y-104426789D01*
X84533613Y-104452441D01*
X84584137Y-104443532D01*
X84592844Y-104433155D01*
X84617858Y-104445662D01*
X84622311Y-104446174D01*
X84625747Y-104449057D01*
X84651399Y-104453580D01*
X84913304Y-104453580D01*
X84917516Y-104452046D01*
X84921878Y-104453089D01*
X84946845Y-104445662D01*
X85051606Y-104393282D01*
X85059325Y-104385128D01*
X85069631Y-104380662D01*
X85085148Y-104359741D01*
X85137529Y-104254979D01*
X85138041Y-104250525D01*
X85140924Y-104247090D01*
X85145447Y-104221438D01*
X85145447Y-104169057D01*
X85414494Y-104169057D01*
X85416027Y-104173270D01*
X85414986Y-104177631D01*
X85422412Y-104202598D01*
X85474793Y-104307360D01*
X85475982Y-104308485D01*
X85488842Y-104326852D01*
X85541223Y-104379233D01*
X85542704Y-104379923D01*
X85560715Y-104393282D01*
X85665477Y-104445662D01*
X85669930Y-104446174D01*
X85673366Y-104449057D01*
X85699018Y-104453580D01*
X85908542Y-104453580D01*
X85912754Y-104452046D01*
X85917116Y-104453089D01*
X85942083Y-104445662D01*
X85966979Y-104433214D01*
X86000280Y-104452441D01*
X86050804Y-104443532D01*
X86083781Y-104404232D01*
X86088304Y-104378580D01*
X86462113Y-104378580D01*
X86479660Y-104426789D01*
X86524089Y-104452441D01*
X86574613Y-104443532D01*
X86583320Y-104433155D01*
X86608334Y-104445662D01*
X86612787Y-104446174D01*
X86616223Y-104449057D01*
X86641875Y-104453580D01*
X86903780Y-104453580D01*
X86907992Y-104452046D01*
X86912354Y-104453089D01*
X86937321Y-104445662D01*
X87042082Y-104393282D01*
X87049801Y-104385128D01*
X87060107Y-104380662D01*
X87075624Y-104359741D01*
X87128005Y-104254979D01*
X87128517Y-104250525D01*
X87131400Y-104247090D01*
X87135923Y-104221438D01*
X87135923Y-104116676D01*
X87134389Y-104112462D01*
X87135431Y-104108101D01*
X87128005Y-104083135D01*
X87075624Y-103978373D01*
X87067470Y-103970653D01*
X87063004Y-103960349D01*
X87042083Y-103944832D01*
X86937321Y-103892451D01*
X86932867Y-103891938D01*
X86929432Y-103889056D01*
X86903780Y-103884533D01*
X86659580Y-103884533D01*
X86612113Y-103860799D01*
X86612113Y-103820095D01*
X86645395Y-103753529D01*
X86711961Y-103720247D01*
X86886075Y-103720247D01*
X86975001Y-103764710D01*
X87025967Y-103770575D01*
X87068780Y-103742308D01*
X87083407Y-103693134D01*
X87063004Y-103646063D01*
X87044344Y-103632223D01*
X87301347Y-103632223D01*
X87310256Y-103682747D01*
X87349556Y-103715724D01*
X87375208Y-103720247D01*
X87462265Y-103720247D01*
X87540305Y-103759267D01*
X87575474Y-103794436D01*
X87614494Y-103872476D01*
X87614494Y-104378580D01*
X87632041Y-104426789D01*
X87676470Y-104452441D01*
X87726994Y-104443532D01*
X87759971Y-104404232D01*
X87764494Y-104378580D01*
X88138303Y-104378580D01*
X88155850Y-104426789D01*
X88200279Y-104452441D01*
X88250803Y-104443532D01*
X88259510Y-104433155D01*
X88284524Y-104445662D01*
X88288977Y-104446174D01*
X88292413Y-104449057D01*
X88318065Y-104453580D01*
X88579970Y-104453580D01*
X88584182Y-104452046D01*
X88588544Y-104453089D01*
X88613511Y-104445662D01*
X88718272Y-104393282D01*
X88725991Y-104385128D01*
X88731652Y-104382675D01*
X89081272Y-104382675D01*
X89101424Y-104429854D01*
X89147189Y-104453042D01*
X89197150Y-104441388D01*
X89216160Y-104423580D01*
X89478560Y-104073713D01*
X89500208Y-104095361D01*
X89500208Y-104378580D01*
X89517755Y-104426789D01*
X89562184Y-104452441D01*
X89612708Y-104443532D01*
X89645685Y-104404232D01*
X89650208Y-104378580D01*
X89650208Y-104319664D01*
X89971923Y-104319664D01*
X89976965Y-104338483D01*
X89978664Y-104357897D01*
X89984337Y-104366000D01*
X89985200Y-104369218D01*
X89987928Y-104371128D01*
X89993604Y-104379234D01*
X90045985Y-104431613D01*
X90063643Y-104439846D01*
X90079606Y-104451024D01*
X90083022Y-104450725D01*
X90085994Y-104452441D01*
X90089374Y-104451844D01*
X90092482Y-104453294D01*
X90111299Y-104448251D01*
X90130713Y-104446554D01*
X90134527Y-104443882D01*
X90136518Y-104443532D01*
X90138638Y-104441004D01*
X90138819Y-104440878D01*
X90142037Y-104440016D01*
X90143947Y-104437287D01*
X90152051Y-104431614D01*
X90204431Y-104379234D01*
X90212664Y-104361578D01*
X90223844Y-104345612D01*
X90223254Y-104338868D01*
X90226113Y-104332737D01*
X90221071Y-104313920D01*
X90219373Y-104294504D01*
X90213698Y-104286399D01*
X90212836Y-104283182D01*
X90210106Y-104281270D01*
X90204432Y-104273167D01*
X90152051Y-104220786D01*
X90134395Y-104212553D01*
X90118430Y-104201374D01*
X90115012Y-104201672D01*
X90112042Y-104199958D01*
X90108661Y-104200554D01*
X90105554Y-104199105D01*
X90086737Y-104204146D01*
X90067322Y-104205845D01*
X90063507Y-104208516D01*
X90061518Y-104208867D01*
X90059397Y-104211393D01*
X90059217Y-104211519D01*
X90056000Y-104212382D01*
X90054088Y-104215111D01*
X90045985Y-104220786D01*
X89993604Y-104273167D01*
X89985371Y-104290822D01*
X89974192Y-104306789D01*
X89974782Y-104313532D01*
X89971923Y-104319664D01*
X89650208Y-104319664D01*
X89650208Y-103639944D01*
X90443253Y-103639944D01*
X90445951Y-103665851D01*
X90655475Y-104399184D01*
X90656389Y-104400445D01*
X90656341Y-104402003D01*
X90671351Y-104421079D01*
X90685591Y-104440718D01*
X90687101Y-104441096D01*
X90688065Y-104442321D01*
X90711820Y-104447284D01*
X90735357Y-104453177D01*
X90736758Y-104452495D01*
X90738284Y-104452814D01*
X90759672Y-104441346D01*
X90781490Y-104430731D01*
X90782125Y-104429308D01*
X90783498Y-104428572D01*
X90797225Y-104406434D01*
X90937112Y-104056714D01*
X91077001Y-104406435D01*
X91078040Y-104407597D01*
X91078151Y-104409151D01*
X91095021Y-104426587D01*
X91111198Y-104444679D01*
X91112739Y-104444901D01*
X91113823Y-104446021D01*
X91137955Y-104448534D01*
X91161976Y-104451995D01*
X91163300Y-104451173D01*
X91164850Y-104451335D01*
X91184945Y-104437752D01*
X91205578Y-104424960D01*
X91206064Y-104423478D01*
X91207355Y-104422607D01*
X91218751Y-104399184D01*
X91428275Y-103665851D01*
X91426439Y-103639944D01*
X91595634Y-103639944D01*
X91598332Y-103665851D01*
X91807856Y-104399184D01*
X91808770Y-104400445D01*
X91808722Y-104402003D01*
X91823732Y-104421079D01*
X91837972Y-104440718D01*
X91839482Y-104441096D01*
X91840446Y-104442321D01*
X91864201Y-104447284D01*
X91887738Y-104453177D01*
X91889139Y-104452495D01*
X91890665Y-104452814D01*
X91912053Y-104441346D01*
X91933871Y-104430731D01*
X91934506Y-104429308D01*
X91935879Y-104428572D01*
X91949606Y-104406434D01*
X92089493Y-104056714D01*
X92229382Y-104406435D01*
X92230421Y-104407597D01*
X92230532Y-104409151D01*
X92247402Y-104426587D01*
X92263579Y-104444679D01*
X92265120Y-104444901D01*
X92266204Y-104446021D01*
X92290336Y-104448534D01*
X92314357Y-104451995D01*
X92315681Y-104451173D01*
X92317231Y-104451335D01*
X92337326Y-104437752D01*
X92357959Y-104424960D01*
X92358445Y-104423478D01*
X92359736Y-104422607D01*
X92371132Y-104399184D01*
X92580656Y-103665851D01*
X92578820Y-103639944D01*
X92748015Y-103639944D01*
X92750713Y-103665851D01*
X92960237Y-104399184D01*
X92961151Y-104400445D01*
X92961103Y-104402003D01*
X92976113Y-104421079D01*
X92990353Y-104440718D01*
X92991863Y-104441096D01*
X92992827Y-104442321D01*
X93016582Y-104447284D01*
X93040119Y-104453177D01*
X93041520Y-104452495D01*
X93043046Y-104452814D01*
X93064434Y-104441346D01*
X93086252Y-104430731D01*
X93086887Y-104429308D01*
X93088260Y-104428572D01*
X93101987Y-104406434D01*
X93241874Y-104056714D01*
X93381763Y-104406435D01*
X93382802Y-104407597D01*
X93382913Y-104409151D01*
X93399783Y-104426587D01*
X93415960Y-104444679D01*
X93417501Y-104444901D01*
X93418585Y-104446021D01*
X93442717Y-104448534D01*
X93466738Y-104451995D01*
X93468062Y-104451173D01*
X93469612Y-104451335D01*
X93489707Y-104437752D01*
X93510340Y-104424960D01*
X93510826Y-104423478D01*
X93512117Y-104422607D01*
X93523513Y-104399184D01*
X93733037Y-103665851D01*
X93729410Y-103614676D01*
X93693737Y-103577806D01*
X93642710Y-103572492D01*
X93600205Y-103601220D01*
X93588809Y-103624643D01*
X93439555Y-104147028D01*
X93311511Y-103826917D01*
X93295897Y-103809456D01*
X93281399Y-103791030D01*
X93278967Y-103790521D01*
X93277314Y-103788673D01*
X93254129Y-103785332D01*
X93231180Y-103780537D01*
X93228992Y-103781709D01*
X93226536Y-103781356D01*
X93206624Y-103793702D01*
X93185966Y-103804779D01*
X93184219Y-103807595D01*
X93182935Y-103808392D01*
X93182042Y-103811105D01*
X93172239Y-103826916D01*
X93044194Y-104147028D01*
X92894941Y-103624643D01*
X92864825Y-103583109D01*
X92815059Y-103570650D01*
X92768926Y-103593096D01*
X92748015Y-103639944D01*
X92578820Y-103639944D01*
X92577029Y-103614676D01*
X92541356Y-103577806D01*
X92490329Y-103572492D01*
X92447824Y-103601220D01*
X92436428Y-103624643D01*
X92287174Y-104147028D01*
X92159130Y-103826917D01*
X92143516Y-103809456D01*
X92129018Y-103791030D01*
X92126586Y-103790521D01*
X92124933Y-103788673D01*
X92101748Y-103785332D01*
X92078799Y-103780537D01*
X92076611Y-103781709D01*
X92074155Y-103781356D01*
X92054243Y-103793702D01*
X92033585Y-103804779D01*
X92031838Y-103807595D01*
X92030554Y-103808392D01*
X92029661Y-103811105D01*
X92019858Y-103826916D01*
X91891813Y-104147028D01*
X91742560Y-103624643D01*
X91712444Y-103583109D01*
X91662678Y-103570650D01*
X91616545Y-103593096D01*
X91595634Y-103639944D01*
X91426439Y-103639944D01*
X91424648Y-103614676D01*
X91388975Y-103577806D01*
X91337948Y-103572492D01*
X91295443Y-103601220D01*
X91284047Y-103624643D01*
X91134793Y-104147028D01*
X91006749Y-103826917D01*
X90991135Y-103809456D01*
X90976637Y-103791030D01*
X90974205Y-103790521D01*
X90972552Y-103788673D01*
X90949367Y-103785332D01*
X90926418Y-103780537D01*
X90924230Y-103781709D01*
X90921774Y-103781356D01*
X90901862Y-103793702D01*
X90881204Y-103804779D01*
X90879457Y-103807595D01*
X90878173Y-103808392D01*
X90877280Y-103811105D01*
X90867477Y-103826916D01*
X90739432Y-104147028D01*
X90590179Y-103624643D01*
X90560063Y-103583109D01*
X90510297Y-103570650D01*
X90464164Y-103593096D01*
X90443253Y-103639944D01*
X89650208Y-103639944D01*
X89650208Y-103278580D01*
X89632661Y-103230371D01*
X89588232Y-103204719D01*
X89537708Y-103213628D01*
X89504731Y-103252928D01*
X89500208Y-103278580D01*
X89500208Y-103883229D01*
X89209193Y-103592214D01*
X89162696Y-103570533D01*
X89113142Y-103583810D01*
X89083715Y-103625836D01*
X89088187Y-103676943D01*
X89103127Y-103698280D01*
X89371417Y-103966570D01*
X89096160Y-104333580D01*
X89081272Y-104382675D01*
X88731652Y-104382675D01*
X88736297Y-104380662D01*
X88751814Y-104359741D01*
X88804195Y-104254979D01*
X88804707Y-104250525D01*
X88807590Y-104247090D01*
X88812113Y-104221438D01*
X88812113Y-104116676D01*
X88810579Y-104112462D01*
X88811621Y-104108101D01*
X88804195Y-104083135D01*
X88751814Y-103978373D01*
X88743660Y-103970653D01*
X88739194Y-103960349D01*
X88718273Y-103944832D01*
X88613511Y-103892451D01*
X88609057Y-103891938D01*
X88605622Y-103889056D01*
X88579970Y-103884533D01*
X88335770Y-103884533D01*
X88288303Y-103860799D01*
X88288303Y-103820095D01*
X88321585Y-103753529D01*
X88388151Y-103720247D01*
X88562265Y-103720247D01*
X88651191Y-103764710D01*
X88702157Y-103770575D01*
X88744970Y-103742308D01*
X88759597Y-103693134D01*
X88739194Y-103646063D01*
X88718273Y-103630546D01*
X88613511Y-103578165D01*
X88609057Y-103577652D01*
X88605622Y-103574770D01*
X88579970Y-103570247D01*
X88370446Y-103570247D01*
X88366232Y-103571780D01*
X88361871Y-103570739D01*
X88336905Y-103578165D01*
X88232143Y-103630546D01*
X88224423Y-103638699D01*
X88214119Y-103643166D01*
X88198602Y-103664087D01*
X88146221Y-103768849D01*
X88145708Y-103773302D01*
X88142826Y-103776738D01*
X88138303Y-103802390D01*
X88138303Y-104378580D01*
X87764494Y-104378580D01*
X87764494Y-103645247D01*
X87746947Y-103597038D01*
X87702518Y-103571386D01*
X87651994Y-103580295D01*
X87619017Y-103619595D01*
X87617182Y-103630000D01*
X87513511Y-103578165D01*
X87509057Y-103577652D01*
X87505622Y-103574770D01*
X87479970Y-103570247D01*
X87375208Y-103570247D01*
X87326999Y-103587794D01*
X87301347Y-103632223D01*
X87044344Y-103632223D01*
X87042083Y-103630546D01*
X86937321Y-103578165D01*
X86932867Y-103577652D01*
X86929432Y-103574770D01*
X86903780Y-103570247D01*
X86694256Y-103570247D01*
X86690042Y-103571780D01*
X86685681Y-103570739D01*
X86660715Y-103578165D01*
X86555953Y-103630546D01*
X86548233Y-103638699D01*
X86537929Y-103643166D01*
X86522412Y-103664087D01*
X86470031Y-103768849D01*
X86469518Y-103773302D01*
X86466636Y-103776738D01*
X86462113Y-103802390D01*
X86462113Y-104378580D01*
X86088304Y-104378580D01*
X86088304Y-103278580D01*
X86070757Y-103230371D01*
X86026328Y-103204719D01*
X85975804Y-103213628D01*
X85942827Y-103252928D01*
X85938304Y-103278580D01*
X85938304Y-103577730D01*
X85937629Y-103577652D01*
X85934194Y-103574770D01*
X85908542Y-103570247D01*
X85699018Y-103570247D01*
X85694804Y-103571780D01*
X85690443Y-103570739D01*
X85665477Y-103578165D01*
X85560715Y-103630546D01*
X85559591Y-103631732D01*
X85541223Y-103644595D01*
X85488842Y-103696976D01*
X85488151Y-103698457D01*
X85474793Y-103716468D01*
X85422412Y-103821230D01*
X85421899Y-103825683D01*
X85419017Y-103829119D01*
X85414494Y-103854771D01*
X85414494Y-104169057D01*
X85145447Y-104169057D01*
X85145447Y-104116676D01*
X85143913Y-104112462D01*
X85144955Y-104108101D01*
X85137529Y-104083135D01*
X85085148Y-103978373D01*
X85076994Y-103970653D01*
X85072528Y-103960349D01*
X85051607Y-103944832D01*
X84946845Y-103892451D01*
X84942391Y-103891938D01*
X84938956Y-103889056D01*
X84913304Y-103884533D01*
X84669104Y-103884533D01*
X84621637Y-103860799D01*
X84621637Y-103820095D01*
X84654919Y-103753529D01*
X84721485Y-103720247D01*
X84895599Y-103720247D01*
X84984525Y-103764710D01*
X85035491Y-103770575D01*
X85078304Y-103742308D01*
X85092931Y-103693134D01*
X85072528Y-103646063D01*
X85051607Y-103630546D01*
X84946845Y-103578165D01*
X84942391Y-103577652D01*
X84938956Y-103574770D01*
X84913304Y-103570247D01*
X84703780Y-103570247D01*
X84699566Y-103571780D01*
X84695205Y-103570739D01*
X84670239Y-103578165D01*
X84565477Y-103630546D01*
X84557757Y-103638699D01*
X84547453Y-103643166D01*
X84531936Y-103664087D01*
X84479555Y-103768849D01*
X84479042Y-103773302D01*
X84476160Y-103776738D01*
X84471637Y-103802390D01*
X84471637Y-104378580D01*
X84122669Y-104378580D01*
X84144022Y-104356028D01*
X84147097Y-104304818D01*
X84116534Y-104263612D01*
X84066635Y-104251691D01*
X84041668Y-104259118D01*
X83952742Y-104303580D01*
X83778627Y-104303580D01*
X83712062Y-104270298D01*
X83678780Y-104203733D01*
X83678780Y-104186762D01*
X83712062Y-104120196D01*
X83778628Y-104086914D01*
X83918066Y-104086914D01*
X83922279Y-104085380D01*
X83926640Y-104086422D01*
X83951607Y-104078996D01*
X84056369Y-104026615D01*
X84064088Y-104018461D01*
X84074393Y-104013995D01*
X84089910Y-103993074D01*
X84142291Y-103888312D01*
X84142803Y-103883858D01*
X84145686Y-103880423D01*
X84150209Y-103854771D01*
X84150209Y-103802390D01*
X84148675Y-103798176D01*
X84149717Y-103793815D01*
X84142291Y-103768849D01*
X84089910Y-103664087D01*
X84081756Y-103656367D01*
X84077290Y-103646063D01*
X84056369Y-103630546D01*
X83951607Y-103578165D01*
X83947153Y-103577652D01*
X83943718Y-103574770D01*
X83918066Y-103570247D01*
X83760923Y-103570247D01*
X83756709Y-103571780D01*
X83752348Y-103570739D01*
X83727382Y-103578165D01*
X83622620Y-103630546D01*
X83587348Y-103667800D01*
X83584273Y-103719011D01*
X83614837Y-103760216D01*
X83664735Y-103772136D01*
X83689702Y-103764710D01*
X83778628Y-103720247D01*
X83900361Y-103720247D01*
X83966926Y-103753529D01*
X84000209Y-103820095D01*
X84000209Y-103837066D01*
X83966926Y-103903631D01*
X83900361Y-103936914D01*
X83760923Y-103936914D01*
X83756709Y-103938447D01*
X83752348Y-103937406D01*
X83727382Y-103944832D01*
X83622620Y-103997213D01*
X83614900Y-104005366D01*
X83604596Y-104009833D01*
X83589079Y-104030754D01*
X83536698Y-104135516D01*
X83536185Y-104139969D01*
X83533303Y-104143405D01*
X83528780Y-104169057D01*
X83528780Y-104221438D01*
X83186037Y-104221438D01*
X83185385Y-104220786D01*
X83167729Y-104212553D01*
X83151764Y-104201374D01*
X83148346Y-104201672D01*
X83145376Y-104199958D01*
X83141995Y-104200554D01*
X83138888Y-104199105D01*
X83120071Y-104204146D01*
X83100656Y-104205845D01*
X83096841Y-104208516D01*
X83094852Y-104208867D01*
X83092731Y-104211393D01*
X83092551Y-104211519D01*
X83089334Y-104212382D01*
X83087422Y-104215111D01*
X83079319Y-104220786D01*
X83026938Y-104273167D01*
X83018705Y-104290822D01*
X83007526Y-104306789D01*
X83008116Y-104313532D01*
X83005257Y-104319664D01*
X82643282Y-104319664D01*
X82675624Y-104254979D01*
X82676136Y-104250525D01*
X82679019Y-104247090D01*
X82683542Y-104221438D01*
X82683542Y-103645247D01*
X82665995Y-103597038D01*
X82621566Y-103571386D01*
X82571042Y-103580295D01*
X82538065Y-103619595D01*
X82533542Y-103645247D01*
X82533542Y-104203733D01*
X82500259Y-104270298D01*
X82433694Y-104303580D01*
X82311960Y-104303580D01*
X82233920Y-104264560D01*
X82212113Y-104242753D01*
X82212113Y-103645247D01*
X82194566Y-103597038D01*
X82150137Y-103571386D01*
X82099613Y-103580295D01*
X82066636Y-103619595D01*
X82062113Y-103645247D01*
X82062113Y-104378580D01*
X81688304Y-104378580D01*
X81688304Y-103278580D01*
X81670757Y-103230371D01*
X81626328Y-103204719D01*
X81575804Y-103213628D01*
X81542827Y-103252928D01*
X81538304Y-103278580D01*
X81538304Y-103883229D01*
X81247289Y-103592214D01*
X81200792Y-103570533D01*
X81151238Y-103583810D01*
X81121811Y-103625836D01*
X81126283Y-103676943D01*
X81141223Y-103698280D01*
X81409513Y-103966570D01*
X81134256Y-104333580D01*
X81119368Y-104382675D01*
X78840687Y-104382675D01*
X78840687Y-101873793D01*
X78997830Y-101873793D01*
X79002198Y-101899472D01*
X79264104Y-102632806D01*
X79264411Y-102633176D01*
X79264414Y-102633657D01*
X79280765Y-102652907D01*
X79296843Y-102672304D01*
X79297314Y-102672390D01*
X79297627Y-102672758D01*
X79322507Y-102676990D01*
X79347311Y-102681519D01*
X79347730Y-102681280D01*
X79348204Y-102681361D01*
X79369960Y-102668623D01*
X79391895Y-102656136D01*
X79392062Y-102655684D01*
X79392477Y-102655442D01*
X79405365Y-102632805D01*
X79489204Y-102398057D01*
X79888305Y-102398057D01*
X79889838Y-102402270D01*
X79888797Y-102406631D01*
X79896223Y-102431598D01*
X79948604Y-102536360D01*
X79949793Y-102537485D01*
X79962653Y-102555852D01*
X80015034Y-102608233D01*
X80016515Y-102608923D01*
X80034526Y-102622282D01*
X80139288Y-102674662D01*
X80143741Y-102675174D01*
X80147177Y-102678057D01*
X80172829Y-102682580D01*
X80329972Y-102682580D01*
X80334184Y-102681046D01*
X80338546Y-102682089D01*
X80363513Y-102674662D01*
X80468274Y-102622282D01*
X80469398Y-102621094D01*
X80487767Y-102608233D01*
X80540148Y-102555852D01*
X80540838Y-102554370D01*
X80554197Y-102536360D01*
X80606578Y-102431598D01*
X80607090Y-102427144D01*
X80609973Y-102423709D01*
X80614496Y-102398057D01*
X80883543Y-102398057D01*
X80885076Y-102402270D01*
X80884035Y-102406631D01*
X80891461Y-102431598D01*
X80943842Y-102536360D01*
X80945031Y-102537485D01*
X80957891Y-102555852D01*
X81010272Y-102608233D01*
X81011753Y-102608923D01*
X81029764Y-102622282D01*
X81134526Y-102674662D01*
X81138979Y-102675174D01*
X81142415Y-102678057D01*
X81168067Y-102682580D01*
X81377591Y-102682580D01*
X81381803Y-102681046D01*
X81386165Y-102682089D01*
X81407353Y-102675786D01*
X81407353Y-102974247D01*
X81424900Y-103022456D01*
X81469329Y-103048108D01*
X81519853Y-103039199D01*
X81552830Y-102999899D01*
X81557353Y-102974247D01*
X81557353Y-101874247D01*
X81552613Y-101861223D01*
X81775158Y-101861223D01*
X81784067Y-101911747D01*
X81823367Y-101944724D01*
X81849019Y-101949247D01*
X81936076Y-101949247D01*
X82014116Y-101988267D01*
X82049285Y-102023436D01*
X82088305Y-102101476D01*
X82088305Y-102607580D01*
X82105852Y-102655789D01*
X82150281Y-102681441D01*
X82200805Y-102672532D01*
X82233782Y-102633232D01*
X82238305Y-102607580D01*
X82612114Y-102607580D01*
X82629661Y-102655789D01*
X82674090Y-102681441D01*
X82724614Y-102672532D01*
X82733321Y-102662155D01*
X82758335Y-102674662D01*
X82762788Y-102675174D01*
X82766224Y-102678057D01*
X82791876Y-102682580D01*
X83053781Y-102682580D01*
X83057993Y-102681046D01*
X83062355Y-102682089D01*
X83087322Y-102674662D01*
X83192083Y-102622282D01*
X83199802Y-102614128D01*
X83205463Y-102611675D01*
X83555083Y-102611675D01*
X83575235Y-102658854D01*
X83621000Y-102682042D01*
X83670961Y-102670388D01*
X83689971Y-102652580D01*
X83952371Y-102302713D01*
X83974019Y-102324361D01*
X83974019Y-102607580D01*
X83991566Y-102655789D01*
X84035995Y-102681441D01*
X84086519Y-102672532D01*
X84119496Y-102633232D01*
X84124019Y-102607580D01*
X84124019Y-101873793D01*
X84393067Y-101873793D01*
X84397435Y-101899472D01*
X84659341Y-102632806D01*
X84659648Y-102633176D01*
X84659651Y-102633657D01*
X84660065Y-102634145D01*
X84660335Y-102635434D01*
X84765097Y-102897339D01*
X84766567Y-102898983D01*
X84766760Y-102901181D01*
X84781700Y-102922518D01*
X84834081Y-102974899D01*
X84835562Y-102975589D01*
X84853573Y-102988948D01*
X84958335Y-103041329D01*
X85009301Y-103047194D01*
X85052114Y-103018927D01*
X85066741Y-102969753D01*
X85046338Y-102922682D01*
X85025417Y-102907165D01*
X84931541Y-102860227D01*
X84898652Y-102827338D01*
X84810748Y-102607580D01*
X85335923Y-102607580D01*
X85353470Y-102655789D01*
X85397899Y-102681441D01*
X85448423Y-102672532D01*
X85457130Y-102662155D01*
X85482144Y-102674662D01*
X85486597Y-102675174D01*
X85490033Y-102678057D01*
X85515685Y-102682580D01*
X85725209Y-102682580D01*
X85729421Y-102681046D01*
X85733783Y-102682089D01*
X85758750Y-102674662D01*
X85863511Y-102622282D01*
X85864635Y-102621094D01*
X85883004Y-102608233D01*
X85883657Y-102607580D01*
X86331161Y-102607580D01*
X86348708Y-102655789D01*
X86393137Y-102681441D01*
X86443661Y-102672532D01*
X86476638Y-102633232D01*
X86481161Y-102607580D01*
X86481161Y-102049095D01*
X86514443Y-101982529D01*
X86581009Y-101949247D01*
X86702742Y-101949247D01*
X86780782Y-101988267D01*
X86802590Y-102010075D01*
X86802590Y-102607580D01*
X86820137Y-102655789D01*
X86864566Y-102681441D01*
X86915090Y-102672532D01*
X86948067Y-102633232D01*
X86952590Y-102607580D01*
X87326399Y-102607580D01*
X87343946Y-102655789D01*
X87388375Y-102681441D01*
X87438899Y-102672532D01*
X87447606Y-102662155D01*
X87472620Y-102674662D01*
X87477073Y-102675174D01*
X87480509Y-102678057D01*
X87506161Y-102682580D01*
X87768066Y-102682580D01*
X87772278Y-102681046D01*
X87776640Y-102682089D01*
X87801607Y-102674662D01*
X87906368Y-102622282D01*
X87914087Y-102614128D01*
X87924393Y-102609662D01*
X87939910Y-102588741D01*
X87992291Y-102483979D01*
X87992803Y-102479525D01*
X87995686Y-102476090D01*
X88000209Y-102450438D01*
X88000209Y-102345676D01*
X87998675Y-102341462D01*
X87999717Y-102337101D01*
X87992291Y-102312135D01*
X87950168Y-102227890D01*
X89056109Y-102227890D01*
X89065018Y-102278414D01*
X89104318Y-102311391D01*
X89129970Y-102315914D01*
X89212113Y-102315914D01*
X89212113Y-102607580D01*
X89229660Y-102655789D01*
X89274089Y-102681441D01*
X89324613Y-102672532D01*
X89357590Y-102633232D01*
X89362113Y-102607580D01*
X89362113Y-102315914D01*
X89810923Y-102315914D01*
X89816308Y-102313953D01*
X89821924Y-102315103D01*
X89839911Y-102305362D01*
X89859132Y-102298367D01*
X89861997Y-102293403D01*
X89867038Y-102290674D01*
X89874554Y-102271654D01*
X89884784Y-102253938D01*
X89883788Y-102248292D01*
X89885895Y-102242962D01*
X89882074Y-102217197D01*
X89750297Y-101821866D01*
X90154970Y-101821866D01*
X90155530Y-101823404D01*
X90158819Y-101845583D01*
X90211200Y-102002726D01*
X90213987Y-102006238D01*
X90214378Y-102010705D01*
X90229318Y-102032042D01*
X90729857Y-102532580D01*
X90229970Y-102532580D01*
X90181761Y-102550127D01*
X90156109Y-102594556D01*
X90165018Y-102645080D01*
X90204318Y-102678057D01*
X90229970Y-102682580D01*
X90910923Y-102682580D01*
X90932134Y-102674859D01*
X90953941Y-102669017D01*
X90955909Y-102666206D01*
X90959132Y-102665033D01*
X90970421Y-102645479D01*
X90983367Y-102626991D01*
X90983068Y-102623575D01*
X90984784Y-102620604D01*
X90980862Y-102598366D01*
X90978896Y-102575884D01*
X90976226Y-102572070D01*
X90975875Y-102570080D01*
X90973346Y-102567958D01*
X90963956Y-102554547D01*
X90597941Y-102188533D01*
X91202589Y-102188533D01*
X91203774Y-102191790D01*
X91204828Y-102206723D01*
X91257209Y-102416247D01*
X91259197Y-102419191D01*
X91262888Y-102431598D01*
X91315269Y-102536360D01*
X91316458Y-102537485D01*
X91329318Y-102555852D01*
X91381699Y-102608233D01*
X91383180Y-102608923D01*
X91401191Y-102622282D01*
X91505953Y-102674662D01*
X91510406Y-102675174D01*
X91513842Y-102678057D01*
X91539494Y-102682580D01*
X91644256Y-102682580D01*
X91648468Y-102681046D01*
X91652830Y-102682089D01*
X91677797Y-102674662D01*
X91782558Y-102622282D01*
X91783682Y-102621094D01*
X91802051Y-102608233D01*
X91854432Y-102555852D01*
X91855122Y-102554370D01*
X91868481Y-102536360D01*
X91920862Y-102431598D01*
X91921268Y-102428069D01*
X91926541Y-102416247D01*
X91978922Y-102206724D01*
X91978561Y-102203275D01*
X91981161Y-102188533D01*
X91981161Y-101926628D01*
X91979975Y-101923370D01*
X91978922Y-101908437D01*
X91957279Y-101821866D01*
X92250208Y-101821866D01*
X92250768Y-101823404D01*
X92254057Y-101845583D01*
X92306438Y-102002726D01*
X92309225Y-102006238D01*
X92309616Y-102010705D01*
X92324556Y-102032042D01*
X92825095Y-102532580D01*
X92325208Y-102532580D01*
X92276999Y-102550127D01*
X92251347Y-102594556D01*
X92260256Y-102645080D01*
X92299556Y-102678057D01*
X92325208Y-102682580D01*
X93006161Y-102682580D01*
X93027372Y-102674859D01*
X93049179Y-102669017D01*
X93051147Y-102666206D01*
X93054370Y-102665033D01*
X93065659Y-102645479D01*
X93078605Y-102626991D01*
X93078306Y-102623575D01*
X93080022Y-102620604D01*
X93076100Y-102598366D01*
X93074134Y-102575884D01*
X93071464Y-102572070D01*
X93071113Y-102570080D01*
X93068584Y-102567958D01*
X93059194Y-102554547D01*
X92577085Y-102072439D01*
X94136783Y-102072439D01*
X94137378Y-102098480D01*
X94189760Y-102360385D01*
X94189982Y-102360751D01*
X94198991Y-102384263D01*
X94356134Y-102646167D01*
X94360397Y-102649624D01*
X94362189Y-102654816D01*
X94381859Y-102671892D01*
X94643764Y-102829035D01*
X94644182Y-102829116D01*
X94667642Y-102838267D01*
X94929546Y-102890648D01*
X94931335Y-102890374D01*
X94932923Y-102891243D01*
X94958964Y-102890648D01*
X95220869Y-102838266D01*
X95221235Y-102838043D01*
X95244747Y-102829035D01*
X95506652Y-102671892D01*
X95510109Y-102667628D01*
X95515301Y-102665837D01*
X95532377Y-102646167D01*
X95689520Y-102384263D01*
X95689601Y-102383844D01*
X95698752Y-102360385D01*
X95751133Y-102098479D01*
X95750859Y-102096689D01*
X95751728Y-102095103D01*
X95751133Y-102069063D01*
X95698752Y-101807157D01*
X95698526Y-101806786D01*
X95689520Y-101783279D01*
X95532377Y-101521374D01*
X95528113Y-101517916D01*
X95526322Y-101512725D01*
X95506652Y-101495649D01*
X95244747Y-101338507D01*
X95244327Y-101338425D01*
X95220869Y-101329276D01*
X94958964Y-101276894D01*
X94957174Y-101277167D01*
X94955587Y-101276299D01*
X94929546Y-101276894D01*
X94667642Y-101329275D01*
X94667273Y-101329498D01*
X94643764Y-101338507D01*
X94381859Y-101495649D01*
X94378400Y-101499913D01*
X94373210Y-101501705D01*
X94356134Y-101521374D01*
X94198991Y-101783279D01*
X94198909Y-101783698D01*
X94189760Y-101807157D01*
X94137378Y-102069062D01*
X94137651Y-102070851D01*
X94136783Y-102072439D01*
X92577085Y-102072439D01*
X92443140Y-101938494D01*
X92400208Y-101809696D01*
X92400208Y-101734809D01*
X92439228Y-101656769D01*
X92474397Y-101621600D01*
X92552437Y-101582580D01*
X92778932Y-101582580D01*
X92856972Y-101621600D01*
X92900747Y-101665375D01*
X92947244Y-101687056D01*
X92996798Y-101673779D01*
X93026225Y-101631754D01*
X93021754Y-101580646D01*
X93006813Y-101559309D01*
X92954432Y-101506928D01*
X92952950Y-101506237D01*
X92934940Y-101492879D01*
X92830178Y-101440498D01*
X92825724Y-101439985D01*
X92822289Y-101437103D01*
X92796637Y-101432580D01*
X92534732Y-101432580D01*
X92530518Y-101434113D01*
X92526157Y-101433072D01*
X92501191Y-101440498D01*
X92396429Y-101492879D01*
X92395305Y-101494065D01*
X92376937Y-101506928D01*
X92324556Y-101559309D01*
X92323865Y-101560790D01*
X92310507Y-101578801D01*
X92258126Y-101683563D01*
X92257613Y-101688016D01*
X92254731Y-101691452D01*
X92250208Y-101717104D01*
X92250208Y-101821866D01*
X91957279Y-101821866D01*
X91926541Y-101698914D01*
X91924552Y-101695969D01*
X91920862Y-101683563D01*
X91868481Y-101578801D01*
X91867294Y-101577677D01*
X91854432Y-101559309D01*
X91802051Y-101506928D01*
X91800569Y-101506237D01*
X91782559Y-101492879D01*
X91677797Y-101440498D01*
X91673343Y-101439985D01*
X91669908Y-101437103D01*
X91644256Y-101432580D01*
X91539494Y-101432580D01*
X91535280Y-101434113D01*
X91530919Y-101433072D01*
X91505953Y-101440498D01*
X91401191Y-101492879D01*
X91400067Y-101494065D01*
X91381699Y-101506928D01*
X91329318Y-101559309D01*
X91328627Y-101560790D01*
X91315269Y-101578801D01*
X91262888Y-101683563D01*
X91262481Y-101687091D01*
X91257209Y-101698914D01*
X91204828Y-101908438D01*
X91205188Y-101911886D01*
X91202589Y-101926628D01*
X91202589Y-102188533D01*
X90597941Y-102188533D01*
X90347902Y-101938494D01*
X90304970Y-101809696D01*
X90304970Y-101734809D01*
X90343990Y-101656769D01*
X90379159Y-101621600D01*
X90457199Y-101582580D01*
X90683694Y-101582580D01*
X90761734Y-101621600D01*
X90805509Y-101665375D01*
X90852006Y-101687056D01*
X90901560Y-101673779D01*
X90930987Y-101631754D01*
X90926516Y-101580646D01*
X90911575Y-101559309D01*
X90859194Y-101506928D01*
X90857712Y-101506237D01*
X90839702Y-101492879D01*
X90734940Y-101440498D01*
X90730486Y-101439985D01*
X90727051Y-101437103D01*
X90701399Y-101432580D01*
X90439494Y-101432580D01*
X90435280Y-101434113D01*
X90430919Y-101433072D01*
X90405953Y-101440498D01*
X90301191Y-101492879D01*
X90300067Y-101494065D01*
X90281699Y-101506928D01*
X90229318Y-101559309D01*
X90228627Y-101560790D01*
X90215269Y-101578801D01*
X90162888Y-101683563D01*
X90162375Y-101688016D01*
X90159493Y-101691452D01*
X90154970Y-101717104D01*
X90154970Y-101821866D01*
X89750297Y-101821866D01*
X89620169Y-101431483D01*
X89588278Y-101391297D01*
X89538017Y-101381011D01*
X89492903Y-101405440D01*
X89474046Y-101453151D01*
X89477867Y-101478917D01*
X89706866Y-102165914D01*
X89362113Y-102165914D01*
X89362113Y-101874247D01*
X89344566Y-101826038D01*
X89300137Y-101800386D01*
X89249613Y-101809295D01*
X89216636Y-101848595D01*
X89212113Y-101874247D01*
X89212113Y-102165914D01*
X89129970Y-102165914D01*
X89081761Y-102183461D01*
X89056109Y-102227890D01*
X87950168Y-102227890D01*
X87939910Y-102207373D01*
X87931756Y-102199653D01*
X87927290Y-102189349D01*
X87906369Y-102173832D01*
X87801607Y-102121451D01*
X87797153Y-102120938D01*
X87793718Y-102118056D01*
X87768066Y-102113533D01*
X87523866Y-102113533D01*
X87476399Y-102089799D01*
X87476399Y-102049095D01*
X87509681Y-101982529D01*
X87576247Y-101949247D01*
X87750361Y-101949247D01*
X87839287Y-101993710D01*
X87890253Y-101999575D01*
X87933066Y-101971308D01*
X87947693Y-101922134D01*
X87927290Y-101875063D01*
X87906369Y-101859546D01*
X87801607Y-101807165D01*
X87797153Y-101806652D01*
X87793718Y-101803770D01*
X87768066Y-101799247D01*
X87558542Y-101799247D01*
X87554328Y-101800780D01*
X87549967Y-101799739D01*
X87525001Y-101807165D01*
X87420239Y-101859546D01*
X87412519Y-101867699D01*
X87402215Y-101872166D01*
X87386698Y-101893087D01*
X87334317Y-101997849D01*
X87333804Y-102002302D01*
X87330922Y-102005738D01*
X87326399Y-102031390D01*
X87326399Y-102607580D01*
X86952590Y-102607580D01*
X86952590Y-101874247D01*
X86935043Y-101826038D01*
X86890614Y-101800386D01*
X86840090Y-101809295D01*
X86815901Y-101838121D01*
X86753988Y-101807165D01*
X86749534Y-101806652D01*
X86746099Y-101803770D01*
X86720447Y-101799247D01*
X86563304Y-101799247D01*
X86559090Y-101800780D01*
X86554729Y-101799739D01*
X86529763Y-101807165D01*
X86425001Y-101859546D01*
X86417281Y-101867699D01*
X86406977Y-101872166D01*
X86391460Y-101893087D01*
X86339079Y-101997849D01*
X86338566Y-102002302D01*
X86335684Y-102005738D01*
X86331161Y-102031390D01*
X86331161Y-102607580D01*
X85883657Y-102607580D01*
X85935385Y-102555852D01*
X85936075Y-102554370D01*
X85949434Y-102536360D01*
X86001815Y-102431598D01*
X86002327Y-102427144D01*
X86005210Y-102423709D01*
X86009733Y-102398057D01*
X86009733Y-102083771D01*
X86008199Y-102079557D01*
X86009241Y-102075196D01*
X86001815Y-102050230D01*
X85949434Y-101945468D01*
X85948247Y-101944344D01*
X85935385Y-101925976D01*
X85883004Y-101873595D01*
X85881522Y-101872904D01*
X85863512Y-101859546D01*
X85758750Y-101807165D01*
X85754296Y-101806652D01*
X85750861Y-101803770D01*
X85725209Y-101799247D01*
X85515685Y-101799247D01*
X85511471Y-101800780D01*
X85507110Y-101799739D01*
X85485923Y-101806040D01*
X85485923Y-101507580D01*
X85468376Y-101459371D01*
X85423947Y-101433719D01*
X85373423Y-101442628D01*
X85340446Y-101481928D01*
X85335923Y-101507580D01*
X85335923Y-102607580D01*
X84810748Y-102607580D01*
X84810147Y-102606077D01*
X85062507Y-101899472D01*
X85062196Y-101848170D01*
X85028984Y-101809069D01*
X84978407Y-101800466D01*
X84934133Y-101826385D01*
X84921246Y-101849021D01*
X84729971Y-102384588D01*
X84538697Y-101849022D01*
X84505957Y-101809523D01*
X84455489Y-101800309D01*
X84410905Y-101825692D01*
X84393067Y-101873793D01*
X84124019Y-101873793D01*
X84124019Y-101507580D01*
X84106472Y-101459371D01*
X84062043Y-101433719D01*
X84011519Y-101442628D01*
X83978542Y-101481928D01*
X83974019Y-101507580D01*
X83974019Y-102112229D01*
X83683004Y-101821214D01*
X83636507Y-101799533D01*
X83586953Y-101812810D01*
X83557526Y-101854836D01*
X83561998Y-101905943D01*
X83576938Y-101927280D01*
X83845228Y-102195570D01*
X83569971Y-102562580D01*
X83555083Y-102611675D01*
X83205463Y-102611675D01*
X83210108Y-102609662D01*
X83225625Y-102588741D01*
X83278006Y-102483979D01*
X83278518Y-102479525D01*
X83281401Y-102476090D01*
X83285924Y-102450438D01*
X83285924Y-102345676D01*
X83284390Y-102341462D01*
X83285432Y-102337101D01*
X83278006Y-102312135D01*
X83225625Y-102207373D01*
X83217471Y-102199653D01*
X83213005Y-102189349D01*
X83192084Y-102173832D01*
X83087322Y-102121451D01*
X83082868Y-102120938D01*
X83079433Y-102118056D01*
X83053781Y-102113533D01*
X82809581Y-102113533D01*
X82762114Y-102089799D01*
X82762114Y-102049095D01*
X82795396Y-101982529D01*
X82861962Y-101949247D01*
X83036076Y-101949247D01*
X83125002Y-101993710D01*
X83175968Y-101999575D01*
X83218781Y-101971308D01*
X83233408Y-101922134D01*
X83213005Y-101875063D01*
X83192084Y-101859546D01*
X83087322Y-101807165D01*
X83082868Y-101806652D01*
X83079433Y-101803770D01*
X83053781Y-101799247D01*
X82844257Y-101799247D01*
X82840043Y-101800780D01*
X82835682Y-101799739D01*
X82810716Y-101807165D01*
X82705954Y-101859546D01*
X82698234Y-101867699D01*
X82687930Y-101872166D01*
X82672413Y-101893087D01*
X82620032Y-101997849D01*
X82619519Y-102002302D01*
X82616637Y-102005738D01*
X82612114Y-102031390D01*
X82612114Y-102607580D01*
X82238305Y-102607580D01*
X82238305Y-101874247D01*
X82220758Y-101826038D01*
X82176329Y-101800386D01*
X82125805Y-101809295D01*
X82092828Y-101848595D01*
X82090993Y-101859000D01*
X81987322Y-101807165D01*
X81982868Y-101806652D01*
X81979433Y-101803770D01*
X81953781Y-101799247D01*
X81849019Y-101799247D01*
X81800810Y-101816794D01*
X81775158Y-101861223D01*
X81552613Y-101861223D01*
X81539806Y-101826038D01*
X81495377Y-101800386D01*
X81444853Y-101809295D01*
X81436145Y-101819671D01*
X81411132Y-101807165D01*
X81406678Y-101806652D01*
X81403243Y-101803770D01*
X81377591Y-101799247D01*
X81168067Y-101799247D01*
X81163853Y-101800780D01*
X81159492Y-101799739D01*
X81134526Y-101807165D01*
X81029764Y-101859546D01*
X81028640Y-101860732D01*
X81010272Y-101873595D01*
X80957891Y-101925976D01*
X80957200Y-101927457D01*
X80943842Y-101945468D01*
X80891461Y-102050230D01*
X80890948Y-102054683D01*
X80888066Y-102058119D01*
X80883543Y-102083771D01*
X80883543Y-102398057D01*
X80614496Y-102398057D01*
X80614496Y-102083771D01*
X80612962Y-102079557D01*
X80614004Y-102075196D01*
X80606578Y-102050230D01*
X80554197Y-101945468D01*
X80553010Y-101944344D01*
X80540148Y-101925976D01*
X80487767Y-101873595D01*
X80486285Y-101872904D01*
X80468275Y-101859546D01*
X80363513Y-101807165D01*
X80359059Y-101806652D01*
X80355624Y-101803770D01*
X80329972Y-101799247D01*
X80172829Y-101799247D01*
X80168615Y-101800780D01*
X80164254Y-101799739D01*
X80139288Y-101807165D01*
X80034526Y-101859546D01*
X80033402Y-101860732D01*
X80015034Y-101873595D01*
X79962653Y-101925976D01*
X79961962Y-101927457D01*
X79948604Y-101945468D01*
X79896223Y-102050230D01*
X79895710Y-102054683D01*
X79892828Y-102058119D01*
X79888305Y-102083771D01*
X79888305Y-102398057D01*
X79489204Y-102398057D01*
X79667270Y-101899472D01*
X79666959Y-101848170D01*
X79633747Y-101809069D01*
X79583170Y-101800466D01*
X79538896Y-101826385D01*
X79526009Y-101849021D01*
X79334734Y-102384588D01*
X79143460Y-101849022D01*
X79110720Y-101809523D01*
X79060252Y-101800309D01*
X79015668Y-101825692D01*
X78997830Y-101873793D01*
X78840687Y-101873793D01*
X78840687Y-101119156D01*
X95908871Y-101119156D01*
X95908871Y-104610723D01*
G37*
G36*
X106519304Y-71222303D02*
G01*
X106117189Y-71088265D01*
X106519304Y-70954226D01*
X106519304Y-71222303D01*
G37*
G36*
X107097876Y-72544217D02*
G01*
X105662162Y-72544217D01*
X105662162Y-72183503D01*
X105805019Y-72183503D01*
X105806552Y-72187716D01*
X105805511Y-72192077D01*
X105812937Y-72217044D01*
X105860556Y-72312282D01*
X105897810Y-72347554D01*
X105949020Y-72350629D01*
X105990226Y-72320065D01*
X106002146Y-72270166D01*
X105994720Y-72245200D01*
X105955019Y-72165798D01*
X105955019Y-72052816D01*
X105993190Y-71938302D01*
X106067303Y-71864190D01*
X106144290Y-71825696D01*
X106317824Y-71782313D01*
X106442213Y-71782313D01*
X106615747Y-71825696D01*
X106692734Y-71864190D01*
X106766848Y-71938303D01*
X106805019Y-72052816D01*
X106805019Y-72123714D01*
X106766848Y-72238226D01*
X106753714Y-72251360D01*
X106526447Y-72251360D01*
X106526447Y-72135884D01*
X106508900Y-72087675D01*
X106464471Y-72062023D01*
X106413947Y-72070932D01*
X106380970Y-72110232D01*
X106376447Y-72135884D01*
X106376447Y-72326360D01*
X106383110Y-72344668D01*
X106386495Y-72363860D01*
X106391679Y-72368210D01*
X106393994Y-72374569D01*
X106410867Y-72384311D01*
X106425795Y-72396837D01*
X106435537Y-72398554D01*
X106438423Y-72400221D01*
X106441705Y-72399642D01*
X106451447Y-72401360D01*
X106784780Y-72401360D01*
X106800163Y-72395760D01*
X106816475Y-72394334D01*
X106829889Y-72384941D01*
X106832989Y-72383813D01*
X106833998Y-72382063D01*
X106837812Y-72379394D01*
X106885432Y-72331775D01*
X106887327Y-72327710D01*
X106891148Y-72325363D01*
X106903551Y-72302458D01*
X106951170Y-72159602D01*
X106951125Y-72157966D01*
X106955019Y-72135884D01*
X106955019Y-72040646D01*
X106954459Y-72039108D01*
X106951170Y-72016928D01*
X106903551Y-71874072D01*
X106900764Y-71870561D01*
X106900374Y-71866093D01*
X106885433Y-71844756D01*
X106790194Y-71749518D01*
X106788712Y-71748827D01*
X106770702Y-71735469D01*
X106675464Y-71687850D01*
X106671935Y-71687443D01*
X106660113Y-71682171D01*
X106469637Y-71634552D01*
X106466188Y-71634912D01*
X106451447Y-71632313D01*
X106308590Y-71632313D01*
X106305332Y-71633498D01*
X106290400Y-71634552D01*
X106099924Y-71682171D01*
X106096979Y-71684159D01*
X106084573Y-71687850D01*
X105989335Y-71735469D01*
X105988211Y-71736655D01*
X105969843Y-71749518D01*
X105874605Y-71844756D01*
X105872710Y-71848819D01*
X105868889Y-71851167D01*
X105856487Y-71874072D01*
X105808868Y-72016929D01*
X105808912Y-72018563D01*
X105805019Y-72040646D01*
X105805019Y-72183503D01*
X105662162Y-72183503D01*
X105662162Y-71099266D01*
X105805830Y-71099266D01*
X105806858Y-71101165D01*
X105806542Y-71103301D01*
X105818960Y-71123514D01*
X105830259Y-71144380D01*
X105832266Y-71145173D01*
X105833397Y-71147013D01*
X105856302Y-71159416D01*
X106856302Y-71492749D01*
X106907585Y-71491348D01*
X106945971Y-71457310D01*
X106953496Y-71406562D01*
X106926641Y-71362849D01*
X106903736Y-71350447D01*
X106669304Y-71272303D01*
X106669304Y-70904226D01*
X106903736Y-70826083D01*
X106943922Y-70794192D01*
X106954208Y-70743931D01*
X106929779Y-70698817D01*
X106882067Y-70679960D01*
X106856302Y-70683781D01*
X105856302Y-71017114D01*
X105854610Y-71018456D01*
X105852452Y-71018515D01*
X105834690Y-71034264D01*
X105816116Y-71049005D01*
X105815683Y-71051118D01*
X105814067Y-71052552D01*
X105810586Y-71076022D01*
X105805830Y-71099266D01*
X105662162Y-71099266D01*
X105662162Y-70564455D01*
X105805019Y-70564455D01*
X105822566Y-70612664D01*
X105866995Y-70638316D01*
X105917519Y-70629407D01*
X105950496Y-70590107D01*
X105955019Y-70564455D01*
X105955019Y-70353741D01*
X106880019Y-70353741D01*
X106928228Y-70336194D01*
X106953880Y-70291765D01*
X106944971Y-70241241D01*
X106905671Y-70208264D01*
X106880019Y-70203741D01*
X105955019Y-70203741D01*
X105955019Y-69993027D01*
X105937472Y-69944818D01*
X105893043Y-69919166D01*
X105842519Y-69928075D01*
X105809542Y-69967375D01*
X105805019Y-69993027D01*
X105805019Y-70564455D01*
X105662162Y-70564455D01*
X105662162Y-69646669D01*
X105806158Y-69646669D01*
X105815067Y-69697193D01*
X105854367Y-69730170D01*
X105880019Y-69734693D01*
X106594304Y-69734693D01*
X106595842Y-69734132D01*
X106618021Y-69730844D01*
X106760878Y-69683225D01*
X106764388Y-69680438D01*
X106768857Y-69680048D01*
X106790194Y-69665107D01*
X106885433Y-69569869D01*
X106887328Y-69565804D01*
X106891148Y-69563458D01*
X106903551Y-69540553D01*
X106951170Y-69397697D01*
X106951125Y-69396061D01*
X106955019Y-69373979D01*
X106955019Y-69278741D01*
X106937472Y-69230532D01*
X106893043Y-69204880D01*
X106842519Y-69213789D01*
X106809542Y-69253089D01*
X106805019Y-69278741D01*
X106805019Y-69361809D01*
X106766848Y-69476321D01*
X106696647Y-69546521D01*
X106582134Y-69584693D01*
X105880019Y-69584693D01*
X105831810Y-69602240D01*
X105806158Y-69646669D01*
X105662162Y-69646669D01*
X105662162Y-69062023D01*
X107097876Y-69062023D01*
X107097876Y-72544217D01*
G37*
G36*
X99191761Y-69912276D02*
G01*
X96756183Y-69912276D01*
X96756183Y-68980133D01*
X96899040Y-68980133D01*
X96899600Y-68981671D01*
X96902889Y-69003850D01*
X96950508Y-69146707D01*
X96953295Y-69150219D01*
X96953686Y-69154686D01*
X96968626Y-69176023D01*
X97412021Y-69619419D01*
X96974040Y-69619419D01*
X96925831Y-69636966D01*
X96900179Y-69681395D01*
X96909088Y-69731919D01*
X96948388Y-69764896D01*
X96974040Y-69769419D01*
X97593087Y-69769419D01*
X97614298Y-69761698D01*
X97636105Y-69755856D01*
X97638073Y-69753044D01*
X97641296Y-69751872D01*
X97652581Y-69732326D01*
X97665532Y-69713831D01*
X97665233Y-69710413D01*
X97666948Y-69707443D01*
X97663028Y-69685216D01*
X97661061Y-69662723D01*
X97658389Y-69658908D01*
X97658039Y-69656919D01*
X97655512Y-69654798D01*
X97646120Y-69641386D01*
X97644998Y-69640264D01*
X97851706Y-69640264D01*
X97856748Y-69659084D01*
X97858447Y-69678496D01*
X97864120Y-69686598D01*
X97864983Y-69689819D01*
X97867714Y-69691731D01*
X97873387Y-69699833D01*
X97921006Y-69747452D01*
X97938664Y-69755685D01*
X97954628Y-69766864D01*
X97958044Y-69766565D01*
X97961015Y-69768280D01*
X97964394Y-69767684D01*
X97967502Y-69769133D01*
X97986321Y-69764090D01*
X98005735Y-69762392D01*
X98009548Y-69759722D01*
X98011539Y-69759371D01*
X98013660Y-69756842D01*
X98013837Y-69756718D01*
X98017057Y-69755856D01*
X98018968Y-69753126D01*
X98027072Y-69747452D01*
X98074691Y-69699833D01*
X98082925Y-69682174D01*
X98083470Y-69681395D01*
X98328750Y-69681395D01*
X98337659Y-69731919D01*
X98376959Y-69764896D01*
X98402611Y-69769419D01*
X98974039Y-69769419D01*
X99022248Y-69751872D01*
X99047900Y-69707443D01*
X99038991Y-69656919D01*
X98999691Y-69623942D01*
X98974039Y-69619419D01*
X98763325Y-69619419D01*
X98763325Y-68923104D01*
X98825768Y-68985547D01*
X98827249Y-68986237D01*
X98845260Y-68999596D01*
X98940498Y-69047215D01*
X98991464Y-69053080D01*
X99034277Y-69024814D01*
X99048904Y-68975639D01*
X99028501Y-68928568D01*
X99007580Y-68913051D01*
X98923228Y-68870875D01*
X98841847Y-68789494D01*
X98750729Y-68652816D01*
X98747252Y-68650261D01*
X98745778Y-68646210D01*
X98726928Y-68635326D01*
X98709387Y-68622437D01*
X98705084Y-68622714D01*
X98701349Y-68620558D01*
X98679911Y-68624338D01*
X98658191Y-68625739D01*
X98655072Y-68628718D01*
X98650825Y-68629467D01*
X98636832Y-68646142D01*
X98621094Y-68661177D01*
X98620619Y-68665463D01*
X98617848Y-68668767D01*
X98613325Y-68694419D01*
X98613325Y-69619419D01*
X98402611Y-69619419D01*
X98354402Y-69636966D01*
X98328750Y-69681395D01*
X98083470Y-69681395D01*
X98094102Y-69666212D01*
X98093512Y-69659469D01*
X98096372Y-69653337D01*
X98091329Y-69634518D01*
X98089632Y-69615105D01*
X98083957Y-69607000D01*
X98083095Y-69603782D01*
X98080365Y-69601870D01*
X98074691Y-69593767D01*
X98027073Y-69546148D01*
X98009415Y-69537914D01*
X97993450Y-69526735D01*
X97990033Y-69527033D01*
X97987063Y-69525319D01*
X97983683Y-69525914D01*
X97980576Y-69524466D01*
X97961756Y-69529508D01*
X97942342Y-69531207D01*
X97938528Y-69533877D01*
X97936539Y-69534228D01*
X97934417Y-69536755D01*
X97934239Y-69536880D01*
X97931021Y-69537743D01*
X97929109Y-69540472D01*
X97921005Y-69546148D01*
X97873386Y-69593768D01*
X97865152Y-69611425D01*
X97853975Y-69627389D01*
X97854565Y-69634132D01*
X97851706Y-69640264D01*
X97644998Y-69640264D01*
X97087211Y-69082476D01*
X97049040Y-68967962D01*
X97049040Y-68902600D01*
X97083298Y-68834084D01*
X97113705Y-68803677D01*
X97182221Y-68769419D01*
X97384906Y-68769419D01*
X97453422Y-68803677D01*
X97492435Y-68842690D01*
X97538931Y-68864371D01*
X97588486Y-68851094D01*
X97617912Y-68809068D01*
X97613441Y-68757961D01*
X97598501Y-68736624D01*
X97550882Y-68689005D01*
X97549400Y-68688314D01*
X97531390Y-68674956D01*
X97436152Y-68627337D01*
X97431698Y-68626824D01*
X97428263Y-68623942D01*
X97402611Y-68619419D01*
X97164516Y-68619419D01*
X97160302Y-68620952D01*
X97155941Y-68619911D01*
X97130975Y-68627337D01*
X97035737Y-68674956D01*
X97034611Y-68676145D01*
X97016245Y-68689005D01*
X96968626Y-68736624D01*
X96967935Y-68738105D01*
X96954577Y-68756116D01*
X96906958Y-68851354D01*
X96906445Y-68855807D01*
X96903563Y-68859243D01*
X96899040Y-68884895D01*
X96899040Y-68980133D01*
X96756183Y-68980133D01*
X96756183Y-68476562D01*
X99191761Y-68476562D01*
X99191761Y-69912276D01*
G37*
G36*
X90171429Y-69861476D02*
G01*
X87688383Y-69861476D01*
X87688383Y-69453142D01*
X87831240Y-69453142D01*
X87832773Y-69457355D01*
X87831732Y-69461716D01*
X87839158Y-69486683D01*
X87886777Y-69581921D01*
X87887965Y-69583046D01*
X87900825Y-69601412D01*
X87948444Y-69649032D01*
X87949925Y-69649722D01*
X87967937Y-69663082D01*
X88063175Y-69710701D01*
X88067628Y-69711213D01*
X88071064Y-69714096D01*
X88096716Y-69718619D01*
X88382430Y-69718619D01*
X88386643Y-69717085D01*
X88391004Y-69718127D01*
X88415971Y-69710701D01*
X88511209Y-69663082D01*
X88512333Y-69661894D01*
X88530702Y-69649032D01*
X88578320Y-69601413D01*
X88583892Y-69589464D01*
X88783906Y-69589464D01*
X88788948Y-69608284D01*
X88790647Y-69627696D01*
X88796320Y-69635798D01*
X88797183Y-69639019D01*
X88799914Y-69640931D01*
X88805587Y-69649033D01*
X88853206Y-69696652D01*
X88870864Y-69704885D01*
X88886828Y-69716064D01*
X88890244Y-69715765D01*
X88893215Y-69717480D01*
X88896594Y-69716884D01*
X88899702Y-69718333D01*
X88918521Y-69713290D01*
X88937935Y-69711592D01*
X88941748Y-69708922D01*
X88943739Y-69708571D01*
X88945860Y-69706042D01*
X88946037Y-69705918D01*
X88949257Y-69705056D01*
X88951168Y-69702326D01*
X88959272Y-69696652D01*
X89006891Y-69649033D01*
X89015125Y-69631374D01*
X89026302Y-69615412D01*
X89025712Y-69608669D01*
X89028572Y-69602537D01*
X89023529Y-69583718D01*
X89021832Y-69564305D01*
X89016157Y-69556200D01*
X89015295Y-69552982D01*
X89012565Y-69551070D01*
X89006891Y-69542967D01*
X88959273Y-69495348D01*
X88941615Y-69487114D01*
X88925650Y-69475935D01*
X88922233Y-69476233D01*
X88919263Y-69474519D01*
X88915883Y-69475114D01*
X88912776Y-69473666D01*
X88893956Y-69478708D01*
X88874542Y-69480407D01*
X88870728Y-69483077D01*
X88868739Y-69483428D01*
X88866617Y-69485955D01*
X88866439Y-69486080D01*
X88863221Y-69486943D01*
X88861309Y-69489672D01*
X88853205Y-69495348D01*
X88805586Y-69542968D01*
X88797352Y-69560625D01*
X88786175Y-69576589D01*
X88786765Y-69583332D01*
X88783906Y-69589464D01*
X88583892Y-69589464D01*
X88600001Y-69554916D01*
X88586723Y-69505361D01*
X88544698Y-69475935D01*
X88493590Y-69480407D01*
X88472253Y-69495348D01*
X88433240Y-69534361D01*
X88364725Y-69568619D01*
X88114421Y-69568619D01*
X88045905Y-69534361D01*
X88015498Y-69503953D01*
X87990092Y-69453142D01*
X89259811Y-69453142D01*
X89261344Y-69457355D01*
X89260303Y-69461716D01*
X89267729Y-69486683D01*
X89315348Y-69581921D01*
X89316536Y-69583046D01*
X89329396Y-69601412D01*
X89377015Y-69649032D01*
X89378496Y-69649722D01*
X89396508Y-69663082D01*
X89491746Y-69710701D01*
X89496199Y-69711213D01*
X89499635Y-69714096D01*
X89525287Y-69718619D01*
X89811001Y-69718619D01*
X89815214Y-69717085D01*
X89819575Y-69718127D01*
X89844542Y-69710701D01*
X89939780Y-69663082D01*
X89940904Y-69661894D01*
X89959273Y-69649032D01*
X90006891Y-69601413D01*
X90028572Y-69554916D01*
X90015294Y-69505361D01*
X89973269Y-69475935D01*
X89922161Y-69480407D01*
X89900824Y-69495348D01*
X89861811Y-69534361D01*
X89793296Y-69568619D01*
X89542992Y-69568619D01*
X89474476Y-69534361D01*
X89444069Y-69503953D01*
X89409811Y-69435437D01*
X89409811Y-69232752D01*
X89444069Y-69164236D01*
X89474476Y-69133829D01*
X89542992Y-69099571D01*
X89668144Y-69099571D01*
X89687143Y-69092655D01*
X89706980Y-69088733D01*
X89710730Y-69084070D01*
X89716353Y-69082024D01*
X89726462Y-69064514D01*
X89739137Y-69048759D01*
X89739013Y-69042776D01*
X89742005Y-69037595D01*
X89738493Y-69017681D01*
X89738075Y-68997467D01*
X89733635Y-68990133D01*
X89733096Y-68987071D01*
X89730426Y-68984831D01*
X89724587Y-68975183D01*
X89500093Y-68718619D01*
X89953858Y-68718619D01*
X90002067Y-68701072D01*
X90027719Y-68656643D01*
X90018810Y-68606119D01*
X89979510Y-68573142D01*
X89953858Y-68568619D01*
X89334811Y-68568619D01*
X89315811Y-68575534D01*
X89295975Y-68579457D01*
X89292224Y-68584119D01*
X89286602Y-68586166D01*
X89276491Y-68603677D01*
X89263818Y-68619432D01*
X89263941Y-68625413D01*
X89260950Y-68630595D01*
X89264461Y-68650508D01*
X89264880Y-68670723D01*
X89269319Y-68678056D01*
X89269859Y-68681119D01*
X89272528Y-68683358D01*
X89278368Y-68693007D01*
X89506063Y-68953230D01*
X89491746Y-68957489D01*
X89396508Y-69005108D01*
X89395382Y-69006297D01*
X89377016Y-69019157D01*
X89329397Y-69066776D01*
X89328706Y-69068257D01*
X89315348Y-69086268D01*
X89267729Y-69181506D01*
X89267216Y-69185959D01*
X89264334Y-69189395D01*
X89259811Y-69215047D01*
X89259811Y-69453142D01*
X87990092Y-69453142D01*
X87981240Y-69435437D01*
X87981240Y-69232752D01*
X88015498Y-69164236D01*
X88045905Y-69133829D01*
X88114421Y-69099571D01*
X88239573Y-69099571D01*
X88258572Y-69092655D01*
X88278409Y-69088733D01*
X88282159Y-69084070D01*
X88287782Y-69082024D01*
X88297891Y-69064514D01*
X88310566Y-69048759D01*
X88310442Y-69042776D01*
X88313434Y-69037595D01*
X88309922Y-69017681D01*
X88309504Y-68997467D01*
X88305064Y-68990133D01*
X88304525Y-68987071D01*
X88301855Y-68984831D01*
X88296016Y-68975183D01*
X88071522Y-68718619D01*
X88525287Y-68718619D01*
X88573496Y-68701072D01*
X88599148Y-68656643D01*
X88590239Y-68606119D01*
X88550939Y-68573142D01*
X88525287Y-68568619D01*
X87906240Y-68568619D01*
X87887240Y-68575534D01*
X87867404Y-68579457D01*
X87863653Y-68584119D01*
X87858031Y-68586166D01*
X87847920Y-68603677D01*
X87835247Y-68619432D01*
X87835370Y-68625413D01*
X87832379Y-68630595D01*
X87835890Y-68650508D01*
X87836309Y-68670723D01*
X87840748Y-68678056D01*
X87841288Y-68681119D01*
X87843957Y-68683358D01*
X87849797Y-68693007D01*
X88077492Y-68953230D01*
X88063175Y-68957489D01*
X87967937Y-69005108D01*
X87966811Y-69006297D01*
X87948445Y-69019157D01*
X87900826Y-69066776D01*
X87900135Y-69068257D01*
X87886777Y-69086268D01*
X87839158Y-69181506D01*
X87838645Y-69185959D01*
X87835763Y-69189395D01*
X87831240Y-69215047D01*
X87831240Y-69453142D01*
X87688383Y-69453142D01*
X87688383Y-68425762D01*
X90171429Y-68425762D01*
X90171429Y-69861476D01*
G37*
G36*
X91847829Y-100239876D02*
G01*
X89364783Y-100239876D01*
X89364783Y-99831542D01*
X89507640Y-99831542D01*
X89509173Y-99835755D01*
X89508132Y-99840116D01*
X89515558Y-99865083D01*
X89563177Y-99960321D01*
X89564365Y-99961446D01*
X89577225Y-99979812D01*
X89624844Y-100027432D01*
X89626325Y-100028122D01*
X89644337Y-100041482D01*
X89739575Y-100089101D01*
X89744028Y-100089613D01*
X89747464Y-100092496D01*
X89773116Y-100097019D01*
X90058830Y-100097019D01*
X90063043Y-100095485D01*
X90067404Y-100096527D01*
X90092371Y-100089101D01*
X90187609Y-100041482D01*
X90188733Y-100040294D01*
X90207102Y-100027432D01*
X90254720Y-99979813D01*
X90260292Y-99967864D01*
X90460306Y-99967864D01*
X90465348Y-99986684D01*
X90467047Y-100006096D01*
X90472720Y-100014198D01*
X90473583Y-100017419D01*
X90476314Y-100019331D01*
X90481987Y-100027433D01*
X90529606Y-100075052D01*
X90547264Y-100083285D01*
X90563228Y-100094464D01*
X90566644Y-100094165D01*
X90569615Y-100095880D01*
X90572994Y-100095284D01*
X90576102Y-100096733D01*
X90594921Y-100091690D01*
X90614335Y-100089992D01*
X90618148Y-100087322D01*
X90620139Y-100086971D01*
X90622260Y-100084442D01*
X90622437Y-100084318D01*
X90625657Y-100083456D01*
X90627568Y-100080726D01*
X90635672Y-100075052D01*
X90683291Y-100027433D01*
X90691525Y-100009774D01*
X90702702Y-99993812D01*
X90702112Y-99987069D01*
X90704972Y-99980937D01*
X90699929Y-99962118D01*
X90698232Y-99942705D01*
X90692557Y-99934600D01*
X90691695Y-99931382D01*
X90688965Y-99929470D01*
X90683291Y-99921367D01*
X90635673Y-99873748D01*
X90618015Y-99865514D01*
X90602050Y-99854335D01*
X90598633Y-99854633D01*
X90595663Y-99852919D01*
X90592283Y-99853514D01*
X90589176Y-99852066D01*
X90570356Y-99857108D01*
X90550942Y-99858807D01*
X90547128Y-99861477D01*
X90545139Y-99861828D01*
X90543017Y-99864355D01*
X90542839Y-99864480D01*
X90539621Y-99865343D01*
X90537709Y-99868072D01*
X90529605Y-99873748D01*
X90481986Y-99921368D01*
X90473752Y-99939025D01*
X90462575Y-99954989D01*
X90463165Y-99961732D01*
X90460306Y-99967864D01*
X90260292Y-99967864D01*
X90276401Y-99933316D01*
X90263123Y-99883761D01*
X90221098Y-99854335D01*
X90169990Y-99858807D01*
X90148653Y-99873748D01*
X90109640Y-99912761D01*
X90041125Y-99947019D01*
X89790821Y-99947019D01*
X89722305Y-99912761D01*
X89691898Y-99882353D01*
X89666492Y-99831542D01*
X90936211Y-99831542D01*
X90937744Y-99835755D01*
X90936703Y-99840116D01*
X90944129Y-99865083D01*
X90991748Y-99960321D01*
X90992936Y-99961446D01*
X91005796Y-99979812D01*
X91053415Y-100027432D01*
X91054896Y-100028122D01*
X91072908Y-100041482D01*
X91168146Y-100089101D01*
X91172599Y-100089613D01*
X91176035Y-100092496D01*
X91201687Y-100097019D01*
X91487401Y-100097019D01*
X91491614Y-100095485D01*
X91495975Y-100096527D01*
X91520942Y-100089101D01*
X91616180Y-100041482D01*
X91617304Y-100040294D01*
X91635673Y-100027432D01*
X91683291Y-99979813D01*
X91704972Y-99933316D01*
X91691694Y-99883761D01*
X91649669Y-99854335D01*
X91598561Y-99858807D01*
X91577224Y-99873748D01*
X91538211Y-99912761D01*
X91469696Y-99947019D01*
X91219392Y-99947019D01*
X91150876Y-99912761D01*
X91120469Y-99882353D01*
X91086211Y-99813837D01*
X91086211Y-99611152D01*
X91120469Y-99542636D01*
X91150876Y-99512229D01*
X91219392Y-99477971D01*
X91344544Y-99477971D01*
X91363543Y-99471055D01*
X91383380Y-99467133D01*
X91387130Y-99462470D01*
X91392753Y-99460424D01*
X91402862Y-99442914D01*
X91415537Y-99427159D01*
X91415413Y-99421176D01*
X91418405Y-99415995D01*
X91414893Y-99396081D01*
X91414475Y-99375867D01*
X91410035Y-99368533D01*
X91409496Y-99365471D01*
X91406826Y-99363231D01*
X91400987Y-99353583D01*
X91176493Y-99097019D01*
X91630258Y-99097019D01*
X91678467Y-99079472D01*
X91704119Y-99035043D01*
X91695210Y-98984519D01*
X91655910Y-98951542D01*
X91630258Y-98947019D01*
X91011211Y-98947019D01*
X90992211Y-98953934D01*
X90972375Y-98957857D01*
X90968624Y-98962519D01*
X90963002Y-98964566D01*
X90952891Y-98982077D01*
X90940218Y-98997832D01*
X90940341Y-99003813D01*
X90937350Y-99008995D01*
X90940861Y-99028908D01*
X90941280Y-99049123D01*
X90945719Y-99056456D01*
X90946259Y-99059519D01*
X90948928Y-99061758D01*
X90954768Y-99071407D01*
X91182463Y-99331630D01*
X91168146Y-99335889D01*
X91072908Y-99383508D01*
X91071782Y-99384697D01*
X91053416Y-99397557D01*
X91005797Y-99445176D01*
X91005106Y-99446657D01*
X90991748Y-99464668D01*
X90944129Y-99559906D01*
X90943616Y-99564359D01*
X90940734Y-99567795D01*
X90936211Y-99593447D01*
X90936211Y-99831542D01*
X89666492Y-99831542D01*
X89657640Y-99813837D01*
X89657640Y-99611152D01*
X89691898Y-99542636D01*
X89722305Y-99512229D01*
X89790821Y-99477971D01*
X89915973Y-99477971D01*
X89934972Y-99471055D01*
X89954809Y-99467133D01*
X89958559Y-99462470D01*
X89964182Y-99460424D01*
X89974291Y-99442914D01*
X89986966Y-99427159D01*
X89986842Y-99421176D01*
X89989834Y-99415995D01*
X89986322Y-99396081D01*
X89985904Y-99375867D01*
X89981464Y-99368533D01*
X89980925Y-99365471D01*
X89978255Y-99363231D01*
X89972416Y-99353583D01*
X89747922Y-99097019D01*
X90201687Y-99097019D01*
X90249896Y-99079472D01*
X90275548Y-99035043D01*
X90266639Y-98984519D01*
X90227339Y-98951542D01*
X90201687Y-98947019D01*
X89582640Y-98947019D01*
X89563640Y-98953934D01*
X89543804Y-98957857D01*
X89540053Y-98962519D01*
X89534431Y-98964566D01*
X89524320Y-98982077D01*
X89511647Y-98997832D01*
X89511770Y-99003813D01*
X89508779Y-99008995D01*
X89512290Y-99028908D01*
X89512709Y-99049123D01*
X89517148Y-99056456D01*
X89517688Y-99059519D01*
X89520357Y-99061758D01*
X89526197Y-99071407D01*
X89753892Y-99331630D01*
X89739575Y-99335889D01*
X89644337Y-99383508D01*
X89643211Y-99384697D01*
X89624845Y-99397557D01*
X89577226Y-99445176D01*
X89576535Y-99446657D01*
X89563177Y-99464668D01*
X89515558Y-99559906D01*
X89515045Y-99564359D01*
X89512163Y-99567795D01*
X89507640Y-99593447D01*
X89507640Y-99831542D01*
X89364783Y-99831542D01*
X89364783Y-98804162D01*
X91847829Y-98804162D01*
X91847829Y-100239876D01*
G37*
X54800428Y-74580278D02*
X54871857Y-74544564D01*
X54871857Y-74544564D02*
X54978999Y-74544564D01*
X54978999Y-74544564D02*
X55086142Y-74580278D01*
X55086142Y-74580278D02*
X55157571Y-74651707D01*
X55157571Y-74651707D02*
X55193285Y-74723135D01*
X55193285Y-74723135D02*
X55228999Y-74865992D01*
X55228999Y-74865992D02*
X55228999Y-74973135D01*
X55228999Y-74973135D02*
X55193285Y-75115992D01*
X55193285Y-75115992D02*
X55157571Y-75187421D01*
X55157571Y-75187421D02*
X55086142Y-75258850D01*
X55086142Y-75258850D02*
X54978999Y-75294564D01*
X54978999Y-75294564D02*
X54907571Y-75294564D01*
X54907571Y-75294564D02*
X54800428Y-75258850D01*
X54800428Y-75258850D02*
X54764714Y-75223135D01*
X54764714Y-75223135D02*
X54764714Y-74973135D01*
X54764714Y-74973135D02*
X54907571Y-74973135D01*
X54443285Y-75294564D02*
X54443285Y-74544564D01*
X54443285Y-74544564D02*
X54014714Y-75294564D01*
X54014714Y-75294564D02*
X54014714Y-74544564D01*
X53657571Y-75294564D02*
X53657571Y-74544564D01*
X53657571Y-74544564D02*
X53479000Y-74544564D01*
X53479000Y-74544564D02*
X53371857Y-74580278D01*
X53371857Y-74580278D02*
X53300428Y-74651707D01*
X53300428Y-74651707D02*
X53264714Y-74723135D01*
X53264714Y-74723135D02*
X53229000Y-74865992D01*
X53229000Y-74865992D02*
X53229000Y-74973135D01*
X53229000Y-74973135D02*
X53264714Y-75115992D01*
X53264714Y-75115992D02*
X53300428Y-75187421D01*
X53300428Y-75187421D02*
X53371857Y-75258850D01*
X53371857Y-75258850D02*
X53479000Y-75294564D01*
X53479000Y-75294564D02*
X53657571Y-75294564D01*
X105953838Y-80111695D02*
X105906219Y-80016457D01*
X105906219Y-80016457D02*
X105906219Y-79873600D01*
X105906219Y-79873600D02*
X105953838Y-79730743D01*
X105953838Y-79730743D02*
X106049076Y-79635505D01*
X106049076Y-79635505D02*
X106144314Y-79587886D01*
X106144314Y-79587886D02*
X106334790Y-79540267D01*
X106334790Y-79540267D02*
X106477647Y-79540267D01*
X106477647Y-79540267D02*
X106668123Y-79587886D01*
X106668123Y-79587886D02*
X106763361Y-79635505D01*
X106763361Y-79635505D02*
X106858600Y-79730743D01*
X106858600Y-79730743D02*
X106906219Y-79873600D01*
X106906219Y-79873600D02*
X106906219Y-79968838D01*
X106906219Y-79968838D02*
X106858600Y-80111695D01*
X106858600Y-80111695D02*
X106810980Y-80159314D01*
X106810980Y-80159314D02*
X106477647Y-80159314D01*
X106477647Y-80159314D02*
X106477647Y-79968838D01*
X106906219Y-80587886D02*
X105906219Y-80587886D01*
X105906219Y-80587886D02*
X106906219Y-81159314D01*
X106906219Y-81159314D02*
X105906219Y-81159314D01*
X106906219Y-81635505D02*
X105906219Y-81635505D01*
X105906219Y-81635505D02*
X105906219Y-81873600D01*
X105906219Y-81873600D02*
X105953838Y-82016457D01*
X105953838Y-82016457D02*
X106049076Y-82111695D01*
X106049076Y-82111695D02*
X106144314Y-82159314D01*
X106144314Y-82159314D02*
X106334790Y-82206933D01*
X106334790Y-82206933D02*
X106477647Y-82206933D01*
X106477647Y-82206933D02*
X106668123Y-82159314D01*
X106668123Y-82159314D02*
X106763361Y-82111695D01*
X106763361Y-82111695D02*
X106858600Y-82016457D01*
X106858600Y-82016457D02*
X106906219Y-81873600D01*
X106906219Y-81873600D02*
X106906219Y-81635505D01*
X103614408Y-71336819D02*
X103042980Y-71336819D01*
X103328694Y-72336819D02*
X103328694Y-71336819D01*
X102709646Y-72336819D02*
X102709646Y-71336819D01*
X102709646Y-71336819D02*
X102471551Y-71336819D01*
X102471551Y-71336819D02*
X102328694Y-71384438D01*
X102328694Y-71384438D02*
X102233456Y-71479676D01*
X102233456Y-71479676D02*
X102185837Y-71574914D01*
X102185837Y-71574914D02*
X102138218Y-71765390D01*
X102138218Y-71765390D02*
X102138218Y-71908247D01*
X102138218Y-71908247D02*
X102185837Y-72098723D01*
X102185837Y-72098723D02*
X102233456Y-72193961D01*
X102233456Y-72193961D02*
X102328694Y-72289200D01*
X102328694Y-72289200D02*
X102471551Y-72336819D01*
X102471551Y-72336819D02*
X102709646Y-72336819D01*
X101709646Y-72336819D02*
X101709646Y-71336819D01*
X73507504Y-82157219D02*
X73507504Y-82966742D01*
X73507504Y-82966742D02*
X73459885Y-83061980D01*
X73459885Y-83061980D02*
X73412266Y-83109600D01*
X73412266Y-83109600D02*
X73317028Y-83157219D01*
X73317028Y-83157219D02*
X73126552Y-83157219D01*
X73126552Y-83157219D02*
X73031314Y-83109600D01*
X73031314Y-83109600D02*
X72983695Y-83061980D01*
X72983695Y-83061980D02*
X72936076Y-82966742D01*
X72936076Y-82966742D02*
X72936076Y-82157219D01*
X71983695Y-82157219D02*
X72459885Y-82157219D01*
X72459885Y-82157219D02*
X72507504Y-82633409D01*
X72507504Y-82633409D02*
X72459885Y-82585790D01*
X72459885Y-82585790D02*
X72364647Y-82538171D01*
X72364647Y-82538171D02*
X72126552Y-82538171D01*
X72126552Y-82538171D02*
X72031314Y-82585790D01*
X72031314Y-82585790D02*
X71983695Y-82633409D01*
X71983695Y-82633409D02*
X71936076Y-82728647D01*
X71936076Y-82728647D02*
X71936076Y-82966742D01*
X71936076Y-82966742D02*
X71983695Y-83061980D01*
X71983695Y-83061980D02*
X72031314Y-83109600D01*
X72031314Y-83109600D02*
X72126552Y-83157219D01*
X72126552Y-83157219D02*
X72364647Y-83157219D01*
X72364647Y-83157219D02*
X72459885Y-83109600D01*
X72459885Y-83109600D02*
X72507504Y-83061980D01*
X71717819Y-67919695D02*
X72527342Y-67919695D01*
X72527342Y-67919695D02*
X72622580Y-67967314D01*
X72622580Y-67967314D02*
X72670200Y-68014933D01*
X72670200Y-68014933D02*
X72717819Y-68110171D01*
X72717819Y-68110171D02*
X72717819Y-68300647D01*
X72717819Y-68300647D02*
X72670200Y-68395885D01*
X72670200Y-68395885D02*
X72622580Y-68443504D01*
X72622580Y-68443504D02*
X72527342Y-68491123D01*
X72527342Y-68491123D02*
X71717819Y-68491123D01*
X72717819Y-69491123D02*
X72717819Y-68919695D01*
X72717819Y-69205409D02*
X71717819Y-69205409D01*
X71717819Y-69205409D02*
X71860676Y-69110171D01*
X71860676Y-69110171D02*
X71955914Y-69014933D01*
X71955914Y-69014933D02*
X72003533Y-68919695D01*
X54751628Y-73165735D02*
X54787342Y-73201450D01*
X54787342Y-73201450D02*
X54894485Y-73237164D01*
X54894485Y-73237164D02*
X54965913Y-73237164D01*
X54965913Y-73237164D02*
X55073056Y-73201450D01*
X55073056Y-73201450D02*
X55144485Y-73130021D01*
X55144485Y-73130021D02*
X55180199Y-73058592D01*
X55180199Y-73058592D02*
X55215913Y-72915735D01*
X55215913Y-72915735D02*
X55215913Y-72808592D01*
X55215913Y-72808592D02*
X55180199Y-72665735D01*
X55180199Y-72665735D02*
X55144485Y-72594307D01*
X55144485Y-72594307D02*
X55073056Y-72522878D01*
X55073056Y-72522878D02*
X54965913Y-72487164D01*
X54965913Y-72487164D02*
X54894485Y-72487164D01*
X54894485Y-72487164D02*
X54787342Y-72522878D01*
X54787342Y-72522878D02*
X54751628Y-72558592D01*
X54073056Y-73237164D02*
X54430199Y-73237164D01*
X54430199Y-73237164D02*
X54430199Y-72487164D01*
X53823056Y-73237164D02*
X53823056Y-72487164D01*
X53394485Y-73237164D02*
X53715913Y-72808592D01*
X53394485Y-72487164D02*
X53823056Y-72915735D01*
X103596913Y-73419619D02*
X103025485Y-73419619D01*
X103311199Y-74419619D02*
X103311199Y-73419619D01*
X102120723Y-74324380D02*
X102168342Y-74372000D01*
X102168342Y-74372000D02*
X102311199Y-74419619D01*
X102311199Y-74419619D02*
X102406437Y-74419619D01*
X102406437Y-74419619D02*
X102549294Y-74372000D01*
X102549294Y-74372000D02*
X102644532Y-74276761D01*
X102644532Y-74276761D02*
X102692151Y-74181523D01*
X102692151Y-74181523D02*
X102739770Y-73991047D01*
X102739770Y-73991047D02*
X102739770Y-73848190D01*
X102739770Y-73848190D02*
X102692151Y-73657714D01*
X102692151Y-73657714D02*
X102644532Y-73562476D01*
X102644532Y-73562476D02*
X102549294Y-73467238D01*
X102549294Y-73467238D02*
X102406437Y-73419619D01*
X102406437Y-73419619D02*
X102311199Y-73419619D01*
X102311199Y-73419619D02*
X102168342Y-73467238D01*
X102168342Y-73467238D02*
X102120723Y-73514857D01*
X101692151Y-74419619D02*
X101692151Y-73419619D01*
X101120723Y-74419619D02*
X101549294Y-73848190D01*
X101120723Y-73419619D02*
X101692151Y-73991047D01*
X55104456Y-77351964D02*
X55104456Y-76601964D01*
X54604456Y-76601964D02*
X54461599Y-76601964D01*
X54461599Y-76601964D02*
X54390170Y-76637678D01*
X54390170Y-76637678D02*
X54318742Y-76709107D01*
X54318742Y-76709107D02*
X54283027Y-76851964D01*
X54283027Y-76851964D02*
X54283027Y-77101964D01*
X54283027Y-77101964D02*
X54318742Y-77244821D01*
X54318742Y-77244821D02*
X54390170Y-77316250D01*
X54390170Y-77316250D02*
X54461599Y-77351964D01*
X54461599Y-77351964D02*
X54604456Y-77351964D01*
X54604456Y-77351964D02*
X54675885Y-77316250D01*
X54675885Y-77316250D02*
X54747313Y-77244821D01*
X54747313Y-77244821D02*
X54783027Y-77101964D01*
X54783027Y-77101964D02*
X54783027Y-76851964D01*
X54783027Y-76851964D02*
X54747313Y-76709107D01*
X54747313Y-76709107D02*
X54675885Y-76637678D01*
X54675885Y-76637678D02*
X54604456Y-76601964D01*
X109873894Y-48756219D02*
X109873894Y-49565742D01*
X109873894Y-49565742D02*
X109826275Y-49660980D01*
X109826275Y-49660980D02*
X109778656Y-49708600D01*
X109778656Y-49708600D02*
X109683418Y-49756219D01*
X109683418Y-49756219D02*
X109492942Y-49756219D01*
X109492942Y-49756219D02*
X109397704Y-49708600D01*
X109397704Y-49708600D02*
X109350085Y-49660980D01*
X109350085Y-49660980D02*
X109302466Y-49565742D01*
X109302466Y-49565742D02*
X109302466Y-48756219D01*
X108302466Y-49756219D02*
X108873894Y-49756219D01*
X108588180Y-49756219D02*
X108588180Y-48756219D01*
X108588180Y-48756219D02*
X108683418Y-48899076D01*
X108683418Y-48899076D02*
X108778656Y-48994314D01*
X108778656Y-48994314D02*
X108873894Y-49041933D01*
X107826275Y-49756219D02*
X107635799Y-49756219D01*
X107635799Y-49756219D02*
X107540561Y-49708600D01*
X107540561Y-49708600D02*
X107492942Y-49660980D01*
X107492942Y-49660980D02*
X107397704Y-49518123D01*
X107397704Y-49518123D02*
X107350085Y-49327647D01*
X107350085Y-49327647D02*
X107350085Y-48946695D01*
X107350085Y-48946695D02*
X107397704Y-48851457D01*
X107397704Y-48851457D02*
X107445323Y-48803838D01*
X107445323Y-48803838D02*
X107540561Y-48756219D01*
X107540561Y-48756219D02*
X107731037Y-48756219D01*
X107731037Y-48756219D02*
X107826275Y-48803838D01*
X107826275Y-48803838D02*
X107873894Y-48851457D01*
X107873894Y-48851457D02*
X107921513Y-48946695D01*
X107921513Y-48946695D02*
X107921513Y-49184790D01*
X107921513Y-49184790D02*
X107873894Y-49280028D01*
X107873894Y-49280028D02*
X107826275Y-49327647D01*
X107826275Y-49327647D02*
X107731037Y-49375266D01*
X107731037Y-49375266D02*
X107540561Y-49375266D01*
X107540561Y-49375266D02*
X107445323Y-49327647D01*
X107445323Y-49327647D02*
X107397704Y-49280028D01*
X107397704Y-49280028D02*
X107350085Y-49184790D01*
X103619132Y-69279419D02*
X103047704Y-69279419D01*
X103333418Y-70279419D02*
X103333418Y-69279419D01*
X102714370Y-70279419D02*
X102714370Y-69279419D01*
X102714370Y-69279419D02*
X102381037Y-69993704D01*
X102381037Y-69993704D02*
X102047704Y-69279419D01*
X102047704Y-69279419D02*
X102047704Y-70279419D01*
X101619132Y-70231800D02*
X101476275Y-70279419D01*
X101476275Y-70279419D02*
X101238180Y-70279419D01*
X101238180Y-70279419D02*
X101142942Y-70231800D01*
X101142942Y-70231800D02*
X101095323Y-70184180D01*
X101095323Y-70184180D02*
X101047704Y-70088942D01*
X101047704Y-70088942D02*
X101047704Y-69993704D01*
X101047704Y-69993704D02*
X101095323Y-69898466D01*
X101095323Y-69898466D02*
X101142942Y-69850847D01*
X101142942Y-69850847D02*
X101238180Y-69803228D01*
X101238180Y-69803228D02*
X101428656Y-69755609D01*
X101428656Y-69755609D02*
X101523894Y-69707990D01*
X101523894Y-69707990D02*
X101571513Y-69660371D01*
X101571513Y-69660371D02*
X101619132Y-69565133D01*
X101619132Y-69565133D02*
X101619132Y-69469895D01*
X101619132Y-69469895D02*
X101571513Y-69374657D01*
X101571513Y-69374657D02*
X101523894Y-69327038D01*
X101523894Y-69327038D02*
X101428656Y-69279419D01*
X101428656Y-69279419D02*
X101190561Y-69279419D01*
X101190561Y-69279419D02*
X101047704Y-69327038D01*
X105906219Y-76238267D02*
X106906219Y-76571600D01*
X106906219Y-76571600D02*
X105906219Y-76904933D01*
X106810980Y-77809695D02*
X106858600Y-77762076D01*
X106858600Y-77762076D02*
X106906219Y-77619219D01*
X106906219Y-77619219D02*
X106906219Y-77523981D01*
X106906219Y-77523981D02*
X106858600Y-77381124D01*
X106858600Y-77381124D02*
X106763361Y-77285886D01*
X106763361Y-77285886D02*
X106668123Y-77238267D01*
X106668123Y-77238267D02*
X106477647Y-77190648D01*
X106477647Y-77190648D02*
X106334790Y-77190648D01*
X106334790Y-77190648D02*
X106144314Y-77238267D01*
X106144314Y-77238267D02*
X106049076Y-77285886D01*
X106049076Y-77285886D02*
X105953838Y-77381124D01*
X105953838Y-77381124D02*
X105906219Y-77523981D01*
X105906219Y-77523981D02*
X105906219Y-77619219D01*
X105906219Y-77619219D02*
X105953838Y-77762076D01*
X105953838Y-77762076D02*
X106001457Y-77809695D01*
X106810980Y-78809695D02*
X106858600Y-78762076D01*
X106858600Y-78762076D02*
X106906219Y-78619219D01*
X106906219Y-78619219D02*
X106906219Y-78523981D01*
X106906219Y-78523981D02*
X106858600Y-78381124D01*
X106858600Y-78381124D02*
X106763361Y-78285886D01*
X106763361Y-78285886D02*
X106668123Y-78238267D01*
X106668123Y-78238267D02*
X106477647Y-78190648D01*
X106477647Y-78190648D02*
X106334790Y-78190648D01*
X106334790Y-78190648D02*
X106144314Y-78238267D01*
X106144314Y-78238267D02*
X106049076Y-78285886D01*
X106049076Y-78285886D02*
X105953838Y-78381124D01*
X105953838Y-78381124D02*
X105906219Y-78523981D01*
X105906219Y-78523981D02*
X105906219Y-78619219D01*
X105906219Y-78619219D02*
X105953838Y-78762076D01*
X105953838Y-78762076D02*
X106001457Y-78809695D01*
X94806419Y-66478305D02*
X95615942Y-66478305D01*
X95615942Y-66478305D02*
X95711180Y-66525924D01*
X95711180Y-66525924D02*
X95758800Y-66573543D01*
X95758800Y-66573543D02*
X95806419Y-66668781D01*
X95806419Y-66668781D02*
X95806419Y-66859257D01*
X95806419Y-66859257D02*
X95758800Y-66954495D01*
X95758800Y-66954495D02*
X95711180Y-67002114D01*
X95711180Y-67002114D02*
X95615942Y-67049733D01*
X95615942Y-67049733D02*
X94806419Y-67049733D01*
X95806419Y-68049733D02*
X95806419Y-67478305D01*
X95806419Y-67764019D02*
X94806419Y-67764019D01*
X94806419Y-67764019D02*
X94949276Y-67668781D01*
X94949276Y-67668781D02*
X95044514Y-67573543D01*
X95044514Y-67573543D02*
X95092133Y-67478305D01*
X94806419Y-68383067D02*
X94806419Y-69002114D01*
X94806419Y-69002114D02*
X95187371Y-68668781D01*
X95187371Y-68668781D02*
X95187371Y-68811638D01*
X95187371Y-68811638D02*
X95234990Y-68906876D01*
X95234990Y-68906876D02*
X95282609Y-68954495D01*
X95282609Y-68954495D02*
X95377847Y-69002114D01*
X95377847Y-69002114D02*
X95615942Y-69002114D01*
X95615942Y-69002114D02*
X95711180Y-68954495D01*
X95711180Y-68954495D02*
X95758800Y-68906876D01*
X95758800Y-68906876D02*
X95806419Y-68811638D01*
X95806419Y-68811638D02*
X95806419Y-68525924D01*
X95806419Y-68525924D02*
X95758800Y-68430686D01*
X95758800Y-68430686D02*
X95711180Y-68383067D01*
X57276904Y-55665019D02*
X57276904Y-56474542D01*
X57276904Y-56474542D02*
X57229285Y-56569780D01*
X57229285Y-56569780D02*
X57181666Y-56617400D01*
X57181666Y-56617400D02*
X57086428Y-56665019D01*
X57086428Y-56665019D02*
X56895952Y-56665019D01*
X56895952Y-56665019D02*
X56800714Y-56617400D01*
X56800714Y-56617400D02*
X56753095Y-56569780D01*
X56753095Y-56569780D02*
X56705476Y-56474542D01*
X56705476Y-56474542D02*
X56705476Y-55665019D01*
X56276904Y-55760257D02*
X56229285Y-55712638D01*
X56229285Y-55712638D02*
X56134047Y-55665019D01*
X56134047Y-55665019D02*
X55895952Y-55665019D01*
X55895952Y-55665019D02*
X55800714Y-55712638D01*
X55800714Y-55712638D02*
X55753095Y-55760257D01*
X55753095Y-55760257D02*
X55705476Y-55855495D01*
X55705476Y-55855495D02*
X55705476Y-55950733D01*
X55705476Y-55950733D02*
X55753095Y-56093590D01*
X55753095Y-56093590D02*
X56324523Y-56665019D01*
X56324523Y-56665019D02*
X55705476Y-56665019D01*
X120942694Y-89980419D02*
X120942694Y-90789942D01*
X120942694Y-90789942D02*
X120895075Y-90885180D01*
X120895075Y-90885180D02*
X120847456Y-90932800D01*
X120847456Y-90932800D02*
X120752218Y-90980419D01*
X120752218Y-90980419D02*
X120561742Y-90980419D01*
X120561742Y-90980419D02*
X120466504Y-90932800D01*
X120466504Y-90932800D02*
X120418885Y-90885180D01*
X120418885Y-90885180D02*
X120371266Y-90789942D01*
X120371266Y-90789942D02*
X120371266Y-89980419D01*
X119371266Y-90980419D02*
X119942694Y-90980419D01*
X119656980Y-90980419D02*
X119656980Y-89980419D01*
X119656980Y-89980419D02*
X119752218Y-90123276D01*
X119752218Y-90123276D02*
X119847456Y-90218514D01*
X119847456Y-90218514D02*
X119942694Y-90266133D01*
X118514123Y-90313752D02*
X118514123Y-90980419D01*
X118752218Y-89932800D02*
X118990313Y-90647085D01*
X118990313Y-90647085D02*
X118371266Y-90647085D01*
X84270694Y-99124419D02*
X84270694Y-99933942D01*
X84270694Y-99933942D02*
X84223075Y-100029180D01*
X84223075Y-100029180D02*
X84175456Y-100076800D01*
X84175456Y-100076800D02*
X84080218Y-100124419D01*
X84080218Y-100124419D02*
X83889742Y-100124419D01*
X83889742Y-100124419D02*
X83794504Y-100076800D01*
X83794504Y-100076800D02*
X83746885Y-100029180D01*
X83746885Y-100029180D02*
X83699266Y-99933942D01*
X83699266Y-99933942D02*
X83699266Y-99124419D01*
X82699266Y-100124419D02*
X83270694Y-100124419D01*
X82984980Y-100124419D02*
X82984980Y-99124419D01*
X82984980Y-99124419D02*
X83080218Y-99267276D01*
X83080218Y-99267276D02*
X83175456Y-99362514D01*
X83175456Y-99362514D02*
X83270694Y-99410133D01*
X82127837Y-99552990D02*
X82223075Y-99505371D01*
X82223075Y-99505371D02*
X82270694Y-99457752D01*
X82270694Y-99457752D02*
X82318313Y-99362514D01*
X82318313Y-99362514D02*
X82318313Y-99314895D01*
X82318313Y-99314895D02*
X82270694Y-99219657D01*
X82270694Y-99219657D02*
X82223075Y-99172038D01*
X82223075Y-99172038D02*
X82127837Y-99124419D01*
X82127837Y-99124419D02*
X81937361Y-99124419D01*
X81937361Y-99124419D02*
X81842123Y-99172038D01*
X81842123Y-99172038D02*
X81794504Y-99219657D01*
X81794504Y-99219657D02*
X81746885Y-99314895D01*
X81746885Y-99314895D02*
X81746885Y-99362514D01*
X81746885Y-99362514D02*
X81794504Y-99457752D01*
X81794504Y-99457752D02*
X81842123Y-99505371D01*
X81842123Y-99505371D02*
X81937361Y-99552990D01*
X81937361Y-99552990D02*
X82127837Y-99552990D01*
X82127837Y-99552990D02*
X82223075Y-99600609D01*
X82223075Y-99600609D02*
X82270694Y-99648228D01*
X82270694Y-99648228D02*
X82318313Y-99743466D01*
X82318313Y-99743466D02*
X82318313Y-99933942D01*
X82318313Y-99933942D02*
X82270694Y-100029180D01*
X82270694Y-100029180D02*
X82223075Y-100076800D01*
X82223075Y-100076800D02*
X82127837Y-100124419D01*
X82127837Y-100124419D02*
X81937361Y-100124419D01*
X81937361Y-100124419D02*
X81842123Y-100076800D01*
X81842123Y-100076800D02*
X81794504Y-100029180D01*
X81794504Y-100029180D02*
X81746885Y-99933942D01*
X81746885Y-99933942D02*
X81746885Y-99743466D01*
X81746885Y-99743466D02*
X81794504Y-99648228D01*
X81794504Y-99648228D02*
X81842123Y-99600609D01*
X81842123Y-99600609D02*
X81937361Y-99552990D01*
X85637019Y-66478305D02*
X86446542Y-66478305D01*
X86446542Y-66478305D02*
X86541780Y-66525924D01*
X86541780Y-66525924D02*
X86589400Y-66573543D01*
X86589400Y-66573543D02*
X86637019Y-66668781D01*
X86637019Y-66668781D02*
X86637019Y-66859257D01*
X86637019Y-66859257D02*
X86589400Y-66954495D01*
X86589400Y-66954495D02*
X86541780Y-67002114D01*
X86541780Y-67002114D02*
X86446542Y-67049733D01*
X86446542Y-67049733D02*
X85637019Y-67049733D01*
X86637019Y-68049733D02*
X86637019Y-67478305D01*
X86637019Y-67764019D02*
X85637019Y-67764019D01*
X85637019Y-67764019D02*
X85779876Y-67668781D01*
X85779876Y-67668781D02*
X85875114Y-67573543D01*
X85875114Y-67573543D02*
X85922733Y-67478305D01*
X85732257Y-68430686D02*
X85684638Y-68478305D01*
X85684638Y-68478305D02*
X85637019Y-68573543D01*
X85637019Y-68573543D02*
X85637019Y-68811638D01*
X85637019Y-68811638D02*
X85684638Y-68906876D01*
X85684638Y-68906876D02*
X85732257Y-68954495D01*
X85732257Y-68954495D02*
X85827495Y-69002114D01*
X85827495Y-69002114D02*
X85922733Y-69002114D01*
X85922733Y-69002114D02*
X86065590Y-68954495D01*
X86065590Y-68954495D02*
X86637019Y-68383067D01*
X86637019Y-68383067D02*
X86637019Y-69002114D01*
X75113304Y-42520519D02*
X75113304Y-43330042D01*
X75113304Y-43330042D02*
X75065685Y-43425280D01*
X75065685Y-43425280D02*
X75018066Y-43472900D01*
X75018066Y-43472900D02*
X74922828Y-43520519D01*
X74922828Y-43520519D02*
X74732352Y-43520519D01*
X74732352Y-43520519D02*
X74637114Y-43472900D01*
X74637114Y-43472900D02*
X74589495Y-43425280D01*
X74589495Y-43425280D02*
X74541876Y-43330042D01*
X74541876Y-43330042D02*
X74541876Y-42520519D01*
X73637114Y-42853852D02*
X73637114Y-43520519D01*
X73875209Y-42472900D02*
X74113304Y-43187185D01*
X74113304Y-43187185D02*
X73494257Y-43187185D01*
X65601694Y-104509219D02*
X65601694Y-105318742D01*
X65601694Y-105318742D02*
X65554075Y-105413980D01*
X65554075Y-105413980D02*
X65506456Y-105461600D01*
X65506456Y-105461600D02*
X65411218Y-105509219D01*
X65411218Y-105509219D02*
X65220742Y-105509219D01*
X65220742Y-105509219D02*
X65125504Y-105461600D01*
X65125504Y-105461600D02*
X65077885Y-105413980D01*
X65077885Y-105413980D02*
X65030266Y-105318742D01*
X65030266Y-105318742D02*
X65030266Y-104509219D01*
X64030266Y-105509219D02*
X64601694Y-105509219D01*
X64315980Y-105509219D02*
X64315980Y-104509219D01*
X64315980Y-104509219D02*
X64411218Y-104652076D01*
X64411218Y-104652076D02*
X64506456Y-104747314D01*
X64506456Y-104747314D02*
X64601694Y-104794933D01*
X63696932Y-104509219D02*
X63030266Y-104509219D01*
X63030266Y-104509219D02*
X63458837Y-105509219D01*
X63017304Y-82004819D02*
X63017304Y-82814342D01*
X63017304Y-82814342D02*
X62969685Y-82909580D01*
X62969685Y-82909580D02*
X62922066Y-82957200D01*
X62922066Y-82957200D02*
X62826828Y-83004819D01*
X62826828Y-83004819D02*
X62636352Y-83004819D01*
X62636352Y-83004819D02*
X62541114Y-82957200D01*
X62541114Y-82957200D02*
X62493495Y-82909580D01*
X62493495Y-82909580D02*
X62445876Y-82814342D01*
X62445876Y-82814342D02*
X62445876Y-82004819D01*
X61541114Y-82004819D02*
X61731590Y-82004819D01*
X61731590Y-82004819D02*
X61826828Y-82052438D01*
X61826828Y-82052438D02*
X61874447Y-82100057D01*
X61874447Y-82100057D02*
X61969685Y-82242914D01*
X61969685Y-82242914D02*
X62017304Y-82433390D01*
X62017304Y-82433390D02*
X62017304Y-82814342D01*
X62017304Y-82814342D02*
X61969685Y-82909580D01*
X61969685Y-82909580D02*
X61922066Y-82957200D01*
X61922066Y-82957200D02*
X61826828Y-83004819D01*
X61826828Y-83004819D02*
X61636352Y-83004819D01*
X61636352Y-83004819D02*
X61541114Y-82957200D01*
X61541114Y-82957200D02*
X61493495Y-82909580D01*
X61493495Y-82909580D02*
X61445876Y-82814342D01*
X61445876Y-82814342D02*
X61445876Y-82576247D01*
X61445876Y-82576247D02*
X61493495Y-82481009D01*
X61493495Y-82481009D02*
X61541114Y-82433390D01*
X61541114Y-82433390D02*
X61636352Y-82385771D01*
X61636352Y-82385771D02*
X61826828Y-82385771D01*
X61826828Y-82385771D02*
X61922066Y-82433390D01*
X61922066Y-82433390D02*
X61969685Y-82481009D01*
X61969685Y-82481009D02*
X62017304Y-82576247D01*
X99309133Y-82436619D02*
X99309133Y-83150904D01*
X99309133Y-83150904D02*
X99356752Y-83293761D01*
X99356752Y-83293761D02*
X99451990Y-83389000D01*
X99451990Y-83389000D02*
X99594847Y-83436619D01*
X99594847Y-83436619D02*
X99690085Y-83436619D01*
X98832942Y-83436619D02*
X98832942Y-82436619D01*
X98832942Y-82436619D02*
X98451990Y-82436619D01*
X98451990Y-82436619D02*
X98356752Y-82484238D01*
X98356752Y-82484238D02*
X98309133Y-82531857D01*
X98309133Y-82531857D02*
X98261514Y-82627095D01*
X98261514Y-82627095D02*
X98261514Y-82769952D01*
X98261514Y-82769952D02*
X98309133Y-82865190D01*
X98309133Y-82865190D02*
X98356752Y-82912809D01*
X98356752Y-82912809D02*
X98451990Y-82960428D01*
X98451990Y-82960428D02*
X98832942Y-82960428D01*
X97309133Y-83436619D02*
X97880561Y-83436619D01*
X97594847Y-83436619D02*
X97594847Y-82436619D01*
X97594847Y-82436619D02*
X97690085Y-82579476D01*
X97690085Y-82579476D02*
X97785323Y-82674714D01*
X97785323Y-82674714D02*
X97880561Y-82722333D01*
X94252894Y-96355819D02*
X94252894Y-97165342D01*
X94252894Y-97165342D02*
X94205275Y-97260580D01*
X94205275Y-97260580D02*
X94157656Y-97308200D01*
X94157656Y-97308200D02*
X94062418Y-97355819D01*
X94062418Y-97355819D02*
X93871942Y-97355819D01*
X93871942Y-97355819D02*
X93776704Y-97308200D01*
X93776704Y-97308200D02*
X93729085Y-97260580D01*
X93729085Y-97260580D02*
X93681466Y-97165342D01*
X93681466Y-97165342D02*
X93681466Y-96355819D01*
X93252894Y-96451057D02*
X93205275Y-96403438D01*
X93205275Y-96403438D02*
X93110037Y-96355819D01*
X93110037Y-96355819D02*
X92871942Y-96355819D01*
X92871942Y-96355819D02*
X92776704Y-96403438D01*
X92776704Y-96403438D02*
X92729085Y-96451057D01*
X92729085Y-96451057D02*
X92681466Y-96546295D01*
X92681466Y-96546295D02*
X92681466Y-96641533D01*
X92681466Y-96641533D02*
X92729085Y-96784390D01*
X92729085Y-96784390D02*
X93300513Y-97355819D01*
X93300513Y-97355819D02*
X92681466Y-97355819D01*
X92062418Y-96355819D02*
X91967180Y-96355819D01*
X91967180Y-96355819D02*
X91871942Y-96403438D01*
X91871942Y-96403438D02*
X91824323Y-96451057D01*
X91824323Y-96451057D02*
X91776704Y-96546295D01*
X91776704Y-96546295D02*
X91729085Y-96736771D01*
X91729085Y-96736771D02*
X91729085Y-96974866D01*
X91729085Y-96974866D02*
X91776704Y-97165342D01*
X91776704Y-97165342D02*
X91824323Y-97260580D01*
X91824323Y-97260580D02*
X91871942Y-97308200D01*
X91871942Y-97308200D02*
X91967180Y-97355819D01*
X91967180Y-97355819D02*
X92062418Y-97355819D01*
X92062418Y-97355819D02*
X92157656Y-97308200D01*
X92157656Y-97308200D02*
X92205275Y-97260580D01*
X92205275Y-97260580D02*
X92252894Y-97165342D01*
X92252894Y-97165342D02*
X92300513Y-96974866D01*
X92300513Y-96974866D02*
X92300513Y-96736771D01*
X92300513Y-96736771D02*
X92252894Y-96546295D01*
X92252894Y-96546295D02*
X92205275Y-96451057D01*
X92205275Y-96451057D02*
X92157656Y-96403438D01*
X92157656Y-96403438D02*
X92062418Y-96355819D01*
X103595323Y-75426219D02*
X103023895Y-75426219D01*
X103309609Y-76426219D02*
X103309609Y-75426219D01*
X102690561Y-76426219D02*
X102690561Y-75426219D01*
X102690561Y-75426219D02*
X102452466Y-75426219D01*
X102452466Y-75426219D02*
X102309609Y-75473838D01*
X102309609Y-75473838D02*
X102214371Y-75569076D01*
X102214371Y-75569076D02*
X102166752Y-75664314D01*
X102166752Y-75664314D02*
X102119133Y-75854790D01*
X102119133Y-75854790D02*
X102119133Y-75997647D01*
X102119133Y-75997647D02*
X102166752Y-76188123D01*
X102166752Y-76188123D02*
X102214371Y-76283361D01*
X102214371Y-76283361D02*
X102309609Y-76378600D01*
X102309609Y-76378600D02*
X102452466Y-76426219D01*
X102452466Y-76426219D02*
X102690561Y-76426219D01*
X101500085Y-75426219D02*
X101309609Y-75426219D01*
X101309609Y-75426219D02*
X101214371Y-75473838D01*
X101214371Y-75473838D02*
X101119133Y-75569076D01*
X101119133Y-75569076D02*
X101071514Y-75759552D01*
X101071514Y-75759552D02*
X101071514Y-76092885D01*
X101071514Y-76092885D02*
X101119133Y-76283361D01*
X101119133Y-76283361D02*
X101214371Y-76378600D01*
X101214371Y-76378600D02*
X101309609Y-76426219D01*
X101309609Y-76426219D02*
X101500085Y-76426219D01*
X101500085Y-76426219D02*
X101595323Y-76378600D01*
X101595323Y-76378600D02*
X101690561Y-76283361D01*
X101690561Y-76283361D02*
X101738180Y-76092885D01*
X101738180Y-76092885D02*
X101738180Y-75759552D01*
X101738180Y-75759552D02*
X101690561Y-75569076D01*
X101690561Y-75569076D02*
X101595323Y-75473838D01*
X101595323Y-75473838D02*
X101500085Y-75426219D01*
D11*
%TO.C,R35*%
X66026146Y-52485620D02*
X66386380Y-52845854D01*
X65287220Y-53224546D02*
X65647454Y-53584780D01*
%TO.C,R28*%
X86628500Y-107822276D02*
X86628500Y-108331724D01*
X85583500Y-107822276D02*
X85583500Y-108331724D01*
%TO.C,C27*%
X82506051Y-81410198D02*
X82299198Y-81617051D01*
X81784802Y-80688949D02*
X81577949Y-80895802D01*
%TO.C,TP8*%
X57164200Y-74955400D02*
G75*
G03*
X55764200Y-74955400I-700000J0D01*
G01*
X55764200Y-74955400D02*
G75*
G03*
X57164200Y-74955400I700000J0D01*
G01*
%TO.C,TP5*%
X105246400Y-80111600D02*
G75*
G03*
X103846400Y-80111600I-700000J0D01*
G01*
X103846400Y-80111600D02*
G75*
G03*
X105246400Y-80111600I700000J0D01*
G01*
%TO.C,TP1*%
X105271800Y-71882000D02*
G75*
G03*
X103871800Y-71882000I-700000J0D01*
G01*
X103871800Y-71882000D02*
G75*
G03*
X105271800Y-71882000I700000J0D01*
G01*
%TO.C,R49*%
X58278500Y-83947724D02*
X58278500Y-83438276D01*
X59323500Y-83947724D02*
X59323500Y-83438276D01*
%TO.C,C34*%
X95738733Y-71245000D02*
X96031267Y-71245000D01*
X95738733Y-72265000D02*
X96031267Y-72265000D01*
%TO.C,C56*%
X100804733Y-58012000D02*
X101097267Y-58012000D01*
X100804733Y-59032000D02*
X101097267Y-59032000D01*
%TO.C,U5*%
X68337000Y-77851000D02*
X68337000Y-79801000D01*
X68337000Y-77851000D02*
X68337000Y-75901000D01*
X73457000Y-77851000D02*
X73457000Y-81301000D01*
X73457000Y-77851000D02*
X73457000Y-75901000D01*
%TO.C,R48*%
X60959276Y-84059500D02*
X61468724Y-84059500D01*
X60959276Y-85104500D02*
X61468724Y-85104500D01*
%TO.C,C8*%
X73816000Y-59328267D02*
X73816000Y-59035733D01*
X74836000Y-59328267D02*
X74836000Y-59035733D01*
%TO.C,R18*%
X107275100Y-43307724D02*
X107275100Y-42798276D01*
X108320100Y-43307724D02*
X108320100Y-42798276D01*
%TO.C,U1*%
X71551000Y-61305000D02*
X71551000Y-67315000D01*
X78371000Y-63555000D02*
X78371000Y-67315000D01*
X78371000Y-67315000D02*
X77111000Y-67315000D01*
X71551000Y-67315000D02*
X72811000Y-67315000D01*
%TO.C,Y3*%
X92946200Y-51068800D02*
X87546200Y-51068800D01*
X92946200Y-46568800D02*
X92946200Y-51068800D01*
%TO.C,R40*%
X65876700Y-42849076D02*
X65876700Y-43358524D01*
X64831700Y-42849076D02*
X64831700Y-43358524D01*
%TO.C,C49*%
X53973000Y-79521267D02*
X53973000Y-79228733D01*
X54993000Y-79521267D02*
X54993000Y-79228733D01*
%TO.C,TP7*%
X57164200Y-72898000D02*
G75*
G03*
X55764200Y-72898000I-700000J0D01*
G01*
X55764200Y-72898000D02*
G75*
G03*
X57164200Y-72898000I700000J0D01*
G01*
%TO.C,C77*%
X115055867Y-56796400D02*
X114763333Y-56796400D01*
X115055867Y-55776400D02*
X114763333Y-55776400D01*
%TO.C,TP4*%
X105246400Y-73939400D02*
G75*
G03*
X103846400Y-73939400I-700000J0D01*
G01*
X103846400Y-73939400D02*
G75*
G03*
X105246400Y-73939400I700000J0D01*
G01*
%TO.C,X1*%
X103979200Y-90584000D02*
X103979200Y-85184000D01*
X103979200Y-85184000D02*
X103919200Y-85184000D01*
X103919200Y-91184000D02*
X103919200Y-90584000D01*
X103919200Y-90584000D02*
X103979200Y-90584000D01*
X101719200Y-90584000D02*
X101719200Y-91184000D01*
X101719200Y-85184000D02*
X98839200Y-85184000D01*
X98839200Y-90584000D02*
X101719200Y-90584000D01*
X96639200Y-85184000D02*
X96579200Y-85184000D01*
X96579200Y-90584000D02*
X96639200Y-90584000D01*
X96579200Y-85184000D02*
X96579200Y-90584000D01*
%TO.C,C79*%
X116308600Y-58629333D02*
X116308600Y-58921867D01*
X115288600Y-58629333D02*
X115288600Y-58921867D01*
%TO.C,C15*%
X61796200Y-63290667D02*
X61796200Y-62998133D01*
X62816200Y-63290667D02*
X62816200Y-62998133D01*
%TO.C,R39*%
X109881124Y-94477100D02*
X109371676Y-94477100D01*
X109881124Y-93432100D02*
X109371676Y-93432100D01*
%TO.C,C57*%
X121871200Y-93097133D02*
X121871200Y-93389667D01*
X120851200Y-93097133D02*
X120851200Y-93389667D01*
%TO.C,TP9*%
X57164200Y-77012800D02*
G75*
G03*
X55764200Y-77012800I-700000J0D01*
G01*
X55764200Y-77012800D02*
G75*
G03*
X57164200Y-77012800I700000J0D01*
G01*
%TO.C,C13*%
X68433733Y-60196000D02*
X68726267Y-60196000D01*
X68433733Y-61216000D02*
X68726267Y-61216000D01*
D12*
%TO.C,U19*%
X110738800Y-45887400D02*
X110738800Y-46257400D01*
X106278800Y-45887400D02*
X106278800Y-46257400D01*
X110738800Y-47887400D02*
X110738800Y-47517400D01*
X106278800Y-47887400D02*
X106278800Y-47517400D01*
D13*
X106808800Y-44852400D02*
G75*
G03*
X106608800Y-44852400I-100000J0D01*
G01*
X106608800Y-44852400D02*
G75*
G03*
X106808800Y-44852400I100000J0D01*
G01*
D12*
%TO.C,BT1*%
X107566000Y-69153000D02*
X107566000Y-73003000D01*
X107566000Y-69153000D02*
X113416000Y-69153000D01*
X107566000Y-73003000D02*
X109991000Y-73003000D01*
X119891000Y-73003000D02*
X122366000Y-73003000D01*
X122366000Y-69153000D02*
X116516000Y-69153000D01*
X122366000Y-73003000D02*
X122366000Y-69153000D01*
X109991000Y-73003000D02*
G75*
G03*
X113441001Y-85728001I4949391J-5488304D01*
G01*
X116490999Y-85728000D02*
G75*
G03*
X119940999Y-73003001I-1499390J7236696D01*
G01*
D14*
X114977803Y-67228000D02*
G75*
G03*
X114754197Y-67228000I-111803J0D01*
G01*
X114754197Y-67228000D02*
G75*
G03*
X114977803Y-67228000I111803J0D01*
G01*
D11*
%TO.C,C3*%
X55029233Y-67816000D02*
X55321767Y-67816000D01*
X55029233Y-68836000D02*
X55321767Y-68836000D01*
%TO.C,Y2*%
X78943400Y-41457700D02*
X84343400Y-41457700D01*
X78943400Y-45957700D02*
X78943400Y-41457700D01*
%TO.C,C20*%
X75059000Y-75418733D02*
X75059000Y-75711267D01*
X74039000Y-75418733D02*
X74039000Y-75711267D01*
%TO.C,C11*%
X68726267Y-66067400D02*
X68433733Y-66067400D01*
X68726267Y-65047400D02*
X68433733Y-65047400D01*
%TO.C,C32*%
X95738733Y-76960000D02*
X96031267Y-76960000D01*
X95738733Y-77980000D02*
X96031267Y-77980000D01*
%TO.C,C24*%
X78992000Y-66694267D02*
X78992000Y-66401733D01*
X80012000Y-66694267D02*
X80012000Y-66401733D01*
%TO.C,R53*%
X76200724Y-105424500D02*
X75691276Y-105424500D01*
X76200724Y-104379500D02*
X75691276Y-104379500D01*
%TO.C,C40*%
X94849733Y-46657800D02*
X95142267Y-46657800D01*
X94849733Y-47677800D02*
X95142267Y-47677800D01*
%TO.C,R27*%
X88279500Y-107822276D02*
X88279500Y-108331724D01*
X87234500Y-107822276D02*
X87234500Y-108331724D01*
%TO.C,R59*%
X88789180Y-87717746D02*
X88428946Y-88077980D01*
X88050254Y-86978820D02*
X87690020Y-87339054D01*
%TO.C,C59*%
X97033267Y-59032000D02*
X96740733Y-59032000D01*
X97033267Y-58012000D02*
X96740733Y-58012000D01*
%TO.C,C16*%
X61518267Y-61216000D02*
X61225733Y-61216000D01*
X61518267Y-60196000D02*
X61225733Y-60196000D01*
%TO.C,R17*%
X105751100Y-43307724D02*
X105751100Y-42798276D01*
X106796100Y-43307724D02*
X106796100Y-42798276D01*
%TO.C,C4*%
X55295267Y-67185000D02*
X55002733Y-67185000D01*
X55295267Y-66165000D02*
X55002733Y-66165000D01*
%TO.C,R6*%
X110631500Y-107822276D02*
X110631500Y-108331724D01*
X109586500Y-107822276D02*
X109586500Y-108331724D01*
%TO.C,C29*%
X87169144Y-74629658D02*
X87169144Y-74348498D01*
X88189144Y-74629658D02*
X88189144Y-74348498D01*
%TO.C,R20*%
X94829100Y-98425724D02*
X94829100Y-97916276D01*
X95874100Y-98425724D02*
X95874100Y-97916276D01*
%TO.C,R7*%
X105709500Y-107822276D02*
X105709500Y-108331724D01*
X104664500Y-107822276D02*
X104664500Y-108331724D01*
%TO.C,C17*%
X82632333Y-51890200D02*
X82924867Y-51890200D01*
X82632333Y-52910200D02*
X82924867Y-52910200D01*
%TO.C,C55*%
X91547733Y-58037000D02*
X91840267Y-58037000D01*
X91547733Y-59057000D02*
X91840267Y-59057000D01*
%TO.C,C33*%
X90217144Y-74629658D02*
X90217144Y-74348498D01*
X91237144Y-74629658D02*
X91237144Y-74348498D01*
%TO.C,R13*%
X92024924Y-80278500D02*
X91515476Y-80278500D01*
X92024924Y-79233500D02*
X91515476Y-79233500D01*
%TO.C,C86*%
X98241067Y-92737400D02*
X97948533Y-92737400D01*
X98241067Y-91717400D02*
X97948533Y-91717400D01*
%TO.C,R58*%
X86293020Y-86577054D02*
X86653254Y-86216820D01*
X87031946Y-87315980D02*
X87392180Y-86955746D01*
%TO.C,R52*%
X68834724Y-105424500D02*
X68325276Y-105424500D01*
X68834724Y-104379500D02*
X68325276Y-104379500D01*
%TO.C,C35*%
X90600724Y-77298078D02*
X90319564Y-77298078D01*
X90600724Y-76278078D02*
X90319564Y-76278078D01*
%TO.C,C41*%
X85718867Y-47677800D02*
X85426333Y-47677800D01*
X85718867Y-46657800D02*
X85426333Y-46657800D01*
%TO.C,R3*%
X55403724Y-62625500D02*
X54894276Y-62625500D01*
X55403724Y-61580500D02*
X54894276Y-61580500D01*
%TO.C,C31*%
X88693144Y-74629658D02*
X88693144Y-74348498D01*
X89713144Y-74629658D02*
X89713144Y-74348498D01*
%TO.C,R50*%
X111632276Y-58964300D02*
X112141724Y-58964300D01*
X111632276Y-60009300D02*
X112141724Y-60009300D01*
%TO.C,R32*%
X114681724Y-103087700D02*
X114172276Y-103087700D01*
X114681724Y-102042700D02*
X114172276Y-102042700D01*
%TO.C,C12*%
X68460233Y-63498000D02*
X68752767Y-63498000D01*
X68460233Y-64518000D02*
X68752767Y-64518000D01*
%TO.C,R14*%
X83016420Y-82614654D02*
X83376654Y-82254420D01*
X83755346Y-83353580D02*
X84115580Y-82993346D01*
%TO.C,C5*%
X66165000Y-58312267D02*
X66165000Y-58019733D01*
X67185000Y-58312267D02*
X67185000Y-58019733D01*
%TO.C,TP3*%
X105271800Y-69824600D02*
G75*
G03*
X103871800Y-69824600I-700000J0D01*
G01*
X103871800Y-69824600D02*
G75*
G03*
X105271800Y-69824600I700000J0D01*
G01*
%TO.C,C30*%
X95738733Y-79449200D02*
X96031267Y-79449200D01*
X95738733Y-80469200D02*
X96031267Y-80469200D01*
%TO.C,C14*%
X75467000Y-59328267D02*
X75467000Y-59035733D01*
X76487000Y-59328267D02*
X76487000Y-59035733D01*
%TO.C,R8*%
X115361500Y-107822276D02*
X115361500Y-108331724D01*
X114316500Y-107822276D02*
X114316500Y-108331724D01*
%TO.C,TP6*%
X105221000Y-78028800D02*
G75*
G03*
X103821000Y-78028800I-700000J0D01*
G01*
X103821000Y-78028800D02*
G75*
G03*
X105221000Y-78028800I700000J0D01*
G01*
%TO.C,C10*%
X64674533Y-65047400D02*
X64967067Y-65047400D01*
X64674533Y-66067400D02*
X64967067Y-66067400D01*
%TO.C,C84*%
X105031000Y-46716733D02*
X105031000Y-47009267D01*
X104011000Y-46716733D02*
X104011000Y-47009267D01*
%TO.C,R31*%
X95391500Y-107822276D02*
X95391500Y-108331724D01*
X94346500Y-107822276D02*
X94346500Y-108331724D01*
%TO.C,C85*%
X112113600Y-47085467D02*
X112113600Y-46792933D01*
X113133600Y-47085467D02*
X113133600Y-46792933D01*
%TO.C,R47*%
X64770724Y-85104500D02*
X64261276Y-85104500D01*
X64770724Y-84059500D02*
X64261276Y-84059500D01*
%TO.C,U13*%
X94620000Y-59883000D02*
X94620000Y-65893000D01*
X101440000Y-62133000D02*
X101440000Y-65893000D01*
X101440000Y-65893000D02*
X100180000Y-65893000D01*
X94620000Y-65893000D02*
X95880000Y-65893000D01*
%TO.C,C82*%
X88411267Y-91315000D02*
X88118733Y-91315000D01*
X88411267Y-90295000D02*
X88118733Y-90295000D01*
%TO.C,U2*%
X53821000Y-58776000D02*
X54081000Y-58776000D01*
X59011000Y-58776000D02*
X59011000Y-60451000D01*
X59271000Y-58776000D02*
X59011000Y-58776000D01*
X53821000Y-56051000D02*
X53821000Y-58776000D01*
X53821000Y-56051000D02*
X53821000Y-53326000D01*
X59271000Y-56051000D02*
X59271000Y-58776000D01*
X59271000Y-56051000D02*
X59271000Y-53326000D01*
X53821000Y-53326000D02*
X54081000Y-53326000D01*
X59271000Y-53326000D02*
X59011000Y-53326000D01*
%TO.C,C18*%
X66892200Y-46704000D02*
X66892200Y-42319000D01*
X69912200Y-46704000D02*
X66892200Y-46704000D01*
X69912200Y-42319000D02*
X69912200Y-46704000D01*
%TO.C,C19*%
X77118000Y-59328267D02*
X77118000Y-59035733D01*
X78138000Y-59328267D02*
X78138000Y-59035733D01*
%TO.C,R2*%
X55403724Y-65546500D02*
X54894276Y-65546500D01*
X55403724Y-64501500D02*
X54894276Y-64501500D01*
%TO.C,R36*%
X67118346Y-51418820D02*
X67478580Y-51779054D01*
X66379420Y-52157746D02*
X66739654Y-52517980D01*
%TO.C,R5*%
X100852500Y-107822276D02*
X100852500Y-108331724D01*
X99807500Y-107822276D02*
X99807500Y-108331724D01*
%TO.C,JP3*%
X81716600Y-98631200D02*
X82316600Y-98631200D01*
X83016600Y-97931200D02*
X83016600Y-96531200D01*
X81016600Y-96531200D02*
X81016600Y-97931200D01*
X82316600Y-95831200D02*
X81716600Y-95831200D01*
X81016600Y-97931200D02*
G75*
G03*
X81716600Y-98631200I699999J-1D01*
G01*
X82316600Y-98631200D02*
G75*
G03*
X83016600Y-97931200I1J699999D01*
G01*
X81716600Y-95831200D02*
G75*
G03*
X81016600Y-96531200I0J-700000D01*
G01*
X83016600Y-96531200D02*
G75*
G03*
X82316600Y-95831200I-700000J0D01*
G01*
%TO.C,C25*%
X93343000Y-68853267D02*
X93343000Y-68560733D01*
X94363000Y-68853267D02*
X94363000Y-68560733D01*
%TO.C,R23*%
X104748876Y-57999100D02*
X105258324Y-57999100D01*
X104748876Y-59044100D02*
X105258324Y-59044100D01*
%TO.C,C21*%
X64687200Y-56094600D02*
X60302200Y-56094600D01*
X64687200Y-53074600D02*
X64687200Y-56094600D01*
X60302200Y-53074600D02*
X64687200Y-53074600D01*
%TO.C,C75*%
X83032000Y-85633000D02*
X83032000Y-93693000D01*
X78512000Y-85633000D02*
X83032000Y-85633000D01*
X78512000Y-93693000D02*
X78512000Y-85633000D01*
%TO.C,C81*%
X55243000Y-83839267D02*
X55243000Y-83546733D01*
X56263000Y-83839267D02*
X56263000Y-83546733D01*
%TO.C,C37*%
X105488200Y-86018733D02*
X105488200Y-86311267D01*
X104468200Y-86018733D02*
X104468200Y-86311267D01*
%TO.C,C7*%
X72165000Y-59301767D02*
X72165000Y-59009233D01*
X73185000Y-59301767D02*
X73185000Y-59009233D01*
%TO.C,R41*%
X106919500Y-65327624D02*
X106919500Y-64818176D01*
X107964500Y-65327624D02*
X107964500Y-64818176D01*
%TO.C,C44*%
X113286000Y-66401733D02*
X113286000Y-66694267D01*
X112266000Y-66401733D02*
X112266000Y-66694267D01*
%TO.C,C80*%
X117883400Y-58629333D02*
X117883400Y-58921867D01*
X116863400Y-58629333D02*
X116863400Y-58921867D01*
%TO.C,U14*%
X115067400Y-95300800D02*
X115067400Y-97250800D01*
X115067400Y-95300800D02*
X115067400Y-93350800D01*
X120187400Y-95300800D02*
X120187400Y-98750800D01*
X120187400Y-95300800D02*
X120187400Y-93350800D01*
%TO.C,C50*%
X59688000Y-79521267D02*
X59688000Y-79228733D01*
X60708000Y-79521267D02*
X60708000Y-79228733D01*
%TO.C,C48*%
X59057000Y-71989733D02*
X59057000Y-72282267D01*
X58037000Y-71989733D02*
X58037000Y-72282267D01*
%TO.C,R11*%
X65771500Y-72263724D02*
X65771500Y-71754276D01*
X66816500Y-72263724D02*
X66816500Y-71754276D01*
%TO.C,R37*%
X111938524Y-97753700D02*
X111429076Y-97753700D01*
X111938524Y-96708700D02*
X111429076Y-96708700D01*
%TO.C,C60*%
X80417000Y-68353500D02*
X80417000Y-60293500D01*
X84937000Y-68353500D02*
X80417000Y-68353500D01*
X84937000Y-60293500D02*
X84937000Y-68353500D01*
%TO.C,Q2*%
X93793000Y-108331000D02*
X93793000Y-107681000D01*
X93793000Y-108331000D02*
X93793000Y-108981000D01*
X90673000Y-108331000D02*
X90673000Y-106656000D01*
X90673000Y-108331000D02*
X90673000Y-108981000D01*
%TO.C,C76*%
X85109267Y-91315000D02*
X84816733Y-91315000D01*
X85109267Y-90295000D02*
X84816733Y-90295000D01*
%TO.C,C22*%
X80689667Y-47639700D02*
X80397133Y-47639700D01*
X80689667Y-46619700D02*
X80397133Y-46619700D01*
%TO.C,C28*%
X89283000Y-82657733D02*
X89283000Y-82950267D01*
X88263000Y-82657733D02*
X88263000Y-82950267D01*
%TO.C,R54*%
X56754500Y-83947724D02*
X56754500Y-83438276D01*
X57799500Y-83947724D02*
X57799500Y-83438276D01*
%TO.C,U18*%
X83458000Y-92293000D02*
X83458000Y-98303000D01*
X90278000Y-94543000D02*
X90278000Y-98303000D01*
X90278000Y-98303000D02*
X89018000Y-98303000D01*
X83458000Y-98303000D02*
X84718000Y-98303000D01*
%TO.C,C78*%
X118463600Y-58921867D02*
X118463600Y-58629333D01*
X119483600Y-58921867D02*
X119483600Y-58629333D01*
%TO.C,C52*%
X111144267Y-103075200D02*
X110851733Y-103075200D01*
X111144267Y-102055200D02*
X110851733Y-102055200D01*
%TO.C,C6*%
X62894000Y-58312267D02*
X62894000Y-58019733D01*
X63914000Y-58312267D02*
X63914000Y-58019733D01*
%TO.C,C51*%
X74039000Y-80664267D02*
X74039000Y-80371733D01*
X75059000Y-80664267D02*
X75059000Y-80371733D01*
%TO.C,C61*%
X101993000Y-68455500D02*
X101993000Y-60395500D01*
X106513000Y-68455500D02*
X101993000Y-68455500D01*
X106513000Y-60395500D02*
X106513000Y-68455500D01*
%TO.C,R25*%
X70626500Y-107822276D02*
X70626500Y-108331724D01*
X69581500Y-107822276D02*
X69581500Y-108331724D01*
%TO.C,C83*%
X111355600Y-42906733D02*
X111355600Y-43199267D01*
X110335600Y-42906733D02*
X110335600Y-43199267D01*
%TO.C,U12*%
X85490000Y-59908000D02*
X85490000Y-65918000D01*
X92310000Y-62158000D02*
X92310000Y-65918000D01*
X92310000Y-65918000D02*
X91050000Y-65918000D01*
X85490000Y-65918000D02*
X86750000Y-65918000D01*
%TO.C,C1*%
X68548467Y-48135000D02*
X68255933Y-48135000D01*
X68548467Y-47115000D02*
X68255933Y-47115000D01*
D10*
%TO.C,U4*%
X76426400Y-51701700D02*
X76426400Y-51221700D01*
X76426400Y-51701700D02*
X72276400Y-51701700D01*
X76426400Y-42021700D02*
X77551400Y-42021700D01*
X76426400Y-41541700D02*
X76426400Y-42021700D01*
X76426400Y-41541700D02*
X72276400Y-41541700D01*
X72276400Y-51701700D02*
X72276400Y-51221700D01*
X72276400Y-41541700D02*
X72276400Y-42021700D01*
D11*
%TO.C,R12*%
X94514124Y-85434700D02*
X94004676Y-85434700D01*
X94514124Y-84389700D02*
X94004676Y-84389700D01*
%TO.C,U17*%
X77240000Y-86574000D02*
X76620000Y-86574000D01*
X60620000Y-86574000D02*
X60620000Y-85964000D01*
X60620000Y-86574000D02*
X53000000Y-86574000D01*
X53000000Y-86574000D02*
X53000000Y-102814000D01*
X77240000Y-88694000D02*
X77240000Y-86574000D01*
X77240000Y-102814000D02*
X77240000Y-100694000D01*
X76620000Y-102814000D02*
X77240000Y-102814000D01*
X53000000Y-102814000D02*
X60620000Y-102814000D01*
%TO.C,C58*%
X87903267Y-59057000D02*
X87610733Y-59057000D01*
X87903267Y-58037000D02*
X87610733Y-58037000D01*
%TO.C,U6*%
X61575000Y-77851000D02*
X61575000Y-79801000D01*
X61575000Y-77851000D02*
X61575000Y-75901000D01*
X66695000Y-77851000D02*
X66695000Y-81301000D01*
X66695000Y-77851000D02*
X66695000Y-75901000D01*
%TO.C,R1*%
X55530724Y-50560500D02*
X55021276Y-50560500D01*
X55530724Y-49515500D02*
X55021276Y-49515500D01*
%TO.C,R9*%
X62977500Y-72263724D02*
X62977500Y-71754276D01*
X64022500Y-72263724D02*
X64022500Y-71754276D01*
%TO.C,JP1*%
X93900800Y-82605600D02*
X93900800Y-83205600D01*
X94600800Y-83905600D02*
X96000800Y-83905600D01*
X96000800Y-81905600D02*
X94600800Y-81905600D01*
X96700800Y-83205600D02*
X96700800Y-82605600D01*
X94600800Y-81905600D02*
G75*
G03*
X93900800Y-82605600I-1J-699999D01*
G01*
X93900800Y-83205600D02*
G75*
G03*
X94600800Y-83905600I699999J-1D01*
G01*
X96700800Y-82605600D02*
G75*
G03*
X96000800Y-81905600I-700000J0D01*
G01*
X96000800Y-83905600D02*
G75*
G03*
X96700800Y-83205600I0J700000D01*
G01*
%TO.C,C9*%
X67816000Y-58312267D02*
X67816000Y-58019733D01*
X68836000Y-58312267D02*
X68836000Y-58019733D01*
%TO.C,R33*%
X117601276Y-102042700D02*
X118110724Y-102042700D01*
X117601276Y-103087700D02*
X118110724Y-103087700D01*
%TO.C,C89*%
X105149867Y-57406000D02*
X104857333Y-57406000D01*
X105149867Y-56386000D02*
X104857333Y-56386000D01*
%TO.C,JP2*%
X79506800Y-98631200D02*
X80106800Y-98631200D01*
X80806800Y-97931200D02*
X80806800Y-96531200D01*
X78806800Y-96531200D02*
X78806800Y-97931200D01*
X80106800Y-95831200D02*
X79506800Y-95831200D01*
X78806800Y-97931200D02*
G75*
G03*
X79506800Y-98631200I699999J-1D01*
G01*
X80106800Y-98631200D02*
G75*
G03*
X80806800Y-97931200I1J699999D01*
G01*
X79506800Y-95831200D02*
G75*
G03*
X78806800Y-96531200I0J-700000D01*
G01*
X80806800Y-96531200D02*
G75*
G03*
X80106800Y-95831200I-700000J0D01*
G01*
%TO.C,R19*%
X109844100Y-42798276D02*
X109844100Y-43307724D01*
X108799100Y-42798276D02*
X108799100Y-43307724D01*
%TO.C,C47*%
X111631000Y-90062267D02*
X111631000Y-89769733D01*
X112651000Y-90062267D02*
X112651000Y-89769733D01*
%TO.C,C54*%
X109429333Y-99947000D02*
X109721867Y-99947000D01*
X109429333Y-100967000D02*
X109721867Y-100967000D01*
%TO.C,C53*%
X111830067Y-99392200D02*
X111537533Y-99392200D01*
X111830067Y-98372200D02*
X111537533Y-98372200D01*
%TO.C,C23*%
X65512733Y-82167000D02*
X65805267Y-82167000D01*
X65512733Y-83187000D02*
X65805267Y-83187000D01*
%TO.C,R51*%
X111632276Y-57414900D02*
X112141724Y-57414900D01*
X111632276Y-58459900D02*
X112141724Y-58459900D01*
%TO.C,R10*%
X83033324Y-54472100D02*
X82523876Y-54472100D01*
X83033324Y-53427100D02*
X82523876Y-53427100D01*
%TO.C,R38*%
X112775276Y-93432100D02*
X113284724Y-93432100D01*
X112775276Y-94477100D02*
X113284724Y-94477100D01*
%TO.C,R4*%
X62275500Y-57911276D02*
X62275500Y-58420724D01*
X61230500Y-57911276D02*
X61230500Y-58420724D01*
%TO.C,U20*%
X90772400Y-94088800D02*
X91032400Y-94088800D01*
X95962400Y-94088800D02*
X95962400Y-95763800D01*
X96222400Y-94088800D02*
X95962400Y-94088800D01*
X90772400Y-91363800D02*
X90772400Y-94088800D01*
X90772400Y-91363800D02*
X90772400Y-88638800D01*
X96222400Y-91363800D02*
X96222400Y-94088800D01*
X96222400Y-91363800D02*
X96222400Y-88638800D01*
X90772400Y-88638800D02*
X91032400Y-88638800D01*
X96222400Y-88638800D02*
X95962400Y-88638800D01*
%TO.C,R26*%
X68975500Y-107822276D02*
X68975500Y-108331724D01*
X67930500Y-107822276D02*
X67930500Y-108331724D01*
%TO.C,R55*%
X72389276Y-104379500D02*
X72898724Y-104379500D01*
X72389276Y-105424500D02*
X72898724Y-105424500D01*
%TO.C,C36*%
X83738767Y-74932000D02*
X83446233Y-74932000D01*
X83738767Y-73912000D02*
X83446233Y-73912000D01*
%TO.C,R30*%
X78119500Y-107822276D02*
X78119500Y-108331724D01*
X77074500Y-107822276D02*
X77074500Y-108331724D01*
%TO.C,C26*%
X80689667Y-71960200D02*
X80397133Y-71960200D01*
X80689667Y-70940200D02*
X80397133Y-70940200D01*
%TO.C,R29*%
X69454500Y-72263724D02*
X69454500Y-71754276D01*
X70499500Y-72263724D02*
X70499500Y-71754276D01*
%TO.C,TP2*%
X105246400Y-75971400D02*
G75*
G03*
X103846400Y-75971400I-700000J0D01*
G01*
X103846400Y-75971400D02*
G75*
G03*
X105246400Y-75971400I700000J0D01*
G01*
%TO.C,Q1*%
X76490000Y-108331000D02*
X76490000Y-107681000D01*
X76490000Y-108331000D02*
X76490000Y-108981000D01*
X73370000Y-108331000D02*
X73370000Y-106656000D01*
X73370000Y-108331000D02*
X73370000Y-108981000D01*
%TO.C,R42*%
X113284724Y-92927700D02*
X112775276Y-92927700D01*
X113284724Y-91882700D02*
X112775276Y-91882700D01*
%TO.C,C2*%
X64514000Y-58312267D02*
X64514000Y-58019733D01*
X65534000Y-58312267D02*
X65534000Y-58019733D01*
%TO.C,R34*%
X59004924Y-50560500D02*
X58495476Y-50560500D01*
X59004924Y-49515500D02*
X58495476Y-49515500D01*
%TD*%
M02*
