%TF.GenerationSoftware,KiCad,Pcbnew,9.0.4-9.0.4-0~ubuntu24.04.1*%
%TF.CreationDate,2025-10-04T23:24:13+02:00*%
%TF.ProjectId,karabas-mini,6b617261-6261-4732-9d6d-696e692e6b69,G*%
%TF.SameCoordinates,Original*%
%TF.FileFunction,Soldermask,Top*%
%TF.FilePolarity,Negative*%
%FSLAX46Y46*%
G04 Gerber Fmt 4.6, Leading zero omitted, Abs format (unit mm)*
G04 Created by KiCad (PCBNEW 9.0.4-9.0.4-0~ubuntu24.04.1) date 2025-10-04 23:24:13*
%MOMM*%
%LPD*%
G01*
G04 APERTURE LIST*
G04 Aperture macros list*
%AMRoundRect*
0 Rectangle with rounded corners*
0 $1 Rounding radius*
0 $2 $3 $4 $5 $6 $7 $8 $9 X,Y pos of 4 corners*
0 Add a 4 corners polygon primitive as box body*
4,1,4,$2,$3,$4,$5,$6,$7,$8,$9,$2,$3,0*
0 Add four circle primitives for the rounded corners*
1,1,$1+$1,$2,$3*
1,1,$1+$1,$4,$5*
1,1,$1+$1,$6,$7*
1,1,$1+$1,$8,$9*
0 Add four rect primitives between the rounded corners*
20,1,$1+$1,$2,$3,$4,$5,0*
20,1,$1+$1,$4,$5,$6,$7,0*
20,1,$1+$1,$6,$7,$8,$9,0*
20,1,$1+$1,$8,$9,$2,$3,0*%
G04 Aperture macros list end*
%ADD10C,0.363500*%
%ADD11RoundRect,0.237500X-0.237500X0.250000X-0.237500X-0.250000X0.237500X-0.250000X0.237500X0.250000X0*%
%ADD12R,0.458000X1.510000*%
%ADD13RoundRect,0.237500X-0.300000X-0.237500X0.300000X-0.237500X0.300000X0.237500X-0.300000X0.237500X0*%
%ADD14R,0.700000X1.600000*%
%ADD15R,1.200000X1.400000*%
%ADD16R,1.200000X2.200000*%
%ADD17R,1.600000X1.400000*%
%ADD18C,0.400000*%
%ADD19RoundRect,0.237500X0.300000X0.237500X-0.300000X0.237500X-0.300000X-0.237500X0.300000X-0.237500X0*%
%ADD20RoundRect,0.237500X0.237500X-0.300000X0.237500X0.300000X-0.237500X0.300000X-0.237500X-0.300000X0*%
%ADD21RoundRect,0.237500X-0.250000X-0.237500X0.250000X-0.237500X0.250000X0.237500X-0.250000X0.237500X0*%
%ADD22RoundRect,0.030700X0.856300X0.276300X-0.856300X0.276300X-0.856300X-0.276300X0.856300X-0.276300X0*%
%ADD23C,2.100000*%
%ADD24C,1.750000*%
%ADD25RoundRect,0.137500X0.137500X-0.625000X0.137500X0.625000X-0.137500X0.625000X-0.137500X-0.625000X0*%
%ADD26RoundRect,0.250001X-0.462499X-1.074999X0.462499X-1.074999X0.462499X1.074999X-0.462499X1.074999X0*%
%ADD27RoundRect,0.262500X-0.262500X0.487500X-0.262500X-0.487500X0.262500X-0.487500X0.262500X0.487500X0*%
%ADD28RoundRect,0.050000X-0.375000X-0.050000X0.375000X-0.050000X0.375000X0.050000X-0.375000X0.050000X0*%
%ADD29RoundRect,0.050000X-0.050000X-0.375000X0.050000X-0.375000X0.050000X0.375000X-0.050000X0.375000X0*%
%ADD30R,4.200000X4.200000*%
%ADD31C,0.800000*%
%ADD32C,6.000000*%
%ADD33RoundRect,0.062500X0.375000X0.062500X-0.375000X0.062500X-0.375000X-0.062500X0.375000X-0.062500X0*%
%ADD34RoundRect,0.062500X0.062500X0.375000X-0.062500X0.375000X-0.062500X-0.375000X0.062500X-0.375000X0*%
%ADD35R,5.900000X5.900000*%
%ADD36R,1.500000X1.500000*%
%ADD37C,1.500000*%
%ADD38O,2.000000X3.000000*%
%ADD39C,1.402080*%
%ADD40RoundRect,0.450800X0.450800X1.250800X-0.450800X1.250800X-0.450800X-1.250800X0.450800X-1.250800X0*%
%ADD41O,2.286000X1.524000*%
%ADD42RoundRect,0.450800X-0.450800X-1.250800X0.450800X-1.250800X0.450800X1.250800X-0.450800X1.250800X0*%
%ADD43R,2.100000X1.800000*%
%ADD44O,0.750000X2.100000*%
%ADD45RoundRect,0.237500X-0.237500X0.300000X-0.237500X-0.300000X0.237500X-0.300000X0.237500X0.300000X0*%
%ADD46R,1.000000X1.000000*%
%ADD47O,1.000000X1.000000*%
%ADD48C,1.000000*%
%ADD49RoundRect,0.237500X0.237500X-0.250000X0.237500X0.250000X-0.237500X0.250000X-0.237500X-0.250000X0*%
%ADD50RoundRect,0.237500X0.250000X0.237500X-0.250000X0.237500X-0.250000X-0.237500X0.250000X-0.237500X0*%
%ADD51R,0.300000X2.600000*%
%ADD52O,1.500000X3.300000*%
%ADD53O,1.500000X2.300000*%
%ADD54RoundRect,0.050000X-0.387500X-0.050000X0.387500X-0.050000X0.387500X0.050000X-0.387500X0.050000X0*%
%ADD55RoundRect,0.050000X-0.050000X-0.387500X0.050000X-0.387500X0.050000X0.387500X-0.050000X0.387500X0*%
%ADD56RoundRect,0.144000X-1.456000X-1.456000X1.456000X-1.456000X1.456000X1.456000X-1.456000X1.456000X0*%
%ADD57C,1.300000*%
%ADD58C,1.050000*%
G04 APERTURE END LIST*
D10*
%TO.C,J7*%
X62223000Y-45923200D02*
G75*
G02*
X61983000Y-45923200I-120000J0D01*
G01*
X61983000Y-45923200D02*
G75*
G02*
X62223000Y-45923200I120000J0D01*
G01*
X62223000Y-46823200D02*
G75*
G02*
X61983000Y-46823200I-120000J0D01*
G01*
X61983000Y-46823200D02*
G75*
G02*
X62223000Y-46823200I120000J0D01*
G01*
X62223000Y-48173200D02*
G75*
G02*
X61983000Y-48173200I-120000J0D01*
G01*
X61983000Y-48173200D02*
G75*
G02*
X62223000Y-48173200I120000J0D01*
G01*
X62223000Y-49073200D02*
G75*
G02*
X61983000Y-49073200I-120000J0D01*
G01*
X61983000Y-49073200D02*
G75*
G02*
X62223000Y-49073200I120000J0D01*
G01*
X62223000Y-49973200D02*
G75*
G02*
X61983000Y-49973200I-120000J0D01*
G01*
X61983000Y-49973200D02*
G75*
G02*
X62223000Y-49973200I120000J0D01*
G01*
X62223000Y-50873200D02*
G75*
G02*
X61983000Y-50873200I-120000J0D01*
G01*
X61983000Y-50873200D02*
G75*
G02*
X62223000Y-50873200I120000J0D01*
G01*
X62223000Y-51773200D02*
G75*
G02*
X61983000Y-51773200I-120000J0D01*
G01*
X61983000Y-51773200D02*
G75*
G02*
X62223000Y-51773200I120000J0D01*
G01*
X63003000Y-45923200D02*
G75*
G02*
X62763000Y-45923200I-120000J0D01*
G01*
X62763000Y-45923200D02*
G75*
G02*
X63003000Y-45923200I120000J0D01*
G01*
X63003000Y-46823200D02*
G75*
G02*
X62763000Y-46823200I-120000J0D01*
G01*
X62763000Y-46823200D02*
G75*
G02*
X63003000Y-46823200I120000J0D01*
G01*
X63003000Y-47723200D02*
G75*
G02*
X62763000Y-47723200I-120000J0D01*
G01*
X62763000Y-47723200D02*
G75*
G02*
X63003000Y-47723200I120000J0D01*
G01*
X63003000Y-48623200D02*
G75*
G02*
X62763000Y-48623200I-120000J0D01*
G01*
X62763000Y-48623200D02*
G75*
G02*
X63003000Y-48623200I120000J0D01*
G01*
X63003000Y-49523200D02*
G75*
G02*
X62763000Y-49523200I-120000J0D01*
G01*
X62763000Y-49523200D02*
G75*
G02*
X63003000Y-49523200I120000J0D01*
G01*
X63003000Y-50873200D02*
G75*
G02*
X62763000Y-50873200I-120000J0D01*
G01*
X62763000Y-50873200D02*
G75*
G02*
X63003000Y-50873200I120000J0D01*
G01*
X63003000Y-51773200D02*
G75*
G02*
X62763000Y-51773200I-120000J0D01*
G01*
X62763000Y-51773200D02*
G75*
G02*
X63003000Y-51773200I120000J0D01*
G01*
%TD*%
D11*
%TO.C,D2*%
X114839000Y-108688500D03*
X114839000Y-110513500D03*
%TD*%
D12*
%TO.C,U11*%
X54527000Y-81477000D03*
X55327000Y-81477000D03*
X56127000Y-81477000D03*
X56927000Y-81477000D03*
X57727000Y-81477000D03*
X58527000Y-81477000D03*
X59327000Y-81477000D03*
X60127000Y-81477000D03*
X60927000Y-81477000D03*
X61727000Y-81477000D03*
X62527000Y-81477000D03*
X63327000Y-81477000D03*
X64127000Y-81477000D03*
X64927000Y-81477000D03*
X65727000Y-81477000D03*
X66527000Y-81477000D03*
X67327000Y-81477000D03*
X68127000Y-81477000D03*
X68927000Y-81477000D03*
X69727000Y-81477000D03*
X70527000Y-81477000D03*
X71327000Y-81477000D03*
X72127000Y-81477000D03*
X72927000Y-81477000D03*
X73727000Y-81477000D03*
X74527000Y-81477000D03*
X75327000Y-81477000D03*
X75327000Y-69977000D03*
X74527000Y-69977000D03*
X73727000Y-69977000D03*
X72927000Y-69977000D03*
X72127000Y-69977000D03*
X71327000Y-69977000D03*
X70527000Y-69977000D03*
X69727000Y-69977000D03*
X68927000Y-69977000D03*
X68127000Y-69977000D03*
X67327000Y-69977000D03*
X66527000Y-69977000D03*
X65727000Y-69977000D03*
X64927000Y-69977000D03*
X64127000Y-69977000D03*
X63327000Y-69977000D03*
X62527000Y-69977000D03*
X61727000Y-69977000D03*
X60927000Y-69977000D03*
X60127000Y-69977000D03*
X59327000Y-69977000D03*
X58527000Y-69977000D03*
X57727000Y-69977000D03*
X56927000Y-69977000D03*
X56127000Y-69977000D03*
X55327000Y-69977000D03*
X54527000Y-69977000D03*
%TD*%
D13*
%TO.C,C64*%
X76734500Y-93345000D03*
X78459500Y-93345000D03*
%TD*%
D14*
%TO.C,J4*%
X70936000Y-96688000D03*
X69836000Y-96688000D03*
X68736000Y-96688000D03*
X67636000Y-96688000D03*
X66536000Y-96688000D03*
D15*
X60986000Y-97188000D03*
D16*
X60986000Y-106788000D03*
D14*
X65436000Y-96688000D03*
D17*
X75586000Y-97188000D03*
D16*
X76486000Y-106788000D03*
D14*
X64336000Y-96688000D03*
X63236000Y-96688000D03*
X62136000Y-96688000D03*
%TD*%
D18*
%TO.C,U7*%
X81378144Y-68406078D03*
X82378144Y-68406078D03*
X83378144Y-68406078D03*
X84378144Y-68406078D03*
X85378144Y-68406078D03*
X86378144Y-68406078D03*
X87378144Y-68406078D03*
X88378144Y-68406078D03*
X89378144Y-68406078D03*
X90378144Y-68406078D03*
X91378144Y-68406078D03*
X92378144Y-68406078D03*
X93378144Y-68406078D03*
X94378144Y-68406078D03*
X95378144Y-68406078D03*
X96378144Y-68406078D03*
X81378144Y-69406078D03*
X82378144Y-69406078D03*
X83378144Y-69406078D03*
X84378144Y-69406078D03*
X85378144Y-69406078D03*
X86378144Y-69406078D03*
X87378144Y-69406078D03*
X88378144Y-69406078D03*
X89378144Y-69406078D03*
X90378144Y-69406078D03*
X91378144Y-69406078D03*
X92378144Y-69406078D03*
X93378144Y-69406078D03*
X94378144Y-69406078D03*
X95378144Y-69406078D03*
X96378144Y-69406078D03*
X81378144Y-70406078D03*
X82378144Y-70406078D03*
X83378144Y-70406078D03*
X84378144Y-70406078D03*
X85378144Y-70406078D03*
X86378144Y-70406078D03*
X87378144Y-70406078D03*
X88378144Y-70406078D03*
X89378144Y-70406078D03*
X90378144Y-70406078D03*
X91378144Y-70406078D03*
X92378144Y-70406078D03*
X93378144Y-70406078D03*
X94378144Y-70406078D03*
X95378144Y-70406078D03*
X96378144Y-70406078D03*
X81378144Y-71406078D03*
X82378144Y-71406078D03*
X83378144Y-71406078D03*
X84378144Y-71406078D03*
X85378144Y-71406078D03*
X86378144Y-71406078D03*
X87378144Y-71406078D03*
X88378144Y-71406078D03*
X89378144Y-71406078D03*
X90378144Y-71406078D03*
X91378144Y-71406078D03*
X92378144Y-71406078D03*
X93378144Y-71406078D03*
X94378144Y-71406078D03*
X95378144Y-71406078D03*
X96378144Y-71406078D03*
X81378144Y-72406078D03*
X82378144Y-72406078D03*
X83378144Y-72406078D03*
X84378144Y-72406078D03*
X85378144Y-72406078D03*
X86378144Y-72406078D03*
X87378144Y-72406078D03*
X88378144Y-72406078D03*
X89378144Y-72406078D03*
X90378144Y-72406078D03*
X91378144Y-72406078D03*
X92378144Y-72406078D03*
X93378144Y-72406078D03*
X94378144Y-72406078D03*
X95378144Y-72406078D03*
X96378144Y-72406078D03*
X81378144Y-73406078D03*
X82378144Y-73406078D03*
X83378144Y-73406078D03*
X84378144Y-73406078D03*
X85378144Y-73406078D03*
X86378144Y-73406078D03*
X87378144Y-73406078D03*
X88378144Y-73406078D03*
X89378144Y-73406078D03*
X90378144Y-73406078D03*
X91378144Y-73406078D03*
X92378144Y-73406078D03*
X93378144Y-73406078D03*
X94378144Y-73406078D03*
X95378144Y-73406078D03*
X96378144Y-73406078D03*
X81378144Y-74406078D03*
X82378144Y-74406078D03*
X83378144Y-74406078D03*
X84378144Y-74406078D03*
X85378144Y-74406078D03*
X86378144Y-74406078D03*
X87378144Y-74406078D03*
X88378144Y-74406078D03*
X89378144Y-74406078D03*
X90378144Y-74406078D03*
X91378144Y-74406078D03*
X92378144Y-74406078D03*
X93378144Y-74406078D03*
X94378144Y-74406078D03*
X95378144Y-74406078D03*
X96378144Y-74406078D03*
X81378144Y-75406078D03*
X82378144Y-75406078D03*
X83378144Y-75406078D03*
X84378144Y-75406078D03*
X85378144Y-75406078D03*
X86378144Y-75406078D03*
X87378144Y-75406078D03*
X88378144Y-75406078D03*
X89378144Y-75406078D03*
X90378144Y-75406078D03*
X91378144Y-75406078D03*
X92378144Y-75406078D03*
X93378144Y-75406078D03*
X94378144Y-75406078D03*
X95378144Y-75406078D03*
X96378144Y-75406078D03*
X81378144Y-76406078D03*
X82378144Y-76406078D03*
X83378144Y-76406078D03*
X84378144Y-76406078D03*
X85378144Y-76406078D03*
X86378144Y-76406078D03*
X87378144Y-76406078D03*
X88378144Y-76406078D03*
X89378144Y-76406078D03*
X90378144Y-76406078D03*
X91378144Y-76406078D03*
X92378144Y-76406078D03*
X93378144Y-76406078D03*
X94378144Y-76406078D03*
X95378144Y-76406078D03*
X96378144Y-76406078D03*
X81378144Y-77406078D03*
X82378144Y-77406078D03*
X83378144Y-77406078D03*
X84378144Y-77406078D03*
X85378144Y-77406078D03*
X86378144Y-77406078D03*
X87378144Y-77406078D03*
X88378144Y-77406078D03*
X89378144Y-77406078D03*
X90378144Y-77406078D03*
X91378144Y-77406078D03*
X92378144Y-77406078D03*
X93378144Y-77406078D03*
X94378144Y-77406078D03*
X95378144Y-77406078D03*
X96378144Y-77406078D03*
X81378144Y-78406078D03*
X82378144Y-78406078D03*
X83378144Y-78406078D03*
X84378144Y-78406078D03*
X85378144Y-78406078D03*
X86378144Y-78406078D03*
X87378144Y-78406078D03*
X88378144Y-78406078D03*
X89378144Y-78406078D03*
X90378144Y-78406078D03*
X91378144Y-78406078D03*
X92378144Y-78406078D03*
X93378144Y-78406078D03*
X94378144Y-78406078D03*
X95378144Y-78406078D03*
X96378144Y-78406078D03*
X81378144Y-79406078D03*
X82378144Y-79406078D03*
X83378144Y-79406078D03*
X84378144Y-79406078D03*
X85378144Y-79406078D03*
X86378144Y-79406078D03*
X87378144Y-79406078D03*
X88378144Y-79406078D03*
X89378144Y-79406078D03*
X90378144Y-79406078D03*
X91378144Y-79406078D03*
X92378144Y-79406078D03*
X93378144Y-79406078D03*
X94378144Y-79406078D03*
X95378144Y-79406078D03*
X96378144Y-79406078D03*
X81378144Y-80406078D03*
X82378144Y-80406078D03*
X83378144Y-80406078D03*
X84378144Y-80406078D03*
X85378144Y-80406078D03*
X86378144Y-80406078D03*
X87378144Y-80406078D03*
X88378144Y-80406078D03*
X89378144Y-80406078D03*
X90378144Y-80406078D03*
X91378144Y-80406078D03*
X92378144Y-80406078D03*
X93378144Y-80406078D03*
X94378144Y-80406078D03*
X95378144Y-80406078D03*
X96378144Y-80406078D03*
X81378144Y-81406078D03*
X82378144Y-81406078D03*
X83378144Y-81406078D03*
X84378144Y-81406078D03*
X85378144Y-81406078D03*
X86378144Y-81406078D03*
X87378144Y-81406078D03*
X88378144Y-81406078D03*
X89378144Y-81406078D03*
X90378144Y-81406078D03*
X91378144Y-81406078D03*
X92378144Y-81406078D03*
X93378144Y-81406078D03*
X94378144Y-81406078D03*
X95378144Y-81406078D03*
X96378144Y-81406078D03*
X81378144Y-82406078D03*
X82378144Y-82406078D03*
X83378144Y-82406078D03*
X84378144Y-82406078D03*
X85378144Y-82406078D03*
X86378144Y-82406078D03*
X87378144Y-82406078D03*
X88378144Y-82406078D03*
X89378144Y-82406078D03*
X90378144Y-82406078D03*
X91378144Y-82406078D03*
X92378144Y-82406078D03*
X93378144Y-82406078D03*
X94378144Y-82406078D03*
X95378144Y-82406078D03*
X96378144Y-82406078D03*
X81378144Y-83406078D03*
X82378144Y-83406078D03*
X83378144Y-83406078D03*
X84378144Y-83406078D03*
X85378144Y-83406078D03*
X86378144Y-83406078D03*
X87378144Y-83406078D03*
X88378144Y-83406078D03*
X89378144Y-83406078D03*
X90378144Y-83406078D03*
X91378144Y-83406078D03*
X92378144Y-83406078D03*
X93378144Y-83406078D03*
X94378144Y-83406078D03*
X95378144Y-83406078D03*
X96378144Y-83406078D03*
%TD*%
D19*
%TO.C,C93*%
X78462500Y-94850000D03*
X76737500Y-94850000D03*
%TD*%
%TO.C,C42*%
X82777500Y-61214000D03*
X81052500Y-61214000D03*
%TD*%
D20*
%TO.C,C88*%
X100126800Y-64794300D03*
X100126800Y-63069300D03*
%TD*%
D21*
%TO.C,R46*%
X73255500Y-91821000D03*
X75080500Y-91821000D03*
%TD*%
D22*
%TO.C,U16*%
X86182000Y-91231000D03*
X86182000Y-90581000D03*
X86182000Y-89931000D03*
X86182000Y-89281000D03*
X86182000Y-88631000D03*
X86182000Y-87981000D03*
X86182000Y-87331000D03*
X80442000Y-87331000D03*
X80442000Y-87981000D03*
X80442000Y-88631000D03*
X80442000Y-89281000D03*
X80442000Y-89931000D03*
X80442000Y-90581000D03*
X80442000Y-91231000D03*
%TD*%
D13*
%TO.C,C69*%
X73305500Y-85725000D03*
X75030500Y-85725000D03*
%TD*%
%TO.C,C74*%
X73305500Y-87249000D03*
X75030500Y-87249000D03*
%TD*%
D19*
%TO.C,C72*%
X63092500Y-85725000D03*
X61367500Y-85725000D03*
%TD*%
D23*
%TO.C,BTN4*%
X113538000Y-105714000D03*
X106528000Y-105714000D03*
D24*
X112288000Y-108204000D03*
X107788000Y-108204000D03*
%TD*%
D25*
%TO.C,U9*%
X104280000Y-77088500D03*
X105080000Y-77088500D03*
X105880000Y-77088500D03*
X106680000Y-77088500D03*
X107480000Y-77088500D03*
X108280000Y-77088500D03*
X109080000Y-77088500D03*
X109880000Y-77088500D03*
X110680000Y-77088500D03*
X111480000Y-77088500D03*
X112280000Y-77088500D03*
X113080000Y-77088500D03*
X113880000Y-77088500D03*
X114680000Y-77088500D03*
X115480000Y-77088500D03*
X116280000Y-77088500D03*
X117080000Y-77088500D03*
X117880000Y-77088500D03*
X118680000Y-77088500D03*
X119480000Y-77088500D03*
X120280000Y-77088500D03*
X121080000Y-77088500D03*
X121080000Y-65913500D03*
X120280000Y-65913500D03*
X119480000Y-65913500D03*
X118680000Y-65913500D03*
X117880000Y-65913500D03*
X117080000Y-65913500D03*
X116280000Y-65913500D03*
X115480000Y-65913500D03*
X114680000Y-65913500D03*
X113880000Y-65913500D03*
X113080000Y-65913500D03*
X112280000Y-65913500D03*
X111480000Y-65913500D03*
X110680000Y-65913500D03*
X109880000Y-65913500D03*
X109080000Y-65913500D03*
X108280000Y-65913500D03*
X107480000Y-65913500D03*
X106680000Y-65913500D03*
X105880000Y-65913500D03*
X105080000Y-65913500D03*
X104280000Y-65913500D03*
%TD*%
D19*
%TO.C,C45*%
X67537500Y-94615000D03*
X65812500Y-94615000D03*
%TD*%
D13*
%TO.C,C65*%
X88189900Y-88798400D03*
X89914900Y-88798400D03*
%TD*%
%TO.C,C43*%
X95276500Y-61341000D03*
X97001500Y-61341000D03*
%TD*%
D20*
%TO.C,C79*%
X118400000Y-54262500D03*
X118400000Y-52537500D03*
%TD*%
D26*
%TO.C,F1*%
X61098100Y-55549800D03*
X64073100Y-55549800D03*
%TD*%
D14*
%TO.C,J5*%
X88568000Y-96688000D03*
X87468000Y-96688000D03*
X86368000Y-96688000D03*
X85268000Y-96688000D03*
X84168000Y-96688000D03*
D15*
X78618000Y-97188000D03*
D16*
X78618000Y-106788000D03*
D14*
X83068000Y-96688000D03*
D17*
X93218000Y-97188000D03*
D16*
X94118000Y-106788000D03*
D14*
X81968000Y-96688000D03*
X80868000Y-96688000D03*
X79768000Y-96688000D03*
%TD*%
D27*
%TO.C,BTN2*%
X56097000Y-56726000D03*
X56097000Y-60876000D03*
X53947000Y-56726000D03*
X53947000Y-60876000D03*
%TD*%
D19*
%TO.C,C63*%
X89914900Y-90322400D03*
X88189900Y-90322400D03*
%TD*%
%TO.C,C80*%
X116762500Y-54300000D03*
X115037500Y-54300000D03*
%TD*%
D20*
%TO.C,C87*%
X96850200Y-64768900D03*
X96850200Y-63043900D03*
%TD*%
D11*
%TO.C,D1*%
X105187000Y-108688500D03*
X105187000Y-110513500D03*
%TD*%
D28*
%TO.C,U15*%
X65251000Y-86405000D03*
X65251000Y-86805000D03*
X65251000Y-87205000D03*
X65251000Y-87605000D03*
X65251000Y-88005000D03*
X65251000Y-88405000D03*
X65251000Y-88805000D03*
X65251000Y-89205000D03*
X65251000Y-89605000D03*
X65251000Y-90005000D03*
X65251000Y-90405000D03*
X65251000Y-90805000D03*
D29*
X66001000Y-91555000D03*
X66401000Y-91555000D03*
X66801000Y-91555000D03*
X67201000Y-91555000D03*
X67601000Y-91555000D03*
X68001000Y-91555000D03*
X68401000Y-91555000D03*
X68801000Y-91555000D03*
X69201000Y-91555000D03*
X69601000Y-91555000D03*
X70001000Y-91555000D03*
X70401000Y-91555000D03*
D28*
X71151000Y-90805000D03*
X71151000Y-90405000D03*
X71151000Y-90005000D03*
X71151000Y-89605000D03*
X71151000Y-89205000D03*
X71151000Y-88805000D03*
X71151000Y-88405000D03*
X71151000Y-88005000D03*
X71151000Y-87605000D03*
X71151000Y-87205000D03*
X71151000Y-86805000D03*
X71151000Y-86405000D03*
D29*
X70401000Y-85655000D03*
X70001000Y-85655000D03*
X69601000Y-85655000D03*
X69201000Y-85655000D03*
X68801000Y-85655000D03*
X68401000Y-85655000D03*
X68001000Y-85655000D03*
X67601000Y-85655000D03*
X67201000Y-85655000D03*
X66801000Y-85655000D03*
X66401000Y-85655000D03*
X66001000Y-85655000D03*
D30*
X68201000Y-88605000D03*
%TD*%
D31*
%TO.C,H4*%
X116653000Y-45145010D03*
X117312010Y-43554020D03*
X117312010Y-46736000D03*
X118903000Y-42895010D03*
D32*
X118903000Y-45145010D03*
D31*
X118903000Y-47395010D03*
X120493990Y-43554020D03*
X120493990Y-46736000D03*
X121153000Y-45145010D03*
%TD*%
D33*
%TO.C,U8*%
X93145700Y-65464800D03*
X93145700Y-64964800D03*
X93145700Y-64464800D03*
X93145700Y-63964800D03*
X93145700Y-63464800D03*
X93145700Y-62964800D03*
X93145700Y-62464800D03*
X93145700Y-61964800D03*
X93145700Y-61464800D03*
X93145700Y-60964800D03*
X93145700Y-60464800D03*
X93145700Y-59964800D03*
X93145700Y-59464800D03*
X93145700Y-58964800D03*
D34*
X92458200Y-58277300D03*
X91958200Y-58277300D03*
X91458200Y-58277300D03*
X90958200Y-58277300D03*
X90458200Y-58277300D03*
X89958200Y-58277300D03*
X89458200Y-58277300D03*
X88958200Y-58277300D03*
X88458200Y-58277300D03*
X87958200Y-58277300D03*
X87458200Y-58277300D03*
X86958200Y-58277300D03*
X86458200Y-58277300D03*
X85958200Y-58277300D03*
D33*
X85270700Y-58964800D03*
X85270700Y-59464800D03*
X85270700Y-59964800D03*
X85270700Y-60464800D03*
X85270700Y-60964800D03*
X85270700Y-61464800D03*
X85270700Y-61964800D03*
X85270700Y-62464800D03*
X85270700Y-62964800D03*
X85270700Y-63464800D03*
X85270700Y-63964800D03*
X85270700Y-64464800D03*
X85270700Y-64964800D03*
X85270700Y-65464800D03*
D34*
X85958200Y-66152300D03*
X86458200Y-66152300D03*
X86958200Y-66152300D03*
X87458200Y-66152300D03*
X87958200Y-66152300D03*
X88458200Y-66152300D03*
X88958200Y-66152300D03*
X89458200Y-66152300D03*
X89958200Y-66152300D03*
X90458200Y-66152300D03*
X90958200Y-66152300D03*
X91458200Y-66152300D03*
X91958200Y-66152300D03*
X92458200Y-66152300D03*
D35*
X89208200Y-62214800D03*
%TD*%
D36*
%TO.C,J1*%
X94622000Y-55521000D03*
D37*
X92122000Y-55521000D03*
X90122000Y-55521000D03*
X87622000Y-55521000D03*
X94622000Y-52901000D03*
X92122000Y-52901000D03*
X90122000Y-52901000D03*
X87622000Y-52901000D03*
D38*
X97416000Y-55871000D03*
X97416000Y-50191000D03*
X84843000Y-55871000D03*
X84843000Y-50191000D03*
%TD*%
D36*
%TO.C,J2*%
X77890000Y-55521000D03*
D37*
X75390000Y-55521000D03*
X73390000Y-55521000D03*
X70890000Y-55521000D03*
X77890000Y-52901000D03*
X75390000Y-52901000D03*
X73390000Y-52901000D03*
X70890000Y-52901000D03*
D38*
X80684000Y-55871000D03*
X80684000Y-50191000D03*
X68111000Y-55871000D03*
X68111000Y-50191000D03*
%TD*%
D13*
%TO.C,C62*%
X76734500Y-88773000D03*
X78459500Y-88773000D03*
%TD*%
D19*
%TO.C,C68*%
X63092500Y-90297000D03*
X61367500Y-90297000D03*
%TD*%
D39*
%TO.C,J8*%
X121319810Y-58801000D03*
X114319570Y-58801000D03*
D40*
X116719870Y-62049660D03*
D41*
X116719870Y-61249660D03*
D42*
X119719610Y-62049660D03*
D41*
X119719610Y-61249660D03*
X111619550Y-56352340D03*
D40*
X111619550Y-55552340D03*
X112719370Y-62049660D03*
D41*
X112719370Y-61249660D03*
%TD*%
D11*
%TO.C,R24*%
X102300000Y-89187500D03*
X102300000Y-91012500D03*
%TD*%
D43*
%TO.C,Y1*%
X54461000Y-66562000D03*
X57361000Y-66562000D03*
X57361000Y-64262000D03*
X54461000Y-64262000D03*
%TD*%
D31*
%TO.C,H1*%
X54804000Y-107061000D03*
X55463010Y-105470010D03*
X55463010Y-108651990D03*
X57054000Y-104811000D03*
D32*
X57054000Y-107061000D03*
D31*
X57054000Y-109311000D03*
X58644990Y-105470010D03*
X58644990Y-108651990D03*
X59304000Y-107061000D03*
%TD*%
D44*
%TO.C,J7*%
X63923000Y-45898200D03*
X61063000Y-45898200D03*
X63923000Y-51998200D03*
X61063000Y-52023200D03*
%TD*%
D45*
%TO.C,C91*%
X100800000Y-85975000D03*
X100800000Y-87700000D03*
%TD*%
%TO.C,C90*%
X102311200Y-85937500D03*
X102311200Y-87662500D03*
%TD*%
D46*
%TO.C,P4*%
X120904000Y-49936400D03*
D47*
X120904000Y-51206400D03*
X120904000Y-52476400D03*
X120904000Y-53746400D03*
%TD*%
D21*
%TO.C,R44*%
X76684500Y-91821000D03*
X78509500Y-91821000D03*
%TD*%
D11*
%TO.C,R21*%
X95224600Y-62993900D03*
X95224600Y-64818900D03*
%TD*%
%TO.C,R56*%
X99300000Y-85937500D03*
X99300000Y-87762500D03*
%TD*%
D46*
%TO.C,P3*%
X97586800Y-94132400D03*
D48*
X98856800Y-94132400D03*
X97586800Y-95402400D03*
X98856800Y-95402400D03*
X97586800Y-96672400D03*
X98856800Y-96672400D03*
X97586800Y-97942400D03*
X98856800Y-97942400D03*
X97586800Y-99212400D03*
X98856800Y-99212400D03*
X97586800Y-100482400D03*
X98856800Y-100482400D03*
X97586800Y-101752400D03*
X98856800Y-101752400D03*
X97586800Y-103022400D03*
X98856800Y-103022400D03*
%TD*%
D39*
%TO.C,J6*%
X121189000Y-98044000D03*
X114188760Y-98044000D03*
D40*
X116589060Y-101292660D03*
D41*
X116589060Y-100492660D03*
D42*
X119588800Y-101292660D03*
D41*
X119588800Y-100492660D03*
X111488740Y-95595340D03*
D40*
X111488740Y-94795340D03*
X112588560Y-101292660D03*
D41*
X112588560Y-100492660D03*
%TD*%
D19*
%TO.C,C67*%
X63092500Y-87249000D03*
X61367500Y-87249000D03*
%TD*%
D11*
%TO.C,D4*%
X94869000Y-108815500D03*
X94869000Y-110640500D03*
%TD*%
D46*
%TO.C,J9*%
X101077000Y-55321200D03*
D47*
X102347000Y-55321200D03*
%TD*%
D23*
%TO.C,BTN3*%
X103886000Y-105763500D03*
X96876000Y-105763500D03*
D24*
X102636000Y-108253500D03*
X98136000Y-108253500D03*
%TD*%
D25*
%TO.C,U10*%
X104269000Y-91058500D03*
X105069000Y-91058500D03*
X105869000Y-91058500D03*
X106669000Y-91058500D03*
X107469000Y-91058500D03*
X108269000Y-91058500D03*
X109069000Y-91058500D03*
X109869000Y-91058500D03*
X110669000Y-91058500D03*
X111469000Y-91058500D03*
X112269000Y-91058500D03*
X113069000Y-91058500D03*
X113869000Y-91058500D03*
X114669000Y-91058500D03*
X115469000Y-91058500D03*
X116269000Y-91058500D03*
X117069000Y-91058500D03*
X117869000Y-91058500D03*
X118669000Y-91058500D03*
X119469000Y-91058500D03*
X120269000Y-91058500D03*
X121069000Y-91058500D03*
X121069000Y-79883500D03*
X120269000Y-79883500D03*
X119469000Y-79883500D03*
X118669000Y-79883500D03*
X117869000Y-79883500D03*
X117069000Y-79883500D03*
X116269000Y-79883500D03*
X115469000Y-79883500D03*
X114669000Y-79883500D03*
X113869000Y-79883500D03*
X113069000Y-79883500D03*
X112269000Y-79883500D03*
X111469000Y-79883500D03*
X110669000Y-79883500D03*
X109869000Y-79883500D03*
X109069000Y-79883500D03*
X108269000Y-79883500D03*
X107469000Y-79883500D03*
X106669000Y-79883500D03*
X105869000Y-79883500D03*
X105069000Y-79883500D03*
X104269000Y-79883500D03*
%TD*%
D49*
%TO.C,R22*%
X98501200Y-64818900D03*
X98501200Y-62993900D03*
%TD*%
D13*
%TO.C,C70*%
X73305500Y-90297000D03*
X75030500Y-90297000D03*
%TD*%
D27*
%TO.C,BTN1*%
X56097000Y-50249000D03*
X56097000Y-54399000D03*
X53947000Y-50249000D03*
X53947000Y-54399000D03*
%TD*%
D50*
%TO.C,R57*%
X78509500Y-87223600D03*
X76684500Y-87223600D03*
%TD*%
D45*
%TO.C,C39*%
X98679000Y-59716500D03*
X98679000Y-61441500D03*
%TD*%
D50*
%TO.C,R16*%
X97051500Y-59690000D03*
X95226500Y-59690000D03*
%TD*%
D19*
%TO.C,C73*%
X63092500Y-88773000D03*
X61367500Y-88773000D03*
%TD*%
D11*
%TO.C,D3*%
X77501000Y-108815500D03*
X77501000Y-110640500D03*
%TD*%
D31*
%TO.C,H2*%
X116653000Y-107061000D03*
X117312010Y-105470010D03*
X117312010Y-108651990D03*
X118903000Y-104811000D03*
D32*
X118903000Y-107061000D03*
D31*
X118903000Y-109311000D03*
X120493990Y-105470010D03*
X120493990Y-108651990D03*
X121153000Y-107061000D03*
%TD*%
D51*
%TO.C,J3*%
X104053000Y-51308000D03*
X104553000Y-51308000D03*
X105053000Y-51308000D03*
X105553000Y-51308000D03*
X106053000Y-51308000D03*
X106553000Y-51308000D03*
X107053000Y-51308000D03*
X107553000Y-51308000D03*
X108053000Y-51308000D03*
X108553000Y-51308000D03*
X109053000Y-51308000D03*
X109553000Y-51308000D03*
X110053000Y-51308000D03*
X110553000Y-51308000D03*
X111053000Y-51308000D03*
X111553000Y-51308000D03*
X112053000Y-51308000D03*
X112553000Y-51308000D03*
X113053000Y-51308000D03*
D52*
X101303000Y-50548000D03*
X115803000Y-50548000D03*
D53*
X101303000Y-44588000D03*
X115803000Y-44588000D03*
%TD*%
D19*
%TO.C,C46*%
X85063500Y-94615000D03*
X83338500Y-94615000D03*
%TD*%
D21*
%TO.C,R45*%
X73255500Y-88773000D03*
X75080500Y-88773000D03*
%TD*%
D31*
%TO.C,H3*%
X54804000Y-45375000D03*
X55463010Y-43784010D03*
X55463010Y-46965990D03*
X57054000Y-43125000D03*
D32*
X57054000Y-45375000D03*
D31*
X57054000Y-47625000D03*
X58644990Y-43784010D03*
X58644990Y-46965990D03*
X59304000Y-45375000D03*
%TD*%
D21*
%TO.C,R43*%
X76684500Y-90297000D03*
X78509500Y-90297000D03*
%TD*%
D19*
%TO.C,C38*%
X82777500Y-59690000D03*
X81052500Y-59690000D03*
%TD*%
%TO.C,C66*%
X89914900Y-91871800D03*
X88189900Y-91871800D03*
%TD*%
D46*
%TO.C,P1*%
X100203000Y-78333600D03*
D48*
X101473000Y-78333600D03*
X100203000Y-79603600D03*
X101473000Y-79603600D03*
X100203000Y-80873600D03*
X101473000Y-80873600D03*
X100203000Y-82143600D03*
X101473000Y-82143600D03*
%TD*%
D54*
%TO.C,U3*%
X61612500Y-60270000D03*
X61612500Y-60670000D03*
X61612500Y-61070000D03*
X61612500Y-61470000D03*
X61612500Y-61870000D03*
X61612500Y-62270000D03*
X61612500Y-62670000D03*
X61612500Y-63070000D03*
X61612500Y-63470000D03*
X61612500Y-63870000D03*
X61612500Y-64270000D03*
X61612500Y-64670000D03*
X61612500Y-65070000D03*
X61612500Y-65470000D03*
D55*
X62450000Y-66307500D03*
X62850000Y-66307500D03*
X63250000Y-66307500D03*
X63650000Y-66307500D03*
X64050000Y-66307500D03*
X64450000Y-66307500D03*
X64850000Y-66307500D03*
X65250000Y-66307500D03*
X65650000Y-66307500D03*
X66050000Y-66307500D03*
X66450000Y-66307500D03*
X66850000Y-66307500D03*
X67250000Y-66307500D03*
X67650000Y-66307500D03*
D54*
X68487500Y-65470000D03*
X68487500Y-65070000D03*
X68487500Y-64670000D03*
X68487500Y-64270000D03*
X68487500Y-63870000D03*
X68487500Y-63470000D03*
X68487500Y-63070000D03*
X68487500Y-62670000D03*
X68487500Y-62270000D03*
X68487500Y-61870000D03*
X68487500Y-61470000D03*
X68487500Y-61070000D03*
X68487500Y-60670000D03*
X68487500Y-60270000D03*
D55*
X67650000Y-59432500D03*
X67250000Y-59432500D03*
X66850000Y-59432500D03*
X66450000Y-59432500D03*
X66050000Y-59432500D03*
X65650000Y-59432500D03*
X65250000Y-59432500D03*
X64850000Y-59432500D03*
X64450000Y-59432500D03*
X64050000Y-59432500D03*
X63650000Y-59432500D03*
X63250000Y-59432500D03*
X62850000Y-59432500D03*
X62450000Y-59432500D03*
D56*
X65050000Y-62870000D03*
%TD*%
D13*
%TO.C,C71*%
X73305500Y-93345000D03*
X75030500Y-93345000D03*
%TD*%
D11*
%TO.C,R15*%
X100330000Y-59666500D03*
X100330000Y-61491500D03*
%TD*%
D46*
%TO.C,P2*%
X105359200Y-94132400D03*
D48*
X106629200Y-94132400D03*
X105359200Y-95402400D03*
X106629200Y-95402400D03*
X105359200Y-96672400D03*
X106629200Y-96672400D03*
X105359200Y-97942400D03*
X106629200Y-97942400D03*
X105359200Y-99212400D03*
X106629200Y-99212400D03*
X105359200Y-100482400D03*
X106629200Y-100482400D03*
X105359200Y-101752400D03*
X106629200Y-101752400D03*
X105359200Y-103022400D03*
X106629200Y-103022400D03*
%TD*%
D57*
%TO.C,BT1*%
X114966000Y-74803000D03*
D58*
X114966000Y-82253000D03*
%TD*%
M02*
