M48
; DRILL file {KiCad 9.0.4-9.0.4-0~ubuntu24.04.1} date 2025-10-04T23:24:13+0200
; FORMAT={-:-/ absolute / metric / decimal}
; #@! TF.CreationDate,2025-10-04T23:24:13+02:00
; #@! TF.GenerationSoftware,Kicad,Pcbnew,9.0.4-9.0.4-0~ubuntu24.04.1
; #@! TF.FileFunction,Plated,1,4,PTH
FMAT,2
METRIC
; #@! TA.AperFunction,Plated,PTH,ViaDrill
T1C0.300
; #@! TA.AperFunction,Plated,PTH,ComponentDrill
T2C0.350
; #@! TA.AperFunction,Plated,PTH,ComponentDrill
T3C0.400
; #@! TA.AperFunction,Plated,PTH,ComponentDrill
T4C0.500
; #@! TA.AperFunction,Plated,PTH,ComponentDrill
T5C0.650
; #@! TA.AperFunction,Plated,PTH,ComponentDrill
T6C0.900
; #@! TA.AperFunction,Plated,PTH,ComponentDrill
T7C0.920
; #@! TA.AperFunction,Plated,PTH,ComponentDrill
T8C0.990
; #@! TA.AperFunction,Plated,PTH,ComponentDrill
T9C1.300
; #@! TA.AperFunction,Plated,PTH,ComponentDrill
T10C3.000
%
G90
G05
T1
X54.254Y-62.154
X54.356Y-68.326
X54.458Y-63.627
X54.483Y-74.828
X54.483Y-75.311
X54.483Y-75.794
X54.483Y-80.264
X54.61Y-71.247
X54.635Y-52.451
X54.864Y-63.983
X55.88Y-52.451
X55.88Y-63.932
X55.905Y-59.639
X56.007Y-60.96
X56.038Y-68.326
X56.134Y-50.165
X56.134Y-54.356
X56.134Y-80.264
X56.261Y-71.247
X56.947Y-71.755
X56.972Y-79.502
X57.099Y-68.072
X57.175Y-52.451
X57.201Y-59.639
X57.277Y-82.804
X57.353Y-72.136
X57.404Y-64.262
X57.429Y-66.065
X57.429Y-66.599
X57.429Y-79.096
X58.242Y-61.036
X58.41Y-68.072
X58.438Y-68.581
X58.547Y-80.264
X58.62Y-77.645
X58.674Y-71.247
X58.744Y-67.6
X58.752Y-61.036
X58.752Y-61.546
X58.801Y-82.78
X58.935Y-68.074
X59.233Y-74.193
X59.45Y-59.6
X59.461Y-61.025
X60.05Y-59.6
X60.301Y-84.582
X60.452Y-65.456
X60.452Y-80.264
X60.496Y-62.709
X60.543Y-64.591
X60.554Y-63.515
X60.628Y-66.636
X60.782Y-62.27
X60.858Y-65.825
X60.881Y-75.384
X60.884Y-63.07
X60.884Y-65.049
X60.898Y-64.225
X60.899Y-74.219
X60.9Y-49.05
X60.9Y-49.55
X60.965Y-67.067
X61.214Y-71.247
X61.214Y-90.297
X61.265Y-88.773
X61.341Y-73.127
X61.351Y-67.453
X61.417Y-65.888
X61.722Y-59.055
X61.722Y-91.65
X61.722Y-92.202
X61.722Y-92.685
X61.722Y-93.167
X62.255Y-78.715
X62.433Y-42.443
X62.433Y-42.977
X62.433Y-43.51
X62.433Y-65.481
X62.484Y-60.706
X62.484Y-63.881
X62.509Y-67.183
X62.814Y-68.199
X62.942Y-65.511
X63.092Y-88.773
X63.092Y-90.297
X63.094Y-77.521
X63.295Y-67.107
X63.373Y-68.199
X63.373Y-82.677
X63.5Y-83.312
X63.603Y-84.582
X63.627Y-53.975
X63.627Y-71.247
X63.805Y-67.107
X63.932Y-68.199
X63.983Y-76.835
X63.983Y-77.343
X64.135Y-53.975
X64.389Y-97.917
X64.43Y-86.741
X64.44Y-86.106
X64.516Y-93.956
X64.643Y-53.975
X64.668Y-65.405
X64.785Y-93.446
X64.897Y-71.12
X64.897Y-82.677
X65.024Y-58.674
X65.151Y-85.367
X65.156Y-52.324
X65.253Y-67.158
X65.278Y-60.325
X65.557Y-106.705
X65.557Y-107.188
X65.557Y-107.671
X65.728Y-60.325
X65.786Y-74.168
X65.913Y-92.456
X66.243Y-77.394
X66.269Y-51.333
X66.286Y-71.105
X66.421Y-92.456
X66.548Y-82.804
X66.548Y-97.917
X66.673Y-84.709
X66.675Y-58.674
X66.929Y-92.456
X67.031Y-74.397
X67.056Y-54.305
X67.183Y-84.709
X67.234Y-67.158
X67.259Y-78.105
X67.537Y-94.615
X67.539Y-53.95
X67.564Y-60.833
X67.589Y-84.049
X67.615Y-77.648
X67.668Y-104.902
X67.716Y-65.557
X67.742Y-64.059
X67.742Y-74.447
X67.92Y-83.659
X68.174Y-66.65
X68.326Y-59.055
X68.377Y-97.942
X68.453Y-107.188
X68.453Y-108.989
X68.55Y-66.0
X68.58Y-71.12
X68.707Y-95.377
X68.783Y-82.804
X68.834Y-92.456
X68.846Y-84.7
X68.885Y-94.361
X68.961Y-68.047
X69.1Y-84.15
X69.113Y-47.638
X69.45Y-83.3
X69.469Y-68.047
X69.52Y-59.512
X69.55Y-47.8
X69.579Y-62.715
X69.597Y-62.215
X69.71Y-84.337
X69.952Y-59.842
X69.977Y-68.047
X70.082Y-71.096
X70.104Y-92.71
X70.104Y-107.164
X70.104Y-108.989
X70.231Y-74.168
X70.256Y-65.071
X70.262Y-63.525
X70.485Y-68.047
X70.608Y-63.916
X71.526Y-74.244
X71.543Y-63.802
X71.55Y-60.5
X71.605Y-68.653
X71.605Y-61.067
X71.628Y-99.187
X71.95Y-65.6
X71.968Y-67.955
X71.984Y-88.697
X72.187Y-99.187
X72.315Y-68.782
X72.35Y-82.95
X72.43Y-86.157
X72.43Y-86.766
X72.5Y-68.3
X72.675Y-60.018
X72.746Y-99.187
X72.847Y-83.659
X73.025Y-71.196
X73.304Y-99.187
X73.533Y-104.902
X73.635Y-43.726
X73.635Y-44.259
X73.635Y-44.78
X73.66Y-79.578
X73.66Y-80.137
X74.326Y-60.044
X74.422Y-74.422
X74.93Y-68.453
X74.95Y-62.8
X74.95Y-67.9
X74.961Y-62.255
X75.311Y-80.391
X75.445Y-95.05
X75.598Y-94.46
X75.649Y-85.373
X75.717Y-44.471
X75.717Y-44.971
X75.717Y-46.241
X75.717Y-47.011
X75.717Y-47.511
X75.717Y-48.277
X75.717Y-48.777
X75.738Y-45.723
X75.879Y-82.177
X75.943Y-81.105
X75.946Y-78.842
X75.946Y-79.35
X75.946Y-79.858
X75.946Y-80.543
X75.977Y-60.044
X76.073Y-85.09
X76.374Y-81.995
X76.505Y-84.633
X76.53Y-64.44
X76.53Y-64.922
X76.53Y-65.43
X76.632Y-86.081
X76.911Y-84.277
X77.013Y-85.7
X77.47Y-108.712
X77.47Y-110.617
X77.6Y-87.95
X77.85Y-60.071
X77.85Y-61.8
X77.85Y-62.3
X77.85Y-62.8
X77.95Y-94.85
X78.894Y-83.734
X78.894Y-84.244
X78.9Y-82.2
X78.943Y-74.27
X79.146Y-70.231
X79.4Y-58.7
X79.705Y-70.231
X79.883Y-80.643
X79.883Y-80.133
X79.892Y-82.178
X80.264Y-67.463
X80.264Y-73.66
X80.264Y-74.17
X80.7Y-86.241
X80.772Y-83.439
X80.8Y-68.0
X80.8Y-82.65
X80.8Y-85.65
X81.077Y-91.948
X81.432Y-105.105
X81.432Y-105.588
X81.432Y-106.045
X81.449Y-85.399
X81.534Y-92.405
X81.813Y-66.573
X81.839Y-83.922
X81.935Y-69.659
X82.55Y-65.85
X82.75Y-82.0
X82.804Y-70.993
X82.804Y-74.422
X82.868Y-76.416
X82.869Y-78.434
X82.87Y-80.368
X83.2Y-70.0
X83.353Y-85.151
X83.515Y-94.513
X83.55Y-58.75
X83.566Y-74.93
X83.82Y-78.867
X83.86Y-81.39
X83.867Y-85.382
X83.928Y-84.876
X83.939Y-76.116
X83.947Y-72.39
X83.992Y-84.354
X84.074Y-72.898
X84.35Y-61.4
X84.378Y-70.993
X84.4Y-60.75
X84.424Y-84.083
X84.467Y-69.183
X84.505Y-59.497
X84.53Y-58.555
X84.725Y-58.077
X84.731Y-86.843
X84.836Y-74.422
X84.836Y-75.692
X84.836Y-76.962
X84.836Y-77.872
X84.836Y-82.296
X84.888Y-76.402
X84.9Y-83.9
X84.938Y-79.934
X85.063Y-94.615
X85.177Y-85.119
X85.671Y-84.7
X85.852Y-70.866
X85.852Y-72.39
X85.852Y-73.025
X85.852Y-73.914
X85.852Y-75.946
X85.852Y-76.962
X85.852Y-77.872
X85.852Y-78.867
X86.0Y-57.3
X86.106Y-99.55
X86.106Y-107.164
X86.106Y-108.989
X86.118Y-80.845
X86.646Y-86.573
X86.65Y-99.55
X86.716Y-81.94
X86.741Y-63.348
X86.741Y-63.881
X86.741Y-64.389
X86.741Y-75.057
X86.868Y-71.882
X86.868Y-72.898
X86.868Y-75.946
X86.868Y-76.962
X86.868Y-77.978
X86.88Y-87.026
X87.122Y-59.436
X87.15Y-99.55
X87.167Y-69.17
X87.169Y-79.883
X87.35Y-87.3
X87.468Y-84.252
X87.478Y-87.986
X87.717Y-70.915
X87.745Y-108.978
X87.757Y-73.787
X87.757Y-107.061
X87.85Y-85.3
X87.867Y-76.024
X87.884Y-71.882
X87.884Y-72.898
X87.884Y-74.93
X87.884Y-77.851
X87.884Y-78.867
X87.884Y-79.883
X87.917Y-76.868
X88.21Y-86.552
X88.367Y-85.573
X88.392Y-90.221
X88.443Y-88.544
X88.773Y-81.915
X88.849Y-76.014
X88.854Y-76.881
X88.9Y-71.882
X88.9Y-72.898
X88.9Y-73.914
X88.9Y-74.93
X88.9Y-78.867
X88.936Y-69.886
X88.976Y-58.953
X89.026Y-69.048
X89.154Y-92.735
X89.168Y-93.243
X89.281Y-87.757
X89.5Y-68.85
X89.559Y-69.918
X89.713Y-85.75
X89.764Y-88.013
X89.789Y-78.116
X89.84Y-78.867
X90.0Y-65.55
X90.678Y-57.405
X90.679Y-69.955
X90.72Y-71.054
X90.805Y-72.009
X90.805Y-72.954
X90.805Y-75.057
X90.805Y-80.899
X90.805Y-81.915
X90.83Y-78.918
X90.907Y-77.876
X90.932Y-76.962
X90.932Y-79.883
X90.932Y-83.693
X91.014Y-84.213
X91.186Y-84.76
X91.44Y-68.961
X91.592Y-89.789
X91.592Y-90.322
X91.592Y-90.856
X91.63Y-70.917
X91.821Y-62.84
X91.821Y-63.373
X91.821Y-63.881
X91.821Y-72.009
X91.821Y-73.025
X91.821Y-73.914
X91.821Y-74.93
X91.821Y-75.819
X91.821Y-79.883
X91.821Y-81.915
X91.846Y-78.943
X91.897Y-81.104
X91.923Y-80.594
X91.973Y-82.753
X91.995Y-76.835
X92.304Y-89.256
X92.354Y-65.481
X92.394Y-84.72
X92.812Y-89.256
X92.837Y-72.009
X92.837Y-73.025
X92.837Y-73.914
X92.837Y-75.057
X92.837Y-75.946
X92.837Y-76.809
X92.849Y-71.486
X92.878Y-70.587
X93.523Y-80.899
X93.853Y-69.24
X93.853Y-74.422
X93.853Y-79.883
X93.853Y-81.915
X93.856Y-71.653
X93.874Y-77.326
X93.878Y-72.796
X93.878Y-83.767
X93.881Y-79.294
X93.98Y-58.928
X93.98Y-59.461
X94.074Y-61.867
X94.076Y-64.843
X94.081Y-62.887
X94.082Y-63.397
X94.082Y-64.334
X94.083Y-62.377
X94.1Y-60.15
X94.1Y-60.85
X94.125Y-61.359
X94.132Y-92.812
X94.209Y-85.893
X94.415Y-70.915
X94.666Y-92.812
X94.868Y-81.407
X94.869Y-79.883
X94.869Y-108.839
X94.869Y-110.617
X94.869Y-80.897
X94.892Y-70.56
X94.894Y-70.05
X95.057Y-65.999
X95.109Y-71.718
X95.193Y-92.805
X95.352Y-100.457
X95.57Y-67.981
X95.849Y-78.222
X95.868Y-76.406
X95.868Y-74.406
X95.888Y-68.406
X96.799Y-66.573
X96.85Y-63.044
X96.952Y-69.394
X96.967Y-83.378
X97.028Y-73.406
X97.333Y-66.573
X97.538Y-73.406
X97.825Y-76.047
X98.171Y-70.46
X98.232Y-77.361
X98.247Y-78.613
X98.337Y-76.047
X98.4Y-92.9
X98.679Y-74.549
X98.806Y-77.361
X98.806Y-78.613
X98.831Y-93.167
X98.857Y-70.518
X99.136Y-78.181
X99.152Y-74.26
X99.238Y-62.992
X99.289Y-78.941
X99.3Y-87.762
X99.39Y-70.518
X99.416Y-80.035
X99.49Y-74.694
X99.873Y-70.518
X100.059Y-89.605
X100.076Y-58.547
X100.127Y-63.246
X100.33Y-108.966
X100.559Y-68.25
X100.646Y-75.674
X100.914Y-67.843
X101.133Y-75.829
X101.346Y-60.706
X101.389Y-61.859
X101.397Y-62.484
X101.397Y-63.246
X101.945Y-95.606
X101.945Y-96.159
X101.945Y-96.755
X102.21Y-76.022
X102.565Y-79.604
X102.605Y-80.112
X102.605Y-80.62
X102.641Y-69.037
X102.641Y-69.52
X102.652Y-68.565
X102.794Y-76.098
X103.4Y-86.4
X104.296Y-53.365
X104.796Y-53.365
X105.156Y-108.839
X105.156Y-110.49
X105.283Y-54.331
X105.283Y-54.889
X105.283Y-55.423
X105.791Y-53.365
X105.867Y-47.092
X105.918Y-67.183
X105.918Y-75.946
X105.918Y-89.662
X106.274Y-42.139
X106.299Y-53.365
X106.299Y-81.153
X106.299Y-89.027
X106.68Y-67.894
X106.68Y-75.946
X106.68Y-89.662
X106.782Y-54.331
X106.782Y-54.889
X106.782Y-55.423
X106.807Y-67.183
X107.061Y-81.153
X107.137Y-89.027
X107.294Y-53.365
X107.467Y-67.894
X107.569Y-67.183
X107.569Y-75.946
X107.569Y-89.662
X107.794Y-53.365
X107.798Y-42.139
X107.9Y-61.95
X107.9Y-62.484
X107.9Y-63.0
X107.909Y-45.212
X107.924Y-81.153
X107.95Y-89.027
X108.306Y-46.888
X108.306Y-54.331
X108.306Y-54.889
X108.306Y-55.423
X108.331Y-67.183
X108.331Y-67.894
X108.331Y-75.946
X108.331Y-89.662
X108.712Y-45.212
X108.712Y-81.153
X108.712Y-89.027
X108.822Y-53.365
X108.845Y-67.183
X108.855Y-93.963
X109.093Y-89.662
X109.118Y-44.856
X109.119Y-75.946
X109.322Y-42.139
X109.322Y-53.365
X109.41Y-69.025
X109.413Y-69.535
X109.525Y-45.212
X109.555Y-86.483
X109.64Y-80.987
X109.855Y-75.946
X109.855Y-78.46
X109.906Y-44.856
X110.109Y-108.966
X110.236Y-67.183
X110.349Y-81.159
X110.617Y-75.413
X110.617Y-75.946
X110.617Y-88.138
X110.617Y-89.662
X110.846Y-43.916
X110.85Y-42.15
X111.049Y-67.183
X111.074Y-81.153
X111.268Y-46.543
X111.277Y-47.701
X111.506Y-47.092
X111.816Y-74.112
X111.887Y-72.06
X112.176Y-74.473
X112.25Y-67.41
X112.268Y-75.946
X112.268Y-81.153
X112.268Y-90.932
X112.471Y-72.06
X112.537Y-74.833
X112.624Y-46.076
X113.03Y-65.786
X113.03Y-81.153
X113.03Y-89.662
X113.157Y-75.946
X113.284Y-71.374
X113.284Y-71.884
X113.411Y-87.376
X113.462Y-95.301
X113.55Y-55.7
X113.792Y-74.168
X113.919Y-92.507
X114.1Y-55.7
X114.198Y-101.854
X114.275Y-67.285
X114.275Y-88.087
X114.275Y-88.621
X114.65Y-55.7
X114.808Y-108.839
X114.808Y-110.49
X114.884Y-70.053
X114.935Y-92.481
X115.011Y-86.97
X115.037Y-86.411
X115.291Y-69.672
X115.443Y-89.662
X115.57Y-67.183
X115.722Y-95.783
X115.722Y-96.317
X115.951Y-81.153
X116.332Y-67.183
X116.332Y-75.946
X116.423Y-74.845
X116.51Y-73.254
X116.51Y-73.764
X116.51Y-74.274
X116.51Y-89.662
X116.713Y-81.153
X116.713Y-89.027
X117.094Y-67.183
X117.094Y-70.79
X117.094Y-75.946
X117.094Y-89.662
X117.142Y-68.4
X117.475Y-81.153
X117.475Y-89.027
X117.627Y-94.285
X117.653Y-94.818
X117.653Y-95.352
X117.856Y-67.183
X117.856Y-67.92
X117.856Y-75.946
X117.856Y-89.662
X118.212Y-89.027
X118.237Y-81.153
X118.4Y-55.5
X118.618Y-75.946
X118.618Y-89.662
X118.643Y-70.79
X118.745Y-67.183
X118.999Y-73.279
X118.999Y-89.027
X119.025Y-81.153
X119.38Y-70.79
X119.38Y-75.946
X119.38Y-89.662
X119.507Y-67.183
X119.761Y-81.153
X121.056Y-87.833
X121.056Y-88.316
X121.056Y-88.798
X121.082Y-69.825
X121.082Y-70.307
X121.082Y-70.79
X121.361Y-92.381
T2
X63.775Y-61.595
X63.775Y-62.87
X63.775Y-64.145
X65.05Y-61.595
X65.05Y-62.87
X65.05Y-64.145
X66.325Y-61.595
X66.325Y-62.87
X66.325Y-64.145
T3
X62.103Y-45.923
X62.103Y-46.823
X62.103Y-48.173
X62.103Y-49.073
X62.103Y-49.973
X62.103Y-50.873
X62.103Y-51.773
X62.883Y-45.923
X62.883Y-46.823
X62.883Y-47.723
X62.883Y-48.623
X62.883Y-49.523
X62.883Y-50.873
X62.883Y-51.773
T4
X54.804Y-45.375
X54.804Y-107.061
X55.463Y-43.784
X55.463Y-46.966
X55.463Y-105.47
X55.463Y-108.652
X57.054Y-43.125
X57.054Y-47.625
X57.054Y-104.811
X57.054Y-109.311
X58.645Y-43.784
X58.645Y-46.966
X58.645Y-105.47
X58.645Y-108.652
X59.304Y-45.375
X59.304Y-107.061
X116.653Y-45.145
X116.653Y-107.061
X117.312Y-43.554
X117.312Y-46.736
X117.312Y-105.47
X117.312Y-108.652
X118.903Y-42.895
X118.903Y-47.395
X118.903Y-104.811
X118.903Y-109.311
X120.494Y-43.554
X120.494Y-46.736
X120.494Y-105.47
X120.494Y-108.652
X121.153Y-45.145
X121.153Y-107.061
T5
X97.587Y-94.132
X97.587Y-95.402
X97.587Y-96.672
X97.587Y-97.942
X97.587Y-99.212
X97.587Y-100.482
X97.587Y-101.752
X97.587Y-103.022
X98.857Y-94.132
X98.857Y-95.402
X98.857Y-96.672
X98.857Y-97.942
X98.857Y-99.212
X98.857Y-100.482
X98.857Y-101.752
X98.857Y-103.022
X100.203Y-78.334
X100.203Y-79.604
X100.203Y-80.874
X100.203Y-82.144
X101.077Y-55.321
X101.473Y-78.334
X101.473Y-79.604
X101.473Y-80.874
X101.473Y-82.144
X102.347Y-55.321
X105.359Y-94.132
X105.359Y-95.402
X105.359Y-96.672
X105.359Y-97.942
X105.359Y-99.212
X105.359Y-100.482
X105.359Y-101.752
X105.359Y-103.022
X106.629Y-94.132
X106.629Y-95.402
X106.629Y-96.672
X106.629Y-97.942
X106.629Y-99.212
X106.629Y-100.482
X106.629Y-101.752
X106.629Y-103.022
X120.904Y-49.936
X120.904Y-51.206
X120.904Y-52.476
X120.904Y-53.746
T7
X70.89Y-52.901
X70.89Y-55.521
X73.39Y-52.901
X73.39Y-55.521
X75.39Y-52.901
X75.39Y-55.521
X77.89Y-52.901
X77.89Y-55.521
X87.622Y-52.901
X87.622Y-55.521
X90.122Y-52.901
X90.122Y-55.521
X92.122Y-52.901
X92.122Y-55.521
X94.622Y-52.901
X94.622Y-55.521
T8
X98.136Y-108.253
X102.636Y-108.253
X107.788Y-108.204
X112.288Y-108.204
T9
X96.876Y-105.763
X103.886Y-105.763
X106.528Y-105.714
X113.538Y-105.714
T10
X57.054Y-45.375
X57.054Y-107.061
X118.903Y-45.145
X118.903Y-107.061
T4
G00X61.063Y-46.498
M15
G01X61.063Y-45.298
M16
G05
G00X61.063Y-52.623
M15
G01X61.063Y-51.423
M16
G05
G00X63.923Y-46.498
M15
G01X63.923Y-45.298
M16
G05
G00X63.923Y-52.598
M15
G01X63.923Y-51.398
M16
G05
G00X112.039Y-95.595
M15
G01X110.939Y-95.595
M16
G05
G00X112.17Y-56.352
M15
G01X111.07Y-56.352
M16
G05
G00X113.139Y-100.493
M15
G01X112.039Y-100.493
M16
G05
G00X113.269Y-61.25
M15
G01X112.169Y-61.25
M16
G05
G00X117.139Y-100.493
M15
G01X116.039Y-100.493
M16
G05
G00X117.27Y-61.25
M15
G01X116.17Y-61.25
M16
G05
G00X120.139Y-100.493
M15
G01X119.039Y-100.493
M16
G05
G00X120.27Y-61.25
M15
G01X119.17Y-61.25
M16
G05
T6
G00X101.303Y-44.988
M15
G01X101.303Y-44.188
M16
G05
G00X101.303Y-51.448
M15
G01X101.303Y-49.648
M16
G05
G00X115.803Y-44.988
M15
G01X115.803Y-44.188
M16
G05
G00X115.803Y-51.448
M15
G01X115.803Y-49.648
M16
G05
T9
G00X68.111Y-50.691
M15
G01X68.111Y-49.691
M16
G05
G00X68.111Y-56.371
M15
G01X68.111Y-55.371
M16
G05
G00X80.684Y-50.691
M15
G01X80.684Y-49.691
M16
G05
G00X80.684Y-56.371
M15
G01X80.684Y-55.371
M16
G05
G00X84.843Y-50.691
M15
G01X84.843Y-49.691
M16
G05
G00X84.843Y-56.371
M15
G01X84.843Y-55.371
M16
G05
G00X97.416Y-50.691
M15
G01X97.416Y-49.691
M16
G05
G00X97.416Y-56.371
M15
G01X97.416Y-55.371
M16
G05
M30
