%TF.GenerationSoftware,KiCad,Pcbnew,9.0.4-9.0.4-0~ubuntu24.04.1*%
%TF.CreationDate,2025-10-04T23:24:12+02:00*%
%TF.ProjectId,karabas-mini,6b617261-6261-4732-9d6d-696e692e6b69,G*%
%TF.SameCoordinates,Original*%
%TF.FileFunction,Legend,Top*%
%TF.FilePolarity,Positive*%
%FSLAX46Y46*%
G04 Gerber Fmt 4.6, Leading zero omitted, Abs format (unit mm)*
G04 Created by KiCad (PCBNEW 9.0.4-9.0.4-0~ubuntu24.04.1) date 2025-10-04 23:24:12*
%MOMM*%
%LPD*%
G01*
G04 APERTURE LIST*
%ADD10C,0.150000*%
%ADD11C,0.120000*%
%ADD12C,0.100000*%
%ADD13C,0.127000*%
%ADD14C,0.200000*%
%ADD15C,0.000000*%
%ADD16C,0.254000*%
G04 APERTURE END LIST*
D10*
X80340200Y-66791072D02*
X80010000Y-66319400D01*
X80391000Y-66319400D01*
X80670400Y-66319400D01*
X80340200Y-66791072D01*
G36*
X80340200Y-66791072D02*
G01*
X80010000Y-66319400D01*
X80391000Y-66319400D01*
X80670400Y-66319400D01*
X80340200Y-66791072D01*
G37*
D11*
X85512000Y-91781000D02*
X85512000Y-91567000D01*
D10*
X93649800Y-66802000D02*
X93370400Y-66802000D01*
X92989400Y-66802000D01*
X93319600Y-66330328D01*
X93649800Y-66802000D01*
G36*
X93649800Y-66802000D02*
G01*
X93370400Y-66802000D01*
X92989400Y-66802000D01*
X93319600Y-66330328D01*
X93649800Y-66802000D01*
G37*
X61748247Y-58941285D02*
X61418047Y-58469613D01*
X61799047Y-58469613D01*
X62078447Y-58469613D01*
X61748247Y-58941285D01*
G36*
X61748247Y-58941285D02*
G01*
X61418047Y-58469613D01*
X61799047Y-58469613D01*
X62078447Y-58469613D01*
X61748247Y-58941285D01*
G37*
X65354200Y-85231472D02*
X65024000Y-84759800D01*
X65405000Y-84759800D01*
X65684400Y-84759800D01*
X65354200Y-85231472D01*
G36*
X65354200Y-85231472D02*
G01*
X65024000Y-84759800D01*
X65405000Y-84759800D01*
X65684400Y-84759800D01*
X65354200Y-85231472D01*
G37*
D11*
X85512000Y-91567000D02*
X86868000Y-91567000D01*
D10*
X54079780Y-88893807D02*
X54555971Y-88560474D01*
X54079780Y-88322379D02*
X55079780Y-88322379D01*
X55079780Y-88322379D02*
X55079780Y-88703331D01*
X55079780Y-88703331D02*
X55032161Y-88798569D01*
X55032161Y-88798569D02*
X54984542Y-88846188D01*
X54984542Y-88846188D02*
X54889304Y-88893807D01*
X54889304Y-88893807D02*
X54746447Y-88893807D01*
X54746447Y-88893807D02*
X54651209Y-88846188D01*
X54651209Y-88846188D02*
X54603590Y-88798569D01*
X54603590Y-88798569D02*
X54555971Y-88703331D01*
X54555971Y-88703331D02*
X54555971Y-88322379D01*
X54127400Y-89703331D02*
X54079780Y-89608093D01*
X54079780Y-89608093D02*
X54079780Y-89417617D01*
X54079780Y-89417617D02*
X54127400Y-89322379D01*
X54127400Y-89322379D02*
X54222638Y-89274760D01*
X54222638Y-89274760D02*
X54603590Y-89274760D01*
X54603590Y-89274760D02*
X54698828Y-89322379D01*
X54698828Y-89322379D02*
X54746447Y-89417617D01*
X54746447Y-89417617D02*
X54746447Y-89608093D01*
X54746447Y-89608093D02*
X54698828Y-89703331D01*
X54698828Y-89703331D02*
X54603590Y-89750950D01*
X54603590Y-89750950D02*
X54508352Y-89750950D01*
X54508352Y-89750950D02*
X54413114Y-89274760D01*
X54746447Y-90084284D02*
X54079780Y-90322379D01*
X54079780Y-90322379D02*
X54746447Y-90560474D01*
X54175019Y-90941427D02*
X54127400Y-90989046D01*
X54127400Y-90989046D02*
X54079780Y-90941427D01*
X54079780Y-90941427D02*
X54127400Y-90893808D01*
X54127400Y-90893808D02*
X54175019Y-90941427D01*
X54175019Y-90941427D02*
X54079780Y-90941427D01*
X55032161Y-91941426D02*
X55079780Y-91846188D01*
X55079780Y-91846188D02*
X55079780Y-91703331D01*
X55079780Y-91703331D02*
X55032161Y-91560474D01*
X55032161Y-91560474D02*
X54936923Y-91465236D01*
X54936923Y-91465236D02*
X54841685Y-91417617D01*
X54841685Y-91417617D02*
X54651209Y-91369998D01*
X54651209Y-91369998D02*
X54508352Y-91369998D01*
X54508352Y-91369998D02*
X54317876Y-91417617D01*
X54317876Y-91417617D02*
X54222638Y-91465236D01*
X54222638Y-91465236D02*
X54127400Y-91560474D01*
X54127400Y-91560474D02*
X54079780Y-91703331D01*
X54079780Y-91703331D02*
X54079780Y-91798569D01*
X54079780Y-91798569D02*
X54127400Y-91941426D01*
X54127400Y-91941426D02*
X54175019Y-91989045D01*
X54175019Y-91989045D02*
X54508352Y-91989045D01*
X54508352Y-91989045D02*
X54508352Y-91798569D01*
G36*
X109393326Y-99414109D02*
G01*
X109421847Y-99471151D01*
X109421847Y-99626217D01*
X109393326Y-99683258D01*
X109336285Y-99711779D01*
X109320237Y-99711779D01*
X109255000Y-99385589D01*
X109336285Y-99385589D01*
X109393326Y-99414109D01*
G37*
G36*
X109421847Y-98566389D02*
G01*
X109421847Y-98721455D01*
X109387589Y-98789971D01*
X109357182Y-98820378D01*
X109288666Y-98854636D01*
X109038362Y-98854636D01*
X108969846Y-98820378D01*
X108939438Y-98789970D01*
X108905180Y-98721453D01*
X108905180Y-98566390D01*
X108924152Y-98528446D01*
X109402875Y-98528446D01*
X109421847Y-98566389D01*
G37*
G36*
X109107612Y-97604585D02*
G01*
X109136133Y-97661627D01*
X109136133Y-97882017D01*
X109137574Y-97896649D01*
X109138605Y-97899138D01*
X109138796Y-97901826D01*
X109138960Y-97902255D01*
X108924152Y-97902255D01*
X108905180Y-97864310D01*
X108905180Y-97661628D01*
X108933701Y-97604585D01*
X108990743Y-97576065D01*
X109050571Y-97576065D01*
X109107612Y-97604585D01*
G37*
G36*
X110016291Y-99972890D02*
G01*
X108312177Y-99972890D01*
X108312177Y-99453446D01*
X108755180Y-99453446D01*
X108755180Y-99643922D01*
X108756621Y-99658554D01*
X108757651Y-99661042D01*
X108757843Y-99663732D01*
X108763098Y-99677464D01*
X108810718Y-99772702D01*
X108818551Y-99785145D01*
X108840659Y-99804318D01*
X108868420Y-99813571D01*
X108897610Y-99811497D01*
X108923784Y-99798409D01*
X108942958Y-99776302D01*
X108952211Y-99748540D01*
X108950137Y-99719350D01*
X108944882Y-99705619D01*
X108905180Y-99626215D01*
X108905180Y-99471152D01*
X108933701Y-99414109D01*
X108990743Y-99385589D01*
X109102028Y-99385589D01*
X109185208Y-99801487D01*
X109189491Y-99815553D01*
X109193579Y-99821658D01*
X109196392Y-99828447D01*
X109201644Y-99833699D01*
X109205775Y-99839867D01*
X109211886Y-99843941D01*
X109217084Y-99849139D01*
X109223947Y-99851982D01*
X109230123Y-99856099D01*
X109237328Y-99857524D01*
X109244120Y-99860338D01*
X109258752Y-99861779D01*
X109258830Y-99861779D01*
X109353990Y-99861779D01*
X109368622Y-99860338D01*
X109371111Y-99859306D01*
X109373799Y-99859116D01*
X109387531Y-99853861D01*
X109482769Y-99806242D01*
X109485216Y-99804701D01*
X109486370Y-99804317D01*
X109487806Y-99803071D01*
X109495212Y-99798410D01*
X109501373Y-99791305D01*
X109508478Y-99785144D01*
X109513139Y-99777738D01*
X109514385Y-99776302D01*
X109514769Y-99775148D01*
X109516310Y-99772701D01*
X109563929Y-99677463D01*
X109569184Y-99663732D01*
X109569375Y-99661042D01*
X109570406Y-99658554D01*
X109571847Y-99643922D01*
X109571847Y-99453446D01*
X109570406Y-99438814D01*
X109569375Y-99436325D01*
X109569184Y-99433636D01*
X109563929Y-99419905D01*
X109516310Y-99324667D01*
X109514769Y-99322219D01*
X109514385Y-99321066D01*
X109513139Y-99319629D01*
X109508478Y-99312224D01*
X109501373Y-99306062D01*
X109495212Y-99298958D01*
X109487806Y-99294296D01*
X109486370Y-99293051D01*
X109485216Y-99292666D01*
X109482769Y-99291126D01*
X109387531Y-99243507D01*
X109373799Y-99238252D01*
X109371111Y-99238061D01*
X109368622Y-99237030D01*
X109353990Y-99235589D01*
X108973038Y-99235589D01*
X108958406Y-99237030D01*
X108955917Y-99238060D01*
X108953228Y-99238252D01*
X108939497Y-99243507D01*
X108844259Y-99291126D01*
X108841813Y-99292665D01*
X108840659Y-99293050D01*
X108839221Y-99294297D01*
X108831816Y-99298958D01*
X108825655Y-99306062D01*
X108818551Y-99312223D01*
X108813887Y-99319630D01*
X108812643Y-99321066D01*
X108812258Y-99322218D01*
X108810718Y-99324666D01*
X108763098Y-99419904D01*
X108757843Y-99433636D01*
X108757651Y-99436325D01*
X108756621Y-99438814D01*
X108755180Y-99453446D01*
X108312177Y-99453446D01*
X108312177Y-98438814D01*
X108423288Y-98438814D01*
X108423288Y-98468078D01*
X108434487Y-98495114D01*
X108455179Y-98515806D01*
X108482215Y-98527005D01*
X108496847Y-98528446D01*
X108758007Y-98528446D01*
X108757843Y-98528874D01*
X108757651Y-98531563D01*
X108756621Y-98534052D01*
X108755180Y-98548684D01*
X108755180Y-98739160D01*
X108756621Y-98753792D01*
X108757651Y-98756280D01*
X108757843Y-98758970D01*
X108763098Y-98772702D01*
X108810718Y-98867940D01*
X108814683Y-98874238D01*
X108815440Y-98876066D01*
X108817128Y-98878123D01*
X108818551Y-98880383D01*
X108820049Y-98881682D01*
X108824767Y-98887431D01*
X108872386Y-98935050D01*
X108878135Y-98939768D01*
X108879435Y-98941267D01*
X108881694Y-98942688D01*
X108883751Y-98944377D01*
X108885578Y-98945134D01*
X108891878Y-98949099D01*
X108987116Y-98996718D01*
X109000847Y-99001973D01*
X109003536Y-99002164D01*
X109006025Y-99003195D01*
X109020657Y-99004636D01*
X109306371Y-99004636D01*
X109321003Y-99003195D01*
X109323492Y-99002163D01*
X109326180Y-99001973D01*
X109339912Y-98996718D01*
X109435150Y-98949099D01*
X109441449Y-98945134D01*
X109443277Y-98944377D01*
X109445333Y-98942688D01*
X109447593Y-98941267D01*
X109448892Y-98939768D01*
X109454642Y-98935050D01*
X109502261Y-98887431D01*
X109506979Y-98881681D01*
X109508478Y-98880382D01*
X109509899Y-98878122D01*
X109511588Y-98876066D01*
X109512345Y-98874238D01*
X109516310Y-98867939D01*
X109563929Y-98772701D01*
X109569184Y-98758970D01*
X109569375Y-98756280D01*
X109570406Y-98753792D01*
X109571847Y-98739160D01*
X109571847Y-98548684D01*
X109570406Y-98534052D01*
X109569375Y-98531563D01*
X109569184Y-98528874D01*
X109563929Y-98515143D01*
X109555678Y-98498642D01*
X109559207Y-98495114D01*
X109570406Y-98468078D01*
X109570406Y-98438814D01*
X109559207Y-98411778D01*
X109538515Y-98391086D01*
X109511479Y-98379887D01*
X109496847Y-98378446D01*
X108496847Y-98378446D01*
X108482215Y-98379887D01*
X108455179Y-98391086D01*
X108434487Y-98411778D01*
X108423288Y-98438814D01*
X108312177Y-98438814D01*
X108312177Y-97643922D01*
X108755180Y-97643922D01*
X108755180Y-97882017D01*
X108756621Y-97896649D01*
X108757651Y-97899137D01*
X108757843Y-97901827D01*
X108763098Y-97915559D01*
X108771348Y-97932058D01*
X108767820Y-97935587D01*
X108756621Y-97962623D01*
X108756621Y-97991887D01*
X108767820Y-98018923D01*
X108788512Y-98039615D01*
X108815548Y-98050814D01*
X108830180Y-98052255D01*
X109353990Y-98052255D01*
X109368622Y-98050814D01*
X109371111Y-98049782D01*
X109373799Y-98049592D01*
X109387531Y-98044337D01*
X109482769Y-97996718D01*
X109485216Y-97995177D01*
X109486370Y-97994793D01*
X109487806Y-97993547D01*
X109495212Y-97988886D01*
X109501373Y-97981781D01*
X109508478Y-97975620D01*
X109513139Y-97968214D01*
X109514385Y-97966778D01*
X109514769Y-97965624D01*
X109516310Y-97963177D01*
X109563929Y-97867939D01*
X109569184Y-97854208D01*
X109569375Y-97851518D01*
X109570406Y-97849030D01*
X109571847Y-97834398D01*
X109571847Y-97643922D01*
X109570406Y-97629290D01*
X109569375Y-97626801D01*
X109569184Y-97624112D01*
X109563929Y-97610381D01*
X109516310Y-97515143D01*
X109508478Y-97502700D01*
X109486370Y-97483527D01*
X109458609Y-97474273D01*
X109429419Y-97476347D01*
X109403244Y-97489434D01*
X109384071Y-97511542D01*
X109374817Y-97539303D01*
X109376891Y-97568493D01*
X109382146Y-97582225D01*
X109421847Y-97661627D01*
X109421847Y-97816693D01*
X109393326Y-97873734D01*
X109336285Y-97902255D01*
X109305104Y-97902255D01*
X109286133Y-97864312D01*
X109286133Y-97643922D01*
X109284692Y-97629290D01*
X109283661Y-97626801D01*
X109283470Y-97624112D01*
X109278215Y-97610381D01*
X109230596Y-97515143D01*
X109229055Y-97512695D01*
X109228671Y-97511542D01*
X109227425Y-97510105D01*
X109222764Y-97502700D01*
X109215659Y-97496538D01*
X109209498Y-97489434D01*
X109202092Y-97484772D01*
X109200656Y-97483527D01*
X109199502Y-97483142D01*
X109197055Y-97481602D01*
X109101817Y-97433983D01*
X109088085Y-97428728D01*
X109085397Y-97428537D01*
X109082908Y-97427506D01*
X109068276Y-97426065D01*
X108973038Y-97426065D01*
X108958406Y-97427506D01*
X108955917Y-97428536D01*
X108953228Y-97428728D01*
X108939497Y-97433983D01*
X108844259Y-97481602D01*
X108841813Y-97483141D01*
X108840659Y-97483526D01*
X108839221Y-97484773D01*
X108831816Y-97489434D01*
X108825655Y-97496538D01*
X108818551Y-97502699D01*
X108813887Y-97510106D01*
X108812643Y-97511542D01*
X108812258Y-97512694D01*
X108810718Y-97515142D01*
X108763098Y-97610380D01*
X108757843Y-97624112D01*
X108757651Y-97626801D01*
X108756621Y-97629290D01*
X108755180Y-97643922D01*
X108312177Y-97643922D01*
X108312177Y-96915004D01*
X108756621Y-96915004D01*
X108756621Y-96944268D01*
X108767820Y-96971304D01*
X108788512Y-96991996D01*
X108815548Y-97003195D01*
X108830180Y-97004636D01*
X109755180Y-97004636D01*
X109755180Y-97215350D01*
X109756621Y-97229982D01*
X109767820Y-97257018D01*
X109788512Y-97277710D01*
X109815548Y-97288909D01*
X109844812Y-97288909D01*
X109871848Y-97277710D01*
X109892540Y-97257018D01*
X109903739Y-97229982D01*
X109905180Y-97215350D01*
X109905180Y-96643922D01*
X109903739Y-96629290D01*
X109892540Y-96602254D01*
X109871848Y-96581562D01*
X109844812Y-96570363D01*
X109815548Y-96570363D01*
X109788512Y-96581562D01*
X109767820Y-96602254D01*
X109756621Y-96629290D01*
X109755180Y-96643922D01*
X109755180Y-96854636D01*
X108830180Y-96854636D01*
X108815548Y-96856077D01*
X108788512Y-96867276D01*
X108767820Y-96887968D01*
X108756621Y-96915004D01*
X108312177Y-96915004D01*
X108312177Y-96459252D01*
X110016291Y-96459252D01*
X110016291Y-99972890D01*
G37*
G36*
X89184699Y-95483730D02*
G01*
X88194871Y-95483730D01*
X88194871Y-95282987D01*
X88305982Y-95282987D01*
X88305982Y-95312251D01*
X88317181Y-95339287D01*
X88337873Y-95359979D01*
X88364909Y-95371178D01*
X88379541Y-95372619D01*
X88998588Y-95372619D01*
X89013220Y-95371178D01*
X89040256Y-95359979D01*
X89060948Y-95339287D01*
X89072147Y-95312251D01*
X89072147Y-95282987D01*
X89060948Y-95255951D01*
X89040256Y-95235259D01*
X89013220Y-95224060D01*
X88998588Y-95222619D01*
X88560607Y-95222619D01*
X89004002Y-94779223D01*
X89013330Y-94767858D01*
X89014361Y-94765367D01*
X89016126Y-94763333D01*
X89022120Y-94749907D01*
X89069739Y-94607051D01*
X89071388Y-94599795D01*
X89072147Y-94597965D01*
X89072408Y-94595311D01*
X89072999Y-94592714D01*
X89072858Y-94590739D01*
X89073588Y-94583333D01*
X89073588Y-94488095D01*
X89072147Y-94473463D01*
X89071116Y-94470974D01*
X89070925Y-94468285D01*
X89065670Y-94454554D01*
X89018051Y-94359316D01*
X89014086Y-94353016D01*
X89013329Y-94351189D01*
X89011640Y-94349132D01*
X89010219Y-94346873D01*
X89008720Y-94345573D01*
X89004002Y-94339824D01*
X88956383Y-94292205D01*
X88950633Y-94287486D01*
X88949334Y-94285988D01*
X88947074Y-94284566D01*
X88945018Y-94282878D01*
X88943190Y-94282120D01*
X88936891Y-94278156D01*
X88841653Y-94230537D01*
X88827921Y-94225282D01*
X88825233Y-94225091D01*
X88822744Y-94224060D01*
X88808112Y-94222619D01*
X88570017Y-94222619D01*
X88555385Y-94224060D01*
X88552896Y-94225090D01*
X88550207Y-94225282D01*
X88536476Y-94230537D01*
X88441238Y-94278156D01*
X88434938Y-94282120D01*
X88433111Y-94282878D01*
X88431054Y-94284566D01*
X88428795Y-94285988D01*
X88427495Y-94287486D01*
X88421746Y-94292205D01*
X88374127Y-94339824D01*
X88364800Y-94351189D01*
X88353601Y-94378226D01*
X88353601Y-94407488D01*
X88364800Y-94434525D01*
X88385492Y-94455217D01*
X88412529Y-94466416D01*
X88441791Y-94466416D01*
X88468828Y-94455217D01*
X88480193Y-94445890D01*
X88519206Y-94406877D01*
X88587722Y-94372619D01*
X88790407Y-94372619D01*
X88858923Y-94406877D01*
X88889330Y-94437284D01*
X88923588Y-94505800D01*
X88923588Y-94571163D01*
X88885416Y-94685676D01*
X88326508Y-95244586D01*
X88317181Y-95255951D01*
X88305982Y-95282987D01*
X88194871Y-95282987D01*
X88194871Y-94111508D01*
X89184699Y-94111508D01*
X89184699Y-95483730D01*
G37*
G36*
X109457182Y-60291275D02*
G01*
X109487589Y-60321682D01*
X109521847Y-60390198D01*
X109521847Y-60497645D01*
X109487589Y-60566161D01*
X109457182Y-60596568D01*
X109388666Y-60630826D01*
X109138362Y-60630826D01*
X109069846Y-60596568D01*
X109039438Y-60566160D01*
X109005180Y-60497643D01*
X109005180Y-60390199D01*
X109039438Y-60321682D01*
X109069846Y-60291275D01*
X109138362Y-60257017D01*
X109388666Y-60257017D01*
X109457182Y-60291275D01*
G37*
G36*
X109457182Y-58910323D02*
G01*
X109487589Y-58940730D01*
X109521847Y-59009246D01*
X109521847Y-59164312D01*
X109502876Y-59202255D01*
X109024152Y-59202255D01*
X109005180Y-59164310D01*
X109005180Y-59009247D01*
X109039438Y-58940730D01*
X109069846Y-58910323D01*
X109138362Y-58876065D01*
X109388666Y-58876065D01*
X109457182Y-58910323D01*
G37*
G36*
X109693009Y-57277255D02*
G01*
X109290895Y-57411293D01*
X109290895Y-57143216D01*
X109693009Y-57277255D01*
G37*
G36*
X110115702Y-60891937D02*
G01*
X108744069Y-60891937D01*
X108744069Y-60372493D01*
X108855180Y-60372493D01*
X108855180Y-60515350D01*
X108856621Y-60529982D01*
X108857651Y-60532470D01*
X108857843Y-60535160D01*
X108863098Y-60548892D01*
X108910718Y-60644130D01*
X108914683Y-60650428D01*
X108915440Y-60652256D01*
X108917128Y-60654313D01*
X108918551Y-60656573D01*
X108920049Y-60657872D01*
X108924767Y-60663621D01*
X108972386Y-60711240D01*
X108978135Y-60715958D01*
X108979435Y-60717457D01*
X108981694Y-60718878D01*
X108983751Y-60720567D01*
X108985578Y-60721324D01*
X108991878Y-60725289D01*
X109087116Y-60772908D01*
X109100847Y-60778163D01*
X109103536Y-60778354D01*
X109106025Y-60779385D01*
X109120657Y-60780826D01*
X109406371Y-60780826D01*
X109421003Y-60779385D01*
X109423492Y-60778353D01*
X109426180Y-60778163D01*
X109439912Y-60772908D01*
X109535150Y-60725289D01*
X109541449Y-60721324D01*
X109543277Y-60720567D01*
X109545333Y-60718878D01*
X109547593Y-60717457D01*
X109548892Y-60715958D01*
X109554642Y-60711240D01*
X109602261Y-60663621D01*
X109606979Y-60657871D01*
X109608478Y-60656572D01*
X109609899Y-60654312D01*
X109611588Y-60652256D01*
X109612345Y-60650428D01*
X109616310Y-60644129D01*
X109663929Y-60548891D01*
X109669184Y-60535160D01*
X109669375Y-60532470D01*
X109670406Y-60529982D01*
X109671847Y-60515350D01*
X109671847Y-60372493D01*
X109670406Y-60357861D01*
X109669375Y-60355372D01*
X109669184Y-60352683D01*
X109663929Y-60338952D01*
X109616310Y-60243714D01*
X109612345Y-60237414D01*
X109611588Y-60235587D01*
X109609899Y-60233530D01*
X109608478Y-60231271D01*
X109606979Y-60229971D01*
X109602261Y-60224222D01*
X109554642Y-60176603D01*
X109548892Y-60171884D01*
X109547593Y-60170386D01*
X109545333Y-60168964D01*
X109543277Y-60167276D01*
X109541449Y-60166518D01*
X109535150Y-60162554D01*
X109439912Y-60114935D01*
X109426180Y-60109680D01*
X109423492Y-60109489D01*
X109421003Y-60108458D01*
X109406371Y-60107017D01*
X109120657Y-60107017D01*
X109106025Y-60108458D01*
X109103536Y-60109488D01*
X109100847Y-60109680D01*
X109087116Y-60114935D01*
X108991878Y-60162554D01*
X108985578Y-60166518D01*
X108983751Y-60167276D01*
X108981694Y-60168964D01*
X108979435Y-60170386D01*
X108978135Y-60171884D01*
X108972386Y-60176603D01*
X108924767Y-60224222D01*
X108920049Y-60229970D01*
X108918551Y-60231270D01*
X108917128Y-60233529D01*
X108915440Y-60235587D01*
X108914683Y-60237414D01*
X108910718Y-60243713D01*
X108863098Y-60338951D01*
X108857843Y-60352683D01*
X108857651Y-60355372D01*
X108856621Y-60357861D01*
X108855180Y-60372493D01*
X108744069Y-60372493D01*
X108744069Y-59738814D01*
X108856621Y-59738814D01*
X108856621Y-59768078D01*
X108867820Y-59795114D01*
X108888512Y-59815806D01*
X108915548Y-59827005D01*
X108930180Y-59828446D01*
X109596847Y-59828446D01*
X109611479Y-59827005D01*
X109638515Y-59815806D01*
X109659207Y-59795114D01*
X109670406Y-59768078D01*
X109670406Y-59738815D01*
X109761383Y-59738815D01*
X109761383Y-59768077D01*
X109772582Y-59795114D01*
X109781909Y-59806479D01*
X109829528Y-59854098D01*
X109840893Y-59863425D01*
X109867929Y-59874624D01*
X109867930Y-59874624D01*
X109897192Y-59874624D01*
X109924229Y-59863425D01*
X109935594Y-59854098D01*
X109983213Y-59806479D01*
X109992540Y-59795114D01*
X110003739Y-59768078D01*
X110003739Y-59738815D01*
X109996136Y-59720459D01*
X109992540Y-59711778D01*
X109983213Y-59700413D01*
X109935594Y-59652794D01*
X109924229Y-59643467D01*
X109897192Y-59632268D01*
X109867929Y-59632268D01*
X109840893Y-59643467D01*
X109829528Y-59652794D01*
X109781909Y-59700413D01*
X109772582Y-59711778D01*
X109761383Y-59738815D01*
X109670406Y-59738815D01*
X109670406Y-59738814D01*
X109659207Y-59711778D01*
X109638515Y-59691086D01*
X109611479Y-59679887D01*
X109596847Y-59678446D01*
X108930180Y-59678446D01*
X108915548Y-59679887D01*
X108888512Y-59691086D01*
X108867820Y-59711778D01*
X108856621Y-59738814D01*
X108744069Y-59738814D01*
X108744069Y-58991541D01*
X108855180Y-58991541D01*
X108855180Y-59182017D01*
X108856621Y-59196649D01*
X108857651Y-59199137D01*
X108857843Y-59201827D01*
X108863098Y-59215559D01*
X108871348Y-59232058D01*
X108867820Y-59235587D01*
X108856621Y-59262623D01*
X108856621Y-59291887D01*
X108867820Y-59318923D01*
X108888512Y-59339615D01*
X108915548Y-59350814D01*
X108930180Y-59352255D01*
X109930180Y-59352255D01*
X109944812Y-59350814D01*
X109971848Y-59339615D01*
X109992540Y-59318923D01*
X110003739Y-59291887D01*
X110003739Y-59262623D01*
X109992540Y-59235587D01*
X109971848Y-59214895D01*
X109944812Y-59203696D01*
X109930180Y-59202255D01*
X109669020Y-59202255D01*
X109669184Y-59201827D01*
X109669375Y-59199137D01*
X109670406Y-59196649D01*
X109671847Y-59182017D01*
X109671847Y-58991541D01*
X109670406Y-58976909D01*
X109669375Y-58974420D01*
X109669184Y-58971731D01*
X109663929Y-58958000D01*
X109616310Y-58862762D01*
X109612345Y-58856462D01*
X109611588Y-58854635D01*
X109609899Y-58852578D01*
X109608478Y-58850319D01*
X109606979Y-58849019D01*
X109602261Y-58843270D01*
X109554642Y-58795651D01*
X109548892Y-58790932D01*
X109547593Y-58789434D01*
X109545333Y-58788012D01*
X109543277Y-58786324D01*
X109541449Y-58785566D01*
X109535150Y-58781602D01*
X109439912Y-58733983D01*
X109426180Y-58728728D01*
X109423492Y-58728537D01*
X109421003Y-58727506D01*
X109406371Y-58726065D01*
X109120657Y-58726065D01*
X109106025Y-58727506D01*
X109103536Y-58728536D01*
X109100847Y-58728728D01*
X109087116Y-58733983D01*
X108991878Y-58781602D01*
X108985578Y-58785566D01*
X108983751Y-58786324D01*
X108981694Y-58788012D01*
X108979435Y-58789434D01*
X108978135Y-58790932D01*
X108972386Y-58795651D01*
X108924767Y-58843270D01*
X108920049Y-58849018D01*
X108918551Y-58850318D01*
X108917128Y-58852577D01*
X108915440Y-58854635D01*
X108914683Y-58856462D01*
X108910718Y-58862761D01*
X108863098Y-58957999D01*
X108857843Y-58971731D01*
X108857651Y-58974420D01*
X108856621Y-58976909D01*
X108855180Y-58991541D01*
X108744069Y-58991541D01*
X108744069Y-58086779D01*
X108855180Y-58086779D01*
X108855180Y-58229636D01*
X108856621Y-58244268D01*
X108857651Y-58246756D01*
X108857843Y-58249446D01*
X108863098Y-58263178D01*
X108887221Y-58311423D01*
X108867820Y-58330825D01*
X108856621Y-58357861D01*
X108856621Y-58387125D01*
X108867820Y-58414161D01*
X108888512Y-58434853D01*
X108915548Y-58446052D01*
X108930180Y-58447493D01*
X109596847Y-58447493D01*
X109611479Y-58446052D01*
X109638515Y-58434853D01*
X109659207Y-58414161D01*
X109670406Y-58387125D01*
X109670406Y-58357861D01*
X109659207Y-58330825D01*
X109638515Y-58310133D01*
X109611479Y-58298934D01*
X109596847Y-58297493D01*
X109056485Y-58297493D01*
X109039438Y-58280446D01*
X109005180Y-58211929D01*
X109005180Y-58104485D01*
X109033701Y-58047442D01*
X109090743Y-58018922D01*
X109596847Y-58018922D01*
X109611479Y-58017481D01*
X109638515Y-58006282D01*
X109659207Y-57985590D01*
X109670406Y-57958554D01*
X109670406Y-57929290D01*
X109659207Y-57902254D01*
X109638515Y-57881562D01*
X109611479Y-57870363D01*
X109596847Y-57868922D01*
X109073038Y-57868922D01*
X109058406Y-57870363D01*
X109055917Y-57871393D01*
X109053228Y-57871585D01*
X109039497Y-57876840D01*
X108944259Y-57924459D01*
X108941813Y-57925998D01*
X108940659Y-57926383D01*
X108939221Y-57927630D01*
X108931816Y-57932291D01*
X108925655Y-57939395D01*
X108918551Y-57945556D01*
X108913887Y-57952963D01*
X108912643Y-57954399D01*
X108912258Y-57955551D01*
X108910718Y-57957999D01*
X108863098Y-58053237D01*
X108857843Y-58066969D01*
X108857651Y-58069658D01*
X108856621Y-58072147D01*
X108855180Y-58086779D01*
X108744069Y-58086779D01*
X108744069Y-56934542D01*
X108855769Y-56934542D01*
X108857844Y-56963732D01*
X108870930Y-56989905D01*
X108893037Y-57009079D01*
X108906463Y-57015073D01*
X109140895Y-57093216D01*
X109140895Y-57461293D01*
X108906463Y-57539437D01*
X108893037Y-57545431D01*
X108870930Y-57564605D01*
X108857844Y-57590778D01*
X108855769Y-57619968D01*
X108865023Y-57647731D01*
X108884197Y-57669838D01*
X108910370Y-57682924D01*
X108939560Y-57684999D01*
X108953897Y-57681739D01*
X109953897Y-57348406D01*
X109967322Y-57342412D01*
X109971369Y-57338901D01*
X109976163Y-57336505D01*
X109982327Y-57329397D01*
X109989429Y-57323238D01*
X109991824Y-57318446D01*
X109995337Y-57314397D01*
X109998311Y-57305474D01*
X110002516Y-57297065D01*
X110002895Y-57291720D01*
X110004591Y-57286635D01*
X110003924Y-57277255D01*
X110004591Y-57267875D01*
X110002895Y-57262789D01*
X110002516Y-57257445D01*
X109998311Y-57249035D01*
X109995337Y-57240113D01*
X109991824Y-57236063D01*
X109989429Y-57231272D01*
X109982327Y-57225112D01*
X109976163Y-57218005D01*
X109971369Y-57215608D01*
X109967322Y-57212098D01*
X109953897Y-57206104D01*
X108953897Y-56872771D01*
X108939560Y-56869511D01*
X108910370Y-56871586D01*
X108884197Y-56884672D01*
X108865023Y-56906779D01*
X108855769Y-56934542D01*
X108744069Y-56934542D01*
X108744069Y-56758400D01*
X110115702Y-56758400D01*
X110115702Y-60891937D01*
G37*
G36*
X71555658Y-95407530D02*
G01*
X70614038Y-95407530D01*
X70614038Y-94497752D01*
X70725149Y-94497752D01*
X70727223Y-94526942D01*
X70740310Y-94553117D01*
X70762418Y-94572290D01*
X70790179Y-94581544D01*
X70819369Y-94579470D01*
X70833101Y-94574215D01*
X70928339Y-94526596D01*
X70934638Y-94522631D01*
X70936466Y-94521874D01*
X70938522Y-94520185D01*
X70940782Y-94518764D01*
X70942081Y-94517265D01*
X70947831Y-94512547D01*
X71010274Y-94450104D01*
X71010274Y-95146419D01*
X70799560Y-95146419D01*
X70784928Y-95147860D01*
X70757892Y-95159059D01*
X70737200Y-95179751D01*
X70726001Y-95206787D01*
X70726001Y-95236051D01*
X70737200Y-95263087D01*
X70757892Y-95283779D01*
X70784928Y-95294978D01*
X70799560Y-95296419D01*
X71370988Y-95296419D01*
X71385620Y-95294978D01*
X71412656Y-95283779D01*
X71433348Y-95263087D01*
X71444547Y-95236051D01*
X71444547Y-95206787D01*
X71433348Y-95179751D01*
X71412656Y-95159059D01*
X71385620Y-95147860D01*
X71370988Y-95146419D01*
X71160274Y-95146419D01*
X71160274Y-94221419D01*
X71160268Y-94221366D01*
X71160274Y-94221340D01*
X71160258Y-94221263D01*
X71158833Y-94206787D01*
X71155991Y-94199926D01*
X71154535Y-94192645D01*
X71150445Y-94186538D01*
X71147634Y-94179751D01*
X71142385Y-94174502D01*
X71138252Y-94168330D01*
X71132135Y-94164252D01*
X71126942Y-94159059D01*
X71120082Y-94156217D01*
X71113903Y-94152098D01*
X71106694Y-94150672D01*
X71099906Y-94147860D01*
X71092479Y-94147860D01*
X71085195Y-94146419D01*
X71077990Y-94147860D01*
X71070642Y-94147860D01*
X71063781Y-94150701D01*
X71056501Y-94152158D01*
X71050395Y-94156246D01*
X71043606Y-94159059D01*
X71038355Y-94164309D01*
X71032186Y-94168441D01*
X71022965Y-94179699D01*
X71022914Y-94179751D01*
X71022904Y-94179773D01*
X71022870Y-94179816D01*
X70931750Y-94316496D01*
X70850371Y-94397875D01*
X70766019Y-94440051D01*
X70753576Y-94447883D01*
X70734403Y-94469991D01*
X70725149Y-94497752D01*
X70614038Y-94497752D01*
X70614038Y-94035308D01*
X71555658Y-94035308D01*
X71555658Y-95407530D01*
G37*
G36*
X102128190Y-100063904D02*
G01*
X102090019Y-100178417D01*
X102063525Y-100204911D01*
X101995009Y-100239169D01*
X101887562Y-100239169D01*
X101819046Y-100204911D01*
X101788638Y-100174503D01*
X101754380Y-100105986D01*
X101754380Y-99817741D01*
X102128190Y-99817741D01*
X102128190Y-100063904D01*
G37*
G36*
X102604380Y-100058369D02*
G01*
X102570122Y-100126885D01*
X102539715Y-100157292D01*
X102471199Y-100191550D01*
X102411371Y-100191550D01*
X102342855Y-100157292D01*
X102312448Y-100126885D01*
X102278190Y-100058369D01*
X102278190Y-99817741D01*
X102604380Y-99817741D01*
X102604380Y-100058369D01*
G37*
G36*
X102865491Y-102500280D02*
G01*
X101493269Y-102500280D01*
X101493269Y-101885598D01*
X101604380Y-101885598D01*
X101604380Y-102123693D01*
X101605821Y-102138325D01*
X101606851Y-102140813D01*
X101607043Y-102143503D01*
X101612298Y-102157235D01*
X101659918Y-102252473D01*
X101663883Y-102258771D01*
X101664640Y-102260599D01*
X101666328Y-102262656D01*
X101667751Y-102264916D01*
X101669249Y-102266215D01*
X101673967Y-102271964D01*
X101721586Y-102319583D01*
X101727335Y-102324301D01*
X101728635Y-102325800D01*
X101730894Y-102327221D01*
X101732951Y-102328910D01*
X101734778Y-102329667D01*
X101741078Y-102333632D01*
X101836316Y-102381251D01*
X101850047Y-102386506D01*
X101852736Y-102386697D01*
X101855225Y-102387728D01*
X101869857Y-102389169D01*
X101965095Y-102389169D01*
X101979727Y-102387728D01*
X101982216Y-102386696D01*
X101984904Y-102386506D01*
X101998636Y-102381251D01*
X102093874Y-102333632D01*
X102100173Y-102329667D01*
X102102001Y-102328910D01*
X102104057Y-102327221D01*
X102106317Y-102325800D01*
X102107616Y-102324301D01*
X102113366Y-102319583D01*
X102160985Y-102271964D01*
X102165703Y-102266214D01*
X102167202Y-102264915D01*
X102168623Y-102262655D01*
X102170312Y-102260599D01*
X102171069Y-102258771D01*
X102175034Y-102252472D01*
X102222653Y-102157234D01*
X102223062Y-102156164D01*
X102223385Y-102155729D01*
X102225577Y-102149592D01*
X102227908Y-102143503D01*
X102227946Y-102142962D01*
X102228332Y-102141883D01*
X102273954Y-101959393D01*
X102312448Y-101882406D01*
X102342855Y-101851999D01*
X102411371Y-101817741D01*
X102471199Y-101817741D01*
X102539715Y-101851999D01*
X102570122Y-101882406D01*
X102604380Y-101950922D01*
X102604380Y-102159142D01*
X102560610Y-102290452D01*
X102557350Y-102304789D01*
X102559425Y-102333979D01*
X102572511Y-102360152D01*
X102594618Y-102379326D01*
X102622381Y-102388580D01*
X102651571Y-102386505D01*
X102677744Y-102373419D01*
X102696918Y-102351312D01*
X102702912Y-102337886D01*
X102750531Y-102195030D01*
X102752180Y-102187774D01*
X102752939Y-102185944D01*
X102753200Y-102183290D01*
X102753791Y-102180693D01*
X102753650Y-102178718D01*
X102754380Y-102171312D01*
X102754380Y-101933217D01*
X102752939Y-101918585D01*
X102751908Y-101916096D01*
X102751717Y-101913407D01*
X102746462Y-101899676D01*
X102698843Y-101804438D01*
X102694878Y-101798138D01*
X102694121Y-101796311D01*
X102692432Y-101794254D01*
X102691011Y-101791995D01*
X102689512Y-101790695D01*
X102684794Y-101784946D01*
X102637175Y-101737327D01*
X102631425Y-101732608D01*
X102630126Y-101731110D01*
X102627866Y-101729688D01*
X102625810Y-101728000D01*
X102623982Y-101727242D01*
X102617683Y-101723278D01*
X102522445Y-101675659D01*
X102508713Y-101670404D01*
X102506025Y-101670213D01*
X102503536Y-101669182D01*
X102488904Y-101667741D01*
X102393666Y-101667741D01*
X102379034Y-101669182D01*
X102376545Y-101670212D01*
X102373856Y-101670404D01*
X102360125Y-101675659D01*
X102264887Y-101723278D01*
X102258587Y-101727242D01*
X102256760Y-101728000D01*
X102254703Y-101729688D01*
X102252444Y-101731110D01*
X102251144Y-101732608D01*
X102245395Y-101737327D01*
X102197776Y-101784946D01*
X102193057Y-101790695D01*
X102191559Y-101791995D01*
X102190137Y-101794254D01*
X102188449Y-101796311D01*
X102187691Y-101798138D01*
X102183727Y-101804438D01*
X102136108Y-101899676D01*
X102135698Y-101900745D01*
X102135376Y-101901181D01*
X102133180Y-101907326D01*
X102130853Y-101913408D01*
X102130814Y-101913947D01*
X102130429Y-101915027D01*
X102084806Y-102097517D01*
X102046313Y-102174504D01*
X102015906Y-102204911D01*
X101947390Y-102239169D01*
X101887562Y-102239169D01*
X101819046Y-102204911D01*
X101788638Y-102174503D01*
X101754380Y-102105986D01*
X101754380Y-101897769D01*
X101798151Y-101766458D01*
X101801411Y-101752122D01*
X101799337Y-101722932D01*
X101786250Y-101696758D01*
X101764143Y-101677584D01*
X101736381Y-101668330D01*
X101707191Y-101670404D01*
X101681017Y-101683491D01*
X101661843Y-101705598D01*
X101655849Y-101719023D01*
X101608229Y-101861880D01*
X101606579Y-101869135D01*
X101605821Y-101870966D01*
X101605559Y-101873619D01*
X101604969Y-101876217D01*
X101605109Y-101878192D01*
X101604380Y-101885598D01*
X101493269Y-101885598D01*
X101493269Y-100933217D01*
X101604380Y-100933217D01*
X101604380Y-101123693D01*
X101605821Y-101138325D01*
X101606851Y-101140813D01*
X101607043Y-101143503D01*
X101612298Y-101157235D01*
X101659918Y-101252473D01*
X101663883Y-101258771D01*
X101664640Y-101260599D01*
X101666328Y-101262656D01*
X101667751Y-101264916D01*
X101669249Y-101266215D01*
X101673967Y-101271964D01*
X101721586Y-101319583D01*
X101727335Y-101324301D01*
X101728635Y-101325800D01*
X101730894Y-101327221D01*
X101732951Y-101328910D01*
X101734778Y-101329667D01*
X101741078Y-101333632D01*
X101836316Y-101381251D01*
X101850047Y-101386506D01*
X101852736Y-101386697D01*
X101855225Y-101387728D01*
X101869857Y-101389169D01*
X102679380Y-101389169D01*
X102694012Y-101387728D01*
X102721048Y-101376529D01*
X102741740Y-101355837D01*
X102752939Y-101328801D01*
X102752939Y-101299537D01*
X102741740Y-101272501D01*
X102721048Y-101251809D01*
X102694012Y-101240610D01*
X102679380Y-101239169D01*
X101887562Y-101239169D01*
X101819046Y-101204911D01*
X101788638Y-101174503D01*
X101754380Y-101105986D01*
X101754380Y-100950923D01*
X101788638Y-100882406D01*
X101819046Y-100851999D01*
X101887562Y-100817741D01*
X102679380Y-100817741D01*
X102694012Y-100816300D01*
X102721048Y-100805101D01*
X102741740Y-100784409D01*
X102752939Y-100757373D01*
X102752939Y-100728109D01*
X102741740Y-100701073D01*
X102721048Y-100680381D01*
X102694012Y-100669182D01*
X102679380Y-100667741D01*
X101869857Y-100667741D01*
X101855225Y-100669182D01*
X101852736Y-100670212D01*
X101850047Y-100670404D01*
X101836316Y-100675659D01*
X101741078Y-100723278D01*
X101734778Y-100727242D01*
X101732951Y-100728000D01*
X101730894Y-100729688D01*
X101728635Y-100731110D01*
X101727335Y-100732608D01*
X101721586Y-100737327D01*
X101673967Y-100784946D01*
X101669249Y-100790694D01*
X101667751Y-100791994D01*
X101666328Y-100794253D01*
X101664640Y-100796311D01*
X101663883Y-100798138D01*
X101659918Y-100804437D01*
X101612298Y-100899675D01*
X101607043Y-100913407D01*
X101606851Y-100916096D01*
X101605821Y-100918585D01*
X101604380Y-100933217D01*
X101493269Y-100933217D01*
X101493269Y-99742741D01*
X101604380Y-99742741D01*
X101604380Y-100123693D01*
X101605821Y-100138325D01*
X101606851Y-100140813D01*
X101607043Y-100143503D01*
X101612298Y-100157235D01*
X101659918Y-100252473D01*
X101663883Y-100258771D01*
X101664640Y-100260599D01*
X101666328Y-100262656D01*
X101667751Y-100264916D01*
X101669249Y-100266215D01*
X101673967Y-100271964D01*
X101721586Y-100319583D01*
X101727335Y-100324301D01*
X101728635Y-100325800D01*
X101730894Y-100327221D01*
X101732951Y-100328910D01*
X101734778Y-100329667D01*
X101741078Y-100333632D01*
X101836316Y-100381251D01*
X101850047Y-100386506D01*
X101852736Y-100386697D01*
X101855225Y-100387728D01*
X101869857Y-100389169D01*
X102012714Y-100389169D01*
X102027346Y-100387728D01*
X102029835Y-100386696D01*
X102032523Y-100386506D01*
X102046255Y-100381251D01*
X102141493Y-100333632D01*
X102147792Y-100329667D01*
X102149620Y-100328910D01*
X102151676Y-100327221D01*
X102153936Y-100325800D01*
X102155235Y-100324301D01*
X102160985Y-100319583D01*
X102208604Y-100271964D01*
X102217931Y-100260599D01*
X102218961Y-100258110D01*
X102220728Y-100256074D01*
X102223437Y-100250006D01*
X102245395Y-100271964D01*
X102251144Y-100276682D01*
X102252444Y-100278181D01*
X102254703Y-100279602D01*
X102256760Y-100281291D01*
X102258587Y-100282048D01*
X102264887Y-100286013D01*
X102360125Y-100333632D01*
X102373856Y-100338887D01*
X102376545Y-100339078D01*
X102379034Y-100340109D01*
X102393666Y-100341550D01*
X102488904Y-100341550D01*
X102503536Y-100340109D01*
X102506025Y-100339077D01*
X102508713Y-100338887D01*
X102522445Y-100333632D01*
X102617683Y-100286013D01*
X102623982Y-100282048D01*
X102625810Y-100281291D01*
X102627866Y-100279602D01*
X102630126Y-100278181D01*
X102631425Y-100276682D01*
X102637175Y-100271964D01*
X102684794Y-100224345D01*
X102689512Y-100218595D01*
X102691011Y-100217296D01*
X102692432Y-100215036D01*
X102694121Y-100212980D01*
X102694878Y-100211152D01*
X102698843Y-100204853D01*
X102746462Y-100109615D01*
X102751717Y-100095884D01*
X102751908Y-100093194D01*
X102752939Y-100090706D01*
X102754380Y-100076074D01*
X102754380Y-99742741D01*
X102752939Y-99728109D01*
X102741740Y-99701073D01*
X102721048Y-99680381D01*
X102694012Y-99669182D01*
X102679380Y-99667741D01*
X101679380Y-99667741D01*
X101664748Y-99669182D01*
X101637712Y-99680381D01*
X101617020Y-99701073D01*
X101605821Y-99728109D01*
X101604380Y-99742741D01*
X101493269Y-99742741D01*
X101493269Y-98980836D01*
X101604380Y-98980836D01*
X101604380Y-99123693D01*
X101605821Y-99138325D01*
X101606851Y-99140813D01*
X101607043Y-99143503D01*
X101612298Y-99157235D01*
X101636421Y-99205480D01*
X101617020Y-99224882D01*
X101605821Y-99251918D01*
X101605821Y-99281182D01*
X101617020Y-99308218D01*
X101637712Y-99328910D01*
X101664748Y-99340109D01*
X101679380Y-99341550D01*
X102346047Y-99341550D01*
X102360679Y-99340109D01*
X102387715Y-99328910D01*
X102408407Y-99308218D01*
X102419606Y-99281182D01*
X102419606Y-99251918D01*
X102408407Y-99224882D01*
X102387715Y-99204190D01*
X102360679Y-99192991D01*
X102346047Y-99191550D01*
X101805685Y-99191550D01*
X101788638Y-99174503D01*
X101754380Y-99105986D01*
X101754380Y-98998542D01*
X101782901Y-98941499D01*
X101839943Y-98912979D01*
X102346047Y-98912979D01*
X102360679Y-98911538D01*
X102387715Y-98900339D01*
X102408407Y-98879647D01*
X102419606Y-98852611D01*
X102419606Y-98823347D01*
X102408407Y-98796311D01*
X102387715Y-98775619D01*
X102360679Y-98764420D01*
X102346047Y-98762979D01*
X101822238Y-98762979D01*
X101807606Y-98764420D01*
X101805117Y-98765450D01*
X101802428Y-98765642D01*
X101788697Y-98770897D01*
X101693459Y-98818516D01*
X101691013Y-98820055D01*
X101689859Y-98820440D01*
X101688421Y-98821687D01*
X101681016Y-98826348D01*
X101674855Y-98833452D01*
X101667751Y-98839613D01*
X101663087Y-98847020D01*
X101661843Y-98848456D01*
X101661458Y-98849608D01*
X101659918Y-98852056D01*
X101612298Y-98947294D01*
X101607043Y-98961026D01*
X101606851Y-98963715D01*
X101605821Y-98966204D01*
X101604380Y-98980836D01*
X101493269Y-98980836D01*
X101493269Y-98651868D01*
X102865491Y-98651868D01*
X102865491Y-102500280D01*
G37*
X54232180Y-95104179D02*
X54898847Y-95104179D01*
X54803609Y-95104179D02*
X54851228Y-95151798D01*
X54851228Y-95151798D02*
X54898847Y-95247036D01*
X54898847Y-95247036D02*
X54898847Y-95389893D01*
X54898847Y-95389893D02*
X54851228Y-95485131D01*
X54851228Y-95485131D02*
X54755990Y-95532750D01*
X54755990Y-95532750D02*
X54232180Y-95532750D01*
X54755990Y-95532750D02*
X54851228Y-95580369D01*
X54851228Y-95580369D02*
X54898847Y-95675607D01*
X54898847Y-95675607D02*
X54898847Y-95818464D01*
X54898847Y-95818464D02*
X54851228Y-95913703D01*
X54851228Y-95913703D02*
X54755990Y-95961322D01*
X54755990Y-95961322D02*
X54232180Y-95961322D01*
X54232180Y-96437512D02*
X54898847Y-96437512D01*
X55232180Y-96437512D02*
X55184561Y-96389893D01*
X55184561Y-96389893D02*
X55136942Y-96437512D01*
X55136942Y-96437512D02*
X55184561Y-96485131D01*
X55184561Y-96485131D02*
X55232180Y-96437512D01*
X55232180Y-96437512D02*
X55136942Y-96437512D01*
X54898847Y-96913702D02*
X54232180Y-96913702D01*
X54803609Y-96913702D02*
X54851228Y-96961321D01*
X54851228Y-96961321D02*
X54898847Y-97056559D01*
X54898847Y-97056559D02*
X54898847Y-97199416D01*
X54898847Y-97199416D02*
X54851228Y-97294654D01*
X54851228Y-97294654D02*
X54755990Y-97342273D01*
X54755990Y-97342273D02*
X54232180Y-97342273D01*
X54232180Y-97818464D02*
X54898847Y-97818464D01*
X55232180Y-97818464D02*
X55184561Y-97770845D01*
X55184561Y-97770845D02*
X55136942Y-97818464D01*
X55136942Y-97818464D02*
X55184561Y-97866083D01*
X55184561Y-97866083D02*
X55232180Y-97818464D01*
X55232180Y-97818464D02*
X55136942Y-97818464D01*
X63611905Y-75304819D02*
X63611905Y-76114342D01*
X63611905Y-76114342D02*
X63659524Y-76209580D01*
X63659524Y-76209580D02*
X63707143Y-76257200D01*
X63707143Y-76257200D02*
X63802381Y-76304819D01*
X63802381Y-76304819D02*
X63992857Y-76304819D01*
X63992857Y-76304819D02*
X64088095Y-76257200D01*
X64088095Y-76257200D02*
X64135714Y-76209580D01*
X64135714Y-76209580D02*
X64183333Y-76114342D01*
X64183333Y-76114342D02*
X64183333Y-75304819D01*
X65183333Y-76304819D02*
X64611905Y-76304819D01*
X64897619Y-76304819D02*
X64897619Y-75304819D01*
X64897619Y-75304819D02*
X64802381Y-75447676D01*
X64802381Y-75447676D02*
X64707143Y-75542914D01*
X64707143Y-75542914D02*
X64611905Y-75590533D01*
X66135714Y-76304819D02*
X65564286Y-76304819D01*
X65850000Y-76304819D02*
X65850000Y-75304819D01*
X65850000Y-75304819D02*
X65754762Y-75447676D01*
X65754762Y-75447676D02*
X65659524Y-75542914D01*
X65659524Y-75542914D02*
X65564286Y-75590533D01*
D12*
X72835999Y-97716371D02*
X72835999Y-98144942D01*
X72835999Y-98144942D02*
X72807428Y-98230657D01*
X72807428Y-98230657D02*
X72750285Y-98287800D01*
X72750285Y-98287800D02*
X72664571Y-98316371D01*
X72664571Y-98316371D02*
X72607428Y-98316371D01*
X73378857Y-97916371D02*
X73378857Y-98316371D01*
X73235999Y-97687800D02*
X73093142Y-98116371D01*
X73093142Y-98116371D02*
X73464571Y-98116371D01*
D10*
X81127695Y-65698019D02*
X81127695Y-66507542D01*
X81127695Y-66507542D02*
X81175314Y-66602780D01*
X81175314Y-66602780D02*
X81222933Y-66650400D01*
X81222933Y-66650400D02*
X81318171Y-66698019D01*
X81318171Y-66698019D02*
X81508647Y-66698019D01*
X81508647Y-66698019D02*
X81603885Y-66650400D01*
X81603885Y-66650400D02*
X81651504Y-66602780D01*
X81651504Y-66602780D02*
X81699123Y-66507542D01*
X81699123Y-66507542D02*
X81699123Y-65698019D01*
X82080076Y-65698019D02*
X82746742Y-65698019D01*
X82746742Y-65698019D02*
X82318171Y-66698019D01*
X82073905Y-88754819D02*
X82073905Y-89564342D01*
X82073905Y-89564342D02*
X82121524Y-89659580D01*
X82121524Y-89659580D02*
X82169143Y-89707200D01*
X82169143Y-89707200D02*
X82264381Y-89754819D01*
X82264381Y-89754819D02*
X82454857Y-89754819D01*
X82454857Y-89754819D02*
X82550095Y-89707200D01*
X82550095Y-89707200D02*
X82597714Y-89659580D01*
X82597714Y-89659580D02*
X82645333Y-89564342D01*
X82645333Y-89564342D02*
X82645333Y-88754819D01*
X83645333Y-89754819D02*
X83073905Y-89754819D01*
X83359619Y-89754819D02*
X83359619Y-88754819D01*
X83359619Y-88754819D02*
X83264381Y-88897676D01*
X83264381Y-88897676D02*
X83169143Y-88992914D01*
X83169143Y-88992914D02*
X83073905Y-89040533D01*
X84502476Y-88754819D02*
X84312000Y-88754819D01*
X84312000Y-88754819D02*
X84216762Y-88802438D01*
X84216762Y-88802438D02*
X84169143Y-88850057D01*
X84169143Y-88850057D02*
X84073905Y-88992914D01*
X84073905Y-88992914D02*
X84026286Y-89183390D01*
X84026286Y-89183390D02*
X84026286Y-89564342D01*
X84026286Y-89564342D02*
X84073905Y-89659580D01*
X84073905Y-89659580D02*
X84121524Y-89707200D01*
X84121524Y-89707200D02*
X84216762Y-89754819D01*
X84216762Y-89754819D02*
X84407238Y-89754819D01*
X84407238Y-89754819D02*
X84502476Y-89707200D01*
X84502476Y-89707200D02*
X84550095Y-89659580D01*
X84550095Y-89659580D02*
X84597714Y-89564342D01*
X84597714Y-89564342D02*
X84597714Y-89326247D01*
X84597714Y-89326247D02*
X84550095Y-89231009D01*
X84550095Y-89231009D02*
X84502476Y-89183390D01*
X84502476Y-89183390D02*
X84407238Y-89135771D01*
X84407238Y-89135771D02*
X84216762Y-89135771D01*
X84216762Y-89135771D02*
X84121524Y-89183390D01*
X84121524Y-89183390D02*
X84073905Y-89231009D01*
X84073905Y-89231009D02*
X84026286Y-89326247D01*
X108795104Y-105127419D02*
X108461771Y-104651228D01*
X108223676Y-105127419D02*
X108223676Y-104127419D01*
X108223676Y-104127419D02*
X108604628Y-104127419D01*
X108604628Y-104127419D02*
X108699866Y-104175038D01*
X108699866Y-104175038D02*
X108747485Y-104222657D01*
X108747485Y-104222657D02*
X108795104Y-104317895D01*
X108795104Y-104317895D02*
X108795104Y-104460752D01*
X108795104Y-104460752D02*
X108747485Y-104555990D01*
X108747485Y-104555990D02*
X108699866Y-104603609D01*
X108699866Y-104603609D02*
X108604628Y-104651228D01*
X108604628Y-104651228D02*
X108223676Y-104651228D01*
X109604628Y-105079800D02*
X109509390Y-105127419D01*
X109509390Y-105127419D02*
X109318914Y-105127419D01*
X109318914Y-105127419D02*
X109223676Y-105079800D01*
X109223676Y-105079800D02*
X109176057Y-104984561D01*
X109176057Y-104984561D02*
X109176057Y-104603609D01*
X109176057Y-104603609D02*
X109223676Y-104508371D01*
X109223676Y-104508371D02*
X109318914Y-104460752D01*
X109318914Y-104460752D02*
X109509390Y-104460752D01*
X109509390Y-104460752D02*
X109604628Y-104508371D01*
X109604628Y-104508371D02*
X109652247Y-104603609D01*
X109652247Y-104603609D02*
X109652247Y-104698847D01*
X109652247Y-104698847D02*
X109176057Y-104794085D01*
X110033200Y-105079800D02*
X110128438Y-105127419D01*
X110128438Y-105127419D02*
X110318914Y-105127419D01*
X110318914Y-105127419D02*
X110414152Y-105079800D01*
X110414152Y-105079800D02*
X110461771Y-104984561D01*
X110461771Y-104984561D02*
X110461771Y-104936942D01*
X110461771Y-104936942D02*
X110414152Y-104841704D01*
X110414152Y-104841704D02*
X110318914Y-104794085D01*
X110318914Y-104794085D02*
X110176057Y-104794085D01*
X110176057Y-104794085D02*
X110080819Y-104746466D01*
X110080819Y-104746466D02*
X110033200Y-104651228D01*
X110033200Y-104651228D02*
X110033200Y-104603609D01*
X110033200Y-104603609D02*
X110080819Y-104508371D01*
X110080819Y-104508371D02*
X110176057Y-104460752D01*
X110176057Y-104460752D02*
X110318914Y-104460752D01*
X110318914Y-104460752D02*
X110414152Y-104508371D01*
X111271295Y-105079800D02*
X111176057Y-105127419D01*
X111176057Y-105127419D02*
X110985581Y-105127419D01*
X110985581Y-105127419D02*
X110890343Y-105079800D01*
X110890343Y-105079800D02*
X110842724Y-104984561D01*
X110842724Y-104984561D02*
X110842724Y-104603609D01*
X110842724Y-104603609D02*
X110890343Y-104508371D01*
X110890343Y-104508371D02*
X110985581Y-104460752D01*
X110985581Y-104460752D02*
X111176057Y-104460752D01*
X111176057Y-104460752D02*
X111271295Y-104508371D01*
X111271295Y-104508371D02*
X111318914Y-104603609D01*
X111318914Y-104603609D02*
X111318914Y-104698847D01*
X111318914Y-104698847D02*
X110842724Y-104794085D01*
X111604629Y-104460752D02*
X111985581Y-104460752D01*
X111747486Y-104127419D02*
X111747486Y-104984561D01*
X111747486Y-104984561D02*
X111795105Y-105079800D01*
X111795105Y-105079800D02*
X111890343Y-105127419D01*
X111890343Y-105127419D02*
X111985581Y-105127419D01*
X111788095Y-71154819D02*
X111788095Y-71964342D01*
X111788095Y-71964342D02*
X111835714Y-72059580D01*
X111835714Y-72059580D02*
X111883333Y-72107200D01*
X111883333Y-72107200D02*
X111978571Y-72154819D01*
X111978571Y-72154819D02*
X112169047Y-72154819D01*
X112169047Y-72154819D02*
X112264285Y-72107200D01*
X112264285Y-72107200D02*
X112311904Y-72059580D01*
X112311904Y-72059580D02*
X112359523Y-71964342D01*
X112359523Y-71964342D02*
X112359523Y-71154819D01*
X112883333Y-72154819D02*
X113073809Y-72154819D01*
X113073809Y-72154819D02*
X113169047Y-72107200D01*
X113169047Y-72107200D02*
X113216666Y-72059580D01*
X113216666Y-72059580D02*
X113311904Y-71916723D01*
X113311904Y-71916723D02*
X113359523Y-71726247D01*
X113359523Y-71726247D02*
X113359523Y-71345295D01*
X113359523Y-71345295D02*
X113311904Y-71250057D01*
X113311904Y-71250057D02*
X113264285Y-71202438D01*
X113264285Y-71202438D02*
X113169047Y-71154819D01*
X113169047Y-71154819D02*
X112978571Y-71154819D01*
X112978571Y-71154819D02*
X112883333Y-71202438D01*
X112883333Y-71202438D02*
X112835714Y-71250057D01*
X112835714Y-71250057D02*
X112788095Y-71345295D01*
X112788095Y-71345295D02*
X112788095Y-71583390D01*
X112788095Y-71583390D02*
X112835714Y-71678628D01*
X112835714Y-71678628D02*
X112883333Y-71726247D01*
X112883333Y-71726247D02*
X112978571Y-71773866D01*
X112978571Y-71773866D02*
X113169047Y-71773866D01*
X113169047Y-71773866D02*
X113264285Y-71726247D01*
X113264285Y-71726247D02*
X113311904Y-71678628D01*
X113311904Y-71678628D02*
X113359523Y-71583390D01*
D12*
X90467999Y-97716371D02*
X90467999Y-98144942D01*
X90467999Y-98144942D02*
X90439428Y-98230657D01*
X90439428Y-98230657D02*
X90382285Y-98287800D01*
X90382285Y-98287800D02*
X90296571Y-98316371D01*
X90296571Y-98316371D02*
X90239428Y-98316371D01*
X91039428Y-97716371D02*
X90753714Y-97716371D01*
X90753714Y-97716371D02*
X90725142Y-98002085D01*
X90725142Y-98002085D02*
X90753714Y-97973514D01*
X90753714Y-97973514D02*
X90810857Y-97944942D01*
X90810857Y-97944942D02*
X90953714Y-97944942D01*
X90953714Y-97944942D02*
X91010857Y-97973514D01*
X91010857Y-97973514D02*
X91039428Y-98002085D01*
X91039428Y-98002085D02*
X91067999Y-98059228D01*
X91067999Y-98059228D02*
X91067999Y-98202085D01*
X91067999Y-98202085D02*
X91039428Y-98259228D01*
X91039428Y-98259228D02*
X91010857Y-98287800D01*
X91010857Y-98287800D02*
X90953714Y-98316371D01*
X90953714Y-98316371D02*
X90810857Y-98316371D01*
X90810857Y-98316371D02*
X90753714Y-98287800D01*
X90753714Y-98287800D02*
X90725142Y-98259228D01*
D10*
G36*
X57893326Y-59663244D02*
G01*
X57921847Y-59720286D01*
X57921847Y-59875352D01*
X57893326Y-59932393D01*
X57836285Y-59960914D01*
X57820237Y-59960914D01*
X57755000Y-59634724D01*
X57836285Y-59634724D01*
X57893326Y-59663244D01*
G37*
G36*
X57893326Y-57996577D02*
G01*
X57921847Y-58053619D01*
X57921847Y-58208685D01*
X57893326Y-58265726D01*
X57836285Y-58294247D01*
X57820237Y-58294247D01*
X57755000Y-57968057D01*
X57836285Y-57968057D01*
X57893326Y-57996577D01*
G37*
G36*
X58255180Y-57303923D02*
G01*
X58220922Y-57372439D01*
X58190515Y-57402846D01*
X58121999Y-57437104D01*
X58014552Y-57437104D01*
X57946036Y-57402846D01*
X57915629Y-57372439D01*
X57881371Y-57303923D01*
X57881371Y-57015676D01*
X58255180Y-57015676D01*
X58255180Y-57303923D01*
G37*
G36*
X58516291Y-60887251D02*
G01*
X57144069Y-60887251D01*
X57144069Y-60607343D01*
X57255180Y-60607343D01*
X57255180Y-60702581D01*
X57256621Y-60717213D01*
X57267820Y-60744249D01*
X57288512Y-60764941D01*
X57315548Y-60776140D01*
X57344812Y-60776140D01*
X57371848Y-60764941D01*
X57392540Y-60744249D01*
X57403739Y-60717213D01*
X57405180Y-60702581D01*
X57405180Y-60625049D01*
X57433701Y-60568006D01*
X57490743Y-60539486D01*
X57921847Y-60539486D01*
X57921847Y-60702581D01*
X57923288Y-60717213D01*
X57934487Y-60744249D01*
X57955179Y-60764941D01*
X57982215Y-60776140D01*
X58011479Y-60776140D01*
X58038515Y-60764941D01*
X58059207Y-60744249D01*
X58070406Y-60717213D01*
X58071847Y-60702581D01*
X58071847Y-60539486D01*
X58330180Y-60539486D01*
X58344812Y-60538045D01*
X58371848Y-60526846D01*
X58392540Y-60506154D01*
X58403739Y-60479118D01*
X58403739Y-60449854D01*
X58392540Y-60422818D01*
X58371848Y-60402126D01*
X58344812Y-60390927D01*
X58330180Y-60389486D01*
X58071847Y-60389486D01*
X58071847Y-60321629D01*
X58070406Y-60306997D01*
X58059207Y-60279961D01*
X58038515Y-60259269D01*
X58011479Y-60248070D01*
X57982215Y-60248070D01*
X57955179Y-60259269D01*
X57934487Y-60279961D01*
X57923288Y-60306997D01*
X57921847Y-60321629D01*
X57921847Y-60389486D01*
X57473038Y-60389486D01*
X57458406Y-60390927D01*
X57455917Y-60391957D01*
X57453228Y-60392149D01*
X57439497Y-60397404D01*
X57344259Y-60445023D01*
X57341813Y-60446562D01*
X57340659Y-60446947D01*
X57339221Y-60448194D01*
X57331816Y-60452855D01*
X57325655Y-60459959D01*
X57318551Y-60466120D01*
X57313887Y-60473527D01*
X57312643Y-60474963D01*
X57312258Y-60476115D01*
X57310718Y-60478563D01*
X57263098Y-60573801D01*
X57257843Y-60587533D01*
X57257651Y-60590222D01*
X57256621Y-60592711D01*
X57255180Y-60607343D01*
X57144069Y-60607343D01*
X57144069Y-59702581D01*
X57255180Y-59702581D01*
X57255180Y-59893057D01*
X57256621Y-59907689D01*
X57257651Y-59910177D01*
X57257843Y-59912867D01*
X57263098Y-59926599D01*
X57310718Y-60021837D01*
X57318551Y-60034280D01*
X57340659Y-60053453D01*
X57368420Y-60062706D01*
X57397610Y-60060632D01*
X57423784Y-60047544D01*
X57442958Y-60025437D01*
X57452211Y-59997675D01*
X57450137Y-59968485D01*
X57444882Y-59954754D01*
X57405180Y-59875350D01*
X57405180Y-59720287D01*
X57433701Y-59663244D01*
X57490743Y-59634724D01*
X57602028Y-59634724D01*
X57685208Y-60050622D01*
X57689491Y-60064688D01*
X57693579Y-60070793D01*
X57696392Y-60077582D01*
X57701644Y-60082834D01*
X57705775Y-60089002D01*
X57711886Y-60093076D01*
X57717084Y-60098274D01*
X57723947Y-60101117D01*
X57730123Y-60105234D01*
X57737328Y-60106659D01*
X57744120Y-60109473D01*
X57758752Y-60110914D01*
X57758830Y-60110914D01*
X57853990Y-60110914D01*
X57868622Y-60109473D01*
X57871111Y-60108441D01*
X57873799Y-60108251D01*
X57887531Y-60102996D01*
X57982769Y-60055377D01*
X57985216Y-60053836D01*
X57986370Y-60053452D01*
X57987806Y-60052206D01*
X57995212Y-60047545D01*
X58001373Y-60040440D01*
X58008478Y-60034279D01*
X58013139Y-60026873D01*
X58014385Y-60025437D01*
X58014769Y-60024283D01*
X58016310Y-60021836D01*
X58063929Y-59926598D01*
X58069184Y-59912867D01*
X58069375Y-59910177D01*
X58070406Y-59907689D01*
X58071847Y-59893057D01*
X58071847Y-59702581D01*
X58070406Y-59687949D01*
X58069375Y-59685460D01*
X58069184Y-59682771D01*
X58063929Y-59669040D01*
X58016310Y-59573802D01*
X58014769Y-59571354D01*
X58014385Y-59570201D01*
X58013139Y-59568764D01*
X58008478Y-59561359D01*
X58001373Y-59555197D01*
X57995212Y-59548093D01*
X57987806Y-59543431D01*
X57986370Y-59542186D01*
X57985216Y-59541801D01*
X57982769Y-59540261D01*
X57887531Y-59492642D01*
X57873799Y-59487387D01*
X57871111Y-59487196D01*
X57868622Y-59486165D01*
X57853990Y-59484724D01*
X57473038Y-59484724D01*
X57458406Y-59486165D01*
X57455917Y-59487195D01*
X57453228Y-59487387D01*
X57439497Y-59492642D01*
X57344259Y-59540261D01*
X57341813Y-59541800D01*
X57340659Y-59542185D01*
X57339221Y-59543432D01*
X57331816Y-59548093D01*
X57325655Y-59555197D01*
X57318551Y-59561358D01*
X57313887Y-59568765D01*
X57312643Y-59570201D01*
X57312258Y-59571353D01*
X57310718Y-59573801D01*
X57263098Y-59669039D01*
X57257843Y-59682771D01*
X57257651Y-59685460D01*
X57256621Y-59687949D01*
X57255180Y-59702581D01*
X57144069Y-59702581D01*
X57144069Y-58845438D01*
X57255180Y-58845438D01*
X57255180Y-59035914D01*
X57256621Y-59050546D01*
X57257651Y-59053034D01*
X57257843Y-59055724D01*
X57263098Y-59069456D01*
X57310718Y-59164694D01*
X57312258Y-59167141D01*
X57312643Y-59168294D01*
X57313887Y-59169729D01*
X57318551Y-59177137D01*
X57325655Y-59183297D01*
X57331816Y-59190402D01*
X57339221Y-59195062D01*
X57340659Y-59196310D01*
X57341813Y-59196694D01*
X57344259Y-59198234D01*
X57439497Y-59245853D01*
X57453228Y-59251108D01*
X57455917Y-59251299D01*
X57458406Y-59252330D01*
X57473038Y-59253771D01*
X57520657Y-59253771D01*
X57535289Y-59252330D01*
X57537778Y-59251298D01*
X57540466Y-59251108D01*
X57554198Y-59245853D01*
X57649436Y-59198234D01*
X57651883Y-59196693D01*
X57653037Y-59196309D01*
X57654473Y-59195063D01*
X57661879Y-59190402D01*
X57668040Y-59183297D01*
X57675145Y-59177136D01*
X57679806Y-59169730D01*
X57681052Y-59168294D01*
X57681436Y-59167140D01*
X57682977Y-59164693D01*
X57730596Y-59069455D01*
X57735851Y-59055724D01*
X57736042Y-59053034D01*
X57737073Y-59050546D01*
X57738514Y-59035914D01*
X57738514Y-58910762D01*
X57767034Y-58853720D01*
X57824076Y-58825200D01*
X57836285Y-58825200D01*
X57893326Y-58853720D01*
X57921847Y-58910762D01*
X57921847Y-59018209D01*
X57882146Y-59097611D01*
X57876891Y-59111343D01*
X57874817Y-59140533D01*
X57884071Y-59168294D01*
X57903244Y-59190402D01*
X57929419Y-59203489D01*
X57958609Y-59205563D01*
X57986370Y-59196309D01*
X58008478Y-59177136D01*
X58016310Y-59164693D01*
X58063929Y-59069455D01*
X58069184Y-59055724D01*
X58069375Y-59053034D01*
X58070406Y-59050546D01*
X58071847Y-59035914D01*
X58071847Y-58893057D01*
X58070406Y-58878425D01*
X58069375Y-58875936D01*
X58069184Y-58873247D01*
X58063929Y-58859516D01*
X58016310Y-58764278D01*
X58014769Y-58761830D01*
X58014385Y-58760677D01*
X58013139Y-58759240D01*
X58008478Y-58751835D01*
X58001373Y-58745673D01*
X57995212Y-58738569D01*
X57987806Y-58733907D01*
X57986370Y-58732662D01*
X57985216Y-58732277D01*
X57982769Y-58730737D01*
X57887531Y-58683118D01*
X57873799Y-58677863D01*
X57871111Y-58677672D01*
X57868622Y-58676641D01*
X57853990Y-58675200D01*
X57806371Y-58675200D01*
X57791739Y-58676641D01*
X57789250Y-58677671D01*
X57786561Y-58677863D01*
X57772830Y-58683118D01*
X57677592Y-58730737D01*
X57675144Y-58732277D01*
X57673991Y-58732662D01*
X57672554Y-58733907D01*
X57665149Y-58738569D01*
X57658987Y-58745673D01*
X57651883Y-58751835D01*
X57647221Y-58759240D01*
X57645976Y-58760677D01*
X57645591Y-58761830D01*
X57644051Y-58764278D01*
X57596432Y-58859516D01*
X57591177Y-58873248D01*
X57590986Y-58875935D01*
X57589955Y-58878425D01*
X57588514Y-58893057D01*
X57588514Y-59018209D01*
X57559993Y-59075250D01*
X57502952Y-59103771D01*
X57490743Y-59103771D01*
X57433701Y-59075250D01*
X57405180Y-59018207D01*
X57405180Y-58863144D01*
X57444882Y-58783741D01*
X57450137Y-58770010D01*
X57452211Y-58740820D01*
X57442958Y-58713058D01*
X57423784Y-58690951D01*
X57397610Y-58677863D01*
X57368420Y-58675789D01*
X57340659Y-58685042D01*
X57318551Y-58704215D01*
X57310718Y-58716658D01*
X57263098Y-58811896D01*
X57257843Y-58825628D01*
X57257651Y-58828317D01*
X57256621Y-58830806D01*
X57255180Y-58845438D01*
X57144069Y-58845438D01*
X57144069Y-58035914D01*
X57255180Y-58035914D01*
X57255180Y-58226390D01*
X57256621Y-58241022D01*
X57257651Y-58243510D01*
X57257843Y-58246200D01*
X57263098Y-58259932D01*
X57310718Y-58355170D01*
X57318551Y-58367613D01*
X57340659Y-58386786D01*
X57368420Y-58396039D01*
X57397610Y-58393965D01*
X57423784Y-58380877D01*
X57442958Y-58358770D01*
X57452211Y-58331008D01*
X57450137Y-58301818D01*
X57444882Y-58288087D01*
X57405180Y-58208683D01*
X57405180Y-58053620D01*
X57433701Y-57996577D01*
X57490743Y-57968057D01*
X57602028Y-57968057D01*
X57685208Y-58383955D01*
X57689491Y-58398021D01*
X57693579Y-58404126D01*
X57696392Y-58410915D01*
X57701644Y-58416167D01*
X57705775Y-58422335D01*
X57711886Y-58426409D01*
X57717084Y-58431607D01*
X57723947Y-58434450D01*
X57730123Y-58438567D01*
X57737328Y-58439992D01*
X57744120Y-58442806D01*
X57758752Y-58444247D01*
X57758830Y-58444247D01*
X57853990Y-58444247D01*
X57868622Y-58442806D01*
X57871111Y-58441774D01*
X57873799Y-58441584D01*
X57887531Y-58436329D01*
X57982769Y-58388710D01*
X57985216Y-58387169D01*
X57986370Y-58386785D01*
X57987806Y-58385539D01*
X57995212Y-58380878D01*
X58001373Y-58373773D01*
X58008478Y-58367612D01*
X58013139Y-58360206D01*
X58014385Y-58358770D01*
X58014769Y-58357616D01*
X58016310Y-58355169D01*
X58063929Y-58259931D01*
X58069184Y-58246200D01*
X58069375Y-58243510D01*
X58070406Y-58241022D01*
X58071847Y-58226390D01*
X58071847Y-58035914D01*
X58070406Y-58021282D01*
X58069375Y-58018793D01*
X58069184Y-58016104D01*
X58063929Y-58002373D01*
X58016310Y-57907135D01*
X58014769Y-57904687D01*
X58014385Y-57903534D01*
X58013139Y-57902097D01*
X58008478Y-57894692D01*
X58001373Y-57888530D01*
X57995212Y-57881426D01*
X57987806Y-57876764D01*
X57986370Y-57875519D01*
X57985216Y-57875134D01*
X57982769Y-57873594D01*
X57887531Y-57825975D01*
X57873799Y-57820720D01*
X57871111Y-57820529D01*
X57868622Y-57819498D01*
X57853990Y-57818057D01*
X57473038Y-57818057D01*
X57458406Y-57819498D01*
X57455917Y-57820528D01*
X57453228Y-57820720D01*
X57439497Y-57825975D01*
X57344259Y-57873594D01*
X57341813Y-57875133D01*
X57340659Y-57875518D01*
X57339221Y-57876765D01*
X57331816Y-57881426D01*
X57325655Y-57888530D01*
X57318551Y-57894691D01*
X57313887Y-57902098D01*
X57312643Y-57903534D01*
X57312258Y-57904686D01*
X57310718Y-57907134D01*
X57263098Y-58002372D01*
X57257843Y-58016104D01*
X57257651Y-58018793D01*
X57256621Y-58021282D01*
X57255180Y-58035914D01*
X57144069Y-58035914D01*
X57144069Y-57513729D01*
X57255198Y-57513729D01*
X57261527Y-57542300D01*
X57278309Y-57566274D01*
X57302988Y-57582001D01*
X57331805Y-57587086D01*
X57360376Y-57580757D01*
X57373190Y-57573546D01*
X57731480Y-57322742D01*
X57732812Y-57336260D01*
X57733843Y-57338749D01*
X57734034Y-57341437D01*
X57739289Y-57355169D01*
X57786908Y-57450407D01*
X57790872Y-57456706D01*
X57791630Y-57458534D01*
X57793318Y-57460590D01*
X57794740Y-57462850D01*
X57796238Y-57464149D01*
X57800957Y-57469899D01*
X57848576Y-57517518D01*
X57854325Y-57522236D01*
X57855625Y-57523735D01*
X57857884Y-57525156D01*
X57859941Y-57526845D01*
X57861768Y-57527602D01*
X57868068Y-57531567D01*
X57963306Y-57579186D01*
X57977037Y-57584441D01*
X57979726Y-57584632D01*
X57982215Y-57585663D01*
X57996847Y-57587104D01*
X58139704Y-57587104D01*
X58154336Y-57585663D01*
X58156825Y-57584631D01*
X58159513Y-57584441D01*
X58173245Y-57579186D01*
X58268483Y-57531567D01*
X58274782Y-57527602D01*
X58276610Y-57526845D01*
X58278666Y-57525156D01*
X58280926Y-57523735D01*
X58282225Y-57522236D01*
X58287975Y-57517518D01*
X58335594Y-57469899D01*
X58340312Y-57464149D01*
X58341811Y-57462850D01*
X58343232Y-57460590D01*
X58344921Y-57458534D01*
X58345678Y-57456706D01*
X58349643Y-57450407D01*
X58397262Y-57355169D01*
X58402517Y-57341438D01*
X58402708Y-57338748D01*
X58403739Y-57336260D01*
X58405180Y-57321628D01*
X58405180Y-56940676D01*
X58403739Y-56926044D01*
X58392540Y-56899008D01*
X58371848Y-56878316D01*
X58344812Y-56867117D01*
X58330180Y-56865676D01*
X57330180Y-56865676D01*
X57315548Y-56867117D01*
X57288512Y-56878316D01*
X57267820Y-56899008D01*
X57256621Y-56926044D01*
X57256621Y-56955308D01*
X57267820Y-56982344D01*
X57288512Y-57003036D01*
X57315548Y-57014235D01*
X57330180Y-57015676D01*
X57731371Y-57015676D01*
X57731371Y-57139721D01*
X57287170Y-57450662D01*
X57276010Y-57460233D01*
X57260283Y-57484912D01*
X57255198Y-57513729D01*
X57144069Y-57513729D01*
X57144069Y-56754565D01*
X58516291Y-56754565D01*
X58516291Y-60887251D01*
G37*
X66962905Y-83739819D02*
X66962905Y-84549342D01*
X66962905Y-84549342D02*
X67010524Y-84644580D01*
X67010524Y-84644580D02*
X67058143Y-84692200D01*
X67058143Y-84692200D02*
X67153381Y-84739819D01*
X67153381Y-84739819D02*
X67343857Y-84739819D01*
X67343857Y-84739819D02*
X67439095Y-84692200D01*
X67439095Y-84692200D02*
X67486714Y-84644580D01*
X67486714Y-84644580D02*
X67534333Y-84549342D01*
X67534333Y-84549342D02*
X67534333Y-83739819D01*
X68534333Y-84739819D02*
X67962905Y-84739819D01*
X68248619Y-84739819D02*
X68248619Y-83739819D01*
X68248619Y-83739819D02*
X68153381Y-83882676D01*
X68153381Y-83882676D02*
X68058143Y-83977914D01*
X68058143Y-83977914D02*
X67962905Y-84025533D01*
X69439095Y-83739819D02*
X68962905Y-83739819D01*
X68962905Y-83739819D02*
X68915286Y-84216009D01*
X68915286Y-84216009D02*
X68962905Y-84168390D01*
X68962905Y-84168390D02*
X69058143Y-84120771D01*
X69058143Y-84120771D02*
X69296238Y-84120771D01*
X69296238Y-84120771D02*
X69391476Y-84168390D01*
X69391476Y-84168390D02*
X69439095Y-84216009D01*
X69439095Y-84216009D02*
X69486714Y-84311247D01*
X69486714Y-84311247D02*
X69486714Y-84549342D01*
X69486714Y-84549342D02*
X69439095Y-84644580D01*
X69439095Y-84644580D02*
X69391476Y-84692200D01*
X69391476Y-84692200D02*
X69296238Y-84739819D01*
X69296238Y-84739819D02*
X69058143Y-84739819D01*
X69058143Y-84739819D02*
X68962905Y-84692200D01*
X68962905Y-84692200D02*
X68915286Y-84644580D01*
X94107095Y-65799619D02*
X94107095Y-66609142D01*
X94107095Y-66609142D02*
X94154714Y-66704380D01*
X94154714Y-66704380D02*
X94202333Y-66752000D01*
X94202333Y-66752000D02*
X94297571Y-66799619D01*
X94297571Y-66799619D02*
X94488047Y-66799619D01*
X94488047Y-66799619D02*
X94583285Y-66752000D01*
X94583285Y-66752000D02*
X94630904Y-66704380D01*
X94630904Y-66704380D02*
X94678523Y-66609142D01*
X94678523Y-66609142D02*
X94678523Y-65799619D01*
X95297571Y-66228190D02*
X95202333Y-66180571D01*
X95202333Y-66180571D02*
X95154714Y-66132952D01*
X95154714Y-66132952D02*
X95107095Y-66037714D01*
X95107095Y-66037714D02*
X95107095Y-65990095D01*
X95107095Y-65990095D02*
X95154714Y-65894857D01*
X95154714Y-65894857D02*
X95202333Y-65847238D01*
X95202333Y-65847238D02*
X95297571Y-65799619D01*
X95297571Y-65799619D02*
X95488047Y-65799619D01*
X95488047Y-65799619D02*
X95583285Y-65847238D01*
X95583285Y-65847238D02*
X95630904Y-65894857D01*
X95630904Y-65894857D02*
X95678523Y-65990095D01*
X95678523Y-65990095D02*
X95678523Y-66037714D01*
X95678523Y-66037714D02*
X95630904Y-66132952D01*
X95630904Y-66132952D02*
X95583285Y-66180571D01*
X95583285Y-66180571D02*
X95488047Y-66228190D01*
X95488047Y-66228190D02*
X95297571Y-66228190D01*
X95297571Y-66228190D02*
X95202333Y-66275809D01*
X95202333Y-66275809D02*
X95154714Y-66323428D01*
X95154714Y-66323428D02*
X95107095Y-66418666D01*
X95107095Y-66418666D02*
X95107095Y-66609142D01*
X95107095Y-66609142D02*
X95154714Y-66704380D01*
X95154714Y-66704380D02*
X95202333Y-66752000D01*
X95202333Y-66752000D02*
X95297571Y-66799619D01*
X95297571Y-66799619D02*
X95488047Y-66799619D01*
X95488047Y-66799619D02*
X95583285Y-66752000D01*
X95583285Y-66752000D02*
X95630904Y-66704380D01*
X95630904Y-66704380D02*
X95678523Y-66609142D01*
X95678523Y-66609142D02*
X95678523Y-66418666D01*
X95678523Y-66418666D02*
X95630904Y-66323428D01*
X95630904Y-66323428D02*
X95583285Y-66275809D01*
X95583285Y-66275809D02*
X95488047Y-66228190D01*
X90325866Y-50026219D02*
X90325866Y-50740504D01*
X90325866Y-50740504D02*
X90278247Y-50883361D01*
X90278247Y-50883361D02*
X90183009Y-50978600D01*
X90183009Y-50978600D02*
X90040152Y-51026219D01*
X90040152Y-51026219D02*
X89944914Y-51026219D01*
X91325866Y-51026219D02*
X90754438Y-51026219D01*
X91040152Y-51026219D02*
X91040152Y-50026219D01*
X91040152Y-50026219D02*
X90944914Y-50169076D01*
X90944914Y-50169076D02*
X90849676Y-50264314D01*
X90849676Y-50264314D02*
X90754438Y-50311933D01*
X74279666Y-50026219D02*
X74279666Y-50740504D01*
X74279666Y-50740504D02*
X74232047Y-50883361D01*
X74232047Y-50883361D02*
X74136809Y-50978600D01*
X74136809Y-50978600D02*
X73993952Y-51026219D01*
X73993952Y-51026219D02*
X73898714Y-51026219D01*
X74708238Y-50121457D02*
X74755857Y-50073838D01*
X74755857Y-50073838D02*
X74851095Y-50026219D01*
X74851095Y-50026219D02*
X75089190Y-50026219D01*
X75089190Y-50026219D02*
X75184428Y-50073838D01*
X75184428Y-50073838D02*
X75232047Y-50121457D01*
X75232047Y-50121457D02*
X75279666Y-50216695D01*
X75279666Y-50216695D02*
X75279666Y-50311933D01*
X75279666Y-50311933D02*
X75232047Y-50454790D01*
X75232047Y-50454790D02*
X74660619Y-51026219D01*
X74660619Y-51026219D02*
X75279666Y-51026219D01*
D11*
X119763114Y-58504333D02*
X119191686Y-58504333D01*
X119191686Y-58504333D02*
X119077400Y-58466238D01*
X119077400Y-58466238D02*
X119001210Y-58390047D01*
X119001210Y-58390047D02*
X118963114Y-58275762D01*
X118963114Y-58275762D02*
X118963114Y-58199571D01*
X119420257Y-58999571D02*
X119458352Y-58923381D01*
X119458352Y-58923381D02*
X119496448Y-58885286D01*
X119496448Y-58885286D02*
X119572638Y-58847190D01*
X119572638Y-58847190D02*
X119610733Y-58847190D01*
X119610733Y-58847190D02*
X119686924Y-58885286D01*
X119686924Y-58885286D02*
X119725019Y-58923381D01*
X119725019Y-58923381D02*
X119763114Y-58999571D01*
X119763114Y-58999571D02*
X119763114Y-59151952D01*
X119763114Y-59151952D02*
X119725019Y-59228143D01*
X119725019Y-59228143D02*
X119686924Y-59266238D01*
X119686924Y-59266238D02*
X119610733Y-59304333D01*
X119610733Y-59304333D02*
X119572638Y-59304333D01*
X119572638Y-59304333D02*
X119496448Y-59266238D01*
X119496448Y-59266238D02*
X119458352Y-59228143D01*
X119458352Y-59228143D02*
X119420257Y-59151952D01*
X119420257Y-59151952D02*
X119420257Y-58999571D01*
X119420257Y-58999571D02*
X119382162Y-58923381D01*
X119382162Y-58923381D02*
X119344067Y-58885286D01*
X119344067Y-58885286D02*
X119267876Y-58847190D01*
X119267876Y-58847190D02*
X119115495Y-58847190D01*
X119115495Y-58847190D02*
X119039305Y-58885286D01*
X119039305Y-58885286D02*
X119001210Y-58923381D01*
X119001210Y-58923381D02*
X118963114Y-58999571D01*
X118963114Y-58999571D02*
X118963114Y-59151952D01*
X118963114Y-59151952D02*
X119001210Y-59228143D01*
X119001210Y-59228143D02*
X119039305Y-59266238D01*
X119039305Y-59266238D02*
X119115495Y-59304333D01*
X119115495Y-59304333D02*
X119267876Y-59304333D01*
X119267876Y-59304333D02*
X119344067Y-59266238D01*
X119344067Y-59266238D02*
X119382162Y-59228143D01*
X119382162Y-59228143D02*
X119420257Y-59151952D01*
D10*
X62150666Y-41822019D02*
X62150666Y-42536304D01*
X62150666Y-42536304D02*
X62103047Y-42679161D01*
X62103047Y-42679161D02*
X62007809Y-42774400D01*
X62007809Y-42774400D02*
X61864952Y-42822019D01*
X61864952Y-42822019D02*
X61769714Y-42822019D01*
X62531619Y-41822019D02*
X63198285Y-41822019D01*
X63198285Y-41822019D02*
X62769714Y-42822019D01*
X117461905Y-49854819D02*
X117461905Y-48854819D01*
X117461905Y-48854819D02*
X117842857Y-48854819D01*
X117842857Y-48854819D02*
X117938095Y-48902438D01*
X117938095Y-48902438D02*
X117985714Y-48950057D01*
X117985714Y-48950057D02*
X118033333Y-49045295D01*
X118033333Y-49045295D02*
X118033333Y-49188152D01*
X118033333Y-49188152D02*
X117985714Y-49283390D01*
X117985714Y-49283390D02*
X117938095Y-49331009D01*
X117938095Y-49331009D02*
X117842857Y-49378628D01*
X117842857Y-49378628D02*
X117461905Y-49378628D01*
X118890476Y-49188152D02*
X118890476Y-49854819D01*
X118652381Y-48807200D02*
X118414286Y-49521485D01*
X118414286Y-49521485D02*
X119033333Y-49521485D01*
G36*
X119258479Y-51390930D02*
G01*
X116887699Y-51390930D01*
X116887699Y-50204819D01*
X116998810Y-50204819D01*
X116998810Y-51204819D01*
X117000251Y-51219451D01*
X117011450Y-51246487D01*
X117032142Y-51267179D01*
X117059178Y-51278378D01*
X117088442Y-51278378D01*
X117115478Y-51267179D01*
X117136170Y-51246487D01*
X117147369Y-51219451D01*
X117148810Y-51204819D01*
X117148810Y-51190187D01*
X117381203Y-51190187D01*
X117381203Y-51219451D01*
X117392402Y-51246487D01*
X117413094Y-51267179D01*
X117440130Y-51278378D01*
X117454762Y-51279819D01*
X118073809Y-51279819D01*
X118088441Y-51278378D01*
X118115477Y-51267179D01*
X118136169Y-51246487D01*
X118147368Y-51219451D01*
X118147368Y-51190187D01*
X118136169Y-51163151D01*
X118115477Y-51142459D01*
X118088441Y-51131260D01*
X118073809Y-51129819D01*
X117635828Y-51129819D01*
X118079223Y-50686423D01*
X118088551Y-50675058D01*
X118089582Y-50672567D01*
X118091347Y-50670533D01*
X118097341Y-50657107D01*
X118105247Y-50633390D01*
X118379762Y-50633390D01*
X118379762Y-50776247D01*
X118380013Y-50778800D01*
X118379851Y-50779893D01*
X118380660Y-50785366D01*
X118381203Y-50790879D01*
X118381625Y-50791900D01*
X118382001Y-50794437D01*
X118429620Y-50984913D01*
X118430005Y-50985992D01*
X118430044Y-50986532D01*
X118432371Y-50992613D01*
X118434567Y-50998759D01*
X118434889Y-50999194D01*
X118435299Y-51000264D01*
X118482918Y-51095502D01*
X118486881Y-51101798D01*
X118487639Y-51103628D01*
X118489328Y-51105686D01*
X118490750Y-51107945D01*
X118492248Y-51109244D01*
X118496967Y-51114994D01*
X118592205Y-51210233D01*
X118603570Y-51219561D01*
X118606060Y-51220592D01*
X118608095Y-51222357D01*
X118621521Y-51228351D01*
X118764377Y-51275970D01*
X118771632Y-51277619D01*
X118773463Y-51278378D01*
X118776116Y-51278639D01*
X118778714Y-51279230D01*
X118780688Y-51279089D01*
X118788095Y-51279819D01*
X118883333Y-51279819D01*
X118890738Y-51279089D01*
X118892713Y-51279230D01*
X118895310Y-51278639D01*
X118897965Y-51278378D01*
X118899796Y-51277619D01*
X118907050Y-51275970D01*
X119049907Y-51228351D01*
X119063332Y-51222357D01*
X119065367Y-51220591D01*
X119067858Y-51219560D01*
X119079224Y-51210232D01*
X119126842Y-51162613D01*
X119136170Y-51151247D01*
X119147368Y-51124211D01*
X119147368Y-51094948D01*
X119136169Y-51067912D01*
X119115476Y-51047219D01*
X119088440Y-51036021D01*
X119059177Y-51036021D01*
X119032141Y-51047220D01*
X119020775Y-51056548D01*
X118985676Y-51091647D01*
X118871163Y-51129819D01*
X118800265Y-51129819D01*
X118685752Y-51091648D01*
X118611639Y-51017534D01*
X118573145Y-50940547D01*
X118529762Y-50767013D01*
X118529762Y-50642624D01*
X118573145Y-50469090D01*
X118611639Y-50392103D01*
X118685752Y-50317990D01*
X118800265Y-50279819D01*
X118871163Y-50279819D01*
X118985676Y-50317990D01*
X119020776Y-50353090D01*
X119032141Y-50362417D01*
X119059177Y-50373616D01*
X119088440Y-50373616D01*
X119115476Y-50362417D01*
X119136169Y-50341724D01*
X119147368Y-50314688D01*
X119147368Y-50285425D01*
X119136169Y-50258389D01*
X119126842Y-50247024D01*
X119079223Y-50199405D01*
X119067858Y-50190078D01*
X119065367Y-50189046D01*
X119063332Y-50187281D01*
X119049907Y-50181287D01*
X118907050Y-50133668D01*
X118899796Y-50132018D01*
X118897965Y-50131260D01*
X118895310Y-50130998D01*
X118892713Y-50130408D01*
X118890738Y-50130548D01*
X118883333Y-50129819D01*
X118788095Y-50129819D01*
X118780688Y-50130548D01*
X118778714Y-50130408D01*
X118776116Y-50130998D01*
X118773463Y-50131260D01*
X118771632Y-50132018D01*
X118764377Y-50133668D01*
X118621521Y-50181287D01*
X118608095Y-50187281D01*
X118606060Y-50189045D01*
X118603570Y-50190077D01*
X118592205Y-50199405D01*
X118496967Y-50294643D01*
X118492248Y-50300392D01*
X118490750Y-50301692D01*
X118489328Y-50303951D01*
X118487640Y-50306008D01*
X118486882Y-50307835D01*
X118482918Y-50314135D01*
X118435299Y-50409373D01*
X118434889Y-50410442D01*
X118434567Y-50410878D01*
X118432371Y-50417023D01*
X118430044Y-50423105D01*
X118430005Y-50423644D01*
X118429620Y-50424724D01*
X118382001Y-50615200D01*
X118381625Y-50617736D01*
X118381203Y-50618758D01*
X118380660Y-50624270D01*
X118379851Y-50629744D01*
X118380013Y-50630836D01*
X118379762Y-50633390D01*
X118105247Y-50633390D01*
X118144960Y-50514251D01*
X118146609Y-50506995D01*
X118147368Y-50505165D01*
X118147629Y-50502511D01*
X118148220Y-50499914D01*
X118148079Y-50497939D01*
X118148809Y-50490533D01*
X118148809Y-50395295D01*
X118147368Y-50380663D01*
X118146337Y-50378174D01*
X118146146Y-50375485D01*
X118140891Y-50361754D01*
X118093272Y-50266516D01*
X118089307Y-50260216D01*
X118088550Y-50258389D01*
X118086861Y-50256332D01*
X118085440Y-50254073D01*
X118083941Y-50252773D01*
X118079223Y-50247024D01*
X118031604Y-50199405D01*
X118025854Y-50194686D01*
X118024555Y-50193188D01*
X118022295Y-50191766D01*
X118020239Y-50190078D01*
X118018411Y-50189320D01*
X118012112Y-50185356D01*
X117916874Y-50137737D01*
X117903142Y-50132482D01*
X117900454Y-50132291D01*
X117897965Y-50131260D01*
X117883333Y-50129819D01*
X117645238Y-50129819D01*
X117630606Y-50131260D01*
X117628117Y-50132290D01*
X117625428Y-50132482D01*
X117611697Y-50137737D01*
X117516459Y-50185356D01*
X117510159Y-50189320D01*
X117508332Y-50190078D01*
X117506275Y-50191766D01*
X117504016Y-50193188D01*
X117502716Y-50194686D01*
X117496967Y-50199405D01*
X117449348Y-50247024D01*
X117440021Y-50258389D01*
X117428822Y-50285426D01*
X117428822Y-50314688D01*
X117440021Y-50341725D01*
X117460713Y-50362417D01*
X117487750Y-50373616D01*
X117517012Y-50373616D01*
X117544049Y-50362417D01*
X117555414Y-50353090D01*
X117594427Y-50314077D01*
X117662943Y-50279819D01*
X117865628Y-50279819D01*
X117934144Y-50314077D01*
X117964551Y-50344484D01*
X117998809Y-50413000D01*
X117998809Y-50478363D01*
X117960637Y-50592876D01*
X117401729Y-51151786D01*
X117392402Y-51163151D01*
X117381203Y-51190187D01*
X117148810Y-51190187D01*
X117148810Y-50204819D01*
X117147369Y-50190187D01*
X117136170Y-50163151D01*
X117115478Y-50142459D01*
X117088442Y-50131260D01*
X117059178Y-50131260D01*
X117032142Y-50142459D01*
X117011450Y-50163151D01*
X117000251Y-50190187D01*
X116998810Y-50204819D01*
X116887699Y-50204819D01*
X116887699Y-50018708D01*
X119258479Y-50018708D01*
X119258479Y-51390930D01*
G37*
X94311905Y-94554819D02*
X94311905Y-93554819D01*
X94311905Y-93554819D02*
X94692857Y-93554819D01*
X94692857Y-93554819D02*
X94788095Y-93602438D01*
X94788095Y-93602438D02*
X94835714Y-93650057D01*
X94835714Y-93650057D02*
X94883333Y-93745295D01*
X94883333Y-93745295D02*
X94883333Y-93888152D01*
X94883333Y-93888152D02*
X94835714Y-93983390D01*
X94835714Y-93983390D02*
X94788095Y-94031009D01*
X94788095Y-94031009D02*
X94692857Y-94078628D01*
X94692857Y-94078628D02*
X94311905Y-94078628D01*
X95216667Y-93554819D02*
X95835714Y-93554819D01*
X95835714Y-93554819D02*
X95502381Y-93935771D01*
X95502381Y-93935771D02*
X95645238Y-93935771D01*
X95645238Y-93935771D02*
X95740476Y-93983390D01*
X95740476Y-93983390D02*
X95788095Y-94031009D01*
X95788095Y-94031009D02*
X95835714Y-94126247D01*
X95835714Y-94126247D02*
X95835714Y-94364342D01*
X95835714Y-94364342D02*
X95788095Y-94459580D01*
X95788095Y-94459580D02*
X95740476Y-94507200D01*
X95740476Y-94507200D02*
X95645238Y-94554819D01*
X95645238Y-94554819D02*
X95359524Y-94554819D01*
X95359524Y-94554819D02*
X95264286Y-94507200D01*
X95264286Y-94507200D02*
X95216667Y-94459580D01*
D11*
X119632304Y-97747333D02*
X119060876Y-97747333D01*
X119060876Y-97747333D02*
X118946590Y-97709238D01*
X118946590Y-97709238D02*
X118870400Y-97633047D01*
X118870400Y-97633047D02*
X118832304Y-97518762D01*
X118832304Y-97518762D02*
X118832304Y-97442571D01*
X119632304Y-98471143D02*
X119632304Y-98318762D01*
X119632304Y-98318762D02*
X119594209Y-98242571D01*
X119594209Y-98242571D02*
X119556114Y-98204476D01*
X119556114Y-98204476D02*
X119441828Y-98128286D01*
X119441828Y-98128286D02*
X119289447Y-98090190D01*
X119289447Y-98090190D02*
X118984685Y-98090190D01*
X118984685Y-98090190D02*
X118908495Y-98128286D01*
X118908495Y-98128286D02*
X118870400Y-98166381D01*
X118870400Y-98166381D02*
X118832304Y-98242571D01*
X118832304Y-98242571D02*
X118832304Y-98394952D01*
X118832304Y-98394952D02*
X118870400Y-98471143D01*
X118870400Y-98471143D02*
X118908495Y-98509238D01*
X118908495Y-98509238D02*
X118984685Y-98547333D01*
X118984685Y-98547333D02*
X119175161Y-98547333D01*
X119175161Y-98547333D02*
X119251352Y-98509238D01*
X119251352Y-98509238D02*
X119289447Y-98471143D01*
X119289447Y-98471143D02*
X119327542Y-98394952D01*
X119327542Y-98394952D02*
X119327542Y-98242571D01*
X119327542Y-98242571D02*
X119289447Y-98166381D01*
X119289447Y-98166381D02*
X119251352Y-98128286D01*
X119251352Y-98128286D02*
X119175161Y-98090190D01*
D10*
G36*
X102671245Y-58552930D02*
G01*
X100776153Y-58552930D01*
X100776153Y-57850249D01*
X100887264Y-57850249D01*
X100888355Y-57853864D01*
X100888355Y-57857640D01*
X100892549Y-57867765D01*
X100895717Y-57878265D01*
X100898108Y-57881188D01*
X100899554Y-57884677D01*
X100907307Y-57892430D01*
X100914248Y-57900913D01*
X100917574Y-57902697D01*
X100920246Y-57905369D01*
X100930373Y-57909564D01*
X100940035Y-57914747D01*
X100943794Y-57915122D01*
X100947283Y-57916568D01*
X100958244Y-57916568D01*
X100969154Y-57917659D01*
X100972770Y-57916568D01*
X100976545Y-57916568D01*
X100986670Y-57912373D01*
X100997170Y-57909206D01*
X101000093Y-57906814D01*
X101003582Y-57905369D01*
X101014947Y-57896042D01*
X101053960Y-57857029D01*
X101122476Y-57822771D01*
X101325161Y-57822771D01*
X101393677Y-57857029D01*
X101424084Y-57887436D01*
X101458342Y-57955952D01*
X101458342Y-58158637D01*
X101424083Y-58227153D01*
X101393676Y-58257561D01*
X101325161Y-58291819D01*
X101122476Y-58291819D01*
X101053960Y-58257561D01*
X101014948Y-58218548D01*
X101003582Y-58209220D01*
X100976546Y-58198021D01*
X100947283Y-58198021D01*
X100920247Y-58209219D01*
X100899554Y-58229912D01*
X100888355Y-58256948D01*
X100888355Y-58286211D01*
X100899553Y-58313247D01*
X100908880Y-58324612D01*
X100956499Y-58372232D01*
X100962248Y-58376950D01*
X100963549Y-58378450D01*
X100965808Y-58379872D01*
X100967865Y-58381560D01*
X100969692Y-58382317D01*
X100975992Y-58386282D01*
X101071230Y-58433901D01*
X101084961Y-58439156D01*
X101087650Y-58439347D01*
X101090139Y-58440378D01*
X101104771Y-58441819D01*
X101342866Y-58441819D01*
X101357498Y-58440378D01*
X101359987Y-58439346D01*
X101362675Y-58439156D01*
X101376407Y-58433901D01*
X101471645Y-58386282D01*
X101477944Y-58382317D01*
X101479772Y-58381560D01*
X101481828Y-58379872D01*
X101484088Y-58378450D01*
X101485388Y-58376950D01*
X101491138Y-58372232D01*
X101538756Y-58324613D01*
X101543474Y-58318863D01*
X101544973Y-58317564D01*
X101546394Y-58315305D01*
X101548084Y-58313247D01*
X101548841Y-58311417D01*
X101552805Y-58305121D01*
X101600424Y-58209883D01*
X101605679Y-58196152D01*
X101605870Y-58193462D01*
X101606901Y-58190974D01*
X101608342Y-58176342D01*
X101608342Y-57938247D01*
X101606901Y-57923615D01*
X101605870Y-57921126D01*
X101605679Y-57918437D01*
X101600424Y-57904706D01*
X101552805Y-57809468D01*
X101548840Y-57803168D01*
X101548083Y-57801341D01*
X101546394Y-57799284D01*
X101544973Y-57797025D01*
X101543474Y-57795725D01*
X101538756Y-57789976D01*
X101491137Y-57742357D01*
X101485387Y-57737638D01*
X101484088Y-57736140D01*
X101481828Y-57734718D01*
X101479772Y-57733030D01*
X101477944Y-57732272D01*
X101471645Y-57728308D01*
X101376407Y-57680689D01*
X101362675Y-57675434D01*
X101359987Y-57675243D01*
X101357498Y-57674212D01*
X101342866Y-57672771D01*
X101104771Y-57672771D01*
X101090139Y-57674212D01*
X101087650Y-57675242D01*
X101084961Y-57675434D01*
X101071230Y-57680689D01*
X101052588Y-57690009D01*
X101077407Y-57441819D01*
X101485723Y-57441819D01*
X101500355Y-57440378D01*
X101527391Y-57429179D01*
X101548083Y-57408487D01*
X101559282Y-57381451D01*
X101559282Y-57376199D01*
X101744646Y-57376199D01*
X101747906Y-57390536D01*
X102081239Y-58390536D01*
X102087233Y-58403961D01*
X102090743Y-58408008D01*
X102093140Y-58412802D01*
X102100248Y-58418967D01*
X102106407Y-58426068D01*
X102111196Y-58428462D01*
X102115247Y-58431976D01*
X102124172Y-58434950D01*
X102132580Y-58439155D01*
X102137924Y-58439534D01*
X102143010Y-58441230D01*
X102152390Y-58440563D01*
X102161770Y-58441230D01*
X102166855Y-58439534D01*
X102172200Y-58439155D01*
X102180610Y-58434949D01*
X102189532Y-58431976D01*
X102193579Y-58428465D01*
X102198373Y-58426069D01*
X102204536Y-58418963D01*
X102211640Y-58412802D01*
X102214035Y-58408010D01*
X102217547Y-58403962D01*
X102223541Y-58390536D01*
X102556874Y-57390536D01*
X102560134Y-57376200D01*
X102558059Y-57347010D01*
X102544973Y-57320836D01*
X102522865Y-57301662D01*
X102495103Y-57292408D01*
X102465913Y-57294483D01*
X102439740Y-57307570D01*
X102420566Y-57329677D01*
X102414572Y-57343102D01*
X102152390Y-58129648D01*
X101890208Y-57343102D01*
X101884214Y-57329676D01*
X101865040Y-57307569D01*
X101838867Y-57294483D01*
X101809677Y-57292408D01*
X101781914Y-57301662D01*
X101759807Y-57320836D01*
X101746721Y-57347009D01*
X101744646Y-57376199D01*
X101559282Y-57376199D01*
X101559282Y-57352187D01*
X101548083Y-57325151D01*
X101527391Y-57304459D01*
X101500355Y-57293260D01*
X101485723Y-57291819D01*
X101009533Y-57291819D01*
X101004121Y-57292351D01*
X101002293Y-57292169D01*
X101000506Y-57292707D01*
X100994901Y-57293260D01*
X100984774Y-57297454D01*
X100974277Y-57300622D01*
X100971353Y-57303013D01*
X100967865Y-57304459D01*
X100960111Y-57312212D01*
X100951629Y-57319153D01*
X100949844Y-57322479D01*
X100947173Y-57325151D01*
X100942977Y-57335280D01*
X100937795Y-57344940D01*
X100936687Y-57350464D01*
X100935974Y-57352187D01*
X100935974Y-57354023D01*
X100934905Y-57359356D01*
X100887286Y-57835546D01*
X100887264Y-57850249D01*
X100776153Y-57850249D01*
X100776153Y-57180708D01*
X102671245Y-57180708D01*
X102671245Y-58552930D01*
G37*
X98552638Y-105151519D02*
X98552638Y-104151519D01*
X98552638Y-104151519D02*
X98885971Y-104865804D01*
X98885971Y-104865804D02*
X99219304Y-104151519D01*
X99219304Y-104151519D02*
X99219304Y-105151519D01*
X100124066Y-105151519D02*
X100124066Y-104627709D01*
X100124066Y-104627709D02*
X100076447Y-104532471D01*
X100076447Y-104532471D02*
X99981209Y-104484852D01*
X99981209Y-104484852D02*
X99790733Y-104484852D01*
X99790733Y-104484852D02*
X99695495Y-104532471D01*
X100124066Y-105103900D02*
X100028828Y-105151519D01*
X100028828Y-105151519D02*
X99790733Y-105151519D01*
X99790733Y-105151519D02*
X99695495Y-105103900D01*
X99695495Y-105103900D02*
X99647876Y-105008661D01*
X99647876Y-105008661D02*
X99647876Y-104913423D01*
X99647876Y-104913423D02*
X99695495Y-104818185D01*
X99695495Y-104818185D02*
X99790733Y-104770566D01*
X99790733Y-104770566D02*
X100028828Y-104770566D01*
X100028828Y-104770566D02*
X100124066Y-104722947D01*
X101028828Y-104484852D02*
X101028828Y-105294376D01*
X101028828Y-105294376D02*
X100981209Y-105389614D01*
X100981209Y-105389614D02*
X100933590Y-105437233D01*
X100933590Y-105437233D02*
X100838352Y-105484852D01*
X100838352Y-105484852D02*
X100695495Y-105484852D01*
X100695495Y-105484852D02*
X100600257Y-105437233D01*
X101028828Y-105103900D02*
X100933590Y-105151519D01*
X100933590Y-105151519D02*
X100743114Y-105151519D01*
X100743114Y-105151519D02*
X100647876Y-105103900D01*
X100647876Y-105103900D02*
X100600257Y-105056280D01*
X100600257Y-105056280D02*
X100552638Y-104961042D01*
X100552638Y-104961042D02*
X100552638Y-104675328D01*
X100552638Y-104675328D02*
X100600257Y-104580090D01*
X100600257Y-104580090D02*
X100647876Y-104532471D01*
X100647876Y-104532471D02*
X100743114Y-104484852D01*
X100743114Y-104484852D02*
X100933590Y-104484852D01*
X100933590Y-104484852D02*
X101028828Y-104532471D01*
X101505019Y-105151519D02*
X101505019Y-104484852D01*
X101505019Y-104151519D02*
X101457400Y-104199138D01*
X101457400Y-104199138D02*
X101505019Y-104246757D01*
X101505019Y-104246757D02*
X101552638Y-104199138D01*
X101552638Y-104199138D02*
X101505019Y-104151519D01*
X101505019Y-104151519D02*
X101505019Y-104246757D01*
X102409780Y-105103900D02*
X102314542Y-105151519D01*
X102314542Y-105151519D02*
X102124066Y-105151519D01*
X102124066Y-105151519D02*
X102028828Y-105103900D01*
X102028828Y-105103900D02*
X101981209Y-105056280D01*
X101981209Y-105056280D02*
X101933590Y-104961042D01*
X101933590Y-104961042D02*
X101933590Y-104675328D01*
X101933590Y-104675328D02*
X101981209Y-104580090D01*
X101981209Y-104580090D02*
X102028828Y-104532471D01*
X102028828Y-104532471D02*
X102124066Y-104484852D01*
X102124066Y-104484852D02*
X102314542Y-104484852D01*
X102314542Y-104484852D02*
X102409780Y-104532471D01*
X111261905Y-84954819D02*
X111261905Y-85764342D01*
X111261905Y-85764342D02*
X111309524Y-85859580D01*
X111309524Y-85859580D02*
X111357143Y-85907200D01*
X111357143Y-85907200D02*
X111452381Y-85954819D01*
X111452381Y-85954819D02*
X111642857Y-85954819D01*
X111642857Y-85954819D02*
X111738095Y-85907200D01*
X111738095Y-85907200D02*
X111785714Y-85859580D01*
X111785714Y-85859580D02*
X111833333Y-85764342D01*
X111833333Y-85764342D02*
X111833333Y-84954819D01*
X112833333Y-85954819D02*
X112261905Y-85954819D01*
X112547619Y-85954819D02*
X112547619Y-84954819D01*
X112547619Y-84954819D02*
X112452381Y-85097676D01*
X112452381Y-85097676D02*
X112357143Y-85192914D01*
X112357143Y-85192914D02*
X112261905Y-85240533D01*
X113452381Y-84954819D02*
X113547619Y-84954819D01*
X113547619Y-84954819D02*
X113642857Y-85002438D01*
X113642857Y-85002438D02*
X113690476Y-85050057D01*
X113690476Y-85050057D02*
X113738095Y-85145295D01*
X113738095Y-85145295D02*
X113785714Y-85335771D01*
X113785714Y-85335771D02*
X113785714Y-85573866D01*
X113785714Y-85573866D02*
X113738095Y-85764342D01*
X113738095Y-85764342D02*
X113690476Y-85859580D01*
X113690476Y-85859580D02*
X113642857Y-85907200D01*
X113642857Y-85907200D02*
X113547619Y-85954819D01*
X113547619Y-85954819D02*
X113452381Y-85954819D01*
X113452381Y-85954819D02*
X113357143Y-85907200D01*
X113357143Y-85907200D02*
X113309524Y-85859580D01*
X113309524Y-85859580D02*
X113261905Y-85764342D01*
X113261905Y-85764342D02*
X113214286Y-85573866D01*
X113214286Y-85573866D02*
X113214286Y-85335771D01*
X113214286Y-85335771D02*
X113261905Y-85145295D01*
X113261905Y-85145295D02*
X113309524Y-85050057D01*
X113309524Y-85050057D02*
X113357143Y-85002438D01*
X113357143Y-85002438D02*
X113452381Y-84954819D01*
G36*
X57888182Y-52838020D02*
G01*
X57918589Y-52868427D01*
X57952847Y-52936943D01*
X57952847Y-53044390D01*
X57918589Y-53112906D01*
X57888182Y-53143313D01*
X57819666Y-53177571D01*
X57569362Y-53177571D01*
X57500846Y-53143313D01*
X57470438Y-53112905D01*
X57436180Y-53044388D01*
X57436180Y-52936944D01*
X57470438Y-52868427D01*
X57500846Y-52838020D01*
X57569362Y-52803762D01*
X57819666Y-52803762D01*
X57888182Y-52838020D01*
G37*
G36*
X57888182Y-51933258D02*
G01*
X57918589Y-51963665D01*
X57952847Y-52032181D01*
X57952847Y-52139628D01*
X57918589Y-52208144D01*
X57888182Y-52238551D01*
X57819666Y-52272809D01*
X57569362Y-52272809D01*
X57500846Y-52238551D01*
X57470438Y-52208143D01*
X57436180Y-52139626D01*
X57436180Y-52032182D01*
X57470438Y-51963665D01*
X57500846Y-51933258D01*
X57569362Y-51899000D01*
X57819666Y-51899000D01*
X57888182Y-51933258D01*
G37*
G36*
X57809990Y-51192782D02*
G01*
X57771819Y-51307295D01*
X57745325Y-51333789D01*
X57676809Y-51368047D01*
X57569362Y-51368047D01*
X57500846Y-51333789D01*
X57470438Y-51303381D01*
X57436180Y-51234864D01*
X57436180Y-50946619D01*
X57809990Y-50946619D01*
X57809990Y-51192782D01*
G37*
G36*
X58286180Y-51187247D02*
G01*
X58251922Y-51255763D01*
X58221515Y-51286170D01*
X58152999Y-51320428D01*
X58093171Y-51320428D01*
X58024655Y-51286170D01*
X57994248Y-51255763D01*
X57959990Y-51187247D01*
X57959990Y-50946619D01*
X58286180Y-50946619D01*
X58286180Y-51187247D01*
G37*
G36*
X58547291Y-54103908D02*
G01*
X57175069Y-54103908D01*
X57175069Y-53824000D01*
X57286180Y-53824000D01*
X57286180Y-53919238D01*
X57287621Y-53933870D01*
X57298820Y-53960906D01*
X57319512Y-53981598D01*
X57346548Y-53992797D01*
X57375812Y-53992797D01*
X57402848Y-53981598D01*
X57423540Y-53960906D01*
X57434739Y-53933870D01*
X57436180Y-53919238D01*
X57436180Y-53841706D01*
X57464701Y-53784663D01*
X57521743Y-53756143D01*
X57952847Y-53756143D01*
X57952847Y-53919238D01*
X57954288Y-53933870D01*
X57965487Y-53960906D01*
X57986179Y-53981598D01*
X58013215Y-53992797D01*
X58042479Y-53992797D01*
X58069515Y-53981598D01*
X58090207Y-53960906D01*
X58101406Y-53933870D01*
X58102847Y-53919238D01*
X58102847Y-53756143D01*
X58361180Y-53756143D01*
X58375812Y-53754702D01*
X58402848Y-53743503D01*
X58423540Y-53722811D01*
X58434739Y-53695775D01*
X58434739Y-53666511D01*
X58423540Y-53639475D01*
X58402848Y-53618783D01*
X58375812Y-53607584D01*
X58361180Y-53606143D01*
X58102847Y-53606143D01*
X58102847Y-53538286D01*
X58101406Y-53523654D01*
X58090207Y-53496618D01*
X58069515Y-53475926D01*
X58042479Y-53464727D01*
X58013215Y-53464727D01*
X57986179Y-53475926D01*
X57965487Y-53496618D01*
X57954288Y-53523654D01*
X57952847Y-53538286D01*
X57952847Y-53606143D01*
X57504038Y-53606143D01*
X57489406Y-53607584D01*
X57486917Y-53608614D01*
X57484228Y-53608806D01*
X57470497Y-53614061D01*
X57375259Y-53661680D01*
X57372813Y-53663219D01*
X57371659Y-53663604D01*
X57370221Y-53664851D01*
X57362816Y-53669512D01*
X57356655Y-53676616D01*
X57349551Y-53682777D01*
X57344887Y-53690184D01*
X57343643Y-53691620D01*
X57343258Y-53692772D01*
X57341718Y-53695220D01*
X57294098Y-53790458D01*
X57288843Y-53804190D01*
X57288651Y-53806879D01*
X57287621Y-53809368D01*
X57286180Y-53824000D01*
X57175069Y-53824000D01*
X57175069Y-52919238D01*
X57286180Y-52919238D01*
X57286180Y-53062095D01*
X57287621Y-53076727D01*
X57288651Y-53079215D01*
X57288843Y-53081905D01*
X57294098Y-53095637D01*
X57341718Y-53190875D01*
X57345683Y-53197173D01*
X57346440Y-53199001D01*
X57348128Y-53201058D01*
X57349551Y-53203318D01*
X57351049Y-53204617D01*
X57355767Y-53210366D01*
X57403386Y-53257985D01*
X57409135Y-53262703D01*
X57410435Y-53264202D01*
X57412694Y-53265623D01*
X57414751Y-53267312D01*
X57416578Y-53268069D01*
X57422878Y-53272034D01*
X57518116Y-53319653D01*
X57531847Y-53324908D01*
X57534536Y-53325099D01*
X57537025Y-53326130D01*
X57551657Y-53327571D01*
X57837371Y-53327571D01*
X57852003Y-53326130D01*
X57854492Y-53325098D01*
X57857180Y-53324908D01*
X57870912Y-53319653D01*
X57966150Y-53272034D01*
X57972449Y-53268069D01*
X57974277Y-53267312D01*
X57976333Y-53265623D01*
X57978593Y-53264202D01*
X57979892Y-53262703D01*
X57985642Y-53257985D01*
X58033261Y-53210366D01*
X58037979Y-53204616D01*
X58039478Y-53203317D01*
X58040899Y-53201057D01*
X58042588Y-53199001D01*
X58043345Y-53197173D01*
X58047310Y-53190874D01*
X58094929Y-53095636D01*
X58100184Y-53081905D01*
X58100375Y-53079215D01*
X58101406Y-53076727D01*
X58102847Y-53062095D01*
X58102847Y-52919238D01*
X58101406Y-52904606D01*
X58100375Y-52902117D01*
X58100184Y-52899428D01*
X58094929Y-52885697D01*
X58047310Y-52790459D01*
X58043345Y-52784159D01*
X58042588Y-52782332D01*
X58040899Y-52780275D01*
X58039478Y-52778016D01*
X58037979Y-52776716D01*
X58033261Y-52770967D01*
X57985642Y-52723348D01*
X57979892Y-52718629D01*
X57978593Y-52717131D01*
X57976333Y-52715709D01*
X57974277Y-52714021D01*
X57972449Y-52713263D01*
X57966150Y-52709299D01*
X57870912Y-52661680D01*
X57857180Y-52656425D01*
X57854492Y-52656234D01*
X57852003Y-52655203D01*
X57837371Y-52653762D01*
X57551657Y-52653762D01*
X57537025Y-52655203D01*
X57534536Y-52656233D01*
X57531847Y-52656425D01*
X57518116Y-52661680D01*
X57422878Y-52709299D01*
X57416578Y-52713263D01*
X57414751Y-52714021D01*
X57412694Y-52715709D01*
X57410435Y-52717131D01*
X57409135Y-52718629D01*
X57403386Y-52723348D01*
X57355767Y-52770967D01*
X57351049Y-52776715D01*
X57349551Y-52778015D01*
X57348128Y-52780274D01*
X57346440Y-52782332D01*
X57345683Y-52784159D01*
X57341718Y-52790458D01*
X57294098Y-52885696D01*
X57288843Y-52899428D01*
X57288651Y-52902117D01*
X57287621Y-52904606D01*
X57286180Y-52919238D01*
X57175069Y-52919238D01*
X57175069Y-52014476D01*
X57286180Y-52014476D01*
X57286180Y-52157333D01*
X57287621Y-52171965D01*
X57288651Y-52174453D01*
X57288843Y-52177143D01*
X57294098Y-52190875D01*
X57341718Y-52286113D01*
X57345683Y-52292411D01*
X57346440Y-52294239D01*
X57348128Y-52296296D01*
X57349551Y-52298556D01*
X57351049Y-52299855D01*
X57355767Y-52305604D01*
X57403386Y-52353223D01*
X57409135Y-52357941D01*
X57410435Y-52359440D01*
X57412694Y-52360861D01*
X57414751Y-52362550D01*
X57416578Y-52363307D01*
X57422878Y-52367272D01*
X57518116Y-52414891D01*
X57531847Y-52420146D01*
X57534536Y-52420337D01*
X57537025Y-52421368D01*
X57551657Y-52422809D01*
X57837371Y-52422809D01*
X57852003Y-52421368D01*
X57854492Y-52420336D01*
X57857180Y-52420146D01*
X57870912Y-52414891D01*
X57966150Y-52367272D01*
X57972449Y-52363307D01*
X57974277Y-52362550D01*
X57976333Y-52360861D01*
X57978593Y-52359440D01*
X57979892Y-52357941D01*
X57985642Y-52353223D01*
X58033261Y-52305604D01*
X58037979Y-52299854D01*
X58039478Y-52298555D01*
X58040899Y-52296295D01*
X58042588Y-52294239D01*
X58043345Y-52292411D01*
X58047310Y-52286112D01*
X58094929Y-52190874D01*
X58100184Y-52177143D01*
X58100375Y-52174453D01*
X58101406Y-52171965D01*
X58102847Y-52157333D01*
X58102847Y-52014476D01*
X58101406Y-51999844D01*
X58100375Y-51997355D01*
X58100184Y-51994666D01*
X58094929Y-51980935D01*
X58047310Y-51885697D01*
X58043345Y-51879397D01*
X58042588Y-51877570D01*
X58040899Y-51875513D01*
X58039478Y-51873254D01*
X58037979Y-51871954D01*
X58033261Y-51866205D01*
X57985642Y-51818586D01*
X57979892Y-51813867D01*
X57978593Y-51812369D01*
X57976333Y-51810947D01*
X57974277Y-51809259D01*
X57972449Y-51808501D01*
X57966150Y-51804537D01*
X57870912Y-51756918D01*
X57857180Y-51751663D01*
X57854492Y-51751472D01*
X57852003Y-51750441D01*
X57837371Y-51749000D01*
X57551657Y-51749000D01*
X57537025Y-51750441D01*
X57534536Y-51751471D01*
X57531847Y-51751663D01*
X57518116Y-51756918D01*
X57422878Y-51804537D01*
X57416578Y-51808501D01*
X57414751Y-51809259D01*
X57412694Y-51810947D01*
X57410435Y-51812369D01*
X57409135Y-51813867D01*
X57403386Y-51818586D01*
X57355767Y-51866205D01*
X57351049Y-51871953D01*
X57349551Y-51873253D01*
X57348128Y-51875512D01*
X57346440Y-51877570D01*
X57345683Y-51879397D01*
X57341718Y-51885696D01*
X57294098Y-51980934D01*
X57288843Y-51994666D01*
X57288651Y-51997355D01*
X57287621Y-51999844D01*
X57286180Y-52014476D01*
X57175069Y-52014476D01*
X57175069Y-50871619D01*
X57286180Y-50871619D01*
X57286180Y-51252571D01*
X57287621Y-51267203D01*
X57288651Y-51269691D01*
X57288843Y-51272381D01*
X57294098Y-51286113D01*
X57341718Y-51381351D01*
X57345683Y-51387649D01*
X57346440Y-51389477D01*
X57348128Y-51391534D01*
X57349551Y-51393794D01*
X57351049Y-51395093D01*
X57355767Y-51400842D01*
X57403386Y-51448461D01*
X57409135Y-51453179D01*
X57410435Y-51454678D01*
X57412694Y-51456099D01*
X57414751Y-51457788D01*
X57416578Y-51458545D01*
X57422878Y-51462510D01*
X57518116Y-51510129D01*
X57531847Y-51515384D01*
X57534536Y-51515575D01*
X57537025Y-51516606D01*
X57551657Y-51518047D01*
X57694514Y-51518047D01*
X57709146Y-51516606D01*
X57711635Y-51515574D01*
X57714323Y-51515384D01*
X57728055Y-51510129D01*
X57823293Y-51462510D01*
X57829592Y-51458545D01*
X57831420Y-51457788D01*
X57833476Y-51456099D01*
X57835736Y-51454678D01*
X57837035Y-51453179D01*
X57842785Y-51448461D01*
X57890404Y-51400842D01*
X57899731Y-51389477D01*
X57900761Y-51386988D01*
X57902528Y-51384952D01*
X57905237Y-51378884D01*
X57927195Y-51400842D01*
X57932944Y-51405560D01*
X57934244Y-51407059D01*
X57936503Y-51408480D01*
X57938560Y-51410169D01*
X57940387Y-51410926D01*
X57946687Y-51414891D01*
X58041925Y-51462510D01*
X58055656Y-51467765D01*
X58058345Y-51467956D01*
X58060834Y-51468987D01*
X58075466Y-51470428D01*
X58170704Y-51470428D01*
X58185336Y-51468987D01*
X58187825Y-51467955D01*
X58190513Y-51467765D01*
X58204245Y-51462510D01*
X58299483Y-51414891D01*
X58305782Y-51410926D01*
X58307610Y-51410169D01*
X58309666Y-51408480D01*
X58311926Y-51407059D01*
X58313225Y-51405560D01*
X58318975Y-51400842D01*
X58366594Y-51353223D01*
X58371312Y-51347473D01*
X58372811Y-51346174D01*
X58374232Y-51343914D01*
X58375921Y-51341858D01*
X58376678Y-51340030D01*
X58380643Y-51333731D01*
X58428262Y-51238493D01*
X58433517Y-51224762D01*
X58433708Y-51222072D01*
X58434739Y-51219584D01*
X58436180Y-51204952D01*
X58436180Y-50871619D01*
X58434739Y-50856987D01*
X58423540Y-50829951D01*
X58402848Y-50809259D01*
X58375812Y-50798060D01*
X58361180Y-50796619D01*
X57361180Y-50796619D01*
X57346548Y-50798060D01*
X57319512Y-50809259D01*
X57298820Y-50829951D01*
X57287621Y-50856987D01*
X57286180Y-50871619D01*
X57175069Y-50871619D01*
X57175069Y-50685508D01*
X58547291Y-50685508D01*
X58547291Y-54103908D01*
G37*
X108226266Y-47511619D02*
X108226266Y-48225904D01*
X108226266Y-48225904D02*
X108178647Y-48368761D01*
X108178647Y-48368761D02*
X108083409Y-48464000D01*
X108083409Y-48464000D02*
X107940552Y-48511619D01*
X107940552Y-48511619D02*
X107845314Y-48511619D01*
X108607219Y-47511619D02*
X109226266Y-47511619D01*
X109226266Y-47511619D02*
X108892933Y-47892571D01*
X108892933Y-47892571D02*
X109035790Y-47892571D01*
X109035790Y-47892571D02*
X109131028Y-47940190D01*
X109131028Y-47940190D02*
X109178647Y-47987809D01*
X109178647Y-47987809D02*
X109226266Y-48083047D01*
X109226266Y-48083047D02*
X109226266Y-48321142D01*
X109226266Y-48321142D02*
X109178647Y-48416380D01*
X109178647Y-48416380D02*
X109131028Y-48464000D01*
X109131028Y-48464000D02*
X109035790Y-48511619D01*
X109035790Y-48511619D02*
X108750076Y-48511619D01*
X108750076Y-48511619D02*
X108654838Y-48464000D01*
X108654838Y-48464000D02*
X108607219Y-48416380D01*
X100099905Y-77043419D02*
X100099905Y-76043419D01*
X100099905Y-76043419D02*
X100480857Y-76043419D01*
X100480857Y-76043419D02*
X100576095Y-76091038D01*
X100576095Y-76091038D02*
X100623714Y-76138657D01*
X100623714Y-76138657D02*
X100671333Y-76233895D01*
X100671333Y-76233895D02*
X100671333Y-76376752D01*
X100671333Y-76376752D02*
X100623714Y-76471990D01*
X100623714Y-76471990D02*
X100576095Y-76519609D01*
X100576095Y-76519609D02*
X100480857Y-76567228D01*
X100480857Y-76567228D02*
X100099905Y-76567228D01*
X101623714Y-77043419D02*
X101052286Y-77043419D01*
X101338000Y-77043419D02*
X101338000Y-76043419D01*
X101338000Y-76043419D02*
X101242762Y-76186276D01*
X101242762Y-76186276D02*
X101147524Y-76281514D01*
X101147524Y-76281514D02*
X101052286Y-76329133D01*
X64288095Y-57504819D02*
X64288095Y-58314342D01*
X64288095Y-58314342D02*
X64335714Y-58409580D01*
X64335714Y-58409580D02*
X64383333Y-58457200D01*
X64383333Y-58457200D02*
X64478571Y-58504819D01*
X64478571Y-58504819D02*
X64669047Y-58504819D01*
X64669047Y-58504819D02*
X64764285Y-58457200D01*
X64764285Y-58457200D02*
X64811904Y-58409580D01*
X64811904Y-58409580D02*
X64859523Y-58314342D01*
X64859523Y-58314342D02*
X64859523Y-57504819D01*
X65240476Y-57504819D02*
X65859523Y-57504819D01*
X65859523Y-57504819D02*
X65526190Y-57885771D01*
X65526190Y-57885771D02*
X65669047Y-57885771D01*
X65669047Y-57885771D02*
X65764285Y-57933390D01*
X65764285Y-57933390D02*
X65811904Y-57981009D01*
X65811904Y-57981009D02*
X65859523Y-58076247D01*
X65859523Y-58076247D02*
X65859523Y-58314342D01*
X65859523Y-58314342D02*
X65811904Y-58409580D01*
X65811904Y-58409580D02*
X65764285Y-58457200D01*
X65764285Y-58457200D02*
X65669047Y-58504819D01*
X65669047Y-58504819D02*
X65383333Y-58504819D01*
X65383333Y-58504819D02*
X65288095Y-58457200D01*
X65288095Y-58457200D02*
X65240476Y-58409580D01*
X102161905Y-94554819D02*
X102161905Y-93554819D01*
X102161905Y-93554819D02*
X102542857Y-93554819D01*
X102542857Y-93554819D02*
X102638095Y-93602438D01*
X102638095Y-93602438D02*
X102685714Y-93650057D01*
X102685714Y-93650057D02*
X102733333Y-93745295D01*
X102733333Y-93745295D02*
X102733333Y-93888152D01*
X102733333Y-93888152D02*
X102685714Y-93983390D01*
X102685714Y-93983390D02*
X102638095Y-94031009D01*
X102638095Y-94031009D02*
X102542857Y-94078628D01*
X102542857Y-94078628D02*
X102161905Y-94078628D01*
X103114286Y-93650057D02*
X103161905Y-93602438D01*
X103161905Y-93602438D02*
X103257143Y-93554819D01*
X103257143Y-93554819D02*
X103495238Y-93554819D01*
X103495238Y-93554819D02*
X103590476Y-93602438D01*
X103590476Y-93602438D02*
X103638095Y-93650057D01*
X103638095Y-93650057D02*
X103685714Y-93745295D01*
X103685714Y-93745295D02*
X103685714Y-93840533D01*
X103685714Y-93840533D02*
X103638095Y-93983390D01*
X103638095Y-93983390D02*
X103066667Y-94554819D01*
X103066667Y-94554819D02*
X103685714Y-94554819D01*
D11*
%TO.C,D2*%
X114316500Y-109346276D02*
X114316500Y-109855724D01*
X115361500Y-109346276D02*
X115361500Y-109855724D01*
%TO.C,U11*%
X53627000Y-70427000D02*
X54027000Y-70427000D01*
X53627000Y-81027000D02*
X53627000Y-70427000D01*
X54027000Y-81027000D02*
X53627000Y-81027000D01*
X54027000Y-82227000D02*
X54027000Y-81027000D01*
X75827000Y-70427000D02*
X76227000Y-70427000D01*
X75827000Y-81027000D02*
X76227000Y-81027000D01*
X76227000Y-81027000D02*
X76227000Y-70427000D01*
%TO.C,C64*%
X77450733Y-92835000D02*
X77743267Y-92835000D01*
X77450733Y-93855000D02*
X77743267Y-93855000D01*
D10*
%TO.C,J4*%
X61386000Y-105388000D02*
X61386000Y-98188000D01*
X61386000Y-108188000D02*
X61386000Y-110488000D01*
X61386000Y-110488000D02*
X68736000Y-110488000D01*
X68736000Y-110488000D02*
X70086000Y-110538000D01*
X70086000Y-110538000D02*
X71236000Y-110688000D01*
X70786000Y-97788000D02*
X70786000Y-98088000D01*
X70786000Y-98088000D02*
X71086000Y-98088000D01*
X71086000Y-97788000D02*
X70786000Y-97788000D01*
X71086000Y-98088000D02*
X71086000Y-97788000D01*
X71236000Y-110688000D02*
X72336000Y-110888000D01*
X71536000Y-97188000D02*
X71536000Y-95888000D01*
X71536000Y-97188000D02*
X74536000Y-97188000D01*
X72336000Y-110888000D02*
X73386000Y-111188000D01*
X73386000Y-111188000D02*
X76086000Y-111188000D01*
X76086000Y-98188000D02*
X76086000Y-105388000D01*
X76086000Y-111188000D02*
X76086000Y-108188000D01*
D11*
%TO.C,U7*%
X80078144Y-67106078D02*
X80078144Y-67806078D01*
X80278144Y-67306078D02*
X80278144Y-84506078D01*
X80278144Y-84506078D02*
X97478144Y-84506078D01*
X80778144Y-67106078D02*
X80078144Y-67106078D01*
X97478144Y-67306078D02*
X80278144Y-67306078D01*
X97478144Y-84506078D02*
X97478144Y-67306078D01*
%TO.C,C93*%
X77746267Y-94340000D02*
X77453733Y-94340000D01*
X77746267Y-95360000D02*
X77453733Y-95360000D01*
%TO.C,C42*%
X82061267Y-60704000D02*
X81768733Y-60704000D01*
X82061267Y-61724000D02*
X81768733Y-61724000D01*
%TO.C,C88*%
X99616800Y-64078067D02*
X99616800Y-63785533D01*
X100636800Y-64078067D02*
X100636800Y-63785533D01*
%TO.C,R46*%
X73913276Y-91298500D02*
X74422724Y-91298500D01*
X73913276Y-92343500D02*
X74422724Y-92343500D01*
D13*
%TO.C,U16*%
X85512000Y-86781000D02*
X81112000Y-86781000D01*
X85512000Y-91781000D02*
X81112000Y-91781000D01*
D14*
X87652000Y-91541000D02*
G75*
G02*
X87452000Y-91541000I-100000J0D01*
G01*
X87452000Y-91541000D02*
G75*
G02*
X87652000Y-91541000I100000J0D01*
G01*
D11*
%TO.C,C69*%
X74021733Y-85215000D02*
X74314267Y-85215000D01*
X74021733Y-86235000D02*
X74314267Y-86235000D01*
%TO.C,C74*%
X74021733Y-86739000D02*
X74314267Y-86739000D01*
X74021733Y-87759000D02*
X74314267Y-87759000D01*
D15*
%TO.C,G\u002A\u002A\u002A*%
G36*
X55606816Y-88357669D02*
G01*
X55606816Y-88857809D01*
X55463919Y-88857809D01*
X55321022Y-88857809D01*
X55321022Y-88357669D01*
X55321022Y-87857528D01*
X55463919Y-87857528D01*
X55606816Y-87857528D01*
X55606816Y-88357669D01*
G37*
G36*
X55606816Y-89500847D02*
G01*
X55606816Y-90000988D01*
X55463919Y-90000988D01*
X55321022Y-90000988D01*
X55321022Y-89500847D01*
X55321022Y-89000707D01*
X55463919Y-89000707D01*
X55606816Y-89000707D01*
X55606816Y-89500847D01*
G37*
G36*
X55606816Y-90644026D02*
G01*
X55606816Y-91144167D01*
X55463919Y-91144167D01*
X55321022Y-91144167D01*
X55321022Y-90644026D01*
X55321022Y-90143885D01*
X55463919Y-90143885D01*
X55606816Y-90143885D01*
X55606816Y-90644026D01*
G37*
G36*
X55606816Y-91787205D02*
G01*
X55606816Y-92287345D01*
X55463919Y-92287345D01*
X55321022Y-92287345D01*
X55321022Y-91787205D01*
X55321022Y-91287064D01*
X55463919Y-91287064D01*
X55606816Y-91287064D01*
X55606816Y-91787205D01*
G37*
G36*
X58607660Y-88357669D02*
G01*
X58607660Y-88857809D01*
X58464763Y-88857809D01*
X58321866Y-88857809D01*
X58321866Y-88357669D01*
X58321866Y-87857528D01*
X58464763Y-87857528D01*
X58607660Y-87857528D01*
X58607660Y-88357669D01*
G37*
G36*
X57893174Y-92358794D02*
G01*
X57893174Y-93430524D01*
X57750276Y-93430524D01*
X57607379Y-93430524D01*
X57607379Y-92501691D01*
X57607379Y-91572859D01*
X57035790Y-91572859D01*
X56464200Y-91572859D01*
X56464200Y-91429961D01*
X56464200Y-91287064D01*
X57178687Y-91287064D01*
X57893174Y-91287064D01*
X57893174Y-92358794D01*
G37*
G36*
X55321022Y-100432493D02*
G01*
X55606816Y-100432493D01*
X55606816Y-101504223D01*
X55606816Y-102575953D01*
X54892330Y-102575953D01*
X54177843Y-102575953D01*
X54177843Y-101504223D01*
X54177843Y-100718288D01*
X54463638Y-100718288D01*
X54463638Y-101504223D01*
X54463638Y-102290158D01*
X54892330Y-102290158D01*
X55321022Y-102290158D01*
X55321022Y-101504223D01*
X55321022Y-100718288D01*
X54892330Y-100718288D01*
X54463638Y-100718288D01*
X54177843Y-100718288D01*
X54177843Y-100432493D01*
X54892330Y-100432493D01*
X55321022Y-100432493D01*
G37*
G36*
X58607660Y-86857247D02*
G01*
X58607660Y-87000144D01*
X58250417Y-87000144D01*
X57893174Y-87000144D01*
X57893174Y-87928977D01*
X57893174Y-88857809D01*
X57178687Y-88857809D01*
X56464200Y-88857809D01*
X56464200Y-88714912D01*
X56464200Y-88572015D01*
X57035790Y-88572015D01*
X57607379Y-88572015D01*
X57607379Y-87786079D01*
X57607379Y-87000144D01*
X57035790Y-87000144D01*
X56464200Y-87000144D01*
X56464200Y-86857247D01*
X56464200Y-86714350D01*
X57535930Y-86714350D01*
X58607660Y-86714350D01*
X58607660Y-86857247D01*
G37*
G36*
X57607379Y-95859778D02*
G01*
X58607660Y-95859778D01*
X58607660Y-96002676D01*
X58607660Y-96145573D01*
X58250417Y-96145573D01*
X57893174Y-96145573D01*
X57893174Y-97074406D01*
X57893174Y-98003238D01*
X57178687Y-98003238D01*
X56464200Y-98003238D01*
X56464200Y-96931508D01*
X56464200Y-96145573D01*
X56749995Y-96145573D01*
X56749995Y-96931508D01*
X56749995Y-97717444D01*
X57178687Y-97717444D01*
X57607379Y-97717444D01*
X57607379Y-96931508D01*
X57607379Y-96145573D01*
X57178687Y-96145573D01*
X56749995Y-96145573D01*
X56464200Y-96145573D01*
X56464200Y-95859778D01*
X57535930Y-95859778D01*
X57607379Y-95859778D01*
G37*
G36*
X55606816Y-99217866D02*
G01*
X55606816Y-100289596D01*
X55463919Y-100289596D01*
X55321022Y-100289596D01*
X55321022Y-99360763D01*
X55321022Y-98431930D01*
X54892330Y-98431930D01*
X54463638Y-98431930D01*
X54463638Y-99217866D01*
X54463638Y-100003801D01*
X54597604Y-100003801D01*
X54731570Y-100003801D01*
X54731570Y-99369694D01*
X54731570Y-98735587D01*
X54874467Y-98735587D01*
X55017365Y-98735587D01*
X55017365Y-99512591D01*
X55017365Y-100289596D01*
X54597604Y-100289596D01*
X54177843Y-100289596D01*
X54177843Y-99217866D01*
X54177843Y-98146136D01*
X54892330Y-98146136D01*
X55606816Y-98146136D01*
X55606816Y-99217866D01*
G37*
G36*
X56749995Y-101361326D02*
G01*
X56749995Y-102290158D01*
X56892892Y-102290158D01*
X57035790Y-102290158D01*
X57035790Y-101361326D01*
X57035790Y-100432493D01*
X57464482Y-100432493D01*
X57893174Y-100432493D01*
X57893174Y-101504223D01*
X57893174Y-102575953D01*
X57750276Y-102575953D01*
X57607379Y-102575953D01*
X57607379Y-101647120D01*
X57607379Y-100718288D01*
X57464482Y-100718288D01*
X57321584Y-100718288D01*
X57321584Y-101647120D01*
X57321584Y-102575953D01*
X56892892Y-102575953D01*
X56464200Y-102575953D01*
X56464200Y-101504223D01*
X56464200Y-100432493D01*
X56607098Y-100432493D01*
X56749995Y-100432493D01*
X56749995Y-101361326D01*
G37*
G36*
X57035790Y-89000707D02*
G01*
X57321584Y-89000707D01*
X57321584Y-89929539D01*
X57321584Y-90858372D01*
X57464482Y-90858372D01*
X57607379Y-90858372D01*
X57607379Y-89929539D01*
X57607379Y-89000707D01*
X57750276Y-89000707D01*
X57893174Y-89000707D01*
X57893174Y-90072437D01*
X57893174Y-91144167D01*
X57178687Y-91144167D01*
X56464200Y-91144167D01*
X56464200Y-90072437D01*
X56464200Y-89286501D01*
X56749995Y-89286501D01*
X56749995Y-90072437D01*
X56749995Y-90858372D01*
X56892892Y-90858372D01*
X57035790Y-90858372D01*
X57035790Y-90072437D01*
X57035790Y-89286501D01*
X56892892Y-89286501D01*
X56749995Y-89286501D01*
X56464200Y-89286501D01*
X56464200Y-89000707D01*
X56892892Y-89000707D01*
X57035790Y-89000707D01*
G37*
G36*
X57035790Y-93573421D02*
G01*
X57321584Y-93573421D01*
X57321584Y-94502254D01*
X57321584Y-95431086D01*
X57464482Y-95431086D01*
X57607379Y-95431086D01*
X57607379Y-94502254D01*
X57607379Y-93573421D01*
X57750276Y-93573421D01*
X57893174Y-93573421D01*
X57893174Y-94645151D01*
X57893174Y-95716881D01*
X57178687Y-95716881D01*
X56464200Y-95716881D01*
X56464200Y-94645151D01*
X56464200Y-93859216D01*
X56749995Y-93859216D01*
X56749995Y-94645151D01*
X56749995Y-95431086D01*
X56892892Y-95431086D01*
X57035790Y-95431086D01*
X57035790Y-94645151D01*
X57035790Y-93859216D01*
X56892892Y-93859216D01*
X56749995Y-93859216D01*
X56464200Y-93859216D01*
X56464200Y-93573421D01*
X56892892Y-93573421D01*
X57035790Y-93573421D01*
G37*
G36*
X57035790Y-98146136D02*
G01*
X57321584Y-98146136D01*
X57321584Y-99074968D01*
X57321584Y-100003801D01*
X57464482Y-100003801D01*
X57607379Y-100003801D01*
X57607379Y-99074968D01*
X57607379Y-98146136D01*
X57750276Y-98146136D01*
X57893174Y-98146136D01*
X57893174Y-99217866D01*
X57893174Y-100289596D01*
X57178687Y-100289596D01*
X56464200Y-100289596D01*
X56464200Y-99217866D01*
X56464200Y-98431930D01*
X56749995Y-98431930D01*
X56749995Y-99217866D01*
X56749995Y-100003801D01*
X56892892Y-100003801D01*
X57035790Y-100003801D01*
X57035790Y-99217866D01*
X57035790Y-98431930D01*
X56892892Y-98431930D01*
X56749995Y-98431930D01*
X56464200Y-98431930D01*
X56464200Y-98146136D01*
X56892892Y-98146136D01*
X57035790Y-98146136D01*
G37*
D11*
%TO.C,C72*%
X62376267Y-85215000D02*
X62083733Y-85215000D01*
X62376267Y-86235000D02*
X62083733Y-86235000D01*
%TO.C,BTN4*%
X106178000Y-104404000D02*
X106178000Y-103894000D01*
X106178000Y-110904000D02*
X106178000Y-107004000D01*
X106698000Y-103894000D02*
X106178000Y-103894000D01*
X106698000Y-104404000D02*
X106698000Y-103894000D01*
X106698000Y-107234000D02*
X106698000Y-107004000D01*
X107238000Y-107234000D02*
X106698000Y-107234000D01*
X111738000Y-107234000D02*
X108338000Y-107234000D01*
X113378000Y-104404000D02*
X113378000Y-103894000D01*
X113378000Y-107234000D02*
X112838000Y-107234000D01*
X113378000Y-107234000D02*
X113378000Y-107004000D01*
X113898000Y-103894000D02*
X113378000Y-103894000D01*
X113898000Y-104404000D02*
X113898000Y-103894000D01*
X113898000Y-110904000D02*
X106178000Y-110904000D01*
X113898000Y-110904000D02*
X113898000Y-107004000D01*
%TO.C,U9*%
X103365000Y-66311000D02*
X103745000Y-66311000D01*
X103365000Y-71501000D02*
X103365000Y-66311000D01*
X103365000Y-71501000D02*
X103365000Y-76691000D01*
X103365000Y-76691000D02*
X103745000Y-76691000D01*
X103745000Y-76691000D02*
X103745000Y-77851000D01*
X121995000Y-66311000D02*
X121615000Y-66311000D01*
X121995000Y-71501000D02*
X121995000Y-66311000D01*
X121995000Y-71501000D02*
X121995000Y-76691000D01*
X121995000Y-76691000D02*
X121615000Y-76691000D01*
%TO.C,C45*%
X66821267Y-94105000D02*
X66528733Y-94105000D01*
X66821267Y-95125000D02*
X66528733Y-95125000D01*
%TO.C,C65*%
X88906133Y-88288400D02*
X89198667Y-88288400D01*
X88906133Y-89308400D02*
X89198667Y-89308400D01*
%TO.C,C43*%
X95992733Y-60831000D02*
X96285267Y-60831000D01*
X95992733Y-61851000D02*
X96285267Y-61851000D01*
%TO.C,C79*%
X117890000Y-53546267D02*
X117890000Y-53253733D01*
X118910000Y-53546267D02*
X118910000Y-53253733D01*
%TO.C,F1*%
X61983536Y-54189800D02*
X63187664Y-54189800D01*
X61983536Y-56909800D02*
X63187664Y-56909800D01*
D10*
%TO.C,J5*%
X79018000Y-105388000D02*
X79018000Y-98188000D01*
X79018000Y-108188000D02*
X79018000Y-110488000D01*
X79018000Y-110488000D02*
X86368000Y-110488000D01*
X86368000Y-110488000D02*
X87718000Y-110538000D01*
X87718000Y-110538000D02*
X88868000Y-110688000D01*
X88418000Y-97788000D02*
X88418000Y-98088000D01*
X88418000Y-98088000D02*
X88718000Y-98088000D01*
X88718000Y-97788000D02*
X88418000Y-97788000D01*
X88718000Y-98088000D02*
X88718000Y-97788000D01*
X88868000Y-110688000D02*
X89968000Y-110888000D01*
X89168000Y-97188000D02*
X89168000Y-95888000D01*
X89168000Y-97188000D02*
X92168000Y-97188000D01*
X89968000Y-110888000D02*
X91018000Y-111188000D01*
X91018000Y-111188000D02*
X93718000Y-111188000D01*
X93718000Y-98188000D02*
X93718000Y-105388000D01*
X93718000Y-111188000D02*
X93718000Y-108188000D01*
D11*
%TO.C,BTN2*%
X53322000Y-56601000D02*
X53322000Y-61001000D01*
X53322000Y-61001000D02*
X53442000Y-61001000D01*
X53442000Y-56601000D02*
X53322000Y-56601000D01*
X54452000Y-61001000D02*
X55592000Y-61001000D01*
X55592000Y-56601000D02*
X54452000Y-56601000D01*
X56602000Y-61001000D02*
X56722000Y-61001000D01*
X56722000Y-56601000D02*
X56602000Y-56601000D01*
X56722000Y-61001000D02*
X56722000Y-56601000D01*
%TO.C,C63*%
X89198667Y-89812400D02*
X88906133Y-89812400D01*
X89198667Y-90832400D02*
X88906133Y-90832400D01*
%TO.C,C80*%
X116046267Y-53790000D02*
X115753733Y-53790000D01*
X116046267Y-54810000D02*
X115753733Y-54810000D01*
%TO.C,C87*%
X96340200Y-64052667D02*
X96340200Y-63760133D01*
X97360200Y-64052667D02*
X97360200Y-63760133D01*
%TO.C,D1*%
X104664500Y-109346276D02*
X104664500Y-109855724D01*
X105709500Y-109346276D02*
X105709500Y-109855724D01*
%TO.C,U15*%
X65091000Y-91715000D02*
X65091000Y-91165000D01*
X65641000Y-85495000D02*
X65091000Y-85495000D01*
X65641000Y-91715000D02*
X65091000Y-91715000D01*
X70761000Y-85495000D02*
X71311000Y-85495000D01*
X70761000Y-91715000D02*
X71311000Y-91715000D01*
X71311000Y-85495000D02*
X71311000Y-86045000D01*
X71311000Y-91715000D02*
X71311000Y-91165000D01*
%TO.C,U8*%
X85098200Y-58104800D02*
X85098200Y-58579800D01*
X85098200Y-66324800D02*
X85098200Y-65849800D01*
X85573200Y-58104800D02*
X85098200Y-58104800D01*
X85573200Y-66324800D02*
X85098200Y-66324800D01*
X92843200Y-58104800D02*
X93318200Y-58104800D01*
X92843200Y-66324800D02*
X93018200Y-66324800D01*
X93318200Y-58104800D02*
X93318200Y-58579800D01*
X93318200Y-65849800D02*
X93318200Y-66084800D01*
X93558200Y-66654800D02*
X93078200Y-66654800D01*
X93318200Y-66324800D01*
X93558200Y-66654800D01*
G36*
X93558200Y-66654800D02*
G01*
X93078200Y-66654800D01*
X93318200Y-66324800D01*
X93558200Y-66654800D01*
G37*
%TO.C,J1*%
X83812000Y-39851000D02*
X98432000Y-39851000D01*
X83812000Y-40471000D02*
X83812000Y-39851000D01*
X84812000Y-40471000D02*
X83812000Y-40471000D01*
X84812000Y-48441000D02*
X84812000Y-40471000D01*
X84812000Y-51941000D02*
X84812000Y-54121000D01*
X94222000Y-57121000D02*
X95022000Y-57121000D01*
X96312000Y-56971000D02*
X85932000Y-56971000D01*
X97432000Y-40471000D02*
X97432000Y-48441000D01*
X97432000Y-51941000D02*
X97432000Y-54121000D01*
X98432000Y-39851000D02*
X98432000Y-40471000D01*
X98432000Y-40471000D02*
X97432000Y-40471000D01*
%TO.C,J2*%
X67080000Y-39851000D02*
X81700000Y-39851000D01*
X67080000Y-40471000D02*
X67080000Y-39851000D01*
X68080000Y-40471000D02*
X67080000Y-40471000D01*
X68080000Y-48441000D02*
X68080000Y-40471000D01*
X68080000Y-51941000D02*
X68080000Y-54121000D01*
X77490000Y-57121000D02*
X78290000Y-57121000D01*
X79580000Y-56971000D02*
X69200000Y-56971000D01*
X80700000Y-40471000D02*
X80700000Y-48441000D01*
X80700000Y-51941000D02*
X80700000Y-54121000D01*
X81700000Y-39851000D02*
X81700000Y-40471000D01*
X81700000Y-40471000D02*
X80700000Y-40471000D01*
%TO.C,C62*%
X77450733Y-88263000D02*
X77743267Y-88263000D01*
X77450733Y-89283000D02*
X77743267Y-89283000D01*
%TO.C,C68*%
X62376267Y-89787000D02*
X62083733Y-89787000D01*
X62376267Y-90807000D02*
X62083733Y-90807000D01*
D16*
%TO.C,J8*%
X110717850Y-62100460D02*
X110717850Y-55501540D01*
X110717850Y-62100460D02*
X111919270Y-62100460D01*
X115919770Y-62100460D02*
X113519470Y-62100460D01*
X118919510Y-62100460D02*
X117519970Y-62100460D01*
X122419630Y-55501540D02*
X112419650Y-55501540D01*
X122419630Y-62100460D02*
X120519710Y-62100460D01*
X122419630Y-62100460D02*
X122917470Y-62100460D01*
X122917470Y-55501540D02*
X122419630Y-55501540D01*
X122917470Y-56001920D02*
X122917470Y-55501540D01*
X122917470Y-61600080D02*
X122917470Y-56001920D01*
X122917470Y-62100460D02*
X122917470Y-61600080D01*
D11*
%TO.C,R24*%
X101777500Y-89845276D02*
X101777500Y-90354724D01*
X102822500Y-89845276D02*
X102822500Y-90354724D01*
%TO.C,Y1*%
X53211000Y-63162000D02*
X53211000Y-67662000D01*
X53211000Y-67662000D02*
X58611000Y-67662000D01*
%TO.C,C91*%
X100290000Y-86691233D02*
X100290000Y-86983767D01*
X101310000Y-86691233D02*
X101310000Y-86983767D01*
%TO.C,C90*%
X101801200Y-86653733D02*
X101801200Y-86946267D01*
X102821200Y-86653733D02*
X102821200Y-86946267D01*
%TO.C,P4*%
X119794000Y-49176400D02*
X120904000Y-49176400D01*
X119794000Y-49936400D02*
X119794000Y-49176400D01*
X119794000Y-50696400D02*
X119794000Y-54441400D01*
X119794000Y-50696400D02*
X120340529Y-50696400D01*
X119794000Y-54441400D02*
X120596470Y-54441400D01*
X121211530Y-54441400D02*
X122014000Y-54441400D01*
X121467471Y-50696400D02*
X122014000Y-50696400D01*
X122014000Y-50696400D02*
X122014000Y-54441400D01*
%TO.C,R44*%
X77342276Y-91298500D02*
X77851724Y-91298500D01*
X77342276Y-92343500D02*
X77851724Y-92343500D01*
%TO.C,R21*%
X94702100Y-63651676D02*
X94702100Y-64161124D01*
X95747100Y-63651676D02*
X95747100Y-64161124D01*
%TO.C,R56*%
X98777500Y-86595276D02*
X98777500Y-87104724D01*
X99822500Y-86595276D02*
X99822500Y-87104724D01*
%TO.C,P3*%
X96406800Y-93322400D02*
X97586800Y-93322400D01*
X96406800Y-94132400D02*
X96406800Y-93322400D01*
X96406800Y-94942400D02*
X96406800Y-103767400D01*
X96406800Y-94942400D02*
X96920092Y-94942400D01*
X96406800Y-103767400D02*
X97268877Y-103767400D01*
X97904723Y-103767400D02*
X98538877Y-103767400D01*
X99174723Y-93387400D02*
X100036800Y-93387400D01*
X99174723Y-103767400D02*
X100036800Y-103767400D01*
X100036800Y-93387400D02*
X100036800Y-103767400D01*
D16*
%TO.C,J6*%
X110587040Y-101343460D02*
X110587040Y-94744540D01*
X110587040Y-101343460D02*
X111788460Y-101343460D01*
X115788960Y-101343460D02*
X113388660Y-101343460D01*
X118788700Y-101343460D02*
X117389160Y-101343460D01*
X122288820Y-94744540D02*
X112288840Y-94744540D01*
X122288820Y-101343460D02*
X120388900Y-101343460D01*
X122288820Y-101343460D02*
X122786660Y-101343460D01*
X122786660Y-94744540D02*
X122288820Y-94744540D01*
X122786660Y-95244920D02*
X122786660Y-94744540D01*
X122786660Y-100843080D02*
X122786660Y-95244920D01*
X122786660Y-101343460D02*
X122786660Y-100843080D01*
D11*
%TO.C,C67*%
X62376267Y-86739000D02*
X62083733Y-86739000D01*
X62376267Y-87759000D02*
X62083733Y-87759000D01*
%TO.C,D4*%
X94346500Y-109473276D02*
X94346500Y-109982724D01*
X95391500Y-109473276D02*
X95391500Y-109982724D01*
%TO.C,J9*%
X100317000Y-56431200D02*
X100317000Y-55321200D01*
X101077000Y-56431200D02*
X100317000Y-56431200D01*
X101837000Y-54211200D02*
X103042000Y-54211200D01*
X101837000Y-54757729D02*
X101837000Y-54211200D01*
X101837000Y-56431200D02*
X101837000Y-55884671D01*
X101837000Y-56431200D02*
X103042000Y-56431200D01*
X103042000Y-55013670D02*
X103042000Y-54211200D01*
X103042000Y-56431200D02*
X103042000Y-55628730D01*
%TO.C,BTN3*%
X96526000Y-104453500D02*
X96526000Y-103943500D01*
X96526000Y-110953500D02*
X96526000Y-107053500D01*
X97046000Y-103943500D02*
X96526000Y-103943500D01*
X97046000Y-104453500D02*
X97046000Y-103943500D01*
X97046000Y-107283500D02*
X97046000Y-107053500D01*
X97586000Y-107283500D02*
X97046000Y-107283500D01*
X102086000Y-107283500D02*
X98686000Y-107283500D01*
X103726000Y-104453500D02*
X103726000Y-103943500D01*
X103726000Y-107283500D02*
X103186000Y-107283500D01*
X103726000Y-107283500D02*
X103726000Y-107053500D01*
X104246000Y-103943500D02*
X103726000Y-103943500D01*
X104246000Y-104453500D02*
X104246000Y-103943500D01*
X104246000Y-110953500D02*
X96526000Y-110953500D01*
X104246000Y-110953500D02*
X104246000Y-107053500D01*
%TO.C,U10*%
X103354000Y-80281000D02*
X103734000Y-80281000D01*
X103354000Y-85471000D02*
X103354000Y-80281000D01*
X103354000Y-85471000D02*
X103354000Y-90661000D01*
X103354000Y-90661000D02*
X103734000Y-90661000D01*
X103734000Y-90661000D02*
X103734000Y-91821000D01*
X121984000Y-80281000D02*
X121604000Y-80281000D01*
X121984000Y-85471000D02*
X121984000Y-80281000D01*
X121984000Y-85471000D02*
X121984000Y-90661000D01*
X121984000Y-90661000D02*
X121604000Y-90661000D01*
%TO.C,R22*%
X97978700Y-64161124D02*
X97978700Y-63651676D01*
X99023700Y-64161124D02*
X99023700Y-63651676D01*
%TO.C,C70*%
X74021733Y-89787000D02*
X74314267Y-89787000D01*
X74021733Y-90807000D02*
X74314267Y-90807000D01*
%TO.C,BTN1*%
X53322000Y-50124000D02*
X53322000Y-54524000D01*
X53322000Y-54524000D02*
X53442000Y-54524000D01*
X53442000Y-50124000D02*
X53322000Y-50124000D01*
X54452000Y-54524000D02*
X55592000Y-54524000D01*
X55592000Y-50124000D02*
X54452000Y-50124000D01*
X56602000Y-54524000D02*
X56722000Y-54524000D01*
X56722000Y-50124000D02*
X56602000Y-50124000D01*
X56722000Y-54524000D02*
X56722000Y-50124000D01*
%TO.C,R57*%
X77851724Y-86701100D02*
X77342276Y-86701100D01*
X77851724Y-87746100D02*
X77342276Y-87746100D01*
%TO.C,C39*%
X98169000Y-60432733D02*
X98169000Y-60725267D01*
X99189000Y-60432733D02*
X99189000Y-60725267D01*
%TO.C,R16*%
X96393724Y-59167500D02*
X95884276Y-59167500D01*
X96393724Y-60212500D02*
X95884276Y-60212500D01*
%TO.C,C73*%
X62376267Y-88263000D02*
X62083733Y-88263000D01*
X62376267Y-89283000D02*
X62083733Y-89283000D01*
%TO.C,D3*%
X76978500Y-109473276D02*
X76978500Y-109982724D01*
X78023500Y-109473276D02*
X78023500Y-109982724D01*
%TO.C,J3*%
X100943000Y-43208000D02*
X100943000Y-41108000D01*
X100943000Y-48708000D02*
X100943000Y-45908000D01*
X103653000Y-52258000D02*
X101853000Y-52258000D01*
X103653000Y-53008000D02*
X103653000Y-52258000D01*
X115253000Y-52258000D02*
X113453000Y-52258000D01*
X116163000Y-43208000D02*
X116163000Y-41108000D01*
X116163000Y-48708000D02*
X116163000Y-45908000D01*
%TO.C,C46*%
X84347267Y-94105000D02*
X84054733Y-94105000D01*
X84347267Y-95125000D02*
X84054733Y-95125000D01*
%TO.C,R45*%
X73913276Y-88250500D02*
X74422724Y-88250500D01*
X73913276Y-89295500D02*
X74422724Y-89295500D01*
%TO.C,R43*%
X77342276Y-89774500D02*
X77851724Y-89774500D01*
X77342276Y-90819500D02*
X77851724Y-90819500D01*
%TO.C,C38*%
X82061267Y-59180000D02*
X81768733Y-59180000D01*
X82061267Y-60200000D02*
X81768733Y-60200000D01*
%TO.C,C66*%
X89198667Y-91361800D02*
X88906133Y-91361800D01*
X89198667Y-92381800D02*
X88906133Y-92381800D01*
%TO.C,P1*%
X99023000Y-77523600D02*
X100203000Y-77523600D01*
X99023000Y-78333600D02*
X99023000Y-77523600D01*
X99023000Y-79143600D02*
X99023000Y-82888600D01*
X99023000Y-79143600D02*
X99536292Y-79143600D01*
X99023000Y-82888600D02*
X99885077Y-82888600D01*
X100520923Y-82888600D02*
X101155077Y-82888600D01*
X101790923Y-77588600D02*
X102653000Y-77588600D01*
X101790923Y-82888600D02*
X102653000Y-82888600D01*
X102653000Y-77588600D02*
X102653000Y-82888600D01*
%TO.C,U3*%
X61440000Y-66480000D02*
X61440000Y-65830000D01*
X62090000Y-59260000D02*
X61440000Y-59260000D01*
X62090000Y-66480000D02*
X61440000Y-66480000D01*
X68010000Y-59260000D02*
X68660000Y-59260000D01*
X68010000Y-66480000D02*
X68660000Y-66480000D01*
X68660000Y-59260000D02*
X68660000Y-59910000D01*
X68660000Y-66480000D02*
X68660000Y-65830000D01*
%TO.C,C71*%
X74021733Y-92835000D02*
X74314267Y-92835000D01*
X74021733Y-93855000D02*
X74314267Y-93855000D01*
%TO.C,R15*%
X99807500Y-60324276D02*
X99807500Y-60833724D01*
X100852500Y-60324276D02*
X100852500Y-60833724D01*
%TO.C,P2*%
X104179200Y-93322400D02*
X105359200Y-93322400D01*
X104179200Y-94132400D02*
X104179200Y-93322400D01*
X104179200Y-94942400D02*
X104179200Y-103767400D01*
X104179200Y-94942400D02*
X104692492Y-94942400D01*
X104179200Y-103767400D02*
X105041277Y-103767400D01*
X105677123Y-103767400D02*
X106311277Y-103767400D01*
X106947123Y-93387400D02*
X107809200Y-93387400D01*
X106947123Y-103767400D02*
X107809200Y-103767400D01*
X107809200Y-93387400D02*
X107809200Y-103767400D01*
%TD*%
M02*
