%TF.GenerationSoftware,KiCad,Pcbnew,7.0.11-7.0.11~ubuntu22.04.1*%
%TF.CreationDate,2024-02-23T19:10:09+02:00*%
%TF.ProjectId,karabas-mini,6b617261-6261-4732-9d6d-696e692e6b69,rev?*%
%TF.SameCoordinates,Original*%
%TF.FileFunction,Soldermask,Top*%
%TF.FilePolarity,Negative*%
%FSLAX46Y46*%
G04 Gerber Fmt 4.6, Leading zero omitted, Abs format (unit mm)*
G04 Created by KiCad (PCBNEW 7.0.11-7.0.11~ubuntu22.04.1) date 2024-02-23 19:10:09*
%MOMM*%
%LPD*%
G01*
G04 APERTURE LIST*
G04 Aperture macros list*
%AMRoundRect*
0 Rectangle with rounded corners*
0 $1 Rounding radius*
0 $2 $3 $4 $5 $6 $7 $8 $9 X,Y pos of 4 corners*
0 Add a 4 corners polygon primitive as box body*
4,1,4,$2,$3,$4,$5,$6,$7,$8,$9,$2,$3,0*
0 Add four circle primitives for the rounded corners*
1,1,$1+$1,$2,$3*
1,1,$1+$1,$4,$5*
1,1,$1+$1,$6,$7*
1,1,$1+$1,$8,$9*
0 Add four rect primitives between the rounded corners*
20,1,$1+$1,$2,$3,$4,$5,0*
20,1,$1+$1,$4,$5,$6,$7,0*
20,1,$1+$1,$6,$7,$8,$9,0*
20,1,$1+$1,$8,$9,$2,$3,0*%
G04 Aperture macros list end*
%ADD10O,1.000000X1.000000*%
%ADD11R,1.000000X1.000000*%
%ADD12RoundRect,0.237500X-0.237500X0.250000X-0.237500X-0.250000X0.237500X-0.250000X0.237500X0.250000X0*%
%ADD13C,1.000000*%
%ADD14R,0.458000X1.510000*%
%ADD15RoundRect,0.237500X-0.300000X-0.237500X0.300000X-0.237500X0.300000X0.237500X-0.300000X0.237500X0*%
%ADD16R,0.700000X1.600000*%
%ADD17R,1.200000X1.400000*%
%ADD18R,1.200000X2.200000*%
%ADD19R,1.600000X1.400000*%
%ADD20C,0.400000*%
%ADD21RoundRect,0.237500X0.300000X0.237500X-0.300000X0.237500X-0.300000X-0.237500X0.300000X-0.237500X0*%
%ADD22RoundRect,0.237500X-0.250000X-0.237500X0.250000X-0.237500X0.250000X0.237500X-0.250000X0.237500X0*%
%ADD23RoundRect,0.030700X0.856300X0.276300X-0.856300X0.276300X-0.856300X-0.276300X0.856300X-0.276300X0*%
%ADD24C,2.100000*%
%ADD25C,1.750000*%
%ADD26RoundRect,0.137500X0.137500X-0.625000X0.137500X0.625000X-0.137500X0.625000X-0.137500X-0.625000X0*%
%ADD27RoundRect,0.250001X-1.074999X0.462499X-1.074999X-0.462499X1.074999X-0.462499X1.074999X0.462499X0*%
%ADD28C,0.650000*%
%ADD29RoundRect,0.150000X0.150000X0.500000X-0.150000X0.500000X-0.150000X-0.500000X0.150000X-0.500000X0*%
%ADD30RoundRect,0.075000X0.075000X0.575000X-0.075000X0.575000X-0.075000X-0.575000X0.075000X-0.575000X0*%
%ADD31O,1.000000X2.100000*%
%ADD32O,1.000000X1.600000*%
%ADD33RoundRect,0.262500X-0.262500X0.487500X-0.262500X-0.487500X0.262500X-0.487500X0.262500X0.487500X0*%
%ADD34RoundRect,0.050000X-0.375000X-0.050000X0.375000X-0.050000X0.375000X0.050000X-0.375000X0.050000X0*%
%ADD35RoundRect,0.050000X-0.050000X-0.375000X0.050000X-0.375000X0.050000X0.375000X-0.050000X0.375000X0*%
%ADD36R,4.200000X4.200000*%
%ADD37C,0.800000*%
%ADD38C,6.000000*%
%ADD39RoundRect,0.062500X0.375000X0.062500X-0.375000X0.062500X-0.375000X-0.062500X0.375000X-0.062500X0*%
%ADD40RoundRect,0.062500X0.062500X0.375000X-0.062500X0.375000X-0.062500X-0.375000X0.062500X-0.375000X0*%
%ADD41R,5.900000X5.900000*%
%ADD42R,1.500000X1.500000*%
%ADD43C,1.500000*%
%ADD44O,2.000000X3.000000*%
%ADD45C,1.402080*%
%ADD46RoundRect,0.450800X0.450800X1.250800X-0.450800X1.250800X-0.450800X-1.250800X0.450800X-1.250800X0*%
%ADD47O,2.286000X1.524000*%
%ADD48RoundRect,0.450800X-0.450800X-1.250800X0.450800X-1.250800X0.450800X1.250800X-0.450800X1.250800X0*%
%ADD49R,2.100000X1.800000*%
%ADD50RoundRect,0.237500X-0.237500X0.300000X-0.237500X-0.300000X0.237500X-0.300000X0.237500X0.300000X0*%
%ADD51RoundRect,0.237500X0.250000X0.237500X-0.250000X0.237500X-0.250000X-0.237500X0.250000X-0.237500X0*%
%ADD52R,0.300000X2.600000*%
%ADD53O,1.500000X3.300000*%
%ADD54O,1.500000X2.300000*%
%ADD55RoundRect,0.050000X-0.387500X-0.050000X0.387500X-0.050000X0.387500X0.050000X-0.387500X0.050000X0*%
%ADD56RoundRect,0.050000X-0.050000X-0.387500X0.050000X-0.387500X0.050000X0.387500X-0.050000X0.387500X0*%
%ADD57RoundRect,0.144000X-1.456000X-1.456000X1.456000X-1.456000X1.456000X1.456000X-1.456000X1.456000X0*%
%ADD58C,1.300000*%
%ADD59C,1.050000*%
G04 APERTURE END LIST*
D10*
%TO.C,J10*%
X108712000Y-63449200D03*
X108712000Y-62179200D03*
D11*
X108712000Y-60909200D03*
%TD*%
%TO.C,J9*%
X67132200Y-55270400D03*
D10*
X68402200Y-55270400D03*
%TD*%
D12*
%TO.C,D2*%
X114839000Y-108688500D03*
X114839000Y-110513500D03*
%TD*%
%TO.C,R35*%
X66579000Y-50776500D03*
X66579000Y-52601500D03*
%TD*%
D13*
%TO.C,TP10*%
X73431400Y-66243200D03*
%TD*%
D14*
%TO.C,U11*%
X54527000Y-81477000D03*
X55327000Y-81477000D03*
X56127000Y-81477000D03*
X56927000Y-81477000D03*
X57727000Y-81477000D03*
X58527000Y-81477000D03*
X59327000Y-81477000D03*
X60127000Y-81477000D03*
X60927000Y-81477000D03*
X61727000Y-81477000D03*
X62527000Y-81477000D03*
X63327000Y-81477000D03*
X64127000Y-81477000D03*
X64927000Y-81477000D03*
X65727000Y-81477000D03*
X66527000Y-81477000D03*
X67327000Y-81477000D03*
X68127000Y-81477000D03*
X68927000Y-81477000D03*
X69727000Y-81477000D03*
X70527000Y-81477000D03*
X71327000Y-81477000D03*
X72127000Y-81477000D03*
X72927000Y-81477000D03*
X73727000Y-81477000D03*
X74527000Y-81477000D03*
X75327000Y-81477000D03*
X75327000Y-69977000D03*
X74527000Y-69977000D03*
X73727000Y-69977000D03*
X72927000Y-69977000D03*
X72127000Y-69977000D03*
X71327000Y-69977000D03*
X70527000Y-69977000D03*
X69727000Y-69977000D03*
X68927000Y-69977000D03*
X68127000Y-69977000D03*
X67327000Y-69977000D03*
X66527000Y-69977000D03*
X65727000Y-69977000D03*
X64927000Y-69977000D03*
X64127000Y-69977000D03*
X63327000Y-69977000D03*
X62527000Y-69977000D03*
X61727000Y-69977000D03*
X60927000Y-69977000D03*
X60127000Y-69977000D03*
X59327000Y-69977000D03*
X58527000Y-69977000D03*
X57727000Y-69977000D03*
X56927000Y-69977000D03*
X56127000Y-69977000D03*
X55327000Y-69977000D03*
X54527000Y-69977000D03*
%TD*%
D15*
%TO.C,C64*%
X76734500Y-93345000D03*
X78459500Y-93345000D03*
%TD*%
D16*
%TO.C,J4*%
X70936000Y-96688000D03*
X69836000Y-96688000D03*
X68736000Y-96688000D03*
X67636000Y-96688000D03*
X66536000Y-96688000D03*
D17*
X60986000Y-97188000D03*
D18*
X60986000Y-106788000D03*
D16*
X65436000Y-96688000D03*
D19*
X75586000Y-97188000D03*
D18*
X76486000Y-106788000D03*
D16*
X64336000Y-96688000D03*
X63236000Y-96688000D03*
X62136000Y-96688000D03*
%TD*%
D20*
%TO.C,U7*%
X81378144Y-68406078D03*
X82378144Y-68406078D03*
X83378144Y-68406078D03*
X84378144Y-68406078D03*
X85378144Y-68406078D03*
X86378144Y-68406078D03*
X87378144Y-68406078D03*
X88378144Y-68406078D03*
X89378144Y-68406078D03*
X90378144Y-68406078D03*
X91378144Y-68406078D03*
X92378144Y-68406078D03*
X93378144Y-68406078D03*
X94378144Y-68406078D03*
X95378144Y-68406078D03*
X96378144Y-68406078D03*
X81378144Y-69406078D03*
X82378144Y-69406078D03*
X83378144Y-69406078D03*
X84378144Y-69406078D03*
X85378144Y-69406078D03*
X86378144Y-69406078D03*
X87378144Y-69406078D03*
X88378144Y-69406078D03*
X89378144Y-69406078D03*
X90378144Y-69406078D03*
X91378144Y-69406078D03*
X92378144Y-69406078D03*
X93378144Y-69406078D03*
X94378144Y-69406078D03*
X95378144Y-69406078D03*
X96378144Y-69406078D03*
X81378144Y-70406078D03*
X82378144Y-70406078D03*
X83378144Y-70406078D03*
X84378144Y-70406078D03*
X85378144Y-70406078D03*
X86378144Y-70406078D03*
X87378144Y-70406078D03*
X88378144Y-70406078D03*
X89378144Y-70406078D03*
X90378144Y-70406078D03*
X91378144Y-70406078D03*
X92378144Y-70406078D03*
X93378144Y-70406078D03*
X94378144Y-70406078D03*
X95378144Y-70406078D03*
X96378144Y-70406078D03*
X81378144Y-71406078D03*
X82378144Y-71406078D03*
X83378144Y-71406078D03*
X84378144Y-71406078D03*
X85378144Y-71406078D03*
X86378144Y-71406078D03*
X87378144Y-71406078D03*
X88378144Y-71406078D03*
X89378144Y-71406078D03*
X90378144Y-71406078D03*
X91378144Y-71406078D03*
X92378144Y-71406078D03*
X93378144Y-71406078D03*
X94378144Y-71406078D03*
X95378144Y-71406078D03*
X96378144Y-71406078D03*
X81378144Y-72406078D03*
X82378144Y-72406078D03*
X83378144Y-72406078D03*
X84378144Y-72406078D03*
X85378144Y-72406078D03*
X86378144Y-72406078D03*
X87378144Y-72406078D03*
X88378144Y-72406078D03*
X89378144Y-72406078D03*
X90378144Y-72406078D03*
X91378144Y-72406078D03*
X92378144Y-72406078D03*
X93378144Y-72406078D03*
X94378144Y-72406078D03*
X95378144Y-72406078D03*
X96378144Y-72406078D03*
X81378144Y-73406078D03*
X82378144Y-73406078D03*
X83378144Y-73406078D03*
X84378144Y-73406078D03*
X85378144Y-73406078D03*
X86378144Y-73406078D03*
X87378144Y-73406078D03*
X88378144Y-73406078D03*
X89378144Y-73406078D03*
X90378144Y-73406078D03*
X91378144Y-73406078D03*
X92378144Y-73406078D03*
X93378144Y-73406078D03*
X94378144Y-73406078D03*
X95378144Y-73406078D03*
X96378144Y-73406078D03*
X81378144Y-74406078D03*
X82378144Y-74406078D03*
X83378144Y-74406078D03*
X84378144Y-74406078D03*
X85378144Y-74406078D03*
X86378144Y-74406078D03*
X87378144Y-74406078D03*
X88378144Y-74406078D03*
X89378144Y-74406078D03*
X90378144Y-74406078D03*
X91378144Y-74406078D03*
X92378144Y-74406078D03*
X93378144Y-74406078D03*
X94378144Y-74406078D03*
X95378144Y-74406078D03*
X96378144Y-74406078D03*
X81378144Y-75406078D03*
X82378144Y-75406078D03*
X83378144Y-75406078D03*
X84378144Y-75406078D03*
X85378144Y-75406078D03*
X86378144Y-75406078D03*
X87378144Y-75406078D03*
X88378144Y-75406078D03*
X89378144Y-75406078D03*
X90378144Y-75406078D03*
X91378144Y-75406078D03*
X92378144Y-75406078D03*
X93378144Y-75406078D03*
X94378144Y-75406078D03*
X95378144Y-75406078D03*
X96378144Y-75406078D03*
X81378144Y-76406078D03*
X82378144Y-76406078D03*
X83378144Y-76406078D03*
X84378144Y-76406078D03*
X85378144Y-76406078D03*
X86378144Y-76406078D03*
X87378144Y-76406078D03*
X88378144Y-76406078D03*
X89378144Y-76406078D03*
X90378144Y-76406078D03*
X91378144Y-76406078D03*
X92378144Y-76406078D03*
X93378144Y-76406078D03*
X94378144Y-76406078D03*
X95378144Y-76406078D03*
X96378144Y-76406078D03*
X81378144Y-77406078D03*
X82378144Y-77406078D03*
X83378144Y-77406078D03*
X84378144Y-77406078D03*
X85378144Y-77406078D03*
X86378144Y-77406078D03*
X87378144Y-77406078D03*
X88378144Y-77406078D03*
X89378144Y-77406078D03*
X90378144Y-77406078D03*
X91378144Y-77406078D03*
X92378144Y-77406078D03*
X93378144Y-77406078D03*
X94378144Y-77406078D03*
X95378144Y-77406078D03*
X96378144Y-77406078D03*
X81378144Y-78406078D03*
X82378144Y-78406078D03*
X83378144Y-78406078D03*
X84378144Y-78406078D03*
X85378144Y-78406078D03*
X86378144Y-78406078D03*
X87378144Y-78406078D03*
X88378144Y-78406078D03*
X89378144Y-78406078D03*
X90378144Y-78406078D03*
X91378144Y-78406078D03*
X92378144Y-78406078D03*
X93378144Y-78406078D03*
X94378144Y-78406078D03*
X95378144Y-78406078D03*
X96378144Y-78406078D03*
X81378144Y-79406078D03*
X82378144Y-79406078D03*
X83378144Y-79406078D03*
X84378144Y-79406078D03*
X85378144Y-79406078D03*
X86378144Y-79406078D03*
X87378144Y-79406078D03*
X88378144Y-79406078D03*
X89378144Y-79406078D03*
X90378144Y-79406078D03*
X91378144Y-79406078D03*
X92378144Y-79406078D03*
X93378144Y-79406078D03*
X94378144Y-79406078D03*
X95378144Y-79406078D03*
X96378144Y-79406078D03*
X81378144Y-80406078D03*
X82378144Y-80406078D03*
X83378144Y-80406078D03*
X84378144Y-80406078D03*
X85378144Y-80406078D03*
X86378144Y-80406078D03*
X87378144Y-80406078D03*
X88378144Y-80406078D03*
X89378144Y-80406078D03*
X90378144Y-80406078D03*
X91378144Y-80406078D03*
X92378144Y-80406078D03*
X93378144Y-80406078D03*
X94378144Y-80406078D03*
X95378144Y-80406078D03*
X96378144Y-80406078D03*
X81378144Y-81406078D03*
X82378144Y-81406078D03*
X83378144Y-81406078D03*
X84378144Y-81406078D03*
X85378144Y-81406078D03*
X86378144Y-81406078D03*
X87378144Y-81406078D03*
X88378144Y-81406078D03*
X89378144Y-81406078D03*
X90378144Y-81406078D03*
X91378144Y-81406078D03*
X92378144Y-81406078D03*
X93378144Y-81406078D03*
X94378144Y-81406078D03*
X95378144Y-81406078D03*
X96378144Y-81406078D03*
X81378144Y-82406078D03*
X82378144Y-82406078D03*
X83378144Y-82406078D03*
X84378144Y-82406078D03*
X85378144Y-82406078D03*
X86378144Y-82406078D03*
X87378144Y-82406078D03*
X88378144Y-82406078D03*
X89378144Y-82406078D03*
X90378144Y-82406078D03*
X91378144Y-82406078D03*
X92378144Y-82406078D03*
X93378144Y-82406078D03*
X94378144Y-82406078D03*
X95378144Y-82406078D03*
X96378144Y-82406078D03*
X81378144Y-83406078D03*
X82378144Y-83406078D03*
X83378144Y-83406078D03*
X84378144Y-83406078D03*
X85378144Y-83406078D03*
X86378144Y-83406078D03*
X87378144Y-83406078D03*
X88378144Y-83406078D03*
X89378144Y-83406078D03*
X90378144Y-83406078D03*
X91378144Y-83406078D03*
X92378144Y-83406078D03*
X93378144Y-83406078D03*
X94378144Y-83406078D03*
X95378144Y-83406078D03*
X96378144Y-83406078D03*
%TD*%
D21*
%TO.C,C42*%
X82777500Y-61214000D03*
X81052500Y-61214000D03*
%TD*%
D22*
%TO.C,R46*%
X73255500Y-91821000D03*
X75080500Y-91821000D03*
%TD*%
D23*
%TO.C,U16*%
X86182000Y-91231000D03*
X86182000Y-90581000D03*
X86182000Y-89931000D03*
X86182000Y-89281000D03*
X86182000Y-88631000D03*
X86182000Y-87981000D03*
X86182000Y-87331000D03*
X80442000Y-87331000D03*
X80442000Y-87981000D03*
X80442000Y-88631000D03*
X80442000Y-89281000D03*
X80442000Y-89931000D03*
X80442000Y-90581000D03*
X80442000Y-91231000D03*
%TD*%
D15*
%TO.C,C69*%
X73305500Y-85725000D03*
X75030500Y-85725000D03*
%TD*%
%TO.C,C74*%
X73305500Y-87249000D03*
X75030500Y-87249000D03*
%TD*%
D21*
%TO.C,C72*%
X63092500Y-85725000D03*
X61367500Y-85725000D03*
%TD*%
D24*
%TO.C,BTN4*%
X113538000Y-105714000D03*
X106528000Y-105714000D03*
D25*
X112288000Y-108204000D03*
X107788000Y-108204000D03*
%TD*%
D26*
%TO.C,U9*%
X104280000Y-77088500D03*
X105080000Y-77088500D03*
X105880000Y-77088500D03*
X106680000Y-77088500D03*
X107480000Y-77088500D03*
X108280000Y-77088500D03*
X109080000Y-77088500D03*
X109880000Y-77088500D03*
X110680000Y-77088500D03*
X111480000Y-77088500D03*
X112280000Y-77088500D03*
X113080000Y-77088500D03*
X113880000Y-77088500D03*
X114680000Y-77088500D03*
X115480000Y-77088500D03*
X116280000Y-77088500D03*
X117080000Y-77088500D03*
X117880000Y-77088500D03*
X118680000Y-77088500D03*
X119480000Y-77088500D03*
X120280000Y-77088500D03*
X121080000Y-77088500D03*
X121080000Y-65913500D03*
X120280000Y-65913500D03*
X119480000Y-65913500D03*
X118680000Y-65913500D03*
X117880000Y-65913500D03*
X117080000Y-65913500D03*
X116280000Y-65913500D03*
X115480000Y-65913500D03*
X114680000Y-65913500D03*
X113880000Y-65913500D03*
X113080000Y-65913500D03*
X112280000Y-65913500D03*
X111480000Y-65913500D03*
X110680000Y-65913500D03*
X109880000Y-65913500D03*
X109080000Y-65913500D03*
X108280000Y-65913500D03*
X107480000Y-65913500D03*
X106680000Y-65913500D03*
X105880000Y-65913500D03*
X105080000Y-65913500D03*
X104280000Y-65913500D03*
%TD*%
D21*
%TO.C,C45*%
X67537500Y-94615000D03*
X65812500Y-94615000D03*
%TD*%
D15*
%TO.C,C65*%
X88189900Y-88798400D03*
X89914900Y-88798400D03*
%TD*%
%TO.C,C43*%
X95276500Y-61341000D03*
X97001500Y-61341000D03*
%TD*%
D27*
%TO.C,F1*%
X61499000Y-50963500D03*
X61499000Y-53938500D03*
%TD*%
D28*
%TO.C,J7*%
X67691000Y-46568000D03*
X61911000Y-46568000D03*
D29*
X68001000Y-47708000D03*
X67201000Y-47708000D03*
D30*
X66051000Y-47708000D03*
X65051000Y-47708000D03*
X64551000Y-47708000D03*
X63551000Y-47708000D03*
D29*
X62401000Y-47708000D03*
X61601000Y-47708000D03*
X61601000Y-47708000D03*
X62401000Y-47708000D03*
D30*
X63051000Y-47708000D03*
X64051000Y-47708000D03*
X65551000Y-47708000D03*
X66551000Y-47708000D03*
D29*
X67201000Y-47708000D03*
X68001000Y-47708000D03*
D31*
X69121000Y-47068000D03*
D32*
X69121000Y-42888000D03*
D31*
X60481000Y-47068000D03*
D32*
X60481000Y-42888000D03*
%TD*%
D16*
%TO.C,J5*%
X88568000Y-96688000D03*
X87468000Y-96688000D03*
X86368000Y-96688000D03*
X85268000Y-96688000D03*
X84168000Y-96688000D03*
D17*
X78618000Y-97188000D03*
D18*
X78618000Y-106788000D03*
D16*
X83068000Y-96688000D03*
D19*
X93218000Y-97188000D03*
D18*
X94118000Y-106788000D03*
D16*
X81968000Y-96688000D03*
X80868000Y-96688000D03*
X79768000Y-96688000D03*
%TD*%
D33*
%TO.C,BTN2*%
X56097000Y-56726000D03*
X56097000Y-60876000D03*
X53947000Y-56726000D03*
X53947000Y-60876000D03*
%TD*%
D21*
%TO.C,C63*%
X89914900Y-90322400D03*
X88189900Y-90322400D03*
%TD*%
D13*
%TO.C,TP13*%
X73406000Y-60147200D03*
%TD*%
D12*
%TO.C,D1*%
X105187000Y-108688500D03*
X105187000Y-110513500D03*
%TD*%
D34*
%TO.C,U15*%
X65251000Y-86405000D03*
X65251000Y-86805000D03*
X65251000Y-87205000D03*
X65251000Y-87605000D03*
X65251000Y-88005000D03*
X65251000Y-88405000D03*
X65251000Y-88805000D03*
X65251000Y-89205000D03*
X65251000Y-89605000D03*
X65251000Y-90005000D03*
X65251000Y-90405000D03*
X65251000Y-90805000D03*
D35*
X66001000Y-91555000D03*
X66401000Y-91555000D03*
X66801000Y-91555000D03*
X67201000Y-91555000D03*
X67601000Y-91555000D03*
X68001000Y-91555000D03*
X68401000Y-91555000D03*
X68801000Y-91555000D03*
X69201000Y-91555000D03*
X69601000Y-91555000D03*
X70001000Y-91555000D03*
X70401000Y-91555000D03*
D34*
X71151000Y-90805000D03*
X71151000Y-90405000D03*
X71151000Y-90005000D03*
X71151000Y-89605000D03*
X71151000Y-89205000D03*
X71151000Y-88805000D03*
X71151000Y-88405000D03*
X71151000Y-88005000D03*
X71151000Y-87605000D03*
X71151000Y-87205000D03*
X71151000Y-86805000D03*
X71151000Y-86405000D03*
D35*
X70401000Y-85655000D03*
X70001000Y-85655000D03*
X69601000Y-85655000D03*
X69201000Y-85655000D03*
X68801000Y-85655000D03*
X68401000Y-85655000D03*
X68001000Y-85655000D03*
X67601000Y-85655000D03*
X67201000Y-85655000D03*
X66801000Y-85655000D03*
X66401000Y-85655000D03*
X66001000Y-85655000D03*
D36*
X68201000Y-88605000D03*
%TD*%
D37*
%TO.C,H4*%
X116653000Y-45145010D03*
X117312010Y-43554020D03*
X117312010Y-46736000D03*
X118903000Y-42895010D03*
D38*
X118903000Y-45145010D03*
D37*
X118903000Y-47395010D03*
X120493990Y-43554020D03*
X120493990Y-46736000D03*
X121153000Y-45145010D03*
%TD*%
D39*
%TO.C,U8*%
X93145700Y-65464800D03*
X93145700Y-64964800D03*
X93145700Y-64464800D03*
X93145700Y-63964800D03*
X93145700Y-63464800D03*
X93145700Y-62964800D03*
X93145700Y-62464800D03*
X93145700Y-61964800D03*
X93145700Y-61464800D03*
X93145700Y-60964800D03*
X93145700Y-60464800D03*
X93145700Y-59964800D03*
X93145700Y-59464800D03*
X93145700Y-58964800D03*
D40*
X92458200Y-58277300D03*
X91958200Y-58277300D03*
X91458200Y-58277300D03*
X90958200Y-58277300D03*
X90458200Y-58277300D03*
X89958200Y-58277300D03*
X89458200Y-58277300D03*
X88958200Y-58277300D03*
X88458200Y-58277300D03*
X87958200Y-58277300D03*
X87458200Y-58277300D03*
X86958200Y-58277300D03*
X86458200Y-58277300D03*
X85958200Y-58277300D03*
D39*
X85270700Y-58964800D03*
X85270700Y-59464800D03*
X85270700Y-59964800D03*
X85270700Y-60464800D03*
X85270700Y-60964800D03*
X85270700Y-61464800D03*
X85270700Y-61964800D03*
X85270700Y-62464800D03*
X85270700Y-62964800D03*
X85270700Y-63464800D03*
X85270700Y-63964800D03*
X85270700Y-64464800D03*
X85270700Y-64964800D03*
X85270700Y-65464800D03*
D40*
X85958200Y-66152300D03*
X86458200Y-66152300D03*
X86958200Y-66152300D03*
X87458200Y-66152300D03*
X87958200Y-66152300D03*
X88458200Y-66152300D03*
X88958200Y-66152300D03*
X89458200Y-66152300D03*
X89958200Y-66152300D03*
X90458200Y-66152300D03*
X90958200Y-66152300D03*
X91458200Y-66152300D03*
X91958200Y-66152300D03*
X92458200Y-66152300D03*
D41*
X89208200Y-62214800D03*
%TD*%
D42*
%TO.C,J1*%
X96622000Y-55521000D03*
D43*
X94122000Y-55521000D03*
X92122000Y-55521000D03*
X89622000Y-55521000D03*
X96622000Y-52901000D03*
X94122000Y-52901000D03*
X92122000Y-52901000D03*
X89622000Y-52901000D03*
D44*
X99416000Y-55871000D03*
X99416000Y-50191000D03*
X86843000Y-55871000D03*
X86843000Y-50191000D03*
%TD*%
D42*
%TO.C,J2*%
X81890000Y-55521000D03*
D43*
X79390000Y-55521000D03*
X77390000Y-55521000D03*
X74890000Y-55521000D03*
X81890000Y-52901000D03*
X79390000Y-52901000D03*
X77390000Y-52901000D03*
X74890000Y-52901000D03*
D44*
X84684000Y-55871000D03*
X84684000Y-50191000D03*
X72111000Y-55871000D03*
X72111000Y-50191000D03*
%TD*%
D15*
%TO.C,C62*%
X76734500Y-88773000D03*
X78459500Y-88773000D03*
%TD*%
D21*
%TO.C,C68*%
X63092500Y-90297000D03*
X61367500Y-90297000D03*
%TD*%
D45*
%TO.C,J8*%
X121319810Y-58801000D03*
X114319570Y-58801000D03*
D46*
X116719870Y-62049660D03*
D47*
X116719870Y-61249660D03*
D48*
X119719610Y-62049660D03*
D47*
X119719610Y-61249660D03*
X111619550Y-56352340D03*
D46*
X111619550Y-55552340D03*
X112719370Y-62049660D03*
D47*
X112719370Y-61249660D03*
%TD*%
D49*
%TO.C,Y1*%
X54461000Y-66562000D03*
X57361000Y-66562000D03*
X57361000Y-64262000D03*
X54461000Y-64262000D03*
%TD*%
D37*
%TO.C,H1*%
X54804000Y-107061000D03*
X55463010Y-105470010D03*
X55463010Y-108651990D03*
X57054000Y-104811000D03*
D38*
X57054000Y-107061000D03*
D37*
X57054000Y-109311000D03*
X58644990Y-105470010D03*
X58644990Y-108651990D03*
X59304000Y-107061000D03*
%TD*%
D12*
%TO.C,R36*%
X65055000Y-50776500D03*
X65055000Y-52601500D03*
%TD*%
D22*
%TO.C,R44*%
X76684500Y-91821000D03*
X78509500Y-91821000D03*
%TD*%
D11*
%TO.C,P3*%
X97586800Y-94132400D03*
D10*
X98856800Y-94132400D03*
X97586800Y-95402400D03*
X98856800Y-95402400D03*
X97586800Y-96672400D03*
X98856800Y-96672400D03*
X97586800Y-97942400D03*
X98856800Y-97942400D03*
X97586800Y-99212400D03*
X98856800Y-99212400D03*
X97586800Y-100482400D03*
X98856800Y-100482400D03*
X97586800Y-101752400D03*
X98856800Y-101752400D03*
%TD*%
D45*
%TO.C,J6*%
X121189000Y-98044000D03*
X114188760Y-98044000D03*
D46*
X116589060Y-101292660D03*
D47*
X116589060Y-100492660D03*
D48*
X119588800Y-101292660D03*
D47*
X119588800Y-100492660D03*
X111488740Y-95595340D03*
D46*
X111488740Y-94795340D03*
X112588560Y-101292660D03*
D47*
X112588560Y-100492660D03*
%TD*%
D21*
%TO.C,C67*%
X63092500Y-87249000D03*
X61367500Y-87249000D03*
%TD*%
D12*
%TO.C,D4*%
X94869000Y-108815500D03*
X94869000Y-110640500D03*
%TD*%
D13*
%TO.C,TP12*%
X73406000Y-62179200D03*
%TD*%
D24*
%TO.C,BTN3*%
X103886000Y-105763500D03*
X96876000Y-105763500D03*
D25*
X102636000Y-108253500D03*
X98136000Y-108253500D03*
%TD*%
D26*
%TO.C,U10*%
X104269000Y-91058500D03*
X105069000Y-91058500D03*
X105869000Y-91058500D03*
X106669000Y-91058500D03*
X107469000Y-91058500D03*
X108269000Y-91058500D03*
X109069000Y-91058500D03*
X109869000Y-91058500D03*
X110669000Y-91058500D03*
X111469000Y-91058500D03*
X112269000Y-91058500D03*
X113069000Y-91058500D03*
X113869000Y-91058500D03*
X114669000Y-91058500D03*
X115469000Y-91058500D03*
X116269000Y-91058500D03*
X117069000Y-91058500D03*
X117869000Y-91058500D03*
X118669000Y-91058500D03*
X119469000Y-91058500D03*
X120269000Y-91058500D03*
X121069000Y-91058500D03*
X121069000Y-79883500D03*
X120269000Y-79883500D03*
X119469000Y-79883500D03*
X118669000Y-79883500D03*
X117869000Y-79883500D03*
X117069000Y-79883500D03*
X116269000Y-79883500D03*
X115469000Y-79883500D03*
X114669000Y-79883500D03*
X113869000Y-79883500D03*
X113069000Y-79883500D03*
X112269000Y-79883500D03*
X111469000Y-79883500D03*
X110669000Y-79883500D03*
X109869000Y-79883500D03*
X109069000Y-79883500D03*
X108269000Y-79883500D03*
X107469000Y-79883500D03*
X106669000Y-79883500D03*
X105869000Y-79883500D03*
X105069000Y-79883500D03*
X104269000Y-79883500D03*
%TD*%
D15*
%TO.C,C70*%
X73305500Y-90297000D03*
X75030500Y-90297000D03*
%TD*%
D33*
%TO.C,BTN1*%
X56097000Y-50249000D03*
X56097000Y-54399000D03*
X53947000Y-50249000D03*
X53947000Y-54399000D03*
%TD*%
D50*
%TO.C,C39*%
X98679000Y-59716500D03*
X98679000Y-61441500D03*
%TD*%
D51*
%TO.C,R16*%
X97051500Y-59690000D03*
X95226500Y-59690000D03*
%TD*%
D21*
%TO.C,C73*%
X63092500Y-88773000D03*
X61367500Y-88773000D03*
%TD*%
D12*
%TO.C,D3*%
X77501000Y-108815500D03*
X77501000Y-110640500D03*
%TD*%
D37*
%TO.C,H2*%
X116653000Y-107061000D03*
X117312010Y-105470010D03*
X117312010Y-108651990D03*
X118903000Y-104811000D03*
D38*
X118903000Y-107061000D03*
D37*
X118903000Y-109311000D03*
X120493990Y-105470010D03*
X120493990Y-108651990D03*
X121153000Y-107061000D03*
%TD*%
D52*
%TO.C,J3*%
X104053000Y-51308000D03*
X104553000Y-51308000D03*
X105053000Y-51308000D03*
X105553000Y-51308000D03*
X106053000Y-51308000D03*
X106553000Y-51308000D03*
X107053000Y-51308000D03*
X107553000Y-51308000D03*
X108053000Y-51308000D03*
X108553000Y-51308000D03*
X109053000Y-51308000D03*
X109553000Y-51308000D03*
X110053000Y-51308000D03*
X110553000Y-51308000D03*
X111053000Y-51308000D03*
X111553000Y-51308000D03*
X112053000Y-51308000D03*
X112553000Y-51308000D03*
X113053000Y-51308000D03*
D53*
X101303000Y-50548000D03*
X115803000Y-50548000D03*
D54*
X101303000Y-44588000D03*
X115803000Y-44588000D03*
%TD*%
D21*
%TO.C,C46*%
X85063500Y-94615000D03*
X83338500Y-94615000D03*
%TD*%
D22*
%TO.C,R45*%
X73255500Y-88773000D03*
X75080500Y-88773000D03*
%TD*%
D37*
%TO.C,H3*%
X54804000Y-45375000D03*
X55463010Y-43784010D03*
X55463010Y-46965990D03*
X57054000Y-43125000D03*
D38*
X57054000Y-45375000D03*
D37*
X57054000Y-47625000D03*
X58644990Y-43784010D03*
X58644990Y-46965990D03*
X59304000Y-45375000D03*
%TD*%
D22*
%TO.C,R43*%
X76684500Y-90297000D03*
X78509500Y-90297000D03*
%TD*%
D21*
%TO.C,C38*%
X82777500Y-59690000D03*
X81052500Y-59690000D03*
%TD*%
%TO.C,C66*%
X89914900Y-91871800D03*
X88189900Y-91871800D03*
%TD*%
D11*
%TO.C,P1*%
X100203000Y-78333600D03*
D10*
X101473000Y-78333600D03*
X100203000Y-79603600D03*
X101473000Y-79603600D03*
X100203000Y-80873600D03*
X101473000Y-80873600D03*
%TD*%
D55*
%TO.C,U3*%
X61612500Y-60270000D03*
X61612500Y-60670000D03*
X61612500Y-61070000D03*
X61612500Y-61470000D03*
X61612500Y-61870000D03*
X61612500Y-62270000D03*
X61612500Y-62670000D03*
X61612500Y-63070000D03*
X61612500Y-63470000D03*
X61612500Y-63870000D03*
X61612500Y-64270000D03*
X61612500Y-64670000D03*
X61612500Y-65070000D03*
X61612500Y-65470000D03*
D56*
X62450000Y-66307500D03*
X62850000Y-66307500D03*
X63250000Y-66307500D03*
X63650000Y-66307500D03*
X64050000Y-66307500D03*
X64450000Y-66307500D03*
X64850000Y-66307500D03*
X65250000Y-66307500D03*
X65650000Y-66307500D03*
X66050000Y-66307500D03*
X66450000Y-66307500D03*
X66850000Y-66307500D03*
X67250000Y-66307500D03*
X67650000Y-66307500D03*
D55*
X68487500Y-65470000D03*
X68487500Y-65070000D03*
X68487500Y-64670000D03*
X68487500Y-64270000D03*
X68487500Y-63870000D03*
X68487500Y-63470000D03*
X68487500Y-63070000D03*
X68487500Y-62670000D03*
X68487500Y-62270000D03*
X68487500Y-61870000D03*
X68487500Y-61470000D03*
X68487500Y-61070000D03*
X68487500Y-60670000D03*
X68487500Y-60270000D03*
D56*
X67650000Y-59432500D03*
X67250000Y-59432500D03*
X66850000Y-59432500D03*
X66450000Y-59432500D03*
X66050000Y-59432500D03*
X65650000Y-59432500D03*
X65250000Y-59432500D03*
X64850000Y-59432500D03*
X64450000Y-59432500D03*
X64050000Y-59432500D03*
X63650000Y-59432500D03*
X63250000Y-59432500D03*
X62850000Y-59432500D03*
X62450000Y-59432500D03*
D57*
X65050000Y-62870000D03*
%TD*%
D15*
%TO.C,C71*%
X73305500Y-93345000D03*
X75030500Y-93345000D03*
%TD*%
D12*
%TO.C,R15*%
X100330000Y-59666500D03*
X100330000Y-61491500D03*
%TD*%
D13*
%TO.C,TP11*%
X73431400Y-64211200D03*
%TD*%
D11*
%TO.C,P2*%
X105359200Y-96647000D03*
D10*
X106629200Y-96647000D03*
X105359200Y-97917000D03*
X106629200Y-97917000D03*
X105359200Y-99187000D03*
X106629200Y-99187000D03*
X105359200Y-100457000D03*
X106629200Y-100457000D03*
X105359200Y-101727000D03*
X106629200Y-101727000D03*
%TD*%
D58*
%TO.C,BT1*%
X114966000Y-74803000D03*
D59*
X114966000Y-82253000D03*
%TD*%
M02*
